<?xml version="1.0" encoding="UTF-8" standalone="no"?>
<svg
   xmlns:dc="http://purl.org/dc/elements/1.1/"
   xmlns:cc="http://creativecommons.org/ns#"
   xmlns:rdf="http://www.w3.org/1999/02/22-rdf-syntax-ns#"
   xmlns:svg="http://www.w3.org/2000/svg"
   xmlns="http://www.w3.org/2000/svg"
   xmlns:sodipodi="http://sodipodi.sourceforge.net/DTD/sodipodi-0.dtd"
   xmlns:inkscape="http://www.inkscape.org/namespaces/inkscape"
   inkscape:version="1.0 (4035a4fb49, 2020-05-01)"
   sodipodi:docname="batalado.svg"
   id="svg955"
   viewBox="0 0 161.74928 144.50328"
   version="1.1"
   enable-background="new 0 0 283.464 283.464"
   height="144.50124"
   width="161.74699">
  <metadata
     id="metadata961">
    <rdf:RDF>
      <cc:Work
         rdf:about="">
        <dc:format>image/svg+xml</dc:format>
        <dc:type
           rdf:resource="http://purl.org/dc/dcmitype/StillImage" />
        <dc:title></dc:title>
      </cc:Work>
    </rdf:RDF>
  </metadata>
  <defs
     id="defs959" />
  <sodipodi:namedview
     inkscape:current-layer="svg955"
     inkscape:window-maximized="1"
     inkscape:window-y="0"
     inkscape:window-x="0"
     inkscape:cy="77.344048"
     inkscape:cx="76.000067"
     inkscape:zoom="1.6366085"
     fit-margin-bottom="10"
     fit-margin-right="10"
     fit-margin-left="10"
     fit-margin-top="10"
     lock-margins="true"
     showgrid="false"
     id="namedview957"
     inkscape:window-height="704"
     inkscape:window-width="1366"
     inkscape:pageshadow="2"
     inkscape:pageopacity="0"
     guidetolerance="10"
     gridtolerance="10"
     objecttolerance="10"
     borderopacity="1"
     bordercolor="#666666"
     pagecolor="#ffffff" />
  <polygon
     style="fill:#9a031e;fill-opacity:1"
     transform="translate(-65.730859,-64.386859)"
     id="polygon937"
     points="102.78,161.42 91.111,149.75 98.653,142.21 106.08,158.12 " />
  <polygon
     style="fill:#9a031e;fill-opacity:1"
     transform="translate(-65.730859,-64.386859)"
     id="polygon939"
     points="110.2,168.84 121.87,180.51 129.41,172.97 113.5,165.54 " />
  <polygon
     style="fill:#9a031e;fill-opacity:1"
     transform="translate(-65.730859,-64.386859)"
     id="polygon941"
     points="75.731,187.41 84.217,195.89 89.874,187.41 109.32,167.96 103.66,162.3 84.217,181.75 " />
  <polygon
     style="fill:#9a031e;fill-opacity:1"
     transform="translate(-65.730859,-64.386859)"
     id="polygon943"
     points="183.01,171.84 171.34,183.51 163.8,175.97 179.71,168.54 " />
  <polygon
     style="fill:#9a031e;fill-opacity:1"
     transform="translate(-65.730859,-64.386859)"
     id="polygon945"
     points="190.43,164.42 202.1,152.75 194.56,145.21 187.13,161.12 " />
  <polygon
     style="fill:#9a031e;fill-opacity:1"
     transform="translate(-65.730859,-64.386859)"
     id="polygon947"
     points="147.28,113.18 157.78,124.94 190.4,95.835 197.24,74.387 175.79,81.222 " />
  <polygon
     style="fill:#9a031e;fill-opacity:1"
     transform="translate(-65.730859,-64.386859)"
     id="polygon949"
     points="132.7,129.52 105.55,159.95 111.68,166.08 142.67,138.42 " />
  <polygon
     style="fill:#9a031e;fill-opacity:1"
     transform="translate(-65.730859,-64.386859)"
     id="polygon951"
     points="117.42,84.222 187.66,162.95 181.53,169.08 102.81,98.835 95.975,77.386 " />
  <polygon
     style="fill:#9a031e;fill-opacity:1"
     transform="translate(-65.730859,-64.386859)"
     id="polygon953"
     points="208.99,198.89 217.48,190.41 208.99,184.75 189.55,165.3 183.89,170.96 203.34,190.41 " />
</svg>
