<?xml version="1.0" encoding="UTF-8" standalone="no"?>
<svg
   xmlns:dc="http://purl.org/dc/elements/1.1/"
   xmlns:cc="http://creativecommons.org/ns#"
   xmlns:rdf="http://www.w3.org/1999/02/22-rdf-syntax-ns#"
   xmlns:svg="http://www.w3.org/2000/svg"
   xmlns="http://www.w3.org/2000/svg"
   xmlns:sodipodi="http://sodipodi.sourceforge.net/DTD/sodipodi-0.dtd"
   xmlns:inkscape="http://www.inkscape.org/namespaces/inkscape"
   inkscape:version="1.0 (4035a4fb49, 2020-05-01)"
   sodipodi:docname="bela.svg"
   id="svg2800"
   viewBox="0 0 819.47107 832.90002"
   height="832.90002"
   width="819.47107"
   version="1.1">
  <metadata
     id="metadata2806">
    <rdf:RDF>
      <cc:Work
         rdf:about="">
        <dc:format>image/svg+xml</dc:format>
        <dc:type
           rdf:resource="http://purl.org/dc/dcmitype/StillImage" />
        <dc:title></dc:title>
      </cc:Work>
    </rdf:RDF>
  </metadata>
  <defs
     id="defs2804" />
  <sodipodi:namedview
     inkscape:current-layer="svg2800"
     inkscape:window-maximized="1"
     inkscape:window-y="0"
     inkscape:window-x="0"
     inkscape:cy="434.71994"
     inkscape:cx="420.20007"
     inkscape:zoom="0.79496662"
     fit-margin-bottom="5"
     fit-margin-right="5"
     fit-margin-left="5"
     lock-margins="true"
     fit-margin-top="5"
     showgrid="false"
     id="namedview2802"
     inkscape:window-height="1016"
     inkscape:window-width="1920"
     inkscape:pageshadow="2"
     inkscape:pageopacity="0"
     guidetolerance="10"
     gridtolerance="10"
     objecttolerance="10"
     borderopacity="1"
     bordercolor="#666666"
     pagecolor="#ffffff" />
  <g
     transform="translate(120.20007,-53.280064)"
     style="fill:#e36414;fill-opacity:1"
     id="layer1">
    <g
       style="fill:#e36414;fill-opacity:1"
       id="g2705">
      <g
         id="g2703"
         style="fill:#e36414;fill-opacity:1;stroke-linejoin:miter">
        <path
           style="fill:#e36414;fill-opacity:1"
           id="path2701"
           d="m 259.33768,314.54724 c 9.25082,0.69489 18.95764,2.75786 28.55592,6.03693 2.3887,0.80346 2.67098,0.84686 6.08034,0.97723 14.9837,0.5863 31.37893,4.03906 45.05972,9.48963 4.69054,1.86755 12.92074,5.99353 17.11184,8.59937 14.07166,8.7296 25.10316,20 33.48533,34.15856 1.36807,2.32349 4.90771,9.22906 5.51575,10.7926 l 0.28232,0.69484 2.06295,-1.8241 c 4.14768,-3.6482 7.49185,-4.53852 10.83605,-2.90986 1.1292,0.54291 2.9099,2.25842 3.93052,3.80023 l 0.76004,1.15088 1.43324,0.13037 c 8.03472,0.73828 11.5961,2.34522 13.39846,6.03688 0.73834,1.5418 1.19434,3.51793 1.19434,5.2551 v 0.8904 l 1.88928,0.60803 c 5.75462,1.86755 8.92508,4.75573 10.05426,9.16394 0.3692,1.34637 0.43432,2.30188 0.41259,4.49511 l -0.0434,2.75788 2.36696,2.45384 c 1.32466,1.32466 2.71446,2.90987 3.10533,3.4745 2.84473,4.14765 3.17047,8.7948 0.89032,12.3996 -0.95545,1.49835 -2.90985,3.49615 -4.58197,4.66882 l -1.45493,1.02063 1.41153,1.17261 c 3.75678,3.12707 5.71118,6.4278 5.71118,9.59827 -0.0217,3.14874 -2.28016,5.66777 -7.01413,7.77417 -1.58523,0.69488 -1.69381,0.80346 -1.5635,1.3029 0.0651,0.30403 0.19543,1.91096 0.26057,3.58308 0.1303,3.6048 -0.17372,5.21172 -1.38978,7.53528 -1.99784,3.80024 -5.8415,6.36267 -11.4441,7.57874 -1.08578,0.2389 -2.23669,0.49945 -2.54072,0.5863 -0.5646,0.15204 -0.36916,0.3909 4.6254,5.79807 9.20738,10.01083 11.98698,13.11618 13.02934,14.67968 0.78174,1.15091 1.28119,2.28012 2.10638,4.82085 2.88818,8.9685 3.14874,15.43974 0.80348,21.21605 -0.30403,0.76005 -1.17262,2.38875 -1.88923,3.62655 -0.73834,1.23777 -1.52007,2.823 -1.73725,3.5613 -1.32464,4.2345 -1.69382,8.9468 -0.9555,11.7047 0.26062,0.9772 0.34748,1.8458 0.26062,2.823 -0.17374,2.0847 -1.95441,9.0554 -3.53964,13.87625 -1.8024,5.42885 -3.58307,9.14221 -6.44953,13.33331 -1.23777,1.80244 -2.67099,4.10424 -3.19217,5.10314 -3.82196,7.20954 -9.83715,11.22694 -18.0239,12.0304 -3.64822,0.3475 -8.03475,-0.15204 -12.22585,-1.3681 l -1.47663,-0.43426 -1.93267,1.82409 c -6.14551,5.84147 -14.09339,8.66447 -25.4289,8.99024 -7.405,0.21713 -15.00543,-0.69487 -24.71228,-2.99677 -1.47665,-0.3474 -2.73614,-0.5863 -2.8013,-0.5212 -0.19543,0.1955 0.56461,4.69063 1.4115,8.36056 1.32468,5.8197 3.06189,10.96631 5.45059,16.09118 l 0.86864,1.84583 2.80128,1.99783 c 11.24866,8.03476 23.06189,19.2617 35.41802,33.7025 l 3.0619,3.583 -67.88272,0.0652 c -37.32901,0.0217 -67.92618,0 -67.9696,-0.0435 -0.0434,-0.0434 0.5646,-1.52 1.36807,-3.3007 3.32248,-7.4267 4.10425,-10.7492 4.64713,-19.58746 0.89035,-14.26709 -2.84473,-27.42664 -9.88059,-35.00537 -0.60803,-0.65147 -1.4115,-1.58527 -1.78064,-2.06297 -1.49838,-1.9544 -17.13355,-25.32033 -18.06732,-27.0141 -1.12921,-2.063 -2.23669,-3.2574 -3.56134,-3.90883 -1.47669,-0.71662 -4.03912,-1.28117 -7.01413,-1.56357 -3.58307,-0.32565 -17.52444,-0.1302 -24.95114,0.3475 -9.07709,0.60803 -12.13898,0.2823 -16.30835,-1.73724 -4.45172,-2.14986 -7.51361,-5.6026 -8.94684,-10.09772 -1.10748,-3.49624 -1.30292,-6.23234 -0.67316,-9.98914 0.84693,-5.10314 0.60803,-8.55596 -0.82519,-11.37896 -0.93378,-1.84584 -1.67206,-2.77954 -3.97394,-5.03794 -1.62866,-1.5853 -2.367,-2.49734 -2.86645,-3.518 -1.19434,-2.4104 -0.86859,-4.4299 1.04235,-6.5581 0.73835,-0.8252 0.76007,-0.86857 0.43433,-1.4766 -0.47778,-0.9338 -2.41046,-2.97504 -3.88708,-4.10425 -2.28016,-1.75895 -2.30189,-2.93155 -0.0869,-6.08032 2.58411,-3.71338 3.30072,-6.16723 2.34528,-8.2085 -0.52118,-1.12921 -1.69385,-2.367 -4.90771,-5.16827 C 153.01843,492.89685 150,488.8578 150,487.0554 c 0,-0.80348 0.84692,-1.6721 3.25732,-3.36592 0.89032,-0.65146 2.12812,-1.54178 2.73615,-1.99783 1.06409,-0.78175 6.68841,-6.81865 10.72748,-11.46579 2.08471,-2.41043 5.42889,-6.77524 5.42889,-7.07926 0,-0.1303 -0.80347,-1.2378 -1.75897,-2.47558 -2.54071,-3.25732 -3.82196,-5.2334 -4.86426,-7.47015 -0.82519,-1.73725 -1.80243,-5.03797 -1.56354,-5.25513 0.0435,-0.0651 0.91205,0.80346 1.88923,1.91096 3.12707,3.47448 4.62542,4.38653 7.5136,4.6688 l 1.36805,0.13032 -0.0434,-10.61889 c -0.0217,-8.81647 0.0217,-11.16181 0.34741,-13.89795 1.12922,-10.01081 3.40937,-17.17694 7.36158,-23.34418 0.56463,-0.91205 1.97613,-3.71338 3.12707,-6.18897 3.19214,-7.01403 5.6026,-11.22693 7.83929,-13.74583 l 0.84693,-0.95552 -2.08472,-4.14764 c -6.51465,-12.96424 -7.36157,-25.16834 -2.45385,-34.98377 1.80236,-3.58301 3.90881,-6.29747 7.20953,-9.31592 2.36701,-2.17157 4.25629,-3.49621 8.29535,-5.90661 1.9544,-1.17267 4.10425,-2.58424 4.7557,-3.14881 8.51249,-7.23126 20.21717,-12.00866 33.22476,-13.55047 3.51792,-0.4126 12.55158,-0.58631 16.17808,-0.30402 z" />
      </g>
    </g>
    <g
       id="g2709"
       style="fill:#e36414;fill-opacity:1;stroke-linejoin:miter">
      <path
         style="fill:#e36414;fill-opacity:1"
         id="path2707"
         d="m 228.60725,287.55963 c 0.005,7e-5 0.01,7e-5 0.0153,10e-4 l -0.0287,-7e-5 c 0.004,-0.001 0.009,-0.001 0.0134,-0.001 z" />
    </g>
    <g
       id="g2713"
       style="fill:#e36414;fill-opacity:1;stroke-linejoin:miter">
      <path
         style="fill:#e36414;fill-opacity:1"
         id="path2711"
         d="m 151.44656,60.638004 2.34031,4.588772 c 8.85702,17.750674 20.4617,38.586144 24.5242,44.000514 8.2369,10.94733 10.48657,14.83149 13.11633,22.58675 2.26745,6.51418 6.32535,12.04468 20.74771,27.90213 6.95776,7.68486 13.33804,15.1722 14.15829,16.66435 1.14682,2.14699 1.74106,4.97562 2.78403,12.96357 1.76746,13.56761 1.41004,21.5027 -1.09204,22.7527 -0.53619,0.27223 -0.97113,0.95704 -0.99091,1.4819 -0.13989,2.15717 -3.32458,9.10998 -4.77148,10.28231 l -1.50766,1.22933 1.88443,1.18109 c 2.45004,1.67048 30.51279,16.93198 45.35608,24.73861 43.49817,22.8567 47.43961,25.28537 66.26562,40.60649 14.29139,11.58578 15.65839,14.09225 11.96906,22.01922 -1.90717,4.0773 -3.13586,5.66721 -14.91071,18.78146 -3.58122,3.9573 -6.64672,7.40482 -7.9439,8.89188 l -0.0392,-10e-4 -4.96155,1.78421 v 0 l -0.0134,-0.004 -0.0393,-10e-4 c 1.76368,-2.1633 4.05448,-5.85395 7.65833,-11.6878 10.51539,-16.90308 10.14325,-16.33338 9.29617,-17.12465 -0.0334,-0.0297 -0.0749,-0.0462 -0.12334,-0.0479 -0.9263,-0.035 -4.55606,5.15113 -11.42469,16.44449 -5.52389,9.03268 -7.09994,11.31424 -7.93267,11.28287 -0.0309,-10e-4 -0.0609,-0.006 -0.0904,-0.012 -0.4624,-0.13498 -0.79487,-0.615 -0.66064,-1.07736 0.13434,-0.4624 4.18107,-7.03154 8.96997,-14.68314 8.2081,-13.07324 8.6496,-13.93344 7.68622,-14.7304 -0.58032,-0.40033 -1.06269,-0.7463 -1.17908,-0.7507 -0.009,-3e-4 -0.0157,-6e-4 -0.0203,0.004 -0.0605,0.0558 -2.67238,4.2241 -5.78412,9.25037 -11.12964,17.69853 -12.49073,19.69153 -13.42436,19.65628 -0.58358,-0.022 -0.80416,-0.37909 -0.60262,-1.07395 0.19519,-0.51824 4.30702,-7.26052 9.09576,-14.9109 4.84748,-7.64952 8.83156,-14.10228 8.84034,-14.33683 0.0152,-0.40262 -1.30278,-1.15977 -1.82368,-1.17942 -0.0831,-0.003 -0.14605,0.0131 -0.17974,0.0526 -0.0627,0.11399 -0.9303,1.4256 -1.86756,3.0264 -5.7261,9.2525 -15.54165,24.66315 -16.2708,25.39502 -0.30406,0.31375 -0.56574,0.46591 -0.81526,0.45648 -0.20007,-0.007 -0.39209,-0.11868 -0.59184,-0.33398 -0.44948,-0.48453 0.37517,-2.207 2.98296,-6.258 11.99496,-18.95205 13.99026,-22.26663 14.14884,-23.3713 0.11413,-0.8367 0.0121,-1.2536 -0.2902,-1.26499 -0.76752,-0.029 -2.8261,2.55982 -5.90717,7.51908 -10.9414,17.35436 -13.29126,20.77322 -14.04983,20.74456 -1.45914,-0.055 -0.814,-1.66687 3.21994,-7.8851 15.01913,-23.44366 14.58743,-22.59677 12.45053,-23.20056 l -0.0392,-10e-4 c -0.60256,0.11332 -4.44198,5.58084 -9.84347,14.00462 -5.02918,7.81703 -9.48225,14.3126 -9.89765,14.47264 -0.0362,0.01 -0.0713,0.012 -0.1046,0.0108 -0.7265,-0.0274 -0.7643,-2.35882 0.0463,-3.11117 0.60806,-0.61887 14.8341,-22.93607 16.40324,-25.79941 0.93913,-1.65886 0.9457,-1.83304 0.0814,-2.15869 -0.22674,-0.11124 -0.4776,-0.16644 -0.7085,-0.17517 -0.29547,-0.0111 -0.55824,0.0543 -0.6944,0.18036 -0.24231,0.22584 -2.84979,4.27674 -5.8341,9.01477 -10.62952,16.84173 -12.17664,19.11957 -12.99396,19.08877 -0.46674,-0.0176 -0.8642,-0.32455 -0.85101,-0.67407 0.0132,-0.35077 4.06658,-7.09513 9.03961,-14.97238 8.08044,-12.78742 8.95922,-14.39041 8.23082,-15.23535 -0.4058,-0.39014 -0.77816,-0.6651 -0.97444,-0.6725 -0.0495,-0.002 -0.0874,0.0115 -0.11222,0.0465 -0.12106,0.1116 -4.22217,6.56118 -9.07574,14.386 -4.91052,7.7633 -9.18823,14.2656 -9.48654,14.42866 -0.10654,0.0789 -0.24073,0.11212 -0.38466,0.10672 -0.2618,-0.01 -0.55648,-0.14966 -0.77388,-0.38408 -0.39307,-0.42424 2.42025,-5.28487 8.51188,-14.9329 4.97304,-7.8786 9.08257,-14.5615 9.09365,-14.85423 0.011,-0.29022 -0.38208,-0.71435 -0.90067,-0.90957 -0.54324,-0.23072 -0.87758,-0.35837 -1.08346,-0.36618 -0.25202,-0.01 -0.31202,0.16138 -0.32642,0.54672 -0.0111,0.29266 -1.6361,3.09446 -3.62048,6.11758 -1.98639,3.08008 -5.96392,9.35996 -8.88507,13.98273 -3.81022,6.17481 -5.44068,8.40635 -6.3342,8.37262 -0.23062,-0.009 -0.41232,-0.16777 -0.56949,-0.4494 -0.16382,-0.29937 3.08697,-5.90407 7.19184,-12.47095 11.68774,-18.55316 10.93462,-17.17905 10.0921,-18.08772 -0.20887,-0.2255 -0.35425,-0.42885 -0.56196,-0.43675 -0.74197,-0.0279 -2.27948,2.43579 -10.34271,15.28073 -6.11253,9.73007 -8.96063,13.74362 -9.83038,13.71072 -0.22748,-0.009 -0.3197,-0.29397 -0.29968,-0.82626 0.0309,-0.81764 5.38953,-9.61524 13.52569,-22.34232 4.03357,-6.21842 4.35174,-6.90772 3.5029,-7.64092 -0.23066,-0.19544 -0.43986,-0.33198 -0.68036,-0.3411 -1.1183,-0.0422 -2.9202,2.68618 -10.754,15.2813 -5.58075,8.94263 -8.36697,12.8867 -9.25146,12.85334 -0.23926,-0.009 -0.33948,-0.31097 -0.31794,-0.88269 0.0242,-0.6423 9.36872,-15.95322 16.50776,-27.02235 0.86981,-1.37023 1.01312,-2.06545 0.56366,-2.54995 -0.22785,-0.24542 -0.41382,-0.43921 -0.65562,-0.44835 -1.01015,-0.0381 -2.9899,3.1504 -13.02962,19.27733 -3.04932,4.91114 -5.88798,8.89527 -6.47596,8.98923 -0.0928,0.0176 -0.18145,0.0242 -0.26482,0.021 -0.39207,-0.0148 -0.6619,-0.2439 -0.64927,-0.58106 0.0132,-0.34952 3.44553,-6.123 7.6113,-12.7457 4.10724,-6.62496 8.21027,-13.13317 9.01761,-14.38894 1.30906,-2.1706 1.37662,-2.40302 0.51376,-2.78494 -0.2521,-0.11216 -0.51758,-0.16974 -0.75662,-0.17882 -0.30563,-0.0114 -0.56851,0.0546 -0.70468,0.1818 -0.2419,0.22407 -4.031,6.16035 -8.44336,13.1237 -4.35394,6.96572 -8.56919,13.35403 -9.30494,14.25997 -0.6447,0.79566 -0.99368,1.16339 -1.2361,1.15423 -0.17225,-0.006 -0.29035,-0.20385 -0.42237,-0.57247 -0.26526,-0.71255 1.49435,-3.97656 5.71844,-10.59711 9.81577,-15.41064 12.11856,-19.12307 11.94767,-19.24646 -0.11457,-0.0624 -0.56818,-0.43072 -1.07824,-0.85928 -0.1306,-0.11075 -0.2598,-0.17871 -0.4034,-0.18408 -0.72704,-0.0275 -1.823,1.54953 -5.3576,7.2728 -12.07983,19.65017 -13.50842,21.8755 -14.32535,21.8447 -0.46685,-0.0177 -0.80595,-0.32224 -0.79278,-0.67298 0.022,-0.58289 8.07043,-14.07279 15.47343,-25.95012 2.3678,-3.8862 2.4304,-4.0001 1.3503,-4.80022 -0.56088,-0.44098 -1.08133,-0.69253 -1.2258,-0.698 -0.0164,-6.1e-4 -0.0283,0.002 -0.0343,0.008 -0.24445,0.28208 -10.70975,17.42065 -14.75882,24.04898 -2.38418,3.9345 -3.62161,5.58468 -4.41568,5.5547 -0.2439,-0.009 -0.4463,-0.17515 -0.62665,-0.48506 -0.16405,-0.29926 3.77695,-7.16287 8.75632,-15.21684 4.92151,-8.05477 8.86255,-14.9191 8.6983,-15.2183 -0.22034,-0.359 -0.67834,-0.61003 -1.08677,-0.62544 -0.4085,-0.0154 -4.8057,6.53989 -9.72442,14.53724 -6.41223,10.41757 -9.22641,14.50527 -10.08715,14.47283 -0.23433,-0.009 -0.32393,-0.32263 -0.30231,-0.89691 0.0198,-0.52484 4.01935,-7.38762 8.81478,-15.21347 6.8493,-11.13821 8.60877,-14.40365 8.04063,-14.83445 -0.45613,-0.30904 -0.91379,-0.56072 -1.0889,-0.56728 -0.17536,-0.007 -4.3411,6.61673 -9.32071,14.67053 -4.97928,8.05133 -9.3223,14.72681 -9.67702,14.82965 -0.1507,0.0438 -0.28017,0.0661 -0.38728,0.062 -1.27951,-0.0482 0.64508,-3.72544 8.11526,-15.90082 4.91675,-7.93939 8.7974,-14.74842 8.63332,-15.04582 -0.14458,-0.2565 -0.31743,-0.4034 -0.541,-0.41185 -1.13156,-0.0427 -3.56598,3.46997 -10.27484,14.43979 -4.79572,7.82578 -8.84223,14.39356 -8.96344,14.50772 -0.0403,0.0369 -0.11853,0.0537 -0.22443,0.0497 -0.21209,-0.008 -0.53363,-0.0993 -0.87793,-0.26816 -0.80597,-0.32108 -0.66748,-0.90079 1.14203,-3.93054 2.68351,-4.51551 13.33084,-21.82416 14.94275,-24.2764 l 1.17941,-1.82614 -1.31601,-0.75022 c -0.41924,-0.22979 -0.81982,-0.37228 -1.09768,-0.38284 -0.17743,-0.007 -0.30481,0.0405 -0.35462,0.15302 -0.5177,1.3242 -16.4472,26.9658 -17.48782,28.2128 -0.60791,0.6869 -0.93372,1.01104 -1.15692,1.00265 -0.1803,-0.007 -0.29364,-0.22998 -0.43445,-0.65338 -0.26758,-0.65437 0.49908,-2.37787 2.17367,-4.94409 1.42615,-2.16858 2.55161,-4.11238 2.556,-4.22968 0.007,-0.17535 2.81119,-4.80322 6.23448,-10.3427 3.42617,-5.59877 6.12063,-10.40696 5.89824,-10.70787 -0.14917,-0.27466 -0.32604,-0.4328 -0.55694,-0.44146 -1.12415,-0.0424 -3.52026,3.4642 -10.14005,14.41571 -4.73718,7.82986 -8.89843,14.3352 -9.25299,14.43808 -0.15558,0.0436 -0.28986,0.0633 -0.40283,0.059 -1.21808,-0.046 0.0449,-2.91948 4.09076,-9.50464 9.40295,-15.30994 12.71167,-20.9119 12.48491,-21.09668 -0.11455,-0.0624 -0.68953,-0.31729 -1.381,-0.57764 -0.2157,-0.0762 -0.4032,-0.12036 -0.57306,-0.1268 -0.557,-0.021 -0.91624,0.35681 -1.39914,1.27982 -0.44372,0.91886 -3.75055,6.46276 -7.42526,12.46203 -3.61377,5.94171 -7.16727,11.82693 -7.85327,12.96976 -0.88473,1.43097 -1.66193,2.14249 -2.27661,2.11923 -0.29364,-0.011 -0.55029,-0.19021 -0.76392,-0.53836 -0.16424,-0.2993 0.53956,-1.9078 1.59323,-3.5042 0.9957,-1.59992 4.97965,-8.05387 8.78208,-14.3397 5.42322,-8.97073 6.74997,-11.61 6.18182,-12.04086 -0.50445,-0.3393 -0.87994,-0.51737 -1.17938,-0.52864 -0.41138,-0.0155 -0.67902,0.2836 -0.93918,0.91624 -0.38769,0.97906 -8.18063,13.8942 -13.96506,23.14453 -1.78549,2.91563 -3.14853,4.47699 -3.78051,4.45316 -0.27174,-0.0102 -0.40833,-0.3147 -0.3852,-0.92853 0.0199,-0.52606 3.83319,-7.10214 8.44223,-14.64365 4.61005,-7.54037 8.40992,-13.76815 8.41431,-13.88421 0.004,-0.11794 -0.39532,-0.36618 -0.8555,-0.55974 -0.0191,-0.009 -0.0402,-0.0144 -0.0637,-0.0153 -0.89563,-0.0338 -5.07477,6.40158 -16.48779,25.1073 -1.15805,1.90424 -2.48087,3.08112 -3.08884,3.0582 -0.34061,-0.0129 -0.45724,-0.40314 -0.19394,-1.25276 0.19937,-0.63558 4.07105,-7.21117 8.55939,-14.63927 6.53778,-10.62433 8.11112,-13.60431 7.48459,-14.03726 -0.38056,-0.25684 -0.84665,-0.3974 -1.19528,-0.41055 -0.0692,-0.003 -0.13385,-1.9e-4 -0.19227,0.007 -0.47345,0.15778 -13.21969,20.42591 -16.29321,25.97858 -0.61502,1.05963 -1.54593,1.65762 -2.13961,1.63528 -0.43232,-0.0163 -0.68583,-0.35986 -0.51075,-1.09283 0.1344,-0.4624 3.88046,-6.80838 8.30637,-14.12253 4.48175,-7.25392 7.93362,-13.55295 7.7695,-13.85042 -0.16187,-0.3573 -0.67822,-0.60987 -1.02829,-0.62312 -0.40882,-0.0154 -4.3143,5.91532 -8.73801,13.17139 -7.09671,11.65506 -8.96319,14.51327 -9.94964,14.47603 -0.1742,-0.007 -0.32074,-0.10357 -0.46405,-0.25805 -0.3368,-0.36392 2.05044,-4.77368 6.96914,-12.7698 4.10956,-6.68369 7.91446,-13.02753 8.47925,-14.05805 1.00439,-1.83267 1.00439,-1.83267 -0.33807,-1.8833 -1.16733,-0.0441 -2.52411,1.83344 -9.68033,13.37012 -4.54444,7.36778 -8.51306,13.41228 -8.80509,13.40134 -0.29205,-0.0111 -0.39093,-0.48106 -0.19378,-1.05916 1.44684,-4.2691 2.83746,-11.69768 2.94427,-16.07738 0.25754,-6.82892 -1.00671,-10.49959 -5.36966,-15.69092 -2.73846,-3.31822 -10.67822,-9.75386 -12.07879,-9.80673 -0.23365,-0.009 -1.90433,2.44121 -3.65265,5.41402 -3.12082,5.25964 -5.37482,7.68767 -7.12564,7.62158 -0.46723,-0.0176 -1.71793,-0.94163 -2.78522,-2.09189 -1.34799,-1.45395 -1.88974,-2.58498 -1.83902,-3.92743 0.0374,-0.99232 -0.43048,-2.52925 -1.0419,-3.36984 -1.8331,-2.52534 -0.91296,-8.33426 1.60886,-10.10971 0.7204,-0.49843 1.1553,-1.18453 0.93695,-1.60085 -0.24518,-0.42791 -0.68604,-0.64055 -1.10169,-0.65623 -0.51318,-0.0194 -0.98755,0.26202 -1.00818,0.81038 -0.0528,1.40047 -2.23391,4.99998 -4.05298,6.7438 -1.14865,1.00846 -2.27761,1.49153 -3.50293,1.44535 -3.03311,-0.1726 -4.25741,-1.79686 -5.95855,-7.82215 -0.45935,-1.77165 -1.34168,-4.72609 -1.91742,-6.50152 l -1.04825,-3.19516 -5.13305,-1.83104 c -12.4542,-4.50229 -24.09513,-7.33823 -36.36991,-8.8532 -4.24725,-0.51018 -7.08725,-1.14421 -7.36179,-1.62138 -0.71234,-1.25441 -0.20367,-8.54125 0.93174,-12.2971 1.60745,-5.43297 5.04867,-11.44054 8.13976,-14.36327 4.35349,-4.03638 9.83161,-6.20677 14.594,-6.02709 1.7302,0.0652 3.36597,0.4399 4.81876,1.14895 1.49356,0.69883 2.93039,1.33737 3.16375,1.34617 0.29212,0.011 0.0143,-1.92816 -0.53946,-4.2865 -0.70501,-3.00712 -0.97882,-6.58365 -0.88665,-12.13258 0.13977,-8.35268 0.0901,-8.58758 -3.57685,-19.83009 C 145.1633,129.60172 141.56232,122.8035 130.04916,107.28957 119.26358,92.62199 110.71509,82.187195 99.54797,69.90119 L 88.94006,58.280064 Z" />
    </g>
    <g
       id="g2717"
       style="fill:#e36414;fill-opacity:1;stroke-linejoin:miter">
      <path
         style="fill:#e36414;fill-opacity:1"
         id="path2715"
         d="m 129.93744,429.4821 c -3.73006,1.21614 -7.57003,4.28584 -12.73726,10.15367 -2.26449,2.57413 -5.1066,5.37265 -6.3496,6.24097 -2.06144,1.42688 -2.6383,1.52206 -6.23123,0.83343 -2.16205,-0.40112 -5.82727,-1.45647 -8.16458,-2.27923 -7.86646,-2.85147 -22.40678,-6.54564 -38.805867,-9.9599 -29.701769,-6.19812 -27.155371,-5.39749 -29.911844,-9.20548 -3.010919,-4.20544 -14.223943,-17.69259 -17.075083,-20.56182 -3.26125,-3.3465 -6.1451503,-4.25776 -13.563409,-4.3053 -3.4736524,-0.0327 -11.596429,-0.11854 -18.048621,-0.12372 -6.425692,-0.0567 -12.566902,0.10008 -13.643543,0.396 -3.385923,0.93573 -6.833493,4.01068 -8.967083,8.10268 l -1.94377,3.72806 -6.923757,-1.50136 c -3.825063,-0.87504 -8.561608,-1.89655 -10.541497,-2.26817 l -3.566306,-0.74038 -2.39604,4.2171 c -2.36942,4.16543 -2.39627,4.21705 -1.0705,4.57941 9.83227,2.49209 20.749956,5.68139 20.873968,6.07504 0.0742,0.23663 -1.725391,6.21423 -4.012943,13.2546 -2.314911,7.09284 -4.656048,14.2361 -5.131298,16.03178 -1.439064,4.78146 -3.370747,6.21212 -10.502127,7.76214 -6.55583,1.45596 -14.09935,2.66022 -21.873434,3.54776 l -5.443222,0.58634 -9.694064,18.59231 c -5.34644,10.25407 -9.56557,18.72495 -9.41025,18.80594 0.51812,0.27003 7.04008,-0.74335 30.69567,-4.67767 3.17021,-0.5215 12.91747,-2.28815 21.67069,-3.91675 8.72586,-1.57608 16.926667,-3.03 18.131234,-3.19229 1.282756,-0.18676 3.979832,-0.55916 6.022148,-0.81276 2.069018,-0.30394 5.168552,-1.322 6.960094,-2.23186 5.614956,-2.93604 6.499068,-4.25348 16.054945,-23.97014 4.682641,-9.61314 8.5030494,-17.69816 8.507795,-17.95924 -0.081085,-1.36078 2.3408907,-2.46876 5.159396,-2.31629 2.6089262,0.17563 4.0365868,0.72211 9.553716,3.53171 l 6.473466,3.3754 -0.01976,5.72229 c 0.02628,3.10793 0.204885,6.42895 0.42587,7.26886 0.489242,1.96673 3.542233,3.69104 6.441872,3.68787 1.828352,0.0306 2.118567,-0.14704 2.883366,-2.1191 l 0.845985,-2.12773 2.226765,1.16116 c 2.900156,1.51212 4.555181,0.99094 5.675228,-1.91501 1.039213,-2.75162 1.31373,-12.75244 0.41223,-16.58145 l -0.631066,-2.83209 13.715744,3.00195 c 25.297632,5.54959 39.677392,7.90955 48.948062,8.06714 8.69758,0.12076 12.9437,0.81983 13.96189,2.40423 0.51086,0.66233 2.00473,4.99805 3.31188,9.56544 2.3461,8.00666 5.79665,15.53711 7.66126,16.50926 1.55365,0.81007 5.58076,0.53914 9.36261,-0.6502 7.03765,-2.1286 12.93215,-7.74828 16.00968,-15.16696 1.46953,-3.44994 2.80951,-10.06298 2.38998,-11.53192 -0.12343,-0.39468 -0.0604,-1.02108 0.12877,-1.38382 0.48564,-0.93145 -0.0486,-4.83377 -0.97943,-6.96395 -0.42754,-0.9491 -1.22537,-3.20887 -1.82008,-5.09949 -0.62212,-1.83954 -1.55913,-3.57962 -2.12873,-3.87659 -0.51774,-0.27005 -0.87578,-0.72017 -0.7409,-0.97882 0.32388,-0.62125 -3.77217,-4.00848 -6.82769,-5.60165 -2.17498,-1.13407 -2.82792,-1.14548 -5.34933,-0.3514 z" />
    </g>
    <g
       id="g2721"
       style="fill:#e36414;fill-opacity:1;stroke-linejoin:miter">
      <path
         style="fill:#e36414;fill-opacity:1"
         id="path2719"
         d="m 453.12463,514.48425 -0.0786,0.3545 0.037,1.2e-4 c 0.98901,0.49548 1.6366,0.78713 1.7699,0.78759 0.052,2.4e-4 0.0267,-0.0426 -0.0857,-0.1361 -0.25567,-0.20252 -0.84533,-0.56616 -1.6054,-1.00596 z" />
    </g>
    <g
       id="g2725"
       style="fill:#e36414;fill-opacity:1;stroke-linejoin:miter">
      <path
         style="fill:#e36414;fill-opacity:1"
         id="path2723"
         d="m 397.21112,357.9498 c 0.15155,-0.25864 0.71155,-0.72586 1.69086,-1.41702 0.92578,-0.63688 1.69098,-1.09438 1.74255,-1.06745 0.10309,0.0537 -0.38531,1.11647 -1.06036,2.41089 -0.81012,1.55368 -1.23462,1.99091 -1.276,1.31082 0.036,-0.57424 -0.27021,-0.99704 -0.66254,-1.00404 -0.38343,0.0485 -0.53625,-0.014 -0.45393,-0.1959 z m -9.38455,5.16504 0.25751,0.21446 0.0195,-0.0372 c 0.84143,-0.45922 2.04113,-1.16408 3.37732,-2.00018 2.66757,-1.70502 5.22195,-2.94192 5.71469,-2.75085 0.48388,0.16272 0.76922,0.23555 0.65637,0.45202 -0.13611,0.26105 -0.85175,0.73007 -2.49768,1.81519 -1.22333,0.81201 -1.836,1.25708 -1.98407,1.5412 -0.10778,0.20648 0.0298,0.32774 0.35705,0.44296 0.4928,0.19108 1.38532,-0.002 1.91387,-0.38504 0.362,-0.21582 0.5705,-0.36456 0.61867,-0.45691 0.0538,-0.10324 -0.0934,-0.13657 -0.4516,-0.11493 -0.40949,0.0315 -0.56971,-0.0622 -0.46051,-0.27144 0.0373,-0.0718 0.10577,-0.15742 0.20714,-0.2558 0.3717,-0.33335 0.86946,-0.40306 1.15376,-0.1891 0.20234,0.192 0.38714,0.1476 0.50744,-0.0834 0.0628,-0.1203 0.1076,-0.29173 0.12897,-0.50666 0.0339,-0.2521 0.0732,-0.42883 0.1239,-0.52603 0.0853,-0.16366 0.20178,-0.10384 0.37775,0.1948 0.25482,0.39633 1.43933,-0.10569 3.15778,-1.38364 1.0388,-0.77893 1.59545,-1.2689 1.69006,-1.45023 0.13196,-0.25307 -0.63361,0.0948 -2.23186,1.10221 -0.6703,0.41122 -0.8064,0.3197 -0.3301,-0.59394 0.14228,-0.27294 0.3385,-0.61984 0.59235,-1.04772 0.67487,-1.29482 1.63665,-2.50602 2.03308,-2.76069 0.26397,-0.1697 0.43507,-0.32953 0.48902,-0.4328 0.0269,-0.0519 0.0255,-0.0892 -0.01,-0.10751 -0.31012,-0.16162 -11.90311,7.1329 -15.39139,9.55393 z" />
    </g>
    <g
       id="g2729"
       style="fill:#e36414;fill-opacity:1;stroke-linejoin:miter">
      <path
         style="fill:#e36414;fill-opacity:1"
         id="path2727"
         d="m 392.80984,355.3323 c 0.41434,0.21604 17.66752,-11.27276 17.5427,-11.66702 -0.0218,-0.20938 -1.20651,0.29312 -2.57884,1.15818 -4.54256,2.90066 -15.2235,10.3735 -14.96386,10.50884 z" />
    </g>
    <g
       id="g2733"
       style="fill:#e36414;fill-opacity:1;stroke-linejoin:miter">
      <path
         style="fill:#e36414;fill-opacity:1"
         id="path2731"
         d="m 399.0551,349.0378 c 0.47322,-0.1488 4.77406,-2.71444 9.55315,-5.68932 4.80508,-3.02722 8.83965,-5.20532 8.9389,-4.89018 0.15161,0.3425 0.20557,0.23927 0.18628,-0.23177 0.008,-0.39153 0.64331,-0.98243 1.43267,-1.22933 3.99104,-1.21226 27.82795,-17.37043 28.0387,-19.03855 0.0884,-0.54672 0.2751,-0.77893 0.34705,-0.41187 0.1507,0.34204 2.17785,-0.64288 4.60721,-2.14245 2.34967,-1.47541 4.25439,-2.85363 4.20544,-3.01103 -0.17358,-0.55178 -18.94272,9.4227 -20.6144,10.98768 -0.95698,0.95056 -2.17585,1.89562 -2.6469,2.04514 -0.60582,0.2771 -0.71386,0.48431 -0.2995,0.70028 0.31114,0.16224 -0.77672,1.11002 -2.33434,2.07633 -1.63592,0.99109 -2.98492,1.93439 -3.03894,2.03793 -0.10809,0.20712 -18.78238,12.2724 -19.75612,12.7525 -1.501,0.73244 -9.37956,6.24118 -8.6192,6.04464 z m 47.57085,-30.8538 c 0.46679,0.24343 -1.7761,1.5109 -3.08548,1.75014 -0.89147,0.19388 -0.7049,-0.0381 0.82415,-0.8218 1.07941,-0.55716 2.10672,-1.00894 2.26133,-0.92834 z" />
    </g>
    <g
       id="g2737"
       style="fill:#e36414;fill-opacity:1;stroke-linejoin:miter">
      <path
         style="fill:#e36414;fill-opacity:1"
         id="path2735"
         d="m 402.79132,355.22668 c -0.0111,0.0211 -0.0123,0.0342 -0.002,0.0392 0.104,0.0543 3.0621,-1.8286 6.57586,-4.1458 3.4612,-2.34535 6.392,-4.17613 6.39066,-4.04515 0.001,0.008 -7.3e-4,0.0202 -0.009,0.0357 -0.14485,0.27754 -1.9516,1.66594 -4.25285,3.20894 -4.94313,3.40965 -7.26464,5.1383 -7.5683,5.65348 l -0.0195,0.0373 c -0.0619,0.13778 0.0628,0.16302 0.35846,0.0906 0.57615,-0.0947 4.5914,-2.74334 8.85096,-5.85782 5.54898,-4.03729 7.94834,-5.79473 8.06662,-6.02148 0.0696,-0.13345 -0.64618,0.26099 -1.97431,1.03046 -1.37237,0.86511 -2.60834,1.34046 -2.63031,1.13144 -0.0126,-0.0375 -10e-4,-0.086 0.029,-0.14398 0.1614,-0.30933 0.88332,-0.8845 1.77388,-1.41883 8.39096,-4.97577 25.57059,-17.64093 26.50919,-19.44119 0.0532,-0.10196 0.0544,-0.16886 -10e-4,-0.19794 -0.20697,-0.10797 -17.6275,10.43713 -17.78955,10.74808 -0.0541,0.10361 -2.56342,1.75946 -5.57515,3.7453 -2.80086,1.81644 -5.11964,3.5932 -5.39912,4.12928 -0.0183,0.0351 -0.027,0.0651 -0.0272,0.0893 0.0141,0.12832 -0.0121,0.2478 -0.0669,0.35295 -0.125,0.23973 -0.40338,0.4048 -0.73047,0.41716 -0.54919,0.0428 -1.26275,0.52694 -1.68997,1.09478 -0.85632,1.1345 -4.30426,4.2107 -8.35288,7.30314 -1.32034,1.04322 -2.35983,1.96232 -2.46548,2.165 z" />
    </g>
    <g
       id="g2741"
       style="fill:#e36414;fill-opacity:1;stroke-linejoin:miter">
      <path
         style="fill:#e36414;fill-opacity:1"
         id="path2739"
         d="m 420.5892,331.6135 c 1.28986,-0.57874 3.1831,-1.30448 4.12827,-1.6016 0.94453,-0.2982 2.81415,-1.1014 4.18268,-1.70532 2.10693,-1.00925 2.2395,-1.13803 0.93231,-1.02893 -0.81134,0.0379 -1.4931,0.20932 -1.41712,0.31475 0.05,0.15815 -0.84644,0.61277 -2.05426,1.03703 -1.13048,0.39834 -3.47372,1.48197 -5.13528,2.39404 -2.29334,1.24136 -2.45288,1.42148 -0.6366,0.59003 z" />
    </g>
    <g
       id="g2745"
       style="fill:#e36414;fill-opacity:1;stroke-linejoin:miter">
      <path
         style="fill:#e36414;fill-opacity:1"
         id="path2743"
         d="m 427.11566,324.14844 c 0.99694,-0.27074 14.22232,-6.81184 20.07291,-9.82104 2.37286,-1.26572 5.71963,-3.01182 7.48416,-3.87012 1.7132,-0.88495 2.9801,-1.67353 2.87707,-1.72724 -0.15454,-0.0806 -1.57568,0.49596 -3.18322,1.30408 -1.5293,0.78368 -2.94672,1.23031 -3.09968,1.0184 -0.1531,-0.21152 -0.41683,-0.0852 -0.60592,0.27725 -0.18896,0.3624 -5.35794,3.2002 -11.47108,6.33603 -10.98635,5.5349 -13.72957,7.00293 -12.07424,6.48264 z" />
    </g>
    <g
       id="g2749"
       style="fill:#e36414;fill-opacity:1;stroke-linejoin:miter">
      <path
         style="fill:#e36414;fill-opacity:1"
         id="path2747"
         d="m 433.5132,330.44803 c 0.20827,0.10857 4.87733,-2.66025 11.45042,-6.67583 4.93631,-3.02507 21.39853,-14.0041 21.34848,-14.1621 -0.0746,-0.23653 -8.9708,5.20267 -21.51443,13.21876 -9.27023,5.90307 -11.59561,7.457 -11.28447,7.61917 z" />
    </g>
    <g
       id="g2753"
       style="fill:#e36414;fill-opacity:1;stroke-linejoin:miter">
      <path
         style="fill:#e36414;fill-opacity:1"
         id="path2751"
         d="m 429.2564,347.32974 c 0.51832,0.27033 26.58375,-25.59317 26.3855,-26.22329 -0.0229,-0.20987 -1.02886,0.58305 -2.17217,1.76538 -1.11633,1.13057 -6.64493,6.67892 -12.3035,12.22537 -12.56717,12.48285 -12.16855,12.09775 -11.90983,12.23254 z" />
    </g>
    <g
       id="g2757"
       style="fill:#e36414;fill-opacity:1;stroke-linejoin:miter">
      <path
         style="fill:#e36414;fill-opacity:1"
         id="path2755"
         d="m 426.32294,356.99753 c 0.87556,-0.79443 1.8078,-1.8234 2.02398,-2.23789 0.21576,-0.414 -0.33825,-0.1102 -1.21405,0.68446 -0.87585,0.7949 -1.80682,1.8243 -2.02287,2.23876 -0.21614,0.41419 0.33696,0.1099 1.21294,-0.68533 z" />
    </g>
    <g
       id="g2761"
       style="fill:#e36414;fill-opacity:1;stroke-linejoin:miter">
      <path
         style="fill:#e36414;fill-opacity:1"
         id="path2759"
         d="m 429.77814,353.5302 c 0.47486,-0.2795 1.05976,-0.89653 1.27594,-1.3107 0.27002,-0.5181 0.0606,-0.49565 -0.60083,0.016 -1.35041,1.07431 -1.78247,1.90311 -0.67511,1.29473 z" />
    </g>
    <g
       id="g2765"
       style="fill:#e36414;fill-opacity:1;stroke-linejoin:miter">
      <path
         style="fill:#e36414;fill-opacity:1"
         id="path2763"
         d="m 453.11554,312.93872 c 0.10546,-0.0766 0.81786,-0.42956 1.52906,-0.78345 1.23852,-0.60565 1.23852,-0.60565 0.006,-0.39187 -0.65576,0.11914 -1.36609,0.4735 -1.52814,0.78415 -0.16192,0.31073 -0.16442,0.44115 -0.007,0.39117 z" />
    </g>
    <g
       id="g2769"
       style="fill:#e36414;fill-opacity:1;stroke-linejoin:miter">
      <path
         style="fill:#e36414;fill-opacity:1"
         id="path2767"
         d="m 517.19556,294.79333 c 0.0388,-0.0743 0.10734,-0.1336 0.20709,-0.17273 0.20845,-0.0229 0.64581,0.40308 1.00091,0.98334 0.29139,0.42481 0.41704,0.65723 0.3733,0.74103 -0.0407,0.0782 -0.22773,0.0277 -0.56592,-0.11713 -0.72888,-0.38 -1.20154,-1.07727 -1.01538,-1.43451 z" />
    </g>
    <g
       id="g2773"
       style="fill:#e36414;fill-opacity:1;stroke-linejoin:miter">
      <path
         style="fill:#e36414;fill-opacity:1"
         id="path2771"
         d="m 486.59207,292.19073 1.91779,-0.64678 c 1.07884,-0.42535 3.25036,-0.6764 4.8966,-0.67425 1.64534,10e-4 5.12812,-0.48744 7.77808,-1.14808 5.19366,-1.24402 5.37628,-1.21466 10.67133,2.27058 1.96103,1.32866 2.81343,2.25463 2.59219,2.67906 -0.20716,0.39716 -1.35541,0.35414 -3.41746,-0.21124 -2.70397,-0.7511 -5.57757,-0.8002 -10.7367,8e-4 -1.23094,0.21435 -1.72356,0.0231 -2.3101,-0.87555 -1.1737,-1.66547 -3.08497,-1.41053 -5.0783,0.64563 -1.80824,1.82403 -1.52125,1.9074 -5.04994,-1.05207 z m -21.94391,-0.29853 c -0.44604,0.8556 -0.33446,1.71595 0.1922,2.855 1.00734,2.23782 4.53351,3.81295 6.37659,2.92956 1.08045,-0.55649 1.18451,-0.50223 1.39325,0.98994 0.0903,0.8376 0.49408,1.7071 0.80524,1.86937 0.36163,0.18853 1.71911,1.75243 3.04826,3.49909 l 2.40187,3.22839 -1.66132,2.42728 c -0.45105,0.68319 -0.77319,1.1781 -0.97363,1.56271 -0.49017,0.93996 -0.26276,1.21996 0.52155,1.95596 0.9533,0.8261 1.02295,1.32373 0.32073,2.67014 -1.458,2.79629 -2.08886,7.67111 -1.4693,11.15549 0.35395,2.22687 0.27192,4.02832 -0.3247,5.29791 -0.78796,1.76256 -0.7403,2.05081 0.57593,2.93476 0.80255,0.4843 2.26787,1.84096 3.24407,2.87725 1.4604,1.6178 1.68665,2.19653 1.14667,3.23245 -1.08007,2.07147 -0.78985,4.92316 0.6471,6.46298 1.95038,2.07059 2.47125,2.21055 5.40778,1.5022 l 2.64947,-0.66008 4.61988,4.91164 c 4.594,4.83236 4.61865,4.91092 4.0363,6.91272 -2.23687,7.06701 -1.60344,9.76844 2.7986,12.06354 2.84808,1.48507 4.15887,1.24615 6.34106,-1.1727 1.30566,-1.49305 1.91131,-1.77 2.4245,-1.23862 0.33319,0.37128 1.10376,1.16815 1.69684,1.67492 0.79638,0.74464 0.89154,1.3213 0.32458,2.40864 -0.99902,1.91613 -0.34248,4.82724 1.45362,6.68603 1.2069,1.22193 1.90664,1.521 3.7601,1.63117 1.2538,-0.005 2.43365,-0.24652 2.6224,-0.60871 0.2432,-0.46628 1.635,0.65494 4.71524,3.84157 4.03176,4.144 6.28961,6.50704 15.60146,16.56575 2.84697,3.1311 15.70335,16.75035 27.1237,28.83051 2.4639,2.60177 4.5353,5.19684 4.6023,5.8244 0.28576,1.59834 1.54754,1.20202 8.22,-2.49851 14.0294,-7.83441 28.1257,-21.10061 34.034,-32.04975 0.28787,-0.53612 0.5356,-0.99785 0.7446,-1.39837 1.25365,-2.40435 1.1068,-2.5856 0.0638,-3.18588 -1.11263,-0.64625 -21.84773,-22.52307 -25.27777,-26.68262 l -1.2301,-1.43161 2.88164,1.04158 c 7.55635,2.68785 13.518,2.37148 17.41456,-0.93196 4.76884,-3.96841 6.30204,-5.01352 10.35859,-6.98234 6.69045,-3.2299 25.82925,-8.8612 43.97535,-12.9683 3.6405,-0.8181 7.63787,-1.72935 11.43395,-2.60273 v 0 L 694.271,305.6915 v 0 l -18.2756,-9.52878 -7.37095,3.27066 c -4.02675,1.78652 -12.26239,5.33054 -18.21075,7.8938 -5.97187,2.48468 -13.8665,5.87742 -17.6029,7.48652 -16.4488,7.16546 -30.0836,5.52312 -54.0449,-6.37766 -7.5639,-3.81211 -10.5383,-5.56012 -15.33694,-9.11576 -10.42136,-7.80551 -11.32586,-8.34268 -20.3523,-12.12701 -4.77366,-1.96213 -13.99836,-6.3765 -20.47166,-9.75153 -8.7527,-4.56357 -12.33,-6.16537 -13.84386,-6.29611 -1.12042,-0.12323 -4.00414,0.4809 -6.39514,1.27617 -2.41706,0.84773 -7.48206,2.22453 -11.2326,3.10112 -8.73585,2.09793 -10.81562,3.05536 -15.85688,7.67208 -2.33332,2.0768 -5.51239,4.63483 -7.17632,5.67738 -1.886,1.21642 -2.98042,2.11522 -3.45204,3.01982 z" />
    </g>
    <g
       id="g2777"
       style="fill:#e36414;fill-opacity:1;stroke-linejoin:miter">
      <path
         style="fill:#e36414;fill-opacity:1"
         id="path2775"
         d="m 436.35422,347.73746 c 0.31122,0.16226 6.02853,-5.7486 6.43606,-6.65566 0.18922,-0.3627 -1.05673,0.63436 -2.78268,2.30312 -3.05438,2.95228 -4.06763,4.13653 -3.65338,4.35254 z" />
    </g>
    <g
       id="g2781"
       style="fill:#e36414;fill-opacity:1;stroke-linejoin:miter">
      <path
         style="fill:#e36414;fill-opacity:1"
         id="path2779"
         d="m 440.26846,341.87424 c 5.62244,-4.97254 19.71234,-19.36191 19.53864,-19.91358 -0.19925,-0.6308 -19.30493,18.45456 -19.95795,19.95847 -0.16192,0.31057 0.0486,0.28869 0.41931,-0.0449 z" />
    </g>
    <g
       id="g2785"
       style="fill:#e36414;fill-opacity:1;stroke-linejoin:miter">
      <path
         style="fill:#e36414;fill-opacity:1"
         id="path2783"
         d="m 455.99146,311.2111 c 0.36279,0.18905 13.69364,-6.42893 13.93667,-6.89503 0.18909,-0.36277 -1.28509,0.31793 -10.79611,5.04135 -1.87006,0.935 -3.24352,1.7999 -3.14056,1.85368 z" />
    </g>
    <g
       id="g2789"
       style="fill:#e36414;fill-opacity:1;stroke-linejoin:miter">
      <path
         style="fill:#e36414;fill-opacity:1"
         id="path2787"
         d="m 457.12354,320.0346 c 1.34924,-1.075 1.78112,-1.90347 0.67511,-1.2948 -0.47577,0.2789 -1.06085,0.89576 -1.27692,1.31028 -0.27003,0.51772 -0.0605,0.49522 0.60181,-0.0155 z" />
    </g>
    <g
       id="g2793"
       style="fill:#e36414;fill-opacity:1;stroke-linejoin:miter">
      <path
         style="fill:#e36414;fill-opacity:1"
         id="path2791"
         d="m 461.5906,318.41177 c 4.4638,-4.39129 7.5783,-7.83892 5.64423,-6.27835 -1.48181,1.20331 -9.64407,9.52818 -9.86123,10.07315 -0.1352,0.25916 1.80047,-1.43249 4.217,-3.7948 z" />
    </g>
    <g
       id="g2797"
       style="fill:#e36414;fill-opacity:1;stroke-linejoin:miter">
      <path
         style="fill:#e36414;fill-opacity:1"
         id="path2795"
         d="m 329.0513,627.9109 q -58.3235,1.214 -91.6947,58.6275 -34.83052,60.4092 -51.9939,190.13555 l 278.50168,4.50615 q 0.64478,-3.5776 -6.85908,-66.0251 -3.85778,-29.6813 -8.5578,-52.3628 -9.31328,-45.1814 -24.27318,-73.23886 -32.22254,-59.24714 -94.78714,-61.6419" />
    </g>
  </g>
</svg>
