<?xml version="1.0" encoding="UTF-8" standalone="no"?>
<svg
   xmlns:dc="http://purl.org/dc/elements/1.1/"
   xmlns:cc="http://creativecommons.org/ns#"
   xmlns:rdf="http://www.w3.org/1999/02/22-rdf-syntax-ns#"
   xmlns:svg="http://www.w3.org/2000/svg"
   xmlns="http://www.w3.org/2000/svg"
   xmlns:sodipodi="http://sodipodi.sourceforge.net/DTD/sodipodi-0.dtd"
   xmlns:inkscape="http://www.inkscape.org/namespaces/inkscape"
   width="37.821884mm"
   height="37.821888mm"
   viewBox="0 0 37.821884 37.821888"
   version="1.1"
   id="svg2179"
   inkscape:version="1.0 (4035a4fb49, 2020-05-01)"
   sodipodi:docname="interrompo.svg">
  <defs
     id="defs2173" />
  <sodipodi:namedview
     id="base"
     pagecolor="#ffffff"
     bordercolor="#666666"
     borderopacity="1.0"
     inkscape:pageopacity="0.0"
     inkscape:pageshadow="2"
     inkscape:zoom="3.939005"
     inkscape:cx="54.135919"
     inkscape:cy="70.819879"
     inkscape:document-units="mm"
     inkscape:current-layer="layer1"
     inkscape:document-rotation="0"
     showgrid="false"
     inkscape:window-width="1920"
     inkscape:window-height="1016"
     inkscape:window-x="0"
     inkscape:window-y="0"
     inkscape:window-maximized="1"
     lock-margins="true"
     fit-margin-top="2"
     fit-margin-left="2"
     fit-margin-right="2"
     fit-margin-bottom="2" />
  <metadata
     id="metadata2176">
    <rdf:RDF>
      <cc:Work
         rdf:about="">
        <dc:format>image/svg+xml</dc:format>
        <dc:type
           rdf:resource="http://purl.org/dc/dcmitype/StillImage" />
        <dc:title />
      </cc:Work>
    </rdf:RDF>
  </metadata>
  <g
     inkscape:label="Calque 1"
     inkscape:groupmode="layer"
     id="layer1"
     transform="translate(-80.538145,-43.55718)">
    <path
       id="path2768"
       style="fill:#ff0000;stroke-width:15.9865;stroke-linecap:round;stroke-linejoin:round;stroke-opacity:0;paint-order:stroke markers fill"
       d="M 116.36003,62.468124 A 16.910944,16.910944 0 0 1 99.449089,79.379068 16.910944,16.910944 0 0 1 82.538145,62.468124 16.910944,16.910944 0 0 1 99.449089,45.55718 16.910944,16.910944 0 0 1 116.36003,62.468124 Z" />
    <g
       aria-label="!"
       id="text2744"
       style="font-style:normal;font-variant:normal;font-weight:500;font-stretch:normal;font-size:37.1849px;line-height:110%;font-family:'Clear Sans Medium';-inkscape-font-specification:'Clear Sans Medium, Medium';font-variant-ligatures:normal;font-variant-position:normal;font-variant-caps:normal;font-variant-numeric:normal;font-variant-alternates:normal;font-variant-east-asian:normal;text-indent:0;text-align:start;text-decoration:none;text-decoration-line:none;text-decoration-style:solid;text-decoration-color:#000000;letter-spacing:0px;word-spacing:0px;text-transform:none;writing-mode:lr-tb;direction:ltr;text-orientation:mixed;dominant-baseline:auto;baseline-shift:baseline;text-anchor:start;white-space:normal;shape-padding:0;opacity:1;vector-effect:none;fill:#ff0000;fill-opacity:1;stroke:#ffffff;stroke-width:0.697;stroke-linecap:butt;stroke-linejoin:miter;stroke-miterlimit:4;stroke-dasharray:none;stroke-dashoffset:0;stroke-opacity:1;paint-order:normal">
      <path
         d="M 101.14674,67.279647 H 97.878534 L 97.279363,49.776599 h 4.339447 z m 0.88968,5.465164 q 0,1.379908 -0.61733,1.906452 -0.61733,0.508387 -1.979081,0.508387 -0.744424,0 -1.234655,-0.16341 -0.49023,-0.145254 -0.798894,-0.435761 -0.290507,-0.308663 -0.417604,-0.76258 -0.127097,-0.453918 -0.127097,-1.053088 0,-1.289125 0.581014,-1.851983 0.581014,-0.562857 1.997236,-0.562857 1.434381,0 2.015391,0.581014 0.58102,0.562857 0.58102,1.833826 z"
         style="font-style:normal;font-variant:normal;font-weight:500;font-stretch:normal;font-size:37.1849px;font-family:'Clear Sans Medium';-inkscape-font-specification:'Clear Sans Medium, Medium';font-variant-ligatures:normal;font-variant-caps:normal;font-variant-numeric:normal;font-variant-east-asian:normal;fill:#ff0000;stroke:#ffffff;stroke-width:0.697;stroke-opacity:1;paint-order:normal;stroke-miterlimit:4;stroke-dasharray:none"
         id="path2770" />
    </g>
    <g
       style="font-style:normal;font-variant:normal;font-weight:500;font-stretch:normal;font-size:37.1849px;line-height:110%;font-family:'Clear Sans Medium';-inkscape-font-specification:'Clear Sans Medium, Medium';font-variant-ligatures:normal;font-variant-position:normal;font-variant-caps:normal;font-variant-numeric:normal;font-variant-alternates:normal;font-variant-east-asian:normal;text-indent:0;text-align:start;text-decoration:none;text-decoration-line:none;text-decoration-style:solid;text-decoration-color:#000000;letter-spacing:0px;word-spacing:0px;text-transform:none;writing-mode:lr-tb;direction:ltr;text-orientation:mixed;dominant-baseline:auto;baseline-shift:baseline;text-anchor:start;white-space:normal;shape-padding:0;opacity:1;vector-effect:none;fill:#ff0000;fill-opacity:1;stroke:none;stroke-width:0.697215px;stroke-linecap:butt;stroke-linejoin:miter;stroke-miterlimit:4;stroke-dasharray:none;stroke-dashoffset:0;stroke-opacity:1;paint-order:stroke markers fill"
       id="g846"
       aria-label="!">
      <path
         id="path844"
         style="font-style:normal;font-variant:normal;font-weight:500;font-stretch:normal;font-size:37.1849px;font-family:'Clear Sans Medium';-inkscape-font-specification:'Clear Sans Medium, Medium';font-variant-ligatures:normal;font-variant-caps:normal;font-variant-numeric:normal;font-variant-east-asian:normal;fill:#ff0000;stroke:none;stroke-width:0.697215px;stroke-opacity:1;paint-order:stroke markers fill"
         d="M 101.14674,67.279647 H 97.878534 L 97.279363,49.776599 h 4.339447 z m 0.88968,5.465164 q 0,1.379908 -0.61733,1.906452 -0.61733,0.508387 -1.979081,0.508387 -0.744424,0 -1.234655,-0.16341 -0.49023,-0.145254 -0.798894,-0.435761 -0.290507,-0.308663 -0.417604,-0.76258 -0.127097,-0.453918 -0.127097,-1.053088 0,-1.289125 0.581014,-1.851983 0.581014,-0.562857 1.997236,-0.562857 1.434381,0 2.015391,0.581014 0.58102,0.562857 0.58102,1.833826 z" />
    </g>
    <g
       aria-label="Interrompo"
       id="text2766"
       style="font-style:normal;font-variant:normal;font-weight:normal;font-stretch:normal;font-size:7.05556px;line-height:110%;font-family:'Kaushan Script';-inkscape-font-specification:'Kaushan Script, Normal';font-variant-ligatures:normal;font-variant-position:normal;font-variant-caps:normal;font-variant-numeric:normal;font-variant-alternates:normal;font-variant-east-asian:normal;text-indent:0;text-align:start;text-decoration:none;text-decoration-line:none;text-decoration-style:solid;text-decoration-color:#000000;letter-spacing:0px;word-spacing:0px;text-transform:none;writing-mode:lr-tb;direction:ltr;text-orientation:mixed;dominant-baseline:auto;baseline-shift:baseline;text-anchor:start;white-space:normal;shape-padding:0;opacity:1;vector-effect:none;fill:#ff0000;fill-opacity:1;stroke:#ffffff;stroke-width:0.5;stroke-linecap:butt;stroke-linejoin:miter;stroke-miterlimit:4;stroke-dasharray:none;stroke-dashoffset:0;stroke-opacity:1;paint-order:normal">
      <path
         d="m 83.704628,63.293626 c 0,0.162278 0.07056,0.578556 0.197556,0.627945 0.176389,0.07056 0.09172,0.3175 0.500945,0.338667 -0.01411,-0.02117 -0.02117,-0.0635 -0.02117,-0.148167 0,-1.044223 0.867834,-4.275669 1.679223,-5.016503 -0.07761,-0.169333 -0.585611,-0.423334 -0.769056,-0.437445 -0.536222,0.557389 -1.587501,3.612447 -1.587501,4.635503 z"
         style="font-style:normal;font-variant:normal;font-weight:normal;font-stretch:normal;font-size:7.05556px;font-family:'Kaushan Script';-inkscape-font-specification:'Kaushan Script, Normal';font-variant-ligatures:normal;font-variant-caps:normal;font-variant-numeric:normal;font-variant-east-asian:normal;fill:#ff0000;stroke:#ffffff;stroke-width:0.5;stroke-miterlimit:4;stroke-dasharray:none;stroke-opacity:1;paint-order:normal"
         id="path2774" />
      <path
         d="m 86.710286,60.273846 c -0.07761,0.03528 -0.409223,0.529168 -0.769057,1.354668 -0.3175,0.726723 -0.529167,1.516945 -0.529167,1.869723 0.04233,0.211667 0.127001,0.437445 0.324556,0.550334 0.112889,-0.0635 0.268112,-0.282222 0.472723,-0.5715 0.366889,-0.508001 0.6985,-0.896056 1.135945,-1.31939 0.275167,-0.268111 0.550334,-0.402167 0.5715,-0.402167 -0.324555,0.747889 -0.388055,1.037167 -0.388055,1.270001 0,0.416278 0.127,0.747889 0.670278,0.747889 0.162278,0 0.465667,-0.162278 0.606778,-0.289278 0,-0.04233 -0.02822,-0.119944 -0.0635,-0.141111 -0.0635,0 -0.197556,0.07056 -0.296334,0.07056 -0.112889,0 -0.176389,-0.04233 -0.176389,-0.275167 0,-0.578556 0.479778,-1.50989 0.733779,-1.841501 0.127,-0.148167 0.204611,-0.155223 0.204611,-0.176389 -0.09172,-0.176389 -0.261056,-0.381001 -0.500945,-0.381001 -0.458611,0 -1.121834,0.698501 -1.481668,1.079501 -0.162277,0.169334 -0.642056,0.762001 -0.938389,1.079501 0.05644,-0.430389 0.797278,-1.432279 1.008945,-1.947335 -0.09878,-0.310444 -0.338667,-0.599722 -0.585611,-0.677334 z"
         style="font-style:normal;font-variant:normal;font-weight:normal;font-stretch:normal;font-size:7.05556px;font-family:'Kaushan Script';-inkscape-font-specification:'Kaushan Script, Normal';font-variant-ligatures:normal;font-variant-caps:normal;font-variant-numeric:normal;font-variant-east-asian:normal;fill:#ff0000;stroke:#ffffff;stroke-width:0.5;stroke-miterlimit:4;stroke-dasharray:none;stroke-opacity:1;paint-order:normal"
         id="path2776" />
      <path
         d="m 90.195725,60.993514 c -0.359833,0.867834 -0.620889,1.820334 -0.620889,2.278946 0,0.331611 0.536223,0.733778 1.00189,0.747889 0.155222,-0.01411 0.663222,-0.352778 0.769056,-0.515056 -0.0071,-0.02822 -0.02822,-0.07056 -0.04939,-0.105833 -0.197556,0.155222 -0.458612,0.268111 -0.740834,0.303389 -0.148167,-0.02117 -0.232833,-0.134056 -0.232833,-0.345723 0,-0.578556 0.282222,-1.495778 0.747889,-2.39889 0.324556,-0.0071 0.613834,-0.05644 0.839612,-0.141111 0,-0.07761 -0.03528,-0.155223 -0.07761,-0.197556 -0.197555,0.02117 -0.395111,0.02822 -0.578556,0.02822 0.232834,-0.395111 0.409223,-0.670278 0.691445,-1.023056 -0.09172,-0.105833 -0.543278,-0.254 -0.733778,-0.254 -0.155222,0.08467 -0.564445,0.691445 -0.846667,1.248834 -0.1905,-0.0071 -0.416278,-0.02822 -0.663223,-0.04233 0,0.127 0.04939,0.359833 0.09172,0.416278 z"
         style="font-style:normal;font-variant:normal;font-weight:normal;font-stretch:normal;font-size:7.05556px;font-family:'Kaushan Script';-inkscape-font-specification:'Kaushan Script, Normal';font-variant-ligatures:normal;font-variant-caps:normal;font-variant-numeric:normal;font-variant-east-asian:normal;fill:#ff0000;stroke:#ffffff;stroke-width:0.5;stroke-miterlimit:4;stroke-dasharray:none;stroke-opacity:1;paint-order:normal"
         id="path2778" />
      <path
         d="m 94.386723,60.774791 c -0.1905,-0.239889 -0.395111,-0.373944 -0.606778,-0.402167 -0.931334,0 -1.989668,1.361723 -1.989668,2.518835 0,0.564445 0.381,1.008945 1.030112,1.079501 0.4445,-0.09878 0.987778,-0.500945 1.411112,-1.058334 -0.03528,-0.04233 -0.07056,-0.07761 -0.119945,-0.119945 -0.296333,0.317501 -0.783167,0.825501 -1.291167,0.825501 -0.268112,0 -0.324556,-0.324556 -0.324556,-0.564445 0,-0.0635 0.0071,-0.127 0.0071,-0.183444 1.199446,-0.479778 1.813279,-0.93839 1.883835,-2.095502 z m -0.486834,0.232834 c -0.03528,0.642056 -0.592667,1.220612 -1.340556,1.594556 0.225778,-0.874889 0.8255,-1.524001 1.340556,-1.594556 z"
         style="font-style:normal;font-variant:normal;font-weight:normal;font-stretch:normal;font-size:7.05556px;font-family:'Kaushan Script';-inkscape-font-specification:'Kaushan Script, Normal';font-variant-ligatures:normal;font-variant-caps:normal;font-variant-numeric:normal;font-variant-east-asian:normal;fill:#ff0000;stroke:#ffffff;stroke-width:0.5;stroke-miterlimit:4;stroke-dasharray:none;stroke-opacity:1;paint-order:normal"
         id="path2780" />
      <path
         d="m 94.54194,63.554682 c 0.0635,0.141111 0.409222,0.366889 0.578556,0.381 0.275167,-1.298223 0.578556,-1.799168 1.467556,-2.413001 0.09172,0.275166 0.303389,0.522111 0.55739,0.649111 0.141111,-0.141111 0.282222,-0.331611 0.289278,-0.388056 -0.0635,-0.105833 -0.09172,-0.261055 -0.09172,-0.465667 0,-0.225778 0.04233,-0.4445 0.127,-0.670278 -0.04233,-0.07055 -0.183444,-0.119944 -0.3175,-0.119944 -0.07761,0 -0.112889,0.0071 -0.148167,0.03528 -0.338666,0.508001 -0.719667,0.889001 -1.220611,1.340557 0.197555,-0.599723 0.373944,-0.959556 0.627944,-1.25589 -0.112889,-0.134055 -0.4445,-0.296333 -0.705556,-0.338667 -0.112889,0.112889 -0.197555,0.261056 -0.3175,0.550334 -0.338667,0.804334 -0.754945,2.14489 -0.846667,2.695224 z"
         style="font-style:normal;font-variant:normal;font-weight:normal;font-stretch:normal;font-size:7.05556px;font-family:'Kaushan Script';-inkscape-font-specification:'Kaushan Script, Normal';font-variant-ligatures:normal;font-variant-caps:normal;font-variant-numeric:normal;font-variant-east-asian:normal;fill:#ff0000;stroke:#ffffff;stroke-width:0.5;stroke-miterlimit:4;stroke-dasharray:none;stroke-opacity:1;paint-order:normal"
         id="path2782" />
      <path
         d="m 97.38533,63.554682 c 0.0635,0.141111 0.409223,0.366889 0.578556,0.381 0.275167,-1.298223 0.578556,-1.799168 1.467557,-2.413001 0.09172,0.275166 0.303389,0.522111 0.557389,0.649111 0.141108,-0.141111 0.282218,-0.331611 0.289278,-0.388056 -0.0635,-0.105833 -0.0917,-0.261055 -0.0917,-0.465667 0,-0.225778 0.0423,-0.4445 0.127,-0.670278 -0.0423,-0.07055 -0.18345,-0.119944 -0.317502,-0.119944 -0.07761,0 -0.112889,0.0071 -0.148167,0.03528 -0.338667,0.508001 -0.719667,0.889001 -1.220612,1.340557 0.197556,-0.599723 0.373945,-0.959556 0.627945,-1.25589 -0.112889,-0.134055 -0.4445,-0.296333 -0.705556,-0.338667 -0.112889,0.112889 -0.197556,0.261056 -0.3175,0.550334 -0.338667,0.804334 -0.754945,2.14489 -0.846668,2.695224 z"
         style="font-style:normal;font-variant:normal;font-weight:normal;font-stretch:normal;font-size:7.05556px;font-family:'Kaushan Script';-inkscape-font-specification:'Kaushan Script, Normal';font-variant-ligatures:normal;font-variant-caps:normal;font-variant-numeric:normal;font-variant-east-asian:normal;fill:#ff0000;stroke:#ffffff;stroke-width:0.5;stroke-miterlimit:4;stroke-dasharray:none;stroke-opacity:1;paint-order:normal"
         id="path2784" />
      <path
         d="m 101.23061,63.942738 c 1.12889,-0.239889 1.94028,-1.248834 1.94028,-2.427113 0,-0.451556 -0.11995,-0.663223 -0.37395,-0.663223 -0.0423,0 -0.0847,0.0071 -0.127,0.0071 -0.14111,-0.246945 -0.29633,-0.423334 -0.4445,-0.500945 -0.21872,0 -0.47272,0.09878 -0.72672,0.289278 -0.66322,0.486834 -1.15005,1.397001 -1.15005,2.151946 0,0.635 0.34572,1.086556 0.88194,1.143001 z m 0.35983,-2.222502 c 0.23284,-0.303389 0.56445,-0.606778 0.97367,-0.726722 0.0635,0.09878 0.0917,0.232833 0.0917,0.472722 0,1.100668 -0.61383,2.003779 -1.45344,2.187224 -0.0917,-0.02822 -0.18345,-0.275167 -0.18345,-0.500945 0,-0.373945 0.24695,-1.00189 0.5715,-1.432279 z"
         style="font-style:normal;font-variant:normal;font-weight:normal;font-stretch:normal;font-size:7.05556px;font-family:'Kaushan Script';-inkscape-font-specification:'Kaushan Script, Normal';font-variant-ligatures:normal;font-variant-caps:normal;font-variant-numeric:normal;font-variant-east-asian:normal;fill:#ff0000;stroke:#ffffff;stroke-width:0.5;stroke-miterlimit:4;stroke-dasharray:none;stroke-opacity:1;paint-order:normal"
         id="path2786" />
      <path
         d="m 107.58767,61.529736 c -0.18344,0.388056 -0.5715,1.023056 -0.5715,1.665112 0,0.388056 0.14111,0.712612 0.58561,0.712612 0.23989,0 0.43039,-0.112889 0.62089,-0.261056 0,-0.04233 0,-0.112889 -0.0564,-0.148167 -0.0494,0 -0.15523,0.0635 -0.26812,0.0635 -0.10583,0 -0.16227,-0.04233 -0.16227,-0.23989 0.007,-0.670278 0.71261,-1.792112 0.88194,-2.349501 -0.0635,-0.1905 -0.24694,-0.289278 -0.43744,-0.289278 -0.53623,0 -1.23473,0.832556 -2.15195,2.088446 0.0635,-0.395112 0.77611,-1.439334 0.86783,-1.813279 -0.0212,-0.05644 -0.33866,-0.239889 -0.5715,-0.239889 -0.60677,0 -1.56633,1.361723 -2.10255,2.116668 0.10583,-0.776112 0.81844,-1.516946 1.00189,-2.095502 -0.23284,-0.232833 -0.43039,-0.345722 -0.69145,-0.402166 -0.3175,0.557389 -0.70555,1.27 -0.91722,1.95439 -0.11289,0.359833 -0.17639,0.719667 -0.18345,0.945445 0.0494,0.254 0.11289,0.458611 0.35984,0.635 0.0988,-0.0635 0.33867,-0.479778 0.68439,-0.966612 0.52916,-0.740833 1.25589,-1.587501 1.54517,-1.601612 -0.57856,0.825501 -0.79023,1.481668 -0.88901,2.067279 0.0635,0.239889 0.22578,0.409223 0.43039,0.49389 0.45156,-0.550334 1.57339,-2.300113 2.02495,-2.335391 z"
         style="font-style:normal;font-variant:normal;font-weight:normal;font-stretch:normal;font-size:7.05556px;font-family:'Kaushan Script';-inkscape-font-specification:'Kaushan Script, Normal';font-variant-ligatures:normal;font-variant-caps:normal;font-variant-numeric:normal;font-variant-east-asian:normal;fill:#ff0000;stroke:#ffffff;stroke-width:0.5;stroke-miterlimit:4;stroke-dasharray:none;stroke-opacity:1;paint-order:normal"
         id="path2788" />
      <path
         d="m 108.392,66.031184 c 0.0423,0.02117 0.0635,0.04939 0.14111,0.134055 0.0423,0.07761 0.0847,0.105834 0.13406,0.112889 0.33161,-1.38289 0.76905,-2.836335 1.03716,-3.436058 0.1905,-0.4445 0.26106,-0.529167 0.93134,-1.361723 0.28222,-0.352778 0.55033,-0.550333 0.91016,-0.740834 -0.22577,1.206501 -0.93133,2.391835 -1.65805,2.822225 0.0423,0.105833 0.18344,0.183444 0.35278,0.183444 0.35983,0 0.94544,-0.366889 1.27,-0.783167 0.41627,-0.536223 0.65616,-1.227668 0.65616,-1.905001 0,-0.310445 -0.254,-0.529167 -0.61383,-0.529167 -0.22578,0 -0.54328,0.197555 -0.889,0.557389 -0.31045,0.324556 -0.43745,0.493889 -0.52917,0.649111 0.13406,-0.493889 0.5715,-1.354667 0.83961,-1.601612 -0.0635,-0.112889 -0.40922,-0.254 -0.73377,-0.303389 -0.16934,0.148167 -0.43745,0.627945 -0.508,0.846667 -0.0988,0.310445 -0.30339,0.881945 -0.81845,2.180168 -0.40922,1.037168 -0.68439,2.053168 -0.68439,2.455335 0,0.211667 0.0141,0.388056 0.0494,0.508001 0.007,0.112889 0.0564,0.197555 0.11289,0.211667 z"
         style="font-style:normal;font-variant:normal;font-weight:normal;font-stretch:normal;font-size:7.05556px;font-family:'Kaushan Script';-inkscape-font-specification:'Kaushan Script, Normal';font-variant-ligatures:normal;font-variant-caps:normal;font-variant-numeric:normal;font-variant-east-asian:normal;fill:#ff0000;stroke:#ffffff;stroke-width:0.5;stroke-miterlimit:4;stroke-dasharray:none;stroke-opacity:1;paint-order:normal"
         id="path2790" />
      <path
         d="m 113.25327,63.942738 c 1.12889,-0.239889 1.94028,-1.248834 1.94028,-2.427113 0,-0.451556 -0.11994,-0.663223 -0.37394,-0.663223 -0.0423,0 -0.0847,0.0071 -0.127,0.0071 -0.14111,-0.246945 -0.29634,-0.423334 -0.4445,-0.500945 -0.21872,0 -0.47273,0.09878 -0.72673,0.289278 -0.66322,0.486834 -1.15005,1.397001 -1.15005,2.151946 0,0.635 0.34572,1.086556 0.88194,1.143001 z m 0.35984,-2.222502 c 0.23283,-0.303389 0.56444,-0.606778 0.97366,-0.726722 0.0635,0.09878 0.0917,0.232833 0.0917,0.472722 0,1.100668 -0.61384,2.003779 -1.45345,2.187224 -0.0917,-0.02822 -0.18344,-0.275167 -0.18344,-0.500945 0,-0.373945 0.24694,-1.00189 0.5715,-1.432279 z"
         style="font-style:normal;font-variant:normal;font-weight:normal;font-stretch:normal;font-size:7.05556px;font-family:'Kaushan Script';-inkscape-font-specification:'Kaushan Script, Normal';font-variant-ligatures:normal;font-variant-caps:normal;font-variant-numeric:normal;font-variant-east-asian:normal;fill:#ff0000;stroke:#ffffff;stroke-width:0.5;stroke-miterlimit:4;stroke-dasharray:none;stroke-opacity:1;paint-order:normal"
         id="path2792" />
    </g>
    <g
       style="font-style:normal;font-variant:normal;font-weight:normal;font-stretch:normal;font-size:7.05556px;line-height:110%;font-family:'Kaushan Script';-inkscape-font-specification:'Kaushan Script, Normal';font-variant-ligatures:normal;font-variant-position:normal;font-variant-caps:normal;font-variant-numeric:normal;font-variant-alternates:normal;font-variant-east-asian:normal;text-indent:0;text-align:start;text-decoration:none;text-decoration-line:none;text-decoration-style:solid;text-decoration-color:#000000;letter-spacing:0px;word-spacing:0px;text-transform:none;writing-mode:lr-tb;direction:ltr;text-orientation:mixed;dominant-baseline:auto;baseline-shift:baseline;text-anchor:start;white-space:normal;shape-padding:0;opacity:1;vector-effect:none;fill:#ff0000;fill-opacity:1;stroke:none;stroke-width:0.5;stroke-linecap:butt;stroke-linejoin:miter;stroke-miterlimit:4;stroke-dasharray:none;stroke-dashoffset:0;stroke-opacity:1;paint-order:stroke markers fill"
       id="g868"
       aria-label="Interrompo">
      <path
         id="path848"
         style="font-style:normal;font-variant:normal;font-weight:normal;font-stretch:normal;font-size:7.05556px;font-family:'Kaushan Script';-inkscape-font-specification:'Kaushan Script, Normal';font-variant-ligatures:normal;font-variant-caps:normal;font-variant-numeric:normal;font-variant-east-asian:normal;fill:#ff0000;stroke:none;stroke-width:0.5;stroke-miterlimit:4;stroke-dasharray:none;stroke-opacity:1;paint-order:stroke markers fill"
         d="m 83.704628,63.293626 c 0,0.162278 0.07056,0.578556 0.197556,0.627945 0.176389,0.07056 0.09172,0.3175 0.500945,0.338667 -0.01411,-0.02117 -0.02117,-0.0635 -0.02117,-0.148167 0,-1.044223 0.867834,-4.275669 1.679223,-5.016503 -0.07761,-0.169333 -0.585611,-0.423334 -0.769056,-0.437445 -0.536222,0.557389 -1.587501,3.612447 -1.587501,4.635503 z" />
      <path
         id="path850"
         style="font-style:normal;font-variant:normal;font-weight:normal;font-stretch:normal;font-size:7.05556px;font-family:'Kaushan Script';-inkscape-font-specification:'Kaushan Script, Normal';font-variant-ligatures:normal;font-variant-caps:normal;font-variant-numeric:normal;font-variant-east-asian:normal;fill:#ff0000;stroke:none;stroke-width:0.5;stroke-miterlimit:4;stroke-dasharray:none;stroke-opacity:1;paint-order:stroke markers fill"
         d="m 86.710286,60.273846 c -0.07761,0.03528 -0.409223,0.529168 -0.769057,1.354668 -0.3175,0.726723 -0.529167,1.516945 -0.529167,1.869723 0.04233,0.211667 0.127001,0.437445 0.324556,0.550334 0.112889,-0.0635 0.268112,-0.282222 0.472723,-0.5715 0.366889,-0.508001 0.6985,-0.896056 1.135945,-1.31939 0.275167,-0.268111 0.550334,-0.402167 0.5715,-0.402167 -0.324555,0.747889 -0.388055,1.037167 -0.388055,1.270001 0,0.416278 0.127,0.747889 0.670278,0.747889 0.162278,0 0.465667,-0.162278 0.606778,-0.289278 0,-0.04233 -0.02822,-0.119944 -0.0635,-0.141111 -0.0635,0 -0.197556,0.07056 -0.296334,0.07056 -0.112889,0 -0.176389,-0.04233 -0.176389,-0.275167 0,-0.578556 0.479778,-1.50989 0.733779,-1.841501 0.127,-0.148167 0.204611,-0.155223 0.204611,-0.176389 -0.09172,-0.176389 -0.261056,-0.381001 -0.500945,-0.381001 -0.458611,0 -1.121834,0.698501 -1.481668,1.079501 -0.162277,0.169334 -0.642056,0.762001 -0.938389,1.079501 0.05644,-0.430389 0.797278,-1.432279 1.008945,-1.947335 -0.09878,-0.310444 -0.338667,-0.599722 -0.585611,-0.677334 z" />
      <path
         id="path852"
         style="font-style:normal;font-variant:normal;font-weight:normal;font-stretch:normal;font-size:7.05556px;font-family:'Kaushan Script';-inkscape-font-specification:'Kaushan Script, Normal';font-variant-ligatures:normal;font-variant-caps:normal;font-variant-numeric:normal;font-variant-east-asian:normal;fill:#ff0000;stroke:none;stroke-width:0.5;stroke-miterlimit:4;stroke-dasharray:none;stroke-opacity:1;paint-order:stroke markers fill"
         d="m 90.195725,60.993514 c -0.359833,0.867834 -0.620889,1.820334 -0.620889,2.278946 0,0.331611 0.536223,0.733778 1.00189,0.747889 0.155222,-0.01411 0.663222,-0.352778 0.769056,-0.515056 -0.0071,-0.02822 -0.02822,-0.07056 -0.04939,-0.105833 -0.197556,0.155222 -0.458612,0.268111 -0.740834,0.303389 -0.148167,-0.02117 -0.232833,-0.134056 -0.232833,-0.345723 0,-0.578556 0.282222,-1.495778 0.747889,-2.39889 0.324556,-0.0071 0.613834,-0.05644 0.839612,-0.141111 0,-0.07761 -0.03528,-0.155223 -0.07761,-0.197556 -0.197555,0.02117 -0.395111,0.02822 -0.578556,0.02822 0.232834,-0.395111 0.409223,-0.670278 0.691445,-1.023056 -0.09172,-0.105833 -0.543278,-0.254 -0.733778,-0.254 -0.155222,0.08467 -0.564445,0.691445 -0.846667,1.248834 -0.1905,-0.0071 -0.416278,-0.02822 -0.663223,-0.04233 0,0.127 0.04939,0.359833 0.09172,0.416278 z" />
      <path
         id="path854"
         style="font-style:normal;font-variant:normal;font-weight:normal;font-stretch:normal;font-size:7.05556px;font-family:'Kaushan Script';-inkscape-font-specification:'Kaushan Script, Normal';font-variant-ligatures:normal;font-variant-caps:normal;font-variant-numeric:normal;font-variant-east-asian:normal;fill:#ff0000;stroke:none;stroke-width:0.5;stroke-miterlimit:4;stroke-dasharray:none;stroke-opacity:1;paint-order:stroke markers fill"
         d="m 94.386723,60.774791 c -0.1905,-0.239889 -0.395111,-0.373944 -0.606778,-0.402167 -0.931334,0 -1.989668,1.361723 -1.989668,2.518835 0,0.564445 0.381,1.008945 1.030112,1.079501 0.4445,-0.09878 0.987778,-0.500945 1.411112,-1.058334 -0.03528,-0.04233 -0.07056,-0.07761 -0.119945,-0.119945 -0.296333,0.317501 -0.783167,0.825501 -1.291167,0.825501 -0.268112,0 -0.324556,-0.324556 -0.324556,-0.564445 0,-0.0635 0.0071,-0.127 0.0071,-0.183444 1.199446,-0.479778 1.813279,-0.93839 1.883835,-2.095502 z m -0.486834,0.232834 c -0.03528,0.642056 -0.592667,1.220612 -1.340556,1.594556 0.225778,-0.874889 0.8255,-1.524001 1.340556,-1.594556 z" />
      <path
         id="path856"
         style="font-style:normal;font-variant:normal;font-weight:normal;font-stretch:normal;font-size:7.05556px;font-family:'Kaushan Script';-inkscape-font-specification:'Kaushan Script, Normal';font-variant-ligatures:normal;font-variant-caps:normal;font-variant-numeric:normal;font-variant-east-asian:normal;fill:#ff0000;stroke:none;stroke-width:0.5;stroke-miterlimit:4;stroke-dasharray:none;stroke-opacity:1;paint-order:stroke markers fill"
         d="m 94.54194,63.554682 c 0.0635,0.141111 0.409222,0.366889 0.578556,0.381 0.275167,-1.298223 0.578556,-1.799168 1.467556,-2.413001 0.09172,0.275166 0.303389,0.522111 0.55739,0.649111 0.141111,-0.141111 0.282222,-0.331611 0.289278,-0.388056 -0.0635,-0.105833 -0.09172,-0.261055 -0.09172,-0.465667 0,-0.225778 0.04233,-0.4445 0.127,-0.670278 -0.04233,-0.07055 -0.183444,-0.119944 -0.3175,-0.119944 -0.07761,0 -0.112889,0.0071 -0.148167,0.03528 -0.338666,0.508001 -0.719667,0.889001 -1.220611,1.340557 0.197555,-0.599723 0.373944,-0.959556 0.627944,-1.25589 -0.112889,-0.134055 -0.4445,-0.296333 -0.705556,-0.338667 -0.112889,0.112889 -0.197555,0.261056 -0.3175,0.550334 -0.338667,0.804334 -0.754945,2.14489 -0.846667,2.695224 z" />
      <path
         id="path858"
         style="font-style:normal;font-variant:normal;font-weight:normal;font-stretch:normal;font-size:7.05556px;font-family:'Kaushan Script';-inkscape-font-specification:'Kaushan Script, Normal';font-variant-ligatures:normal;font-variant-caps:normal;font-variant-numeric:normal;font-variant-east-asian:normal;fill:#ff0000;stroke:none;stroke-width:0.5;stroke-miterlimit:4;stroke-dasharray:none;stroke-opacity:1;paint-order:stroke markers fill"
         d="m 97.38533,63.554682 c 0.0635,0.141111 0.409223,0.366889 0.578556,0.381 0.275167,-1.298223 0.578556,-1.799168 1.467557,-2.413001 0.09172,0.275166 0.303389,0.522111 0.557389,0.649111 0.141108,-0.141111 0.282218,-0.331611 0.289278,-0.388056 -0.0635,-0.105833 -0.0917,-0.261055 -0.0917,-0.465667 0,-0.225778 0.0423,-0.4445 0.127,-0.670278 -0.0423,-0.07055 -0.18345,-0.119944 -0.317502,-0.119944 -0.07761,0 -0.112889,0.0071 -0.148167,0.03528 -0.338667,0.508001 -0.719667,0.889001 -1.220612,1.340557 0.197556,-0.599723 0.373945,-0.959556 0.627945,-1.25589 -0.112889,-0.134055 -0.4445,-0.296333 -0.705556,-0.338667 -0.112889,0.112889 -0.197556,0.261056 -0.3175,0.550334 -0.338667,0.804334 -0.754945,2.14489 -0.846668,2.695224 z" />
      <path
         id="path860"
         style="font-style:normal;font-variant:normal;font-weight:normal;font-stretch:normal;font-size:7.05556px;font-family:'Kaushan Script';-inkscape-font-specification:'Kaushan Script, Normal';font-variant-ligatures:normal;font-variant-caps:normal;font-variant-numeric:normal;font-variant-east-asian:normal;fill:#ff0000;stroke:none;stroke-width:0.5;stroke-miterlimit:4;stroke-dasharray:none;stroke-opacity:1;paint-order:stroke markers fill"
         d="m 101.23061,63.942738 c 1.12889,-0.239889 1.94028,-1.248834 1.94028,-2.427113 0,-0.451556 -0.11995,-0.663223 -0.37395,-0.663223 -0.0423,0 -0.0847,0.0071 -0.127,0.0071 -0.14111,-0.246945 -0.29633,-0.423334 -0.4445,-0.500945 -0.21872,0 -0.47272,0.09878 -0.72672,0.289278 -0.66322,0.486834 -1.15005,1.397001 -1.15005,2.151946 0,0.635 0.34572,1.086556 0.88194,1.143001 z m 0.35983,-2.222502 c 0.23284,-0.303389 0.56445,-0.606778 0.97367,-0.726722 0.0635,0.09878 0.0917,0.232833 0.0917,0.472722 0,1.100668 -0.61383,2.003779 -1.45344,2.187224 -0.0917,-0.02822 -0.18345,-0.275167 -0.18345,-0.500945 0,-0.373945 0.24695,-1.00189 0.5715,-1.432279 z" />
      <path
         id="path862"
         style="font-style:normal;font-variant:normal;font-weight:normal;font-stretch:normal;font-size:7.05556px;font-family:'Kaushan Script';-inkscape-font-specification:'Kaushan Script, Normal';font-variant-ligatures:normal;font-variant-caps:normal;font-variant-numeric:normal;font-variant-east-asian:normal;fill:#ff0000;stroke:none;stroke-width:0.5;stroke-miterlimit:4;stroke-dasharray:none;stroke-opacity:1;paint-order:stroke markers fill"
         d="m 107.58767,61.529736 c -0.18344,0.388056 -0.5715,1.023056 -0.5715,1.665112 0,0.388056 0.14111,0.712612 0.58561,0.712612 0.23989,0 0.43039,-0.112889 0.62089,-0.261056 0,-0.04233 0,-0.112889 -0.0564,-0.148167 -0.0494,0 -0.15523,0.0635 -0.26812,0.0635 -0.10583,0 -0.16227,-0.04233 -0.16227,-0.23989 0.007,-0.670278 0.71261,-1.792112 0.88194,-2.349501 -0.0635,-0.1905 -0.24694,-0.289278 -0.43744,-0.289278 -0.53623,0 -1.23473,0.832556 -2.15195,2.088446 0.0635,-0.395112 0.77611,-1.439334 0.86783,-1.813279 -0.0212,-0.05644 -0.33866,-0.239889 -0.5715,-0.239889 -0.60677,0 -1.56633,1.361723 -2.10255,2.116668 0.10583,-0.776112 0.81844,-1.516946 1.00189,-2.095502 -0.23284,-0.232833 -0.43039,-0.345722 -0.69145,-0.402166 -0.3175,0.557389 -0.70555,1.27 -0.91722,1.95439 -0.11289,0.359833 -0.17639,0.719667 -0.18345,0.945445 0.0494,0.254 0.11289,0.458611 0.35984,0.635 0.0988,-0.0635 0.33867,-0.479778 0.68439,-0.966612 0.52916,-0.740833 1.25589,-1.587501 1.54517,-1.601612 -0.57856,0.825501 -0.79023,1.481668 -0.88901,2.067279 0.0635,0.239889 0.22578,0.409223 0.43039,0.49389 0.45156,-0.550334 1.57339,-2.300113 2.02495,-2.335391 z" />
      <path
         id="path864"
         style="font-style:normal;font-variant:normal;font-weight:normal;font-stretch:normal;font-size:7.05556px;font-family:'Kaushan Script';-inkscape-font-specification:'Kaushan Script, Normal';font-variant-ligatures:normal;font-variant-caps:normal;font-variant-numeric:normal;font-variant-east-asian:normal;fill:#ff0000;stroke:none;stroke-width:0.5;stroke-miterlimit:4;stroke-dasharray:none;stroke-opacity:1;paint-order:stroke markers fill"
         d="m 108.392,66.031184 c 0.0423,0.02117 0.0635,0.04939 0.14111,0.134055 0.0423,0.07761 0.0847,0.105834 0.13406,0.112889 0.33161,-1.38289 0.76905,-2.836335 1.03716,-3.436058 0.1905,-0.4445 0.26106,-0.529167 0.93134,-1.361723 0.28222,-0.352778 0.55033,-0.550333 0.91016,-0.740834 -0.22577,1.206501 -0.93133,2.391835 -1.65805,2.822225 0.0423,0.105833 0.18344,0.183444 0.35278,0.183444 0.35983,0 0.94544,-0.366889 1.27,-0.783167 0.41627,-0.536223 0.65616,-1.227668 0.65616,-1.905001 0,-0.310445 -0.254,-0.529167 -0.61383,-0.529167 -0.22578,0 -0.54328,0.197555 -0.889,0.557389 -0.31045,0.324556 -0.43745,0.493889 -0.52917,0.649111 0.13406,-0.493889 0.5715,-1.354667 0.83961,-1.601612 -0.0635,-0.112889 -0.40922,-0.254 -0.73377,-0.303389 -0.16934,0.148167 -0.43745,0.627945 -0.508,0.846667 -0.0988,0.310445 -0.30339,0.881945 -0.81845,2.180168 -0.40922,1.037168 -0.68439,2.053168 -0.68439,2.455335 0,0.211667 0.0141,0.388056 0.0494,0.508001 0.007,0.112889 0.0564,0.197555 0.11289,0.211667 z" />
      <path
         id="path866"
         style="font-style:normal;font-variant:normal;font-weight:normal;font-stretch:normal;font-size:7.05556px;font-family:'Kaushan Script';-inkscape-font-specification:'Kaushan Script, Normal';font-variant-ligatures:normal;font-variant-caps:normal;font-variant-numeric:normal;font-variant-east-asian:normal;fill:#ff0000;stroke:none;stroke-width:0.5;stroke-miterlimit:4;stroke-dasharray:none;stroke-opacity:1;paint-order:stroke markers fill"
         d="m 113.25327,63.942738 c 1.12889,-0.239889 1.94028,-1.248834 1.94028,-2.427113 0,-0.451556 -0.11994,-0.663223 -0.37394,-0.663223 -0.0423,0 -0.0847,0.0071 -0.127,0.0071 -0.14111,-0.246945 -0.29634,-0.423334 -0.4445,-0.500945 -0.21872,0 -0.47273,0.09878 -0.72673,0.289278 -0.66322,0.486834 -1.15005,1.397001 -1.15005,2.151946 0,0.635 0.34572,1.086556 0.88194,1.143001 z m 0.35984,-2.222502 c 0.23283,-0.303389 0.56444,-0.606778 0.97366,-0.726722 0.0635,0.09878 0.0917,0.232833 0.0917,0.472722 0,1.100668 -0.61384,2.003779 -1.45345,2.187224 -0.0917,-0.02822 -0.18344,-0.275167 -0.18344,-0.500945 0,-0.373945 0.24694,-1.00189 0.5715,-1.432279 z" />
    </g>
  </g>
</svg>
