<?xml version="1.0" encoding="UTF-8" standalone="no"?>
<svg
   xmlns:dc="http://purl.org/dc/elements/1.1/"
   xmlns:cc="http://creativecommons.org/ns#"
   xmlns:rdf="http://www.w3.org/1999/02/22-rdf-syntax-ns#"
   xmlns:svg="http://www.w3.org/2000/svg"
   xmlns="http://www.w3.org/2000/svg"
   xmlns:sodipodi="http://sodipodi.sourceforge.net/DTD/sodipodi-0.dtd"
   xmlns:inkscape="http://www.inkscape.org/namespaces/inkscape"
   inkscape:version="1.0 (4035a4fb49, 2020-05-01)"
   sodipodi:docname="karcerkaverno.svg"
   viewBox="0 0 492 320.33332"
   height="320.33331"
   width="492"
   xml:space="preserve"
   id="svg1700"
   version="1.1"><metadata
     id="metadata1706"><rdf:RDF><cc:Work
         rdf:about=""><dc:format>image/svg+xml</dc:format><dc:type
           rdf:resource="http://purl.org/dc/dcmitype/StillImage" /><dc:title></dc:title></cc:Work></rdf:RDF></metadata><defs
     id="defs1704"><clipPath
       id="clipPath1718"
       clipPathUnits="userSpaceOnUse"><path
         id="path1716"
         d="M 0,338 H 365 V 0 H 0 Z" /></clipPath></defs><sodipodi:namedview
     inkscape:current-layer="g1708"
     inkscape:window-maximized="1"
     inkscape:window-y="0"
     inkscape:window-x="0"
     inkscape:cy="160.16665"
     inkscape:cx="245.99999"
     inkscape:zoom="1.7216437"
     fit-margin-bottom="5"
     fit-margin-right="5"
     fit-margin-left="5"
     fit-margin-top="5"
     lock-margins="true"
     showgrid="false"
     id="namedview1702"
     inkscape:window-height="1016"
     inkscape:window-width="1920"
     inkscape:pageshadow="2"
     inkscape:pageopacity="0"
     guidetolerance="10"
     gridtolerance="10"
     objecttolerance="10"
     borderopacity="1"
     bordercolor="#666666"
     pagecolor="#ffffff" /><g
     transform="matrix(1.3333333,0,0,-1.3333333,2.6666667,385.49999)"
     inkscape:label="prison-2883749"
     inkscape:groupmode="layer"
     id="g1708"><g
       style="fill:#fb8b24;fill-opacity:1"
       id="g1712"><g
         style="fill:#fb8b24;fill-opacity:1"
         clip-path="url(#clipPath1718)"
         id="g1714"><g
           style="fill:#fb8b24;fill-opacity:1"
           transform="translate(349.5,191.625)"
           id="g1720"><path
             id="path1722"
             style="fill:#fb8b24;fill-opacity:1;fill-rule:evenodd;stroke:none"
             d="M 0,0 H -8.25 L -8,10.75 -7,32 0,32.25 Z m 0,-37.5 -8.25,-0.25 -0.5,2.75 v 0.5 l -0.25,5 v 0.75 l -0.25,5 V -23 l 0.25,2 0.25,2 0.25,1.75 v 0.5 l 1,4 -0.25,9 H 0 Z m 0,-39 -6.75,0.25 -0.25,1.75 v 0.75 l -0.25,5 v 1 l -0.25,4.5 v 0.75 l -0.25,5 v 0.75 l -0.25,5 -0.25,5.5 -0.25,5 H 0 Z m -22.5,0.75 -0.5,34.5 h 11 l 1.5,-35 z M -26.25,0 H -38 l 0.75,18.5 -0.75,12.75 h 11.75 z m 0,-37.5 -12.25,-0.25 1,34 h 11.25 z m 0,-38.25 -13,-0.5 0.25,35 h 12.75 z M -41.25,0 h -16 v 32.5 l 15.5,-1 0.75,-13.75 z m -1,-37.5 -15.25,-0.25 0.25,34 h 15.75 z m -0.75,-38.75 -14.5,-0.5 -0.5,35.5 h 15.75 z M -61,0 H -74.75 L -75,33 -61,32.75 Z m 0,-37.5 -12.75,-0.25 -0.75,12 -0.25,22 H -61 Z m 0,-39.25 -11.75,-0.25 0.75,16.25 -1.25,19.5 H -61 Z m -15.75,-0.25 -16,0.5 v 35.25 h 15.5 l 1.5,-20.5 z m -16.5,73.25 h 14.75 l 1,-33.75 -15.5,-0.25 z m -17.75,-72 -0.75,34.5 h 15 l 0.5,-35 z m -1.25,47 1.75,13 v 12 H -97 l 0.25,-33.75 -15.25,-0.25 z m -2,28.75 h -11.5 l -0.5,31 12.5,0.25 z m 0,-15.5 -1.75,-13.25 0.25,-8.75 -10,-0.25 v 34 h 11.5 z m -12.25,-59.75 1,34 h 9.75 l 1.25,-34.25 z m -2.75,37.5 H -142 l -0.5,34 h 13.25 z M -130,-75 l -12,-0.25 0.75,8.5 -0.5,25.5 h 12.25 z M -143.5,31.75 -130,31.25 -129.5,0 H -143 Z m -2.25,-107.25 -11.75,-0.75 v 35 h 12 l 0.5,-24.25 z m -11.75,71.75 h 11 l 1,-33.75 -12,-0.25 z m 0,36 10.25,-0.25 0.75,-32 h -11 z M -110,31.5 -96.75,32 -97,0 h -13.5 z m 16.75,0.75 14.75,0.5 V 0 H -93.25 Z M -12,-37.5 -22.75,-37.75 v 34 h 11.25 l 0.25,-8.25 -1.5,-13.75 z m -10.75,68.75 12,0.5 L -11.5,0 H -23 Z m -219.5,-90 2.25,-32.5 -2,-36.75 h -1.5 l -0.75,69.25 z M -243.5,-21 h 1 l 0.25,-34 h -1.5 z m 0,46.25 h 1 V -17.5 h -1 z m 3.564,0.234 0.936,-0.234 h 12 V -17.5 h -12 v 42.75 l -0.937,0.234 z M -223.5,-58.75 h 13.75 l -1.5,-69.25 h -12.25 z m 0,37.75 h 14.5 l -0.75,-34 h -13.75 z m 0,46.25 h 12.25 l 0.256,0.128 -0.256,-0.128 2,-42.75 h -14.25 z m 15.146,0.118 0.354,-0.118 h 12 V -17.5 h -9.75 L -208,25.25 Z m 24.604,-84.118 3,-69.25 h -11.75 l -0.75,69.25 z m 1.25,11.75 -1,-8 h -9 v 34 h 9.75 z m -10.181,72.311 0.181,-0.061 h 12 l 0.045,0.015 h 0.001 l -0.046,-0.015 -2,-42.75 h -10 v 42.75 l -0.182,0.061 z M -176.25,-58.75 V -128 h -1 l -3,69.25 z m -3,10.25 V -21 h 3 v -34 h -4 z m -0.516,73.763 1.753,-0.006 v -0.001 z m 3.516,-0.013 V -17.5 h -3 L -177,25.25 Z M -196,-55 h -10.25 l 0.75,34 h 9.5 z m 0,-73 h -12 l 1.75,69.25 H -196 Z m -31,73 h -12 l -0.25,34 H -227 Z m 0,-73 h -11.75 l 2,38 -2,31.25 H -227 Z M -262.5,0 h -3.5 v 21.75 l 0.75,10.5 h 2.75 z m 0,-37.75 h -4.25 l -0.5,13.75 1.5,11.75 -0.5,8.5 h 3.75 z m 0,-38.75 -2.75,0.25 -1.25,35 h 4 z m -17.75,0.75 -0.25,34.5 h 10.5 l 1.75,-35.25 z M -283.75,0 h -10.75 l 0.25,17.75 -1,13.75 11.5,0.75 z m 0,-37.5 -11.75,-0.25 1,34 h 10.75 z m 0,-38 -12.25,-0.25 0.75,34.5 h 11.5 z m -14,90 L -298,2.75 V 2.5 L -298.25,0 h -15.25 v 30.75 l 14.75,0.5 0.75,-10.5 0.25,-6 z m -0.5,-23.75 V -9.5 l -0.25,-12 -0.25,-11.75 v -0.25 l -0.25,-4 -14.5,-0.25 v 34 h 15.25 z M -299,-45.5 -299.25,-57.25 -299.5,-69 v -0.25 -7 l -14.25,-0.25 0.25,35.25 H -299 Z M -317,0 h -13.25 L -330,31.75 -317,31 Z m 0,-37.5 -12.25,-0.25 -0.75,13.5 -0.25,20.5 H -317 Z m 0,-39 h -11.25 l 0.75,15.5 -1.25,19.75 H -317 Z m -14.25,16 v -4.25 -1.5 l -0.25,-3 v -1.5 l -0.25,-3 v -1.5 L -332,-76.5 h -2.75 l 0.25,35.25 h 2 l 0.25,-1.5 v -1.75 l 0.25,-2.25 v -1.75 l 0.25,-2.25 v -1.75 l 0.25,-2.25 v -1.75 l 0.25,-2.25 z m -3.25,56.75 h 1 V -24.5 l 0.25,-2.75 v -1.25 l 0.25,-2.75 v -1 l 0.25,-2.75 v -1.25 -1.25 h -1.75 z m 0,35.75 h 0.75 L -333.5,2 V 0 h -1 z m 54.25,-35.75 h 10.75 V -12 l -1.25,-10.25 0.5,-15.25 -10.25,-0.25 z m 0,36 H -269 l -0.75,-16 L -269.5,0 h -10.75 z M 11.5,35.25 13.75,36 13.5,93.75 H -347.75 V 36 L -346,35.5 V -80.75 l -1.75,-0.5 V -139 l 93,0.25 2.25,2.25 8,-0.5 h 68.25 c 5.333,-0.833 8.167,-0.417 8.5,1.25 v 169.5 h -8.5 -68 l -8.5,-0.25 v 0.75 H -166 V -79.5 l -0.75,-0.25 v -1.5 l 0.5,-57.75 H 13.5 l 0.25,57.75 -2.25,0.75 z" /></g></g></g></g></svg>
