<?xml version="1.0" encoding="UTF-8" standalone="no"?>
<svg
   xmlns:dc="http://purl.org/dc/elements/1.1/"
   xmlns:cc="http://creativecommons.org/ns#"
   xmlns:rdf="http://www.w3.org/1999/02/22-rdf-syntax-ns#"
   xmlns:svg="http://www.w3.org/2000/svg"
   xmlns="http://www.w3.org/2000/svg"
   xmlns:sodipodi="http://sodipodi.sourceforge.net/DTD/sodipodi-0.dtd"
   xmlns:inkscape="http://www.inkscape.org/namespaces/inkscape"
   inkscape:version="1.0 (4035a4fb49, 2020-05-01)"
   sodipodi:docname="malliberiÄis.svg"
   viewBox="0 0 273.33334 211.248"
   height="211.248"
   width="273.33334"
   xml:space="preserve"
   id="svg1542"
   version="1.1"><metadata
     id="metadata1548"><rdf:RDF><cc:Work
         rdf:about=""><dc:format>image/svg+xml</dc:format><dc:type
           rdf:resource="http://purl.org/dc/dcmitype/StillImage" /></cc:Work></rdf:RDF></metadata><defs
     id="defs1546"><clipPath
       id="clipPath1558"
       clipPathUnits="userSpaceOnUse"><path
         id="path1556"
         d="M 0,158.436 H 205 V 0 H 0 Z" /></clipPath><clipPath
       id="clipPath1582"
       clipPathUnits="userSpaceOnUse"><path
         id="path1580"
         d="M 12.3056,147.818 H 192.694 V 13.2485 H 12.3056 Z" /></clipPath><clipPath
       id="clipPath1586"
       clipPathUnits="userSpaceOnUse"><path
         id="path1584"
         d="M 13.3057,146.817 H 25.1714 V 15.5103 H 13.3057 Z" /></clipPath><clipPath
       id="clipPath1590"
       clipPathUnits="userSpaceOnUse"><path
         id="path1588"
         d="M 54.9365,146.503 H 66.8022 V 15.1949 H 54.9365 Z" /></clipPath><clipPath
       id="clipPath1594"
       clipPathUnits="userSpaceOnUse"><path
         id="path1592"
         d="M 96.5674,146.187 H 108.433 V 14.8795 H 96.5674 Z" /></clipPath><clipPath
       id="clipPath1598"
       clipPathUnits="userSpaceOnUse"><path
         id="path1596"
         d="m 138.198,145.872 h 11.865 V 14.564 h -11.865 z" /></clipPath><clipPath
       id="clipPath1602"
       clipPathUnits="userSpaceOnUse"><path
         id="path1600"
         d="m 179.829,145.556 h 11.865 V 14.2486 h -11.865 z" /></clipPath></defs><sodipodi:namedview
     inkscape:current-layer="g1550"
     inkscape:window-maximized="1"
     inkscape:window-y="0"
     inkscape:window-x="0"
     inkscape:cy="105.624"
     inkscape:cx="136.66667"
     inkscape:zoom="3.6728746"
     showgrid="false"
     id="namedview1544"
     inkscape:window-height="1016"
     inkscape:window-width="1920"
     inkscape:pageshadow="2"
     inkscape:pageopacity="0"
     guidetolerance="10"
     gridtolerance="10"
     objecttolerance="10"
     borderopacity="1"
     bordercolor="#666666"
     pagecolor="#ffffff" /><g
     transform="matrix(1.3333333,0,0,-1.3333333,0,211.248)"
     inkscape:label="icon-2071965"
     inkscape:groupmode="layer"
     id="g1550"><g
       style="fill:#9a031e;fill-opacity:1"
       transform="translate(163.6846,8.1353)"
       id="g1560"><path
         id="path1562"
         style="fill:#9a031e;fill-opacity:1;fill-rule:nonzero;stroke:none"
         d="m 0,0 h -122.369 v 24.979 c 0,19.798 16.05,35.848 35.848,35.848 h 50.672 C -16.05,60.827 0,44.777 0,24.979 Z" /></g><g
       transform="translate(163.6846,8.1353)"
       id="g1564"><path
         id="path1566"
         style="fill:none;stroke:#ffffff;stroke-width:2;stroke-linecap:butt;stroke-linejoin:miter;stroke-miterlimit:10;stroke-dasharray:none;stroke-opacity:1"
         d="m 0,0 h -122.369 v 24.979 c 0,19.798 16.05,35.848 35.848,35.848 h 50.672 C -16.05,60.827 0,44.777 0,24.979 Z" /></g><g
       style="fill:#9a031e;fill-opacity:1"
       transform="translate(133.3867,104.2081)"
       id="g1568"><path
         id="path1570"
         style="fill:#9a031e;fill-opacity:1;fill-rule:nonzero;stroke:none"
         d="m 0,0 c 0,-17.058 -13.828,-30.887 -30.887,-30.887 -17.058,0 -30.886,13.829 -30.886,30.887 0,17.058 13.828,30.887 30.886,30.887 C -13.828,30.887 0,17.058 0,0" /></g><g
       transform="translate(133.3867,104.2081)"
       id="g1572"><path
         id="path1574"
         style="fill:none;stroke:#ffffff;stroke-width:2;stroke-linecap:butt;stroke-linejoin:miter;stroke-miterlimit:10;stroke-dasharray:none;stroke-opacity:1"
         d="m 0,0 c 0,-17.058 -13.828,-30.887 -30.887,-30.887 -17.058,0 -30.886,13.829 -30.886,30.887 0,17.058 13.828,30.887 30.886,30.887 C -13.828,30.887 0,17.058 0,0 Z" /></g><g
       id="g1612"
       style="stroke:none;stroke-opacity:1;fill:#9a031e;fill-opacity:1"><g
         id="g1604"
         style="stroke:none;stroke-opacity:1;fill:#9a031e;fill-opacity:1" /><g
         id="g1610"
         style="stroke:none;stroke-opacity:1;fill:#9a031e;fill-opacity:1"><g
           clip-path="url(#clipPath1586)"
           id="g1608"
           style="stroke:none;stroke-opacity:1;fill:#9a031e;fill-opacity:1"><path
             d="M 13.306,146.817 H 25.172 V 15.51 H 13.306 Z"
             style="fill:#9a031e;fill-opacity:1;fill-rule:nonzero;stroke:none;stroke-opacity:1"
             id="path1606" /></g></g></g><g
       transform="translate(26.1714,147.8175)"
       id="g1616"
       style="stroke:none;stroke-opacity:1"><path
         d="m 0,0 h -2 -9.866 -2 v -2 -129.307 -2 h 2 H -2 0 v 2 V -2 Z m -2,-131.307 h -9.866 V -2 H -2 Z"
         style="fill:#ffffff;fill-opacity:1;fill-rule:nonzero;stroke:none;stroke-opacity:1"
         id="path1614" /></g><g
       id="g1626"
       style="stroke:none;stroke-opacity:1;fill:#9a031e;fill-opacity:1"><g
         id="g1618"
         style="stroke:none;stroke-opacity:1;fill:#9a031e;fill-opacity:1" /><g
         id="g1624"
         style="stroke:none;stroke-opacity:1;fill:#9a031e;fill-opacity:1"><g
           clip-path="url(#clipPath1590)"
           id="g1622"
           style="stroke:none;stroke-opacity:1;fill:#9a031e;fill-opacity:1"><path
             d="M 54.937,146.503 H 66.803 V 15.195 H 54.937 Z"
             style="fill:#9a031e;fill-opacity:1;fill-rule:nonzero;stroke:none;stroke-opacity:1"
             id="path1620" /></g></g></g><g
       transform="translate(67.8022,147.5025)"
       id="g1630"
       style="stroke:none;stroke-opacity:1"><path
         d="m 0,0 h -2 -9.866 -2 v -2 -129.308 -2 h 2 H -2 0 v 2 V -2 Z m -2,-131.308 h -9.866 V -2 H -2 Z"
         style="fill:#ffffff;fill-opacity:1;fill-rule:nonzero;stroke:none;stroke-opacity:1"
         id="path1628" /></g><g
       id="g1640"
       style="stroke:none;stroke-opacity:1;fill:#9a031e;fill-opacity:1"><g
         id="g1632"
         style="stroke:none;stroke-opacity:1;fill:#9a031e;fill-opacity:1" /><g
         id="g1638"
         style="stroke:none;stroke-opacity:1;fill:#9a031e;fill-opacity:1"><g
           clip-path="url(#clipPath1594)"
           id="g1636"
           style="stroke:none;stroke-opacity:1;fill:#9a031e;fill-opacity:1"><path
             d="m 96.567,146.187 h 11.865 V 14.879 H 96.567 Z"
             style="fill:#9a031e;fill-opacity:1;fill-rule:nonzero;stroke:none;stroke-opacity:1"
             id="path1634" /></g></g></g><g
       transform="translate(109.4326,147.1871)"
       id="g1644"
       style="stroke:none;stroke-opacity:1"><path
         d="m 0,0 h -2 -9.865 -2 v -2 -129.308 -2 h 2 H -2 0 v 2 V -2 Z m -2,-131.308 h -9.865 V -2 H -2 Z"
         style="fill:#ffffff;fill-opacity:1;fill-rule:nonzero;stroke:none;stroke-opacity:1"
         id="path1642" /></g><g
       id="g1654"
       style="stroke:none;stroke-opacity:1;fill:#9a031e;fill-opacity:1"><g
         id="g1646"
         style="stroke:none;stroke-opacity:1;fill:#9a031e;fill-opacity:1" /><g
         id="g1652"
         style="stroke:none;stroke-opacity:1;fill:#9a031e;fill-opacity:1"><g
           clip-path="url(#clipPath1598)"
           id="g1650"
           style="stroke:none;stroke-opacity:1;fill:#9a031e;fill-opacity:1"><path
             d="m 138.198,145.872 h 11.865 V 14.564 h -11.865 z"
             style="fill:#9a031e;fill-opacity:1;fill-rule:nonzero;stroke:none;stroke-opacity:1"
             id="path1648" /></g></g></g><g
       transform="translate(151.0635,146.8717)"
       id="g1658"
       style="stroke:none;stroke-opacity:1"><path
         d="m 0,0 h -2 -9.865 -2 v -2 -129.308 -2 h 2 H -2 0 v 2 V -2 Z m -2,-131.308 h -9.865 V -2 H -2 Z"
         style="fill:#ffffff;fill-opacity:1;fill-rule:nonzero;stroke:none;stroke-opacity:1"
         id="path1656" /></g><g
       id="g1668"
       style="stroke:none;stroke-opacity:1;fill:#9a031e;fill-opacity:1"><g
         id="g1660"
         style="stroke:none;stroke-opacity:1;fill:#9a031e;fill-opacity:1" /><g
         id="g1666"
         style="stroke:none;stroke-opacity:1;fill:#9a031e;fill-opacity:1"><g
           clip-path="url(#clipPath1602)"
           id="g1664"
           style="stroke:none;stroke-opacity:1;fill:#9a031e;fill-opacity:1"><path
             d="m 179.829,145.556 h 11.865 V 14.248 h -11.865 z"
             style="fill:#9a031e;fill-opacity:1;fill-rule:nonzero;stroke:none;stroke-opacity:1"
             id="path1662" /></g></g></g><g
       transform="translate(192.6943,146.5562)"
       id="g1672"
       style="stroke:none;stroke-opacity:1"><path
         d="m 0,0 h -2 -9.865 -2 v -2 -129.308 -2 h 2 H -2 0 v 2 V -2 Z m -2,-131.308 h -9.865 V -2 H -2 Z"
         style="fill:#ffffff;fill-opacity:1;fill-rule:nonzero;stroke:none;stroke-opacity:1"
         id="path1670" /></g><g
       style="fill:#9a031e;fill-opacity:1"
       transform="translate(9.0757,-4e-4)"
       id="g1678"><path
         id="path1680"
         style="fill:#9a031e;fill-opacity:1;fill-rule:nonzero;stroke:none"
         d="m 0,0 h 186.849 c 5.012,0 9.075,4.063 9.075,9.076 v 7.955 h -205 V 9.076 C -9.076,4.063 -5.012,0 0,0" /></g><g
       style="fill:#9a031e;fill-opacity:1"
       transform="translate(0,141.4053)"
       id="g1682"><path
         id="path1684"
         style="fill:#9a031e;fill-opacity:1;fill-rule:nonzero;stroke:none"
         d="m 0,0 h 205 v 7.955 c 0,5.012 -4.063,9.076 -9.075,9.076 H 9.076 C 4.063,17.031 0,12.967 0,7.955 Z" /></g><g
       style="fill:#9a031e;fill-opacity:1"
       transform="translate(78.5308,35.4332)"
       id="g1686"><path
         id="path1688"
         style="fill:#9a031e;fill-opacity:1;fill-rule:nonzero;stroke:none"
         d="m 0,0 c 0,-8.013 -8.19,-14.508 -18.292,-14.508 -10.103,0 -18.292,6.495 -18.292,14.508 0,8.013 8.189,14.508 18.292,14.508 C -8.19,14.508 0,8.013 0,0" /></g><g
       transform="translate(78.5308,35.4332)"
       id="g1690"><path
         id="path1692"
         style="fill:none;stroke:#ffffff;stroke-width:2;stroke-linecap:butt;stroke-linejoin:miter;stroke-miterlimit:10;stroke-dasharray:none;stroke-opacity:1"
         d="m 0,0 c 0,-8.013 -8.19,-14.508 -18.292,-14.508 -10.103,0 -18.292,6.495 -18.292,14.508 0,8.013 8.189,14.508 18.292,14.508 C -8.19,14.508 0,8.013 0,0 Z" /></g><g
       style="fill:#9a031e;fill-opacity:1"
       transform="translate(163.0537,35.4332)"
       id="g1694"><path
         id="path1696"
         style="fill:#9a031e;fill-opacity:1;fill-rule:nonzero;stroke:none"
         d="m 0,0 c 0,-8.013 -8.189,-14.508 -18.292,-14.508 -10.103,0 -18.293,6.495 -18.293,14.508 0,8.013 8.19,14.508 18.293,14.508 C -8.189,14.508 0,8.013 0,0" /></g><g
       transform="translate(163.0537,35.4332)"
       id="g1698"><path
         id="path1700"
         style="fill:none;stroke:#ffffff;stroke-width:2;stroke-linecap:butt;stroke-linejoin:miter;stroke-miterlimit:10;stroke-dasharray:none;stroke-opacity:1"
         d="m 0,0 c 0,-8.013 -8.189,-14.508 -18.292,-14.508 -10.103,0 -18.293,6.495 -18.293,14.508 0,8.013 8.19,14.508 18.293,14.508 C -8.189,14.508 0,8.013 0,0 Z" /></g></g></svg>
