<?xml version="1.0" encoding="UTF-8" standalone="no"?>
<svg
   xmlns:dc="http://purl.org/dc/elements/1.1/"
   xmlns:cc="http://creativecommons.org/ns#"
   xmlns:rdf="http://www.w3.org/1999/02/22-rdf-syntax-ns#"
   xmlns:svg="http://www.w3.org/2000/svg"
   xmlns="http://www.w3.org/2000/svg"
   xmlns:sodipodi="http://sodipodi.sourceforge.net/DTD/sodipodi-0.dtd"
   xmlns:inkscape="http://www.inkscape.org/namespaces/inkscape"
   inkscape:version="1.0 (4035a4fb49, 2020-05-01)"
   sodipodi:docname="maskovestita.svg"
   id="svg3429"
   xml:space="preserve"
   viewBox="0 0 1072.6 1917.396"
   version="1.1"
   enable-background="new 0 0 1072.6 1917.396"><metadata
   id="metadata3435"><rdf:RDF><cc:Work
       rdf:about=""><dc:format>image/svg+xml</dc:format><dc:type
         rdf:resource="http://purl.org/dc/dcmitype/StillImage" /><dc:title></dc:title></cc:Work></rdf:RDF></metadata><defs
   id="defs3433" /><sodipodi:namedview
   inkscape:current-layer="svg3429"
   inkscape:window-maximized="1"
   inkscape:window-y="0"
   inkscape:window-x="0"
   inkscape:cy="958.698"
   inkscape:cx="536.29999"
   inkscape:zoom="0.40465685"
   showgrid="false"
   id="namedview3431"
   inkscape:window-height="1016"
   inkscape:window-width="1920"
   inkscape:pageshadow="2"
   inkscape:pageopacity="0"
   guidetolerance="10"
   gridtolerance="10"
   objecttolerance="10"
   borderopacity="1"
   bordercolor="#666666"
   pagecolor="#ffffff" />
	<path
   style="fill:#e36414;fill-opacity:1"
   id="path3421"
   d="m548.02 716.55c-54.683-0.4692-109.22-3.5395-163.54-9.9353-34.885-4.1078-69.757-8.3763-104.54-13.226-18.834-2.6255-36.614-9.7598-54.861-14.893-25.132-7.07-50.443-13.464-74.509-23.952-41.556-18.109-75.407-46.298-104.28-80.508-23.102-27.371-25.364-61.374-8.1404-92.785 3.7724-6.8798 8.3188-13.235 12.909-19.588 14.138-19.568 34.765-27.224 57.28-31.019 27.314-4.6035 54.466-3.0052 81.201 4.1563 4.2839 1.1475 5.3325 0.171 6.1405-3.836 5.4836-27.194 7.6339-54.733 8.9061-82.37 1.4096-30.622 1.43-61.314 4.0842-91.869 3.8864-44.74 16.386-86.286 46.633-120.88 23.992-27.442 54.504-44.979 88.289-57.332 37.887-13.852 77.173-21.536 117.15-26.134 34.502-3.969 69.11-5.1811 103.79-3.8928 56.366 2.094 111.75 9.8873 164.85 29.96 26.199 9.9047 50.806 22.739 71.403 42.106 25.426 23.908 40.22 53.895 48.855 87.272 7.1656 27.698 10.063 56.005 11.937 84.443 2.7929 42.39 3.722 84.884 7.1274 127.24 0.8842 10.999 0.7661 10.885 11.867 10.295 10.191-0.5416 20.018-3.5167 30.124-4.3714 51.248-4.3346 91.842 13.741 121.64 56.456 17.3 24.796 16.419 50.223 5.6155 76.255-12.864 30.996-35.565 53.964-63.017 72.509-30.815 20.816-64.979 34.217-100.37 44.762-42.526 12.67-86.056 20.612-129.89 27.029-33.451 4.8977-66.971 9.177-100.74 11.387-31.943 2.0907-63.905 3.0071-95.912 2.7225z" />
	<path
   style="fill:#e36414;fill-opacity:1"
   id="path3423"
   d="m607.89 1618.6c9.1547-3.2528 16.438-8.9816 23.255-15.372 9.2841-8.7031 16.726-18.981 24.482-28.985 13.613-17.559 27.758-34.54 46.783-46.729 29.436-18.86 62.046-25.055 96.341-24.184 9.1641 0.2327 16.141 5.7585 22.072 12.392 8.6907 9.7207 14.247 21.253 18.742 33.328 10.646 28.597 16.09 58.337 18.932 88.596 3.0915 32.926 3.3398 65.892 0.0316 98.813-3.0872 30.722-8.3245 61.03-19.804 89.91-4.9526 12.459-11.251 24.132-21.173 33.518-6.8845 6.5128-14.877 9.6871-24.421 9.4849-33.205-0.7041-64.831-6.8796-92.951-25.859-15.677-10.582-28.189-24.312-39.669-39.138-9.381-12.114-18.474-24.485-29.649-35.085-6.3133-5.9882-13.13-11.255-21.052-15.036-2.6489-1.2638-4.2629-1.4552-5.9805 1.5105-2.5189 4.3495-6.693 6.2373-11.77 6.2332-36.493-0.0298-72.986-0.0302-109.48-0.0132-4.6578 0.0021-8.7101-1.5458-11.149-5.4839-1.9223-3.104-3.676-2.2993-6.0823-1.0511-10.691 5.5446-19.489 13.424-27.096 22.565-10.652 12.802-20.673 26.132-31.419 38.851-25.664 30.378-58.667 46.841-98.101 50.676-7.2924 0.7094-14.608 1.1832-21.916 1.7319-13.834 1.0388-24.502-4.3433-32.579-15.582-12.154-16.911-19.518-35.906-24.627-55.858-10.535-41.143-13.39-83.106-12.523-125.38 0.7014-34.224 4.2177-68.132 13.486-101.24 4.8652-17.376 10.974-34.233 21.291-49.265 2.8439-4.1437 6.0481-7.9725 9.9057-11.197 5.9228-4.9506 12.5-7.7198 20.514-7.6913 26.272 0.0936 51.716 4.0977 75.914 14.706 22.757 9.9772 39.995 26.661 55.43 45.568 8.9548 10.97 16.884 22.745 26.322 33.332 6.9205 7.7635 14.599 14.59 23.792 19.603 2.3513 1.282 3.4247 1.572 4.072-1.8865 1.8092-9.6677 7.2279-13.783 17.106-13.785 34.493-6e-3 68.987-0.0062 103.48-0.0024 12.17 0.0012 16.564 3.6786 18.971 15.833 0.1263 0.6367 0.3017 1.2639 0.5194 2.1661z" />
	<path
   style="fill:#e36414;fill-opacity:1"
   id="path3425"
   d="m755.65 1405.7c-48.047-0.7833-95.293-6.7467-140.98-22.358-20.9-7.1418-40.739-16.413-58.212-30.254-4.1844-3.3146-9.3121-1.8564-14.004-1.3314-5.1538 0.5768-9.999 2.5394-14.504 5.1302-3.6053 2.0731-7.442 3.9553-10.553 6.6431-23.345 20.168-51.715 28.197-81.076 33.702-64.25 12.048-128.51 12.296-192.65-0.8104-29.181-5.9634-57.282-15.064-82.74-31.059-5.9352-3.7289-11.522-7.9279-16.732-12.63-30.012-27.082-35.208-65.252-13.21-99.273 12.009-18.572 28.194-31.425 50.778-34.505 13.065-1.782 25.057 1.6312 36.317 8.2446 2.4727 1.452 2.2056 2.8766 0.9915 4.8148-2.1535 3.4382-5.46 5.2372-9.1276 6.5927-6.6034 2.4407-13.579 3.2606-20.403 4.7188-22.206 4.7439-29.122 16.404-22.518 38.178 5.5504 18.301 20.902 27.145 41.966 24.505 24.149-3.0276 45.538-13.219 66.326-25.061 23.77-13.541 43.912-31.842 64.651-49.356 21.781-18.395 43.711-36.583 69.263-49.716 21.584-11.093 44.296-17.204 68.779-15.503 20.671 1.4354 39.705 8.1438 57.58 18.239 4.0658 2.2965 7.0081 2.5387 11.282 0.3375 27.7-14.268 56.935-21.287 88.273-17.523 24.212 2.9077 46.343 11.726 67.39 23.622 26.512 14.986 50.058 34.115 73.91 52.836 17.952 14.09 36.039 28.015 54.316 41.68 11.24 8.4037 23.344 15.404 37.018 19.279 18.799 5.3275 35.32 1.1943 49.264-12.341 5.9019-5.7288 12.447-11.306 14.079-20.064 2.4879-13.347-2.8187-21.923-15.806-25.911-8.3085-2.5513-17.007-3.1587-25.444-5.0724-3.5822-0.8125-7.0283-1.9613-10.401-3.4401-3.226-1.4143-3.6281-2.9861-1.6365-6.0078 8.4767-12.861 22.702-17.772 39.16-13.242 29.97 8.2482 59.2 43.216 61.092 74.238 1.2341 20.236-6.0856 37.901-19.408 53.042-15.129 17.193-34.493 28.061-55.419 36.442-29.612 11.86-60.61 17.727-92.197 20.941-18.423 1.8746-36.9 2.4807-55.417 2.2734z" />
	<path
   style="fill:#e36414;fill-opacity:1"
   id="path3427"
   d="m269.87 782.8c52.534 1.7274 104.55 8.0258 155.95 19.094 36.497 7.8579 73.072 15.13 110.61 15.493 35.126 0.3405 69.761-4.3561 104.26-10.388 40.496-7.0797 80.733-15.631 121.5-21.178 36.367-4.9479 72.599-4.8961 109.06 0.0826 36.367 4.9661 72.156 12.21 107.55 21.773 6.8746 1.8577 14.139 2.2214 21.116 3.7628 9.7986 2.1649 13.298 6.8126 12.139 16.762-1.0123 8.6867-0.7732 17.249 0.0236 25.908 0.674 7.3234-0.8049 13.392-8.5853 17.288-8.5919 4.3024-13.721 12.43-17.946 20.898-8.1655 16.366-12.052 34.157-16.959 51.597-4.5046 16.011-8.5028 32.17-14.2 47.823-15.795 43.394-46.069 72.726-89.278 87.428-57.333 19.508-114.45 17.004-169.99-7.6296-41.904-18.586-69.009-51.633-87.6-92.569-7.8641-17.316-13.575-35.411-19.907-53.285-3.1815-8.981-6.9548-17.65-12.705-25.345-5.1825-6.936-11.723-11.02-20.703-11.125-8.4816-0.0995-16.932-1.1871-25.437 0.1155-6.9031 1.0574-12.06 4.3518-15.679 10.305-5.4206 8.9163-9.0446 18.618-11.488 28.633-8.9237 36.57-26.137 68.83-49.165 98.389-26.383 33.865-60.415 54.982-102.65 62.028-46.075 7.6866-91.604 4.9832-136.08-10.168-8.2045-2.795-16.03-6.4935-23.786-10.355-20.511-10.213-35.051-25.793-44.331-46.858-15.121-34.322-28.88-69.088-37.868-105.58-3.4394-13.963-9.9717-25.888-20.691-35.717-8.38-7.6843-16.011-16.193-18.035-28.074-1.3802-8.1024-0.88-16.299-0.5831-24.442 0.1336-3.6633 0.3855-7.3314 0.09-10.968-0.2885-3.5497 1.0308-5.0991 4.5546-5.5917 28.217-3.9449 55.859-10.868 83.79-16.299 28.134-5.4702 56.397-10.076 85.042-11.728 9.2986-0.5366 18.654-0.0844 27.984-0.0844zm512.17 19.834c-33.298 0.4229-62.465 2.7032-91.094 9.7976-20.898 5.1787-41.45 11.281-59.783 23.08-15.523 9.99-26.616 23.197-29.16 42.098-1.5032 11.168-0.5573 22.358 2.2538 33.227 9.1786 35.489 24.027 68.529 45.85 97.968 20.444 27.58 47.575 46.458 80.931 55.423 41.272 11.093 82.696 10.742 123.89-0.5101 36.396-9.9409 61.447-32.693 75.036-67.995 4.0111-10.42 7.2325-21.076 10.189-31.827 8.1134-29.502 13.917-59.323 12.469-90.143-0.8558-18.223-8.9268-32.456-23.909-42.786-9.2871-6.4033-19.574-10.704-30.41-13.546-39.385-10.332-79.657-13.593-116.27-14.786zm-460.95 0.0517c-33.393 1.2347-55.674 2.5522-77.887 4.8721-21.214 2.2158-42.302 5.0444-62.574 12.174-33.01 11.609-46.372 30.32-46.013 65.228 0.4156 40.377 10.368 78.759 25.592 115.82 13.715 33.387 38.912 54.153 73.521 63.589 30.936 8.4351 62.398 10.201 94.119 5.9819 37.79-5.026 70.868-19.994 97.901-47.442 12.922-13.121 22.205-28.609 30.378-44.907 12.407-24.74 24.463-49.686 28.896-77.306 4.3958-27.387-4.4412-49.539-28.205-64.965-6.1617-3.9998-12.585-7.5095-19.377-10.298-40.84-16.766-83.483-23.296-116.35-22.747z" />
</svg>
