<?xml version="1.0" encoding="UTF-8" standalone="no"?>
<svg
   xmlns:dc="http://purl.org/dc/elements/1.1/"
   xmlns:cc="http://creativecommons.org/ns#"
   xmlns:rdf="http://www.w3.org/1999/02/22-rdf-syntax-ns#"
   xmlns:svg="http://www.w3.org/2000/svg"
   xmlns="http://www.w3.org/2000/svg"
   xmlns:sodipodi="http://sodipodi.sourceforge.net/DTD/sodipodi-0.dtd"
   xmlns:inkscape="http://www.inkscape.org/namespaces/inkscape"
   inkscape:version="1.0 (4035a4fb49, 2020-05-01)"
   sodipodi:docname="palaco.svg"
   id="svg4359"
   version="1.1"
   viewBox="0 0 3734.2858 3037.1094"
   text-rendering="geometricPrecision"
   shape-rendering="geometricPrecision"
   image-rendering="optimizeQuality"
   fill-rule="evenodd"
   height="273.33984"
   width="336.08572">
  <metadata
     id="metadata4365">
    <rdf:RDF>
      <cc:Work
         rdf:about="">
        <dc:format>image/svg+xml</dc:format>
        <dc:type
           rdf:resource="http://purl.org/dc/dcmitype/StillImage" />
        <dc:title></dc:title>
      </cc:Work>
    </rdf:RDF>
  </metadata>
  <defs
     id="defs4363" />
  <sodipodi:namedview
     fit-margin-bottom="5"
     fit-margin-right="5"
     fit-margin-left="5"
     lock-margins="true"
     fit-margin-top="5"
     inkscape:current-layer="svg4359"
     inkscape:window-maximized="1"
     inkscape:window-y="0"
     inkscape:window-x="0"
     inkscape:cy="106.90728"
     inkscape:cx="-107.81685"
     inkscape:zoom="0.71717027"
     showgrid="false"
     id="namedview4361"
     inkscape:window-height="1016"
     inkscape:window-width="1920"
     inkscape:pageshadow="2"
     inkscape:pageopacity="0"
     guidetolerance="10"
     gridtolerance="10"
     objecttolerance="10"
     borderopacity="1"
     bordercolor="#666666"
     pagecolor="#ffffff" />
  <path
     d="m 1855.5556,55.555556 c -15.0001,5.999999 -8.988,22.997333 -6.9879,38.997332 -9,-0.999999 -12.0121,-3.999999 -18.0121,0 7,9.000002 8.0121,7.999112 18.0121,12.999112 -1,23 -12.0043,28.01567 -10.0043,41.01567 1,11 10.9862,24.99911 7.9861,37.99911 -4.9999,22 -30.9844,35.98788 -8.9845,56.98788 l 1.9966,2.01823 5.9896,4.99133 c -15,43 -15,9.99044 0,42.99044 L 1712.565,426.56244 c -26.9999,22 -60.9991,42.99222 -87.9991,66.99222 l -80.013,75 c -6,6 -10.9903,14.00522 -17.9904,22.00522 -49.9999,55 -97.0042,125.99822 -110.0044,200.99822 -4.9998,28 -10.0077,73.99823 -8.0077,100.99822 3,38 4.0007,58.007 12.0009,96.007 4.9998,20.99998 13.9973,41.99218 13.9973,66.99218 -12,-7 -14.9982,-9.9905 -25.9982,-17.9905 -11,-8 -73.993,-45.00001 -78.9931,-50.00001 -2.9999,-4 -3.006,-54.00867 -9.006,-70.00867 0,-1 -0.9978,-1.99477 -0.9978,-2.99477 l -3.993,-9.006 c -1,20.99989 -4.9948,23.00511 -2.9949,47.00511 2.0001,22 -0.011,0.99222 -3.0165,16.99222 -2,12 0.011,1.01444 5.013,17.01389 l -52.9947,32.98613 c -70,60 -81.9991,80.02 -87.9991,176.02 -10,6 -23.0114,8.9956 -31.0114,14.9956 -3.7536,2.8153 -4.6342,3.6674 -5.2734,3.993 h -3.7326 c -5,-16 4.0155,-19.9965 -8.9844,-26.9965 0,28 0,22.9974 -13.9974,38.9974 8,19 3.9947,46.0105 2.9948,69.0105 v 78.993 l -61.0026,6.9879 c -1,-21 3.9904,-15.9984 17.9905,-25.9983 -5,-18.0001 -8.9957,-8.9853 -14.9957,-20.9853 -9,-17 5.9992,-11.0164 -12.0008,-28.0164 -11,-11 -17.9914,-27.9991 -29.9914,-37.9991 l -4.0148,-2.9948 c 1,-13 -1,-25.9957 0,-39.9957 1,-24 3.0096,-16.0095 7.0096,-32.0095 -6,-3 -7.9974,-5.9845 -13.9974,-8.9845 -1,-28 2.9904,-21.0182 -7.00949,-27.0182 0,29 0.003,23.0191 -13.99744,39.0191 8,22 7.00955,22 7.00955,50 l -32.00955,0.9978 -0.99778,-132.0095 c 7,-2 7.00433,-0.9944 10.00433,-2.9949 -6,-10 -9.00866,-11.0121 -20.00866,-18.0121 0,-10 0.007,-21.9947 -3.99311,-27.9947 -6,9 -3.99311,13 -3.99311,25 -9.99989,5 -16.00167,12.0138 -24.00167,17.0138 l 12.00089,6.9879 c 2,29 2.99989,68.0051 0,97.0051 -2,17 1.98689,7.007 -5.013,21.007 -17.00011,-14 -8.9e-4,-13.013 -12.00089,-30.013 -10,16 2.00955,23.0044 -17.99045,35.0044 -5.99999,4 -5.00433,2.0095 -10.00433,7.0095 l 13.99733,6.9878 c -3,51 -0.002,110.0009 0.99778,162.0009 0,13 -3.99489,12.007 -2.99489,21.007 4,34 4.99134,1.9843 4.99134,58.9843 l -2.99478,111.0027 c 1,47.9999 -2.00345,227.9973 1.99655,263.9973 2.99989,27 -3.00011,212.0018 0,249.0018 2,25 -4.98611,25.013 -7.98611,30.013 -1,1 -1.99477,0.9978 -2.99477,0.9978 -15.00011,4 -32.00878,0.9966 -45.00867,1.9965 l -182.00955,1.9966 c -4,-178 -5.99911,-330.0061 -12.99911,-509.0061 -3.00012,-75 -0.98778,-143.987 -6.98789,-219.987 -1,-64 -9.00778,-174.9939 -8.00778,-215.9939 0,-18 -0.002,-36.0148 0.99778,-54.0148 4.01144,-2.9495 6.93722,-4.7763 9.22311,-6.0546 -4.245,-1.1302 -9.22311,-7.2426 -9.22311,-27.9297 -2,-12 3.00689,-24.0061 -3.99311,-34.0061 -8,-17 -22.99734,-25.0078 -38.99734,-33.0078 l -7.00955,-3.9931 c -2,-28 5.99744,-42.0069 -11.00256,-46.0069 -7.00011,11 -1.99322,23.9973 -3.99311,38.9973 -2,19 -8.00867,15.9984 -20.00867,25.9984 -25.00001,23 -18.99306,29.0173 -28.99306,65.0173 -39,8 -18.00348,11.9922 1.99652,16.9922 0,106 -3.98611,220.9948 -7.98611,327.9948 -20,192 -14.01736,297.0009 -15.01736,462.0009 0,30 -1.99479,44.0121 -2.99479,68.0121 -1,20 -1.9948,136.9939 -2.9948,140.9939 -3,4 -15.00714,4.9896 -21.00694,5.9896 -28.0001,4.9999 -57.00435,0 -85.00433,0.9978 -148.99999,4 -110.98352,12.0009 -121.98351,-87.9991 -14.99996,-138 -22.00521,-624.9896 -22.00521,-780.9896 l -15.99393,-325.00004 13.9974,-5.013 c 8.00002,-3 6.99563,-2.98956 14.99566,-5.98956 4.99999,-33 -3.99484,-27.00433 -27.99479,-35.00433 l -0.99822,-91.99222 c 3,-9 20.99302,-13.01045 28.99305,-19.01034 -8.00003,-10.00011 -8.00173,-10.00266 -24.00173,-11.00266 0,-31 -1.98871,-57 -18.98871,-75 -10,-11 -39.0165,-35.99567 -53.0165,-39.99567 0,-16 3,-32.00344 0,-48.00344 -3,-17 4.01216,-5.98089 -6.98784,-10.98089 -6.00001,10 0.003,37.98 -1.99654,48.98 -3,17 -17.01475,21.01133 -29.01475,31.01133 -25.99999,23 -32.984368,43.99567 -33.984368,89.99567 -20.000011,0 -28.013011,-2.00434 -30.013022,14.99566 23.000011,18 32.011277,-17.00088 31.011277,37.99912 0,24 1,48.00522 0,72.00522 -7.999988,4 -14.999988,4.00955 -24.999999,7.00944 -6,15.00011 -6.014767,14.98789 -4.014756,31.98789 39.999989,15 26.998267,3.013 25.998267,80.01302 -39,608 -21.993922,1329.9871 -15.993922,1944.987 l 3603.993033,1.9965 -14.9957,-1375 -5.9895,-159.9826 c 0,-28 -7.0096,-55.0148 -7.0096,-79.0148 24,0 29.006,1.0133 34.006,-19.987 6,-25.9999 -12.0079,-18.0069 -33.0078,-21.0069 0,-14 -0.9966,-21.9991 -1.9965,-37.9991 -1,-21 0,-35.0035 -1.9965,-48.0035 -4,-33 -1.993,-51.0052 -3.9931,-72.0052 -3.9999,-45 -4.013,-89.0026 -5.013,-136.0026 0,-19 -4.9931,-27.9983 -3.9931,-50.99826 1,-26 -2.0094,-19.99045 -7.0094,-42.99045 12.9999,-6 26.0069,-8.99478 21.0069,-27.99478 -1.9999,-8 -8.9939,-12.01389 -15.9939,-17.01389 l -12.9992,-8.98444 v -93.01211 l 29.9913,-2.99478 c -2.0001,-23 -4.9981,-23.00177 -25.9982,-24.00177 -1,-30 0.01,-50.98867 -16.9923,-68.98867 -12,-13 -31.0052,-22.00956 -47.0052,-32.00956 l -3.993,-2.99477 v -33.00789 c 0,-5 -0.022,-8.99734 -1.02,-13.99734 l -1.9964,-4.99133 c -2.0001,-5 -1.9915,-3.013 -4.9914,-5.013 -9.0001,14 -3.9931,43.00433 -3.9931,60.00433 -38.9999,16 -68.0172,45.99823 -65.0173,100.99823 -25.9999,2 -18.993,5.00522 -28.9931,22.00522 l 15.994,5.98955 c 11,3 10.0104,3.01134 19.0103,6.01134 l 5.9897,88.99733 c -17,8 -22.001,7.99044 -37.0009,17.99055 l 3.0164,30.013 c 17,6 9.0019,1.00223 24.0018,11.00256 -2,14 2.9948,24.99911 2.9948,37.99911 l -5.013,151.99652 c 0,68 -5.9966,123.9939 -1.9966,190.9939 l -26.9965,0.9989 c -5,13 -3.993,28.0139 -3.993,42.0139 l 28.993,4.9913 c 0,33 -2.9895,153.9896 -5.9896,180.9896 -1.9999,18 1,38.0095 0,57.0095 l -6.0112,112.0009 -28.9931,2.9948 c 1,28 10.9878,27.9957 31.9879,39.9957 l -1.9966,280.013 c 3,51 2.0123,30.0025 -6.9879,61.0025 -2.9998,8 -0.9977,17.9948 -0.9977,27.9948 -31.9999,19 -44.0113,3.0061 -81.0114,9.0061 -16,3 -76.992,7.987 -91.9921,-5.013 -1,-1 -0.9966,-2.9965 -1.9965,-1.9965 -6,16 -5.013,-90.9923 -5.013,-91.9923 0,-6 0.9977,-11.0155 0.9977,-16.0155 0,-40 -11.9862,-109.9948 -7.9861,-152.9948 13.9999,-9 20.9836,0 21.9836,-25 -11,-3 -9.9999,-3.9931 -25,-3.9931 0,-15 3.0164,-22.0078 3.0164,-33.0078 1,-105 -13.0139,-220.9948 -17.0139,-302.9948 -2,-43 -1.9912,-80.9983 -4.9913,-125.9983 -1,-14 0,-24.0008 -1.9965,-37.0008 l -5.013,-82.0095 c -2,-23 8.9974,-16.0027 13.9974,-36.0027 -5,-7 -4.0008,-4.9827 -12.0009,-9.9827 l -8.9843,-5.013 v -75.9982 c 12,-7 12.9904,-2.9904 17.9904,-17.9904 -6,-9 -4.9904,-8.0027 -17.9904,-11.0027 0,-34 -17.9984,-61.0121 -50.9984,-68.0121 0,-17 -1.01,-34.9852 -7.0095,-45.98522 -3.0001,5.00002 -3.993,13.98522 -3.993,20.98522 v 25 c -26,24 -41.0069,33.013 -46.007,80.013 -12.9999,5 -14.9887,0 -18.9887,13.9974 l 20.9852,8.0078 c 0,30 2.0019,53.9896 -0.9977,80.9896 -13.9999,2 -9.9888,-1.0089 -18.9888,4.9913 -3,21 2.9922,18 16.9922,25 -2,137 -3.9913,268.0113 -4.9913,406.0113 l -6.0112,186.0026 c -11.0002,7 -22.0053,-0.01 -22.0053,17.9904 0,5 3.0114,10.0009 6.0113,12.0009 l 15.994,6.0114 c 1,39 4,92.9913 0,129.9913 -1,11 -1.9966,5.9973 -1.9966,13.9973 -1,30 4.0086,68.0009 -4.9913,87.0009 -56.0001,124 -264.0158,26.0112 -266.0157,-43.9888 0,-11.9999 2.9984,-18.013 0.9978,-30.013 0,-1 -1.9966,-12.9973 -1.9966,-13.9973 -1,-10 0.9978,-42.9879 0.9978,-56.9879 0,-10 0,-47.0112 0.9978,-56.0112 2.0001,-24 -0.9945,-27.9966 -2.9948,-51.9966 -5,-78 6.0052,-154.0061 -2.9949,-234.0061 -1,-13 0,-8 1.9966,-25 2,-16 -0.9967,-11.9982 -1.9966,-25.9982 -1.9999,-23 3.9985,-72.994 0.9989,-90.994 -1.9999,-12 -1,-18.0112 0,-31.0112 3.0001,-19 1.0022,-10.9982 -0.9989,-25.9982 -1,-17.0001 2.9949,-10.9949 2.9949,-27.9949 0,-14 -2.9949,-12.993 -2.9949,-28.993 l 0.9989,-88.9975 c 3.0001,-18 4.9896,-44.006 5.9896,-59.006 l -13.9974,-11.0026 c -5.0001,-3 -9.9956,-7.0026 -14.9956,-11.0026 l -2.9949,5.013 c -3,4 1.0055,0.9933 -2.9948,3.993 -4.9999,5 -1.0078,2.9931 -8.0078,3.9931 9,-18 1,-22.9974 0,-38.9974 -1,-9 2.9948,-36 2.9948,-50 6,-5 6.0044,-4.0026 10.0043,-11.0026 -3.9999,-4 -5.0044,-7.0025 -10.0043,-11.0025 l -14.9957,-9.9827 c 0,1 -0.9977,0.9967 -0.9977,1.9964 -1,11.0002 -9.001,7.9854 -12.0009,20.9854 -3.0001,11 3.9931,30.9991 3.9931,37.9991 -1,27 0.01,59.0025 -2.9949,86.0025 l -24.0017,1.9966 c 0,-12 -1,-25.0009 0,-37.0009 1,-23 16.0069,-25.9973 -3.9931,-38.9973 -9,-6 -6.9973,-4.0027 -13.9973,-11.0027 -4,6 -2.0166,10.0209 -3.0166,13.0209 0,1 -6.9808,6.9791 -10.9809,11.9791 6,22 6.9879,14.0122 6.9879,43.0122 0,20 -0.01,27.9921 -9.0061,41.9921 l -29.9913,45.0087 c -3.0001,4 -8.0027,9.9992 -11.0026,12.9992 8.9999,7 11.9975,-0.9977 13.9974,11.0026 3.0001,23 -53.9905,17.9904 -67.9905,17.9904 -15,-26 -4.9957,-118.0025 -14.9957,-136.0025 -12,-10 -19.0163,-11.9984 -28.0164,-25.9984 -5.9999,-10 -20.0018,-17.9913 -24.0018,-29.9913 -11,-34 7.0181,-39.0043 -22.9818,-85.0043 -9,-14 -14.0016,-22.9912 -24.0016,-29.9914 -12,-7.9998 -22.0079,-14.0068 -33.0079,-21.0068 -17,-11 -45.994,-38.99049 -65.9939,-42.99049 0,-17 -5.013,-29.00344 -5.013,-48.00344 0,-13 5.0034,-5.01045 -1.9966,-19.01045 l -2.9947,5.013 -2.9948,25.99823 c 1,14 -2.0019,20.98444 0.9978,33.98444 -16,9 -32.0054,20.01121 -47.0053,31.01121 -14.0001,10 -35,27.9897 -50,30.9897 3,-46.00002 24.9983,-78.99658 25.9984,-126.99658 3,-97.99999 -4.9948,-167.99999 -52.9948,-249.99999 -46,-80 -39.0104,-51.00089 -69.0104,-87.00089 -34,-41 -76.9818,-74.993 -122.9818,-103.993 L 1905.5551,333.57122 c -11,-10 -23.0026,-24.00778 -36.0027,-33.00778 l -6.9879,-4.99133 c 7,-15 17.0036,-27.01389 -1.9964,-42.01389 23,-24 28.9949,-38.99744 2.9947,-63.99744 -7.9998,-8 -7.0128,0.006 -5.013,-15.99389 1,-10 2.006,-14.00867 9.006,-20.00867 0,0 0.9967,-0.99778 1.9966,-0.99778 -2.9999,-20 -12.9973,-24.00511 -13.9973,-47.00511 17,-5.999997 15,-3.99222 25,-16.992219 -17,0 -21.0051,14.996559 -22.0053,1.996555 -1,-13 0.01,-26.004444 -2.9947,-35.004333 z M 640.77693,1148.5025 c 5.52844,1.4718 9.666,-5.4056 0,0 z"
     style="fill:#fb8b24;fill-opacity:1;stroke:none;stroke-width:1"
     id="path4329" />
  <path
     style="fill:#fb8b24;fill-opacity:1;stroke:none"
     id="path4333"
     stroke-width="6.94491"
     stroke="#010101"
     fill="#010101"
     d="m 3104.5582,1548.5625 h 149 a 19,19 0 0 1 19,19 v 3 a 19,19 0 0 1 -19,19 h -149 a 19,19 0 0 1 -19,-19 v -3 a 19,19 0 0 1 19,-19" />
  <path
     style="fill:#fb8b24;fill-opacity:1;stroke:none"
     id="path4335"
     stroke-width="6.94491"
     stroke="#010101"
     fill="#010101"
     d="m 3100.5581,1211.5625 h 149.0001 a 19,19 0 0 1 18.9999,19 v 3 a 19,19 0 0 1 -18.9999,19 h -149.0001 a 19,19 0 0 1 -18.9999,-19 v -3 a 19,19 0 0 1 18.9999,-19" />
  <path
     style="fill:#fb8b24;fill-opacity:1;stroke:none"
     id="path4337"
     stroke-width="6.94491"
     stroke="#010101"
     fill="#010101"
     d="m 3093.5582,1844.5625 h 180 a 19,19 0 0 1 18.9999,19 v 3 a 19,19 0 0 1 -18.9999,19 h -180 a 19,19 0 0 1 -19,-19 v -3 a 19,19 0 0 1 19,-19" />
  <path
     style="fill:#fb8b24;fill-opacity:1;stroke:none"
     id="path4339"
     stroke-width="6.94491"
     stroke="#010101"
     fill="#010101"
     d="M 32.558172,1731.5625 H 280.55815 a 19,19 0 0 1 19.00003,19 v 3 a 19,19 0 0 1 -19.00003,19 H 32.558172 a 19,19 0 0 1 -19.00001,-19 v -3 a 19,19 0 0 1 19.00001,-19" />
  <path
     style="fill:#fb8b24;fill-opacity:1;stroke:none"
     id="path4341"
     stroke-width="6.94491"
     stroke="#010101"
     fill="#010101"
     d="m 3446.5582,1323.5625 h 211.9999 a 25.999999,26 0 0 1 26.0001,26 v 3 a 25.999999,26 0 0 1 -26.0001,26 h -211.9999 a 25.999999,26 0 0 1 -26.0001,-26 v -3 a 25.999999,26 0 0 1 26.0001,-26" />
  <path
     style="fill:#fb8b24;fill-opacity:1;stroke:none"
     id="path4343"
     stroke-width="6.94491"
     stroke="#010101"
     fill="#010101"
     d="m 3447.5582,1715.5625 h 211.9999 a 25.999999,26 0 0 1 26.0001,26 v 3 a 25.999999,26 0 0 1 -26.0001,26 h -211.9999 a 25.999999,26 0 0 1 -26.0001,-26 v -3 a 25.999999,26 0 0 1 26.0001,-26" />
  <path
     style="fill:#fb8b24;fill-opacity:1;stroke:none"
     id="path4345"
     stroke-width="6.94491"
     stroke="#010101"
     fill="#010101"
     d="m 3458.5582,887.56246 h 185 a 22,22 0 0 1 21.9999,22 v 3 a 22,22 0 0 1 -21.9999,22 h -185 a 22,22 0 0 1 -22.0001,-22 v -3 a 22,22 0 0 1 22.0001,-22" />
  <path
     style="fill:#fb8b24;fill-opacity:1;stroke:none"
     id="path4347"
     stroke-width="6.94491"
     stroke="#010101"
     fill="#010101"
     d="M 30.558162,1348.5625 H 278.55811 a 19,19 0 0 1 19.00003,19 v 3 a 19,19 0 0 1 -19.00003,19 H 30.558162 a 19,19 0 0 1 -19,-19 v -3 a 19,19 0 0 1 19,-19" />
  <path
     style="fill:#fb8b24;fill-opacity:1;stroke:none"
     id="path4349"
     stroke-width="6.94491"
     stroke="#010101"
     fill="#010101"
     d="m 514.55816,1229.5625 h 123.9999 a 19,19 0 0 1 19.0001,19 v 3 a 19,19 0 0 1 -19.0001,19 h -123.9999 a 19,19 0 0 1 -19,-19 v -3 a 19,19 0 0 1 19,-19" />
  <path
     style="fill:#fb8b24;fill-opacity:1;stroke:none"
     id="path4351"
     stroke-width="6.94491"
     stroke="#010101"
     fill="#010101"
     d="m 497.55816,1559.5625 h 166 a 19,19 0 0 1 19,19 v 3 a 19,19 0 0 1 -19,19 h -166 a 19,19 0 0 1 -19,-19 v -3 a 19,19 0 0 1 19,-19" />
  <path
     style="fill:#fb8b24;fill-opacity:1;stroke:none"
     id="path4353"
     stroke-width="6.94491"
     stroke="#010101"
     fill="#010101"
     d="m 481.55806,1855.5625 h 191.0001 a 19,19 0 0 1 19,19 v 3 a 19,19 0 0 1 -19,19 h -191.0001 a 19,19 0 0 1 -18.9999,-19 v -3 a 19,19 0 0 1 18.9999,-19" />
  <path
     style="fill:#fb8b24;fill-opacity:1;stroke:none"
     id="path4355"
     stroke-width="6.94491"
     stroke="#010101"
     fill="#010101"
     d="m 507.55816,1132.5625 h 146 a 6.9999999,7.0000002 0 0 1 7,7 v 6 a 6.9999999,7.0000002 0 0 1 -7,7 h -146 a 6.9999999,7.0000002 0 0 1 -7,-7 v -6 a 6.9999999,7.0000002 0 0 1 7,-7" />
  <path
     style="fill:#fb8b24;fill-opacity:1;stroke:none;stroke-width:1"
     id="path4357"
     fill="#010101"
     d="M 111.55816,2096.5625 H 3665.5581 v 557 H 111.55816 Z" />
</svg>
