<?xml version="1.0" encoding="UTF-8" standalone="no"?>
<svg
   xmlns:dc="http://purl.org/dc/elements/1.1/"
   xmlns:cc="http://creativecommons.org/ns#"
   xmlns:rdf="http://www.w3.org/1999/02/22-rdf-syntax-ns#"
   xmlns:svg="http://www.w3.org/2000/svg"
   xmlns="http://www.w3.org/2000/svg"
   xmlns:sodipodi="http://sodipodi.sourceforge.net/DTD/sodipodi-0.dtd"
   xmlns:inkscape="http://www.inkscape.org/namespaces/inkscape"
   height="483.66794"
   width="701.0434"
   inkscape:version="1.0 (4035a4fb49, 2020-05-01)"
   sodipodi:docname="ĉasado.svg"
   id="svg863"
   version="1.1"
   viewBox="0 0 701.0434 483.66794">
  <metadata
     id="metadata869">
    <rdf:RDF>
      <cc:Work
         rdf:about="">
        <dc:format>image/svg+xml</dc:format>
        <dc:type
           rdf:resource="http://purl.org/dc/dcmitype/StillImage" />
        <dc:title></dc:title>
      </cc:Work>
    </rdf:RDF>
  </metadata>
  <defs
     id="defs867" />
  <sodipodi:namedview
     fit-margin-bottom="5"
     fit-margin-right="5"
     fit-margin-left="5"
     fit-margin-top="5"
     lock-margins="true"
     inkscape:current-layer="svg863"
     inkscape:window-maximized="1"
     inkscape:window-y="0"
     inkscape:window-x="0"
     inkscape:cy="126.28114"
     inkscape:cx="62.141791"
     inkscape:zoom="0.809375"
     showgrid="false"
     id="namedview865"
     inkscape:window-height="1016"
     inkscape:window-width="1920"
     inkscape:pageshadow="2"
     inkscape:pageopacity="0"
     guidetolerance="10"
     gridtolerance="10"
     objecttolerance="10"
     borderopacity="1"
     bordercolor="#666666"
     pagecolor="#ffffff" />
  <path
     style="fill:#9a031e;fill-opacity:1"
     id="path861"
     d="m 108.90237,477.20504 c 0,-0.80576 -2.326,-1.1406 -5.1683,-0.7438 -3.5524,0.49591 -6.264297,-0.43039 -8.675997,-2.9631 -4.201,-4.412 -7.7498,-4.6723 -11.757,-0.86441 -1.9365,1.8402 -4.7583,2.4796 -8.1225,1.8402 -3.1573,-0.6004 -5.5094,-0.14874 -6.0704,1.1655 -0.50321,1.1796 -0.98225,-1.9323 -1.0624,-6.9145 -0.11182,-6.8578 0.87042,-10.29 4.0463,-14.123 3.8003,-4.5908 4.2253,-7.1802 4.5366,-27.722 0.33923,-22.306 0.4585,-22.897 7.7292,-38.126 4.0593,-8.5067 8.3685,-18.443 9.5744,-22.081 1.258,-3.7973 5.31,-9.1497 9.512897,-12.568 4.0258,-3.2748 7.321,-7.2138 7.321,-8.7547 0,-1.6737 -4.1451,-4.6032 -10.311,-7.2847 -5.669697,-2.4672 -15.103997,-8.7583 -20.967997,-13.981 -5.8617,-5.223 -17.607,-14.543 -26.099,-20.71 -25.879,-18.794 -40.976,-40.672 -46.9590003,-68.061 -3.2393,-14.828 -2.1154,-19.422 15.5870003,-63.754 6.8346,-17.116 6.4581,-27.352 -1.847,-50.206 -8.2846,-22.799998 -8.2865,-35.652998 -0.0056,-52.968998 5.4927,-11.488 16.049,-23.248 16.049,-17.88 0,1.5852 -0.92257,3.4254 -2.0501,4.086 -1.1276,0.66239 -4.4806,6.0892 -7.4534,12.06 -9.1867,18.452 -6.8085,33.769998 9.2967,59.917998 4.0203,6.5266 8.1952,14.497 9.2743,17.711 3.1535,9.3782 3.6643,26.144 1.15,37.672 -6.4302,29.491 -5.4796,36.842 6.1189,47.263 10.827,9.7271 17.302,13.291 28.395,15.625 8.7096,1.8331 12.064,1.7092 22.320997,-0.82535 6.6389,-1.6401 13.768,-3.8203 15.842,-4.8459 4.4601,-2.2051 35.794,-32.433 38.38,-37.024 0.98406,-1.7445 6.0611,-14.562 11.285,-28.482 8.7226,-23.246 12.855,-31.845 24.902,-51.83 10.551,-17.502 23.197,-54.653998 23.294,-68.429998 0.0186,-2.5416 4.0444,-12.088 8.9482,-21.211 12.13,-22.5680001 18.923,-27.2810001 39.203,-27.1900001 10.508,0.047835 16.055,0.96881 20.843,3.4626 3.5878,1.8685001 8.5381,3.5830001 11,3.8114001 2.464,0.22853 7.131,2.8586 10.374,5.8448 3.243,2.9862 6.4301,4.922 7.0843,4.3003 0.65231,-0.61991 3.3847,-0.60575 6.0704,0.0354 3.3977,0.8112 5.9455,3.4324 8.3834,8.6254 1.9253,4.1038 8.4524,11.984 14.502,17.511 10.303,9.4101 19.002,22.68 19.002,28.985 0,5.3913 -5.5523,12.842 -12.454,16.712 -4.3222,2.4212 -7.2577,3.1863 -7.6733,1.9979 -0.48459,-1.3798 -1.7706,-1.3691 -4.5365,0.03719 -3.2206,1.6383 -3.6735,1.5055 -2.7398,-0.80941 0.81448,-2.0156 0.29825,-2.4725 -1.8861,-1.6755 -2.0036,0.72974 -2.5572,0.40381 -1.6588,-0.97589 1.7892,-2.7541 -1.2115,-2.6549 -4.3017,0.14173 -1.9924,1.803 -2.2254,1.5178 -1.2544,-1.5445 1.0624,-3.351 0.55728,-3.6875 -4.6446,-3.1119 -4.4824,0.49592 -5.597,0.05313 -4.8049,-1.9093 0.68778,-1.7021 0.13236,-2.2246 -1.6681,-1.5675 -1.4855,0.54197 -2.7006,0.05491 -2.7006,-1.0804 0,-1.135309 -0.82944,-1.5781 -1.8433,-0.98302 -1.0568,0.61991 -1.3699,-0.09032 -0.73248,-1.6666 0.61133,-1.5161 0.13422,-2.7488 -1.0624,-2.7488 -1.19662,0 -1.711,-0.7138 -1.1425,-1.5852 0.56659,-0.87314 -0.36533,-2.0952 -2.0707,-2.7169 -4.654,-1.6968 -6.3053,2.5912 -2.779,7.2103 1.7091,2.2352 3.709,4.0896 4.4452,4.1196 0.73621,0.03188 0.85922,1.2451 0.2721,2.6975 -0.643,1.594 0.3057,3.1278 2.3894,3.8628 8.2847,2.9259 12.335,11.627998 7.6491,16.426998 -1.9085,1.9536 -1.7016,2.175 1.1388,1.2203 2.5944,-0.87319 3.1964,-0.49235 2.3875,1.5108 -0.59454,1.4718 -0.21994,2.6762 0.82941,2.6762 2.6205,0 -4.0743,10.554 -7.9622,12.556 -3.1461,1.617 -8.9295,0.28339 -18.116,-4.1799 -2.464,-1.1973 -9.0078,-8.8433 -14.541,-16.992 -5.5318,-8.148998 -10.493,-14.402998 -11.023,-13.899998 -0.5293,0.50299 -0.0671,5.5242 1.0288,11.155998 1.096,5.6322 1.9924,13.909 1.9924,18.395 0,4.6599 1.5973,11.135 3.7276,15.104 2.0502,3.8221 3.7276,8.6219 3.7276,10.669 0,2.0474 2.4957,5.9953 5.5486,8.7742 5.5131,5.0194 5.6138,5.0371 15.82,2.7098 8.9444,-2.0386 11.179,-1.9766 17.283,0.47818 3.8562,1.5515 10.156,3.7318 14.001,4.8441 7.5894,2.1962 9.375,5.2904 3.053,5.2904 -3.4462,0 -3.791,0.7279 -2.7734,5.8819 0.63931,3.2358 0.66727,6.3531 0.0653,6.9252 -0.60385,0.57385 -4.9111,-2.43 -9.5725,-6.6754 -10.48,-9.5411 -17.026,-11.217 -25.258,-6.4628 -4.5551,2.6302 -7.157,3.0924 -10.518,1.8739 -2.4546,-0.89092 -4.6987,-1.3957 -4.9857,-1.1229 -0.28516,0.27277 0.66162,5.2709 2.1061,11.107 1.6029,6.4789 2.6373,20.434 2.6559,35.826 l 0.0298,25.212 10.717,5.2425 c 5.8934,2.8817 14.329,7.5664 18.746,10.409 11.91,7.6638 33.798,28.538 35.101,33.476 1.8414,6.9694 -2.8554,29.505 -10.682,51.239 -4.0091,11.133 -7.2875,21.394 -7.2875,22.798 0,3.5104 18.457,17.113 21.139,15.579 1.1873,-0.68014 5.4293,-3.4714 9.4271,-6.2025 7.8206,-5.3453 14.368,-6.3443 17.568,-2.6815 1.5153,1.7357 1.0717,2.3521 -1.8452,2.5611 -4.9373,0.35422 -6.0052,1.4452 -4.6614,4.7696 0.9151,2.2706 2.5254,1.9765 10.393,-1.9022 10.383,-5.1186 25.033,-7.4884 27.057,-4.3765 0.70639,1.0857 0.16403,1.9748 -1.2059,1.9748 -1.36993,0 -4.3203,1.2168 -6.555,2.7045 -6.0592,4.0347 -3.3995,7.9223 5.42,7.9223 7.8895,0 14.59,2.5167 14.59,5.4799 0,0.99713 -0.84616,1.3159 -1.8806,0.70853 -2.8665,-1.6826 -9.3022,0.81464 -9.3022,3.6095 0,3.7354 -6.2121,6.1423 -15.855,6.1423 -5.8635,0 -11.207,1.4275 -16.616,4.4403 -7.0154,3.9052 -9.6806,4.364 -22.168,3.8026 -13.298,-0.59683 -14.672,-1.0468 -21.721,-7.097 -4.1377,-3.5528 -9.073,-6.4593 -10.967,-6.4593 -5.4796,0 -15.924,3.9177 -18.2,6.8295 -1.8135,2.3183 -2.3353,2.2192 -4.0202,-0.77228 -1.0642,-1.8916 -1.4873,-5.6677 -0.93936,-8.3916 0.72504,-3.6008 -0.0857,-5.9085 -2.9691,-8.4625 -4.9353,-4.3694 -4.9838,-8.7883 -0.22922,-20.676 3.2113,-8.0339 3.5636,-11.792 2.518,-26.953 -0.74741,-10.845 -1.9197,-17.203 -3.051,-16.539 -5.1572,3.0286 -46.61,11.195 -56.848,11.199 -12.02,0.005 -13.602,0.6004 -52.943,19.916 -3.7817,1.8579 -10.911,3.9177 -15.842,4.5819 -8.6499,1.1636 -9.1755,1.5764 -14.819,11.668 -6.3537,11.36 -11.736,16.218 -19.891,17.956 -7.2092,1.5373 -34.721,21.535 -36.81,26.757 -1.299,3.2448 -0.60387,6.415 2.9336,13.384 4.585,9.031 6.7041,19.56 2.7733,13.781 -1.4929,-2.1962 -1.8116,-2.0333 -1.8358,0.93338 -0.0298,3.6096 4.5738,11.226 8.2511,13.652 1.0828,0.71555 3.8692,1.3124 6.1897,1.3284 8.4226,0.0532 19.08,7.7115 19.08,13.71 0,4.0772 -0.15654,4.132 -3.2617,1.1813 -2.956,-2.809 -3.3176,-2.8286 -3.8487,-0.21075 -0.79585,3.9284 -6.2531,5.2992 -12.335,3.1012 -7.1253,-2.5735 -8.512,-2.2918 -8.512,1.7269 0,1.9482 -0.83868,3.5423 -1.8638,3.5423 -1.02512,0 -1.8638,-0.65888 -1.8638,-1.4648 z" />
  <g
     style="fill:#9a031e;fill-opacity:1"
     transform="matrix(0.60651996,0,0,0.60651996,355.3393,71.466974)"
     fill="#231f20"
     id="g935">
    <path
       style="fill:#9a031e;fill-opacity:1"
       d="m 467.85,344.25 c 17.784,0 32.207,-14.471 32.207,-32.255 0,-17.784 -14.422,-32.207 -32.207,-32.207 -17.833,0 -32.255,14.422 -32.255,32.207 0,17.784 14.422,32.255 32.255,32.255"
       id="path931" />
    <path
       style="fill:#9a031e;fill-opacity:1"
       d="m 356.85,368.17 -50.137,57.933 c -2.972,3.654 -7.455,5.896 -12.522,5.896 -8.965,0 -16.225,-7.26 -16.225,-16.177 0,-4.872 2.095,-9.209 5.457,-12.181 l 54.084,-62.269 c 2.972,-3.557 7.455,-5.847 12.522,-5.847 l 78.251,-0.049 c 5.75,0 10.914,2.339 14.715,5.993 l 49.893,49.894 41.367,-41.27 c 2.924,-2.485 6.676,-3.947 10.768,-3.947 9.258,0 16.713,7.504 16.713,16.762 0,4.044 -1.365,7.698 -3.752,10.622 l -49.845,50.234 c -15.153,15.105 -27.334,2.29 -27.334,2.29 l -30.599,-30.745 -47.798,55.302 43.803,43.803 c 0,0 9.257,8.576 3.946,25.629 L 425.6,629.523 c -1.949,9.502 -10.329,16.664 -20.366,16.664 -11.548,0 -20.854,-9.355 -20.854,-20.854 0,-1.851 0.19501,-3.605 0.633,-5.262 l 20.221,-89.799 -49.797,-48.383 -42.828,47.75 c 0,0 -6.919,8.527 -25.288,7.893 l -86.875,0.146 c -9.696,0.14703 -18.515,-6.48 -20.659,-16.322 -2.583,-11.207 4.336,-22.219 15.591,-24.703 1.755,-0.38998 3.509,-0.53601 5.214,-0.48801 l 74.694,0.195 110.46,-128.05 -28.894,-0.146 z"
       id="path933" />
  </g>
</svg>
