<?xml version="1.0" encoding="UTF-8" standalone="no"?>
<svg
   xmlns:dc="http://purl.org/dc/elements/1.1/"
   xmlns:cc="http://creativecommons.org/ns#"
   xmlns:rdf="http://www.w3.org/1999/02/22-rdf-syntax-ns#"
   xmlns:svg="http://www.w3.org/2000/svg"
   xmlns="http://www.w3.org/2000/svg"
   xmlns:sodipodi="http://sodipodi.sourceforge.net/DTD/sodipodi-0.dtd"
   xmlns:inkscape="http://www.inkscape.org/namespaces/inkscape"
   height="402.70456"
   width="459.06549"
   inkscape:version="1.0 (4035a4fb49, 2020-05-01)"
   sodipodi:docname="rompiÄis.svg"
   id="svg2547"
   viewBox="0 0 459.06549 402.70456"
   version="1.1"
   enable-background="new 0 0 640 480">
  <metadata
     id="metadata2553">
    <rdf:RDF>
      <cc:Work
         rdf:about="">
        <dc:format>image/svg+xml</dc:format>
        <dc:type
           rdf:resource="http://purl.org/dc/dcmitype/StillImage" />
        <dc:title></dc:title>
      </cc:Work>
    </rdf:RDF>
  </metadata>
  <defs
     id="defs2551" />
  <sodipodi:namedview
     fit-margin-bottom="2"
     fit-margin-right="2"
     fit-margin-left="2"
     fit-margin-top="2"
     lock-margins="true"
     inkscape:current-layer="svg2547"
     inkscape:window-maximized="1"
     inkscape:window-y="0"
     inkscape:window-x="0"
     inkscape:cy="211.04464"
     inkscape:cx="228.35559"
     inkscape:zoom="1.6164321"
     showgrid="false"
     id="namedview2549"
     inkscape:window-height="1016"
     inkscape:window-width="1920"
     inkscape:pageshadow="2"
     inkscape:pageopacity="0"
     guidetolerance="10"
     gridtolerance="10"
     objecttolerance="10"
     borderopacity="1"
     bordercolor="#666666"
     pagecolor="#ffffff" />
  <path
     style="fill:#9a031e;fill-opacity:1"
     id="path2541"
     opacity="0.97"
     d="m 163.85559,205.07464 c -34.867,0.142 -68.360995,13.212 -98.627995,29.581 -26.972,15.158 -52.706,37.738 -61.0160002,68.644 -7.099,27.292 3.477,57.388 23.3560002,76.699 20.869,19.506 51.621,23.34 78.880995,19.218 31.722,-5.021 62.008,-17.747 89.113,-34.776 24.349,-15.747 46.35,-38.979 51.338,-68.53 3.84,-25.136 -1.655,-45.73 -19.705,-63.404 -11.986,13.266 -21.322,23.562 -22.879,36.563 -0.814,7.076 1.527,12.739 -1.002,20.588 -3.596,18.417 -21.432,29.873 -36.459,39.295 -22.512,12.896 -47.133,23.638 -73.206995,26.127 -14.884,1.364 -32.675,-1.998 -40.759,-16.002 -7.542,-11.562 -5.982,-27.185 2.337,-37.907 15.276,-20.535 39.392,-31.736 62.566995,-40.966 14.109,-5.278 24.967,-9.404 40.135,-9.541 3.552,-15.76 9.881,-30.572 18.83,-43.95 -5.86,-0.99 -6.98,-1.59 -12.91,-1.63 z" />
  <path
     style="fill:#9a031e;fill-opacity:1"
     id="path2543"
     d="m 311.72559,121.48464 c -24.064,0.832 -47.539,9.049 -67.264,22.78 -9.768,6.775 -19.054,14.27 -27.752,22.401 l 1.597,13.237 17.569,-16.771 -5.59,24.757 18.368,-11.181 -5.591,21.563 12.199,-5.59 c 3.756,-3.414 7.565,-6.77 11.461,-10.003 9,-7.156 19.108,-14.063 30.088,-18.388 7.226,-2.702 16.491,-2.324 21.623,4.153 8.054,6.29 2.361,12.001 4.232,18.713 7.749,11.539 23.354,14.259 36.66,8.85 5.058,-15.704 6.662,-24.26 2.691,-40.541 -5.76,-18.99 -24.291,-33.915 -44.403,-33.981 -1.97,-0.08 -3.94,-0.07 -5.9,0 z m -113.41,64.45 c -6.519,7.593 -12.611,15.548 -18.108,23.899 -3.445,6.659 -9.007,14.905 -12.119,22.78 -7.064,16.862 -10.13,35.512 -8.925,53.748 1.173,14.196 4.302,24.811 17.165,31.559 10.849,-8.845 23.928,-18.108 22.906,-32.896 -5.727,-7.19 -1.819,-16.687 2.376,-24.039 7.86,-15.663 17.841,-30.061 29.21,-43.305 l -7.727,2.955 1.597,-18.369 -19.167,10.383 7.188,-22.362 -18.369,22.362 6.389,-23.161 c 0.01,-0.01 -1.72,-2.52 -2.41,-3.56 z m 88.92,46.41 c -14.065,15.85 -18.401,24.527 -35.576,36.964 4.297,16.968 0.934,34.72 -7.206,50.116 35.51,-11.655 56.76,-31.143 80.96,-58.821 4.739,-4.392 6.767,-7.853 -0.919,-8.227 -12.85,-3.81 -28,-10.19 -37.25,-20.03 z" />
  <path
     style="fill:#9a031e;fill-opacity:1"
     id="path2545"
     d="m 377.81559,2.0146442 c -28.968,-0.612 -54.5,18.0409998 -71.179,40.3939998 -18.655,25.206 -33.417,54.902 -40.564,85.299996 11.586,-7.77 41.176,-12.623 53.486,-11.057 8.287,-22.582996 18.087,-46.075996 37.61,-61.191996 11.53,-9.529 29.158,-9.954 40.899,-0.626 14.21,11.065 14.995,31.239 12.753,47.636996 -3.895,24.363 -12.845,47.901 -25.253,69.184 -9.024,14.531 -22.005,30.112 -40.283,31.615 -15.215,1.066 -29.461,-8.076 -32.783,-22.966 -3.209,-4.339 -0.127,-13.769 -4.465,-13.963 -6.334,-1.866 -22.285,6.279 -37.049,18.113 2.213,24.807 10.334,41.267 32.481,53.384 22.061,12.719 50.534,15.706 73.567,3.625 27.165,-13.465 45.366,-39.684 57.984,-66.415 14.777,-32.726 26.221,-69.148 20.58,-105.399996 -3.335,-23.021 -16.561,-44.998 -37.363,-56.161 -12.34,-6.8299998 -26.27,-11.2139998 -40.44,-11.4489998 z" />
</svg>
