<?xml version="1.0" encoding="UTF-8" standalone="no"?>
<svg
   xmlns:dc="http://purl.org/dc/elements/1.1/"
   xmlns:cc="http://creativecommons.org/ns#"
   xmlns:rdf="http://www.w3.org/1999/02/22-rdf-syntax-ns#"
   xmlns:svg="http://www.w3.org/2000/svg"
   xmlns="http://www.w3.org/2000/svg"
   xmlns:xlink="http://www.w3.org/1999/xlink"
   xmlns:sodipodi="http://sodipodi.sourceforge.net/DTD/sodipodi-0.dtd"
   xmlns:inkscape="http://www.inkscape.org/namespaces/inkscape"
   height="121.87756"
   width="69.39856"
   inkscape:version="1.0 (4035a4fb49, 2020-05-01)"
   sodipodi:docname="turo.svg"
   id="svg5908"
   version="1.1"
   viewBox="0 0 69.39856 121.87756">
  <metadata
     id="metadata5912">
    <rdf:RDF>
      <cc:Work
         rdf:about="">
        <dc:format>image/svg+xml</dc:format>
        <dc:type
           rdf:resource="http://purl.org/dc/dcmitype/StillImage" />
        <dc:title></dc:title>
      </cc:Work>
    </rdf:RDF>
  </metadata>
  <sodipodi:namedview
     fit-margin-bottom="4"
     fit-margin-right="4"
     fit-margin-left="4"
     lock-margins="true"
     fit-margin-top="4"
     inkscape:current-layer="layer2"
     inkscape:window-maximized="1"
     inkscape:window-y="0"
     inkscape:window-x="0"
     inkscape:cy="61.283861"
     inkscape:cx="32.710906"
     inkscape:zoom="6.0616204"
     showgrid="false"
     id="namedview5910"
     inkscape:window-height="1016"
     inkscape:window-width="1920"
     inkscape:pageshadow="2"
     inkscape:pageopacity="0"
     guidetolerance="10"
     gridtolerance="10"
     objecttolerance="10"
     borderopacity="1"
     bordercolor="#666666"
     pagecolor="#ffffff" />
  <defs
     id="defs5814">
    <linearGradient
       gradientUnits="userSpaceOnUse"
       gradientTransform="scale(1.035104,0.96608646)"
       xlink:href="#a"
       y2="117.71707"
       y1="119.23878"
       x2="59.906956"
       x1="57.569042"
       id="aw" />
    <linearGradient
       gradientUnits="userSpaceOnUse"
       gradientTransform="scale(0.97101196,1.0298534)"
       xlink:href="#a"
       y2="105.22688"
       y1="109.00552"
       x2="96.72744"
       x1="92.632294"
       id="av" />
    <linearGradient
       gradientUnits="userSpaceOnUse"
       gradientTransform="scale(1.2403589,0.80621825)"
       xlink:href="#a"
       y2="103.2508"
       y1="104.75272"
       x2="47.413109"
       x1="41.416412"
       id="bg" />
    <linearGradient
       gradientUnits="userSpaceOnUse"
       gradientTransform="scale(0.96825283,1.0327881)"
       xlink:href="#a"
       y2="103.9186"
       y1="106.51633"
       x2="93.966217"
       x1="92.091721"
       id="au" />
    <linearGradient
       gradientUnits="userSpaceOnUse"
       gradientTransform="scale(0.92147358,1.0852183)"
       y2="110.81996"
       y1="100.30002"
       x2="72.531502"
       x1="81.656113"
       id="at">
      <stop
         id="stop5776"
         offset="0"
         stop-color="#6a3c1d" />
      <stop
         id="stop5778"
         offset="1"
         stop-color="#8f5127" />
    </linearGradient>
    <linearGradient
       gradientUnits="userSpaceOnUse"
       gradientTransform="scale(1.2247468,0.81649532)"
       xlink:href="#a"
       y2="13.410354"
       y1="21.350855"
       x2="40.946484"
       x1="31.45892"
       id="aq" />
    <linearGradient
       gradientUnits="userSpaceOnUse"
       gradientTransform="scale(0.86991733,1.1495345)"
       xlink:href="#a"
       y2="23.143873"
       y1="25.378328"
       x2="48.646603"
       x1="42.321613"
       id="as" />
    <linearGradient
       gradientUnits="userSpaceOnUse"
       gradientTransform="scale(0.85579957,1.1684979)"
       xlink:href="#a"
       y2="20.097883"
       y1="16.434097"
       x2="48.593193"
       x1="44.876865"
       id="ar" />
    <linearGradient
       gradientUnits="userSpaceOnUse"
       gradientTransform="scale(1.267489,0.78896147)"
       xlink:href="#a"
       y2="148.31796"
       y1="150.04503"
       x2="48.514385"
       x1="45.032692"
       id="ax" />
    <linearGradient
       gradientUnits="userSpaceOnUse"
       gradientTransform="scale(1.0568281,0.94622767)"
       xlink:href="#a"
       y2="85.598465"
       y1="86.603767"
       x2="47.545776"
       x1="42.63533"
       id="bf" />
    <linearGradient
       gradientUnits="userSpaceOnUse"
       gradientTransform="scale(1.2105712,0.82605636)"
       xlink:href="#a"
       y2="103.33755"
       y1="104.38465"
       x2="44.794998"
       x1="38.722363"
       id="be" />
    <linearGradient
       gradientUnits="userSpaceOnUse"
       gradientTransform="scale(1.0113016,0.98882473)"
       xlink:href="#a"
       y2="91.837967"
       y1="94.812477"
       x2="69.783791"
       x1="68.628883"
       id="ay" />
    <linearGradient
       gradientUnits="userSpaceOnUse"
       gradientTransform="scale(1.129151,0.88562116)"
       xlink:href="#a"
       y2="90.234924"
       y1="97.462204"
       x2="77.052925"
       x1="71.69294"
       id="bd" />
    <linearGradient
       gradientUnits="userSpaceOnUse"
       gradientTransform="scale(0.95408146,1.0481285)"
       xlink:href="#a"
       y2="72.777016"
       y1="77.810333"
       x2="96.269165"
       x1="93.368401"
       id="bc" />
    <linearGradient
       gradientUnits="userSpaceOnUse"
       gradientTransform="scale(0.96741301,1.0336847)"
       xlink:href="#a"
       y2="83.9207"
       y1="88.857094"
       x2="76.438293"
       x1="74.605286"
       id="az" />
    <linearGradient
       gradientUnits="userSpaceOnUse"
       gradientTransform="scale(1.082331,0.92393178)"
       xlink:href="#a"
       y2="89.115852"
       y1="94.170067"
       x2="83.743134"
       x1="79.267036"
       id="bb" />
    <linearGradient
       gradientUnits="userSpaceOnUse"
       gradientTransform="scale(0.86603236,1.1546913)"
       xlink:href="#a"
       y2="77.371811"
       y1="79.768044"
       x2="89.181923"
       x1="87.384186"
       id="ba" />
    <linearGradient
       gradientUnits="userSpaceOnUse"
       gradientTransform="scale(1.2792076,0.78173394)"
       xlink:href="#a"
       y2="19.015015"
       y1="24.646414"
       x2="45.416309"
       x1="42.643005"
       id="ap" />
    <linearGradient
       gradientUnits="userSpaceOnUse"
       gradientTransform="scale(1.4001892,0.71418921)"
       xlink:href="#a"
       y2="43.930256"
       y1="47.183636"
       x2="36.163338"
       x1="31.53421"
       id="bl" />
    <linearGradient
       gradientUnits="userSpaceOnUse"
       gradientTransform="scale(1.4974724,0.66779193)"
       xlink:href="#a"
       y2="36.818146"
       y1="22.350245"
       x2="57.665859"
       x1="32.50856"
       id="bk" />
    <linearGradient
       gradientUnits="userSpaceOnUse"
       gradientTransform="scale(0.61356895,1.6298087)"
       xlink:href="#a"
       y2="8.7817097"
       y1="5.7804332"
       x2="99.672943"
       x1="95.486946"
       id="ao" />
    <linearGradient
       gradientUnits="userSpaceOnUse"
       gradientTransform="scale(1.4340866,0.69730798)"
       xlink:href="#a"
       y2="29.384598"
       y1="47.506191"
       x2="61.522972"
       x1="42.845913"
       id="bj" />
    <linearGradient
       gradientUnits="userSpaceOnUse"
       gradientTransform="scale(1.4027366,0.71289223)"
       xlink:href="#a"
       y2="76.306007"
       y1="64.570137"
       x2="72.607521"
       x1="50.53252"
       id="bi" />
    <linearGradient
       gradientUnits="userSpaceOnUse"
       gradientTransform="scale(0.92636454,1.0794886)"
       xlink:href="#a"
       y2="97.329613"
       y1="54.048031"
       x2="94.932098"
       x1="49.11422"
       id="bh" />
    <linearGradient
       id="a">
      <stop
         id="stop5800"
         offset="0"
         stop-color="#b1b1b1" />
      <stop
         id="stop5802"
         offset="1"
         stop-color="#e4e4e4" />
    </linearGradient>
    <linearGradient
       gradientUnits="userSpaceOnUse"
       gradientTransform="scale(0.78863506,1.2680136)"
       xlink:href="#a"
       y2="29.470152"
       y1="28.891483"
       x2="71.4991"
       x1="66.067879"
       id="bm" />
    <linearGradient
       gradientUnits="userSpaceOnUse"
       gradientTransform="scale(1.690293,0.59161341)"
       xlink:href="#a"
       y2="13.440059"
       y1="20.677341"
       x2="42.837891"
       x1="36.686489"
       id="an" />
    <linearGradient
       gradientUnits="userSpaceOnUse"
       x2="86.560547"
       gradientTransform="scale(0.94388496,1.0594511)"
       xlink:href="#a"
       y2="15.702735"
       y1="15.702735"
       x1="80.210068"
       id="am" />
    <linearGradient
       gradientUnits="userSpaceOnUse"
       gradientTransform="scale(1.6598562,0.60246184)"
       xlink:href="#a"
       y2="69.028473"
       y1="69.028473"
       x2="40.675552"
       x1="30.727615"
       id="bn" />
    <linearGradient
       gradientUnits="userSpaceOnUse"
       gradientTransform="scale(1.0046616,0.99535999)"
       xlink:href="#a"
       y2="16.346199"
       y1="20.891796"
       x2="91.916595"
       x1="86.19529"
       id="al" />
    <linearGradient
       gradientUnits="userSpaceOnUse"
       gradientTransform="scale(1.0586281,0.94461876)"
       xlink:href="#a"
       y2="31.53137"
       y1="26.610952"
       x2="88.501282"
       x1="83.301498"
       id="ak" />
    <linearGradient
       gradientUnits="userSpaceOnUse"
       gradientTransform="scale(0.43852798,2.2803562)"
       xlink:href="#a"
       y2="17.942638"
       y1="15.582332"
       x2="155.63019"
       x1="150.04993"
       id="bo" />
    <linearGradient
       gradientUnits="userSpaceOnUse"
       gradientTransform="scale(0.93834884,1.0657018)"
       xlink:href="#a"
       y2="29.326387"
       y1="32.998699"
       x2="98.151283"
       x1="91.894623"
       id="aj" />
    <linearGradient
       gradientUnits="userSpaceOnUse"
       gradientTransform="scale(1.4272506,0.70064783)"
       xlink:href="#a"
       y2="40.852566"
       y1="52.811256"
       x2="58.5299"
       x1="48.161808"
       id="ai" />
  </defs>
  <g
     transform="translate(-31.289094,-2.7161394)"
     inkscape:label="castle"
     id="layer2"
     inkscape:groupmode="layer">
    <path
       d="m 41.83,52.901 -3.9139,53.817 0.8562,1.7123 5.8709,5.137 10.029,4.7701 11.497,2.0793 0.3669,-7.5832 0.7339,-11.008 3.1801,-5.3817 3.1801,-2.3239 4.6478,1.2231 4.0362,2.9354 1.4677,2.2016 1.7123,8.684 1.7123,6.2378 9.1733,-7.3386 -2.3239,-25.196 -3.4247,-30.578 -4.7701,2.6908 -7.2163,2.6908 -8.9287,0.9785 L 61.399,58.4047 50.88,56.6924 41.829,52.9008 Z"
       fill="url(#bh)"
       id="path5816"
       style="fill:#fb8b24;fill-opacity:1;fill-rule:evenodd" />
    <path
       d="m 35.837,30.763 0.1223,16.023 3.6693,4.6478 5.6263,3.4247 10.274,3.0578 10.519,1.1008 12.109,-1.1008 10.519,-4.1585 6.6048,-6.4824 -0.2446,-15.9 -1.1008,2.9355 -3.6693,3.7916 -3.0578,2.3239 -0.7339,-6.9717 -11.375,3.1801 -6.9717,0.4892 -0.6115,7.4609 -6.8494,-0.2446 -6.1155,-0.8562 -3.7916,-1.3454 -0.1223,-6.2378 -5.2593,-1.4677 -4.2809,-2.0793 -2.9354,-3.547 -0.8562,3.9139 -1.4677,-1.957 z"
       fill="url(#bi)"
       id="path5818"
       style="fill:#fb8b24;fill-opacity:1;fill-rule:evenodd" />
    <path
       d="m 37.305,23.914 5.7486,1.7124 v 1.8346 l -4.7701,1.1008 -0.9785,4.4032 -1.1008,-2.8131 0.4892,-4.4032 0.6115,-1.8347 z"
       fill="url(#as)"
       id="path5820"
       style="fill:#fb8b24;fill-opacity:1;fill-rule:evenodd" />
    <path
       d="m 37.549,23.547 -0.6115,-6.4824 5.9932,2.3239 0.3669,6.3601 z"
       fill="url(#ar)"
       id="path5822"
       style="fill:url(#ar);fill-rule:evenodd" />
    <path
       d="m 37.06,16.698 2.5685,-2.4462 3.4247,-2.2016 3.1801,-1.7124 2.9355,-1.3454 4.0362,4.7701 -4.4032,1.4677 -3.4247,2.2016 -2.3239,2.3239 -5.9932,-3.0578 z"
       fill="url(#aq)"
       id="path5824"
       style="fill:#fb8b24;fill-opacity:1;fill-rule:evenodd" />
    <path
       d="m 53.694,15.108 2.4462,-0.4893 2.6908,-0.7339 3.6693,3.7916 -2.6908,0.4892 -1.59,0.7339 -2.0793,0.3669 H 54.0609 L 53.694,15.1079 Z"
       fill="url(#ap)"
       id="path5826"
       style="fill:#fb8b24;fill-opacity:1;fill-rule:evenodd" />
    <path
       d="m 58.954,14.007 -0.3669,-6.8494 3.547,4.7701 0.3669,5.6263 z"
       fill="url(#ao)"
       id="path5828"
       style="fill:url(#ao);fill-rule:evenodd" />
    <path
       d="m 59.565,7.2797 4.0362,-0.2446 4.1585,-0.1223 5.504,0.7339 2.6908,5.2594 -6.4824,-1.3454 H 65.6805 L 62.0112,11.9276 58.8311,7.5244 59.565,7.2798 Z"
       fill="url(#an)"
       id="path5830"
       style="fill:#fb8b24;fill-opacity:1;fill-rule:evenodd" />
    <path
       d="m 75.71,13.273 0.1223,4.1586 1.4677,0.2446 4.4032,2.3239 -0.1223,-2.8131 -1.8347,-1.1008 -2.0793,-1.2231 -1.7124,0.1223 -0.2446,-1.7123 z"
       fill="url(#am)"
       id="path5832"
       style="fill:#fb8b24;fill-opacity:1;fill-rule:evenodd" />
    <path
       d="m 81.459,13.395 4.6478,-1.8346 4.0362,2.6908 2.2016,2.3239 1.59,3.3024 0.7339,3.9139 -7.5832,0.8562 0.3669,-2.2016 -0.4892,-3.1801 -2.2016,-2.9354 z"
       fill="url(#al)"
       id="path5834"
       style="fill:#fb8b24;fill-opacity:1;fill-rule:evenodd" />
    <path
       d="m 87.085,24.648 -0.3669,5.2594 7.9502,1.1008 -0.1223,-7.094 -7.4609,0.7339 z"
       fill="url(#ak)"
       id="path5836"
       style="fill:url(#ak);fill-rule:evenodd" />
    <path
       d="m 86.963,29.907 -1.3454,2.2016 0.9785,1.4677 0.4892,6.8494 1.8347,-1.4677 3.9139,-2.8131 1.8347,-2.9355 0.2107,-2.3239 z"
       fill="url(#aj)"
       id="path5838"
       style="fill:#fb8b24;fill-opacity:1;fill-rule:evenodd" />
    <path
       d="m 83.416,27.094 c 0.48925,1.1008 3.1801,6.2378 3.1801,6.2378 l -4.5255,1.4677 -9.2956,2.0793 -4.8924,0.1223 -1.4677,-5.3817 h 4.0362 l 5.0147,-1.3454 3.547,-0.9785 3.7916,-1.59 0.6115,-0.6115 z"
       fill="url(#ai)"
       id="path5840"
       style="fill:#fb8b24;fill-opacity:1;fill-rule:evenodd" />
    <path
       d="m 68.249,36.634 -0.8562,7.8279 -1.59,-5.0147 0.6115,-7.7056 z"
       fill="url(#bo)"
       id="path5842"
       style="fill:url(#bo);fill-rule:evenodd" />
    <path
       d="m 65.681,39.936 -3.6693,-0.2446 -4.1585,-0.8562 -0.6115,-0.2446 -6.2378,3.547 0.8562,0.8562 3.3024,0.6115 6.8494,0.8562 5.504,0.1223 -1.8347,-4.6478 z"
       fill="url(#bn)"
       id="path5844"
       style="fill:#fb8b24;fill-opacity:1;fill-rule:evenodd" />
    <path
       d="m 56.63,32.353 0.4892,6.4825 -6.1155,3.547 -0.1223,-4.0363 V 35.9 Z"
       fill="url(#bm)"
       id="path5846"
       style="fill:#fb8b24;fill-opacity:1;fill-rule:evenodd" />
    <path
       d="M 56.385,32.72 51.6149,31.2523 47.701,29.54 l -3.6693,-2.8131 -5.8709,1.7123 0.9785,1.957 2.4462,2.0793 4.5255,2.2016 4.8924,1.3454 5.3817,-3.3024 z"
       fill="url(#bl)"
       id="path5848"
       style="fill:#fb8b24;fill-opacity:1;fill-rule:evenodd" />
    <path
       d="m 47.09,28.439 3.3024,-2.9354 5.9932,-2.8131 5.6263,-1.7124 4.5255,-0.6115 5.504,0.4892 4.4032,0.7339 6.2378,3.0578 4.2809,4.5255 -0.8562,2.5685 1.1008,-3.7916 v -3.7916 l 0.4892,-2.4462 -1.957,-4.4032 -4.2809,-3.9139 0.1223,3.4247 0.2446,2.9354 -4.0362,-2.0793 -1.957,-0.2446 0.1223,-4.5255 -5.9932,-1.1008 -3.4247,-0.2446 -4.5255,0.2446 0.6116,6.2378 -3.6693,0.8562 -4.1585,0.6115 -0.8562,-0.1223 -0.4892,-5.6263 -4.5255,1.3454 -4.1585,2.8131 -2.3239,2.4462 0.8562,6.1155 1.2231,0.6115 2.5685,1.3454 z"
       fill="url(#bk)"
       id="path5850"
       style="fill:url(#bk);fill-rule:evenodd" />
    <path
       d="m 47.09,28.684 2.3239,-2.3239 6.8494,-3.8065 8.6753,-2.0644 6.3688,0.1223 8.1948,2.4462 3.4247,1.8346 4.1585,4.0362 -0.7339,3.0578 -2.6908,-4.8924 -4.0362,2.0793 -5.137,1.59 -4.0362,0.8562 h -4.1586 l -0.4892,8.3171 -3.7916,-0.1223 -4.7701,-1.2231 -0.7339,-5.8709 -3.4247,-1.1008 -4.7701,-1.8346 z"
       fill="url(#bj)"
       id="path5852"
       style="fill:#fb8b24;fill-opacity:1;fill-rule:evenodd" />
    <path
       id="path5854"
       d="m 37.549,23.547 -0.6115,-6.4824 5.9932,2.3239 0.3669,6.3601 z"
       style="fill:#fb8b24;fill-opacity:1;fill-rule:evenodd" />
    <path
       id="path5856"
       d="m 58.954,14.007 -0.3669,-6.8494 3.547,4.7701 0.3669,5.6263 z"
       style="fill:#fb8b24;fill-opacity:1;fill-rule:evenodd" />
    <path
       id="path5858"
       d="m 87.085,24.648 -0.3669,5.2594 7.9502,1.1008 -0.1223,-7.094 -7.4609,0.7339 z"
       style="fill:#fb8b24;fill-opacity:1;fill-rule:evenodd" />
    <path
       id="path5860"
       d="m 68.249,36.634 -0.8562,7.8279 -1.59,-5.0147 0.6115,-7.7056 z"
       style="fill:#fb8b24;fill-opacity:1;fill-rule:evenodd" />
    <path
       id="path5862"
       d="m 47.09,28.439 3.3024,-2.9354 5.9932,-2.8131 5.6263,-1.7124 4.5255,-0.6115 5.504,0.4892 4.4032,0.7339 6.1494,3.2345 4.3693,4.3487 -0.8562,2.5685 1.1008,-3.7916 v -3.7916 l 0.4892,-2.4462 -1.957,-4.4032 -4.2809,-3.9139 0.1223,3.4247 0.2446,2.9354 -4.0362,-2.0793 -1.957,-0.2446 0.1223,-4.5255 -5.9932,-1.1008 -3.4247,-0.2446 -4.5255,0.2446 0.6116,6.2378 -3.6693,0.8562 -4.1585,0.6115 -0.8562,-0.1223 -0.4892,-5.6263 -4.5255,1.3454 -4.1585,2.8131 -2.3239,2.4462 0.8562,6.1155 1.2231,0.6115 2.5685,1.3454 z"
       style="fill:#fb8b24;fill-opacity:1;fill-rule:evenodd" />
    <path
       d="m 65.989,118.75 0.7784,-9.8595 0.6919,-7.0054 1.6432,-3.5459 4.0649,-4.2378 4.4108,1.1243 c 1.9499,0.9408 3.3925,1.313 5.2757,3.9784 l 4.0649,15.049 -6.1405,1.6432 -6.4,1.4703 -8.3892,1.3838 z"
       fill="url(#at)"
       id="path5866"
       style="fill:#fb8b24;fill-opacity:1;fill-rule:evenodd" />
    <path
       d="m 62.53,119.7 0.2595,-8.6487 1.0378,-10.119 1.1243,-1.7297 2.8541,-3.6324 4.9297,-4.3243 2.9405,0.8649 4.7568,2.1622 5.1027,3.4595 1.2108,4.7568 3.1135,11.157 -2.5946,1.4703 -4.2378,-15.568 c -1.2325,-1.6768 -2.1826,-2.8212 -5.0162,-4.1513 l -4.2378,-1.2108 c -1.5099,1.2766 -4.0095,3.0792 -4.6703,3.7189 l -1.9027,4.8432 -1.0378,12.714 -0.173,5.1027 -3.4595,-0.8649 z"
       fill="#ffffff"
       fill-opacity="0.125"
       id="path5868"
       style="fill-rule:evenodd" />
    <path
       d="m 62.443,119.44 -2.9405,-0.2595 -4.5838,-0.9514 c 0,0 -0.0085,-3.7274 0.34595,-3.6324 1.654,0.44316 7.4378,1.6432 7.4378,1.6432 l -0.2595,3.2 z"
       fill="url(#ax)"
       id="path5870"
       style="fill:#fb8b24;fill-opacity:1;fill-rule:evenodd" />
    <path
       d="m 58.724,115.11 0.173,-2.6811 3.7189,1.2108 -0.173,2.4216 z"
       fill="url(#aw)"
       id="path5872"
       style="fill:#fb8b24;fill-opacity:1;fill-rule:evenodd" />
    <path
       d="m 88.822,110.53 1.9892,-1.1243 2.9405,-2.2486 0.7784,2.5081 -5.0162,3.5459 z"
       fill="url(#av)"
       id="path5874"
       style="fill:#fb8b24;fill-opacity:1;fill-rule:evenodd" />
    <path
       d="m 92.022,108.71 -1.1243,-2.4216 -2.7676,1.6432 0.8649,2.5081 z"
       fill="url(#au)"
       id="path5876"
       style="fill:#fb8b24;fill-opacity:1;fill-rule:evenodd" />
    <path
       d="m 86.919,79.395 -4.4973,2.5081 -2.8541,1.0378 0.9513,3.373 1.5568,-0.2595 3.373,-1.9027 2.9405,-1.9892 -1.4703,-2.7676 z"
       fill="url(#bd)"
       id="path5878"
       style="fill:#fb8b24;fill-opacity:1;fill-rule:evenodd" />
    <path
       d="m 86.832,79.049 3.2,-2.4216 2.0757,-1.2108 0.8649,4.2378 -1.8162,1.9027 -2.3351,0.6054 -1.9892,-3.1135 z"
       fill="url(#bc)"
       id="path5880"
       style="fill:#fb8b24;fill-opacity:1;fill-rule:evenodd" />
    <path
       d="m 88.562,82.076 -3.8919,2.5946 0.6054,2.8541 2.0757,-0.4324 3.7189,-1.7297 0.6919,-0.8649 -0.6919,-3.027 -2.5081,0.6054 z"
       fill="url(#bb)"
       id="path5882"
       style="fill:#fb8b24;fill-opacity:1;fill-rule:evenodd" />
    <path
       d="m 77.838,92.8 -0.2595,-4.1514 -2.8541,0.0865 0.6054,3.2865 2.5081,0.7784 z"
       fill="url(#ba)"
       id="path5884"
       style="fill:#fb8b24;fill-opacity:1;fill-rule:evenodd" />
    <path
       d="m 71.092,92.454 -2.0757,-5.6216 5.1027,-1.0378 1.2108,6.4 -2.4216,-1.0378 -1.4703,1.3838 -0.7784,-0.6054"
       fill="url(#az)"
       id="path5886"
       style="fill:#fb8b24;fill-opacity:1;fill-rule:evenodd" />
    <path
       d="m 70.054,89.946 -2.5946,1.2108 1.9892,2.5946 1.9027,-1.2973 z"
       fill="url(#ay)"
       id="path5888"
       style="fill:#fb8b24;fill-opacity:1;fill-rule:evenodd" />
    <path
       d="m 58.811,82.768 -5.6216,-1.5568 -2.1622,-0.7784 -0.8649,3.7189 3.2865,0.9513 c 0,0 2.3351,0.6919 2.6811,0.6919 0.34595,0 2.5081,0.25945 2.5081,0.25945 l 0.173,-3.2865 z"
       fill="url(#bg)"
       id="path5890"
       style="fill:#fb8b24;fill-opacity:1;fill-rule:evenodd" />
    <path
       d="m 51.546,80.26 c -0.34594,0 -3.373,-0.77838 -3.373,-0.77838 l -1.9027,-1.0378 -1.9892,-0.7784 -0.173,4.1514 2.0757,1.7297 4.0649,0.7784 1.2973,-4.0649 z"
       fill="url(#bf)"
       id="path5892"
       style="fill:#fb8b24;fill-opacity:1;fill-rule:evenodd" />
    <path
       d="m 47.135,83.719 -0.2595,2.8541 3.1135,1.2973 4.2378,0.8649 -0.0865,-3.373 -3.1135,-1.0378 -3.8919,-0.6054 z"
       fill="url(#be)"
       id="path5894"
       style="fill:#fb8b24;fill-opacity:1;fill-rule:evenodd" />
    <path
       id="path5896"
       d="m 90.02,76.385 -2.0793,2.3239 -0.8562,0.1223 -1.8347,1.1008 -3.1801,1.59 -0.9785,-8.5617 0.7339,-2.8131 2.0793,-3.7916 4.0362,0.8562 0.8562,1.1008 1.2231,8.0725 z"
       style="fill:#fb8b24;fill-opacity:1;fill-rule:evenodd" />
    <path
       id="path5898"
       d="m 56.63,81.889 -4.8924,-1.4677 -1.7123,-0.4892 -3.0578,-1.59 0.3669,-7.9502 1.957,-1.957 1.1008,-0.8562 h 1.7123 l 2.9355,1.8347 1.3454,3.4247 0.2446,9.051 z"
       style="fill:#d59163;fill-rule:evenodd" />
    <path
       d="m 56.63,81.889 -4.8924,-1.4677 -1.7123,-0.4892 -3.0578,-1.59 0.3669,-7.9502 1.957,-1.957 1.1008,-0.8562 h 1.7123 l 2.9355,1.8347 1.3454,3.4247 0.2446,9.051 z"
       fill-opacity="0.157"
       id="path5902"
       style="fill:#fb8b24;fill-opacity:1;fill-rule:evenodd" />
  </g>
  <g
     transform="translate(-31.289094,-2.7161394)"
     style="display:inline"
     inkscape:label="border"
     id="layer1"
     inkscape:groupmode="layer">
    <path
       style="fill:#ffffff;fill-opacity:1"
       id="path5906"
       fill-rule="evenodd"
       d="m 65.625,6.7188 c -2.4989,0.0169 -5.0064,0.14794 -7.5,0.25 l 0.375,6.8438 c -1.2447,0.74324 -2.8997,0.64326 -4.2812,1.0625 L 54.1563,13.4689 49.1251,8.8127 c -3.8194,1.9802 -7.8692,2.727 -12.844,8.25 l 0.4688,6.5312 c -2.1119,7.5341 -1.4513,15.946 -0.96875,23.688 1.1316,2.4022 3.2417,4.0499 5.3438,5.5938 l -3.6562,54.062 c 6.8598,9.5748 17.656,12.146 28.75,13.656 0.70425,-0.12855 0.20306,-0.69819 0.46875,-1.25 0.96705,-0.1728 1.9704,-0.37518 2.9688,-0.5625 l 0.4062,1.0312 0.375,-0.0938 0.2188,-1.125 c 1.2318,-0.23557 2.4723,-0.49158 3.7188,-0.75 l 0.4688,1.25 0.375,-0.0312 0.1562,-1.4062 c 1.0542,-0.22395 2.0835,-0.47768 3.125,-0.71875 l 0.375,1.2812 0.4375,-0.0312 0.1875,-1.4688 c 1.0319,-0.24623 2.065,-0.48599 3.0625,-0.75 0.01589,0.12555 0.5625,1.125 0.5625,1.125 l 0.25,-0.0625 c 0,0 0.17592,-1.158 0.15625,-1.3125 0.97551,-0.26786 1.9236,-0.55767 2.8438,-0.84375 0.01714,0.12691 0.15266,0.64214 0.3125,0.875 3.6526,-1.2629 7.3377,-4.9137 10,-7.9062 l -5.4688,-55.469 c 1.7892,-1.4394 3.2199,-3.1337 4.125,-5.0938 0.1893,-8.62 -0.27084,-15.292 -0.40625,-22.938 -0.06984,-2.7093 -0.98762,-5.5217 -2.625,-8 -2.0908,-2.8306 -4.0081,-3.5304 -5.9375,-5 l -5.3438,1.875 -0.0625,3.2812 C 79.4683,15.71296 78.519,13.9404 76.125,14.7179 l -0.0312,-1.875 -3,-5.6562 C 70.6142,6.79828 68.124,6.70105 65.625,6.71795 Z m 0.7812,0.5 c 2.185,-0.01544 4.3565,0.17796 6.4375,0.65625 l 2.25,4.375 C 71.2169,11.48812 66.7345,10.35925 61.7187,11.6563 L 59.9375,7.8751 c 2.0851,-0.41654 4.2837,-0.64081 6.4688,-0.65625 z m -7.4688,0.5938 2.2812,3.7812 0.7188,4.9688 -2.7188,-2.875 z m -10,1.6562 3.5312,3.9062 c -3.7479,1.0405 -6.8502,2.1389 -9.4375,5.8438 l -5.1562,-2.5312 c 2.7099,-3.385 6.7034,-5.4868 11.062,-7.2188 z m 17.031,2.5 c 0.40424,-0.01612 0.79598,-0.0074 1.1875,0 2.8052,0.05321 5.3358,0.68795 8,1.1875 l 0.4062,4.2188 c 2.3002,0.77578 4.623,1.4914 6.4375,3.5625 l -0.4688,-6.875 c 2.1177,1.4787 3.9186,3.4646 4.7812,5.0625 0.92891,1.7206 1.1185,3.483 0.5,5.4375 l -0.1562,3.9062 c -5.771,-6.8226 -14.202,-8.9734 -22.75,-7.9688 -6.2166,1.03 -12.832,3.0066 -17.312,7.6875 l -2.875,-1.7812 -0.1875,-0.6562 -0.1875,-5.2812 c 2.3021,-3.7869 5.8257,-5.1497 9.875,-6.3125 l 0.5938,5.3125 c 1.88,0.06085 3.9484,0.12135 8.9062,-1.4688 L 62.125,12.5313 c 1.3522,-0.33813 2.631,-0.51414 3.8438,-0.5625 z m 20.25,0 c 1.9441,1.4198 4.151,2.7815 5.5938,4.5 1.4165,1.6872 2.4687,4.4004 2.5,7.2812 l -6.4688,0.4062 c 0.43282,-1.926 0.08099,-3.5996 -0.84375,-5.3125 -0.9221,-1.708 -2.9168,-3.7124 -4.9688,-5.1875 l 4.1875,-1.6875 z M 58.7804,14 l 2.6562,3.4375 c -1.9263,0.76823 -4.54,2.0334 -6.9688,1.7812 l -0.2812,-3.8125 c 1.6652,0.05924 3.175,-0.54309 4.5938,-1.4062 z m 17.906,1.3125 c 2.1263,-0.12292 3.5293,1.456 4.2812,2.25 l -0.0312,1.4062 c -1.343,-0.90438 -3.1305,-1.4596 -4.75,-1.875 l -0.0312,-1.7188 c 0.18352,-0.03437 0.35721,-0.05244 0.53125,-0.0625 z m -39.25,2.3125 4.9062,2.375 0.1562,5.0312 c -1.4862,-0.30405 -2.9023,-0.43288 -4.7812,-1.7188 l -0.2812,-5.6875 z m 28.688,3.125 c 5.8086,-0.13019 17.369,2.0291 20.5,8.875 0.04781,0.78291 -0.50398,1.0579 -0.96875,1.5625 l -2.1562,-4.375 c -2.8492,1.6449 -5.8806,2.7186 -9,3.4688 -0.01282,-0.006 -1.4226,-0.63689 -2,-0.90625 l 2.5,-1.9062 c 0.64495,0.37968 2.0312,1.1875 2.0312,1.1875 l 0.1875,-0.5625 c 0,0 -0.77277,-0.33987 -1.875,-0.875 l 1.0312,-0.8125 -0.1875,-0.3438 -1.25,0.9375 c -0.76789,-0.38012 -1.6319,-0.81532 -2.5625,-1.3438 0.31116,-0.17918 0.63171,-0.36334 0.9375,-0.53125 l -0.3125,-0.3125 c -0.36448,0.18266 -0.73306,0.36798 -1.0938,0.5625 -0.90881,-0.5825 -1.7577,-1.2168 -2.625,-1.7812 l 1.4062,-0.7812 -0.9062,0.0625 -0.875,0.4688 c -0.76559,-0.46411 -1.5736,-0.84963 -2.5,-1.0312 l -0.3125,0.1875 c 0.75406,0.36132 1.4833,0.75778 2.2188,1.1562 l -3.75,1.9688 c -1.1865,-0.56706 -2.1869,-1.0518 -2.625,-1.2812 l -0.0938,0.25 c 0.36115,0.18917 1.5149,0.7508 2.375,1.1875 l -4.75,2.5 c -1.7131,-0.6975 -3.1779,-1.2894 -3.6562,-1.4688 l -0.1875,0.375 c 0.28831,0.10812 2.1032,0.91112 3.25,1.4062 l -3.5,1.8438 -2.1875,-1.0625 -0.25,0.2812 2.0312,1 -0.9688,0.5 0.7188,0.375 0.9688,-0.5312 4.3438,2.125 c -0.42326,0.28057 -0.86363,0.57922 -1.2812,0.84375 l -0.0625,0.375 c 0.56377,-0.32834 1.1354,-0.6693 1.7188,-1.0312 l 3.625,1.7812 -0.8438,0.625 0.4688,0.4062 0.9688,-0.75 0.9688,0.4688 0.2188,-0.3438 -0.375,3.7812 c -2.9058,-0.01768 -4.8527,0.19648 -8.0312,-1.0312 l -0.625,-6.1562 c -4.0304,-0.73485 -7.746,-2.1955 -9.6875,-3.4375 4.3716,-4.4111 10.972,-6.706 16.938,-7.7188 0.55379,-0.10551 1.264,-0.1689 2.0938,-0.1875 z m 2.625,3.125 c 0.97519,0.53655 1.9406,1.104 2.9062,1.6562 -1.0897,0.59701 -2.1629,1.2342 -3.2188,1.9062 -1.1541,-0.54307 -2.3132,-1.0717 -3.3438,-1.5625 l 3.6562,-2 z m -31.25,0.4375 5,1.7812 0.2812,0.6562 -4.7188,1.6562 -0.8125,2.9375 c -0.26152,-1.7619 -0.34296,-5.2632 0.25,-7.0312 z m 56.938,0.0312 0.0312,6.1562 -6.9375,-1.0625 0.2188,-4.625 6.6875,-0.4688 z m -22.281,1.4688 c 1.2657,0.72848 1.5811,0.91603 2.4688,1.4375 l -2.5625,1.9062 c -1.0284,-0.48009 -1.4508,-0.69485 -3.0312,-1.4375 1.0589,-0.67655 2.1033,-1.3118 3.125,-1.9062 z m -7.4062,0.25 c 1.2948,0.65605 1.7671,0.89386 3.2812,1.6562 -1.2873,0.83062 -2.5424,1.6729 -3.7812,2.5312 -0.47423,-0.19976 -0.75591,-0.28651 -1.3125,-0.53125 -0.97677,-0.4295 -1.8619,-0.77728 -2.7812,-1.1562 l 4.5938,-2.5 z m -20.531,1.2188 c 1.8558,2.2545 5.1126,4.0526 10.656,5.2188 l -4.0938,2.9375 c -3.9956,-1.3226 -8.6677,-1.0129 -11.75,-6.3125 l 5.1875,-1.8438 z m 39.094,0.25 2.1562,5.4375 c -5.7495,1.6325 -11.196,3.9346 -17.281,3.75 l -1.2812,-4.6562 c 4.9703,-0.45925 10.846,-1.6062 16.406,-4.5312 z m -14.719,0.4688 c 1.339,0.67383 2.1115,1.0695 2.9688,1.5 l -2.4062,1.7812 c -0.61356,0.0869 -1.2272,0.14476 -1.8438,0.21875 -0.43927,-0.16202 -1.2851,-0.50182 -2.5625,-1.0312 1.2767,-0.84354 2.5714,-1.6495 3.8438,-2.4688 z m -9.0312,0.875 c 1.2197,0.5292 1.7684,0.76475 3.1562,1.375 0.37189,0.16353 0.64558,0.27146 0.96875,0.40625 -1.0986,0.76283 -2.188,1.4757 -3.25,2.1875 l -4.3438,-2.0625 3.4688,-1.9062 z m 12.438,0.8438 c 0.38943,0.19554 1.4396,0.71959 1.5625,0.78125 -1.1163,0.24446 -2.2406,0.44763 -3.375,0.625 l 1.8125,-1.4062 z m -33.75,0.25 c 2.7956,3.7794 7.7694,4.8088 11.969,6.3438 l 0.1562,6.3125 c 3.5934,1.1466 5.5827,2.0149 17.375,2.3125 l 0.5625,-7.1875 c 6.4564,0.1524 12.077,-2.3774 17.844,-3.9688 l 0.7188,7 c 3.2913,-2.1348 6.2747,-3.9828 7.9688,-7.5625 0.36773,4.482 -0.10389,9.0817 -0.46875,13.719 -5.9604,9.6415 -18.382,11.459 -28.719,11.594 -10.103,-0.52079 -22.604,-2.4322 -28.875,-11.438 -0.44771,-5.617 -1.3284,-11.302 -0.1875,-15.438 l 0.8438,2.0312 0.8125,-3.7188 z m 49.312,0.2188 7.0625,1.125 c -0.56891,3.8459 -4.211,6.3832 -7.1562,8.5 l -0.6875,-6.25 -0.6562,-1.4688 c 0.88689,-0.38485 1.1171,-1.0784 1.4375,-1.9062 z m -23.375,0.6562 c 0.98402,0.39889 1.6042,0.65326 2.0938,0.8125 -0.0413,0.0046 -0.08369,-0.0045 -0.125,0 l -0.1875,1.9688 -1.5312,1.1562 -3.625,-1.75 c 1.1006,-0.69064 2.2361,-1.4367 3.375,-2.1875 z m 2.4375,1.75 1.0938,4.75 -0.5,6.1875 -1.0938,-4.0312 0.5,-6.9062 z m -10.438,0.2188 0.5,5.5312 -5.4688,3.2812 v -5.2812 z m 9.7188,1.5938 -0.0938,1 -0.75,-0.3438 z m -8.75,4.5 c 3.3587,1.2774 5.502,1.3474 8.4375,1.375 l 0.6875,3.7188 c -5.0369,0.21859 -10.431,0.08102 -15.031,-1.7812 l 5.9062,-3.3125 z m 33.125,14.156 c 2.2508,18.112 4.275,36.347 5.375,54.625 -0.38286,0.4677 -0.79665,0.90173 -1.2188,1.3438 l -0.5312,-2.25 c -0.59928,0.54742 -1.2132,1.0034 -1.8125,1.4375 L 91.1563,106 l -2.75,1.5312 -2.9062,-10 c -2.4515,-2.2934 -4.9966,-3.6299 -7.625,-4.6875 l -0.0625,-4.3438 -2.9375,-0.0625 -0.5625,-3.125 -5.5625,1.375 1,3.125 -2.5938,1.2812 2.0312,2.6875 c -2.0822,1.9909 -3.8324,4.2795 -5.4375,6.7188 -0.77121,4.1802 -1.1096,8.4108 -1.3438,12.656 l -3.6562,-0.9062 -0.2188,3 c -1.1354,-0.24862 -2.2865,-0.564 -3.4375,-0.90625 l -0.4062,3.5 c -7.3596,-2.351 -13.77,-6.8568 -16.219,-11.031 0.75269,-18.085 1.8739,-35.924 3.625,-53.344 7.1022,4.0916 15.416,5.1372 23.469,5.5 8.552,0.05264 17.46,-1.0948 24.719,-5.9062 z m -6.625,13 c -1.7291,1.7211 -2.4447,4.3734 -2.8125,6.8125 l 0.9688,8.9062 -2.25,1.0625 0.7812,3.7188 c 1.5518,-0.14491 2.9136,-0.74149 4.1875,-1.5 l 0.7812,2.5625 c -0.05057,0.56381 4.7032,-1.014 6.875,-3.1875 l -0.8438,-2.9688 1.7812,-1.625 -1.0625,-4.5938 -2,1.25 -1.125,-9.1562 c -1.6215,-1.054 -3.3907,-1.2828 -5.2812,-1.2812 z m -31.562,0.8438 c -1.7276,1.0334 -2.6215,-0.57352 -5.25,3.3125 l -0.3438,8.1875 c -0.73495,-0.30973 -1.4743,-0.63792 -2.1875,-1 l -0.4375,4.5312 c 0.92006,0.72099 0.71899,1.1664 3,1.9062 l -0.25,2.875 c 2.207,1.0639 4.7309,1.8107 7.6875,2.125 l -0.0625,-3.0938 c 1.4681,0.32903 2.9579,0.56681 4.5,0.5625 l 0.4062,-3.875 c -0.79286,-0.09889 -1.5775,-0.22953 -2.3438,-0.375 l -0.125,-9.9688 c -0.74915,-2.4017 -2.5312,-3.8984 -4.5938,-5.1875 z m 33.562,0.125 c 1.1846,0.01398 1.3012,0.44978 2.375,1 l 1.4375,8.625 c -0.8008,0.81769 -1.6161,1.6161 -2.9062,1.7812 l -0.9062,-11.406 z m -34.875,0.9062 c 0.62996,3.8854 0.32395,7.7708 0.15625,11.656 -1.3734,0.15237 -2.3849,-0.60027 -3.4375,-1.25 l 0.3438,-7.875 c 0.88409,-1.0339 1.5887,-2.4268 2.9375,-2.5312 z m 32.156,0.4062 2.7188,10.656 c -0.95018,1.3429 -2.151,1.4324 -3.25,2.0312 l -0.5625,-8.1562 v -0.03125 c -0.01126,-1.9217 0.12057,-2.8838 1.0938,-4.5 z m -29.969,0.1562 c 1.4529,0.87836 2.0124,1.9478 2.7188,3.7188 l 0.125,9.1562 c -1.5332,-0.01699 -2.6922,-0.78232 -3.9062,-1.4375 0.16149,-3.8896 0.11311,-7.8631 1.0625,-11.438 z m 38.906,7.2188 0.6875,3.9062 c -0.50314,0.7393 -1.0002,1.4348 -1.7812,1.6562 -0.73058,0.20715 -1.5467,0.35131 -2.375,0.625 l -1,-2.5625 c 0.9983,-0.65891 1.894,-1.4349 2.625,-2.4375 l 1.8438,-1.1875 z m -47.094,2.2812 c 1.5474,0.7491 3.7435,2.2466 5.5312,2.5 0.09539,0.0362 0.18544,0.09005 0.28125,0.125 l -0.4688,3.3438 c -1.7576,-0.55858 -4.146,-0.82326 -5.7812,-2 l 0.4375,-3.9688 z m 42.156,1.6562 0.875,2.375 c -2.1241,1.4112 -4.6257,3.6645 -7.1562,4.125 l -0.75,-3.0312 c 2.128,-1.138 4.3566,-1.5854 6.5,-3.1562 0.18296,-0.10111 0.35324,-0.20502 0.53125,-0.3125 z m -35.781,1.1875 c 0.45071,0.15185 0.91586,0.27969 1.375,0.40625 1.941,0.87917 4.2124,1.3082 6.0625,1.5938 l -0.3438,2.7812 c -2.3002,-0.10033 -5.3564,-0.89933 -7.6562,-1.5312 l 0.5625,-3.25 z m 39.75,1.0312 0.3438,2 c -0.64101,1.4348 -3.0296,3.0556 -5.6562,3.375 l -0.6875,-2.4375 c 1.1309,-0.71137 2.2096,-1.5155 3.3125,-2.2812 l 0.0625,-0.0312 v 0.03125 c 0.76733,-0.29082 1.6831,-0.38918 2.625,-0.65625 z m -43.594,2.0938 c 0.75309,0.22707 1.6922,0.48426 3,0.78125 1.1572,0.2943 2.3072,0.59991 3.4688,0.875 l 0.1562,2.75 c -1.9911,-0.31344 -5.0077,-1.0591 -6.875,-1.9062 l 0.25,-2.5 z m 26.531,1.9688 0.6562,2.75 v 0.1875 h 0.0625 l 0.7188,3 c -0.85621,-0.30074 -1.7219,-0.59817 -2.5938,-0.90625 -0.45081,0.29154 -0.88965,0.61916 -1.3125,0.9375 l -1.875,-4.8125 4.3438,-1.1562 z m 1.125,2.9688 2.3125,0.0625 0.125,3.6875 c -0.61991,-0.24103 -1.2462,-0.46508 -1.875,-0.6875 z m -5.0312,1.4062 0.6875,2.1562 c -0.40142,0.32823 -0.77826,0.68065 -1.1562,1.0312 l -1.7188,-2.25 2.1875,-0.9375 z m 2.9688,1.25 c 0.03156,-0.0058 0.06235,0.0045 0.09375,0 6.2884,1.5318 8.5643,4.1535 12.188,6.4062 1.537,4.9818 3.1393,10.143 3.875,15.438 -0.5438,0.34596 -1.086,0.68084 -1.6562,1 l -3.9688,-15.25 c -2.5264,-3.0999 -6.1298,-4.412 -9.7812,-5.6875 -3.3708,1.9002 -5.3583,4.4686 -6.7188,8.0312 l -1.4375,17.969 c -0.80103,0.0272 -1.5977,0.0132 -2.4062,-0.0312 -0.19735,-6.2926 -0.05977,-12.458 1.0312,-18.688 2.259,-3.7316 5.5447,-6.9632 8.7188,-9.1562 0.02235,-0.0048 0.0402,-0.02715 0.0625,-0.03125 z m 0.875,3.0312 c 0.88891,0.37046 1.7856,0.59163 2.6562,0.8125 l 0.25,2.6562 c -0.90871,0.08241 -1.8136,0.19843 -2.7188,0.3125 l -0.2812,-3.6562 h -0.09375 c 0.06256,-0.04325 0.12478,-0.08131 0.1875,-0.125 z m -1.0625,0.75 0.25,3.125 c -1.2406,0.1482 -2.5449,0.3187 -3.0625,0.375 l -0.0312,-1.0312 c 0.83873,-1.0183 1.8165,-1.7528 2.8438,-2.4688 z m 4.75,0.3438 c 0.30888,0.08679 0.60863,0.17484 0.90625,0.28125 0.87179,0.31171 1.6965,0.73774 2.4688,1.4375 -1.0314,0.23611 -2.032,0.45975 -3.1562,0.53125 l -0.2188,-2.25 z m 3.9375,2.3125 c 0.37557,0.42798 0.74252,0.91556 1.0938,1.5312 l 0.5312,2 -1.2188,0.125 c -0.02223,-0.19568 -0.04144,-0.46994 -0.0625,-0.65625 -0.10757,-0.95165 -0.2188,-1.777 -0.28125,-2.4062 -0.03129,-0.31527 -0.04687,-0.38901 -0.0625,-0.59375 z m -0.9375,0.5938 c 0.0043,0.04389 -0.0046,0.04737 0,0.09375 0.06323,0.6372 0.17338,1.4833 0.28125,2.4375 0.02122,0.18767 0.04013,0.45987 0.0625,0.65625 l -2.7188,0.3125 -0.3125,-3.1562 c 1.1388,-0.1396 2.3589,-0.30271 2.6875,-0.34375 z m -3.6875,0.4375 0.3125,3.1875 -2.8438,0.3438 -0.2188,-3.1875 c 0.91792,-0.1049 1.8341,-0.22323 2.75,-0.34375 z m -7.8438,0.1875 0.125,3.9375 -1.3125,0.1562 0.1562,-1.5625 c 0.27354,-0.99818 0.63589,-1.8159 1.0312,-2.5312 z m 4.0938,0.2812 0.2188,3.1562 -3.1875,0.375 -0.125,-3.1875 c 0.54504,-0.05746 1.8652,-0.19802 3.0938,-0.34375 z m 10.25,3 0.875,3.4062 -1.7812,0.375 c -0.15252,-1.281 -0.30554,-2.473 -0.4375,-3.625 l 1.3438,-0.1562 z m -2.3438,0.2812 c 0.13491,1.1713 0.28144,2.3838 0.4375,3.6875 l -2.8125,0.5625 -0.375,-3.9375 z m -3.75,0.4375 0.375,4 -2.9062,0.5625 -0.3125,-4.2188 2.8438,-0.3438 z m -3.8438,0.4688 0.3125,4.2812 -3.375,0.6562 -0.1562,-4.5625 3.2188,-0.375 z m -4.2188,0.5 0.1562,4.6562 -2.0625,0.4062 0.4688,-4.9062 z m 21.375,2.625 0.75,2 c -0.69753,0.46853 -1.3962,0.89587 -2.0938,1.3438 l -0.6562,-2.3125 0.0312,0.0312 z m -6.0938,0.0938 1.0938,4.0938 -2.5,0.5 c -0.17316,-1.4067 -0.3473,-2.8138 -0.53125,-4.2188 l 1.9375,-0.375 z m 9.1875,0.5 0.5312,1.9688 c -1.2496,1.2609 -2.6596,2.4273 -4.1875,3.4688 l -0.6562,-2.3125 c 1.4742,-0.86725 2.9488,-1.7049 4.3125,-3.125 z m -12.094,0.0625 c 0.15511,1.4087 0.35002,2.8132 0.53125,4.2188 l -2.9688,0.5938 -0.4062,-4.25 2.8438,-0.5625 z m -3.8438,0.75 0.4062,4.25 -3.0312,0.5938 -0.3125,-4.2812 2.9375,-0.5625 z m -3.9375,0.75 0.3125,4.3125 -3.5625,0.7188 -0.1562,-4.375 3.4062,-0.6562 z m -4.4062,0.875 0.1875,4.3438 -2.8125,0.5625 0.5625,-4.3438 z m 16.438,2.125 0.5,1.875 c -0.91594,0.28718 -1.8668,0.5735 -2.8438,0.84375 -0.05905,-0.46542 -0.18133,-1.3928 -0.28125,-2.1875 l 2.625,-0.5312 z m -3.5938,0.7188 c 0.1025,0.8187 0.22379,1.8259 0.28125,2.2812 -0.98249,0.26188 -2.0116,0.50458 -3.0312,0.75 l -0.25,-2.4375 3,-0.5938 z m -22.969,0.1875 3.1875,0.7812 c -0.03776,0.70903 -0.09104,1.416 -0.125,2.125 -1.0707,-0.0558 -2.1514,-0.21438 -3.25,-0.4375 l 0.1875,-2.4688 z m 18.969,0.625 0.25,2.4375 c -1.028,0.24007 -2.0508,0.46378 -3.0938,0.6875 l -0.1875,-2.5312 3.0312,-0.5938 z m -4.0312,0.8125 0.1875,2.5312 c -1.2383,0.25911 -2.4616,0.51372 -3.6875,0.75 l -0.0938,-2.5625 3.5938,-0.7188 z m -18.656,0.5625 c 2.2575,0.76302 4.5237,1.1809 6.7812,1.5 -0.04656,0.98719 -0.1085,1.983 -0.15625,2.9688 -2.3018,-0.2052 -4.6165,-0.6699 -6.8438,-1.3438 l 0.2188,-3.125 z m 14.062,0.3438 0.0938,2.5625 c -1.0725,0.2026 -2.1512,0.40874 -3.1875,0.59375 -0.03376,0.006 -0.06236,0.0209 -0.09375,0.0312 l 0.1562,-2.5312 3.0312,-0.6562 z" />
  </g>
</svg>
