<?xml version="1.0" encoding="UTF-8" standalone="no"?>
<svg
   xmlns:dc="http://purl.org/dc/elements/1.1/"
   xmlns:cc="http://creativecommons.org/ns#"
   xmlns:rdf="http://www.w3.org/1999/02/22-rdf-syntax-ns#"
   xmlns:svg="http://www.w3.org/2000/svg"
   xmlns="http://www.w3.org/2000/svg"
   xmlns:sodipodi="http://sodipodi.sourceforge.net/DTD/sodipodi-0.dtd"
   xmlns:inkscape="http://www.inkscape.org/namespaces/inkscape"
   inkscape:version="1.0 (4035a4fb49, 2020-05-01)"
   sodipodi:docname="urbo.svg"
   enable-background="new 0 0 2654 1081.998"
   viewBox="0 0 2654 1081.998"
   y="0px"
   x="0px"
   id="Layer_1"
   version="1.1">
  <metadata
     id="metadata1101">
    <rdf:RDF>
      <cc:Work
         rdf:about="">
        <dc:format>image/svg+xml</dc:format>
        <dc:type
           rdf:resource="http://purl.org/dc/dcmitype/StillImage" />
        <dc:title></dc:title>
      </cc:Work>
    </rdf:RDF>
  </metadata>
  <defs
     id="defs1099" />
  <sodipodi:namedview
     inkscape:current-layer="Layer_1"
     inkscape:window-maximized="1"
     inkscape:window-y="0"
     inkscape:window-x="0"
     inkscape:cy="498.08145"
     inkscape:cx="1318.6109"
     inkscape:zoom="0.45084678"
     showgrid="false"
     id="namedview1097"
     inkscape:window-height="1016"
     inkscape:window-width="1920"
     inkscape:pageshadow="2"
     inkscape:pageopacity="0"
     guidetolerance="10"
     gridtolerance="10"
     objecttolerance="10"
     borderopacity="1"
     bordercolor="#666666"
     pagecolor="#ffffff" />
  <path
     style="fill:#fb8b24;fill-opacity:1"
     id="path1094"
     d="M2574.653,690.673c-1.533,2.6-4.213,4.147-6.347,6.173c-3.987,3.453-5,8.96-8.28,12.96 c-1.813,1.987-1.587,4.787-1.933,7.267c-1.48,0.307-2.96,0.6-4.386,0.933c0-0.001-1.76-114.293-1.76-114.293 c-2.92-0.653-5.866-0.933-8.827-0.84c-1.853-3.613-2.187-7.707-1.68-11.667c0.96-7.787-1.053-15.573,0.267-23.333 c-1.533-0.04-3.027-0.067-4.493-0.08c1.386-1.56,3.04-2.947,4.147-4.747c-0.08-4.56-0.2-9.133,0.773-13.627 c1.12-5.187-1.386-10.307-0.507-15.507c1.187-6.933-0.653-13.973,0.36-20.907c1.733-6.147,2.88-12.92,1.6-19.147 c-0.56,2.28-0.293,4.893-1.813,6.853c-3.373-6.093-1.973-14.747,3.56-19.213c0.093-11.107,0.6-22.333-1.106-33.373 c-1.56-9.907,1.16-20.093-1.16-29.893c0.68-5.92,0.533-11.88,0.96-17.813c-0.533-0.027-1.626-0.08-2.16-0.107 c2.081-8.348,0.003-23.551,1.547-27.08c0.293-1.627,1.427-3.2,1.067-4.893c-2.2-7.533,1.027-15.68-2.893-22.88 c0.573-5.067,1.173-10.28,3.04-15.133c-3.667-1.853-7.747-1.24-11.653-1.493c-5.387-1.053-9.307-6.68-15.24-5.347 c-12.92,2.573-26.147,2.373-39.253,3.333c-1.533,1.76-3.12,3.453-4.773,5.08c-0.227-0.667-0.68-2.013-0.907-2.68 c-3.573-0.133-6.773-1.587-9.987-2.893c-6.333-0.32-13,0.68-18.586-3.053c-3.813,1.813-7.84,3.52-12.067,2.08 c0.387,1.16,0.8,2.32,1.253,3.493c-3.333-1.12-6.653-2.84-10.24-2.68c-5.939,1.79-5.417,5.02-15.2,0.6 c-0.933,0.867-1.867,1.72-2.76,2.573c-0.263,6.733-1.653,73.613-1.653,73.613c3.36,9.16,1.92,19.013,2.013,28.533 c-4.84-0.2-9.693,0.267-14.48-0.493c-4.24,7.413-15.547-1.053-19.813,6.32c-0.854,6.536,0.011,35.937-0.68,39.187 c-1.467,6.56-1,13.32-0.293,19.947c-3.2,2.52-7.44,5.133-7.107,9.8c-0.903,38.381,3.533,352.446,4.72,410.067 c-9.733,0.493-19.187-4.427-28.853-2.587c0-0.001-1.493-91.466-1.493-91.467c-4.173-1.36-8.587-1.787-12.667-3.373 c-1.64-2.013-1.08-4.787-1.28-7.16c-3.293-0.587-6.573-1.067-9.88-1.16c-0.347-23.84,0.48-47.733-0.894-71.52 c-1.187-2.027-3.533-3.587-3.187-6.187c-0.16-5.213,0.2-10.413-0.173-15.613c-2-1.92-3.92-3.893-5.773-5.92 c0.88-5.907-2.573-11.253-2.133-17.107c0.133-18.213-1.04-36.413-1.413-54.6c-4.387-8.253-1.853-17.76-2.587-26.68 c-3.893-0.067-7.76-0.147-11.613-0.28c-0.747-4.133-0.84-9.347-5.013-11.6c0.447-5.92-7.871-25.725-9.293-28.547 c-0.84,2.453-1.64,4.92-2.507,7.373c-2.707-3.867-3.813-8.52-5.8-12.72c-7.237,14.915-4.28,23.898-13.934,32.813 c0.067,2.573,0.107,5.147,0.16,7.733c-2.813-0.48-5.387-1.653-7.987-2.667c-3.386,1.387-6.76,2.907-10.507,2.813 c-0.386,11.64,0.213,23.293-0.24,34.933c-109.59-2.764-106.845-2.355-122.427-3.813c-3.507,5.173-9.987,8.853-10.453,15.627 c1.125,34.206-0.863,120.603,1.04,168.907c0.323,57.039,1.656,52.873-5.533,55.4c-2.533-0.84-4.4-3.28-6.053-5.267 c-3.227-21.813-0.813-43.973-2.333-65.907c-2.613-0.133-5.2-0.253-7.773-0.36c-0.12-0.613-0.36-1.84-0.48-2.467 c-1.8-0.107-3.587-0.213-5.333-0.307c0.854-4.267,0.88-8.653-0.8-12.72c-7.427-0.387-14.88,1.267-22.227-0.533 c-4.71-82.596-7.453-415.96-7.453-415.96c-0.613,2.493,0.227,5.76-1.933,7.6c0,0-0.055-99.049-0.147-106.187 c-0.947-7.027-1.653-14.093-1.253-21.2c-4.24-2.36-9.32-1.24-13.853-2.6c-4.467-1.307-0.547-7.76-1.96-8.227 c-0.587-1.68-1.133-3.347-1.72-5c-1.4,0.227-3.427-8.427-2.547-13.24c-6.893-3.28-14.6-3.6-21.973-4.933 c-3.853-14-9.333-27.493-12.813-41.6c-1.413-6.093-0.68-12.573-2.973-18.48c-0.84-1.707-3.173-1.667-4.626-2.533 c-0.307-6.347-0.653-12.747,0.04-19.053c1.2-1.813,2.68-3.44,4.013-5.173c-1.453,0-2.88,0.013-4.293,0.04 c0.101-24.309-0.69-18.962,2.467-24.653c-1.04-1.107-2.133-2.173-2.947-3.427c-2.306-19.607,1.087-19.423,3.413-23.293 c-1.693-0.92-4.24-1.587-4.067-4c-0.053-7.4-1.96-15.773,2.787-22.187c-0.747,0.12-2.24,0.347-2.987,0.467 c-0.133-9.08-0.173-18.173,0.88-27.213c-2.067,0.067-4.067,0.48-6.013,1.027c2.133,9.067,2.253,18.6-0.36,27.573 c2.4,6.533,1.467,13.587,1.48,20.4c0.094,2.04-1.2,3.68-2.173,5.333c0.973,1.653,2.267,3.293,2.173,5.333 c0.187,5.987,0.227,12-0.28,17.973c-1.213,0.76-2.4,1.547-3.56,2.333c1.173,0.987,2.373,1.96,3.613,2.947 c0.52,7.173,0.133,14.36,0.32,21.547c-1.547-0.173-3.08-0.333-4.587-0.467c1.347,1.88,2.92,3.587,4.347,5.44 c0.333,5.147-0.093,10.32,0.12,15.493c0.84,4.76-6.4,5.653-5.48,10.573c0.697,11.223-10.381,54.034-10.987,55.76 c-8.374,0.627-17.573,0.973-24.613,6.053c-2.507,1.427-0.507,4.107,0.133,6.053c-1.107,3.08-2.213,6.147-3.427,9.187 c-1.813,0.72-3.6,1.467-5.373,2.173c0,1.173,0.04,2.36,0.08,3.533c-4.24,1.227-8.68,1.587-12.88,2.907 c-0.12,39.947-0.093,79.907-0.08,119.867c0.748,19.87-4.457,82.927,0.827,109.467c4.478,65.959,2.113,169.911,3.96,203.84 c-10.253,3.453-20.787-0.627-31.173,0.507c-2.813-0.093-5.2-1.88-7.76-2.827c-5.751,5.699-14.082,2.765-44.427,3.72 c-0.848,69.594,1.856,68.917,1.173,146.493c-4.32,0.213-8.64,0.227-12.933,0.027c-0.293-2.893-0.72-5.747-1.48-8.533 c-7.493,0.413-15.013,1.027-22.48,0.227c-0.92-9.2,0.027-18.44-0.467-27.653c-0.693-10.213-2.533-20.36-2.467-30.627 c0.133-7.747-0.693-15.547-2.267-23.107c-3.733-1.8-8.36-0.573-12.427-1.013c-0.253-15.52,0.187-31.067-0.387-46.587 c-0.32-4.04-2.133-7.84-2.146-11.907c0.696-197.834-5.152-139.006,9.293-171.587c-3.253-0.52-6.467-1.16-9.613-2.027 c3.813-10.467-0.133-21.653,2.267-32.36c1.16-5.133,3.853-10.027,3.147-15.44c-0.84-7.973,0.467-15.947-0.027-23.933 c-4.698-0.222-9.396-0.2-14.069-0.149c-0.091-0.059-0.187-0.113-0.28-0.169c-0.233-2.231,0.025-4.612-1.171-6.588 c-0.313,1.887-0.491,3.785-0.621,5.692c-1.762-0.703-6.476-2.003-11.91-2.676c0.351-0.058,0.698-0.121,1.051-0.176 c-5.32-4.413-0.053-10.453,0.16-15.867c-2.133-0.107-4.253-0.227-6.347-0.333c-0.28-6.293,0.147-12.6-0.24-18.893 c-3.427,5.2-4.933,11.36-5.867,17.44c-6,0-12.027,0.04-17.96,1.027c0.013-3.56-0.053-7.12-0.227-10.667 c-9.157-5.366-2.497,8.111-4.893-56.693c-3.573-0.04-7.12,0.067-10.64,0.573c1.547-2.467,0.92-5.173-0.32-7.613 c-1.693-0.04-3.373-0.093-5.013-0.133c-2.104-17.789,3.374-12.819-0.92-31.333c0.235-29.583,1.125-34.442-1.133-40.893 c-2.24-7.213,0.293-14.72-0.613-22.053c-0.32-6.693-1.587-13.973,2.373-19.907c0.08-2.907-3.307-2.293-5.213-2.893 c0.85,17.166-2.293,36.601-2.293,76.32c0,4.667,0.92,9.507-0.947,13.973c-1.293,0.347-2.573,0.693-3.813,1.053 c-0.533,2.827-1.307,5.587-2.094,8.36c1.573,0.827,3.16,1.68,4.773,2.52c4.011,26.89,2.148,25.009-5.267,27.173 c-2.267-0.387-4.28-1.573-6.347-2.427c-0.062,0.219-0.111,0.441-0.164,0.661c-2.816-1.27-5.228-0.766-8.763-1.87 c0,0-2.065-0.775-4.681-2.391c-1.412-0.873-3.112-1.074-4.775-0.785c-0.164-0.369-0.34-0.733-0.51-1.082 c-0.84,0.067-2.507,0.187-3.347,0.253c-9.973,17.48-14.88,37.067-21.12,56.027c-3.747-4.933,0.347-13.187-5.867-16.467 c-2.653,5.653-1.187,11.947-1.96,17.933c-0.48,5.493-2.147,10.84-2.227,16.387c1.573,0.747,3.173,1.52,4.787,2.293 c-2.667,7.707-0.133,15.76-0.84,23.667c-0.813,6.28,2.56,12.12,1.8,18.373c-0.006,0.063,0.209,87.192,0.12,91.347 c-1.333,14.6,3.92,30.693-4.053,44.053c-3.573,4.507-2.013,10.493-3.267,15.707c-2.48-1.213-3.88-3.627-5.413-5.773 c-0.32,1.453-0.613,2.92-0.893,4.387c-1.293,0.587-2.573,1.173-3.84,1.76c-0.067,3.507,1.96,5.947,4.64,7.973 c0.104,4.658,1.076,98.314-0.32,105.76c-3.56,0.187-7.28-0.12-10.533-1.64c-5.967-9.27-5.247-9.112-2.84-16.333 c-0.733-0.227-2.213-0.68-2.947-0.92c-0.267-2.76-0.36-5.533-0.787-8.253c-3.227-3.027-8.56-6.133-12.693-2.933 c-5.453,1.853-4.307,8.333-6.906,12.453c0.08,3.067,1.213,6.093,0.667,9.227c-2.48,0.573-4.947,1.107-7.413,1.627 c-1.213-8.133-1.667-16.387-3.187-24.467c-1.787-3.533-4.933-6.667-4.4-10.947c-0.8-7.093,2.333-14.08,1.013-21.08 c-0.667,0.693-2.013,2.093-2.68,2.787c0-22.253-0.067-44.507-0.133-66.747c-2.107-1.707-4.253-3.347-6.44-4.907 c-2.871-22.665,2.648-10.986-1.573-47.253c-0.893-2.107-2.68-3.64-3.707-5.667c1.467-1.04,4.32-1.413,4.093-3.813 c-0.347-2.373-3.4-2.64-5.053-3.76c-0.08-0.547-0.253-1.627-0.333-2.173c1.693-0.36,3.413-0.707,5.147-1.053 c-2.259-52.685-0.151-81.875-1.173-107.733c-7.64-0.52-15.28-0.173-22.92-0.413c-4.067-0.04-7.747-2.293-11.813-2.253 c-6.08-0.2-12.2,0.44-18.213-0.6c-10.947-1.893-22.133,0.44-33.067-1.573c-12.573-1.48-25.32,0.653-37.84-1.533 c-0.333,0.373-1.013,1.12-1.36,1.493c0,0,2.173,125.318,2.173,125.32c-7.973-0.627-15.987-0.707-23.96-0.133 c0.187,35.44,0.267,70.92,0.04,106.36c-6.2-0.293-12.4-0.56-18.6-0.32c-7.333,0.253-14.48-2.587-21.813-1.507 c-11.08,1.453-22.32-0.627-33.373,1.267c-5.013,0.813-10.12,0.72-15.173,0.293c-0.76-24.093,0.453-48.253-0.693-72.32 c-4.707-2.373-7.667-6.813-11.707-10.027c-3.8-3.84-8.133-7.08-12.28-10.52c-27.951-1.454-21.425,2.084-64.84,1.04 c-0.332-54.543,0.347-122.144-0.547-137.293c-0.347,2.253-0.707,4.493-1.12,6.747c-2.36-2.907-2.587-7.84-6.707-8.92 c-2.24-0.795-16.025-8.059-21.6-11.707c-0.64,1.293-1.267,2.587-1.88,3.893c-1.307-2.24-1.4-5.76-4.32-6.507 c-3.88-1.493-7.707-3.2-11.053-5.693c-6.08-4.533-13.373-6.947-19.76-10.933c-2.213-0.92-1.413-3.573-1.72-5.413 c0.133-3.067-2.307-5.147-4.333-7.027c-0.08,0.973-0.253,2.933-0.333,3.92c-2.573-1.307-5.627-1.4-7.96-3.187 c-0.56,2.507-1.187,5-1.76,7.507c-18.814,4.299-40.729-2.834-51.507,6.2c-4.805-2.901-6.157-4.294-36.973-1.853 c-1.821,11.192-1.731,280.795-1.653,283.787c0.387,3.813-2.707,6.787-2.84,10.493c-0.187,5.027,0.147,10.067-0.173,15.093 c-6.107-0.867-4.893-7.733-5.413-12.227c-5.871-3.102-1.66-0.878-21.613-2.147c-0.987,4.533-0.187,10.04-3.973,13.453 c-2.493,1.16-5.413,1.347-7.653,2.987c-0.867,1.493-1.427,3.133-2.067,4.733c-1.44,0.067-2.88,0.12-4.293,0.173 c-0.8,1.773-1.587,3.547-2.32,5.36c-13.467,0.933-27.173-0.013-40.36,3.427c-0.507,10.973,0.213,21.96-0.307,32.947 c-22.279,0.926-34.974-0.851-45.413,1.667c-0.155,6.911,0.424,42.903-1.173,45.64c-4.885-1.716,0.085-6.838-5.293-16.467 c-2.853,2.627-6.16,4.987-10.093,3.04c-0.28-3.213,0.24-6.413,1.36-9.413c-8.853-14.907-14.08-31.547-21.653-47.08 c-4.402-8.78,0.584-70.62-2.48-73.547c-8.413-4.12-17.893-4.947-26.707-7.867c-1.003-101.466,1.296-93.991-3.213-101.253 c-0.64-9.867,0.44-20.16-3.387-29.52c-0.265-2.146-1.731-82.08-1.787-83.653c-0.107-4.012-7.011-41.118-7.173-42.133 c-2.587-4.84-9.24-0.693-12.653-4.707c-0.893-9.693,1.533-20-2.827-29.12c-2.253-4.867-2.053-10.36-3.12-15.52 c-1.293-4.493-7.427-5.733-8.04-10.587c-1.333-8.52-5.64-16.067-7.84-24.333c-1.627-3.84,0.307-7.92-0.107-11.867 c-0.48-2.987-1.627-5.813-2.693-8.613c-5.973,6.613-1.6,15.72-4.347,23.36c-1.173,5.067-5.093,9.067-5.733,14.307 c-0.68,4.347-2.04,8.547-3.053,12.827c-1.2-0.6-2.387-1.213-3.573-1.813c-0.653,0.253-1.947,0.76-2.587,1.013 c-0.253,4.307-0.107,8.787-2.12,12.733c-4.6,9.973-2.947,21.173-4.28,31.72c-2.613,4.413-8.147,2.12-12.213,2.227 c-1.746,5.126-2.56,29.592-6.187,38c-3.997,13.728-1.18,36.807-2.293,74.293c-4.375-2.168,1.637,4.071-48.04-53.72 c1.24-2.36,5.187-4.36,3.733-7.307c-24.66-12.95-23.757-4.385-34.507-8.427c-3.68-1.453-7.64-2.16-11.56-1.453 c-13.64,2.493-27.573,0.36-41.307,1.373c-4.467,1.533-9.067,2.56-13.813,2.707c1.32,2.56,3.12,4.813,5.013,6.987 c-11.627,11.68-24.32,22.227-35.92,33.933c-9.893-1.8-20.08-0.32-29.88-2.693c-0.147-3.493-0.267-6.987-0.373-10.48 c-2.907-0.067-5.813-0.027-8.707,0.16c-1.56,1.88-3.12,3.747-4.68,5.613c-2.16-1.68-2.453-4.48-3.093-6.933 c-2.747-0.187-5.493-0.213-8.24-0.107c-1.187,2.307-2.387,4.613-3.64,6.907c-2.36-0.573-2.747-2.987-3.373-4.947 c-2.76-0.613-5.587-0.827-8.413-0.773c-0.2,3.373-3.693,4.147-6.213,5.32c-0.36-1.693-0.707-3.387-1.027-5.08 c-2.947-0.227-5.973-1.373-8.893-0.76c-2.52,2.52-4.693,5.347-7.133,7.947c-8.518,3.184-6.641-4.325-24.307,7.653 c-0.333,8.787-0.027,17.573-0.16,26.373c-0.227,7.067,1.987,14.24-0.04,21.213c-26.584,0.903-18.907,1.486-36.493,8.893 c-3.653,1.627-7.547,2.893-10.813,5.267c-1.005,2.814-0.578,78.317-0.573,79.32c0.107,5.333-1.333,10.547-1.387,15.893 c-0.147,13.76,0.293,27.547-0.16,41.32c-4.293,0.413-8.627,0.427-12.933,0.2c-0.173,3.013-0.32,6.027-0.493,9.04 c-4.693,0.147-9.4,0.16-14.093,0.267c-0.707,6.173-1.933,12.307-1.733,18.56c-0.2,6,0.773,12.12-0.4,18.053 c-2.867,3.707-5.987,7.333-9.773,10.16c-0.453-6.747-0.547-13.507-0.36-20.267c-0.04-4.2,2.893-8.067,1.64-12.267 c-1.027-5.067-1.453-10.227-1.707-15.373c-2.467-0.227-4.92-0.44-7.387-0.653c-0.32-0.88-0.96-2.64-1.28-3.52 c-3.24,0.307-6.467,0.613-9.693,0.96c-0.187-1.613-0.373-3.2-0.547-4.787c-2.667,0.947-5.333,1.893-7.987,2.907 c-1.027-1.867-1.893-3.813-2.627-5.787c5.067-0.2,10.147,0.027,15.213-0.173c-1.227-1.733-3.72-0.987-5.507-1.493 c-2.147,0-3.307-2.08-4.92-3.133c-1.853-0.68-3.84-0.787-5.76-1.093c-0.663-20.653,1.499-114.024,1.027-176.707 c-3.987-0.533-8.12-0.853-11.56-3.147c-0.173-2.853-0.36-5.693-0.56-8.533c-1.627-1.2-3.267-2.387-4.893-3.573 c-0.16-3.747-0.04-7.507-0.413-11.24c-2.827-2.88-7.333-2.587-11.013-3.587c-0.32-0.627-0.973-1.88-1.307-2.507 c-6.72-0.947-13.52-0.707-20.267-1.173c-0.773-1.093-1.547-2.173-2.333-3.24c2.467-6.907,1.147-14.293,1.733-21.44 c-1.653-2.053-4.867-1.613-7.213-2.373c-0.426-11.304-3.33-7.601-14.667-7.027c-0.933,6.067-0.88,12.24-0.653,18.36 c0.04,4,4.227,7.013,2.893,11.187c-0.867,0.093-2.6,0.28-3.48,0.373c1.427,2.093,2.973,4.08,4.52,6.093 c-2.147,1.547-4.467-0.4-6.533-1.093c-9.829,4.798-8.215,4.87-8.467,14.627c-6.73,4.08-3.633-1.016-5.453,15.253 c-0.293,3.267-1.88,6.267-2.107,9.547c-2.713,56.117-2.813,159.88-2.813,159.88c-3.4,0.067-6.8,0.16-10.2,0.253 c-0.267,1.693-0.52,3.4-0.787,5.12c-4-0.36-7.973,0.28-11.933,0.627c-5.853-0.867-11.8-2.733-17.733-1.493 c-2.147,1.68-3.813,4.067-2.88,6.907c4.307,0.653,8.6,1.4,12.867,2.293c0.133,3.093,0.16,6.2,0.093,9.32 c-3.4-0.213-6.787-0.813-10.187-0.733c-3.787,0.813-7.2,3.093-11.173,3.08c-5.053,0.08-9.773,2.013-14.707,2.867 c-0.147-0.987-0.44-2.973-0.573-3.973c-5.053,5.253-0.067,12.16-0.653,18.333c-2.48,0.187-5,0.08-7.413,0.747 c-9.173,7.293-21.92,5.707-32.147,10.667c-0.107,2.347-0.213,4.707-0.32,7.067c2.987,0.28,5.96,0.56,8.947,0.907 c0.053,1.88,0.027,3.787-0.067,5.693c-2.24,0.173-4.76,1.493-6.733-0.187c-3.613-2.813-8.36-1.827-12.573-1.68 c-0.16,5.707,2.173,11.347,1,17.027c-37.259-0.159-27.842-4.558-47.013,5.373c-1.52,19.307-0.773,38.72-1.2,58.067 c-0.6,0.507-1.787,1.52-2.373,2.013c-0.4-3.707,0.56-7.813-0.893-11.267c-6.907-5.76-8.48-15.133-10.08-23.48 c-0.307-2.493-2.653-3.867-4.147-5.627c0.173-3.84,0.293-7.667,0.347-11.493c-1.667-1.2-3.093-3.253-5.387-3.013 c-2.387,0.04-4.093,2.027-6.027,3.173c0.253,4.413,0.347,8.84,0.64,13.267c-3.227-0.44-5.227,1.88-6.613,4.493v288.44h2560V679.033 C2596.011,677.319,2577.615,684.938,2574.653,690.673z" />
</svg>
