<?xml version="1.0" encoding="UTF-8" standalone="no"?>
<svg
   xmlns:dc="http://purl.org/dc/elements/1.1/"
   xmlns:cc="http://creativecommons.org/ns#"
   xmlns:rdf="http://www.w3.org/1999/02/22-rdf-syntax-ns#"
   xmlns:svg="http://www.w3.org/2000/svg"
   xmlns="http://www.w3.org/2000/svg"
   xmlns:sodipodi="http://sodipodi.sourceforge.net/DTD/sodipodi-0.dtd"
   xmlns:inkscape="http://www.inkscape.org/namespaces/inkscape"
   inkscape:version="1.0 (4035a4fb49, 2020-05-01)"
   sodipodi:docname="Åtelita.svg"
   id="svg4930"
   viewBox="0 0 63.981647 51.488251"
   height="51.488251"
   width="63.981647"
   version="1.1">
  <metadata
     id="metadata4936">
    <rdf:RDF>
      <cc:Work
         rdf:about="">
        <dc:format>image/svg+xml</dc:format>
        <dc:type
           rdf:resource="http://purl.org/dc/dcmitype/StillImage" />
        <dc:title></dc:title>
      </cc:Work>
    </rdf:RDF>
  </metadata>
  <defs
     id="defs4934" />
  <sodipodi:namedview
     fit-margin-bottom="4"
     fit-margin-right="4"
     fit-margin-left="4"
     lock-margins="true"
     fit-margin-top="4"
     inkscape:current-layer="svg4930"
     inkscape:window-maximized="1"
     inkscape:window-y="0"
     inkscape:window-x="0"
     inkscape:cy="26.945094"
     inkscape:cx="46.993835"
     inkscape:zoom="8.0954326"
     showgrid="false"
     id="namedview4932"
     inkscape:window-height="1016"
     inkscape:window-width="1920"
     inkscape:pageshadow="2"
     inkscape:pageopacity="0"
     guidetolerance="10"
     gridtolerance="10"
     objecttolerance="10"
     borderopacity="1"
     bordercolor="#666666"
     pagecolor="#ffffff" />
  <g
     transform="translate(-247.85689,-569.31373)"
     style="fill:#e36414;fill-opacity:1;stroke-linejoin:miter"
     id="g4783" />
  <g
     transform="translate(-247.85689,-569.31373)"
     style="fill:#e36414;fill-opacity:1;stroke-linejoin:miter"
     id="g4785" />
  <g
     transform="translate(-247.85689,-569.31373)"
     style="fill:#e36414;fill-opacity:1;stroke-linejoin:miter"
     id="g4787" />
  <g
     transform="translate(-247.85689,-569.31373)"
     style="fill:#e36414;fill-opacity:1;stroke-linejoin:miter"
     id="g4789" />
  <g
     transform="translate(-247.85689,-569.31373)"
     style="fill:#e36414;fill-opacity:1;stroke-linejoin:miter"
     id="g4791" />
  <g
     transform="translate(-247.85689,-569.31373)"
     style="fill:#e36414;fill-opacity:1;stroke-linejoin:miter"
     id="g4793" />
  <g
     transform="translate(-247.85689,-569.31373)"
     style="fill:#e36414;fill-opacity:1;stroke-linejoin:miter"
     id="g4795" />
  <g
     transform="translate(-247.85689,-569.31373)"
     style="fill:#e36414;fill-opacity:1;stroke-linejoin:miter"
     id="g4797" />
  <g
     transform="translate(-247.85689,-569.31373)"
     style="fill:#e36414;fill-opacity:1;stroke-linejoin:miter"
     id="g4799" />
  <g
     transform="translate(-247.85689,-569.31373)"
     style="fill:#e36414;fill-opacity:1;stroke-linejoin:miter"
     id="g4801" />
  <g
     transform="translate(-247.85689,-569.31373)"
     style="fill:#e36414;fill-opacity:1;stroke-linejoin:miter"
     id="g4803" />
  <g
     transform="translate(-247.85689,-569.31373)"
     style="fill:#e36414;fill-opacity:1;stroke-linejoin:miter"
     id="g4805" />
  <g
     transform="translate(-247.85689,-569.31373)"
     style="fill:#e36414;fill-opacity:1;stroke-linejoin:miter"
     id="g4807" />
  <g
     transform="translate(-247.85689,-569.31373)"
     style="fill:#e36414;fill-opacity:1;stroke-linejoin:miter"
     id="g4809" />
  <g
     transform="translate(-247.85689,-569.31373)"
     style="fill:#e36414;fill-opacity:1;stroke-linejoin:miter"
     id="g4811" />
  <g
     transform="translate(-247.85689,-569.31373)"
     style="fill:#e36414;fill-opacity:1;stroke-linejoin:miter"
     id="g4813" />
  <g
     transform="translate(-247.85689,-569.31373)"
     style="fill:#e36414;fill-opacity:1;stroke-linejoin:miter"
     id="g4817">
    <path
       style="fill:#e36414;fill-opacity:1"
       d="m 272.31516,580.4212 c 0.008,0 0.0215,7.4e-4 0.0386,0.002 l 0.006,6.5e-4 0.001,-5e-4 0.009,10e-4 c 0.0415,0.005 0.0563,0.011 0.0322,0.0118 -0.002,1.5e-4 -0.004,2e-4 -0.007,2e-4 -0.01,-5e-5 -0.022,-8e-4 -0.0341,-0.002 l -0.0116,-10e-4 c -0.013,-0.002 -0.0254,-0.004 -0.0358,-0.007 -0.0137,-0.004 -0.0124,-0.006 10e-4,-0.006 z m -4.6774,0.18116 c 0.008,0 0.0207,8.4e-4 0.0362,0.002 10e-4,2.5e-4 0.002,3.5e-4 0.004,3.5e-4 h 8e-4 c 3.3e-4,1e-4 6.7e-4,1e-4 10e-4,1e-4 3.4e-4,0 7.1e-4,0 0.001,-1e-4 l 0.01,0.001 c 0.0414,0.005 0.0562,0.0104 0.0321,0.0112 -0.004,4e-4 -0.008,5.6e-4 -0.0119,6e-4 -0.009,-4e-5 -0.0188,-6.5e-4 -0.0288,-0.001 l -0.0117,-10e-4 c -0.0129,-0.002 -0.0255,-0.005 -0.0357,-0.007 -0.0139,-0.004 -0.0123,-0.006 0.002,-0.006 z m 16.15619,2.96618 -4e-4,0.53241 h -0.003 c -0.0192,0.0169 -0.0394,0.0299 -0.0586,0.0364 -0.01,0.003 -0.0187,0.005 -0.0266,0.005 -0.10138,0 -0.0517,-0.27026 0.0857,-0.57392 z m 20.60025,-5.41164 v 7.39406 h -17.31046 v -7.39406 z m -20.60285,8.825 -1.5e-4,0.20993 c -0.14423,-0.0288 -0.21924,-0.0568 -0.1673,-0.0666 0.0523,-0.0106 0.11273,-0.0678 0.1646,-0.1433 z m -25.05362,5.9721 c 0.0718,0 0.0786,0.0562 0.0493,0.16526 -0.0471,0.16584 0.0158,1.70874 0.0785,1.93384 0.0181,0.0758 -0.003,0.1235 -0.063,0.1235 -10e-4,0 -0.002,0 -0.004,-10e-5 -0.12537,-0.004 -0.51627,-0.21153 -0.56913,-0.3038 -0.0196,-0.0425 -0.16995,-0.13784 -0.32775,-0.2195 -0.46012,-0.2237 -0.94501,-0.5458 -1.00375,-0.67316 -0.0529,-0.0923 0.0258,-0.15259 0.38018,-0.33661 0.24796,-0.12469 0.6518,-0.32806 0.90695,-0.45947 0.30014,-0.15503 0.46955,-0.22996 0.5524,-0.22996 z m 45.65647,-5.0644 3e-5,8.33776 h -17.31049 v -8.33776 z m -33.75065,5.56865 c 0.0348,10e-4 0.14322,0.10215 0.25791,0.22431 0.1077,0.12194 0.35164,0.34574 0.54208,0.49824 0.19043,0.1524 0.38736,0.31896 0.44136,0.37645 0.52007,0.53235 3.36766,2.21192 4.72994,2.79175 0.54428,0.2282 0.77041,0.4265 0.48892,0.4265 -0.007,0 -0.0139,-10e-5 -0.0212,-3.5e-4 -0.003,-1.5e-4 -0.006,-1.5e-4 -0.009,-1.5e-4 -0.30219,0 -1.50543,0.41055 -2.42938,0.83663 -1.08222,0.48877 -1.38745,0.66047 -3.07343,1.7229 -0.61789,0.39797 -1.16379,0.71491 -1.20762,0.71491 h -2.6e-4 c -0.11841,-0.004 -0.21521,-0.25079 -0.20688,-0.5155 0.006,-0.20204 -0.0465,-0.29434 -0.30371,-0.53949 -0.27713,-0.25755 -0.45965,-0.33258 -0.89835,-0.33258 -0.0652,0 -0.13617,0.002 -0.2139,0.005 -0.005,6e-4 -0.011,9e-4 -0.0165,9e-4 -0.0936,0 -0.19697,-0.0863 -0.3106,-0.24125 -0.14687,-0.20685 -0.18382,-0.36145 -0.22762,-0.9624 l -0.047,-0.71965 0.24362,-0.2085 c 0.38714,-0.33644 0.74316,-0.7924 0.88605,-1.1225 0.0752,-0.172 0.16519,-0.59444 0.20425,-0.94887 0.0596,-0.56286 0.0907,-0.66643 0.25622,-0.82863 0.1008,-0.10136 0.34076,-0.41453 0.5237,-0.68766 0.1824,-0.26569 0.3634,-0.48969 0.3918,-0.48969 z m 33.75068,7.75135 v 12.1946 0.0689 h -17.31049 v -12.2635 z m -20.5925,-27.89527 -0.007,9.15082 h -0.003 c -0.10093,0.0617 -0.20987,0.10415 -0.25897,0.10415 -8.2e-4,0 -0.002,-10e-5 -0.002,-10e-5 -10e-4,-5e-5 -0.003,-5e-5 -0.004,-5e-5 -0.18411,0 -0.65805,0.37921 -0.89731,0.72465 l -0.2341,0.3482 -0.0186,1.03134 c -0.0138,1.10126 -0.10296,1.49586 -0.45443,2.02863 -0.16138,0.25293 -0.70435,1.33053 -0.707,1.41403 -8.6e-4,0.0279 -0.24958,0.3966 -0.54856,0.81247 -0.29919,0.42283 -0.54897,0.82633 -0.55142,0.90293 -0.002,0.0767 -0.0987,0.2549 -0.22192,0.40444 -0.11606,0.14276 -0.26395,0.41006 -0.33213,0.58216 -0.0913,0.2412 -0.17095,0.3363 -0.3619,0.4209 -0.1981,0.0914 -0.24863,0.14556 -0.25388,0.31274 -0.01,0.31346 -0.19852,0.7677 -0.5509,1.3283 -0.17597,0.27336 -0.34494,0.54696 -0.37458,0.60176 -0.18536,0.36297 -0.75714,1.0886 -0.85647,1.0886 h -6.1e-4 c -0.0418,-10e-4 -0.18521,-0.0965 -0.32123,-0.2054 -0.1358,-0.1158 -0.66923,-0.4464 -1.18983,-0.74173 -0.6902,-0.38157 -1.2878,-0.78917 -1.84386,-1.26077 h -0.003 q -1.02918,-1.8844 -1.7031,-2.58133 -0.79822,-0.8678 -2.00226,-1.29757 h -0.003 c 0.0591,-0.018 0.11469,-0.0271 0.16935,-0.0287 0.003,-3.3e-4 0.007,-3e-4 0.01,-3.3e-4 0.01,0 0.0203,4.3e-4 0.0312,10e-4 l 0.0103,10e-4 c 0.1947,0.0239 0.55853,0.19361 1.02263,0.47889 0.40126,0.24816 0.58168,0.34446 0.7322,0.36286 l 0.0107,10e-4 c 0.0151,10e-4 0.03,0.002 0.0448,0.002 0.0382,-1.7e-4 0.0761,-0.005 0.11697,-0.0134 0.23664,-0.0456 0.38291,-0.229 0.45502,-0.57204 0.047,-0.22154 0.0653,-0.2454 0.19483,-0.26713 0.0563,-0.01 0.0901,-0.0301 0.10937,-0.0619 0.0361,-0.0595 0.0591,-0.2597 0.0393,-0.33315 -0.0114,-0.0444 -0.008,-0.0547 0.0323,-0.0634 0.0693,-0.0192 0.15928,-0.1005 0.1797,-0.1636 0.014,-0.038 0.007,-0.0985 -0.0187,-0.1968 -0.0605,-0.2185 -0.0156,-0.28465 0.20587,-0.2978 0.14563,-0.008 0.34587,-0.0844 0.38214,-0.14536 0.0149,-0.0285 0.0365,-0.0819 0.0465,-0.12204 0.02,-0.0773 0.0234,-0.0713 -0.17643,-0.451 -0.10061,-0.19307 -0.16772,-0.42177 -0.17782,-0.6087 -0.0115,-0.2295 0.11175,-0.7398 0.27582,-1.1309 0.0452,-0.1085 0.0841,-0.21385 0.0864,-0.23527 10e-4,-0.0152 0.008,-0.0255 0.0159,-0.0256 h 6e-4 c 0.002,2.4e-4 0.004,0.001 0.005,0.002 0.0111,0.009 0.008,0.11336 -0.006,0.24916 -0.02,0.18877 -0.0188,0.2333 0.002,0.23595 l 0.001,1.2e-4 c 0.0385,0.005 0.0433,0.0516 0.0269,0.20743 -0.008,0.072 -0.01,0.1852 -0.002,0.24795 l 0.0139,0.11389 0.0483,-0.23279 c 0.0255,-0.12855 0.0637,-0.28445 0.082,-0.34625 0.0186,-0.0634 0.0343,-0.1175 0.0347,-0.1213 2.2e-4,-0.002 10e-4,-0.002 0.003,-0.002 3e-4,0 7.9e-4,3e-5 10e-4,1.3e-4 l 1.3e-4,5e-5 c 0.003,3.5e-4 0.008,0.002 0.0128,0.006 0.009,0.006 0.0183,0.0533 0.0188,0.1034 0.004,0.0737 0.0118,0.0898 0.0455,0.094 l 0.005,6.5e-4 c 0.004,4.5e-4 0.008,7.9e-4 0.012,7.9e-4 0.0285,-1.4e-4 0.0305,-0.0194 0.0312,-0.14099 2.2e-4,-0.0781 0.0255,-0.39252 0.0579,-0.69815 0.0464,-0.46036 0.0596,-0.5504 0.0828,-0.55045 2e-4,5e-5 5e-4,5e-5 8.3e-4,1.5e-4 h 9e-5 c 0.0156,0.002 0.0291,0.0227 0.0307,0.047 9.5e-4,0.0291 0.007,0.0439 0.0158,0.0448 l 4.6e-4,1.2e-4 c 3.7e-4,0 6.7e-4,0 0.001,-5e-5 0.0295,-7e-5 0.0873,-0.12635 0.10364,-0.2543 0.0191,-0.14427 -0.0236,-0.3218 -0.1581,-0.68345 l -0.11134,-0.29681 0.0745,0.008 0.01,10e-4 c 0.0126,10e-4 0.0229,0.002 0.0311,0.002 h 0.001 c 0.0308,-10e-5 0.0329,-0.0101 0.0273,-0.0416 -0.0503,-0.2573 -0.35994,-0.6687 -0.64614,-0.8513 -0.0409,-0.0259 -0.0819,-0.0707 -0.0908,-0.0987 -0.024,-0.0728 -0.26297,-0.42166 -0.36247,-0.53055 -0.19213,-0.20899 -0.44408,-0.39575 -0.73024,-0.54115 -0.10361,-0.0531 -0.19736,-0.1044 -0.20621,-0.1145 -0.008,-0.0102 -10e-4,-0.0144 0.0162,-0.0144 h 0.002 c 0.005,0 0.0117,4e-4 0.0188,10e-4 l 0.003,-1.4e-4 0.005,4.9e-4 c 0.0902,0.0111 0.28913,0.0672 0.40876,0.12359 0.10845,0.0499 0.17932,0.0743 0.24395,0.0823 l 0.0101,0.001 c 0.006,4e-4 0.0124,10e-4 0.0185,10e-4 l 0.10082,0.005 -0.15713,-0.12988 c -0.1297,-0.10595 -0.2117,-0.15285 -0.47307,-0.27105 -0.1762,-0.0784 -0.37544,-0.1626 -0.44426,-0.18616 -0.23251,-0.0796 -0.65908,-0.15949 -1.05532,-0.20789 -0.0421,-0.005 -0.084,-0.01 -0.1251,-0.0144 l -0.006,-6.5e-4 c -0.0192,-0.002 -0.0385,-0.004 -0.0573,-0.006 -0.1625,-0.016 -0.31282,-0.0252 -0.43362,-0.0252 h -0.007 c -0.0355,7e-5 -0.0682,10e-4 -0.098,0.003 -0.0555,0.003 -0.10718,0.005 -0.14685,0.005 -0.0285,0 -0.051,-6.7e-4 -0.0648,-0.002 l -0.001,-3e-4 c -0.008,-8e-4 -0.0123,-10e-4 -0.0133,-0.003 -0.0229,-0.0269 0.0353,-0.0522 0.21793,-0.092 0.10193,-0.023 0.15588,-0.0331 0.22825,-0.0334 h 0.002 c 0.0591,0 0.13068,0.007 0.25043,0.0185 l 0.005,-10e-5 c 0.0113,10e-4 0.0227,0.003 0.0342,0.004 0.0871,0.008 0.16174,0.0131 0.20481,0.0131 h 0.002 c 0.0249,-1.2e-4 0.0385,-0.002 0.0368,-0.005 -0.0165,-0.0312 -0.1784,-0.1139 -0.27646,-0.1417 -0.0371,-0.0104 -0.0833,-0.0182 -0.13482,-0.0245 l -0.0469,-0.006 c -0.0788,-0.007 -0.16654,-0.0113 -0.25312,-0.0113 h -0.006 c -0.0952,3e-4 -0.18878,0.005 -0.26654,0.0163 -0.25556,0.0361 -0.58998,0.13926 -0.84854,0.26123 -0.27567,0.13193 -0.40287,0.20743 -0.63392,0.38713 -0.10782,0.084 -0.21524,0.1601 -0.24014,0.17177 -0.0233,0.008 -0.10092,0.016 -0.18332,0.0162 h -0.005 c -0.0105,0 -0.0212,-2e-4 -0.0317,-4e-4 l -0.002,-10e-5 c -0.0969,3e-4 -0.21381,0.01 -0.26245,0.0222 -0.13056,0.034 -0.33533,0.13489 -0.3241,0.15993 0.002,0.005 0.003,0.008 0.003,0.0104 h -7.7e-4 l -0.01,-10e-4 c -0.001,-0.001 -0.004,-0.002 -0.007,-0.002 l -3e-4,3e-5 c -10e-4,-3.4e-4 -0.003,-3.4e-4 -0.005,-4e-4 -0.0153,0 -0.0411,0.008 -0.0675,0.0199 -0.0631,0.0352 -0.41766,0.31286 -0.41966,0.332 -3.2e-4,0.003 0.0172,0.007 0.045,0.0109 l 0.0211,0.003 c 0.0182,10e-4 0.0389,0.003 0.0609,0.005 0.0134,1.4e-4 0.0263,10e-4 0.0384,0.002 l 0.0156,0.002 c 0.0436,0.005 0.0731,0.0129 0.0723,0.0192 -6.7e-4,0.009 -0.032,0.0397 -0.0687,0.0694 -0.0951,0.0737 -0.3699,0.36756 -0.50997,0.5493 -0.0947,0.122 -0.12023,0.1501 -0.15976,0.1502 -0.003,0 -0.006,-10e-5 -0.01,-6e-4 l -0.0149,-0.002 c -0.008,-10e-4 -0.0152,-0.003 -0.0211,-0.003 l -0.0168,-0.002 h -0.003 c 6.5e-4,10e-4 0.0116,0.004 0.0322,0.0101 0.031,0.007 0.0538,0.0169 0.0532,0.0215 -3.1e-4,0.004 -0.0398,0.0768 -0.0886,0.1632 -0.11242,0.20191 -0.27874,0.55738 -0.33258,0.71039 -0.0656,0.19105 -0.12597,0.55595 -0.13366,0.83645 -0.0151,0.4247 0.0433,0.86924 0.18494,1.4273 0.124,0.4773 0.202,0.86534 0.22176,1.0918 0.0251,0.296 -0.008,0.64555 -0.0909,0.91386 l -1.33392,-0.40289 -0.005,-0.002 -0.19266,0.29716 v 0 q -0.90828,-0.15196 -1.48831,-0.15196 -0.0197,0 -0.0391,1.7e-4 h -10e-4 q -0.0358,-5.7e-4 -0.0716,-5.7e-4 -1.76105,0 -3.63522,1.32314 -1.33109,0.87811 -4.00376,3.40426 h -0.003 c -0.11566,0.0959 -0.21356,0.1737 -0.28517,0.22605 -0.64925,0.46759 -1.4309,1.15411 -1.8357,1.60852 -0.46989,0.52903 -0.66644,1.23407 -0.49418,1.74153 0.12723,0.3875 0.84625,1.0237 1.15971,1.0336 0.0557,0.002 0.21263,0.1113 0.36214,0.2346 0.22372,0.20224 0.34082,0.2478 0.75743,0.30277 0.26382,0.0362 0.77009,0.12189 1.10946,0.19533 0.29864,0.0635 0.63384,0.11784 0.81426,0.13456 h -0.003 q 0.60785,0.44214 0.97705,0.69294 h -0.003 c 0.4108,0.42334 0.69655,0.65924 0.80472,0.65924 0.007,0 0.0133,-9.8e-4 0.0189,-0.003 0.0121,-0.005 0.023,-0.007 0.032,-0.007 0.0277,0 0.039,0.0213 0.0221,0.0576 -0.0155,0.0483 0.0241,0.1193 0.0992,0.17045 0.0451,0.031 0.0845,0.0464 0.13066,0.0464 0.0516,0 0.11157,-0.0191 0.19742,-0.0569 0.0858,-0.043 0.14938,-0.0679 0.20272,-0.0679 0.10962,0 0.17606,0.10544 0.3035,0.37674 0.1438,0.30435 0.16007,0.45127 0.1557,1.25296 -0.004,0.4046 -0.0179,0.68404 -0.0469,0.85559 q -0.13733,-0.104 -0.24333,-0.16435 -0.27846,-0.1642 -0.493,-0.1642 -0.0738,0 -0.14014,0.0195 l -0.007,0.002 q -0.4321,0.10419 -0.7576,1.24284 -0.20088,0.7143 -0.30244,1.5551 -0.0876,0.71 0.0244,0.83677 0.0713,0.11463 0.2926,0.13519 0.12995,0.003 0.28007,0.0107 h -0.003 c 0.006,0.0491 -0.013,0.0973 -0.0501,0.17145 -0.0521,0.10295 -0.22083,0.36955 -0.38089,0.58069 -0.29898,0.41589 -0.57971,0.91602 -0.8056,1.4458 -0.21106,0.50232 -0.65399,1.06012 -1.05328,1.34036 -0.19269,0.14035 -0.42109,0.30747 -0.49988,0.3747 -0.079,0.0742 -0.36536,0.30923 -0.63011,0.52395 -0.63707,0.52381 -2.09647,2.36035 -2.57735,3.23765 -0.11107,0.2057 -0.27332,0.4865 -0.36108,0.6162 -0.15397,0.2392 -0.25573,0.5915 -0.41684,1.49985 -0.12778,0.73505 -0.11478,0.98645 0.0538,1.38925 0.12312,0.2967 0.23106,0.41166 0.55903,0.62424 0.70136,0.45606 1.26441,0.67542 1.76961,0.67542 0.11983,0 0.23642,-0.0124 0.35082,-0.0368 1.00355,-0.20545 1.61444,-0.56268 2.42161,-1.39485 0.7591,-0.78654 1.0333,-1.0378 1.13933,-1.0378 6.6e-4,0 10e-4,4e-5 0.002,4e-5 0.0488,0.002 0.16345,0.12366 0.2496,0.26586 0.20539,0.3411 0.75885,0.70026 1.29169,0.8286 0.22492,0.0553 0.51404,0.0815 0.79483,0.0815 0.41022,0 0.80261,-0.056 0.95075,-0.15894 0.19244,-0.13336 0.81182,-1.20156 1.00265,-1.72546 0.15271,-0.4205 0.0781,-0.70874 -0.31137,-1.18115 -0.58383,-0.72265 -0.55792,-0.65915 -0.32978,-0.81922 0.1069,-0.0733 0.69956,-0.51483 1.31376,-0.97653 0.62857,-0.47525 1.24794,-0.8811 1.40274,-0.925 0.11416,-0.0382 0.31305,-0.0562 0.6208,-0.0562 0.20513,0 0.4587,0.008 0.76778,0.0233 0.2623,0.0115 0.52035,0.0171 0.77212,0.0171 1.39243,0 2.5924,-0.17196 3.25156,-0.4759 0.58714,-0.26735 1.6315,-0.8829 1.91804,-1.12483 0.284,-0.23317 1.0296,-0.75952 1.1033,-0.76697 h 0.003 c 0.1364,0.0111 -0.2185,1.1238 -0.50326,1.5529 -0.18314,0.2801 -0.5169,0.4718 -0.88086,0.5161 -0.35003,0.0448 -0.70578,0.2706 -0.93945,0.6049 -0.4375,0.60674 -0.32141,1.1264 0.53197,2.3665 0.5529,0.8193 0.84724,1.4352 0.85017,1.7839 0.004,0.0838 -0.0264,0.3966 -0.0635,0.6883 -0.0537,0.3748 -0.0479,0.63297 0.008,0.8648 0.0741,0.30217 0.11463,0.34526 0.4646,0.52366 0.35717,0.18018 0.81677,0.2569 1.26621,0.2569 1.05331,0 2.05093,-0.42151 1.54376,-0.92133 -0.0812,-0.0793 -0.24484,-0.19598 -0.3615,-0.25543 -0.37065,-0.18603 -0.51136,-0.5879 -0.6484,-1.77057 -0.0447,-0.35003 -0.0661,-0.99913 -0.0521,-1.44493 0.0188,-0.8152 0.019,-0.82216 0.26721,-1.1769 0.13174,-0.19805 0.35236,-0.56066 0.48566,-0.8074 0.13328,-0.24685 0.28051,-0.49325 0.32406,-0.54764 0.0505,-0.0542 0.15396,-0.23919 0.2291,-0.41113 0.0821,-0.17173 0.33234,-0.58917 0.55905,-0.92363 0.2269,-0.3415 0.56555,-0.9095 0.74417,-1.2665 0.31906,-0.61047 0.56708,-0.95825 1.35056,-1.92364 0.16702,-0.21086 0.3136,-0.43636 0.31534,-0.49206 0.002,-0.0627 0.18777,-0.4264 0.40902,-0.8099 0.22128,-0.38346 0.49701,-0.9465 0.60422,-1.2499 0.10739,-0.3104 0.29843,-0.84127 0.42761,-1.17885 0.54831,-1.46785 0.56305,-1.93451 0.0616,-2.83585 -0.37594,-0.68124 -0.5731,-0.84085 -1.04678,-0.8558 -0.20898,-0.007 -0.3757,-0.0258 -0.37506,-0.0467 6.7e-4,-0.0209 0.17554,-0.2594 0.39328,-0.5314 0.21774,-0.27206 0.45862,-0.61306 0.54703,-0.7637 0.0815,-0.1508 0.23566,-0.397 0.33798,-0.5471 0.25632,-0.3894 0.77622,-1.39797 0.77973,-1.5094 0.002,-0.0557 0.0314,-0.11055 0.0669,-0.1304 0.0285,-0.02 0.10608,-0.26854 0.16386,-0.5526 0.0826,-0.40875 0.1353,-0.5326 0.2409,-0.56415 0.10537,-0.0246 0.12106,-0.0798 0.0922,-0.26905 -0.0228,-0.16106 0.002,-0.28576 0.0822,-0.3948 0.0653,-0.0816 0.11978,-0.2612 0.12418,-0.40054 0.011,-0.34826 0.14126,-0.72066 0.45268,-1.31046 0.15532,-0.281 0.45436,-0.92 0.67195,-1.40817 0.21085,-0.49543 0.42017,-0.94203 0.45655,-0.98968 0.0332,-0.0516 0.11743,-0.0778 0.27358,-0.0778 0.0505,0 0.10856,0.003 0.17484,0.008 0.0713,0.005 0.14058,0.008 0.20773,0.008 0.0362,0 0.0716,-7.4e-4 0.10648,-0.002 h 0.003 l -0.0217,28.5678 23.0061,0.0253 1.01996,-0.0262 0.0475,-43.33875 -24.02372,-0.0577 z"
       id="path4815" />
  </g>
  <g
     transform="translate(-247.85689,-569.31373)"
     id="g4821"
     style="fill:#e36414;fill-opacity:1;stroke-linejoin:miter">
    <path
       style="fill:#e36414;fill-opacity:1"
       id="path4819"
       d="m 291.18417,589.49994 q -1.99037,-0.0686 -0.16165,2.15289 -0.92996,-1.07613 -2.34595,0.31433 -0.72337,0.7594 -1.13693,1.789 -0.3883,0.99421 -0.25928,1.75409 0.15144,0.78308 0.86036,1.03625 2.4826,0.87074 4.50915,0.87165 3.3519,0.0113 2.83911,-2.26535 -0.31793,-1.49655 -1.34546,-2.7346 -0.74166,-0.8622 -1.82572,-0.85716 -0.009,-0.0173 0.059,-0.0786 0.43765,-0.35606 0.5654,-0.48954 0.17223,-0.17276 0.25818,-0.31066 0.21411,-0.3317 0.0279,-0.57545 -0.53743,-0.53115 -2.03563,-0.60681" />
  </g>
  <g
     transform="translate(-247.85689,-569.31373)"
     id="g4825"
     style="fill:#e36414;fill-opacity:1;stroke-linejoin:miter">
    <path
       style="fill:#e36414;fill-opacity:1"
       id="path4823"
       d="m 296.81857,589.73737 q -1.98977,-0.0736 -0.16205,2.15243 -0.92269,-1.07895 -2.35122,0.3208 -0.72638,0.76926 -1.12973,1.77927 -0.38382,0.97998 -0.26474,1.73383 0.13177,0.77624 0.83835,1.0507 2.38119,0.83986 4.34967,0.8793 3.41678,0.0627 3.06137,-2.07277 -0.29447,-1.62243 -1.38797,-2.93188 -0.72849,-0.84985 -1.81897,-0.85059 -0.009,-0.0198 0.054,-0.0751 0.41486,-0.33784 0.5542,-0.4776 0.18842,-0.18727 0.27824,-0.3339 0.20333,-0.308 0.0279,-0.5611 -0.53584,-0.5376 -2.03487,-0.6131" />
  </g>
  <g
     transform="translate(-247.85689,-569.31373)"
     id="g4843"
     style="fill:#e36414;fill-opacity:1;stroke-linejoin:miter">
    <path
       style="fill:#e36414;fill-opacity:1"
       id="path4841"
       d="m 290.92566,607.2882 q -1.99039,-0.0686 -0.16166,2.1529 -0.92995,-1.0761 -2.34594,0.31433 -0.72339,0.7594 -1.13693,1.789 -0.38831,0.99421 -0.25928,1.75407 0.15143,0.7831 0.86035,1.0363 2.4826,0.8707 4.50916,0.8716 3.3519,0.0113 2.83911,-2.26536 -0.31793,-1.49654 -1.34547,-2.73454 -0.74166,-0.8622 -1.8257,-0.8572 -0.009,-0.0173 0.059,-0.0786 0.43764,-0.3561 0.56539,-0.4896 0.17225,-0.1727 0.25818,-0.31064 0.21411,-0.33166 0.0279,-0.57546 -0.53745,-0.5311 -2.03565,-0.6068" />
  </g>
  <g
     transform="translate(-247.85689,-569.31373)"
     id="g4847"
     style="fill:#e36414;fill-opacity:1;stroke-linejoin:miter">
    <path
       style="fill:#e36414;fill-opacity:1"
       id="path4845"
       d="m 296.56006,607.52563 q -1.98978,-0.0736 -0.16206,2.15241 -0.9227,-1.07894 -2.35122,0.3208 -0.72638,0.76926 -1.12973,1.7793 -0.38382,0.97996 -0.26475,1.73382 0.1318,0.77624 0.83836,1.05074 2.3812,0.8398 4.34967,0.87926 3.41677,0.0627 3.06137,-2.07276 -0.29446,-1.62243 -1.38797,-2.9319 -0.72848,-0.84984 -1.81897,-0.85057 -0.009,-0.0198 0.054,-0.0751 0.41485,-0.33786 0.5542,-0.4776 0.18841,-0.18726 0.27823,-0.33386 0.20334,-0.30805 0.0279,-0.5611 -0.53586,-0.53766 -2.03488,-0.61316" />
  </g>
  <g
     transform="translate(-247.85689,-569.31373)"
     style="fill:#e36414;fill-opacity:1"
     id="g4859">
    <g
       id="g4857"
       style="fill:#e36414;fill-opacity:1;stroke-linejoin:miter">
      <path
         style="fill:#e36414;fill-opacity:1"
         id="path4855"
         d="m 296.9542,610.0669 q -0.0627,-10e-4 -0.1125,0.0112 l -0.006,0.32034 q -0.28791,0.0343 -0.44602,0.1933 -0.15478,0.159 -0.15942,0.4131 -0.002,0.1288 0.029,0.2218 0.0313,0.093 0.0928,0.1635 0.0582,0.0671 0.13987,0.1181 0.0816,0.0511 0.17992,0.0924 l 0.15726,0.0688 q 0.11462,0.0516 0.19972,0.0928 0.0852,0.0379 0.1405,0.0852 0.0553,0.0471 0.0838,0.11045 0.0253,0.0632 0.0236,0.15555 -0.003,0.1849 -0.13732,0.28805 -0.13398,0.10335 -0.40466,0.0983 -0.16834,-0.003 -0.28662,-0.0349 -0.11835,-0.0285 -0.22996,-0.0669 -0.0276,0.0689 -0.0521,0.14437 -0.0211,0.0723 -0.029,0.14476 0.0689,0.0244 0.13455,0.0453 0.0657,0.021 0.13806,0.0355 0.0691,0.0145 0.15152,0.0226 0.0824,0.008 0.1847,0.01 l 0.0198,3.4e-4 q 0.01,3e-4 0.0265,-0.003 l -0.006,0.35324 q 0.0296,0.007 0.0592,0.0111 0.0297,0.004 0.0594,0.004 0.0265,5.5e-4 0.0562,-0.002 0.0297,-0.003 0.0563,-0.009 l 0.007,-0.3797 q 0.29153,-0.0508 0.45647,-0.22614 0.1617,-0.1721 0.16676,-0.45263 0.003,-0.14197 -0.0353,-0.24177 -0.0345,-0.0997 -0.10251,-0.1736 -0.0647,-0.0738 -0.15947,-0.12833 -0.0947,-0.0545 -0.21272,-0.10627 l -0.12445,-0.055 q -0.10157,-0.0448 -0.18343,-0.0825 -0.0786,-0.0378 -0.13713,-0.085 -0.0554,-0.0439 -0.084,-0.10393 -0.0287,-0.0567 -0.0273,-0.13587 0.003,-0.16504 0.11667,-0.24225 0.11368,-0.0772 0.32163,-0.0734 0.15185,0.003 0.2669,0.0311 0.11512,0.0252 0.20365,0.0598 0.0585,-0.13423 0.0776,-0.27258 -0.095,-0.0381 -0.23001,-0.0638 -0.13159,-0.0254 -0.27014,-0.0345 l 0.006,-0.307 q -0.0526,-0.0142 -0.1186,-0.0154 z" />
    </g>
  </g>
  <g
     transform="translate(-247.85689,-569.31373)"
     id="g4865"
     style="fill:#e36414;fill-opacity:1;stroke-linejoin:miter">
    <path
       style="fill:#e36414;fill-opacity:1"
       id="path4863"
       d="m 296.09683,606.77075 q -1.99038,-0.0686 -0.16165,2.1529 -0.92996,-1.07612 -2.34595,0.31435 -0.72339,0.7594 -1.13693,1.789 -0.3883,0.9942 -0.25928,1.75407 0.15143,0.78308 0.86036,1.03623 2.4826,0.87075 4.50915,0.87166 3.3519,0.0113 2.83911,-2.26536 -0.31794,-1.49654 -1.34546,-2.7346 -0.74168,-0.86216 -1.82571,-0.85715 -0.009,-0.0174 0.059,-0.0786 0.43765,-0.35607 0.5654,-0.48953 0.17224,-0.17276 0.25817,-0.3107 0.21412,-0.33166 0.0279,-0.57544 -0.53745,-0.53112 -2.03565,-0.60681" />
  </g>
  <g
     transform="translate(-247.85689,-569.31373)"
     id="g4869"
     style="fill:#e36414;fill-opacity:1;stroke-linejoin:miter">
    <path
       style="fill:#e36414;fill-opacity:1"
       id="path4867"
       d="m 301.73123,607.0082 q -1.98977,-0.0736 -0.16205,2.1524 -0.9227,-1.07893 -2.35122,0.3208 -0.72638,0.7693 -1.12973,1.7793 -0.38383,0.97996 -0.26473,1.7338 0.13176,0.77625 0.83833,1.0507 2.3812,0.8399 4.34967,0.8793 3.41678,0.0627 3.06138,-2.07275 -0.29448,-1.62245 -1.38798,-2.93189 -0.72848,-0.84986 -1.81896,-0.85056 -0.009,-0.0198 0.054,-0.0751 0.41486,-0.3378 0.5542,-0.4776 0.18842,-0.18725 0.27823,-0.33386 0.20335,-0.30804 0.0279,-0.5611 -0.53585,-0.53764 -2.03487,-0.61314" />
  </g>
  <g
     transform="translate(-247.85689,-569.31373)"
     id="g4887"
     style="fill:#e36414;fill-opacity:1;stroke-linejoin:miter">
    <path
       style="fill:#e36414;fill-opacity:1"
       id="path4885"
       d="m 290.92563,578.5683 q -1.99039,-0.0686 -0.16165,2.1529 -0.92998,-1.0761 -2.34595,0.3143 -0.72339,0.7594 -1.13693,1.789 -0.3883,0.9942 -0.25928,1.7541 0.15143,0.7831 0.86035,1.03627 2.48261,0.87073 4.50916,0.87163 3.3519,0.0113 2.83911,-2.2654 -0.31794,-1.4965 -1.34546,-2.7345 -0.74168,-0.8622 -1.82571,-0.8572 -0.009,-0.0173 0.059,-0.0786 0.43765,-0.3561 0.56539,-0.4896 0.17225,-0.1727 0.25818,-0.31065 0.2141,-0.33165 0.0279,-0.57545 -0.53745,-0.5311 -2.03565,-0.6068" />
  </g>
  <g
     transform="translate(-247.85689,-569.31373)"
     id="g4891"
     style="fill:#e36414;fill-opacity:1;stroke-linejoin:miter">
    <path
       style="fill:#e36414;fill-opacity:1"
       id="path4889"
       d="m 296.56003,578.8057 q -1.98978,-0.0736 -0.16205,2.1524 -0.9227,-1.0789 -2.35123,0.32083 -0.72638,0.76927 -1.12973,1.77927 -0.38382,0.98 -0.26474,1.73385 0.13178,0.77625 0.83835,1.05075 2.3812,0.8398 4.34967,0.87925 3.41678,0.0627 3.06137,-2.07275 -0.29447,-1.62244 -1.38797,-2.9319 -0.72848,-0.84985 -1.81897,-0.8506 -0.009,-0.0198 0.054,-0.0751 0.41485,-0.33785 0.5542,-0.4776 0.18841,-0.18725 0.27823,-0.33385 0.20335,-0.30806 0.0279,-0.5611 -0.53587,-0.53767 -2.03487,-0.6132" />
  </g>
  <g
     transform="translate(-247.85689,-569.31373)"
     style="fill:#e36414;fill-opacity:1"
     id="g4903">
    <g
       id="g4901"
       style="fill:#e36414;fill-opacity:1;stroke-linejoin:miter">
      <path
         style="fill:#e36414;fill-opacity:1"
         id="path4899"
         d="m 296.95416,581.347 q -0.0627,-10e-4 -0.11249,0.0112 l -0.006,0.32032 q -0.2879,0.0343 -0.446,0.1933 -0.1548,0.15899 -0.15943,0.41313 -0.002,0.1288 0.029,0.2218 0.0313,0.093 0.0928,0.16347 0.0582,0.0671 0.13986,0.1181 0.0816,0.0511 0.17994,0.0925 l 0.15725,0.0689 q 0.11462,0.0516 0.19973,0.0928 0.0852,0.0379 0.14048,0.0852 0.0553,0.0472 0.0839,0.11048 0.0252,0.0632 0.0236,0.15556 -0.003,0.1849 -0.13733,0.28804 -0.13397,0.10336 -0.40465,0.0983 -0.16835,-0.003 -0.28664,-0.0349 -0.11834,-0.0285 -0.22996,-0.0669 -0.0276,0.0689 -0.0521,0.1444 -0.0211,0.0723 -0.029,0.14475 0.0689,0.0244 0.13456,0.0453 0.0657,0.021 0.13805,0.0355 0.0691,0.0145 0.15152,0.0226 0.0824,0.008 0.18469,0.01 l 0.0198,3.5e-4 q 0.01,2.6e-4 0.0265,-0.003 l -0.006,0.35325 q 0.0296,0.007 0.0593,0.0111 0.0297,0.004 0.0594,0.004 0.0265,5.6e-4 0.0562,-0.002 0.0297,-0.003 0.0563,-0.009 l 0.007,-0.3797 q 0.29153,-0.0507 0.45648,-0.2261 0.16168,-0.1721 0.16675,-0.45264 0.003,-0.14196 -0.0353,-0.24176 -0.0345,-0.0997 -0.10251,-0.1736 -0.0647,-0.0738 -0.15946,-0.12834 -0.0947,-0.0545 -0.21273,-0.10626 l -0.12445,-0.0551 q -0.10157,-0.0447 -0.18342,-0.0826 -0.0786,-0.0377 -0.13714,-0.085 -0.0554,-0.0439 -0.084,-0.10394 -0.0287,-0.0567 -0.0273,-0.13586 0.003,-0.16505 0.11667,-0.24226 0.11368,-0.0772 0.32163,-0.0733 0.15185,0.003 0.2669,0.0311 0.1151,0.0252 0.20365,0.0598 0.0585,-0.1342 0.0776,-0.27256 -0.0951,-0.0381 -0.23002,-0.0637 -0.13158,-0.0254 -0.27013,-0.0345 l 0.006,-0.30703 q -0.0526,-0.0142 -0.11862,-0.0154 z" />
    </g>
  </g>
  <g
     transform="translate(-247.85689,-569.31373)"
     id="g4909"
     style="fill:#e36414;fill-opacity:1;stroke-linejoin:miter">
    <path
       style="fill:#e36414;fill-opacity:1"
       id="path4907"
       d="m 294.35153,578.6977 q -1.99038,-0.0686 -0.16165,2.1529 -0.92996,-1.0761 -2.34595,0.3143 -0.72339,0.7594 -1.13693,1.789 -0.3883,0.9942 -0.25928,1.7541 0.15143,0.7831 0.86035,1.03626 2.48261,0.87074 4.50916,0.87164 3.3519,0.0113 2.83911,-2.2654 -0.31794,-1.4965 -1.34546,-2.73453 -0.74168,-0.86217 -1.82571,-0.85717 -0.009,-0.0173 0.059,-0.0786 0.43765,-0.3561 0.5654,-0.4896 0.17224,-0.1727 0.25817,-0.31066 0.21412,-0.33164 0.0279,-0.57544 -0.53745,-0.5311 -2.03565,-0.6068" />
  </g>
  <g
     transform="translate(-247.85689,-569.31373)"
     id="g4913"
     style="fill:#e36414;fill-opacity:1;stroke-linejoin:miter">
    <path
       style="fill:#e36414;fill-opacity:1"
       id="path4911"
       d="m 299.98593,578.9351 q -1.98978,-0.0736 -0.16205,2.1524 -0.9227,-1.0789 -2.35122,0.3208 -0.72638,0.7693 -1.12973,1.7793 -0.38383,0.98 -0.26473,1.73385 0.13176,0.77625 0.83833,1.05072 2.3812,0.83983 4.34967,0.87927 3.41678,0.0627 3.06138,-2.07274 -0.29448,-1.62245 -1.38798,-2.9319 -0.72848,-0.84985 -1.81896,-0.8506 -0.009,-0.0198 0.054,-0.0751 0.41486,-0.33784 0.5542,-0.4776 0.18842,-0.18724 0.27823,-0.33384 0.20335,-0.30806 0.0279,-0.5611 -0.53587,-0.5377 -2.03487,-0.6132" />
  </g>
</svg>
