<?xml version="1.0" encoding="UTF-8" standalone="no"?>
<svg
   xmlns:dc="http://purl.org/dc/elements/1.1/"
   xmlns:cc="http://creativecommons.org/ns#"
   xmlns:rdf="http://www.w3.org/1999/02/22-rdf-syntax-ns#"
   xmlns:svg="http://www.w3.org/2000/svg"
   xmlns="http://www.w3.org/2000/svg"
   xmlns:sodipodi="http://sodipodi.sourceforge.net/DTD/sodipodi-0.dtd"
   xmlns:inkscape="http://www.inkscape.org/namespaces/inkscape"
   height="456.15134"
   width="757.48212"
   inkscape:version="1.0 (4035a4fb49, 2020-05-01)"
   sodipodi:docname="almozulo.svg"
   id="svg4"
   version="1.1"
   viewBox="0 0 757.4821 456.15134">
  <metadata
     id="metadata10">
    <rdf:RDF>
      <cc:Work
         rdf:about="">
        <dc:format>image/svg+xml</dc:format>
        <dc:type
           rdf:resource="http://purl.org/dc/dcmitype/StillImage" />
        <dc:title></dc:title>
      </cc:Work>
    </rdf:RDF>
  </metadata>
  <defs
     id="defs8" />
  <sodipodi:namedview
     fit-margin-bottom="10"
     fit-margin-right="10"
     fit-margin-left="10"
     lock-margins="true"
     fit-margin-top="10"
     inkscape:current-layer="svg4"
     inkscape:window-maximized="0"
     inkscape:window-y="23"
     inkscape:window-x="26"
     inkscape:cy="167.17692"
     inkscape:cx="378.91574"
     inkscape:zoom="0.23632135"
     showgrid="false"
     id="namedview6"
     inkscape:window-height="480"
     inkscape:window-width="923"
     inkscape:pageshadow="2"
     inkscape:pageopacity="0"
     guidetolerance="10"
     gridtolerance="10"
     objecttolerance="10"
     borderopacity="1"
     bordercolor="#666666"
     pagecolor="#ffffff" />
  <path
     style="fill:#5f0f40;fill-opacity:1;stroke:#5f0f40;stroke-opacity:1"
     id="path2"
     stroke-width="9.988"
     stroke-linejoin="round"
     stroke-linecap="round"
     stroke="#0a0000"
     d="m 254.6485,14.995831 c -5.0446,0.0311 -10.147,0.51895 -15.281,1.4688 -46.94,8.6838 -77.965,53.779 -69.281,100.719999 8.684,46.941 53.779,77.934 100.72,69.25 46.941,-8.684 77.965,-53.779 69.281,-100.719999 -7.734,-41.806 -44.36,-70.972 -85.438,-70.719 z m 213,18.781 c -19.357,-0.0776 -41.275,3.9153 -70.281,9.5625 -19.576,3.8112 -7.8534,27.253 -11.375,51.625 l -6.6562,45.968999 c -1.8451,12.769 4.0893,17.554 13.219,19.281 l -38.062,117.69 -80.375,67.844 c -17.993,15.182 -2.2228,47.596 11.281,56.5 l 2.4375,1.625 c 13.504,8.9039 20.445,-8.1144 37.469,-24.375 l 84.594,-80.781 35.031,-108.44 c 2.9842,-9.2311 3.8891,-18.935 2.9688,-27.781 75.731,7.3944 114.26,40.825 156.84,91.438 l -169.75,109.41 c -12.974,8.3646 -21.916,19.821 -25.406,30.969 -2.3827,3.9842 -3.6875,8.3489 -3.6875,12.938 0,18.776 21.974,33.906 49.281,33.906 h 238.03 c 27.307,0 49.281,-15.13 49.281,-33.906 0,-18.776 -21.974,-33.875 -49.281,-33.875 h -137.03 l 132.09,-85.156 c 11.49,-7.4076 19.85,-17.232 24.031,-27.125 10.878,-14.835 -4.6998,-38.722 -17.844,-52.281 C 560.6641,70.794331 525.7141,34.014331 467.6441,33.784331 Z M 58.0885,368.55683 c -9.9346,0 -17.938,28.242 -17.938,42.812 0,1.7092 0.10217,3.0962 0.3125,4.3125 -15.947,3.4754 -25.469,7.8823 -25.469,12.656 0,11.267 52.56,11.531 117.97,11.531 65.41,0 118.88,-0.26416 118.88,-11.531 0,-4.6518 -9.0331,-8.9431 -24.25,-12.375 0.95017,-1.9731 1.4688,-4.6687 1.4688,-8.4062 0,-14.571 -8.0028,-39 -17.938,-39 h -153.03 z" />
</svg>
