<?xml version="1.0" encoding="UTF-8" standalone="no"?>
<svg
   xmlns:dc="http://purl.org/dc/elements/1.1/"
   xmlns:cc="http://creativecommons.org/ns#"
   xmlns:rdf="http://www.w3.org/1999/02/22-rdf-syntax-ns#"
   xmlns:svg="http://www.w3.org/2000/svg"
   xmlns="http://www.w3.org/2000/svg"
   xmlns:sodipodi="http://sodipodi.sourceforge.net/DTD/sodipodi-0.dtd"
   xmlns:inkscape="http://www.inkscape.org/namespaces/inkscape"
   inkscape:version="1.0 (4035a4fb49, 2020-05-01)"
   sodipodi:docname="arbaro.svg"
   viewBox="0 0 1140.48 1152"
   height="1152"
   width="1140.48"
   xml:space="preserve"
   id="svg2"
   version="1.1"><metadata
     id="metadata8"><rdf:RDF><cc:Work
         rdf:about=""><dc:format>image/svg+xml</dc:format><dc:type
           rdf:resource="http://purl.org/dc/dcmitype/StillImage" /><dc:title></dc:title></cc:Work></rdf:RDF></metadata><defs
     id="defs6"><clipPath
       id="clipPath18"
       clipPathUnits="userSpaceOnUse"><path
         id="path16"
         d="M 0,864 H 855.36 V 0 H 0 Z" /></clipPath></defs><sodipodi:namedview
     inkscape:current-layer="g10"
     inkscape:window-maximized="1"
     inkscape:window-y="0"
     inkscape:window-x="0"
     inkscape:cy="576"
     inkscape:cx="570.23999"
     inkscape:zoom="0.67351338"
     showgrid="false"
     id="namedview4"
     inkscape:window-height="1016"
     inkscape:window-width="1920"
     inkscape:pageshadow="2"
     inkscape:pageopacity="0"
     guidetolerance="10"
     gridtolerance="10"
     objecttolerance="10"
     borderopacity="1"
     bordercolor="#666666"
     pagecolor="#ffffff" /><g
     transform="matrix(1.3333333,0,0,-1.3333333,0,1152)"
     inkscape:label="tree-silhouette-4712414"
     inkscape:groupmode="layer"
     id="g10"><path
       d="m 603.7075,401.8541 c 0.742,-2.033 2.091,-2.766 3.74,-2.066 0.309,0.13 0.681,0.517 0.699,0.807 0.018,0.269 -0.341,0.697 -0.635,0.825 -1.148,0.503 -2.325,1.001 -3.804,0.434 m -0.837,-171.948 c -0.126,-0.195 -0.253,-0.389 -0.379,-0.584 0.378,-0.403 0.719,-1.105 1.142,-1.158 2.252,-0.288 4.521,-0.607 6.709,-0.352 0.436,0.885 0.358,1.522 -0.454,1.667 -2.323,0.413 -4.665,0.64 -7.018,0.427 m 123.602,219.797 c 0.21,0.031 0.53,0.059 0.84,0.13 0.701,0.163 1.408,0.309 2.09,0.529 1.403,0.452 1.832,1.159 1.587,2.497 -0.239,1.304 -0.895,1.817 -2.348,1.833 -0.555,0.006 -1.131,-0.09 -1.66,0.031 -0.855,0.194 -1.803,0.7 -2.295,-0.404 -0.374,-0.842 -0.638,-1.831 -0.595,-2.737 0.064,-1.35 0.913,-1.922 2.381,-1.879 m -54.668,205.884 c -0.312,-0.37 -0.51,-0.526 -0.606,-0.731 -2.379,-5.095 -2.361,-5.318 1.392,-9.557 0.809,-0.914 1.767,-1.697 2.656,-2.54 -0.21,4.629 -1.715,8.673 -3.442,12.828 m -68.267,-244.639 c 0.566,-1.806 0.796,-2.138 2.528,-2.082 2.366,0.076 4.579,-0.47 6.804,-1.127 0.836,-0.246 1.721,-0.449 2.583,-0.449 0.768,0 1.621,0.15 2.284,0.513 1.386,0.757 1.462,2.527 0.115,3.295 -2.248,1.283 -4.675,2.17 -7.317,1.628 -2.305,-0.473 -4.566,-1.151 -6.997,-1.778 m 159.54,-154.458 c -1.368,0.101 -2.686,0.205 -4.006,0.295 -1.589,0.107 -3.18,0.303 -4.768,0.283 -3.902,-0.049 -7.816,-0.404 -11.57,1.128 -0.342,0.139 -1.109,-0.027 -1.248,-0.283 -0.219,-0.407 -0.29,-1.179 -0.041,-1.496 0.574,-0.73 1.291,-1.437 2.102,-1.87 2.178,-1.16 4.444,-2.152 6.657,-3.25 0.931,-0.462 1.794,-0.348 2.766,-0.095 1.607,0.419 3.259,0.668 4.899,0.954 1.018,0.177 2.088,0.159 3.062,0.463 1.998,0.623 2.587,1.86 2.147,3.871 M 744.4795,10e-5 c 0.159,1.095 0.474,2.195 0.449,3.286 -0.171,7.354 -0.301,14.712 -0.661,22.057 -0.466,9.504 -1.089,19 -1.727,28.494 -0.841,12.526 -1.756,25.047 -2.65,37.569 -0.69,9.65 -1.398,19.3 -2.099,28.95 -0.746,10.287 -1.527,20.573 -2.23,30.863 -0.59,8.616 -1.068,17.24 -1.633,25.858 -0.681,10.373 -1.375,20.745 -2.113,31.114 -0.532,7.497 -1.137,14.989 -1.721,22.482 -0.889,11.4 -1.797,22.798 -2.678,34.198 -0.715,9.248 -1.42,18.497 -2.098,27.747 -0.766,10.447 -1.581,20.891 -2.221,31.345 -0.7,11.413 -1.41,22.831 -1.762,34.258 -0.263,8.544 0.039,17.106 0.082,25.659 0.053,10.637 0.105,21.275 0.144,31.912 0.033,9.039 0.042,18.077 0.072,27.115 0.002,0.689 0.083,1.378 0.135,2.192 6.546,-3.105 12.791,-0.786 19.37,0.052 -0.492,1.295 -0.813,2.221 -2.08,1.462 -1.976,-1.182 -4.133,-1.235 -6.281,-1.01 -3.644,0.382 -7.27,0.931 -10.9,1.409 v 54.765 c 2.349,0.562 4.483,0.068 6.601,0.127 0.874,0.024 1.779,-0.057 2.614,0.144 1.651,0.398 2.103,1.668 1.215,3.112 -0.722,1.175 -1.72,1.809 -3.167,1.775 -2.298,-0.056 -4.598,-0.015 -7.033,-0.015 -0.019,0.252 -0.097,0.716 -0.087,1.179 0.317,15.349 0.627,30.699 0.985,46.048 0.056,2.395 0.196,4.807 0.559,7.171 0.241,1.563 -0.134,2.765 -0.96,4.029 -4.765,7.297 -9.403,14.678 -14.233,21.932 -12.766,19.168 -25.605,38.286 -38.42,57.421 -0.565,0.844 -1.172,1.659 -1.981,2.8 -2.616,-5.286 -6.944,-8.474 -10.934,-12.037 -11.097,-9.909 -22.046,-19.981 -33.105,-29.932 -1.141,-1.026 -1.514,-2.052 -1.428,-3.533 0.621,-10.778 1.149,-21.56 1.757,-32.338 0.509,-9.022 1.062,-18.041 1.636,-27.059 0.728,-11.411 1.465,-22.822 2.257,-34.229 1.187,-17.074 2.219,-34.145 2.224,-51.277 0.008,-25.112 0.28,-50.224 0.438,-75.337 0.033,-5.038 0.065,-10.076 0.095,-15.115 0.005,-0.863 0.001,-1.727 0.001,-2.859 -1.087,0.128 -1.922,0.242 -2.761,0.321 -4.023,0.378 -7.955,0.427 -11.571,-1.929 -2.059,-1.341 -4.521,-1.51 -6.934,-1.6 -1.104,-0.042 -2.21,-0.007 -3.283,-0.007 -0.266,-2.258 -0.148,-2.673 1.492,-3 1.383,-0.277 2.853,-0.319 4.263,-0.202 1.422,0.117 2.841,0.474 4.221,0.87 4.655,1.337 9.388,1.79 14.419,1.413 0.085,-0.573 0.242,-1.17 0.249,-1.77 0.028,-2.399 0.007,-4.798 0.009,-7.198 0.022,-27.755 0.053,-55.51 0.062,-83.265 0.004,-11.837 -0.019,-23.675 -0.067,-35.513 -0.1,-24.873 -0.185,-49.746 -0.35,-74.619 -0.142,-21.432 -0.324,-42.865 -0.605,-64.294 -0.24,-18.231 -0.642,-36.458 -0.983,-54.688 -0.023,-1.267 -0.13,-2.534 -0.21,-4.025 -3.741,0.679 -7.318,1.326 -10.894,1.976 -3.854,0.701 -7.7,1.438 -11.565,2.073 -0.704,0.116 -1.946,0.029 -2.114,-0.34 -0.308,-0.677 -0.22,-1.729 0.094,-2.455 0.808,-1.874 2.522,-2.657 4.432,-2.806 1.502,-0.117 3.029,0.14 4.543,0.118 1.825,-0.026 3.717,0.108 5.457,-0.323 3.211,-0.794 6.407,-1.289 9.85,-0.944 0.047,-0.693 0.152,-1.316 0.121,-1.932 -0.464,-9.022 -0.937,-18.044 -1.439,-27.063 -0.049,-0.867 -0.307,-1.722 -0.467,-2.582 h -33.12 c -1.815,5.349 -2.392,10.92 -2.813,16.497 -1.595,21.153 -1.609,42.347 -1.439,63.541 0.113,14.074 0.254,28.149 0.613,42.218 0.593,23.181 1.338,46.359 2.088,69.535 0.416,12.867 0.97,25.73 1.466,38.594 0.027,0.709 0.092,1.418 0.141,2.16 3.36,0.543 6.594,1.277 9.955,0.372 1.65,-0.445 2.201,-0.204 3.69,0.451 -0.237,1.239 -1.242,1.737 -2.241,1.75 -3.712,0.049 -7.394,1.379 -11.226,0.138 -0.047,0.694 -0.137,1.242 -0.112,1.785 0.708,15.897 1.421,31.793 2.148,47.69 0.509,11.103 1.023,22.207 1.567,33.31 0.58,11.82 1.195,23.639 1.801,35.459 0.516,10.062 1.021,20.125 1.567,30.186 0.576,10.619 1.187,21.237 1.797,31.855 0.49,8.542 0.985,17.084 1.506,25.624 0.705,11.573 1.462,23.143 2.149,34.717 0.825,13.899 0.978,27.811 0.521,41.725 -0.331,10.07 -0.704,20.139 -1.183,30.203 -0.487,10.223 -1.137,20.439 -1.699,30.659 -0.26,4.711 -0.524,9.422 -0.7,14.136 -0.054,1.495 -0.454,2.741 -1.293,4.001 -4.255,6.387 -8.425,12.832 -12.608,19.268 -0.447,0.688 -0.783,1.449 -1.414,2.634 2.439,-0.508 3.851,-1.608 5.173,-2.827 2.852,-2.632 4.927,-5.868 6.984,-9.113 0.705,-1.111 1.414,-2.22 2.121,-3.33 0.148,0.059 0.294,0.117 0.442,0.176 0,0.679 0.022,1.358 -0.004,2.036 -0.595,15.582 -1.255,31.16 -1.776,46.744 -0.499,14.945 -0.901,29.892 -1.235,44.842 -0.085,3.829 0.148,7.676 0.441,11.499 0.12,1.56 0.012,2.99 -0.455,4.463 -2.325,7.349 -5.571,14.312 -9.241,21.047 -4.051,7.436 -8.477,14.667 -12.727,21.996 -3.532,6.089 -8.581,10.912 -13.299,16.012 -0.488,0.529 -1.022,1.027 -1.427,1.613 -0.186,0.271 -0.28,0.902 -0.121,1.049 0.294,0.271 0.888,0.519 1.212,0.395 0.886,-0.336 1.782,-0.763 2.518,-1.35 1.435,-1.143 2.814,-2.369 4.128,-3.651 7.77,-7.578 14.44,-16.033 20.079,-25.304 0.361,-0.593 0.745,-1.171 1.393,-2.19 0,1.043 0.07,1.565 -0.01,2.062 -2.8,17.359 -5.634,34.713 -8.418,52.074 -1.694,10.576 -3.299,21.165 -4.981,31.742 -0.225,1.413 -0.574,2.82 -1.017,4.181 -1.409,4.331 -2.898,8.637 -4.335,12.959 -0.204,0.611 -0.293,1.261 -0.434,1.892 l 0.463,0.17 c 0.209,-0.289 0.489,-0.551 0.617,-0.872 1.926,-4.825 4.002,-9.599 5.679,-14.51 1,-2.927 1.337,-6.078 2.031,-9.116 0.939,-4.119 2.037,-8.205 2.885,-12.343 1.629,-7.963 3.171,-15.945 4.678,-23.933 2.756,-14.604 5.431,-29.224 8.202,-43.826 0.865,-4.552 1.925,-9.067 2.912,-13.595 0.115,-0.525 0.338,-1.025 0.82,-1.5 1.503,17.042 3.006,34.084 4.526,51.324 2.179,-0.748 4.045,-2.107 6.368,-1.089 -0.316,0.94 -1.06,0.975 -1.741,1.044 -0.952,0.096 -1.917,0.077 -2.862,0.207 -0.957,0.131 -1.778,0.475 -2.388,1.373 -5.523,8.135 -11.088,16.242 -16.365,24.622 1.984,-1.964 3.969,-3.928 5.952,-5.894 2.102,-2.082 4.327,-4.057 6.269,-6.279 1.871,-2.142 3.449,-4.54 5.218,-6.91 0.092,0.405 0.287,0.952 0.33,1.511 0.877,11.16 1.832,22.314 2.574,33.483 0.891,13.403 1.602,26.818 2.377,40.229 0.045,0.789 -0.048,1.586 -0.078,2.379 h 19.68 c -0.139,-0.941 -0.365,-1.879 -0.407,-2.825 -0.384,-8.709 -0.743,-17.419 -1.095,-26.129 -0.627,-15.502 -1.227,-31.005 -1.87,-46.506 -0.523,-12.625 -1.036,-25.25 -1.658,-37.871 -0.662,-13.419 -1.382,-26.835 -2.203,-40.245 -0.45,-7.341 -1.146,-14.666 -1.764,-21.996 -0.464,-5.495 -1.266,-10.977 -1.421,-16.479 -0.524,-18.639 0.311,-37.262 1.11,-55.88 0.018,-0.436 0.166,-0.866 0.301,-1.54 0.764,0.568 1.339,0.97 1.888,1.406 2.506,1.988 5.003,3.988 7.506,5.981 8.133,6.479 16.266,12.958 24.401,19.433 3.092,2.46 5.816,5.209 7.699,8.764 0.859,1.619 0.811,2.78 -0.264,4.325 -5.572,8.008 -11.023,16.101 -16.478,24.19 -0.753,1.116 -1.352,2.348 -1.915,3.576 -0.405,0.886 -0.553,1.843 0.51,2.754 0.537,-0.571 1.136,-1.087 1.589,-1.708 1.933,-2.646 3.932,-5.254 5.71,-8.003 3.821,-5.908 7.519,-11.896 11.276,-17.846 0.448,-0.711 0.949,-1.389 1.4,-2.044 0.271,0.13 0.382,0.146 0.407,0.201 0.682,1.528 1.247,3.122 2.061,4.576 0.912,1.629 0.781,3.054 0.049,4.735 -4.024,9.24 -7.701,18.616 -10.162,28.414 -0.855,3.407 -1.508,6.867 -2.168,10.32 -0.227,1.192 -0.438,2.501 0.807,3.492 1.484,-1.01 1.537,-2.529 1.905,-3.871 0.802,-2.925 1.328,-5.947 2.37,-8.782 3.116,-8.474 6.423,-16.879 9.668,-25.305 0.192,-0.499 0.489,-0.957 0.821,-1.593 0.325,0.475 0.576,0.778 0.756,1.119 2.026,3.812 4.04,7.63 6.059,11.446 0.262,0.495 0.438,1.078 0.821,1.45 0.266,0.258 0.841,0.35 1.227,0.27 0.187,-0.04 0.343,-0.641 0.354,-0.993 0.01,-0.292 -0.221,-0.589 -0.329,-0.89 -1.939,-5.415 -3.825,-10.85 -5.846,-16.235 -0.58,-1.546 -0.492,-2.853 0.142,-4.347 3.154,-7.43 6.402,-14.83 9.236,-22.383 1.308,-3.485 2.857,-6.763 4.924,-9.806 11.459,-16.867 22.952,-33.712 34.442,-50.558 0.296,-0.435 0.684,-0.808 1.03,-1.21 l 0.472,0.094 c 0.816,19.745 1.632,39.49 2.448,59.22 2.845,-0.458 5.335,-1.108 7.949,-1.355 -0.257,2.977 -0.592,3.31 -3.148,3.438 -1.576,0.078 -3.163,0.113 -4.624,0.944 0,0.809 -0.021,1.524 0.002,2.237 0.175,5.195 0.351,10.39 0.542,15.585 0.784,21.258 1.561,42.516 2.365,63.774 0.789,20.857 1.557,41.716 2.428,62.57 0.764,18.297 1.62,36.591 2.516,54.882 0.32,6.549 0.838,13.088 1.359,19.625 0.15,1.865 0.109,3.809 1.009,5.588 7.256,0.492 14.413,0.282 21.627,-0.017 0.052,-0.522 0.116,-0.83 0.107,-1.136 -0.203,-6.874 -0.531,-13.746 -0.6,-20.621 -0.247,-24.713 -0.423,-49.426 -0.596,-74.14 -0.106,-15.037 -0.156,-30.074 -0.241,-45.112 -0.005,-0.747 -0.1,-1.494 -0.173,-2.509 -3.984,2.248 -7.485,0.109 -11.064,-0.241 -0.358,-0.034 -0.958,-0.619 -0.929,-0.892 0.053,-0.472 0.417,-1.134 0.818,-1.293 0.708,-0.279 1.541,-0.312 2.323,-0.32 2.926,-0.033 5.854,-0.014 9.031,-0.014 0,-1.005 0.007,-2.028 -0.001,-3.051 -0.083,-9.917 -0.146,-19.834 -0.259,-29.75 -0.175,-15.431 -0.228,-30.853 -1.305,-46.272 -1.035,-14.833 -1.439,-29.713 -1.998,-44.577 -0.492,-13.106 -0.811,-26.218 -1.21,-39.327 -0.093,-3.038 -0.264,-6.074 -0.27,-9.112 -0.002,-1.335 -0.66,-1.889 -1.788,-2.101 -0.622,-0.117 -1.273,-0.108 -1.91,-0.115 -1.52,-0.018 -3.045,0.062 -4.559,-0.033 -1.92,-0.121 -2.643,-1.086 -2.497,-3.453 3.469,0.273 6.934,0.544 10.293,0.808 0,-3.365 0.027,-6.705 -0.008,-10.044 -0.035,-3.359 -0.164,-6.717 -0.195,-10.076 -0.03,-3.26 -0.441,-6.529 0.081,-9.819 0.654,0.902 1.108,1.823 1.476,2.777 4.363,11.338 8.714,22.681 13.067,34.023 10.167,26.492 20.409,52.954 32.095,78.83 5.867,12.993 12.398,25.604 20.538,37.358 4.187,6.046 8.03,12.329 12.093,18.462 0.773,1.168 1.09,2.209 0.522,3.547 -0.497,1.172 -0.837,2.415 -1.203,3.64 -2.238,7.501 -4.522,14.989 -6.661,22.517 -0.653,2.294 -1.175,4.724 -0.543,7.107 1.341,5.062 1.725,10.249 2.106,15.423 0.653,8.852 1.089,17.718 1.679,26.575 0.111,1.665 0.478,3.318 0.808,4.961 0.094,0.473 0.468,0.89 0.916,1.696 0.356,-0.953 0.712,-1.51 0.753,-2.088 0.13,-1.833 0.28,-3.681 0.178,-5.51 -0.706,-12.694 -1.518,-25.381 -2.191,-38.077 -0.164,-3.095 -0.297,-6.269 0.187,-9.305 1.206,-7.561 4.916,-14.134 8.867,-20.558 0.093,-0.151 0.386,-0.179 0.882,-0.391 4.161,7.222 8.326,14.41 12.449,21.623 1.797,3.145 2.911,6.567 3.84,10.053 0.469,1.756 0.946,3.51 1.418,5.265 v -19.2 c -0.12,-0.096 -0.288,-0.167 -0.354,-0.291 -3.819,-7.199 -7.284,-14.614 -11.521,-21.558 -7.119,-11.669 -14.739,-23.031 -22.126,-34.538 -3.927,-6.119 -8.245,-12.002 -11.403,-18.594 -0.334,-0.698 -0.633,-1.413 -1.134,-2.538 2.952,0.161 5.489,0.274 8.021,0.443 3.109,0.207 6.216,0.638 9.324,0.647 3.643,0.011 5.578,-1.557 6.81,-4.973 0.244,-0.675 0.413,-1.377 0.618,-2.066 0.374,-1.259 0.141,-2.251 -0.898,-3.209 -2.319,-2.137 -4.986,-3.482 -8.09,-3.861 -7.575,-0.923 -15.244,4.096 -15.936,11.511 -0.006,0.063 -0.225,0.107 -0.464,0.212 -0.334,-0.703 -0.708,-1.398 -1.003,-2.125 -2.047,-5.035 -4.18,-10.037 -6.096,-15.121 -7.274,-19.304 -13.448,-38.98 -19.678,-58.636 -5.433,-17.142 -10.825,-34.297 -16.406,-51.39 -2.554,-7.822 -5.628,-15.472 -8.269,-23.266 -2.886,-8.517 -4.8,-17.271 -4.993,-26.294 -0.247,-11.514 -0.386,-23.032 -0.399,-34.548 -0.009,-9.916 0.123,-19.835 0.368,-29.748 0.535,-21.59 1.393,-43.17 3.734,-64.651 1.126,-10.326 2.436,-20.646 4.138,-30.89 2.83,-17.04 5.332,-34.119 7.31,-51.277 0.052,-0.446 -0.033,-0.909 -0.058,-1.441 -2.496,-0.26 -4.874,-0.479 -7.244,-0.766 -1.106,-0.135 -2.241,-0.283 -3.275,-0.663 -0.467,-0.171 -1.026,-0.952 -0.983,-1.403 0.042,-0.446 0.745,-0.903 1.248,-1.204 0.303,-0.183 0.779,-0.089 1.178,-0.103 3.345,-0.116 6.595,0.091 9.204,3.312 0.219,-1.219 0.399,-1.897 0.455,-2.585 1.436,-17.292 3.034,-34.573 4.232,-51.881 1.054,-15.237 1.686,-30.503 2.452,-45.76 0.935,-18.61 2.136,-37.189 4.257,-55.72 1.572,-13.736 2.447,-27.557 3.426,-41.356 0.972,-13.72 1.687,-27.459 2.515,-41.189 z"
       style="fill:#fb8b24;fill-opacity:1;fill-rule:nonzero;stroke:none"
       id="path22" /><path
       d="m 166.206,568.1246 c 2.745,-0.567 3.658,-0.458 5.091,0.658 -1.158,1.403 -2.739,1.12 -4.185,0.982 -0.77,-0.074 -1.124,-0.803 -0.906,-1.64 m 5.244,-43.108 c 3.348,-0.366 4.606,0.465 4.651,3.016 -2.012,-0.168 -3.567,-0.997 -4.651,-3.016 M 25.448,631.5486 c 0.876,0.794 1.418,1.285 2.111,1.913 -0.652,0.45 -1,0.785 -1.416,0.96 -1.215,0.512 -2.562,0.625 -3.507,1.831 -0.475,0.607 -1.447,0.388 -2.141,-0.386 0.886,-2.328 3.571,-2.297 4.953,-4.318 M 163.58,420.2296 c -1.026,-0.334 -1.861,-0.359 -2.275,-0.79 -1.19,-1.233 -0.5,-2.654 -0.118,-4.025 0.319,-1.144 0.403,-2.444 1.967,-2.615 0.709,-0.076 1.428,-0.067 2.142,-0.089 0.943,-0.028 1.782,0.193 2.077,1.21 0.299,1.032 0.317,2.073 -0.599,2.85 -0.418,0.355 -0.894,0.709 -1.404,0.871 -1.079,0.338 -1.758,0.955 -1.79,2.588 m -10.557,-229.654 c 1.189,0.064 1.909,0.055 2.616,0.148 1.717,0.226 2.664,0.973 2.57,1.96 -0.085,0.894 -0.943,1.319 -2.67,1.476 -2.053,0.187 -4.097,0.465 -6.147,0.688 -0.63,0.068 -1.322,0.26 -1.882,0.078 -0.593,-0.193 -1.298,-0.67 -1.508,-1.2 -0.163,-0.413 0.222,-1.23 0.61,-1.622 0.412,-0.416 1.094,-0.659 1.697,-0.775 1.712,-0.329 3.444,-0.556 4.714,-0.753 m -26.894,16.052 c 0.93,-2.459 1.989,-3.096 4.231,-3.099 3.284,-0.003 5.854,1.939 8.737,3.015 0.957,0.357 0.943,1.61 -0.039,2.054 -0.83,0.374 -1.888,0.639 -2.745,0.465 -1.459,-0.297 -2.933,-0.812 -4.229,-1.541 -1.613,-0.907 -3.183,-1.442 -5.015,-0.951 -0.28,0.075 -0.59,0.038 -0.94,0.057 m 35.289,281.132 c -0.561,-0.191 -1.613,-0.287 -2.309,-0.836 -1.938,-1.526 -3.75,-3.216 -5.552,-4.904 -0.282,-0.264 -0.485,-0.998 -0.321,-1.263 0.248,-0.398 0.851,-0.792 1.307,-0.796 0.771,-0.007 1.633,0.13 2.303,0.492 2.294,1.238 4.524,2.596 6.769,3.922 0.198,0.117 0.361,0.318 0.498,0.509 0.777,1.081 0.409,2.228 -0.88,2.635 -0.446,0.141 -0.941,0.132 -1.815,0.241 m -118.999,214.93 c -0.344,0.06 -0.825,0.306 -1.148,0.171 -2.002,-0.829 -4.074,-0.574 -6.144,-0.569 -2.143,0.005 -4.288,-0.089 -6.43,-0.188 -0.236,-0.012 -0.457,-0.342 -0.73,-0.561 0.654,-1.362 1.842,-1.528 3.015,-1.757 0.768,-0.151 1.748,-0.146 2.239,-0.619 1.958,-1.886 4.298,-1.382 6.568,-1.271 1.02,0.049 1.807,0.634 2.042,1.718 0.207,0.955 0.369,1.92 0.588,3.076 m 91.92,-424.84 c 0.531,-0.467 0.967,-1.074 1.554,-1.324 1.609,-0.685 3.242,-1.428 4.941,-1.757 1.697,-0.329 3.495,-0.324 5.23,-0.202 1.461,0.102 2.957,1.812 2.718,2.87 -0.338,1.498 -1.704,1.211 -2.737,1.332 -2.769,0.324 -5.55,0.546 -8.325,0.816 -1.381,0.135 -2.458,-0.333 -3.381,-1.735 m -114.165,5.94 c -1.02,-1.274 -0.41,-2.17 0.573,-2.596 2.016,-0.874 4.089,-1.959 6.213,-2.154 3.041,-0.279 6.151,0.129 9.228,0.31 1.158,0.067 1.615,1.142 0.868,2.036 -0.318,0.38 -0.901,0.681 -1.398,0.745 -1.651,0.21 -3.323,0.257 -4.978,0.436 -3.509,0.38 -7.151,-0.569 -10.506,1.223 m 94.153,-234.734 c 0.62,-1.649 1.683,-2.208 3.125,-2.524 2.651,-0.578 5.188,-0.539 7.761,0.405 1.847,0.678 3.724,0.792 5.483,-0.502 0.458,-0.336 1.205,-0.398 1.814,-0.382 1.243,0.03 1.698,0.738 1.361,1.913 -0.42,1.463 -1.515,2.334 -3.267,2.237 -2.107,-0.115 -4.089,0.31 -6.134,0.722 -3.568,0.721 -6.884,-0.405 -10.143,-1.869 m -86.787,20.379 0.001,-0.273 c 0.795,0.038 1.606,-0.011 2.382,0.134 1.215,0.227 2.311,1.627 2.227,2.768 -0.1,1.367 -1.223,1.57 -2.233,1.735 -1.794,0.294 -3.571,0.573 -5.422,0.072 -2.204,-0.597 -4.386,-0.642 -6.346,0.974 -0.564,0.465 -1.473,0.664 -2.234,0.687 -0.511,0.017 -1.202,-0.376 -1.497,-0.803 -0.163,-0.237 0.204,-1.039 0.54,-1.382 1.109,-1.135 2.285,-2.208 3.495,-3.236 0.395,-0.336 0.967,-0.634 1.467,-0.647 2.538,-0.065 5.079,-0.029 7.62,-0.029 m -16.902,107.478 c 0.631,-0.654 1.01,-1.258 1.555,-1.574 1.932,-1.121 3.909,-2.17 5.898,-3.187 0.473,-0.242 1.062,-0.267 1.602,-0.369 1.778,-0.334 3.2,0.496 4.684,1.314 1.812,0.998 3.735,1.794 5.604,2.688 0.981,0.47 1.346,1.274 1.305,2.344 -0.041,1.062 -0.845,1.197 -1.587,1.498 -2.746,1.115 -5.352,0.626 -7.758,-0.844 -1.69,-1.032 -3.362,-1.315 -5.255,-0.858 -1.918,0.464 -3.78,0.249 -6.048,-1.012 m 106.628,517.698 c -0.852,-2.892 -1.564,-5.419 -2.339,-7.926 -2.997,-9.703 -7.167,-18.951 -10.973,-28.342 -1.646,-4.06 -2.962,-8.254 -4.366,-12.408 -0.28,-0.827 -0.587,-1.753 0.001,-2.988 5.785,5.691 9.529,12.495 13.698,18.981 4.176,6.496 8.28,13.039 12.42,19.569 -2.734,4.248 -5.451,8.468 -8.441,13.114 M 132.48,-4e-4 c -1.009,0.136 -2.016,0.37 -3.027,0.391 -4.318,0.084 -8.638,0.101 -12.957,0.152 -0.782,0.01 -1.563,0.065 -2.581,0.11 -0.199,2.162 -0.449,4.208 -0.567,6.262 -0.807,13.994 -0.314,27.985 0.19,41.973 0.293,8.151 0.704,16.3 1.175,24.443 0.699,12.057 1.465,24.108 2.266,36.158 0.648,9.736 1.353,19.467 2.105,29.195 0.851,11.003 1.772,22 2.683,32.999 0.673,8.129 1.358,16.256 2.074,24.381 0.892,10.117 1.813,20.231 2.738,30.344 0.836,9.158 1.678,18.316 2.55,27.47 1.033,10.826 2.09,21.65 3.158,32.473 0.847,8.594 1.714,17.186 2.595,25.778 1.044,10.182 2.098,20.362 3.174,30.54 1,9.463 2.002,18.925 3.062,28.38 1.363,12.157 2.722,24.315 4.199,36.458 1.351,11.11 3.032,22.181 4.241,33.306 0.95,8.741 1.62,17.525 2.028,26.309 0.791,17.015 1.326,34.042 1.928,51.065 0.127,3.597 0.171,7.201 0.106,10.798 -0.144,7.944 0.704,15.819 1.66,23.676 1.621,13.333 3.384,26.649 5.112,39.968 1.44,11.1 2.889,22.199 4.411,33.288 0.191,1.394 -0.097,2.43 -0.917,3.526 -7.334,9.796 -14.638,19.615 -21.929,29.444 -2.811,3.79 -5.554,7.631 -8.354,11.429 -0.456,0.62 -1.045,1.14 -1.573,1.706 l 0.083,-0.078 c -1.352,2.141 -2.703,4.283 -4.289,6.795 -0.672,-0.899 -1.146,-1.483 -1.565,-2.103 -14.277,-21.139 -28.619,-42.234 -42.797,-63.439 -10.443,-15.62 -20.654,-31.395 -31.017,-47.07 -1.031,-1.559 -1.282,-3.071 -1.195,-4.926 0.477,-10.062 0.955,-20.129 1.111,-30.2 0.31,-19.91 0.428,-39.822 0.588,-59.734 0.118,-14.635 0.195,-29.27 0.257,-43.905 0.065,-15.596 0.068,-31.193 0.143,-46.79 0.031,-6.475 0.422,-12.958 0.214,-19.424 -0.34,-10.627 -0.97,-21.246 -1.601,-31.861 -0.607,-10.216 -1.337,-20.426 -2.074,-30.634 -0.703,-9.729 -1.485,-19.453 -2.231,-29.179 -0.685,-8.929 -1.366,-17.859 -2.057,-26.786 -0.747,-9.647 -1.53,-19.291 -2.248,-28.938 -0.719,-9.648 -1.408,-19.299 -2.057,-28.952 -0.954,-14.201 -1.833,-28.407 -2.795,-42.608 -0.815,-12.046 -1.691,-24.088 -2.561,-36.131 -0.887,-12.282 -1.821,-24.56 -2.694,-36.843 -0.561,-7.896 -1.049,-15.797 -1.572,-23.696 -0.051,-0.786 -0.12,-1.571 -0.173,-2.242 -0.263,-0.197 -0.389,-0.372 -0.513,-0.371 -2.642,0.038 -5.196,-0.582 -7.786,-0.919 -2.802,-0.364 -5.73,0.149 -8.595,0.387 -1.794,0.148 -3.448,0.013 -5.114,-0.814 -0.953,-0.474 -2.158,-0.535 -3.259,-0.6 C 4.159,40.8386 2.078,40.8466 0,40.8006 v 95.04 c 0.277,1.643 0.714,3.278 0.806,4.931 0.722,13.093 1.314,26.192 2.075,39.282 0.598,10.295 1.228,20.592 2.119,30.865 1.043,12.023 2.183,24.045 3.65,36.022 1.594,13.006 3.287,26.016 5.522,38.922 3.47,20.036 5.818,40.177 7.063,60.459 0.141,2.305 0.338,4.606 0.523,7.108 1.072,0.131 2.083,0.283 3.1,0.371 1.4,0.121 2.544,0.553 3.534,1.698 0.976,1.132 2.279,1.985 3.457,2.939 0.433,0.35 0.956,0.593 1.373,0.96 0.847,0.746 1.11,2.001 0.623,2.804 -0.569,0.937 -1.491,0.865 -2.35,0.664 -0.603,-0.142 -1.256,-0.404 -1.707,-0.811 -2.146,-1.937 -4.827,-2.339 -7.64,-2.863 0,1.195 -0.024,2.299 0.004,3.403 0.4,16.223 0.928,32.445 1.171,48.671 0.158,10.549 -0.075,21.105 -0.175,31.658 -0.039,4.156 -0.066,8.319 -0.323,12.465 -0.527,8.516 -2.574,16.736 -5.346,24.768 -2.945,8.534 -6.146,16.98 -9.064,25.523 -2.504,7.333 -4.752,14.753 -7.161,22.119 -0.25,0.763 -0.106,1.853 -1.254,2.121 v 36 c 0.467,-0.818 1.045,-1.593 1.384,-2.462 2.753,-7.077 5.459,-14.171 8.183,-21.259 3.93,-10.221 7.859,-20.442 11.802,-30.657 0.322,-0.834 0.749,-1.628 1.127,-2.441 0.175,0.049 0.35,0.097 0.525,0.146 0,0.687 0.016,1.374 -0.002,2.061 -0.232,8.633 -0.442,17.267 -0.71,25.899 -0.661,21.262 -1.319,42.524 -2.039,63.784 -0.341,10.071 -0.669,20.145 -1.279,30.201 -0.687,11.335 -1.435,22.663 -1.524,34.023 -0.159,20.554 -0.343,41.109 -0.468,61.663 -0.097,15.998 -0.085,31.996 -0.189,47.994 -0.115,17.995 -0.31,35.989 -0.458,53.984 -0.03,3.509 -0.005,7.019 -0.005,10.534 0.831,-0.104 1.581,-0.299 2.32,-0.267 1.093,0.047 2.176,0.347 3.268,0.377 2.109,0.059 2.254,0.275 1.164,2.661 -2.165,-0.284 -4.42,-0.579 -6.909,-0.905 v 13.009 c 0.584,-0.123 1.213,-0.406 1.808,-0.346 0.739,0.075 1.666,0.227 2.126,0.711 1.001,1.052 2.145,1.266 3.471,1.247 1.438,-0.02 2.882,-0.018 4.315,0.086 0.633,0.046 1.52,0.035 1.437,1.222 -2.585,0.213 -5.109,0.13 -7.611,-0.545 -1.916,-0.517 -3.856,-0.922 -5.922,-0.075 v 5.861 h 21.871 c 0.236,-1.789 0.542,-3.428 0.656,-5.08 0.64,-9.334 1.356,-18.665 1.818,-28.009 0.892,-18.051 1.684,-36.108 2.424,-54.167 0.848,-20.695 1.606,-41.394 2.382,-62.092 0.988,-26.372 1.937,-52.746 2.934,-79.118 0.667,-17.662 1.383,-35.321 2.091,-52.981 0.069,-1.712 0.236,-3.42 0.396,-5.678 0.758,0.948 1.169,1.401 1.512,1.9 9.7,14.1 19.436,28.174 29.068,42.321 4.81,7.065 9.236,14.275 12.049,22.521 2.936,8.604 7.02,16.81 10.398,25.272 3.821,9.573 7.415,19.237 11.108,28.861 0.564,1.471 0.887,2.915 -0.482,4.163 l -0.004,-0.036 c -0.368,0.884 -0.727,1.77 -1.103,2.65 -7.324,17.121 -14.803,34.177 -21.915,51.385 -4.18,10.11 -7.783,20.459 -11.626,30.707 -0.307,0.818 -0.53,1.68 -0.661,2.541 -0.043,0.284 0.27,0.811 0.53,0.897 0.263,0.087 0.711,-0.171 0.985,-0.394 0.23,-0.186 0.329,-0.536 0.482,-0.817 1.411,-2.598 2.954,-5.135 4.21,-7.808 5.948,-12.656 11.924,-25.301 17.682,-38.045 4.804,-10.632 9.313,-21.398 13.978,-32.093 0.304,-0.699 0.711,-1.732 1.257,-1.87 1.352,-0.341 1.421,-1.329 1.307,-2.197 -0.185,-1.402 0.314,-2.519 0.988,-3.606 3.495,-5.638 6.727,-11.467 10.584,-16.848 11.273,-15.727 22.797,-31.274 34.23,-46.886 0.21,-0.286 0.518,-0.501 1.024,-0.978 0.2,1.84 0.433,3.323 0.512,4.815 0.81,15.17 1.759,30.336 2.347,45.515 0.835,21.573 1.472,43.153 2.055,64.734 0.48,17.744 0.745,35.494 1.15,53.24 0.037,1.608 -0.396,2.897 -1.353,4.187 -7.777,10.485 -16.385,20.273 -25.084,29.985 -0.498,0.556 -1.241,1.029 -1.958,1.229 -3.674,1.029 -6.955,2.816 -10.04,4.999 -6.577,4.655 -12.22,10.292 -17.272,16.541 -0.446,0.552 -0.765,1.207 -1.144,1.814 h 6.72 c 0.339,-0.437 0.691,-0.864 1.014,-1.312 4.84,-6.709 11.413,-11.242 18.711,-14.845 0.949,-0.468 2.014,-0.698 3.01,-1.034 0.271,5.933 0.528,11.563 0.785,17.191 h 3.36 c 0.493,-0.374 0.986,-0.749 1.471,-1.117 0,-3.778 -0.27,-7.55 0.054,-11.271 0.798,-9.181 -0.187,-7.198 5.354,-14.038 5.126,-6.326 10.319,-12.597 15.49,-18.886 0.225,-0.273 0.522,-0.487 1.135,-1.048 0,2.107 0,3.758 0,5.409 0.006,13.651 0.011,27.301 0.016,40.951 h 20.16 c 0.085,-4.553 0.342,-9.111 0.223,-13.66 -0.298,-11.43 -0.725,-22.858 -1.175,-34.284 -0.561,-14.223 -1.225,-28.442 -1.79,-42.665 -0.454,-11.427 -0.832,-22.856 -1.233,-34.285 -0.154,-4.395 -0.28,-8.792 -0.41,-13.188 -0.025,-0.834 -0.003,-1.669 0.4,-2.585 0.196,0.306 0.419,0.599 0.586,0.92 10.056,19.369 20.14,38.723 30.132,58.124 2.23,4.331 4.175,8.812 6.177,13.258 1.938,4.305 3.612,8.707 4.537,13.365 0.248,1.249 0.637,2.48 1.086,3.673 0.295,0.782 0.812,1.479 1.311,2.358 1.285,-0.881 1.42,-1.99 1.436,-3.067 0.044,-2.797 0.003,-5.594 -0.004,-8.391 -0.002,-0.781 0,-1.562 0,-2.643 1.143,0.192 2.18,0.215 3.105,0.548 3.307,1.188 6.564,2.517 9.864,3.725 3.072,1.125 6.161,2.208 9.273,3.213 0.857,0.277 1.826,0.21 3.272,0.353 -0.604,-0.861 -0.811,-1.373 -1.19,-1.654 -0.896,-0.663 -1.848,-1.265 -2.825,-1.806 -5.608,-3.104 -11.456,-5.675 -17.498,-7.808 -0.752,-0.266 -1.52,-0.652 -2.29,-0.677 -2.798,-0.09 -4.166,-1.85 -5.296,-4.098 -4.449,-8.855 -9.194,-17.571 -13.385,-26.545 -9.438,-20.203 -18.6,-40.535 -27.911,-60.798 -0.925,-2.012 -1.348,-4.037 -1.282,-6.249 0.071,-2.371 -0.089,-4.749 -0.147,-7.1 -1.51,-0.444 -2.581,0.177 -3.717,0.484 -1.92,0.518 -3.851,1.025 -5.806,1.371 -0.889,0.157 -1.848,-0.081 -2.807,-0.142 0.622,-3.144 2.164,-4.505 4.846,-4.479 1.28,0.012 2.561,0.067 3.839,0.034 1.383,-0.036 2.568,0.222 3.294,1.724 0.478,-3.006 0.15,-5.971 0.139,-8.923 -0.01,-3.039 -0.068,-6.078 -0.14,-9.116 -0.071,-2.957 -0.198,-5.913 -0.277,-8.871 -0.081,-3.037 -0.113,-6.077 -0.205,-9.115 -0.091,-3.037 -0.236,-6.072 -0.345,-9.109 -0.109,-3.037 -0.198,-6.075 -0.305,-9.112 -0.108,-3.037 -0.219,-6.073 -0.343,-9.11 -0.121,-2.956 -0.254,-5.912 -0.394,-8.867 -0.144,-3.036 -0.299,-6.071 -0.456,-9.106 -0.154,-2.981 -0.316,-5.962 -0.049,-9.028 0.317,0.699 0.64,1.396 0.951,2.098 4.047,9.132 8.065,18.276 12.158,27.387 0.882,1.963 2.02,3.813 3.069,5.699 0.469,0.843 0.976,1.805 2.192,1.343 1.199,-0.454 1.029,-1.498 0.772,-2.448 -0.982,-3.623 -1.744,-7.331 -3.054,-10.833 -2.854,-7.632 -5.995,-15.158 -9.016,-22.727 -0.317,-0.795 -0.623,-1.594 -0.965,-2.47 0.323,0.042 0.516,0.008 0.585,0.085 8.35,9.22 17.696,17.37 27.419,25.07 11.12,8.806 21.252,18.699 31.689,28.255 2.465,2.257 4.495,4.987 6.731,7.493 0.526,0.589 1.081,1.152 2.005,1.536 -0.314,-0.758 -0.593,-1.532 -0.946,-2.272 -2.812,-5.894 -6.65,-11.1 -10.855,-16.051 -6.338,-7.462 -13.451,-14.128 -21.009,-20.33 -8.471,-6.951 -16.99,-13.846 -24.79,-21.568 -6.788,-6.722 -12.969,-13.924 -17.676,-22.302 -0.84,-1.495 -1.33,-3.034 -1.476,-4.745 -0.823,-9.639 -1.492,-19.298 -2.606,-28.905 -1.105,-9.522 -2.79,-18.975 -4.002,-28.486 -0.888,-6.973 -1.746,-13.977 -2.055,-20.991 -1.007,-22.848 -1.747,-45.707 -2.611,-68.561 -0.169,-4.473 -0.187,-8.973 -0.713,-13.41 -0.707,-5.945 -1.82,-11.844 -2.795,-17.757 -2.174,-13.172 -4.556,-26.325 -5.212,-39.683 -0.451,-9.182 -0.6,-18.383 -0.702,-27.576 -0.282,-25.351 -0.417,-50.704 -0.71,-76.054 -0.202,-17.512 -0.433,-35.025 -0.913,-52.53 -0.31,-11.348 -1.075,-22.684 -1.665,-34.024 -0.498,-9.583 -1.025,-19.165 -1.562,-28.746 -0.737,-13.174 -1.499,-26.347 -2.245,-39.52 -0.525,-9.261 -1.046,-18.523 -1.56,-27.786 -0.616,-11.098 -1.261,-22.195 -1.823,-33.297 -0.562,-11.1 -1.038,-22.206 -1.552,-33.309 -0.037,-0.791 -0.08,-1.581 -0.127,-2.506 -2.09,-0.255 -4.111,-0.501 -6.131,-0.748 z"
       style="fill:#fb8b24;fill-opacity:1;fill-rule:nonzero;stroke:none"
       id="path26" /><path
       d="m 482.6997,493.7711 c -0.522,1.422 -1.325,2.005 -2.416,1.996 -0.412,-0.003 -1.085,-0.463 -1.155,-0.813 -0.073,-0.356 0.396,-1.138 0.724,-1.196 0.861,-0.153 1.774,-0.014 2.847,0.013 m -189.758,221.086 c 1.384,-0.15 2.761,-0.351 4.145,-0.432 1.024,-0.059 1.357,0.545 1.318,2.216 -1.231,0.139 -2.474,0.357 -3.722,0.402 -1.461,0.053 -1.819,-0.47 -1.741,-2.186 m 15.887,-469.353 c -2.331,1.007 -4.507,0.936 -6.689,0.639 -0.239,-0.033 -0.581,-0.584 -0.564,-0.877 0.017,-0.294 0.414,-0.801 0.661,-0.81 1.896,-0.075 3.796,-0.081 5.693,-0.019 0.241,0.008 0.464,0.532 0.899,1.067 m -12.58,-42.944 c 0.639,0 1.346,-0.096 2.017,0.019 2.035,0.346 4.007,0.769 6.045,-0.216 1.021,-0.493 1.323,0.39 1.347,1.398 -1.202,0.248 -2.337,0.552 -3.493,0.704 -1.486,0.197 -2.987,0.361 -4.484,0.373 -1.288,0.011 -1.856,-0.727 -1.432,-2.278 m 191.893,492.924 c 1.328,-1.185 3.991,-2.108 5.5,-1.764 0.609,0.138 1.23,0.395 1.732,0.755 0.34,0.244 0.737,0.83 0.654,1.141 -0.121,0.456 -0.611,1.08 -1.015,1.138 -0.826,0.119 -1.714,-0.011 -2.547,-0.184 -1.424,-0.296 -2.825,-0.703 -4.324,-1.086 m -186.99,-460.642 c 0.487,-1.457 0.734,-2.345 1.079,-3.193 0.944,-2.318 1.986,-2.579 3.789,-0.866 0.578,0.549 0.909,1.356 1.555,2.357 -2.181,0.577 -3.978,1.054 -6.423,1.702 m -1.482,241.91 c 2.009,-0.383 2.343,-0.303 3.355,0.685 0.379,0.37 0.726,0.823 1.181,1.055 1.847,0.942 1.938,1.122 1.191,3.22 -2.799,0.143 -4.958,-1.674 -5.727,-4.96 m -4.635,-132.433 c 0.479,-1.362 1.137,-2.629 2.919,-2.58 1.801,0.049 3.105,0.914 3.976,2.408 -2.214,3.117 -4.516,1.224 -6.895,0.172 m -1.77,-194.961 c 0.143,-0.805 0.081,-1.352 0.322,-1.662 1.345,-1.733 3.216,-2.574 5.358,-2.617 1.127,-0.024 1.896,0.802 2.162,1.904 0.12,0.497 0.196,1.316 -0.071,1.522 -0.409,0.317 -1.323,0.513 -1.683,0.265 -1.242,-0.854 -2.429,-0.437 -3.646,-0.149 -0.688,0.164 -1.357,0.406 -2.442,0.737 m 5.77,112.259 c 0.493,-0.564 0.927,-1.37 1.602,-1.765 1.287,-0.753 2.667,-1.414 4.09,-1.851 1.822,-0.56 2.699,-0.015 3.689,1.848 -2.29,0.848 -4.576,1.715 -6.879,2.537 -0.854,0.305 -1.722,0.407 -2.502,-0.769 m 177.885,-138.978 c 0.339,1.292 -0.388,1.936 -1.196,2.186 -2.402,0.745 -4.855,1.326 -7.294,1.949 -0.075,0.019 -0.21,-0.201 -0.32,-0.312 0.783,-3.517 4.276,-5.056 8.81,-3.823 m -166.624,340.524 c -0.898,0.232 -1.67,0.366 -2.394,0.629 -2.572,0.937 -3.862,0.52 -5.019,-1.797 -0.217,-0.434 -0.335,-1.169 -0.11,-1.501 0.233,-0.345 0.957,-0.549 1.435,-0.501 1.265,0.127 2.514,0.42 3.768,0.654 1.853,0.346 1.853,0.348 2.32,2.516 m -30.356,-430.649 c 1.207,0.12 2.365,0.305 3.528,0.332 1.174,0.027 2.492,0.218 3.503,-0.222 3.319,-1.449 6.976,-0.706 10.339,-1.829 1.072,-0.357 1.993,0.526 2.297,1.623 0.363,1.304 0.055,2.317 -1.135,2.735 -1.486,0.521 -3.115,0.645 -4.588,1.193 -3.279,1.219 -6.64,0.75 -9.971,0.649 -2.466,-0.076 -3.707,-1.526 -3.973,-4.481 m 158.3,-32.514 c -0.053,3.437 -0.137,6.873 -0.153,10.31 -0.098,20 0.569,39.982 1.49,59.956 0.537,11.664 1.019,23.331 1.62,34.991 0.679,13.178 1.453,26.351 2.203,39.525 0.678,11.897 1.356,23.794 2.077,35.687 0.712,11.735 1.478,23.465 2.223,35.197 0.684,10.774 1.363,21.548 2.058,32.323 0.736,11.412 1.489,22.823 2.232,34.234 0.53,8.14 1.086,16.278 1.575,24.42 0.699,11.654 1.182,23.324 2.066,34.964 0.824,10.841 2.038,21.651 3.106,32.474 0.989,10.025 2.003,20.048 3.024,30.071 1.06,10.42 2.151,20.837 3.21,31.258 1.034,10.182 2.045,20.367 3.063,30.551 1.042,10.422 2.08,20.845 3.12,31.267 0.149,1.483 0.302,2.966 0.501,4.933 1.502,-1.955 3.023,-2.79 5.128,-2.598 1.879,0.17 3.328,1.03 4.706,2.15 0.652,0.532 1.149,1.195 0.683,2.077 -0.501,0.95 -1.209,1.929 -2.402,1.571 -2.558,-0.768 -5.061,-0.244 -7.743,0.028 2.72,32.874 6.824,65.656 7.05,98.796 -5.185,3.57 -8.403,8.732 -11.65,13.89 -8.687,13.799 -19.793,25.266 -33.336,34.36 -0.652,0.437 -1.333,0.828 -2.156,1.336 -0.536,-0.815 -1.021,-1.522 -1.475,-2.249 -12.656,-20.251 -28.451,-37.585 -47.989,-51.394 -12.125,-8.57 -25.268,-15.024 -39.809,-18.383 -1.411,-0.326 -1.923,-1.177 -2.372,-2.349 -4.744,-12.39 -9.577,-24.746 -14.254,-37.161 -4.623,-12.27 -9.314,-24.508 -14.807,-36.42 -0.825,-1.791 -1.163,-3.577 -1.115,-5.55 0.541,-22.305 1.046,-44.61 1.521,-66.916 0.491,-23.107 1.048,-46.213 1.366,-69.322 0.25,-18.152 0.338,-36.31 0.19,-54.462 -0.081,-9.908 -0.668,-19.819 -1.274,-29.713 -0.478,-7.817 -1.438,-15.604 -1.997,-23.418 -0.686,-9.571 -1.224,-19.154 -1.741,-28.736 -0.648,-11.978 -1.237,-23.96 -1.802,-35.943 -0.554,-11.743 -1.06,-23.488 -1.566,-35.233 -0.612,-14.222 -1.215,-28.443 -1.798,-42.667 -0.387,-9.429 -0.724,-18.859 -1.099,-28.289 -0.687,-17.259 -1.41,-34.516 -2.068,-51.776 -0.37,-9.668 -0.632,-19.34 -0.962,-29.009 -0.055,-1.596 -0.213,-3.188 -0.324,-4.781 h -26.88 c 0.158,7.995 0.12,15.999 0.52,23.981 0.57,11.34 1.422,22.666 2.231,33.992 0.616,8.614 1.364,17.22 2.032,25.83 0.768,9.887 1.535,19.774 2.255,29.664 0.29,3.988 0.451,7.985 0.673,11.977 0.053,0.943 0.113,1.886 0.181,3.02 1.652,0 3.149,-0.009 4.644,0.005 0.639,0.007 1.292,-0.008 1.913,0.118 1.033,0.209 1.745,1.455 1.396,2.394 -0.379,1.016 -1.276,0.968 -2.009,0.661 -1.783,-0.745 -3.554,-1.385 -5.546,-0.995 -0.07,0.107 -0.227,0.236 -0.229,0.367 -0.138,8.152 -0.534,16.311 -0.318,24.453 0.25,9.428 0.955,18.848 1.62,28.26 0.615,8.694 1.407,17.376 2.178,26.059 0.863,9.716 1.783,19.429 2.693,29.142 0.857,9.156 1.727,18.311 2.604,27.464 0.885,9.233 1.855,18.46 2.662,27.699 1.059,12.107 2.287,24.194 2.652,36.361 0.549,18.304 1.472,36.598 2.193,54.898 0.592,15.025 1.122,30.051 1.68,45.076 0.041,1.119 -0.023,2.255 0.146,3.354 0.534,3.462 -0.219,6.663 -1.787,9.723 -4.301,8.395 -8.587,16.797 -12.919,25.175 -1.542,2.983 -3.255,5.877 -4.785,8.865 -1.805,3.525 -4.458,6.207 -7.769,8.303 -4.234,2.679 -8.84,4.55 -13.68,5.665 -7.003,1.614 -14.08,2.917 -21.131,4.32 -2.822,0.562 -5.662,1.031 -8.49,1.562 -0.627,0.118 -1.353,0.166 -1.824,0.523 -0.494,0.374 -0.986,1.073 -1.003,1.644 -0.013,0.41 0.719,1.152 1.185,1.209 1.494,0.183 3.043,0.302 4.526,0.109 3.485,-0.454 6.947,-1.095 10.415,-1.676 6.543,-1.097 13.096,-2.131 19.617,-3.343 2.661,-0.494 5.248,-1.385 7.87,-2.09 0.506,-0.136 1.019,-0.248 1.894,-0.459 -0.541,1.195 -0.904,2.054 -1.312,2.892 -2.488,5.112 -4.582,10.348 -6.008,15.886 -1.987,7.712 -5.59,14.795 -9.345,21.767 -6.547,12.156 -14.186,23.563 -23.665,33.669 -0.503,0.537 -1.508,1.077 -0.786,1.955 0.695,0.847 1.444,0.008 2.116,-0.33 4.96,-2.499 8.744,-6.429 12.43,-10.427 12.546,-13.609 21.299,-29.263 25.57,-47.374 0.744,-3.159 1.989,-6.272 3.46,-9.175 5.457,-10.766 11.087,-21.444 16.686,-32.137 2.817,-5.38 5.706,-10.723 8.759,-16.453 0.173,0.784 0.366,1.246 0.362,1.706 -0.105,13.277 -0.202,26.554 -0.361,39.83 -0.103,8.637 -0.233,17.275 -0.47,25.908 -0.561,20.466 -1.046,40.935 -1.839,61.393 -0.761,19.659 -1.757,39.31 -2.867,58.953 -0.752,13.332 -1.72,26.657 -2.89,39.96 -0.944,10.75 -2.311,21.463 -3.531,32.188 -1.157,10.168 -2.361,20.331 -3.555,30.495 -1.185,10.085 -2.387,20.167 -3.573,30.252 -1.214,10.323 -2.43,20.646 -3.622,30.971 -1.044,9.055 -2.084,18.111 -3.075,27.172 -1.042,9.538 -2.025,19.082 -3.023,28.625 -0.04,0.379 0.033,0.77 0.067,1.426 3.774,0.217 7.481,0.431 11.12,0.641 1.331,-18.433 4.248,-36.321 6.535,-54.645 0.601,0.569 1.007,0.886 1.331,1.272 8.72,10.398 12.786,22.561 13.467,35.954 0.215,4.226 0.112,8.468 0.167,12.703 0.005,0.434 0.093,0.868 0.392,1.325 0.967,-2.832 1.446,-5.737 1.725,-8.686 0.275,-2.908 0.572,-5.814 0.913,-9.253 1.518,1.95 2.716,3.508 3.935,5.048 1.292,1.63 2.593,3.253 3.911,4.861 1.269,1.546 2.537,3.093 3.857,4.595 1.279,1.456 2.375,3.107 4.224,4.519 0.036,-0.731 0.16,-1.081 0.049,-1.325 -1.318,-2.901 -2.33,-5.944 -4.435,-8.456 -2.363,-2.818 -4.639,-5.714 -6.833,-8.665 -1.428,-1.921 -2.703,-3.964 -3.938,-6.018 -1.319,-2.197 -2.304,-4.529 -2.891,-7.064 -1.704,-7.35 -4.985,-13.973 -9.532,-19.985 -1.495,-1.977 -2.918,-4.008 -4.378,-6.011 -0.742,-1.018 -0.943,-2.081 -0.76,-3.375 1.277,-9.024 2.48,-18.058 3.687,-27.092 1.386,-10.381 2.782,-20.76 4.119,-31.147 1.387,-10.784 2.765,-21.571 4.04,-32.368 1.286,-10.878 2.527,-21.763 3.626,-32.661 1.003,-9.944 1.901,-19.901 2.631,-29.869 0.49,-6.696 0.722,-13.417 0.87,-20.131 0.465,-21.028 0.809,-42.059 1.251,-63.088 0.271,-12.873 0.634,-25.744 0.959,-38.616 0.012,-0.47 0.054,-0.939 0.448,-1.537 0.354,0.833 0.721,1.661 1.062,2.501 8.949,22.074 17.743,44.213 26.89,66.205 7.155,17.202 14.948,34.128 24.026,50.423 2.371,4.257 4.952,8.406 7.6,12.498 5.634,8.705 9.997,18.041 13.777,27.649 10.242,26.031 17.9,52.828 23.053,80.312 1.397,7.453 2.302,15.002 4.024,22.401 0.053,0.229 0.135,0.451 0.379,1.253 0.182,-0.978 0.373,-1.443 0.336,-1.89 -0.432,-5.257 -0.637,-10.549 -1.399,-15.759 -3.94,-26.947 -10.143,-53.38 -18.554,-79.285 -3.26,-10.045 -6.981,-19.918 -11.792,-29.342 -1.198,-2.347 -2.415,-4.71 -3.881,-6.892 -7.843,-11.662 -13.976,-24.233 -19.682,-37.017 -3.812,-8.539 -7.358,-17.196 -11.013,-25.804 -0.271,-0.639 -0.461,-1.311 -0.821,-2.351 1.083,0.241 1.835,0.37 2.567,0.576 13.398,3.778 25.536,10.089 36.715,18.314 12.334,9.075 22.892,19.964 32.304,31.98 3.796,4.845 7.33,9.895 10.97,14.861 0.463,0.632 0.846,1.322 1.438,2.256 -2.289,1.224 -4.427,2.418 -6.611,3.52 -2.087,1.053 -4.221,2.01 -6.235,3.247 5.237,0.008 9.92,-1.981 14.89,-3.862 1.157,1.719 2.306,3.424 3.453,5.131 1.204,1.792 2.397,3.593 3.614,5.376 1.172,1.717 2.354,3.429 3.563,5.121 1.174,1.643 2.087,3.498 3.593,5.039 1.147,-1.093 0.403,-1.891 0.063,-2.567 -2.797,-5.572 -5.643,-11.119 -8.489,-16.666 -0.542,-1.056 -1.147,-2.079 -1.823,-3.299 7.361,-3.718 13.857,-8.38 19.199,-14.413 5.238,-5.916 10.135,-12.135 15.12,-18.149 -0.07,0.225 -0.155,0.643 -0.327,1.022 -8.239,18.114 -14.391,36.919 -18.612,56.358 -0.212,0.979 -0.488,1.775 -1.373,2.385 -6.232,4.302 -10.935,10.038 -15.009,16.319 -2.174,3.353 -4.097,6.869 -6.25,10.235 -3.36,5.252 -6.75,10.488 -10.269,15.633 -1.437,2.101 -3.293,3.911 -4.872,5.921 -1.676,2.135 -3.262,4.341 -4.855,6.539 -0.322,0.444 -0.595,0.97 -0.712,1.498 -0.072,0.318 0.098,0.84 0.345,1.037 0.233,0.185 0.792,0.206 1.062,0.049 0.616,-0.357 1.148,-0.86 1.703,-1.318 7.242,-5.975 13.028,-13.163 17.766,-21.24 3.237,-5.517 6.526,-11.004 9.829,-16.482 2.203,-3.653 4.764,-7.015 8.231,-9.59 0.514,-0.381 1.039,-0.748 1.583,-1.083 0.181,-0.112 0.435,-0.104 0.839,-0.189 -0.366,2.385 -0.699,4.667 -1.068,6.942 -1.991,12.258 -2.791,24.619 -3.352,37.009 -0.46,10.144 -1.127,20.278 -1.661,30.419 -0.066,1.254 0.116,2.522 0.638,3.885 0.219,-0.419 0.517,-0.815 0.647,-1.261 1.665,-5.696 2.775,-11.513 3.28,-17.413 0.724,-8.444 1.346,-16.9 1.806,-25.362 1.203,-22.145 5.079,-43.801 11.518,-65.015 3.907,-12.875 8.704,-25.404 14.531,-37.531 1.14,-2.371 2.521,-4.628 3.84,-6.911 0.38,-0.658 0.926,-1.221 1.396,-1.828 0.169,0.038 0.338,0.077 0.508,0.115 1.89,43.544 3.78,87.087 5.67,130.631 0.212,-1.681 1.388,-2.054 2.882,-2.094 0.704,-0.018 1.395,-0.327 2.104,-0.414 0.584,-0.073 1.186,-0.015 1.868,-0.015 0.061,1.452 -0.891,1.732 -1.702,1.741 -2.91,0.032 -4.656,1.851 -6.29,3.872 -12.193,15.089 -27.127,26.58 -44.946,34.298 -0.669,0.291 -1.643,0.297 -1.782,1.557 1,0.626 2.069,0.286 3.102,0.048 8.75,-2.012 16.828,-5.559 24.205,-10.683 1.312,-0.91 2.603,-1.85 3.908,-2.771 0.06,-0.043 0.153,-0.04 0.66,-0.158 -0.804,1.786 -1.43,3.377 -2.211,4.887 -8.594,16.616 -17.192,33.23 -25.832,49.822 -2.98,5.722 -4.836,11.818 -6.296,18.059 -0.15,0.647 -0.183,1.321 -0.27,1.983 0.184,0.093 0.369,0.187 0.553,0.281 0.369,-0.403 0.845,-0.75 1.09,-1.217 1.489,-2.83 2.936,-5.682 4.376,-8.537 1.476,-2.927 2.921,-5.869 4.397,-8.795 0.306,-0.607 0.691,-1.175 1.007,-1.707 1.903,9.613 3.785,19.137 5.683,28.659 0.042,0.207 0.25,0.381 0.571,0.847 0.407,-0.66 0.793,-1.04 0.892,-1.484 0.768,-3.481 0.729,-7.01 0.218,-10.5 -0.673,-4.585 -1.565,-9.138 -2.347,-13.707 -0.968,-5.664 -0.531,-11.185 2.011,-16.395 1.821,-3.732 3.667,-7.472 5.805,-11.026 4.217,-7.006 7.871,-14.267 10.968,-21.835 2.677,-6.544 6.711,-12.349 10.39,-18.341 0.627,-1.022 1.267,-2.046 2.006,-2.987 0.78,-0.995 1.685,-1.892 2.789,-2.769 0.938,12.758 0.805,25.483 1.213,38.396 -4.819,1.581 -9.338,3.732 -13.433,6.685 -4.079,2.94 -7.765,6.279 -10.711,10.582 1.466,1.027 2.349,0.237 3.162,-0.446 0.855,-0.718 1.565,-1.605 2.404,-2.343 5.195,-4.561 11.272,-7.523 17.764,-9.72 0.133,-0.045 0.306,0.029 0.774,0.084 0.164,10.471 0.053,20.977 -0.221,31.489 -0.275,10.547 -0.74,21.077 -2.06,31.875 5.55,0.23 10.922,0.348 16.516,-0.4 0.087,-1.082 0.234,-2.094 0.24,-3.106 0.103,-17.276 0.264,-34.552 0.253,-51.827 -0.009,-13.517 -0.203,-27.033 -0.371,-40.549 -0.225,-17.993 -0.509,-35.986 -0.757,-53.979 -0.033,-2.376 -0.005,-4.753 -0.005,-7.766 0.828,1.123 1.355,1.768 1.808,2.46 7.147,10.934 13.154,22.497 18.738,34.282 13.719,28.952 24.853,58.897 34.188,89.526 0.335,1.098 0.773,2.165 1.362,3.798 0.439,-0.973 0.785,-1.368 0.753,-1.731 -0.141,-1.586 -0.193,-3.221 -0.631,-4.735 -9.149,-31.597 -19.927,-62.604 -33.858,-92.448 -4.84,-10.367 -10.105,-20.516 -16.352,-30.122 -1.612,-2.479 -3.338,-4.887 -5.098,-7.264 -0.744,-1.005 -1.153,-1.986 -1.172,-3.273 -0.274,-19.272 -0.519,-38.546 -0.935,-57.816 -0.332,-15.35 -0.691,-30.705 -1.406,-46.041 -0.582,-12.458 -1.676,-24.893 -2.607,-37.334 -0.811,-10.845 -1.694,-21.686 -2.581,-32.526 -0.873,-10.679 -1.802,-21.355 -2.687,-32.033 -0.695,-8.368 -1.365,-16.739 -2.04,-25.108 -0.921,-11.399 -1.853,-22.796 -2.749,-34.196 -0.577,-7.335 -1.097,-14.675 -1.635,-22.012 -0.024,-0.312 0.024,-0.63 0.055,-1.271 0.419,0.426 0.726,0.628 0.884,0.912 7.8,13.959 15.674,27.878 23.34,41.911 4.303,7.876 7.087,16.425 10.372,24.753 3.63,9.201 5.921,18.726 7.656,28.423 1.898,10.619 3.607,21.277 6.567,31.681 3.582,12.586 9.023,24.247 16.904,34.736 3.53,4.699 5.945,10.033 8.523,15.266 7.452,15.133 15.013,30.215 21.479,45.809 1.806,4.355 3.468,8.77 5.193,13.158 0.206,0.521 0.372,1.057 0.592,1.571 0.275,0.637 0.437,1.596 1.357,1.331 0.413,-0.12 0.746,-0.928 0.894,-1.482 0.655,-2.457 0.498,-4.823 -0.404,-7.274 -3.713,-10.075 -8.288,-19.749 -13.273,-29.24 -2.9,-5.522 -5.903,-10.991 -8.694,-16.566 -2.539,-5.072 -4.929,-10.222 -7.244,-15.4 -1.899,-4.246 -3.948,-8.375 -6.692,-12.16 -3.888,-5.363 -6.362,-11.436 -8.506,-17.653 -3.946,-11.436 -6.631,-23.199 -9.033,-35.031 -0.939,-4.621 -1.781,-9.262 -2.651,-13.896 -0.175,-0.93 -0.28,-1.872 -0.419,-2.821 5.894,-1.114 11.579,-2.343 17.322,-3.193 2.148,-0.318 4.463,0.053 6.636,0.463 2.662,0.502 5.261,1.348 7.874,2.091 5.797,1.65 10.905,4.562 15.332,8.627 2.178,1.999 4.187,4.182 6.331,6.219 2.143,2.034 4.357,3.993 6.545,5.979 0.236,0.214 0.493,0.517 0.768,0.549 0.5,0.058 1.198,0.128 1.482,-0.148 0.303,-0.294 0.363,-1.01 0.269,-1.492 -0.081,-0.424 -0.491,-0.805 -0.805,-1.163 -8.276,-9.443 -17.917,-17.066 -29.421,-22.267 -6.985,-3.159 -14.361,-4.316 -21.922,-4.575 -3.751,-0.128 -7.509,-0.022 -11.383,-0.022 -0.461,-1.127 -0.863,-2.061 -1.226,-3.008 -4.727,-12.312 -9.547,-24.588 -14.141,-36.949 -4.368,-11.753 -10.361,-22.662 -16.687,-33.427 -4.821,-8.203 -9.479,-16.503 -14.279,-24.718 -0.882,-1.509 -1.299,-3.043 -1.41,-4.752 -1.08,-16.688 -1.562,-33.392 -1.56,-50.114 0.002,-13.758 -0.136,-27.516 -0.204,-41.274 -0.107,-21.437 -0.189,-42.874 -0.313,-64.31 -0.158,-27.356 -0.348,-54.711 -0.522,-82.067 -0.012,-1.906 -10e-4,-3.812 -10e-4,-6.06 -2.283,0.566 -4.189,1.031 -6.091,1.513 -1.084,0.275 -2.151,0.625 -3.244,0.856 -1.112,0.234 -1.776,0.738 -2.16,1.914 -0.559,1.71 -1.107,1.889 -3.09,1.675 -0.693,-2.409 0.067,-4.655 2.182,-5.975 0.865,-0.54 1.871,-0.929 2.865,-1.169 3.009,-0.722 6.043,-1.339 9.338,-2.054 -0.181,-35.271 -0.627,-70.579 -1.472,-106.203 -4.532,0.551 -9.005,-0.333 -12.881,2.506 -0.737,0.54 -1.732,0.84 -2.652,0.991 -1.276,0.209 -2.418,-0.521 -2.678,-1.536 -0.31,-1.213 0.38,-1.975 1.318,-2.562 4.491,-2.809 9.273,-4.208 14.592,-3.007 0.467,0.105 0.947,0.153 1.423,0.205 0.153,0.017 0.314,-0.043 0.782,-0.116 -0.304,-8.896 -0.502,-17.831 -1.448,-26.734 z"
       style="fill:#fb8b24;fill-opacity:1;fill-rule:nonzero;stroke:none"
       id="path30" /><path
       d="m 0,36.9595 c 2.219,-0.203 4.436,-0.441 6.657,-0.601 2.471,-0.176 4.946,-0.378 7.42,-0.396 5.035,-0.036 10.072,0.046 15.108,0.071 0.544,0.002 1.088,-0.048 1.77,-0.08 0,-0.887 0.026,-1.66 -0.004,-2.432 -0.383,-9.667 -0.801,-19.334 -1.135,-29.004 -0.051,-1.499 0.273,-3.011 0.424,-4.518 H 0 Z"
       style="fill:#fb8b24;fill-opacity:1;fill-rule:nonzero;stroke:none"
       id="path34" /><path
       d="m 553.5063,246.6714 c -0.612,0.062 -1.252,0.034 -1.835,0.202 -6.773,1.953 -12.591,5.408 -16.91,11.083 -3.232,4.245 -4.437,8.956 -2.848,14.193 0.135,0.443 0.401,0.848 0.595,1.251 12.878,-2.933 22.44,-12.628 20.998,-26.729"
       style="fill:#fb8b24;fill-opacity:1;fill-rule:nonzero;stroke:none"
       id="path38" /><path
       d="m 330.1392,596.5782 c -0.412,-2.448 -0.814,-5.201 -1.365,-7.925 -0.202,-0.995 -0.677,-1.963 -1.166,-2.868 -1.081,-1.998 -2.603,-3.567 -5.056,-3.401 -2.633,0.177 -4.796,1.38 -5.779,3.966 -0.501,1.317 -0.85,2.776 -0.87,4.176 -0.085,6.005 1.743,11.462 5.132,16.394 0.535,0.778 1.208,1.503 1.948,2.089 1.865,1.481 3.403,1.276 4.582,-0.759 0.746,-1.289 1.33,-2.751 1.619,-4.208 0.464,-2.335 0.623,-4.731 0.955,-7.464"
       style="fill:#fb8b24;fill-opacity:1;fill-rule:nonzero;stroke:none"
       id="path42" /><path
       d="m 264.2773,486.2012 c 1.097,-12.819 -3.265,-23.063 -12.024,-32.001 -0.331,0.711 -0.607,1.154 -0.751,1.635 -1.195,3.994 -2.117,8.033 -2.108,12.241 0.011,4.993 1.772,9.206 5.499,12.558 2.638,2.373 5.676,4.071 9.384,5.567"
       style="fill:#fb8b24;fill-opacity:1;fill-rule:nonzero;stroke:none"
       id="path46" /><path
       d="m 228.7099,514.1924 c 1.544,2.747 3.405,5.098 5.915,6.887 4.048,2.884 8.673,2.847 12.657,-0.125 3.237,-2.415 5.236,-5.696 6.544,-9.411 -6.889,-6.374 -19.695,-5.075 -25.116,2.649"
       style="fill:#fb8b24;fill-opacity:1;fill-rule:nonzero;stroke:none"
       id="path50" /><path
       d="m 249.5337,768.6373 c 0.153,-3.105 -0.93,-5.595 -2.837,-7.772 -5.236,-5.977 -15.05,-6.485 -20.972,-1.173 -1.096,0.983 -1.503,1.975 -1.051,3.351 0.224,0.682 0.383,1.386 0.624,2.062 1.09,3.064 3.314,4.659 6.524,4.7 2.149,0.027 4.303,-0.192 6.452,-0.34 3.655,-0.252 7.308,-0.536 11.26,-0.828"
       style="fill:#fb8b24;fill-opacity:1;fill-rule:nonzero;stroke:none"
       id="path54" /><path
       d="m 334.7964,655.5982 c 4.368,0.637 8.528,1.316 12.71,1.814 1.4,0.167 2.873,-0.018 4.283,-0.231 5.505,-0.834 9.177,-4.633 10.064,-10.299 -8.117,-4.784 -23.832,-2.273 -27.057,8.716"
       style="fill:#fb8b24;fill-opacity:1;fill-rule:nonzero;stroke:none"
       id="path58" /><path
       d="m 428.8608,661.2701 c -2.525,4.968 -5.493,9.572 -6.488,15.02 -1.074,5.888 1.213,10.417 6.578,13.261 7.504,-7.308 8.397,-22.906 -0.09,-28.281"
       style="fill:#fb8b24;fill-opacity:1;fill-rule:nonzero;stroke:none"
       id="path62" /><path
       d="m 288.7998,637.0201 c 0.736,-10.288 -13.173,-20.65 -22.085,-16.604 0.628,10.115 10.832,17.383 22.085,16.604"
       style="fill:#fb8b24;fill-opacity:1;fill-rule:nonzero;stroke:none"
       id="path66" /><path
       d="m 239.9302,631.8043 c 1.154,-0.179 2.412,-0.248 3.596,-0.578 6.517,-1.815 11.243,-7.947 10.938,-14.276 -0.217,-4.496 -1.515,-5.801 -6.337,-4.575 -5.184,1.318 -7.812,5.22 -8.967,10.204 -0.646,2.787 -0.307,6.269 0.77,9.225"
       style="fill:#fb8b24;fill-opacity:1;fill-rule:nonzero;stroke:none"
       id="path70" /><path
       d="m 420.9272,713.1094 c 0.79,-2.741 0.367,-5.368 -1.315,-7.664 -0.973,-1.326 -2.207,-2.569 -3.57,-3.48 -4.607,-3.078 -9.78,-4.205 -15.278,-3.906 -0.706,0.038 -1.402,0.25 -2.05,0.371 -1.089,3.14 0.726,7.796 4.4,9.147 2.529,0.931 5.199,1.492 7.822,2.159 1.7,0.432 3.475,0.616 5.13,1.169 1.641,0.549 3.173,1.422 4.861,2.204"
       style="fill:#fb8b24;fill-opacity:1;fill-rule:nonzero;stroke:none"
       id="path74" /><path
       d="m 504.7671,785.9088 c -1.891,8.2 4.652,16.643 15.144,18.996 1.274,-4.431 -0.169,-8.271 -2.526,-11.846 -2.97,-4.504 -6.973,-7.312 -12.618,-7.15"
       style="fill:#fb8b24;fill-opacity:1;fill-rule:nonzero;stroke:none"
       id="path78" /><path
       d="m 591.5884,510.0259 c 2.55,-4.25 5.101,-8.215 6.436,-12.759 0.48,-1.634 0.649,-3.459 0.494,-5.155 -0.203,-2.22 -1.319,-2.821 -3.479,-2.398 -6.967,1.362 -10.542,8.025 -7.794,14.581 0.902,2.151 2.229,4.011 4.343,5.731"
       style="fill:#fb8b24;fill-opacity:1;fill-rule:nonzero;stroke:none"
       id="path82" /><path
       d="m 408.7871,711.5831 c -0.817,0.92 -1.735,1.627 -2.224,2.558 -3.54,6.737 -3.325,13.581 -0.517,20.747 1.584,-0.611 2.622,-1.527 3.542,-2.609 4.7,-5.533 4.149,-15.896 -0.801,-20.696"
       style="fill:#fb8b24;fill-opacity:1;fill-rule:nonzero;stroke:none"
       id="path86" /><path
       d="m 575.1714,783.5811 c 1.307,-0.39 2.483,-0.583 3.519,-1.076 4.94,-2.349 8.043,-9.346 6.568,-14.637 -0.497,-1.785 -1.295,-2.349 -3.122,-2.108 -1.737,0.23 -3.137,1.122 -4.301,2.398 -1.429,1.568 -2.343,3.411 -2.835,5.465 -0.772,3.224 -0.771,6.429 0.171,9.958"
       style="fill:#fb8b24;fill-opacity:1;fill-rule:nonzero;stroke:none"
       id="path90" /><path
       d="m 377.5464,489.3482 c -2.689,-1.108 -5.23,-0.966 -7.729,-0.408 -7.896,1.764 -14.118,6.163 -18.926,12.554 -1.709,2.271 -3.022,4.841 -4.66,7.511 0.898,0.372 1.433,0.656 2.002,0.819 7.514,2.145 14.704,1.662 21.267,-2.918 4.536,-3.166 7.291,-7.539 8.017,-13.062 0.193,-1.471 0.029,-2.988 0.029,-4.496"
       style="fill:#fb8b24;fill-opacity:1;fill-rule:nonzero;stroke:none"
       id="path94" /><path
       d="m 415.0107,519.8365 c -2.778,3.843 -3.149,7.898 -1.948,12.178 0.365,1.299 0.84,2.593 1.454,3.792 3.598,7.015 8.947,12.369 15.721,16.337 0.471,0.276 0.999,0.457 1.655,0.751 3.024,-4.238 4.307,-8.781 2.655,-13.785 -0.69,-2.088 -1.74,-4.144 -3.017,-5.935 -4.228,-5.929 -10.167,-9.797 -16.52,-13.338"
       style="fill:#fb8b24;fill-opacity:1;fill-rule:nonzero;stroke:none"
       id="path98" /><path
       d="m 378.4814,401.6558 c 5.971,-0.6 10.211,-4.254 11.699,-10.132 0.972,-3.836 0.876,-7.679 -0.184,-11.522 -10.669,3.341 -14.12,11.122 -11.515,21.654"
       style="fill:#fb8b24;fill-opacity:1;fill-rule:nonzero;stroke:none"
       id="path102" /><path
       d="m 424.7656,641.3668 c 1.45,0.227 2.753,0.48 4.069,0.628 3.956,0.444 7.912,1.035 11.895,0.25 1.509,-0.297 2.936,-0.769 4.021,-1.93 1.065,-1.14 1.111,-1.802 0.275,-3.169 -3.793,-6.208 -11.655,-7.115 -16.719,-1.903 -1.621,1.668 -2.812,3.609 -3.541,6.124"
       style="fill:#fb8b24;fill-opacity:1;fill-rule:nonzero;stroke:none"
       id="path106" /><path
       d="m 695.0142,582.2715 c 14.596,-3.352 22.653,-14.068 21.283,-26.814 -0.383,0.019 -0.787,-0.029 -1.155,0.067 -6.753,1.753 -12.543,5.102 -17.021,10.511 -2.786,3.365 -4.453,7.2 -4.034,11.677 0.138,1.478 0.586,2.928 0.927,4.559"
       style="fill:#fb8b24;fill-opacity:1;fill-rule:nonzero;stroke:none"
       id="path110" /><path
       d="m 629.7075,600.5806 c 3.799,-0.334 6.925,-1.785 9.146,-4.735 3.765,-5.002 3.868,-10.588 2.393,-16.415 -9.781,2.327 -14.246,10.443 -11.539,21.15"
       style="fill:#fb8b24;fill-opacity:1;fill-rule:nonzero;stroke:none"
       id="path114" /><path
       d="m 82.1831,513.5743 c -1.652,1.896 -1.99,3.875 -1.894,5.869 0.092,1.9 0.364,3.829 0.854,5.666 1.642,6.139 4.606,11.597 9.201,16.014 1.638,1.575 3.627,2.932 5.689,3.884 3.452,1.594 6.832,0.93 9.462,-1.822 1.574,-1.648 2.822,-3.653 3.988,-5.632 1.137,-1.93 0.751,-3.901 -0.762,-5.522 -0.864,-0.926 -1.85,-1.795 -2.925,-2.453 -2.383,-1.457 -4.852,-2.775 -7.298,-4.13 -1.188,-0.658 -2.412,-1.249 -3.602,-1.904 -4.71,-2.593 -9.265,-5.39 -12.713,-9.97"
       style="fill:#fb8b24;fill-opacity:1;fill-rule:nonzero;stroke:none"
       id="path118" /><path
       d="m 132.0303,672.022 c 0.055,-0.296 0.034,-0.637 0.176,-0.882 3.394,-5.84 2.862,-11.737 0.235,-17.641 -0.812,-1.826 -1.653,-2.098 -3.33,-0.971 -0.965,0.648 -1.888,1.526 -2.498,2.508 -2.796,4.502 -3.831,9.39 -2.787,14.642 0.35,1.76 1.144,3.295 2.449,4.558 0.878,0.849 1.742,0.999 2.731,0.171 1.012,-0.848 2.067,-1.644 3.105,-2.463 0.002,-10e-4 -0.081,0.078 -0.081,0.078"
       style="fill:#fb8b24;fill-opacity:1;fill-rule:nonzero;stroke:none"
       id="path122" /><path
       d="m 827.5649,316.7193 c -6.885,3.944 -13.284,8.351 -17.489,15.252 -3.851,6.319 -3.529,13.249 0.817,18.696 0.652,-0.315 1.384,-0.591 2.033,-0.996 6.288,-3.93 11.301,-9.093 14.776,-15.659 2.018,-3.814 3.13,-7.857 2.209,-12.227 -0.379,-1.796 -0.971,-3.509 -2.346,-5.066"
       style="fill:#fb8b24;fill-opacity:1;fill-rule:nonzero;stroke:none"
       id="path126" /><path
       d="m 798.8296,762.1651 c 0.649,-0.318 0.996,-0.462 1.316,-0.649 1.939,-1.139 4.02,-1.273 5.98,-0.334 2.22,1.064 4.292,2.436 6.423,3.683 1.581,0.925 3.085,2.022 4.749,2.758 2.074,0.918 3.622,0.372 4.584,-1.671 0.805,-1.71 1.506,-3.57 1.739,-5.428 0.558,-4.438 -1.704,-7.652 -6.051,-8.718 -5.576,-1.368 -10.628,-0.105 -15.012,3.588 -1.991,1.677 -3.22,3.848 -3.728,6.771"
       style="fill:#fb8b24;fill-opacity:1;fill-rule:nonzero;stroke:none"
       id="path130" /><path
       d="m 647.9399,655.2198 c 0.437,-1.784 -0.048,-3.137 -0.865,-4.317 -3.923,-5.659 -9.297,-9.214 -16.128,-10.038 -5.953,-0.719 -9.944,4.722 -7.841,10.377 0.293,0.789 1.149,1.564 1.938,1.921 0.978,0.443 2.154,0.587 3.25,0.606 2.867,0.05 5.737,-0.01 8.604,-0.077 3.684,-0.087 7.326,0.084 11.042,1.528"
       style="fill:#fb8b24;fill-opacity:1;fill-rule:nonzero;stroke:none"
       id="path134" /><path
       d="m 689.9429,705.8677 c -5.714,-4.62 -11.978,-7.243 -19.453,-5.817 -2.142,0.409 -4.116,1.309 -5.622,2.973 -1.701,1.879 -1.615,3.052 0.43,4.471 5.054,3.507 10.69,4.957 16.784,4.248 1.606,-0.187 3.216,-0.916 4.673,-1.685 1.57,-0.83 2.678,-2.208 3.188,-4.19"
       style="fill:#fb8b24;fill-opacity:1;fill-rule:nonzero;stroke:none"
       id="path138" /><path
       d="m 675.2573,724.5049 c -0.215,-0.715 -0.447,-2.168 -1.065,-3.433 -2.267,-4.632 -5.872,-7.913 -10.628,-9.887 -1.48,-0.614 -3.032,-1.005 -4.665,-0.468 -1.061,0.349 -1.595,0.926 -1.368,2.124 1.105,5.819 3.654,10.763 8.894,13.843 1.594,0.937 3.56,1.4 5.416,1.693 2.659,0.419 3.429,-0.434 3.416,-3.872"
       style="fill:#fb8b24;fill-opacity:1;fill-rule:nonzero;stroke:none"
       id="path142" /><path
       d="m 818.0259,790.0543 c 3.657,-0.303 6.674,-1.838 9.048,-4.661 3.496,-4.158 4.179,-12.042 2.223,-16.373 -10.992,3.147 -13.937,11.671 -11.271,21.034"
       style="fill:#fb8b24;fill-opacity:1;fill-rule:nonzero;stroke:none"
       id="path146" /><path
       d="m 649.0581,728.6124 c 1.962,-0.878 3.325,-2.258 4.315,-4.031 2.044,-3.66 2.302,-7.584 1.64,-11.626 -0.076,-0.467 -0.247,-0.935 -0.461,-1.359 -0.577,-1.147 -1.274,-1.371 -2.29,-0.613 -0.692,0.517 -1.35,1.156 -1.828,1.871 -3.093,4.617 -3.769,9.575 -1.916,14.841 0.101,0.285 0.31,0.531 0.54,0.917"
       style="fill:#fb8b24;fill-opacity:1;fill-rule:nonzero;stroke:none"
       id="path150" /><path
       d="m 126.4131,743.8272 c 6.484,-12.29 4.041,-26.016 -7.268,-33.345 -3.826,7.873 -5.242,15.934 -2.279,24.37 1.657,4.722 4.987,7.694 9.547,8.975"
       style="fill:#fb8b24;fill-opacity:1;fill-rule:nonzero;stroke:none"
       id="path154" /><path
       d="m 64.0444,752.9527 c 3.797,4.193 7.714,7.906 12.668,10.357 0.712,0.352 1.47,0.632 2.231,0.861 5.089,1.533 9.396,-2.079 8.842,-7.407 -0.216,-2.08 -1.339,-3.639 -3.138,-4.533 -1.48,-0.735 -3.106,-1.235 -4.717,-1.633 -4.192,-1.039 -12.19,0.153 -15.886,2.355"
       style="fill:#fb8b24;fill-opacity:1;fill-rule:nonzero;stroke:none"
       id="path158" /><path
       d="m 114.039,700.3384 c -0.189,-0.085 -0.513,-0.133 -0.548,-0.262 -0.74,-2.672 -2.798,-4.008 -5.133,-4.995 -3.412,-1.444 -6.975,-1.638 -10.589,-0.97 -3.806,0.704 -7.317,2.114 -10.533,4.415 0.655,2.67 2.283,4.438 4.579,5.323 2.052,0.791 4.288,1.347 6.477,1.491 4.539,0.298 8.914,-0.648 12.946,-2.817 1.028,-0.554 1.867,-1.457 2.795,-2.211 0.002,-0.01 0.006,0.026 0.006,0.026"
       style="fill:#fb8b24;fill-opacity:1;fill-rule:nonzero;stroke:none"
       id="path162" /><path
       d="m 101.5625,790.96 c 0.223,-1.775 0.57,-3.016 0.497,-4.231 -0.23,-3.781 -1.14,-7.417 -2.995,-10.747 -0.612,-1.098 -1.393,-2.159 -2.298,-3.026 -1.555,-1.489 -3.276,-1.495 -4.994,-0.257 -3.947,2.845 -4.576,7.334 -1.444,11.043 2.852,3.379 6.665,5.298 11.234,7.218"
       style="fill:#fb8b24;fill-opacity:1;fill-rule:nonzero;stroke:none"
       id="path166" /><path
       d="m 138.4267,712.1983 c -2.937,-5.997 -11.118,-8.308 -15.168,-7.141 -1.944,0.56 -2.332,1.297 -1.359,2.841 2.646,4.196 10.265,6.808 14.924,5.099 0.513,-0.188 0.984,-0.487 1.603,-0.799"
       style="fill:#fb8b24;fill-opacity:1;fill-rule:nonzero;stroke:none"
       id="path170" /></g></svg>
