<?xml version="1.0" encoding="UTF-8" standalone="no"?>
<svg
   xmlns:dc="http://purl.org/dc/elements/1.1/"
   xmlns:cc="http://creativecommons.org/ns#"
   xmlns:rdf="http://www.w3.org/1999/02/22-rdf-syntax-ns#"
   xmlns:svg="http://www.w3.org/2000/svg"
   xmlns="http://www.w3.org/2000/svg"
   xmlns:sodipodi="http://sodipodi.sourceforge.net/DTD/sodipodi-0.dtd"
   xmlns:inkscape="http://www.inkscape.org/namespaces/inkscape"
   inkscape:version="1.0 (4035a4fb49, 2020-05-01)"
   sodipodi:docname="bopatrino.svg"
   id="svg76"
   viewBox="0 0 411.03 627.33"
   version="1.1">
  <metadata
     id="metadata82">
    <rdf:RDF>
      <cc:Work
         rdf:about="">
        <dc:format>image/svg+xml</dc:format>
        <dc:type
           rdf:resource="http://purl.org/dc/dcmitype/StillImage" />
        <dc:title></dc:title>
      </cc:Work>
    </rdf:RDF>
  </metadata>
  <defs
     id="defs80" />
  <sodipodi:namedview
     inkscape:current-layer="svg76"
     inkscape:window-maximized="1"
     inkscape:window-y="0"
     inkscape:window-x="0"
     inkscape:cy="352.61501"
     inkscape:cx="-16.896808"
     inkscape:zoom="0.74603793"
     showgrid="false"
     id="namedview78"
     inkscape:window-height="704"
     inkscape:window-width="1366"
     inkscape:pageshadow="2"
     inkscape:pageopacity="0"
     guidetolerance="10"
     gridtolerance="10"
     objecttolerance="10"
     borderopacity="1"
     bordercolor="#666666"
     pagecolor="#ffffff" />
  <path
     d="m 397.57,312.829 c 0,167.3 -85.964,302.93 -192.01,302.93 -106.04,0 -192.01,-135.63 -192.01,-302.93 0,-167.3 85.964,-302.93 192.01,-302.93 106.04,0 192.01,135.63 192.01,302.93 z"
     fill="#ffffff"
     id="path4"
     style="stroke:#000000;stroke-width:0" />
  <path
     sodipodi:nodetypes="ccccccccccssccscccc"
     d="M 139.5,410.99805 C 63.303634,443.09238 43.550912,540.14217 52.003906,613.6582 c 56.510194,1.42635 105.401774,2.87207 153.574214,3.08985 50.68885,-5.15346 103.34593,0.0531 155.83008,-2.08985 -7.20305,-51.01255 -16.58508,-195.6679 -78.31054,-203.66015 h -18.38672 l -1.88867,21.66015 c 0,0 -50.15039,81 -50.15039,79 v 103 l -11.03321,-1 c 0,0 -2.00586,-98 -2.00586,-100 0,-2 -45.13581,-80 -44.13281,-80 1.003,0 7.02148,-5 7.02148,-5 l 24.07227,22 c 0,0 41.12409,-1 40.12109,-1 -1.003,0 16.04883,-21 16.04883,-21 l 4.91992,-17.66015 H 139.50781 Z"
     style="fill:#5f0f40;fill-opacity:1;stroke:#ffffff;stroke-width:4;stroke-miterlimit:4;stroke-dasharray:none;stroke-opacity:1"
     id="path8" />
  <path
     id="path12"
     d="m 249.13,390.439 c 0,39.327 -18.604,71.207 -41.554,71.207 -22.949,0 -41.554,-31.881 -41.554,-71.207 0,-39.327 18.604,-71.207 41.554,-71.207 22.95,0 41.554,31.881 41.554,71.207 z"
     style="fill:#5f0f40;stroke:#000000;stroke-width:0;fill-opacity:1" />
  <path
     id="path14"
     d="m 297.13,283.159 c 0,65.485 -39.454,118.57 -88.122,118.57 -48.669,0 -88.122,-53.086 -88.122,-118.57 0,-65.485 39.454,-118.57 88.122,-118.57 48.669,0 88.122,53.086 88.122,118.57 z"
     style="fill:#5f0f40;stroke:#ffffff;stroke-width:4;fill-opacity:1;stroke-miterlimit:4;stroke-dasharray:none;stroke-opacity:1" />
  <path
     id="path18"
     d="m 194.87,318.349 c 0.002,3.3474 -3.2429,6.0621 -7.2467,6.0621 -4.0038,0 -7.249,-2.7147 -7.2466,-6.0621 -0.002,-3.3475 3.2428,-6.0621 7.2466,-6.0621 4.0038,0 7.249,2.7147 7.2467,6.0621 z"
     style="fill:#ffffff;stroke:#000000;stroke-width:0" />
  <path
     id="path20"
     d="m 234.2,318.349 c 0.002,3.3474 -3.2429,6.0621 -7.2467,6.0621 -4.0038,0 -7.2489,-2.7147 -7.2467,-6.0621 -0.002,-3.3475 3.2429,-6.0621 7.2467,-6.0621 4.0038,0 7.249,2.7147 7.2467,6.0621 z"
     style="fill:#ffffff;stroke:#000000;stroke-width:0" />
  <path
     id="path42"
     stroke="#007f3f"
     fill="#00007f"
     d="m 155.5,433.659 c -1.003,0 44.133,78 44.133,80 0,2 2.0061,100 2.0061,100 0,0 11.033,1 11.033,1 v -103 c 0,2 50.151,-79 50.151,-79 0,0 2.006,-23 2.006,-23 0,0 -17.051,1 -17.051,1 0,0 -5.0151,18 -5.0151,18 0,0 -17.051,21 -16.048,21 1.003,0 -40.121,1 -40.121,1 0,0 -24.072,-22 -24.072,-22 0,0 -6.0181,5 -7.0211,5 z"
     style="stroke-width:0;fill:#5f0f40;fill-opacity:1" />
  <path
     id="path44"
     d="m 169.38,421.529 c 0.001,6.5319 -4.2763,11.828 -9.5533,11.828 -5.277,0 -9.5545,-5.2959 -9.5532,-11.828 -0.001,-6.5318 4.2762,-11.828 9.5532,-11.828 5.277,0 9.5545,5.2959 9.5533,11.828 z"
     style="fill:#ffffff;stroke:#000000;stroke-width:0" />
  <path
     id="path46"
     d="m 184.64,436.629 c 0.001,6.2557 -4.5001,11.328 -10.053,11.328 -5.5532,0 -10.055,-5.072 -10.053,-11.328 -0.001,-6.2557 4.5001,-11.328 10.053,-11.328 5.5532,0 10.055,5.072 10.053,11.328 z"
     style="fill:#ffffff;stroke:#000000;stroke-width:0" />
  <path
     id="path48"
     d="m 202.75,448.959 c 0.001,6.2557 -4.5,11.328 -10.053,11.328 -5.5532,0 -10.055,-5.072 -10.053,-11.328 -0.001,-6.2557 4.5,-11.328 10.053,-11.328 5.5532,0 10.055,5.0721 10.053,11.328 z"
     style="fill:#ffffff;stroke:#000000;stroke-width:0" />
  <path
     id="path50"
     d="m 249.11,415.029 c -0.001,6.2557 4.5001,11.328 10.053,11.328 5.5532,0 10.055,-5.072 10.053,-11.328 10e-4,-6.2557 -4.5001,-11.328 -10.053,-11.328 -5.5532,0 -10.055,5.0721 -10.053,11.328 z"
     style="fill:#ffffff;stroke:#000000;stroke-width:0" />
  <path
     id="path52"
     d="m 223.35,449.129 c -0.001,6.2557 4.5001,11.328 10.053,11.328 5.5532,0 10.055,-5.072 10.053,-11.328 0.001,-6.2557 -4.5,-11.328 -10.053,-11.328 -5.5532,0 -10.055,5.072 -10.053,11.328 z"
     style="fill:#ffffff;stroke:#000000;stroke-width:0" />
  <path
     id="path54"
     d="m 203.75,455.459 c -0.001,6.2557 4.5,11.328 10.053,11.328 5.5533,0 10.055,-5.072 10.053,-11.328 0.001,-6.2557 -4.5,-11.328 -10.053,-11.328 -5.5532,0 -10.055,5.0721 -10.053,11.328 z"
     style="fill:#ffffff;stroke:#000000;stroke-width:0" />
  <path
     id="path56"
     d="m 239.22,434.159 c -0.001,6.2557 4.5001,11.328 10.053,11.328 5.5532,0 10.055,-5.072 10.053,-11.328 10e-4,-6.2557 -4.5001,-11.328 -10.053,-11.328 -5.5532,0 -10.055,5.0721 -10.053,11.328 z"
     style="fill:#ffffff;stroke:#000000;stroke-width:0" />
  <path
     d="m 186.15,368.81828 c 23.852,-16.628 45.032,3.0462 45.032,3.0462 0,0 -45.032,-3.0462 -45.032,-3.0462 z"
     fill="#ff0000"
     id="path60"
     style="stroke:#000000;stroke-width:0;fill:#ffffff;fill-opacity:1" />
  <ellipse
     id="ellipse62"
     ry="34"
     rx="58.174999"
     cy="152.65399"
     cx="206.84999"
     style="fill:#5f0f40;stroke:#000000;stroke-width:0;fill-opacity:1" />
  <path
     id="path64"
     d="m 177.1,159.824 c -27.753,-1.7294 -60.917,29.146 -76.295,72.347 -16.403,46.08 -6.3836,88.82 22.342,95.398 28.726,6.5783 65.332,-25.499 81.735,-71.579 1.2993,-3.6499 2.3782,-7.2574 3.35,-10.849 0.97168,3.5916 2.0508,7.1991 3.35,10.849 16.403,46.08 53.035,78.157 81.761,71.579 28.726,-6.5783 38.72,-49.318 22.317,-95.398 -16.403,-46.08 -53.035,-78.137 -81.761,-71.559 -12.074,2.765 -20.779,11.967 -25.667,25.072 -4.8874,-13.105 -13.592,-22.307 -25.667,-25.072 -1.7954,-0.41116 -3.6156,-0.67262 -5.4659,-0.78793 z"
     style="fill:#5f0f40;stroke:#ffffff;stroke-width:4;fill-opacity:1;stroke-opacity:1;stroke-miterlimit:4;stroke-dasharray:none" />
  <use
     id="use74"
     href="#svg_123"
     height="480"
     width="640"
     y="211.60687"
     x="-447.62988"
     transform="matrix(.41474 -.4524 .4524 .41474 309.85 211.21)" />
  <path
     id="path1011"
     d="m 188.692,305.66518 14.0096,7.18287"
     style="fill:none;fill-rule:evenodd;stroke:#ffffff;stroke-width:3;stroke-linecap:round;stroke-linejoin:miter;stroke-opacity:1;stroke-miterlimit:4;stroke-dasharray:none" />
  <path
     style="fill:none;fill-rule:evenodd;stroke:#ffffff;stroke-width:3;stroke-linecap:round;stroke-linejoin:miter;stroke-opacity:1;stroke-miterlimit:4;stroke-dasharray:none"
     d="m 228.14396,304.78046 -14.0096,7.18287"
     id="path1013" />
</svg>
