<?xml version="1.0" encoding="UTF-8" standalone="no"?>
<svg
   xmlns:dc="http://purl.org/dc/elements/1.1/"
   xmlns:cc="http://creativecommons.org/ns#"
   xmlns:rdf="http://www.w3.org/1999/02/22-rdf-syntax-ns#"
   xmlns:svg="http://www.w3.org/2000/svg"
   xmlns="http://www.w3.org/2000/svg"
   xmlns:sodipodi="http://sodipodi.sourceforge.net/DTD/sodipodi-0.dtd"
   xmlns:inkscape="http://www.inkscape.org/namespaces/inkscape"
   height="377.63364"
   width="265.215"
   inkscape:version="1.0 (4035a4fb49, 2020-05-01)"
   sodipodi:docname="damaĝiĝis.svg"
   id="svg937"
   version="1.1"
   viewBox="0 0 265.215 377.63364">
  <metadata
     id="metadata943">
    <rdf:RDF>
      <cc:Work
         rdf:about="">
        <dc:format>image/svg+xml</dc:format>
        <dc:type
           rdf:resource="http://purl.org/dc/dcmitype/StillImage" />
        <dc:title></dc:title>
      </cc:Work>
    </rdf:RDF>
  </metadata>
  <defs
     id="defs941" />
  <sodipodi:namedview
     fit-margin-bottom="2"
     fit-margin-right="2"
     fit-margin-left="2"
     lock-margins="true"
     fit-margin-top="2"
     inkscape:current-layer="svg937"
     inkscape:window-maximized="1"
     inkscape:window-y="0"
     inkscape:window-x="0"
     inkscape:cy="266.80994"
     inkscape:cx="132.60937"
     inkscape:zoom="1.4649396"
     showgrid="false"
     id="namedview939"
     inkscape:window-height="1016"
     inkscape:window-width="1920"
     inkscape:pageshadow="2"
     inkscape:pageopacity="0"
     guidetolerance="10"
     gridtolerance="10"
     objecttolerance="10"
     borderopacity="1"
     bordercolor="#666666"
     pagecolor="#ffffff" />
  <g
     style="fill:#9a031e;fill-opacity:1"
     id="g935"
     stroke-miterlimit="4.1"
     stroke-linejoin="round"
     stroke-linecap="round"
     stroke-dashoffset="2"
     stroke="#ffffff"
     fill-rule="evenodd"
     transform="translate(-244.44,-140.36897)">
    <path
       style="fill:#9a031e;fill-opacity:1"
       sodipodi:nodetypes="cscscsscscc"
       id="path927"
       stroke-width="10"
       d="m 377.03,265.88 c -69.337,0 -125.59,56.257 -125.59,125.59 0,1.6198 0.0329,3.2387 0.0937,4.8438 v 111.72 c 0,1.6398 1.329,2.9687 2.9688,2.9688 h 244.59 c 1.6398,0 2.9375,-1.329 2.9375,-2.9688 v -104.06 c 0.40653,-4.1103 0.625,-8.2833 0.625,-12.5 0,-69.337 -56.288,-125.59 -125.62,-125.59 z" />
    <path
       style="fill:#9a031e;fill-opacity:1"
       id="path929"
       stroke-width="10"
       d="m 300,197.72 a 53.93,53.93 0 1 1 -107.86,0 53.93,53.93 0 1 1 107.86,0 z"
       transform="matrix(1.4546,0,0,1.4546,14.935,-59.515)" />
    <path
       style="fill:#9a031e;fill-opacity:1"
       id="path931"
       stroke-width="10.759"
       d="m 445.64,339.15 c -1.6152,0 -2.9375,1.291 -2.9375,2.9062 v 78.188 h -115.12 c -1.6152,0 -2.9062,1.291 -2.9062,2.9062 v 44.125 c 0,1.6152 1.291,2.9375 2.9062,2.9375 h 116.66 l 54.125,0.375 c 0.77536,0 1.4788,-0.32223 2,-0.8125 0.84151,-0.51026 1.4062,-1.44 1.4062,-2.5 v -44.125 l -0.46875,-40.379 c -0.35714,-20.544 -5.608,-37.549 -12.938,-43.621 h -42.719 z" />
    <path
       style="fill:#9a031e;fill-opacity:1"
       id="path933"
       stroke-width="11.782"
       fill="#666"
       d="m 460.46,297.68 20.579,22.371 c 3.0186,1.9865 17.369,30.208 14.875,33.998 l -92.858,122.6 c -2.4942,3.79 -6.9323,5.2419 -9.9508,3.2554 l -48.436,-1.2992 c -3.0186,-1.9865 14.416,-25.923 16.911,-29.713 l 81.072,-136.17 c 2.4942,-3.79 14.789,-17.028 17.808,-15.041 z" />
  </g>
</svg>
