<?xml version="1.0" encoding="UTF-8" standalone="no"?>
<svg
   xmlns:dc="http://purl.org/dc/elements/1.1/"
   xmlns:cc="http://creativecommons.org/ns#"
   xmlns:rdf="http://www.w3.org/1999/02/22-rdf-syntax-ns#"
   xmlns:svg="http://www.w3.org/2000/svg"
   xmlns="http://www.w3.org/2000/svg"
   xmlns:sodipodi="http://sodipodi.sourceforge.net/DTD/sodipodi-0.dtd"
   xmlns:inkscape="http://www.inkscape.org/namespaces/inkscape"
   inkscape:version="1.0 (4035a4fb49, 2020-05-01)"
   sodipodi:docname="disputado.svg"
   id="svg972"
   viewBox="0 0 704.43488 1095.2837"
   height="1095.2837"
   width="704.43488"
   version="1.1">
  <metadata
     id="metadata978">
    <rdf:RDF>
      <cc:Work
         rdf:about="">
        <dc:format>image/svg+xml</dc:format>
        <dc:type
           rdf:resource="http://purl.org/dc/dcmitype/StillImage" />
        <dc:title></dc:title>
      </cc:Work>
    </rdf:RDF>
  </metadata>
  <defs
     id="defs976" />
  <sodipodi:namedview
     inkscape:current-layer="svg972"
     inkscape:window-maximized="1"
     inkscape:window-y="0"
     inkscape:window-x="0"
     inkscape:cy="717.97632"
     inkscape:cx="-68.283452"
     inkscape:zoom="0.39748331"
     fit-margin-bottom="5"
     fit-margin-right="5"
     fit-margin-left="5"
     fit-margin-top="5"
     lock-margins="true"
     showgrid="false"
     id="namedview974"
     inkscape:window-height="1016"
     inkscape:window-width="1920"
     inkscape:pageshadow="2"
     inkscape:pageopacity="0"
     guidetolerance="10"
     gridtolerance="10"
     objecttolerance="10"
     borderopacity="1"
     bordercolor="#666666"
     pagecolor="#ffffff" />
  <g
     style="fill:#9a031e;fill-opacity:1"
     transform="translate(28.122481,-828.49735)"
     id="layer1">
    <g
       id="g963"
       style="fill:#9a031e;fill-opacity:1;stroke-linejoin:miter" />
    <g
       id="g965"
       style="fill:#9a031e;fill-opacity:1;stroke-linejoin:miter" />
    <g
       id="g969"
       style="fill:#9a031e;fill-opacity:1;stroke-linejoin:miter">
      <path
         style="fill:#9a031e;fill-opacity:1"
         id="path967"
         d="m 395.0708,863.0939 c 0.14188,0 0.3243,0.006 0.54208,0.0184 0.79944,0.0463 1.11548,0.1289 0.72802,0.1706 -0.1142,0.0109 -0.24468,0.016 -0.38182,0.016 -0.36655,0 -0.78052,-0.0367 -1.05708,-0.0995 -0.2998,-0.064 -0.2102,-0.1055 0.1688,-0.1055 z m 74.5167,15.2295 c 0.14187,0 0.32424,0.006 0.54193,0.0185 0.79943,0.0463 1.1156,0.12894 0.72807,0.17054 -0.11418,0.0109 -0.2447,0.016 -0.38188,0.016 -0.36658,0 -0.78058,-0.0367 -1.05702,-0.0994 -0.2999,-0.0641 -0.21023,-0.10556 0.1689,-0.10556 z m -245.86701,26.7233 c -0.001,0 -0.003,10e-5 -0.005,10e-4 l 0.009,4.7e-4 c -7.4e-4,-10e-4 -0.002,-0.002 -0.004,-0.002 z m 247.73126,75.75555 c 0.0372,0 0.076,0.0122 0.11402,0.0382 0.18633,0.10725 0.30133,0.33845 0.29016,0.53025 -0.009,0.1531 -0.13315,0.2699 -0.31198,0.2699 -0.008,0 -0.0163,-2e-4 -0.0245,-7e-4 -0.15979,-0.009 -0.30676,-0.2423 -0.2901,-0.53004 0.0112,-0.19276 0.10896,-0.30761 0.22241,-0.30761 z m -349.21697,30.93065 q 0.003,6e-4 0.005,10e-4 l -0.007,-3e-4 z m -27.9365,136.4409 c 0.81708,0 2.45111,1.0894 3.540526,2.3151 8.442744,9.6682 22.060064,43.8479 25.600584,64.4099 0.68091,4.0852 1.6341,9.8046 2.17877,12.528 0.81702,4.7661 0.68085,5.1745 -2.17877,5.1745 -1.77026,0 -3.26812,-0.9532 -3.67663,-2.5873 -0.2724,-1.3617 -3.13202,-3.9489 -6.26404,-5.5831 -3.13196,-1.7701 -7.62567,-4.6299 -9.94068,-6.4001 -2.31488,-1.7703 -5.174556,-3.132 -6.26391,-3.132 -1.08936,0 -5.03839,-2.3151 -8.85126,-5.1746 -3.812865,-2.7233 -12.80029,-8.9874 -20.017516,-13.8896 -7.217164,-4.7661 -13.072632,-9.6682 -13.072632,-10.8939 0,-1.9064 3.949036,-5.8554 29.685852,-29.5497 4.357486,-3.9489 8.442686,-7.081 9.259706,-7.2172 z m 455.79612,-32.6125 c 1.658,0 4.04073,0.967 6.7846,2.9269 3.6768,2.5872 11.4386,9.2597 31.04764,26.9622 2.0426,1.9065 8.44262,7.0811 14.16196,11.5747 l 10.4854,8.1705 -0.81704,8.8512 c -0.40856,4.9023 -2.5874,14.9791 -4.90222,22.4686 -2.31504,7.4895 -5.31079,17.294 -6.67249,21.7877 -1.49795,4.4937 -6.40025,17.7025 -11.16625,29.2773 -4.6299,11.5748 -8.8513,23.2857 -9.396,25.873 -0.48206,2.8927 -1.28425,4.2918 -2.4064,4.2918 -0.14567,0 -0.2967,-0.024 -0.4532,-0.071 -3.20187,-0.8457 -6.64486,-1.2627 -10.07943,-1.2627 -4.30727,0 -8.60114,0.6557 -12.38922,1.9436 -1.85365,0.6179 -3.25865,1.1361 -4.31695,1.6337 v 0 q -9.5972,-16.8111 -20.4055,-28.4861 h -0.005 c -2.8572,-14.4638 -4.78684,-28.1905 -3.8687,-29.6596 0.4086,-0.6808 1.3618,-8.1703 2.17885,-16.7494 0.6809,-8.4426 2.85975,-22.4686 4.90235,-31.0474 1.90636,-8.5788 3.94896,-17.8385 4.62975,-20.426 0.54465,-2.5872 2.99585,-11.5747 5.44705,-19.7451 2.451,-8.3065 4.62973,-15.796 4.9022,-16.7492 0.2889,-1.04 1.11706,-1.5652 2.3389,-1.5652 z M 173.74132,833.49756 c -2.36426,0 -5.96033,0.17574 -7.58368,0.39978 -4.57617,0.61963 -9.31834,1.8573 -14.00705,3.64016 -0.56799,0.2161 -1.13541,0.4398 -1.70163,0.672 -0.21533,0.087 -0.39963,0.161 -0.56558,0.2237 -0.83747,0.3187 -1.20716,0.36746 -2.78949,0.5228 -6.60315,0.6534 -13.6409,2.34014 -19.98181,4.7514 -1.65646,0.6297 -3.26513,1.3092 -4.80612,2.03204 -2.55111,1.19646 -6.99923,3.76831 -9.24777,5.35936 -7.54958,5.33034 -13.321274,11.9763 -17.520714,20.1432 -0.685086,1.3396 -2.42791,5.30506 -2.714626,6.196 l -0.13409,0.3968 -1.210115,-0.94784 c -1.484455,-1.15649 -2.767815,-1.75056 -3.954065,-1.80636 -0.06137,-0.003 -0.12248,-0.004 -0.183355,-0.004 -0.470265,0 -0.925955,0.0859 -1.373459,0.25585 -0.208956,0.0797 -0.416196,0.17755 -0.62262,0.29325 -0.611056,0.3398 -1.545926,1.3551 -2.063446,2.24777 l -0.385345,0.66663 -0.794045,0.12005 c -1.69329,0.25795 -3.02187,0.56445 -4.06655,0.96185 -1.702294,0.6473 -2.65139,1.5351 -3.1975,2.84687 -0.36008,0.8833 -0.54862,1.99953 -0.49079,2.96693 l 0.02957,0.4966 -1.032311,0.40164 c -3.144134,1.23116 -4.814414,2.94566 -5.29718,5.43951 -0.160858,0.76215 -0.165619,1.29625 -0.08035,2.51745 l 0.11591,1.5352 -1.23706,1.44534 c -0.694065,0.78206 -1.41583,1.7113 -1.61465,2.0387 -1.447022,2.40526 -1.47403,5.005 -0.08414,6.93786 0.58231,0.80286 1.73736,1.8518 2.70791,2.4485 l 0.84433,0.52074 -0.74725,0.7002 c -1.9892,1.86682 -2.96835,3.77099 -2.863276,5.53686 0.116821,1.75366 1.458672,3.08246 4.166161,4.09876 0.906025,0.33394 0.970145,0.39099 0.914205,0.67334 -0.02606,0.17175 -0.04519,1.07104 -0.02606,2.0049 0.04712,2.0128 0.26996,2.8982 1.02472,4.15214 1.239074,2.05066 3.465575,3.35086 6.62737,3.84206 0.61304,0.0973 1.26285,0.20396 1.43506,0.2419 0.31943,0.0662 0.21878,0.20583 -2.38436,3.3843 -4.79721,5.8828 -6.242554,7.7058 -6.77115,8.6111 -0.39731,0.6671 -0.63812,1.313 -1.01363,2.7558 -1.31104,5.0922 -1.241336,8.70586 0.25726,11.8463 0.1946,0.4133 0.73254,1.29254 1.17275,1.9575 0.45267,0.6656 0.940585,1.52284 1.086245,1.927 0.878815,2.31484 1.240695,4.9271 0.921265,6.48854 -0.112946,0.55296 -0.13214,1.03992 -0.05145,1.58166 0.16601,1.1555 1.38976,4.9798 2.43285,7.61305 1.18472,2.96435 2.29989,4.97415 4.03622,7.21405 0.74957,0.96277 1.62453,2.1974 1.94796,2.73694 2.34399,3.84886 5.78131,5.88513 10.298574,6.09726 0.04752,0.002 0.09494,0.005 0.142486,0.006 0.150284,0.005 0.302636,0.008 0.45686,0.008 1.94337,0 4.18318,-0.4197 6.30903,-1.1763 l 0.80811,-0.2911 1.137421,0.952 c 2.25381,1.8999 4.8586,3.1246 8.03166,3.73084 l -0.014,-7.4e-4 c -0.927,0.4394 -1.97287,0.9038 -3.19112,1.4295 -5.023096,2.12153 -8.890221,3.2572 -13.077441,3.8232 -7.84013,0.9994 -12.65593,1.6031 -15.85898,2.1915 h 7.6e-4 q 2.98689,9.0338 4.41766,15.4104 h -8e-4 q -0.50501,0.047 -1.05622,0.092 h 7.9e-4 c 2.72362,3.8212 -4.271184,18.2447 -14.52045,29.775 -6.26398,7.081 -10.757692,16.7493 -10.757692,23.2856 0,1.2257 -7.080994,9.8045 -15.659973,18.9282 -8.578919,9.1235 -16.885498,19.0642 -18.383362,21.9237 -1.497925,2.8597 -3.404358,5.9918 -4.357544,6.9449 -7.8980714,8.3066 -31.456055,54.3331 -37.039185,72.308 -2.31488,7.4895 -2.31488,7.762 0.544739,13.345 4.085205,8.1704 21.24304212,24.9197 27.779358,27.0986 2.859619,0.9532 15.796082,8.034 28.596375,15.7959 28.732604,17.158 48.750064,27.9156 52.018188,27.9156 1.225586,0 4.357606,-1.4977 6.808656,-3.4043 2.80905,-2.1847 5.707501,-3.3412 7.670571,-3.3412 0.29069,0 0.56088,0.025 0.80723,0.077 h -10e-4 q -18.756481,27.5706 -28.568321,69.3043 -25.503437,82.3421 -34.43707,525.6762 l 46.30699,-0.7564 h 8.65e-4 c 0.143675,1.7768 0.389259,3.6371 0.731265,5.6159 1.08935,6.6725 2.58728,10.213 6.263974,14.4342 6.536316,7.762 8.306577,11.7109 9.259767,20.29 1.22552,10.7576 1.90643,13.481 3.40436,13.481 0.95318,0 1.22552,-5.3106 1.08941,-14.1619 -0.2724,-7.7619 0,-14.7068 0.54462,-15.2515 0.24123,-0.1929 0.63628,-0.2834 1.13065,-0.2834 0.90107,0 2.1321,0.3005 3.36312,0.8281 2.45112,1.2256 3.4043,2.5873 3.4043,5.583 0,5.0386 1.22553,8.3067 2.99585,8.3067 0.95319,0 1.08936,-2.1787 0.68085,-5.5832 -0.54468,-3.8127 -0.13617,-5.7192 1.08941,-6.1278 0.25226,-0.1062 0.57312,-0.158 0.95766,-0.158 3.55956,0 12.57588,4.4421 23.14501,11.3243 5.4469,3.5405 14.16198,8.5789 19.47277,11.3024 l 9.53211,4.9022 32.00073,-0.1362 c 33.771,-0.136 39.4903,-0.9532 39.4903,-5.8553 0,-3.2683 -1.77027,-4.3576 -13.61731,-8.3066 -4.90229,-1.634 -9.39594,-3.5405 -10.21302,-4.2214 -0.6809,-0.681 5.4469,-1.2256 15.93226,-1.2256 9.5321,0 17.5664,-0.4085 17.83874,-1.0894 1.49786,-2.3149 -2.0426,-7.3533 -6.12781,-8.7151 -2.45111,-0.8171 -13.88965,-6.4001 -25.46441,-12.1193 -11.57471,-5.8555 -22.87714,-11.0301 -25.19202,-11.5749 -0.94101,-0.1882 -2.63797,-1.2786 -4.82826,-3.0038 h -0.002 l 112.0561,-1.83 h 0.003 q -1.13495,16.7559 -2.21969,33.9697 l 70.13055,0.9262 v 0 l -0.021,0.4407 c -0.27234,6.9448 0,8.4429 1.77026,8.4429 1.3617,0 2.0426,1.3617 2.0426,4.2214 0,6.5362 8.30658,9.532 29.14105,10.3491 3.84272,0.1799 7.43692,0.2743 10.84575,0.2743 17.24755,0 29.74794,-2.4187 45.66616,-8.4447 l 7.21722,-2.7235 2.58734,3.2682 c 1.97925,2.6779 2.86356,3.1657 12.27133,3.1657 1.5951,0 3.43525,-0.014 5.56729,-0.034 18.38343,-0.136 29.00501,-2.315 31.31983,-6.5362 0.63537,-1.0325 1.08543,-4.6586 1.35028,-10.4461 h 0.005 l 117.9278,1.5574 q -19.965,-388.4613 -53.0376,-514.6502 -7.815,-32.7271 -17.2187,-58.7168 h 0.006 c 2.15135,0.1446 4.5096,0.2169 6.9628,0.2169 1.6829,0 3.4104,-0.034 5.14644,-0.1021 1.22546,-0.1362 3.81276,-2.4512 5.583,-5.3107 1.9065,-2.7236 6.26392,-8.0343 9.53211,-11.5747 3.95005,-4.2393 5.51445,-5.6836 7.29725,-5.6836 0.73705,0 1.51146,0.2468 2.5072,0.6451 2.0426,0.6808 4.49377,1.3617 5.447,1.3617 1.9064,0 14.0259,-24.9197 24.78346,-51.0649 3.9491,-9.8046 8.98754,-21.3794 11.16638,-25.873 2.17871,-4.4936 5.71926,-15.5238 7.89796,-24.5112 2.0426,-8.9873 5.9917,-21.2429 8.8512,-27.2347 6.94493,-15.115 6.94493,-15.2515 3.5405,-25.1921 -2.8596,-8.4427 -3.81285,-9.3958 -19.47276,-23.1494 -8.98731,-7.898 -25.19204,-23.1495 -36.08594,-34.0433 -23.42175,-23.6941 -29.141,-28.4602 -40.17114,-34.1795 -10.07676,-5.0384 -12.9364,-7.898 -16.06836,-16.4771 -1.3617,-3.6765 -3.81287,-7.3532 -5.9917,-8.7149 -2.0426,-1.3617 -4.49365,-3.2683 -5.4469,-4.2215 -2.4512,-2.4511 -8.1704,-5.3106 -12.8003,-6.4001 -2.0426,-0.4086 -5.447,-3.132 -7.4895,-5.9915 -4.6631,-6.2174 -16.84228,-20.56717 -20.8321,-24.6479 h -0.005 l -1.11658,0.5935 q -0.17453,0.1482 -1.13684,0.58257 -0.32395,-0.45252 -0.66831,-0.94267 -2.25497,-3.4022 -3.8085,-5.8936 h -0.005 c -1.95304,0.46145 -4.43232,1.07016 -7.62708,1.8659 -7.19992,1.7882 -13.26688,3.2598 -13.50188,3.2598 -9e-4,0 -0.002,0 -0.002,-6e-5 -0.3197,-0.0185 -3.48731,-4.59794 -3.66852,-5.34638 -0.0495,-0.13702 0.0573,-0.20776 0.2793,-0.20776 0.14964,0 0.35164,0.0322 0.59332,0.0978 0.26252,0.0622 0.504,0.0926 0.68332,0.0926 0.1882,0 0.30795,-0.0335 0.31173,-0.099 0.009,-0.1599 -0.21783,-1.7773 -0.46203,-3.65244 -0.6659,-4.5625 -0.29645,-10.38056 0.91083,-15.15539 0.91302,-3.57257 3.18767,-9.60102 6.43573,-16.92057 3.73774,-8.5747 5.84222,-15.5434 6.72052,-22.39083 0.61502,-4.52037 0.61002,-10.52057 0.0599,-13.76097 -0.45928,-2.59334 -2.18914,-8.72567 -3.4599,-12.2646 -0.5542,-1.508 -0.99358,-2.78474 -0.98986,-2.84864 0.004,-0.064 0.3949,-0.16976 0.91022,-0.20396 0.74286,-0.0853 0.74286,-0.0853 -0.12236,-0.1033 -0.0177,2e-4 -0.035,3e-4 -0.0522,3e-4 -0.8872,0 -1.11658,-0.27666 -2.51007,-2.8441 -1.76715,-3.27893 -5.39813,-8.71924 -6.72729,-10.144 -0.51209,-0.5751 -0.92829,-1.14464 -0.91901,-1.30455 0.004,-0.0738 0.31644,-0.11902 0.80005,-0.11902 0.35489,0 0.80215,0.0244 1.28784,0.0797 0.67246,0.0766 1.26996,0.11573 1.65051,0.11573 0.26877,0 0.42935,-0.0195 0.43164,-0.0593 0.0186,-0.3197 -4.93097,-5.7084 -5.85125,-6.4355 -0.44846,-0.2999 -0.90232,-0.50664 -1.12832,-0.50664 -0.0386,0 -0.0706,0.006 -0.0948,0.0187 -0.0574,0.0247 -0.10046,0.0366 -0.1293,0.0366 -0.0704,0 -0.0559,-0.0712 0.0427,-0.20206 0.24604,-0.3707 -2.77276,-2.535 -4.77478,-3.4211 -0.75084,-0.33234 -2.61706,-0.7936 -4.17468,-1.0442 -1.52753,-0.2169 -3.0758,-0.6275 -3.48041,-0.84356 -0.37072,-0.2461 -1.88809,-1.74574 -3.39798,-3.37344 -3.23059,-3.492 -5.06579,-5.04234 -9.13659,-7.8772 -3.82618,-2.6282 -8.90863,-5.16874 -12.91058,-6.42765 -2.86426,-0.88115 -7.20454,-1.51795 -10.09278,-1.51795 -0.48105,0 -0.92182,0.0177 -1.30878,0.0548 -1.64754,0.19313 -4.45871,1.08895 -4.80636,1.5501 -0.10523,0.15426 1.9339,0.40084 4.49222,0.54916 4.44293,0.28974 4.8568,0.34589 7.74127,1.50774 2.82233,1.1262 3.68805,1.6897 3.25006,2.0493 -0.0138,0.0123 -0.0555,0.0182 -0.12195,0.0182 -0.42426,0 -1.85864,-0.2407 -3.50122,-0.61326 -3.83264,-0.87264 -11.07556,-1.34984 -17.73516,-1.34984 -4.5103,0 -8.75303,0.2189 -11.4876,0.6822 -1.16594,0.18906 -4.58294,1.0177 -7.61248,1.8046 -4.49826,1.215 -5.94042,1.7409 -8.29802,3.11224 l -2.8558,1.66321 1.62532,0.19049 c 0.24108,0.0271 0.48563,0.041 0.74048,0.041 0.99203,0 2.14065,-0.2107 3.85226,-0.67296 1.91281,-0.5443 4.9155,-0.91414 6.51999,-0.91414 0.83105,0 1.28699,0.0992 1.0221,0.32474 -0.16913,0.15066 -1.80695,0.72946 -3.60462,1.299 -4.9682,1.5728 -9.49927,3.9089 -13.12903,6.74656 -1.88342,1.49504 -6.63052,6.44964 -7.20706,7.53918 -0.21777,0.43646 -0.99042,1.03351 -1.71434,1.34443 -5.06727,2.17669 -11.11336,7.95443 -12.59596,11.94317 -0.23071,0.6604 -0.13854,0.72996 1.01263,0.79676 l 1.21509,0.0704 -2.56933,4.4712 c -3.10657,5.43483 -4.25916,8.1593 -4.33233,10.52944 -0.0747,2.13666 0.54448,4.35136 1.02053,4.35136 0.14459,0 0.27597,-0.20427 0.37069,-0.6772 0.084,-0.37106 0.34775,-0.67074 0.59836,-0.67074 0.006,0 0.012,1.8e-4 0.018,5.4e-4 0.38366,0.0222 0.36614,1.433 -0.10724,9.0418 -0.28925,4.9886 -0.71382,10.0975 -0.91402,11.33736 -0.35548,2.25734 -0.32716,2.3233 0.37633,2.36407 0.0355,0.002 0.0694,0.003 0.10193,0.003 0.49534,0 0.66272,-0.25866 0.90887,-1.3885 0.14227,-0.79387 0.40872,-1.5164 0.57419,-1.6031 0.0849,-0.0445 0.15988,-0.0642 0.21228,-0.0642 0.0498,0 0.0791,0.0177 0.0773,0.0489 -0.004,0.0639 0.10434,0.9688 0.23502,2.03504 0.13245,1.03436 0.33405,3.64502 0.40355,5.76666 l 0.1612,3.85956 0.52137,-1.79856 c 0.28137,-0.9784 0.54693,-2.7918 0.61557,-3.97494 0.14476,-2.49716 0.34131,-3.24876 0.94536,-3.24876 0.0148,0 0.0298,5e-4 0.0451,10e-4 0.005,3.3e-4 0.01,4.6e-4 0.0146,4.6e-4 0.34094,0 0.47634,-0.7212 0.65365,-3.77986 0.12793,-2.2065 0.35413,-3.8938 0.55347,-4.0106 0.0308,-0.0133 0.0597,-0.0196 0.0864,-0.0196 0.14418,0 0.22483,0.184 0.20923,0.4538 -0.0204,0.35174 0.32532,2.1365 0.76319,3.9908 1.6007,6.7023 2.2304,15.2092 1.44166,18.85325 -0.654,2.97815 -2.33266,6.47435 -4.4538,9.30315 -4.20494,5.56355 -4.13548,5.4713 -4.01774,6.7616 0.057,0.6771 0.26092,1.5872 0.42499,2.0781 0.41845,1.08304 3.42941,2.82974 5.74148,3.3489 3.51612,0.7814 4.05701,1.9678 2.51551,5.3115 -0.66462,1.50144 -0.94404,2.4479 -0.82129,3.09665 0.16272,1.06825 1.38849,2.61525 2.4516,3.09405 0.62658,0.26093 0.64923,0.4226 0.35265,1.1112 -0.5144,1.1253 -0.67156,4.3889 -0.2512,5.44 0.22435,0.5584 0.7136,0.9717 1.59422,1.2795 2.01313,0.69427 2.24482,1.12493 2.41724,4.79266 0.24738,5.69327 2.10852,9.00977 5.78308,10.37787 1.04352,0.3892 1.97916,0.6114 3.0676,0.6114 2.41666,0 5.58656,-1.0951 12.36282,-3.8877 7.89661,-3.24128 14.01724,-4.99503 17.29644,-4.99503 0.44688,0 0.84098,0.0326 1.1796,0.0984 3.67975,0.7268 7.26728,3.59793 13.70246,11.02963 2.74362,3.1485 6.93072,8.7979 9.85586,13.1209 h -0.004 c -13.57422,5.1529 -24.13086,12.2893 -27.33676,18.7011 -1.49786,2.8595 -2.99579,8.1704 -3.4043,11.7108 -0.5448,3.813 -3.26826,11.0303 -6.67254,17.0216 -3.13196,5.7194 -7.89802,14.7069 -10.62146,20.0176 -2.85968,5.1745 -8.17041,14.4344 -11.84716,20.426 -3.6766,5.9917 -9.6683,15.6599 -13.34492,21.3793 -3.54053,5.8553 -7.08106,10.6214 -7.62573,10.6214 -0.68085,0 -1.22553,-0.1361 -1.22553,-0.4084 0,-2.9959 -7.08112,-18.7919 -11.71094,-26.2814 -4.0852,-6.5365 -8.44274,-16.8856 -13.34491,-32.0007 -4.0852,-12.2556 -8.0343,-22.4687 -8.85125,-22.7411 -2.17884,-0.6808 -1.77039,-3.8128 1.36168,-10.7578 2.3149,-5.1745 2.5873,-7.6255 1.7702,-14.979 -1.047,-10.0053 -3.18746,-13.6492 -8.88396,-13.6492 -0.97107,0 -2.04547,0.1059 -3.23541,0.3042 -1.49817,0.2141 -2.62256,0.3627 -3.5372,0.3627 -2.57706,0 -3.48883,-1.18 -6.40347,-5.4011 -2.17872,-3.268 -4.49372,-7.3532 -5.0384,-9.2598 -1.49792,-5.1745 -10.07678,-20.69843 -13.20886,-24.23883 -1.8765,-2.00157 -3.40817,-2.90495 -4.50516,-2.9057 h -0.003 c -2.48276,0.002 -2.73548,4.63234 0.28653,11.6208 1.22564,2.99573 3.81287,9.80443 5.85547,15.38773 l 3.54058,10.0767 -5.71936,5.9917 c -3.26812,3.2682 -6.26402,7.3534 -6.67248,8.9873 -0.40851,1.6341 -1.49794,5.3109 -2.315,8.0344 -1.36176,4.9021 -1.22554,5.5829 3.81298,12.9364 8.03418,11.7108 9.25971,14.9791 6.67243,18.5194 -1.08942,1.6342 -2.0426,3.9492 -2.0426,5.1747 0,1.2256 5.1745,15.66 11.43853,32.0007 6.40022,16.4771 13.0727,34.7243 14.84284,40.7158 1.90648,5.9919 5.03851,14.5707 7.08111,19.0644 9.1236,20.4259 10.48529,23.2856 11.71094,25.4644 0.68085,1.3617 1.22553,2.9959 1.22553,3.6767 0,2.3149 9.94055,18.3834 13.75354,22.1963 2.99566,3.1318 5.03826,3.8127 10.07678,3.8127 3.40436,0 7.62573,-0.6809 9.2597,-1.4978 5.31078,-2.7234 17.29408,-15.3877 22.19635,-23.4219 2.72345,-4.2214 5.31073,-7.7619 5.85541,-7.7619 6.67242,0 15.11524,11.8471 20.83452,29.2773 2.70964,8.0159 4.76396,35.7824 4.61095,56.5251 h -0.004 q -24.42186,39.2766 -42.93189,108.708 -37.50192,141.9337 -59.00201,429.666 v 0 q -15.21442,-368.1995 -35.43736,-483.2896 -5.85643,-39.0538 -14.076,-66.8329 h -0.003 c -0.96603,-8.8414 -2.17978,-15.1071 -3.49234,-17.8144 -0.95319,-1.9061 -1.22559,-7.898 -0.68085,-16.3407 0.40851,-7.3532 0.13611,-22.8771 -0.68091,-34.4518 -2.17877,-29.5497 -1.90643,-34.1794 2.17877,-50.6566 3.67676,-15.1151 4.62995,-30.775 2.17878,-37.0391 -1.90638,-5.1747 -9.53211,-13.0726 -32.68158,-33.771 -28.86872,-26.009 -38.12854,-35.1327 -38.94562,-38.8094 -0.54462,-1.7702 -1.3617,-3.132 -2.0426,-3.132 -0.68085,0 -1.22553,-1.3617 -1.0893,-3.1318 0,-1.1502 0.14865,-1.7551 0.35628,-1.7551 0.13655,0 0.29861,0.2615 0.46068,0.8018 0.40856,1.0893 2.17883,3.4043 3.81286,5.1745 1.45041,1.5822 2.56035,2.2567 3.25658,2.2567 1.46088,0 1.10025,-2.9693 -1.75859,-6.7504 -1.90649,-2.451 -3.54053,-5.7193 -3.54053,-7.217 0,-1.3618 -1.08941,-3.5407 -2.45117,-4.9024 -0.75497,-0.6606 -1.56719,-1.5992 -2.38492,-2.7088 h -0.002 q -2.69432,0.6043 -5.01418,1.0653 c -0.0282,-0.2194 -0.0564,-0.4453 -0.0847,-0.6781 -0.96969,-7.9189 0.67377,-15.37453 4.34192,-19.83007 0.31708,-0.38316 0.73352,-0.9303 0.92352,-1.20846 0.76954,-1.1382 8.70403,-14.6751 9.16802,-15.6498 0.5607,-1.1869 1.138,-1.88905 1.85438,-2.29555 0.21052,-0.11845 0.46354,-0.23335 0.75199,-0.34289 0.80621,-0.30696 1.89014,-0.57336 3.10376,-0.76136 1.93243,-0.2926 9.34773,-0.6359 13.57223,-0.6359 0.1159,0 0.22936,2e-4 0.34026,8e-4 0.27501,0.002 0.54012,0.003 0.7959,0.003 3.35906,0 5.11491,-0.17962 6.68657,-0.77716 0.51822,-0.19665 1.0162,-0.4391 1.54501,-0.7357 2.40894,-1.3455 4.00015,-3.37074 4.64942,-5.92287 0.5008,-1.98443 0.51878,-3.5152 0.043,-5.58753 -0.64138,-2.81506 -0.62283,-4.7466 0.0822,-6.3666 0.45877,-1.0589 0.83896,-1.6042 2.04642,-2.93845 0.85474,-0.9375 1.23575,-1.46991 1.48013,-2.05545 0.58527,-1.3824 0.33683,-2.49655 -0.79873,-3.6191 -0.43845,-0.43555 -0.45221,-0.4585 -0.2909,-0.80836 0.23538,-0.53558 1.24402,-1.73764 2.0293,-2.4154 1.21161,-1.05614 1.18512,-1.71008 -0.15366,-3.39014 -1.56311,-1.98315 -2.04388,-3.32715 -1.57928,-4.4958 0.2529,-0.6463 0.86514,-1.3747 2.56253,-3.0425 2.01871,-1.97757 3.56613,-4.32803 3.50653,-5.3323 -0.027,-0.44745 -0.52722,-0.9032 -1.92679,-1.7671 -0.51751,-0.333 -1.23672,-0.7885 -1.5907,-1.0222 -0.61889,-0.4004 -3.95266,-3.5767 -6.35713,-6.0319 -1.24133,-1.27316 -3.24972,-3.59384 -3.25958,-3.7635 -0.005,-0.0724 0.40619,-0.7161 0.89737,-1.4375 1.30737,-1.89907 1.95578,-3.04226 2.46197,-4.323 0.40076,-0.9924 0.83378,-2.8549 0.69776,-2.9788 l -0.013,-6e-4 c -0.0782,0.0362 -0.50485,0.5227 -0.97754,1.12696 -1.20245,1.50734 -1.95535,2.20494 -2.91242,2.56924 -0.33761,0.12815 -0.70086,0.2153 -1.11825,0.2812 l -0.75781,0.1179 -0.32886,-5.91743 c -0.28061,-4.91217 -0.38279,-6.21741 -0.65506,-7.73102 -0.9614,-5.53985 -2.47013,-9.45655 -4.87686,-12.76105 -0.34482,-0.4896 -1.22425,-2.0035 -1.94789,-3.3444 -2.01108,-3.8013 -3.49405,-6.0684 -4.82373,-7.39736 l -0.50357,-0.5039 1.02352,-2.38001 c 3.19875,-7.43943 3.26522,-14.26693 0.20478,-19.57226 -1.12305,-1.93653 -2.38651,-3.37897 -4.32599,-4.95081 -1.39069,-1.13106 -2.48746,-1.80616 -4.81772,-3.01446 -1.12802,-0.58857 -2.37251,-1.3041 -2.75398,-1.59675 -4.98273,-3.74555 -11.66255,-6.01831 -18.96051,-6.44561 -0.044,-0.002 -0.0897,-0.005 -0.13654,-0.007 -0.35927,-0.0169 -0.80366,-0.0247 -1.30302,-0.0247 z" />
    </g>
  </g>
</svg>
