<?xml version="1.0" encoding="UTF-8" standalone="no"?>
<svg
   xmlns:dc="http://purl.org/dc/elements/1.1/"
   xmlns:cc="http://creativecommons.org/ns#"
   xmlns:rdf="http://www.w3.org/1999/02/22-rdf-syntax-ns#"
   xmlns:svg="http://www.w3.org/2000/svg"
   xmlns="http://www.w3.org/2000/svg"
   xmlns:sodipodi="http://sodipodi.sourceforge.net/DTD/sodipodi-0.dtd"
   xmlns:inkscape="http://www.inkscape.org/namespaces/inkscape"
   viewBox="0 0 162 162"
   version="1.1"
   id="svg46"
   sodipodi:docname="dometo.svg"
   inkscape:version="1.0 (4035a4fb49, 2020-05-01)">
  <metadata
     id="metadata52">
    <rdf:RDF>
      <cc:Work
         rdf:about="">
        <dc:format>image/svg+xml</dc:format>
        <dc:type
           rdf:resource="http://purl.org/dc/dcmitype/StillImage" />
        <dc:title />
      </cc:Work>
    </rdf:RDF>
  </metadata>
  <defs
     id="defs50" />
  <sodipodi:namedview
     inkscape:document-rotation="0"
     pagecolor="#ffffff"
     bordercolor="#666666"
     borderopacity="1"
     objecttolerance="10"
     gridtolerance="10"
     guidetolerance="10"
     inkscape:pageopacity="0"
     inkscape:pageshadow="2"
     inkscape:window-width="1920"
     inkscape:window-height="1016"
     id="namedview48"
     showgrid="false"
     inkscape:zoom="4.7300799"
     inkscape:cx="19.740281"
     inkscape:cy="90.037115"
     inkscape:window-x="0"
     inkscape:window-y="0"
     inkscape:window-maximized="1"
     inkscape:current-layer="svg46" />
  <path
     id="path6"
     d="M 21.123047 71.904297 L 21.125 71.90625 L 32.9375 138.8125 L 37.761719 155.94727 L 125.10938 156.50391 L 128.6543 139.09375 L 136.12305 86.904297 L 21.123047 71.904297 z "
     style="fill:#fb8b24;fill-opacity:1" />
  <path
     style="fill:#ffffff;fill-opacity:1"
     id="path10"
     fill="#eeeeec"
     d="m 66.125,116.91 4.75,38.031 c 3.3114,0.43227 6.6936,0.6875 10.125,0.6875 3.5174,0 6.9839,-0.26489 10.375,-0.71875 l 4.75,-38 h -30 z" />
  <path
     id="path12"
     fill="#ad7fa8"
     d="m 71.132,121.9 h 20 l -5,15 h -10 z"
     style="fill:#fb8b24;fill-opacity:1" />
  <path
     id="path14"
     fill="#ad7fa8"
     d="m 87.632,141.9 c 0,1.38 -1.12,2.5 -2.5,2.5 -1.38,0 -2.5,-1.12 -2.5,-2.5 0,-1.38 1.12,-2.5 2.5,-2.5 1.38,0 2.5,1.12 2.5,2.5 z"
     style="fill:#fb8b24;fill-opacity:1" />
  <path
     style="fill:#ffffff;fill-opacity:1"
     id="path16"
     fill="#eeeeec"
     d="m 106.13,106.9 h 20 l -4.6317,28.098 -20,2 z" />
  <path
     style="fill:#ffffff;fill-opacity:1"
     id="path20"
     fill="#eeeeec"
     d="m 56.132,106.9 h -20 l 5.3683,30.098 20,-5 z" />
  <path
     id="path22"
     fill="#75507b"
     d="m 44.989,105.84 4.202,30.157 h 3.3091 l -4.202,-30.157 z"
     style="fill:#fb8b24;fill-opacity:1" />
  <path
     id="path24"
     fill="#75507b"
     d="m 117.5,105.65 -3.9161,32.348 H 110.5 l 3.9161,-32.348 z"
     style="fill:#fb8b24;fill-opacity:1" />
  <path
     id="path26"
     fill="#75507b"
     d="m 61.5,114.34 -25.662,-2.691 -1.6463,2.6624 25.662,2.691 z"
     style="fill:#fb8b24;fill-opacity:1" />
  <path
     id="path28"
     fill="#75507b"
     d="m 100.098,116.13 25.75,-2.9029 1.6519,2.8721 -25.75,2.9029 z"
     style="fill:#fb8b24;fill-opacity:1" />
  <path
     id="path40"
     fill="#75507b"
     d="m 99.5,128.34 25.75,-2.691 1.6519,2.6624 -25.75,2.691 z"
     style="fill:#fb8b24;fill-opacity:1" />
  <path
     id="path42"
     fill="#75507b"
     d="m 63.5,125.34 -26.602,-2.691 -1.7066,2.6624 26.602,2.691 z"
     style="fill:#fb8b24;fill-opacity:1" />
  <g
     inkscape:groupmode="layer"
     id="layer1"
     inkscape:label="top"
     style="display:inline">
    <path
       id="path8"
       style="fill:#fb8b24;fill-opacity:1;stroke:#ffffff;stroke-opacity:1"
       d="m 108.90039,27.576172 v 4.642578 l 3.55859,0.394531 -2.77148,9.597657 -58.556641,-6.238282 -44.9999996,51.142578 145.0000006,12.78711 -20,-55.40625 -7.46484,-0.794922 0.69726,-9.763672 3.82227,0.423828 -0.35743,-5.357422 z M 54.292969,57.417969 c 4.399841,0.133161 8.085338,3.104469 9.28125,7.15039 l -8.246094,1.279297 z m -3.798828,0.625 1.052734,8.398437 -7.548828,1.167969 c -0.0014,-0.06957 -0.0098,-0.137117 -0.0098,-0.207031 0,-4.289077 2.710091,-7.939813 6.50586,-9.359375 z m 59.974609,5.480469 -1.0293,8.386718 -7.56054,-1.173828 c 1.10227,-3.87304 4.47462,-6.794552 8.58984,-7.21289 z m 3.83594,0.357421 c 4.14985,1.217411 7.18554,5.049847 7.18554,9.591797 0,0.112127 -0.0119,0.220792 -0.0156,0.332032 l -8.25391,-1.300782 z m -50.365237,4.523438 c -0.41191,4.131529 -3.346595,7.517613 -7.236328,8.615234 l -0.90625,-7.359375 z m -11.923828,1.849609 0.876953,7.085938 C 49.260802,76.942873 46.213916,74.599175 44.814453,71.375 Z m 49.539065,4.332032 7.41601,1.167968 -0.8789,7.113282 c -3.51078,-1.272019 -6.11102,-4.44616 -6.53711,-8.28125 z m 11.19726,1.761718 7.85157,1.220703 c -1.51673,3.36617 -4.83685,5.736697 -8.73047,5.884766 z" />
    <path
       style="fill:#ffffff;fill-rule:evenodd;stroke:none;stroke-width:1px;stroke-linecap:butt;stroke-linejoin:miter;stroke-opacity:1"
       d="m 49.903813,76.568374 2.988765,0.77147 -0.44573,-2.983985 -4.666854,-0.993603 0.15476,2.183561 z"
       id="path934" />
  </g>
</svg>
