<?xml version="1.0" encoding="UTF-8" standalone="no"?>
<svg
   xmlns:dc="http://purl.org/dc/elements/1.1/"
   xmlns:cc="http://creativecommons.org/ns#"
   xmlns:rdf="http://www.w3.org/1999/02/22-rdf-syntax-ns#"
   xmlns:svg="http://www.w3.org/2000/svg"
   xmlns="http://www.w3.org/2000/svg"
   xmlns:sodipodi="http://sodipodi.sourceforge.net/DTD/sodipodi-0.dtd"
   xmlns:inkscape="http://www.inkscape.org/namespaces/inkscape"
   inkscape:version="1.0 (4035a4fb49, 2020-05-01)"
   sodipodi:docname="dormado.svg"
   id="svg1605"
   version="1.1"
   viewBox="0 0 640 480">
  <metadata
     id="metadata1611">
    <rdf:RDF>
      <cc:Work
         rdf:about="">
        <dc:format>image/svg+xml</dc:format>
        <dc:type
           rdf:resource="http://purl.org/dc/dcmitype/StillImage" />
        <dc:title></dc:title>
      </cc:Work>
    </rdf:RDF>
  </metadata>
  <defs
     id="defs1609" />
  <sodipodi:namedview
     inkscape:current-layer="svg1605"
     inkscape:window-maximized="1"
     inkscape:window-y="0"
     inkscape:window-x="0"
     inkscape:cy="240"
     inkscape:cx="320"
     inkscape:zoom="1.6164321"
     showgrid="false"
     id="namedview1607"
     inkscape:window-height="1016"
     inkscape:window-width="1920"
     inkscape:pageshadow="2"
     inkscape:pageopacity="0"
     guidetolerance="10"
     gridtolerance="10"
     objecttolerance="10"
     borderopacity="1"
     bordercolor="#666666"
     pagecolor="#ffffff" />
  <path
     style="fill:#9a031e;fill-opacity:1"
     id="path1595"
     d="m140.92 193.9c32.112 0 58.142-30.422 58.142-67.947 0-37.531-26.03-67.958-58.142-67.958-32.108 0-58.139 30.427-58.139 67.958 0 37.525 26.031 67.947 58.139 67.947z" />
  <path
     style="fill:#9a031e;fill-opacity:1"
     id="path1597"
     d="m140.92 125.95" />
  <path
     style="fill:#9a031e;fill-opacity:1"
     id="path1599"
     d="m266.46 106.68h232.4c34.095 0 54.179 25.648 54.179 59.985v98.316h-286.58v-158.3z" />
  <path
     style="fill:#9a031e;fill-opacity:1"
     id="path1601"
     d="m203.2 141.86v58.966h-89.352c-43.137 0.1808-43.207 64.988 0 64.988h117.14c17.106 0 27.816-16.137 27.816-34.391v-89.564c0-49.064-55.604-49.064-55.604 0z" />
  <path
     style="fill:#9a031e;fill-opacity:1"
     id="path1603"
     d="m71.677 50.024c0-53.509-63.519-53.509-63.519 0v429.08h64.929v-110.81h494.02v109.98h63.517v-331.41c0-56.47-64.222-56.47-64.222 0v132.28h-494.73v-229.12h3.8e-5z" />
</svg>
