<?xml version="1.0" encoding="UTF-8" standalone="no"?>
<svg
   xmlns:dc="http://purl.org/dc/elements/1.1/"
   xmlns:cc="http://creativecommons.org/ns#"
   xmlns:rdf="http://www.w3.org/1999/02/22-rdf-syntax-ns#"
   xmlns:svg="http://www.w3.org/2000/svg"
   xmlns="http://www.w3.org/2000/svg"
   xmlns:sodipodi="http://sodipodi.sourceforge.net/DTD/sodipodi-0.dtd"
   xmlns:inkscape="http://www.inkscape.org/namespaces/inkscape"
   height="291.35995"
   width="375.45993"
   inkscape:version="1.0 (4035a4fb49, 2020-05-01)"
   sodipodi:docname="ekvivas.svg"
   id="svg6"
   version="1.1"
   viewBox="0 0 375.45993 291.35995">
  <metadata
     id="metadata12">
    <rdf:RDF>
      <cc:Work
         rdf:about="">
        <dc:format>image/svg+xml</dc:format>
        <dc:type
           rdf:resource="http://purl.org/dc/dcmitype/StillImage" />
        <dc:title></dc:title>
      </cc:Work>
    </rdf:RDF>
  </metadata>
  <defs
     id="defs10" />
  <sodipodi:namedview
     fit-margin-bottom="5"
     fit-margin-right="5"
     fit-margin-left="5"
     lock-margins="true"
     fit-margin-top="5"
     inkscape:current-layer="svg6"
     inkscape:window-maximized="1"
     inkscape:window-y="0"
     inkscape:window-x="0"
     inkscape:cy="166.43732"
     inkscape:cx="121.70357"
     inkscape:zoom="1.0117377"
     inkscape:snap-global="false"
     showgrid="false"
     id="namedview8"
     inkscape:window-height="704"
     inkscape:window-width="1366"
     inkscape:pageshadow="2"
     inkscape:pageopacity="0"
     guidetolerance="10"
     gridtolerance="10"
     objecttolerance="10"
     borderopacity="1"
     bordercolor="#666666"
     pagecolor="#ffffff" />
  <path
     style="fill:#9a031e;fill-opacity:1"
     d="m 101.61213,111.83203 -0.002,0.002 c -2.378305,0.004 -4.773755,0.2243 -7.093755,0.625 -3.0414,0.52531 -6.2955,1.26815 -8.6875,3.21875 -2.4578,2.0042 -3.8751,5.0974 -5,8.0625 -1.143,3.0129 -1.56125,6.31225 -1.65625,9.53125 -0.004,1.7924 1.5955,2.93145 2.375,4.40625 l 3.15625,4.65625 c 1.8952,0.19936 2.6991,3.1092 4.9375,1.9375 0.43807,-0.22931 1.14335,0.53008 1.59375,0.84375 1.8722,1.3039 2.80275,3.8144 3.71875,6.625 l -1.21875,7.875 h -0.09375 c 0,0 -5.02465,2.9375 -6.34375,5.375 -3.1225,5.7702 -3.248,13.02125 -2.4375,19.53125 0.8854,7.112 7.8125,20.03125 7.8125,20.03125 l 12.218795,20.03125 c 0,3.6446 1.14565,7.8849 -1.46875,10.75 l -4.917967,13.57226 h 56.458987 c -9.10517,-15.76408 -6.27149,-21.50284 -6.27149,-45.2539 l 33.38867,6.77539 4.90625,-5.875 1.46875,10.28125 6.34375,-6.84375 v 3.90429 l -8.8125,9.28125 14.65625,-6.84375 -9.75,12.22071 12.21875,-12.22071 4.75,-11.90429 h 9.75 c 0,0 1.03865,0.20462 1.46875,0.5 0.599,0.4114 0.76032,1.3547 1.40625,1.6875 1.2644,0.65144 4.25,0.28125 4.25,0.28125 l 1.5,-0.59375 2.0625,2 1.78125,1.46875 c 0,0 -0.0725,1.94345 0.59375,2.46875 0.33686,0.26558 0.96622,0.29109 1.28125,0 0.75369,-0.69631 0.25,-3.0625 0.25,-3.0625 l -1.53125,-2.375 -2.1875,-2.09375 c 1.0124,-0.84362 1.3669,-1.07245 1.1875,-2.46875 l 1.1875,0.90625 3.28125,3.15625 1.9375,3.84375 c 0.34629,0.69046 0.99009,-0.34336 1.125,-0.78125 0.38211,-1.2401 -1.375,-3.65625 -1.375,-3.65625 l -3.0625,-2.96875 -2.09375,-1.59375 v -0.875 l 2.78125,1.78125 2.96875,3.15429 c 0,0 1.15295,3.93765 2.28125,3.28125 l 0.65625,-0.40625 c 1.2374,-0.71971 -1.5625,-3.84375 -1.5625,-3.84375 l -2.875,-3.46875 -3.15625,-2 0.0937,-0.46875 4.46875,2.75 2.46875,3.46875 c 0,0 1.1984,3.50185 2.125,2.71875 l 0.75,-0.625 c 0.83773,-0.70804 -1.1875,-3.09375 -1.1875,-3.09375 l -2.09375,-2.84375 -5.625,-3.875 -4.5625,-1.78125 h -3.28125 l -7.125,0.59375 -10.8125,0.46875 -49.31054,-9.0625 -4.8125,-2.6875 1.875,0.71875 13.6875,-2.4375 18.0625,1.30078 8.3125,2.13672 4.84375,-2 13.05468,4.94532 -7.46093,-7.00782 17.90625,5.5 -10.40625,-7.03125 13.81054,8.03125 -3.50195,-12.69336 3.06445,-6.58789 0.5,-0.125 4.84375,1.4375 c 2.4808,-0.15739 4.9274,-0.73245 7.375,-1.1875 l 3.75,2.0625 c 1.5082,0.5036 1.7066,2.01945 2.875,3.28125 1.1684,1.2618 1.89825,0.36488 1.78125,-0.5 -0.117,-0.86488 -1.02155,-1.8779 -1.53125,-2.8125 -1.47,-0.73498 -2.03,-2.2025 -3.5,-2.9375 -1.3294,-0.65477 -0.20295,-1.05575 -0.15625,-2.15625 2.1595,0.94461 3.13145,1.37095 5.21875,2.46875 1.8657,0.53384 2.67865,3.05455 3.53125,3.90625 0.8526,0.8517 1.05945,-0.75489 1.03125,-1.53125 -0.0282,-0.77636 -0.76684,-1.7057 -1.15625,-2.5625 -2.6783,-2.1108 -5.76095,-3.74705 -8.78125,-5.34375 l 1.53125,-1 4.25,1.25 c 0.41544,0.53897 0.63053,1.3091 0.96875,1.9375 0.25018,1.4532 1.919,2.72475 2.9375,2.40625 1.0185,-0.3185 0,-1.7128 0,-2.5625 -1.172,-1.5069 -2.48425,-2.7431 -3.65625,-4.25 -0.51541,-0.15805 -1.02315,-0.2671 -1.59375,-0.3125 -0.94107,0.2233 -1.5898,-0.36455 -1.9375,-1.21875 0.86347,-0.30645 3.1926,0.83655 4.5625,1.15625 3.1891,0.76746 1.7252,3.65475 2.875,4.90625 1.1498,1.2515 1.65715,-1.5971 1.53125,-2.0625 -0.14318,-2.7076 -1.8774,-3.56005 -2.8125,-5.34375 l -7.5625,-2.28125 c -0.8088,0.0749 -1.6259,0.35332 -2.4375,0.5 -3.8176,0.68508 -7.41219,2.2147 -11.02929,3.5625 -1.8186,0.77989 -3.68771,1.3283 -5.59571,1.8125 l -0.3125,-1.0625 c -18.279,2.4044 -38.5995,0.77829 -55.68749,4.375 l -7.34375,0.5 -38.5625,-7.30859 -0.0312,-0.0352 -0.0977,0.0117 -1.8711,-0.35547 -2.78125,-3.9375 c 2.7959,-2.5746 7.31295,-1.0481 8.65625,-4.75 0.4184,-1.153 -0.3467,-3.9986 -2.53125,-4.8125 0.011,-0.0429 0.0245,-0.0626 0.0312,-0.125 -0.0591,0.0134 -0.12668,0.047 -0.1875,0.0625 l -0.0937,-0.0312 c -0.12218,-0.19424 -0.21251,-0.28696 -0.25,-0.3125 0.002,0.0653 0.0615,0.26277 0.15625,0.40625 -1.6462,0.45675 -3.7379,1.4511 -3.75,0.78125 -1.601,-0.39753 -0.37503,-4.95335 3.3125,-5.28125 -1.2882,-1.8078 -0.7991,-2.9788 -0.9375,-3.5 4.6649,-2.9875 0.43395,-5.3923 -2.15625,-7.6875 -0.33641,-3.6503 -1.7997,-6.9651 -4.375,-9.5 1.129,0.10301 2.4049,-0.0297 1,-0.96875 -2.2276,-1.6228 -4.62835,-3.3395 -7.46875,-3.5625 -2.2916,-0.55638 -4.65295,-0.78498 -7.03125,-0.78125 z"
     id="path2" />
  <g
     transform="translate(100.06339,127.41729)"
     id="g857">
    <path
       sodipodi:nodetypes="cssccc"
       id="path853"
       d="m -19.388944,131.21618 2.326142,-76.18509 C -14.789508,-19.423131 -107.03379,0.135884 -93.75532,66.603805 l 16.843051,75.417405 10.221453,1.25335 z"
       style="fill:#9a031e;fill-opacity:1;fill-rule:evenodd;stroke:none;stroke-width:1.15677px;stroke-linecap:butt;stroke-linejoin:miter;stroke-opacity:1" />
    <path
       style="fill:#9a031e;fill-opacity:1;fill-rule:evenodd;stroke:#ffffff;stroke-width:3;stroke-linecap:butt;stroke-linejoin:miter;stroke-miterlimit:4;stroke-dasharray:none;stroke-opacity:1"
       d="m -19.446491,131.21962 2.467822,-79.729882 c 1.992178,-64.362859 -77.777523,-47.455441 -66.298636,10.004303 l 16.303374,81.609629 z"
       id="path851"
       sodipodi:nodetypes="csscc" />
  </g>
  <path
     d="m 159.98712,221.17578 c -4.89285,-0.0597 -12.87374,2.94288 -25.66702,10.93474 -8.92432,-8.47052 -34.938298,-13.4695 -35.791145,7.88307 -7.433045,-16.37956 -33.129738,-9.89839 -31.703853,6.8352 -6.179579,-18.99539 -23.403962,-3.90383 -19.958472,11.1361 -11.88169,-11.49716 -33.4458,9.13699 -18.7189,24.53686 l 207.27435,1.2676 c -0.0229,-0.0789 -0.043,-0.15665 -0.0657,-0.23548 l 132.43642,0.80975 c -3.89571,-13.43386 -4.46613,-26.0747 -27.89057,-25.9883 -2.09278,-25.99632 -12.42647,-33.82546 -41.51807,-14.26131 1.58464,-13.78231 7.29567,-35.76624 -31.69335,-11.41009 -8.92446,-8.47065 -34.93898,-13.46966 -35.79114,7.88394 -5.73093,-12.62876 -22.31845,-11.66832 -28.96294,-2.89673 -5.92803,-8.0189 -16.92536,-6.92755 -35.92333,5.84861 1.06468,-9.25999 3.99236,-22.22169 -6.02633,-22.34396 z M 28.14773,282.50175 h -0.005 l 0.006,8.8e-4 c 0,0 -8.8e-4,-8.8e-4 -8.8e-4,-8.8e-4 z"
     style="fill:#9a031e;fill-opacity:1;stroke:#ffffff;stroke-width:4;stroke-miterlimit:4;stroke-dasharray:none;paint-order:normal"
     id="path2-0" />
  <path
     sodipodi:nodetypes="ccccccccccc"
     id="path881"
     d="m 210.00079,5 17.42383,31.300784 -52.01953,-3.746094 20.36719,47.570312 -30.04297,11.5625 5.41835,58.226278 18.44493,-41.69503 38.04688,-14.644529 -14.66407,-34.251953 57.01954,4.107422 C 242.92094,35.511377 237.67637,26.764792 210.00079,5 Z"
     style="color:#000000;font-style:normal;font-variant:normal;font-weight:normal;font-stretch:normal;font-size:medium;line-height:normal;font-family:sans-serif;font-variant-ligatures:normal;font-variant-position:normal;font-variant-caps:normal;font-variant-numeric:normal;font-variant-alternates:normal;font-variant-east-asian:normal;font-feature-settings:normal;font-variation-settings:normal;text-indent:0;text-align:start;text-decoration:none;text-decoration-line:none;text-decoration-style:solid;text-decoration-color:#000000;letter-spacing:normal;word-spacing:normal;text-transform:none;writing-mode:lr-tb;direction:ltr;text-orientation:mixed;dominant-baseline:auto;baseline-shift:baseline;text-anchor:start;white-space:normal;shape-padding:0;shape-margin:0;inline-size:0;clip-rule:nonzero;display:inline;overflow:visible;visibility:visible;opacity:1;isolation:auto;mix-blend-mode:normal;color-interpolation:sRGB;color-interpolation-filters:linearRGB;solid-color:#000000;solid-opacity:1;vector-effect:none;fill:#9a031e;fill-opacity:1;fill-rule:evenodd;stroke:none;stroke-width:24;stroke-linecap:butt;stroke-linejoin:miter;stroke-miterlimit:4;stroke-dasharray:none;stroke-dashoffset:0;stroke-opacity:1;color-rendering:auto;image-rendering:auto;shape-rendering:auto;text-rendering:auto;enable-background:accumulate;stop-color:#000000;stop-opacity:1" />
</svg>
