<?xml version="1.0" encoding="UTF-8" standalone="no"?>
<svg
   xmlns:dc="http://purl.org/dc/elements/1.1/"
   xmlns:cc="http://creativecommons.org/ns#"
   xmlns:rdf="http://www.w3.org/1999/02/22-rdf-syntax-ns#"
   xmlns:svg="http://www.w3.org/2000/svg"
   xmlns="http://www.w3.org/2000/svg"
   xmlns:sodipodi="http://sodipodi.sourceforge.net/DTD/sodipodi-0.dtd"
   xmlns:inkscape="http://www.inkscape.org/namespaces/inkscape"
   inkscape:version="1.0 (4035a4fb49, 2020-05-01)"
   sodipodi:docname="enamiÄado.svg"
   id="svg2266"
   xml:space="preserve"
   viewBox="0 0 1100.1261 996.9929"
   version="1.1"
   enable-background="new 0 0 1100.1261 996.9929"><metadata
   id="metadata2272"><rdf:RDF><cc:Work
       rdf:about=""><dc:format>image/svg+xml</dc:format><dc:type
         rdf:resource="http://purl.org/dc/dcmitype/StillImage" /><dc:title></dc:title></cc:Work></rdf:RDF></metadata><defs
   id="defs2270" /><sodipodi:namedview
   inkscape:current-layer="svg2266"
   inkscape:window-maximized="1"
   inkscape:window-y="0"
   inkscape:window-x="0"
   inkscape:cy="498.49646"
   inkscape:cx="550.06305"
   inkscape:zoom="0.77822761"
   showgrid="false"
   id="namedview2268"
   inkscape:window-height="1016"
   inkscape:window-width="1920"
   inkscape:pageshadow="2"
   inkscape:pageopacity="0"
   guidetolerance="10"
   gridtolerance="10"
   objecttolerance="10"
   borderopacity="1"
   bordercolor="#666666"
   pagecolor="#ffffff" />
	<path
   style="fill:#9a031e;fill-opacity:1"
   id="path2242"
   d="m36.73 729.28c26.227 8.45 57.288 40.732 92.25 92.25-35.603-3.8242-69.561-10.704-102.08-20.25l9.8334-72z" />
	<path
   style="fill:#9a031e;fill-opacity:1"
   id="path2244"
   d="m128.98 821.53c53.614-3.6605 99.395-26.839 124.33-85.792 8.4304-19.929 12.627-42.58 15.375-66.625 3.4061-26.638 16.013-49.461 35.875-70 19.062-19.712 43.824-33.622 75.875-37.875 27.46-3.6443 51.548 0.0743 70.625 11l72.375-31.875-39.125 56 44.875-41.125c-4.5267 25.1-11.372 48.341-21.125 69.25 20.206 27.093 26.681 71.353 10.375 136.38-13.694 54.604-44.222 90.293-81 117-24.36 17.689-50.677 30.523-81.125 35.5l-11.375 56.875-1.5-56.125c-5.3135 1.9865-10.106 2.0135-14.354 0l-34.021 58.5 18.25-59.75c-82.762-8.8842-141.14-42.425-184.33-91.333z" />
	<path
   id="path2246"
   fill="#fff"
   d="m228.56 837.37l43.875-7.25-23.625-6.625c19.895-4.488 37.382-11.386 51.332-21.825 3.1765-2.3772 5.2129-5.9865 5.6674-9.928 2.6675-23.134 12.857-38.056 31.501-43.747 28.917-7.8643 52.088-3.0408 65.875 22.5 9 20.875 4.8708 53.301-24.5 72.75-55.875 37-108.54 31.29-150.12-5.875z" />
	<path
   id="path2248"
   fill="#fff"
   d="m433.94 662.37c-23.425-8.9991-35.611-38.482-30.125-53.125 5.1667-13.792 21.375-14.187 34.625-14.75-18.61 14.479-17.131 38.522-4.5 67.875z" />
	<path
   style="fill:#9a031e;fill-opacity:1"
   id="path2250"
   d="m1073.2 798.28c-5.6364-23.289-8.9252-47.817-10.5-73.25-40.262 21.837-70.799 53.384-92 94.25 40.062-11.178 75.423-19.025 102.5-21z" />
	<path
   style="fill:#9a031e;fill-opacity:1"
   id="path2252"
   d="m970.73 819.28c-36.783 50.558-98.418 79.133-182.33 88l22.167 64-35.333-61.833c-4.3668 1.2367-9.8483 0.7267-16-0.8334l2.0001 59.667-14.833-60.5c-69.772-13.123-118.81-53.162-146.83-113.17-30.439-65.185-27.5-130.33-7.6666-172.5l-18-70.833 46.5 42.667-36.667-56.667 69.167 29.833c74.214-24.342 130.83-6.3986 169 55.833 8.1038 14.408 13.121 29.778 14.333 46.333 9.8923 86.785 54 138.17 134.5 150z" />
	<path
   id="path2254"
   fill="#fff"
   d="m770.9 714.62c-9.5001 36.5 45.333 104 90 115.5-29.786 17.945-66.786 20.446-109.83 10-45.661-19.482-64.438-55.828-49.5-105.83 5.875-19.667 36.9-25.553 69.333-19.667z" />
	<path
   id="path2256"
   fill="#fff"
   d="m675.4 593.12c-9.6667 38.667 16.108 64.308 64 77.333-30.714 8.1712-64.458 1.2917-74.667-11.5-23.253-29.137-8.7917-54.583 10.667-65.833z" />
	<path
   style="fill:#9a031e;fill-opacity:1"
   id="path2258"
   d="m638.06 404.45c47.125-4.5833 75.46 11.961 66 57-16.772 36.24-63.803 50.639-131.67 50-14.74-30.793-22.77-65.946-16-90.667 10.042-36.667 46.299-47.717 81.667-16.333z" />
	<path
   style="fill:#9a031e;fill-opacity:1"
   id="path2260"
   d="m460.56 225.95c-2.7612-31.536 15.667-44.5 42-36.833 26.728 7.7816 27.333 50 15.833 101.17-37.528 8.5142-64.988 8.6269-82.426 0.3772-11.245-5.3198-18.082-16.948-17.961-29.387 0.2121-21.889 13.392-34.39 42.554-35.323z" />
	<path
   style="fill:#9a031e;fill-opacity:1"
   id="path2262"
   d="m747.56 244.12c19.67-3.907 33.139-1.0247 36.69 12.718 3.2296 12.501-1.727 25.923-12.364 33.241-11.578 7.9653-29.026 9.7278-51.159 6.5406-16.546-13.297-24.996-28.512-23.744-46.026 0.6056-8.4694 4.7477-16.433 11.806-21.153 11.557-7.7281 24.456-3.0709 38.771 14.679z" />
	<path
   style="fill:#9a031e;fill-opacity:1"
   id="path2264"
   d="m651.06 58.785c41.7-8.2737 60.563 1.3603 54.306 32.491-0.0897 0.4466-0.1991 0.898-0.3358 1.3325-7.8598 24.987-52.185 28.564-97.303 31.676-13.869-16.219-21.441-35.562-21.569-58.597-0.0677-12.207 4.6835-24.074 13.54-32.474 19.404-18.405 42.424-7.1992 51.362 25.572z" />
</svg>
