<?xml version="1.0" encoding="UTF-8" standalone="no"?>
<svg
   xmlns:dc="http://purl.org/dc/elements/1.1/"
   xmlns:cc="http://creativecommons.org/ns#"
   xmlns:rdf="http://www.w3.org/1999/02/22-rdf-syntax-ns#"
   xmlns:svg="http://www.w3.org/2000/svg"
   xmlns="http://www.w3.org/2000/svg"
   xmlns:sodipodi="http://sodipodi.sourceforge.net/DTD/sodipodi-0.dtd"
   xmlns:inkscape="http://www.inkscape.org/namespaces/inkscape"
   inkscape:version="1.0 (4035a4fb49, 2020-05-01)"
   sodipodi:docname="eskapado.svg"
   id="svg867"
   viewBox="0 0 537.684 537.684"
   version="1.1"
   space="preserve"
   enable-background="new 0 0 537.684 537.684">
  <metadata
     id="metadata873">
    <rdf:RDF>
      <cc:Work
         rdf:about="">
        <dc:format>image/svg+xml</dc:format>
        <dc:type
           rdf:resource="http://purl.org/dc/dcmitype/StillImage" />
        <dc:title></dc:title>
      </cc:Work>
    </rdf:RDF>
  </metadata>
  <defs
     id="defs871" />
  <sodipodi:namedview
     inkscape:current-layer="svg867"
     inkscape:window-maximized="1"
     inkscape:window-y="0"
     inkscape:window-x="0"
     inkscape:cy="268.842"
     inkscape:cx="268.842"
     inkscape:zoom="0.86482023"
     showgrid="false"
     id="namedview869"
     inkscape:window-height="704"
     inkscape:window-width="1366"
     inkscape:pageshadow="2"
     inkscape:pageopacity="0"
     guidetolerance="10"
     gridtolerance="10"
     objecttolerance="10"
     borderopacity="1"
     bordercolor="#666666"
     pagecolor="#ffffff" />
  <path
     id="path863"
     fill="#fdfefd"
     d="m123.56 253.57c-0.237 0-0.442 0.102-0.679 0.34-0.781 2.614-1.154 5.771-1.086 9.504 0.17 8.724 0.306 17.414 0.374 26.138h119.32c2.139-4.379 4.244-8.792 6.314-13.238-3.598-9.742-7.265-19.349-10.964-28.751-3.836-9.742-7.772-19.212-11.881-28.377-0.168-0.374-0.305-0.781-0.44-1.188-1.528-4.277-3.26-8.384-5.228-12.288-6.042 7.298-12.084 14.63-18.161 21.996-3.021 3.7-6.008 7.468-8.928 11.304-5.804 7.57-14.426 12.118-25.933 13.578-3.361 0.441-6.722 0.645-10.116 0.645-10.863-2e-3 -21.725 0.1-32.587 0.337z" />
  <path
     style="fill:#9a031e;fill-opacity:1"
     id="path865"
     fill="#138f34"
     d="m245.01 268.84c0.916 2.478 1.866 4.99 2.783 7.468-4.276 9.063-8.655 18.093-13.103 27.054-4.413 8.859-8.758 17.889-13.069 27.088-4.208 8.996-8.419 17.99-12.627 26.918-4.344 9.199-8.69 18.263-13.001 27.121-4.174 8.453-8.248 16.803-12.287 25.086-4.447 9.063-8.86 18.024-13.272 26.953-4.447 8.927-8.757 17.989-12.933 27.155 10.184 0 20.367 0.169 30.55 0.475 10.59 0.306 18.33-2.07 23.183-7.162 3.328-3.462 6.042-7.569 8.114-12.288 4.107-9.232 8.35-18.296 12.729-27.224 4.447-8.962 8.826-17.99 13.137-27.054 4.141-8.724 8.35-17.346 12.661-25.934 2.273-4.515 4.515-9.165 6.789-13.918 4.244-8.927 8.452-17.889 12.628-26.918 4.31-9.198 8.723-18.195 13.271-26.986 1.018 2.377 1.697 5.295 2.002 8.759 1.087 11.88 2.241 23.896 3.497 36.049 1.222 12.084 2.41 24.101 3.529 36.015 0.307 3.36 0.85 6.314 1.597 8.86 1.527 5.363 4.549 9.232 8.994 11.609 0.272 0.135 0.544 0.237 0.815 0.338 4.515 1.426 9.945 2.071 16.226 1.97 13.34-0.272 26.715-0.407 40.054-0.407h40.056c13.34 0 26.714 0.135 40.055 0.407 3.734 0.068 6.891-0.306 9.504-1.086-1.255-2.139-2.342-4.549-3.259-7.298-0.848-2.546-1.663-5.126-2.478-7.739-3.123-10.422-8.995-17.923-17.584-22.541-2.273-1.255-4.921-2.035-7.908-2.342-0.883-0.102-1.562-0.169-2.07-0.169-11.066-0.441-22.133-0.645-33.232-0.645-13.34 0-26.715 0.136-40.054 0.407-3.734 0.067-6.892-0.307-9.506-1.087-1.154-8.35-2.138-16.938-2.952-25.764-1.087-12.118-2.241-24.339-3.497-36.66-0.848-8.69-1.629-17.516-2.308-26.511h-87.034v1e-3zm292.67 11.541v-11.541h-122.88v80.109c13.781-0.441 24.135 2.579 31.059 9.029 5.127 4.786 9.199 10.658 12.152 17.55 0.17 0.373 0.306 0.78 0.477 1.153 3.665 9.606 7.398 19.281 11.201 29.058 0.373 0.983 0.645 2.172 0.78 3.632-2.614 0.78-5.77 1.153-9.504 1.086-13.341-0.272-26.715-0.408-40.056-0.408h-6.109v65.174c6.551 6.79 13.17 13.511 19.857 20.197l20.027 20.027c6.686 6.686 13.442 13.272 20.265 19.756 0.714 0.679 1.257 1.494 1.63 2.479h61.101v-257.3zm-415.48 23.082c0-11.541-0.102-23.082-0.305-34.623h-121.9v268.85h184.66c-3.835-4.073-7.74-8.078-11.71-12.051l-20.027-20.027c-6.687-6.687-13.442-13.271-20.265-19.756-3.497-3.326-6.755-6.856-9.776-10.625-0.238-0.237-0.34-0.475-0.374-0.713-0.203-3.598-0.305-7.196-0.305-10.827v-120.17c-1e-3 -13.341-1e-3 -26.715-1e-3 -40.056zm-122.2-303.46v268.84h121.91c-0.034-1.799-0.091-3.6375-0.125-5.4375-0.068-3.733 0.31375-6.886 1.0938-9.5 0.237-0.238 0.4495-0.34375 0.6875-0.34375 10.862-0.23701 21.732-0.34375 32.594-0.34375 3.394 0 6.7328-0.184 10.094-0.625 11.508-1.46 20.132-6.0238 25.938-13.594 2.919-3.836 5.9165-7.6125 8.9375-11.312 6.076-7.366 12.113-14.671 18.156-21.969 1.968 3.904 3.6908 8.0042 5.2188 12.281 0.135 0.407 0.2685 0.8135 0.4375 1.1875 4.108 9.165 8.0702 18.633 11.906 28.375 2.75 6.993 5.4732 14.084 8.1562 21.281h87.031c-0.25978-3.3731-0.48659-6.7726-0.71875-10.188-0.75144-1.5534-1.5201-3.132-2.25-4.7188-0.00395-0.00859 0.00395-0.02266 0-0.03125-2.2011-4.7866-4.2968-9.7208-6.2812-14.812-3.7-9.505-7.3882-19.019-11.156-28.625s-7.6245-19.128-11.562-28.531h40.75c3.768 7.094 7.5187 14.267 11.219 21.531 4.48 8.792 8.985 17.498 13.5 26.188 0.29713 0.56863 0.59697 1.1332 0.9375 1.6562 0.68106 1.0461 1.4586 1.979 2.3125 2.8438 0.42695 0.43235 0.87378 0.86281 1.3438 1.25s0.95589 0.75159 1.4688 1.0938c1.0257 0.68432 2.1473 1.2762 3.3438 1.7812 0.59825 0.2525 1.203 0.47963 1.8438 0.6875h9.5c-1e-5 -0.1185 0.01425-0.19063 0.03125-0.25s0.06025-0.108 0.09375-0.125c1.8964-0.70013 3.6068-1.5655 5.1562-2.5938 1.033-0.68552 1.999-1.4472 2.875-2.2812 1.314-1.251 2.4519-2.6589 3.4062-4.25 0.237-1.358 0.53326-2.676 0.90625-4 0.068-0.271 0.09099-0.54325 0.125-0.78125 0.204-2.002 0.12299-4.0025-0.25-5.9375-0.322-1.5615-0.74488-3.0744-1.25-4.5s-1.1027-2.7725-1.7812-4.0625c-4.651-8.826-9.3692-17.565-14.156-26.188-1.052-1.868-2.1043-3.8095-3.1562-5.8125-2.309-4.31-4.6525-8.7092-7.0625-13.156-0.136-0.272-0.27299-0.5405-0.375-0.8125-0.9675-2.3845-2.0988-4.608-3.4062-6.6562-0.65371-1.0242-1.3548-1.9978-2.0938-2.9375-1.1037-1.4037-2.2996-2.723-3.5938-3.9375-0.00566-0.0053-0.02559 0.0053-0.03125 0-1.7339-1.625-3.6112-3.091-5.6875-4.375-1.0381-0.64194-2.1261-1.225-3.25-1.7812-0.56196-0.27815-1.1353-0.55581-1.7188-0.8125-2.2666-0.98137-4.8228-1.6874-7.5938-2.0625h-0.03125c-7.57-1.052-15.689-1.5092-24.344-1.4062-13.34 0.168-26.723 0.28126-40.062 0.28125s-26.722 0.1315-40.062 0.4375c-1.5872 0.0425-3.1171 0.14708-4.5938 0.3125s-2.8838 0.399-4.25 0.6875c-0.68312 0.14422-1.3757 0.29376-2.0312 0.46875-1.3111 0.35-2.5492 0.777-3.75 1.25-0.60041 0.23657-1.2084 0.48263-1.7812 0.75-7.9905 3.7424-14.619 8.7919-19.906 15.156-0.75011 0.90293-1.4918 1.825-2.1875 2.7812-0.00482 0.00663 0.00482 0.02462 0 0.03125-5.6306 7.7666-11.546 15.187-17.719 22.344-1.595 1.833-3.1605 3.724-4.6875 5.625-2.817 3.463-5.511 7.0198-8.125 10.719-2.4658 3.5052-5.2797 6.6794-8.375 9.5312-0.44228 0.40741-0.88962 0.79287-1.3438 1.1875h-38.032v-170.4h292.62v40.062c0 13.341 0.00201 26.726 0 40.062s1e-5 26.69 0 40.031v0.03125c0 13.331 1e-5 26.702 0 40.031 0 13.34 1e-5 26.722 0 40.062v27.156h122.88c1e-5 -9.505 0-18.995 0-28.5 1e-5 -13.34 0-26.722 0-40.062s0-26.722 0-40.062 0-26.722 0-40.062 0-26.691 0-40.031 0-26.722 0-40.062 0-26.722 0-40.062h-537.67zm256.79 100.48c0.136-6.585-0.848-12.118-2.987-16.564-4.379-9.166-11.337-15.717-20.842-19.621-4.107-1.697-9.131-2.376-15.004-2.002-12.254 0.781-21.351 4.888-27.326 12.288-3.021 3.734-5.329 8.113-6.924 13.137-0.849 2.715-1.663 5.396-2.444 8.011-0.102 4.413 0.271 8.452 1.188 12.084 2.614 10.489 7.909 18.398 15.919 23.693 4.108 2.716 9.063 4.515 14.833 5.397 6.213 0.984 12.051 0.543 17.55-1.324 0.272-0.102 0.543-0.169 0.814-0.271 9.946-3.497 17.143-9.708 21.59-18.567 2.276-4.516 3.498-9.947 3.633-16.261zm-41.005 377.74c-3.835-1.29-8.078-1.969-12.796-2.036-13.341-0.171-26.715-0.271-40.056-0.271 6.755 6.585 13.476 13.205 20.163 19.892 6.688 6.653 13.375 13.306 20.062 19.993l20.027 20.027c0.577 0.577 1.086 1.188 1.527 1.867h58.386c-5.804-6.382-11.812-12.594-18.025-18.636-6.754-6.586-13.476-13.205-20.163-19.892-1.697-1.697-3.326-3.428-4.888-5.228-6.246-7.161-14.326-12.389-24.237-15.716z" />
</svg>
