<?xml version="1.0" encoding="UTF-8" standalone="no"?>
<svg
   xmlns:dc="http://purl.org/dc/elements/1.1/"
   xmlns:cc="http://creativecommons.org/ns#"
   xmlns:rdf="http://www.w3.org/1999/02/22-rdf-syntax-ns#"
   xmlns:svg="http://www.w3.org/2000/svg"
   xmlns="http://www.w3.org/2000/svg"
   xmlns:sodipodi="http://sodipodi.sourceforge.net/DTD/sodipodi-0.dtd"
   xmlns:inkscape="http://www.inkscape.org/namespaces/inkscape"
   height="164"
   width="138"
   inkscape:version="1.0 (4035a4fb49, 2020-05-01)"
   sodipodi:docname="fajro.svg"
   id="svg4"
   viewBox="0 0 138 164"
   version="1.1">
  <metadata
     id="metadata10">
    <rdf:RDF>
      <cc:Work
         rdf:about="">
        <dc:format>image/svg+xml</dc:format>
        <dc:type
           rdf:resource="http://purl.org/dc/dcmitype/StillImage" />
        <dc:title></dc:title>
      </cc:Work>
    </rdf:RDF>
  </metadata>
  <defs
     id="defs8" />
  <sodipodi:namedview
     fit-margin-bottom="4"
     fit-margin-right="4"
     fit-margin-left="4"
     lock-margins="true"
     fit-margin-top="4"
     inkscape:current-layer="svg4"
     inkscape:window-maximized="0"
     inkscape:window-y="23"
     inkscape:window-x="26"
     inkscape:cy="82"
     inkscape:cx="69"
     inkscape:zoom="1.628757"
     showgrid="false"
     id="namedview6"
     inkscape:window-height="480"
     inkscape:window-width="977"
     inkscape:pageshadow="2"
     inkscape:pageopacity="0"
     guidetolerance="10"
     gridtolerance="10"
     objecttolerance="10"
     borderopacity="1"
     bordercolor="#666666"
     pagecolor="#ffffff" />
  <path
     style="fill:#0f4c5c;fill-opacity:1"
     id="path2"
     d="M 4,104.8 C 4,90 8,78 14.4,68.8 c 0,18.2 4.4,24.6 14,24.6 6.4,0 13,-4.8 13,-13 0,-7.4 -5,-20.8 -5,-35.2 0,-14.4 4.8,-29.8 24.4,-41.2 -4.4,11.6 -6.2,21.4 -6.2,29.4 0,21.2 12.8,30.8 24.2,30.8 9.2,0 18.8,-6 18.8,-23.4 6.2,6.8 9,14.6 9,22.4 0,12.4 -6.8,23.4 -6.8,33.4 0,8.2 6.6,13 13,13 11.4,0 14.8,-10.2 14.8,-27 3.4,5.8 6.4,17.2 6.4,27 0,29.2 -27.6,50.4 -58.4,50.4 26,-9.8 30.8,-22.8 30.8,-37.4 -6.4,11.4 -13,13 -16.2,13 -19.6,0 1.6,-37.4 -32.6,-63.4 5.6,12 7.8,22.4 7.8,30.8 0,18 -9.8,27.8 -19.2,27.8 -8,0 -16,-6.4 -19.2,-20 0,19 5.6,37 30.6,49.2 C 18.6,153.6 4,129.2 4,104.8 Z" />
</svg>
