<?xml version="1.0" encoding="UTF-8" standalone="no"?>
<svg
   xmlns:dc="http://purl.org/dc/elements/1.1/"
   xmlns:cc="http://creativecommons.org/ns#"
   xmlns:rdf="http://www.w3.org/1999/02/22-rdf-syntax-ns#"
   xmlns:svg="http://www.w3.org/2000/svg"
   xmlns="http://www.w3.org/2000/svg"
   xmlns:sodipodi="http://sodipodi.sourceforge.net/DTD/sodipodi-0.dtd"
   xmlns:inkscape="http://www.inkscape.org/namespaces/inkscape"
   inkscape:version="1.0 (4035a4fb49, 2020-05-01)"
   sodipodi:docname="fenestro.svg"
   height="526.09198"
   width="458.05597"
   id="Frame_0"
   version="1.1">
  <metadata
     id="metadata9353">
    <rdf:RDF>
      <cc:Work
         rdf:about="">
        <dc:format>image/svg+xml</dc:format>
        <dc:type
           rdf:resource="http://purl.org/dc/dcmitype/StillImage" />
        <dc:title></dc:title>
      </cc:Work>
    </rdf:RDF>
  </metadata>
  <defs
     id="defs9351" />
  <sodipodi:namedview
     fit-margin-bottom="10"
     fit-margin-right="10"
     fit-margin-left="10"
     lock-margins="true"
     fit-margin-top="10"
     inkscape:current-layer="Frame_0"
     inkscape:window-maximized="1"
     inkscape:window-y="0"
     inkscape:window-x="0"
     inkscape:cy="265.456"
     inkscape:cx="194.89399"
     inkscape:zoom="1.0776214"
     showgrid="false"
     id="namedview9349"
     inkscape:window-height="1016"
     inkscape:window-width="1920"
     inkscape:pageshadow="2"
     inkscape:pageopacity="0"
     guidetolerance="10"
     gridtolerance="10"
     objecttolerance="10"
     borderopacity="1"
     bordercolor="#666666"
     pagecolor="#ffffff" />
  <path
     style="fill:#0f4c5c;fill-opacity:1"
     fill="#4e3729"
     fill-rule="evenodd"
     stroke="#4e3729"
     stroke-width="1"
     stroke-linecap="round"
     stroke-linejoin="round"
     d="m 433.75899,47.254999 c -0.041,0 -406.350004,3.558 -406.391004,3.558 0.003,0.043 21.255,434.958001 21.257,435.002001 0.037,0 364.898004,3.614 364.935004,3.615 0.002,-0.045 20.197,-442.131001 20.199,-442.175001 z"
     id="path9333" />
  <path
     style="fill:#ffffff;fill-opacity:1"
     fill="#a5b1a1"
     fill-rule="evenodd"
     stroke="#a5b1a1"
     stroke-width="1"
     stroke-linecap="round"
     stroke-linejoin="round"
     d="m 411.57399,91.295999 c -0.017,0 -173.099,-1.635 -173.117,-1.636 0,0.018 -1.226,176.633001 -1.227,176.651001 0.017,0 166.009,-0.792 166.025,-0.792 10e-4,-0.017 8.319,-174.205001 8.319,-174.223001 z"
     id="path9335" />
  <path
     style="fill:#ffffff;fill-opacity:1"
     fill="#a5b1a1"
     fill-rule="evenodd"
     stroke="#a5b1a1"
     stroke-width="1"
     stroke-linecap="round"
     stroke-linejoin="round"
     d="m 223.50399,89.117999 c -0.017,-10e-4 -173.028004,-2.721 -173.045004,-2.721 10e-4,0.018 7.073,178.468001 7.074,178.486001 0.017,0 164.866004,1.089 164.883004,1.089 0,-0.018 1.088,-176.837001 1.088,-176.854001 z"
     id="path9337" />
  <path
     style="fill:#ffffff;fill-opacity:1"
     fill="#a5b1a1"
     fill-rule="evenodd"
     stroke="#a5b1a1"
     stroke-width="1"
     stroke-linecap="round"
     stroke-linejoin="round"
     d="m 400.77599,285.831 c -0.016,0 -163.585,-2.317 -163.601,-2.317 0,0.018 0,178.414 0,178.432 0.016,0 158.487,0.464 158.503,0.464 10e-4,-0.018 5.098,-176.561 5.098,-176.579 z"
     id="path9339" />
  <path
     style="fill:#ffffff;fill-opacity:1"
     fill="#a5b1a1"
     fill-rule="evenodd"
     stroke="#a5b1a1"
     stroke-width="1"
     stroke-linecap="round"
     stroke-linejoin="round"
     d="m 223.81899,282.964 c -0.017,10e-4 -165.321004,2.728 -165.338004,2.729 10e-4,0.017 6.32,177.054 6.321,177.072 0.015,-10e-4 158.455004,-0.276 158.471004,-0.276 0,-0.018 0.546,-179.507 0.546,-179.525 z"
     id="path9341" />
  <path
     style="fill:#0f4c5c;fill-opacity:1;stroke:none"
     fill="#463125"
     fill-rule="evenodd"
     stroke="#463125"
     stroke-width="1"
     stroke-linecap="round"
     stroke-linejoin="round"
     d="m 447.55599,10.499999 c -0.044,10e-4 -437.012004,2.258 -437.056004,2.258 10e-4,0.004 6.649,43.839 6.65,43.843 0.042,10e-4 425.825004,5.94 425.867004,5.94 10e-4,-0.005 4.538,-52.036 4.539,-52.041 z"
     id="path9343" />
  <path
     style="fill:#0f4c5c;fill-opacity:1;stroke:none"
     fill="#463125"
     fill-rule="evenodd"
     stroke="#463125"
     stroke-width="1"
     stroke-linecap="round"
     stroke-linejoin="round"
     d="m 428.92699,476.101 c -0.039,0 -393.748004,0 -393.787004,0 10e-4,0.004 8.971,39.487 8.972,39.491 0.038,0 380.564004,-2.614 380.602004,-2.614 0,-0.004 4.213,-36.873 4.213,-36.877 z"
     id="path9345" />
</svg>
