<?xml version="1.0" encoding="UTF-8" standalone="no"?>
<svg
   xmlns:dc="http://purl.org/dc/elements/1.1/"
   xmlns:cc="http://creativecommons.org/ns#"
   xmlns:rdf="http://www.w3.org/1999/02/22-rdf-syntax-ns#"
   xmlns:svg="http://www.w3.org/2000/svg"
   xmlns="http://www.w3.org/2000/svg"
   xmlns:sodipodi="http://sodipodi.sourceforge.net/DTD/sodipodi-0.dtd"
   xmlns:inkscape="http://www.inkscape.org/namespaces/inkscape"
   inkscape:version="1.0 (4035a4fb49, 2020-05-01)"
   sodipodi:docname="feo.svg"
   id="svg4"
   viewBox="0 0 1703.269 1661.083"
   version="1.1"
   enable-background="new 0 0 1703.269 1661.083">
  <metadata
     id="metadata10">
    <rdf:RDF>
      <cc:Work
         rdf:about="">
        <dc:format>image/svg+xml</dc:format>
        <dc:type
           rdf:resource="http://purl.org/dc/dcmitype/StillImage" />
        <dc:title></dc:title>
      </cc:Work>
    </rdf:RDF>
  </metadata>
  <defs
     id="defs8" />
  <sodipodi:namedview
     inkscape:current-layer="svg4"
     inkscape:window-maximized="1"
     inkscape:window-y="0"
     inkscape:window-x="0"
     inkscape:cy="783.61973"
     inkscape:cx="1024.6668"
     inkscape:zoom="0.46709732"
     showgrid="false"
     id="namedview6"
     inkscape:window-height="1016"
     inkscape:window-width="1920"
     inkscape:pageshadow="2"
     inkscape:pageopacity="0"
     guidetolerance="10"
     gridtolerance="10"
     objecttolerance="10"
     borderopacity="1"
     bordercolor="#666666"
     pagecolor="#ffffff" />
  <path
     style="fill:#5f0f40;fill-opacity:1"
     d="M 1259.2656 30.580078 C 1255.0951 30.662929 1250.5833 32.208563 1246.2871 35.316406 C 1235.7691 42.924406 1231.9651 54.595422 1226.4551 65.232422 C 1225.0101 68.021422 1225.3879 72.766078 1221.7969 73.080078 C 1217.3659 73.468078 1218.1693 68.614406 1216.9453 65.691406 C 1214.6613 60.239406 1212.0166 54.770453 1207.0156 51.189453 C 1202.4756 47.939453 1196.8063 46.984516 1193.0703 51.228516 C 1179.1493 67.036516 1170.2195 85.509609 1166.0605 106.22461 C 1157.6915 147.90961 1149.2318 189.5752 1140.9648 231.2832 C 1136.3408 254.6112 1131.7459 277.95191 1127.6699 301.37891 C 1124.8959 317.32191 1122.6307 333.38075 1120.8867 349.46875 C 1118.8937 367.84275 1119.0252 386.52769 1115.9102 404.67969 C 1110.9292 433.70769 1109.4639 462.81691 1109.5449 492.12891 C 1109.6199 519.03791 1109.5226 545.94647 1109.5996 572.85547 C 1109.6106 576.90747 1109.7948 580.88981 1110.6328 585.00781 C 1113.7188 600.17081 1116.0933 615.48086 1118.6133 630.75586 C 1118.9893 633.03486 1121.6039 635.60356 1118.2969 637.72656 C 1114.5529 640.12956 1112.7655 636.55353 1110.9375 634.76953 C 1101.1245 625.19353 1092.3177 614.76323 1084.4297 603.49023 C 1074.2947 589.00623 1063.1276 575.11169 1059.5996 557.17969 C 1057.6846 547.44369 1053.6039 537.65691 1055.6699 527.75391 C 1057.6979 518.03291 1061.7117 508.71928 1060.4277 498.48828 C 1059.8687 494.03128 1063.2191 489.26042 1065.6641 489.85742 C 1081.1281 493.63542 1071.6465 484.78311 1069.7305 481.53711 C 1068.0625 478.71311 1068.4752 476.66903 1069.6582 474.58203 C 1071.2222 471.82603 1072.2432 469.51487 1070.2852 466.42188 C 1065.9102 459.51187 1064.3365 451.61325 1062.3125 443.78125 C 1058.0365 427.24125 1051.4458 411.8852 1038.2188 400.0332 C 1030.1347 392.7902 1029.3098 382.80877 1032.0898 373.13477 C 1038.9838 349.15577 1029.4585 325.41714 1007.6465 313.86914 C 1001.1835 310.44714 994.67123 307.15608 989.99023 301.08008 C 986.92323 297.10008 982.40677 295.89831 977.25977 295.57031 C 961.18277 294.54531 945.676 298.6767 930 300.7207 C 917.229 302.3857 907.39311 315.9267 907.91211 329.3457 C 908.37411 341.3057 901.12484 348.23903 892.71484 353.45703 C 879.81584 361.46103 865.69989 367.60016 853.46289 376.66016 C 838.15089 387.99616 826.53308 402.86506 823.45508 421.78906 C 821.57508 433.35006 818.01438 443.77506 813.10938 454.03906 C 812.29837 455.73606 811.6142 457.30173 811.2832 459.17773 C 807.8782 478.49073 810.22017 497.03311 817.70117 515.16211 C 819.05717 518.44911 820.17586 519.73216 823.63086 520.28516 C 837.76386 522.54516 848.81564 529.48514 853.93164 543.36914 C 857.56564 553.23114 862.58931 562.47505 863.19531 573.62305 C 864.19431 592.00205 864.95039 592.25452 882.52539 591.10352 C 887.86039 590.75452 890.40105 593.46056 891.24805 597.22656 C 892.67405 603.56956 896.01378 607.41953 901.92578 609.64453 C 914.58778 614.41053 924.00327 623.05869 931.32227 634.30469 C 932.89027 636.71469 935.51262 638.04725 938.51562 639.15625 C 951.47362 643.94225 961.94539 639.4793 972.15039 631.7793 C 989.66539 618.5643 994.6823 621.78589 1003.4043 637.33789 C 1008.5843 646.57489 1010.923 657.11278 1014.293 667.17578 C 1021.811 689.62578 1025.1816 712.22047 1024.4766 735.73047 C 1024.2596 742.99047 1022.4819 749.03177 1016.1719 752.75977 C 1012.4579 754.95377 1010.7532 758.20648 1011.0762 761.77148 C 1011.9742 771.68248 1008.6036 780.69006 1006.4746 790.03906 C 1002.1546 809.01506 999.33894 828.27191 996.33594 847.50391 C 993.18794 867.67591 997.35912 884.42005 1013.7031 897.74805 C 1028.1071 909.49505 1040.8079 922.82047 1051.7559 938.10547 C 1072.3659 966.87947 1083.0703 999.56578 1091.0703 1033.3008 C 1092.9553 1041.2508 1094.1362 1050.7654 1089.9082 1058.4824 C 1084.5392 1068.2794 1082.3858 1078.1718 1082.3828 1089.2598 C 1082.3798 1098.4958 1075.8558 1103.9144 1067.8008 1108.1914 C 1060.1898 1112.2314 1056.513 1108.0982 1052.166 1103.3242 C 1050.489 1101.4822 1047.9504 1100.366 1045.6914 1099.125 C 1035.8954 1093.746 1028.4026 1086.0547 1021.9746 1076.9707 C 1014.0046 1065.7077 1003.9623 1056.6664 992.94531 1048.1094 C 978.53131 1036.9134 963.12861 1027.1192 948.97461 1015.5742 C 937.97061 1006.5992 926.47377 998.04791 914.38477 990.62891 C 897.66977 980.36991 881.93525 969.43728 872.65625 951.48828 C 870.87525 948.04328 867.91623 945.78753 865.61523 942.89453 C 862.96323 939.55953 859.23461 938.05566 855.72461 939.47266 C 848.20061 942.50966 842.02936 939.40134 836.06836 936.02734 C 803.92836 917.83334 770.78373 901.42248 739.80273 881.14648 C 732.53973 876.39348 724.77166 872.09113 716.09766 869.57812 C 703.93466 866.05512 691.64156 867.44994 679.47656 867.83594 C 672.75656 868.04894 665.77619 870.01048 659.86719 874.39648 C 630.36419 896.29148 613.15663 925.14114 611.89062 962.11914 C 610.47963 1003.3501 613.89219 1044.7001 607.49219 1085.8281 C 605.24219 1100.2861 602.0587 1112.6277 587.5957 1119.8887 C 581.5067 1122.9457 576.47122 1128.5534 571.69922 1133.6914 C 562.12622 1143.9994 553.48717 1155.1932 543.70117 1165.2832 C 523.79717 1185.8052 503.10472 1205.5636 483.26172 1226.1426 C 460.14572 1250.1156 434.22839 1270.9338 409.65039 1293.2578 C 389.50839 1311.5528 370.96017 1331.5374 349.57617 1348.5684 C 325.53317 1367.7174 300.65189 1385.7407 272.46289 1397.8867 C 245.86389 1409.3477 217.8513 1417.0066 189.0293 1421.5586 C 169.5333 1424.6386 150.30184 1429.1293 131.58984 1435.9023 C 123.20384 1438.9373 114.82369 1441.4449 106.55469 1445.0879 C 98.837688 1448.4879 88.857672 1449.261 79.763672 1450.625 C 66.723672 1452.581 53.735109 1454.9227 40.787109 1457.4277 C 30.715109 1459.3757 28.921406 1465.0077 34.066406 1473.7637 C 44.208406 1491.0257 60.671609 1496.0472 78.849609 1497.7832 C 97.578609 1499.5712 115.6552 1493.1167 134.9082 1494.7617 C 155.6442 1496.5327 174.21591 1502.4453 190.50391 1513.4043 C 215.73491 1530.3803 242.72767 1536.34 272.26367 1533.582 C 278.02967 1533.044 287.12095 1532.2175 287.87695 1527.5195 C 289.45895 1517.6945 297.69411 1510.36 296.03711 1499.377 C 294.06611 1486.312 301.48773 1475.8692 311.92773 1469.8672 C 330.25973 1459.3292 349.10581 1449.8276 367.13281 1438.5566 C 380.33281 1430.3036 394.66106 1423.1119 409.16406 1416.7559 C 421.89706 1411.1759 434.09989 1404.262 447.08789 1399.416 C 472.23389 1390.033 497.79295 1381.7731 520.87695 1367.6211 C 530.09295 1361.9711 538.6165 1354.9465 543.0625 1345.4375 C 551.1355 1328.1735 561.64309 1312.5265 571.49609 1296.3945 C 573.64109 1292.8825 576.70122 1293.298 578.94922 1293.125 C 581.42122 1292.935 579.69495 1296.572 580.37695 1298.377 C 583.48895 1306.602 582.1683 1315.1933 582.6543 1323.6523 C 583.3573 1335.8633 584.4467 1348.0507 585.2207 1360.2617 C 586.7567 1384.5017 590.69686 1408.4355 587.38086 1433.0215 C 584.57886 1453.7975 578.82031 1473.1793 566.82031 1490.0273 C 557.14331 1503.6133 543.16661 1513.4352 530.97461 1524.7812 C 521.82161 1533.2993 513.83852 1542.9507 505.60352 1552.1797 C 500.43452 1557.9727 496.60441 1564.8636 489.94141 1569.7266 C 473.39041 1581.8056 458.69741 1596.5469 438.69141 1603.5039 C 433.05241 1605.4649 431.23873 1610.7472 432.55273 1616.4492 C 433.82673 1621.9782 437.57458 1624.8834 443.39258 1625.7324 C 451.74158 1626.9514 460.12044 1628.7945 468.39844 1629.6055 C 480.06344 1630.7485 492.03497 1631.5632 503.79297 1627.9902 C 509.81597 1626.1602 512.61153 1620.5444 518.39453 1618.2754 C 527.13053 1614.8474 536.20911 1612.7243 545.03711 1609.7363 C 561.97811 1604.0023 578.03361 1596.2046 594.59961 1589.6816 C 620.31161 1579.5566 645.59364 1568.5492 670.30664 1556.2852 C 679.77764 1551.5852 684.81633 1543.6529 684.11133 1531.9219 C 683.72133 1525.4219 679.81105 1521.1255 678.24805 1515.6855 C 673.49805 1499.1495 664.30891 1484.8074 656.62891 1469.7324 C 655.38191 1467.2844 654.45927 1465.1277 654.57227 1462.5117 C 655.32027 1445.2087 652.56667 1427.7862 658.76367 1410.6992 C 662.49567 1400.4112 661.4048 1388.432 664.5918 1378.332 C 669.0908 1364.075 671.98736 1349.1923 677.81836 1335.5273 C 681.46736 1326.9733 680.71028 1317.612 685.73828 1309.377 C 692.36528 1298.522 698.50177 1287.1469 699.50977 1273.8359 C 700.17977 1264.9939 708.92497 1259.9785 717.41797 1262.1445 C 727.11597 1264.6175 734.95859 1271.7279 744.68359 1273.3809 C 764.24459 1276.7049 783.57673 1282.4067 803.80273 1280.3867 C 807.66773 1280.0007 812.30203 1281.3543 813.08203 1284.7773 C 816.53903 1299.9403 827.58747 1310.8745 834.10547 1324.3145 C 846.46747 1349.8025 849.50237 1377.1973 851.35938 1404.6973 C 852.20338 1417.1823 858.0957 1425.6044 866.7207 1432.8984 C 872.9967 1438.2054 880.14538 1435.3283 880.85938 1427.3223 C 881.25738 1422.8533 883.31719 1418.9662 883.49219 1414.3672 C 883.94319 1402.5522 893.47778 1391.1117 905.17578 1388.0117 C 919.03978 1384.3377 933.01627 1380.1761 947.19727 1387.3281 C 949.04027 1388.2571 951.58659 1387.8038 953.80859 1387.9648 C 972.82459 1389.3458 991.25234 1385.9182 1009.7773 1382.0332 C 1032.0493 1377.3622 1054.5604 1376.3994 1076.8164 1382.8574 C 1096.1194 1388.4584 1115.1799 1394.847 1134.3379 1400.873 C 1155.0399 1407.384 1176.8784 1408.3716 1198.2344 1403.1816 C 1216.4154 1398.7626 1235.5576 1397.5022 1244.3926 1374.5352 C 1249.0386 1362.4592 1258.4294 1351.7394 1261.3574 1338.2344 C 1264.4544 1323.9504 1270.7384 1310.0653 1270.8594 1295.4883 C 1271.2224 1251.9033 1273.8496 1208.0933 1264.3086 1165.0293 C 1262.1076 1155.0963 1262.3831 1144.9274 1260.6191 1135.2754 C 1257.5871 1118.6904 1255.6247 1101.8644 1251.5977 1085.4004 C 1250.2447 1079.8684 1249.03 1073.9262 1248.668 1067.9512 C 1247.686 1051.7442 1245.346 1035.6209 1243.623 1019.5039 C 1241.265 997.45491 1243.1764 975.55691 1242.1484 953.62891 C 1242.0724 952.01191 1241.3014 949.6488 1243.8184 948.9668 C 1246.0424 948.3638 1247.2257 950.16189 1248.1387 951.71289 C 1249.2497 953.60189 1249.91 955.74903 1250.916 957.70703 C 1267.735 990.45003 1275.0712 1026.8714 1290.8672 1060.0664 C 1301.5852 1082.5904 1311.2747 1105.7052 1324.7188 1126.7012 C 1350.1997 1166.4982 1373.2753 1207.2375 1384.3613 1253.7305 C 1386.9203 1264.4625 1387.7543 1275.7008 1390.9043 1286.0488 C 1394.8803 1299.1108 1422.3849 1313.8225 1435.8809 1308.6895 C 1443.7439 1305.6995 1452.2671 1304.4046 1460.9531 1304.8926 C 1466.7561 1305.2186 1473.8957 1304.6982 1476.8887 1300.1172 C 1479.8387 1295.6032 1481.3909 1297.3537 1484.5449 1298.3047 C 1495.1689 1301.5077 1506.3069 1302.706 1517.1699 1301.998 C 1529.2549 1301.21 1541.1765 1298.0086 1553.1895 1295.9746 C 1556.7045 1295.3796 1560.0677 1294.5856 1560.3027 1290.3516 C 1560.4977 1286.8436 1558.2457 1284.9657 1554.8027 1284.5977 C 1551.8817 1284.2847 1549.3173 1282.7724 1549.9043 1279.8574 C 1550.4043 1277.3694 1553.6816 1276.6796 1556.0586 1276.1016 C 1558.1846 1275.5846 1560.523 1275.7422 1562.752 1275.8672 C 1588.461 1277.3132 1613.6272 1273.8164 1638.1992 1266.6074 C 1647.6102 1263.8464 1657.4631 1261.7256 1665.8691 1256.1426 C 1669.7541 1253.5646 1672.9396 1249.7982 1671.5996 1245.1992 C 1670.3036 1240.7542 1665.4241 1242.2805 1661.8301 1241.9785 C 1645.0411 1240.5675 1628.3081 1246.9782 1611.8301 1243.8242 C 1597.3001 1241.0422 1582.9033 1243.7403 1574.1562 1241.9863 C 1557.3622 1241.9863 1546.0105 1243.1207 1534.9785 1241.7207 C 1518.4355 1239.6207 1505.7598 1230.8274 1494.3418 1218.0254 C 1476.5638 1198.0924 1464.9839 1175.1686 1455.0859 1150.9336 C 1442.7489 1120.7276 1435.6056 1088.7577 1422.0176 1058.8477 C 1410.4376 1033.3567 1397.4065 1008.6372 1383.8965 984.32617 C 1364.0965 948.69617 1340.0706 915.53817 1321.3926 879.07617 C 1307.1676 851.30717 1292.991 823.37319 1276.002 797.11719 C 1268.373 785.32719 1266.0029 771.18063 1257.7969 759.76562 C 1254.4749 755.14562 1258.6936 753.22086 1261.6406 751.38086 C 1272.7946 744.41386 1286.0201 743.8808 1298.2031 740.0918 C 1313.5861 735.3068 1330.0783 734.33922 1342.2363 721.19922 C 1357.8153 704.36122 1379.3104 695.9377 1398.8184 684.9707 C 1417.5464 674.4417 1431.5847 660.94255 1437.1797 639.81055 C 1437.9337 636.96455 1439.5007 635.61003 1442.0137 634.33203 C 1455.7647 627.33703 1469.5516 620.52964 1485.1836 618.80664 C 1486.9926 618.60764 1489.5345 619.21211 1490.2715 617.41211 C 1492.9905 610.77111 1499.722 610.39666 1504.877 608.22266 C 1520.505 601.62966 1533.804 590.94266 1544.082 578.72266 C 1555.126 565.59066 1563.9501 549.61573 1567.1211 531.80273 C 1567.5901 529.16773 1568.0424 526.95025 1569.8594 524.78125 C 1580.2124 512.43425 1588.2118 499.39261 1593.6328 483.47461 C 1599.6138 465.91361 1598.1291 450.1423 1593.4941 433.7793 C 1591.9801 428.4323 1592.8129 425.37627 1595.3359 420.69727 C 1599.7029 412.59927 1607.3515 405.7228 1609.0605 397.0918 C 1611.9075 382.7078 1611.6744 367.85608 1610.6484 352.95508 C 1609.5014 336.28608 1604.0905 320.50911 1602.8105 303.91211 C 1601.9815 293.15811 1599.5654 282.66869 1591.9844 273.55469 C 1580.5194 259.77269 1569.4224 256.56997 1556.5254 266.79297 C 1552.4044 270.05897 1547.4459 272.1022 1543.7949 276.4082 C 1540.7299 280.0232 1535.5885 283.13759 1530.9785 283.80859 C 1526.9355 284.39759 1526.2332 277.97848 1523.2832 275.14648 C 1514.9652 267.16448 1513.7353 266.24692 1504.7793 273.29492 C 1488.5873 286.03692 1470.702 296.50612 1456.416 311.95312 C 1451.454 317.31813 1444.7545 322.20255 1439.4805 327.56055 C 1431.1125 336.06155 1420.1998 341.55413 1412.8848 350.95312 C 1403.3198 363.24313 1391.968 373.93641 1381.168 384.94141 C 1361.841 404.63441 1343.2284 424.87325 1325.9004 446.28125 C 1309.4314 466.62725 1293.8595 487.70158 1277.3555 508.01758 C 1258.6465 531.04658 1243.6173 555.94194 1232.1543 583.46094 C 1225.1383 600.30294 1218.5987 617.62831 1208.6367 633.19531 C 1207.9277 634.30431 1208.4636 636.13955 1206.6816 636.68555 C 1206.5246 635.21455 1206.4886 633.71734 1206.1836 632.27734 C 1205.5746 629.40034 1207.6792 627.38917 1208.4102 624.95117 C 1211.6842 614.03417 1214.7829 603.23962 1215.6309 591.64062 C 1216.1429 584.64062 1217.2035 578.08469 1215.3555 571.05469 C 1213.4745 563.89969 1219.3147 557.777 1219.5977 550.75 C 1220.1917 535.993 1221.6739 521.22097 1226.7969 507.41797 C 1229.2049 500.93197 1225.9083 493.57847 1230.5273 488.23047 C 1235.9373 481.96547 1238.5358 474.28548 1241.9238 467.14648 C 1253.4498 442.86148 1267.5694 419.99422 1279.7324 396.07422 C 1289.3984 377.06322 1298.0774 357.38519 1299.9434 336.11719 C 1301.1354 322.53019 1303.7786 308.03195 1296.5586 294.75195 C 1295.9256 293.58695 1295.9243 291.79841 1296.2383 290.44141 C 1299.5513 276.15441 1303.4089 261.98133 1306.2949 247.61133 C 1310.6989 225.68033 1313.3994 203.32828 1302.1914 182.73828 C 1296.7774 172.79128 1291.6576 164.37367 1300.2246 154.13867 C 1300.4166 153.90967 1300.2886 153.40916 1300.3086 153.03516 C 1301.4776 130.89116 1300.0487 108.95548 1290.8477 88.521484 C 1284.5407 74.516484 1278.0203 60.908359 1275.5293 45.443359 C 1273.9438 35.598953 1267.2275 30.421908 1259.2656 30.580078 z M 735.91016 1024.4785 C 739.13848 1024.399 742.22134 1026.3426 744.77734 1028.7891 C 757.82534 1041.2781 770.57533 1054.0603 782.48633 1067.6543 C 790.04533 1076.2803 797.31884 1085.1764 805.21484 1093.4824 C 812.45984 1101.1054 817.33606 1109.2791 815.53906 1119.5801 C 815.50806 1125.4201 816.04164 1130.4628 817.80664 1135.4688 C 818.57364 1137.6478 818.94853 1140.9948 816.26953 1142.5898 C 813.49753 1144.2398 811.61345 1142.2874 809.68945 1140.1934 C 802.75945 1132.6484 792.61305 1132.5516 783.74805 1130.3066 C 767.44505 1126.1786 751.75105 1119.2724 734.62305 1118.6074 C 732.52905 1118.5264 730.69486 1117.6689 731.00586 1115.4219 C 731.85186 1109.3079 728.79916 1103.8779 728.41016 1097.9219 C 727.06116 1077.2819 728.71558 1056.6824 728.51758 1036.0684 C 728.47658 1031.7984 728.73148 1027.1931 732.64648 1025.2891 C 733.74073 1024.7568 734.83405 1024.505 735.91016 1024.4785 z M 1401.5059 1166.2812 C 1402.8884 1166.1452 1403.9849 1167.4404 1404.5195 1168.4414 C 1414.5955 1187.3124 1430.2781 1202.9442 1436.3301 1224.1992 C 1437.7941 1229.3392 1441.3283 1233.8892 1443.9473 1238.7812 C 1443.2743 1239.8843 1442.9019 1241.2612 1442.1699 1241.4902 C 1441.3469 1241.7472 1439.842 1241.2807 1439.248 1240.5957 C 1432.855 1233.2187 1424.53 1228.0528 1420.332 1218.0918 C 1413.688 1202.3278 1404.4324 1187.6763 1400.4434 1170.7383 C 1400.0364 1169.0103 1398.2795 1167.4736 1400.8965 1166.4336 C 1401.1049 1166.3507 1401.3084 1166.3007 1401.5059 1166.2812 z "
     id="path2" />
</svg>
