<?xml version="1.0" encoding="UTF-8" standalone="no"?>
<svg
   xmlns:dc="http://purl.org/dc/elements/1.1/"
   xmlns:cc="http://creativecommons.org/ns#"
   xmlns:rdf="http://www.w3.org/1999/02/22-rdf-syntax-ns#"
   xmlns:svg="http://www.w3.org/2000/svg"
   xmlns="http://www.w3.org/2000/svg"
   xmlns:sodipodi="http://sodipodi.sourceforge.net/DTD/sodipodi-0.dtd"
   xmlns:inkscape="http://www.inkscape.org/namespaces/inkscape"
   height="22.834435"
   width="55.400444"
   inkscape:version="1.0 (4035a4fb49, 2020-05-01)"
   sodipodi:docname="flugi.svg"
   id="svg17"
   version="1.1"
   viewBox="0 0 55.400444 22.834435">
  <metadata
     id="metadata21">
    <rdf:RDF>
      <cc:Work
         rdf:about="">
        <dc:format>image/svg+xml</dc:format>
        <dc:type
           rdf:resource="http://purl.org/dc/dcmitype/StillImage" />
        <dc:title></dc:title>
      </cc:Work>
    </rdf:RDF>
  </metadata>
  <sodipodi:namedview
     fit-margin-bottom="1"
     fit-margin-right="1"
     fit-margin-left="1"
     lock-margins="true"
     fit-margin-top="1"
     inkscape:current-layer="svg17"
     inkscape:window-maximized="1"
     inkscape:window-y="0"
     inkscape:window-x="0"
     inkscape:cy="11.416186"
     inkscape:cx="27.698861"
     inkscape:zoom="12.123241"
     showgrid="false"
     id="namedview19"
     inkscape:window-height="1016"
     inkscape:window-width="1920"
     inkscape:pageshadow="2"
     inkscape:pageopacity="0"
     guidetolerance="10"
     gridtolerance="10"
     objecttolerance="10"
     borderopacity="1"
     bordercolor="#666666"
     pagecolor="#ffffff" />
  <defs
     id="defs7">
    <radialGradient
       gradientUnits="userSpaceOnUse"
       gradientTransform="matrix(-0.03378,-1.3198,0.86641,-0.02217,105.86,1201.8)"
       r="534.65002"
       cy="640.82001"
       cx="623.94"
       id="a">
      <stop
         id="stop2"
         offset="0"
         stop-opacity="0" />
      <stop
         id="stop4"
         offset="1" />
    </radialGradient>
  </defs>
  <path
     style="fill:#e36414;fill-opacity:1;stroke-width:0.04994"
     id="path9"
     d="m 48.065755,1.000187 c -0.0025,0 -0.0052,5e-4 -0.0077,0.0011 -0.0066,0.0017 -0.01285,0.0063 -0.01861,0.01533 -1.555231,1.511085 -3.209444,3.032857 -5.266173,3.81232 -0.687124,0.281612 -1.507189,0.334453 -2.044094,0.905462 -0.705153,0.629744 -0.933678,1.613112 -0.909857,2.528063 0.0045,0.819465 0.213034,1.658857 0.722632,2.312372 0.06785,0.538703 0.03672,1.127795 -0.257296,1.600677 -0.660057,1.119055 -1.952953,1.697211 -3.186072,1.946661 -0.556481,0.08641 -1.132239,0.0721 -1.692666,0.04708 -0.636535,-0.135283 -1.26533,-0.309868 -1.908357,-0.408384 -0.0384,-0.07819 -0.269017,-0.089 -0.367878,-0.112775 -0.04006,-0.0063 -0.07967,-0.01524 -0.120431,-0.0099 -0.26992,0.09291 -0.333514,0.436581 -0.505842,0.639382 -0.373127,0.600978 -0.794346,1.173141 -1.162753,1.775867 0.02558,0.179564 0.181687,0.341409 0.301088,0.475179 0.01561,-0.0012 0.03032,-0.0051 0.04379,-0.0099 -0.02151,0.160797 0.226583,0.226278 0.335028,0.285762 0.138663,-0.05441 0.10764,-0.275649 0.208025,-0.352552 0.200409,-0.09419 0.241879,0.215901 0.365685,0.308759 0.220031,0.263354 0.43269,0.616759 0.780662,0.704004 0.24599,-0.07139 0.276149,-0.398131 0.3416,-0.608768 0.09241,-0.219207 -0.173462,-0.31632 -0.243058,-0.489402 0.09849,0.09972 0.322518,0.289597 0.418238,0.09416 0.04079,-0.05236 0.0613,-0.294237 0.06679,-0.237585 0.01523,0.180613 -0.07429,0.335867 -0.13686,0.493787 0.09352,0.472437 0.41635,0.888433 0.795993,1.176986 0.138614,0.09925 0.42889,0.265076 0.517878,0.02628 0.09235,-0.261246 0.122014,-0.553485 0.112775,-0.825508 -0.242569,-0.223442 -0.404649,-0.521823 -0.635037,-0.749999 -0.163054,-0.01974 -0.08738,0.199615 -0.06569,0.279189 -0.06545,-0.17077 -0.158026,-0.382091 -0.163134,-0.541949 0.132745,0.04196 0.2576,0.09459 0.309847,0.236491 0.153171,0.205154 0.294057,0.488443 0.553985,0.56602 0.15394,-0.01058 0.138134,-0.276428 0.163134,-0.313134 0.01863,0.205693 -0.0531,0.399435 -0.08868,0.594536 0.200375,0.558279 0.627546,1.110266 1.228424,1.253644 0.167544,0.064 0.338539,-0.05285 0.339413,-0.23321 0.01864,-0.268592 0.06653,-0.563623 -0.0055,-0.818966 -0.241365,-0.103321 -0.452292,-0.334708 -0.594536,-0.511286 0.184903,0.0937 0.330633,0.355164 0.556182,0.321894 0.146599,-0.123327 0.09668,-0.352722 0.133574,-0.523372 0.0425,0.340441 0.01541,0.719636 0.277002,0.987564 0.282371,0.340071 0.629045,0.7076 1.080652,0.787204 0.188883,-0.127317 0.156602,-0.416689 0.204739,-0.616409 0.06247,-0.219926 0.05595,-0.433584 -0.168607,-0.54964 -0.09679,-0.09297 -0.207646,-0.21208 -0.269342,-0.310941 0.176338,0.09023 0.334239,0.361196 0.556182,0.293422 0.169746,-0.207995 0.07133,-0.529064 0.08102,-0.769675 0.09188,0.164158 0.03511,0.405603 0.06241,0.595584 -0.01387,0.234024 -0.0074,0.470835 0.221164,0.601078 0.262005,0.249475 0.576208,0.55773 0.962394,0.548541 0.179624,-0.147063 0.245195,-0.410272 0.302182,-0.628445 0.02204,-0.301533 0.05759,-0.619506 0.01642,-0.914202 -0.230723,-0.184688 -0.45799,-0.373606 -0.664602,-0.585746 0.250539,0.132296 0.452511,0.396953 0.739062,0.445615 0.181577,-0.08881 0.06063,-0.357321 0.08868,-0.512385 -0.04972,-0.152546 3.49e-4,-0.37391 0.168612,-0.280288 0.100215,0.228236 0.223561,0.522223 0.290141,0.719336 -0.09904,-0.08976 -0.185042,-0.460896 -0.32846,-0.312035 -0.03191,0.312255 -0.106307,0.659208 0.120435,0.920794 0.205134,0.3036 0.504294,0.572861 0.864961,0.654713 0.157266,-0.327067 0.08191,-0.722582 0.07883,-1.077356 -0.0039,-0.204849 -0.116764,-0.451198 -0.140141,-0.609867 0.570065,0.27483 1.132689,0.750398 1.807628,0.63284 0.154494,0.0037 0.314267,-0.10841 0.244152,-0.279195 -0.09064,-0.399665 -0.213589,-0.819965 -0.479554,-1.138682 -0.160682,-0.134873 -0.350249,-0.226707 -0.522273,-0.341599 0.136117,0.01011 0.34588,0.198286 0.448891,0.04927 0.0296,-0.243503 -0.07483,-0.482301 -0.164228,-0.704004 0.203491,0.219486 0.235497,0.527666 0.349261,0.782809 0.402716,0.225689 0.905212,0.244317 1.357619,0.185033 0.365176,-0.06255 0.739861,-0.205169 1.01493,-0.45328 -0.0045,-0.197933 -0.216195,-0.329699 -0.320794,-0.483929 -0.376823,-0.414742 -0.848681,-0.760686 -1.40691,-0.876996 -0.243223,-0.0829 -0.05837,-0.03473 0.09744,-0.0022 0.12498,0.02151 0.420844,0.09572 0.388678,-0.120435 -0.04795,-0.187205 -0.138833,-0.360172 -0.216785,-0.536506 0.214523,0.227787 0.280883,0.561676 0.500349,0.778465 0.387839,0.12047 0.820914,0.0767 1.225178,0.06022 0.380083,-0.03439 0.768027,-0.154554 1.057629,-0.402911 -0.300704,-0.562225 -0.924689,-0.933279 -1.551436,-1.018227 -0.218707,-0.007 -0.555033,0.04925 -0.700708,-0.02628 0.205803,0.0084 0.428341,0.01679 0.619706,-0.05803 -0.03164,-0.205094 -0.222238,-0.364882 -0.33722,-0.537604 0.210872,0.17028 0.35771,0.407465 0.56607,0.572612 0.697162,0.02074 1.47248,-0.09023 1.999247,-0.583549 0.125909,-0.102971 0.16255,-0.283699 0.03722,-0.40401 -0.356832,-0.527915 -1.036755,-0.700358 -1.643376,-0.636135 -0.220704,0.0066 -0.468631,-0.03026 -0.597781,0.194886 -0.06525,0.09069 -0.308599,0.222732 -0.157661,0.321893 0.255528,0.03506 0.513333,0.055 0.769675,0.08321 -0.3489,-0.01569 -0.711645,0.0021 -1.039051,-0.113868 -0.17091,-0.03004 -0.402057,0.0123 -0.54085,-0.03613 0.19501,-0.05483 0.441799,-0.01517 0.623001,-0.152187 0.106847,-0.09555 0.417314,-0.224006 0.237585,-0.375539 -0.141196,-0.179439 -0.419267,-0.339282 -0.540851,-0.45765 0.267864,0.124905 0.520825,0.3079 0.746703,0.483929 0.616959,-0.17543 1.32316,-0.394417 1.663102,-0.983169 C 47.005484,9.242273 46.755213,9.121178 46.57028,9.014421 46.250989,8.897152 45.918214,8.733734 45.573978,8.742893 c -0.287475,0.188778 -0.548191,0.411495 -0.869306,0.552885 -0.06302,0.226104 0.385138,0.07098 0.532111,0.117155 0.328396,-0.0094 0.278151,0.01038 -0.01423,0.03942 -0.240116,0.0033 -0.506841,0.11202 -0.734667,0.04161 -0.03031,-0.06644 -0.148377,-0.193967 -0.01204,-0.212405 0.311112,-0.127192 0.648571,-0.27456 0.860566,-0.543048 0.02409,-0.193482 -0.257291,-0.233015 -0.368971,-0.338313 -0.21709,-0.133964 -0.472008,-0.254389 -0.671144,-0.391969 0.01382,-0.223522 0.298032,-0.156802 0.444516,-0.201458 0.201588,-0.022 0.402431,-0.04701 0.604374,-0.06569 -0.27039,0.08579 -0.601577,0.08759 -0.839741,0.232111 -0.01686,0.165411 0.253465,0.15363 0.345979,0.250724 0.277896,0.108744 0.505593,0.41581 0.825508,0.375539 C 46.18852,8.399124 46.709195,8.136819 47.083844,7.724655 47.245221,7.540825 46.96715,7.394466 46.838594,7.306417 46.376604,7.022478 45.807932,6.817684 45.265283,6.918833 45.054956,7.236931 44.748554,7.512619 44.376251,7.608604 44.650846,7.405873 45.00954,7.206947 45.122954,6.863 45.063304,6.648238 44.759411,6.672364 44.584301,6.619932 44.33942,6.581472 44.092147,6.566972 43.845289,6.545482 44.188526,6.339115 44.549643,6.093505 44.747455,5.738552 44.732735,5.530487 44.432943,5.53202 44.297461,5.436365 c -0.285028,-0.101988 0.0944,-0.0029 0.171898,0.01752 0.177821,0.05049 0.361855,0.09765 0.523371,0.180653 -0.07574,0.179609 -0.235592,0.317373 -0.294516,0.502546 0.12049,0.08144 0.242883,0.04053 0.03832,0.09197 -0.118972,-0.0029 -0.379824,0.134519 -0.238683,0.25839 0.271973,0.08156 0.555832,0.1331 0.820065,0.232111 0.418713,-0.0921 0.762485,-0.412859 1.014932,-0.746703 0.116275,-0.117394 0.03944,-0.290301 -0.117155,-0.31204 C 45.943905,5.551414 45.653817,5.497943 45.367161,5.438554 47.621604,4.510919 49.906459,3.650552 52.12804,2.647757 50.497399,3.542982 48.753095,4.195548 47.031663,4.893309 46.691407,5.042535 46.321267,5.144013 46.0025,5.331258 c -0.02552,0.181162 0.248012,0.173052 0.361306,0.24525 0.108824,0.05889 0.290201,0.103286 0.337219,0.221165 -0.131931,0.36994 -0.428989,0.638732 -0.652516,0.944865 0.113599,0.15766 0.390576,0.17408 0.563873,0.279194 0.257166,0.181991 0.497497,-0.114343 0.741209,-0.188319 C 49.024933,5.97929 50.773532,5.236282 52.29036,4.119224 53.033018,3.572581 53.697669,2.795565 53.7553,1.832022 53.7695,1.602049 53.79346,1.361153 53.74216,1.135709 53.581887,1.044499 53.406973,1.251395 53.249467,1.286802 50.549611,2.657306 47.747577,3.81921 44.943944,4.965582 45.954032,4.2021 47.052013,3.476471 47.781836,2.417843 48.052835,2.009409 48.206805,1.498748 48.121238,1.01423 48.103658,1.01603 48.084328,1.00045 48.066498,1 Z m -1.39048,0.05693 c -0.006,9.54e-4 -0.01154,0.0024 -0.01752,0.0055 -0.556881,0.483209 -1.058428,1.021622 -1.668595,1.448509 -1.284656,0.972482 -2.758935,1.659057 -4.27766,2.19741 -0.997402,0.350779 -1.948959,1.118656 -2.150317,2.20615 -0.182591,0.74081 0.13305,1.466738 0.40401,2.140478 0.246104,0.608169 0.237454,1.288802 0.17846,1.934626 -0.265121,1.149868 -1.282759,1.980171 -2.334245,2.39667 -0.598581,0.236936 -1.271023,0.121514 -1.905062,0.113869 -0.426043,-0.01146 -0.891329,-0.147953 -1.294145,0.05037 -0.05514,0.173916 0.238898,0.140291 0.33722,0.193792 1.096932,0.256577 2.241457,0.489088 3.36236,0.228825 1.277765,-0.263318 2.502444,-1.183478 2.831349,-2.484265 0.09355,-0.555283 0.0497,-1.138033 -0.147803,-1.662003 -0.347422,-1.105422 -0.451977,-2.390728 0.127008,-3.436771 0.435377,-0.804134 1.286005,-1.26533 2.14702,-1.478074 1.225178,-0.371729 2.348479,-1.081002 3.247399,-1.983917 0.519476,-0.509238 0.982969,-1.100178 1.232819,-1.791198 0.0097,-0.04546 -0.03027,-0.08679 -0.07226,-0.07992 z m 7.565411,4.013777 c -0.0046,-4.99e-4 -0.0096,0 -0.01424,0.0011 -1.440519,0.594336 -2.878841,1.203105 -4.348825,1.718935 -0.827556,0.318457 -1.691068,0.543996 -2.512731,0.870404 -0.235422,0.161601 -0.402626,0.412939 -0.586845,0.63284 -0.06115,0.159014 0.171554,0.106612 0.24963,0.07445 1.985265,-0.575408 3.919541,-1.321362 5.857463,-2.037552 -1.687773,0.802786 -3.488259,1.346732 -5.254188,1.958697 -0.41174,0.150454 -0.854923,0.24589 -1.24815,0.426997 0.07259,0.181452 0.35378,0.203541 0.49926,0.3416 0.12929,0.109448 0.337524,0.200634 0.387584,0.371164 -0.1125,0.360926 -0.470759,0.571014 -0.733568,0.822262 -0.08372,0.16604 0.154569,0.168692 0.252911,0.189412 0.189832,0.09445 0.40388,0.148792 0.592338,0.01204 1.811274,-0.779613 3.691265,-1.435725 5.373544,-2.477673 0.751647,-0.482161 1.550337,-1.144575 1.645573,-2.096681 -0.0071,-0.26212 0.0128,-0.562075 -0.120435,-0.793797 -0.01169,-0.0072 -0.02552,-0.01336 -0.03941,-0.01423 z m -0.182845,4.529459 c -2.154512,0.480347 -4.326253,0.882589 -6.514673,1.176986 -0.133085,0.140351 0.175584,0.294236 0.232111,0.435756 0.09349,0.09016 0.156067,0.218537 0.04599,0.321893 -0.05879,0.188034 0.209663,0.103571 0.306561,0.08868 1.491508,-0.257631 2.966836,-0.604324 4.457195,-0.867158 -1.592137,0.480292 -3.250195,0.727875 -4.883133,1.045593 -0.420045,0.118178 -0.799989,0.349625 -1.237214,0.413858 -0.338223,0.0239 -0.0417,0.248751 0.100729,0.33284 0.231268,0.17108 0.39143,0.429669 0.556182,0.660207 0.235322,0.07514 0.496599,-0.0569 0.740111,-0.05584 1.359616,-0.198087 2.737461,-0.352476 4.055378,-0.752196 0.845384,-0.260128 1.72293,-0.756941 2.033157,-1.636834 0.127721,-0.354424 0.202612,-0.739861 0.181747,-1.115659 -0.009,-0.03095 -0.04349,-0.05176 -0.07445,-0.04818 z m -7.52496,4.031306 c -0.349015,0.149251 -0.729923,0.144392 -1.099229,0.168613 -0.04484,0.189986 0.339452,0.179114 0.469696,0.278096 1.32351,0.492198 2.694013,0.921343 4.076202,1.178084 -1.064321,-0.04068 -2.083896,-0.416335 -3.099576,-0.7073 -0.46151,-0.131148 -0.916149,-0.3204 -1.382838,-0.41605 -0.123487,0.133919 0.124151,0.272677 0.168612,0.404004 0.06593,0.134109 0.227447,0.362095 0.01533,0.448896 -0.147893,0.142349 -0.378092,0.184648 -0.503646,0.345979 0.02436,0.16708 0.284054,0.125944 0.406197,0.193793 1.377246,0.360771 2.779362,0.71574 4.211941,0.720434 0.832399,-0.01183 1.799987,-0.112979 2.362711,-0.79924 0.06632,-0.111476 0.242573,-0.229209 0.180653,-0.371164 -1.319665,-0.264167 -2.643424,-0.556581 -3.944811,-0.922991 -0.623451,-0.160907 -1.238761,-0.367239 -1.861264,-0.521174 z m -2.694462,1.7901 -0.01971,0.0033 c -0.143347,0.117179 0.132616,0.215351 0.205833,0.284663 1.062823,0.696213 2.164201,1.333198 3.268175,1.963091 -0.869805,-0.297503 -1.640431,-0.820614 -2.43168,-1.274419 -0.397792,-0.228525 -0.774769,-0.501697 -1.186824,-0.699609 -0.147668,0.09284 0.02923,0.294915 0.03394,0.425903 0.02821,0.165746 0.135088,0.367109 0.08868,0.52442 -0.138744,0.02533 -0.211676,0.198122 -0.04708,0.255103 0.895773,0.539502 1.816917,1.060127 2.790798,1.446313 0.75744,0.283334 1.618106,0.497242 2.409805,0.232111 0.249955,-0.112555 0.573211,-0.216485 0.695265,-0.477362 C 49.607861,17.941935 49.373123,17.98706 49.264608,17.89177 47.74054,17.182422 46.285538,16.328998 44.799721,15.54439 44.499562,15.430407 44.161039,15.506 43.850462,15.421763 h -0.01204 z m -1.958697,1.125547 c -0.01051,7.14e-4 -0.02102,0.003 -0.03175,0.0066 -0.01346,0.412674 0.05267,0.84918 -0.03832,1.250348 0.968387,0.939671 2.022271,1.836943 3.232067,2.462341 0.556332,0.275559 1.252296,0.529264 1.839391,0.192699 0.134578,-0.04336 0.167604,-0.203071 0.03066,-0.272623 -1.165999,-1.102425 -2.348679,-2.194014 -3.574756,-3.228771 -0.187125,-0.181402 -0.468956,-0.130678 -0.700708,-0.209123 -0.138009,-0.06027 -0.188903,0.112769 -0.06898,0.177367 0.851227,0.913502 1.785804,1.746351 2.691167,2.606868 -1.082949,-0.753795 -1.99825,-1.719984 -2.949557,-2.628792 -0.13696,-0.07783 -0.271489,-0.368402 -0.429189,-0.356926 z m -9.529551,0.06241 -0.03832,0.0033 h -0.0022 c -0.162924,0.112425 -0.244726,0.36231 -0.133575,0.545245 0.185557,0.455633 0.379384,0.986515 0.834298,1.232819 0.183989,-0.03285 0.07217,-0.296274 0.08321,-0.422617 -0.0086,-0.297308 -0.06054,-0.608769 -0.299995,-0.811275 -0.167034,-0.166191 -0.264841,-0.398502 -0.443422,-0.547443 z m 1.567866,0.745604 c -0.01972,0.002 -0.0388,0.01217 -0.05693,0.03066 0.02173,0.422951 0.193862,0.835795 0.322987,1.239411 0.226907,0.54874 0.467303,1.184626 1.033558,1.461643 0.161431,0.05302 0.167069,-0.164442 0.104015,-0.258389 -0.148896,-0.526767 -0.210038,-1.087943 -0.430283,-1.58974 -0.152077,-0.110807 -0.157286,0.160517 -0.132481,0.250729 -0.09323,-0.461985 -0.469221,-0.793397 -0.781711,-1.113463 -0.01912,-0.01698 -0.03939,-0.02285 -0.05912,-0.0208 z m 6.676479,0.224451 c -0.01286,0.0028 -0.02673,0.01356 -0.03942,0.01532 -0.109493,0.286705 -0.243847,0.564671 -0.378829,0.838692 0.06548,0.281452 0.326492,0.485622 0.483933,0.721533 0.704204,0.820964 1.486564,1.698709 2.57186,1.98936 0.223961,0.03606 0.46651,0.06198 0.685377,0.01314 -0.01058,-0.190157 -0.254794,-0.317219 -0.352547,-0.480648 -0.756041,-0.872252 -1.394374,-1.842186 -2.083546,-2.765627 -0.169047,-0.07823 -0.306632,-0.213908 -0.482835,-0.273716 -0.151199,0.0779 0.03466,0.263938 0.06788,0.373346 0.356302,0.673441 0.788603,1.341988 1.189022,1.965289 -0.63314,-0.726277 -1.101127,-1.594284 -1.639031,-2.388979 -0.0064,-0.0078 -0.01419,-0.0094 -0.0219,-0.0077 z m -1.810924,0.09854 -0.03284,0.01971 -0.01095,0.0077 c -0.0484,0.447222 0.243647,0.844335 0.398531,1.245953 0.192124,0.40781 0.398691,0.809127 0.584648,1.219684 -0.398182,-0.543896 -0.657311,-1.187473 -0.942668,-1.795592 -0.17904,-0.08774 -0.187759,0.223915 -0.229924,0.322981 -0.26585,-0.0048 -0.487494,-0.193507 -0.737963,-0.217878 -0.08617,0.144587 0.131672,0.292104 0.177367,0.431377 0.544346,0.834697 1.137633,1.699508 2.011284,2.216038 0.196553,0.08414 0.440026,0.217413 0.651467,0.137954 0.03621,-0.195605 -0.143717,-0.389662 -0.189413,-0.58245 -0.344925,-0.785956 -0.589841,-1.618756 -0.974429,-2.384635 -0.248791,-0.190197 -0.451842,-0.444721 -0.705103,-0.620805 z m -3.481667,0.355833 c -0.0022,3e-6 -0.0044,0.0012 -0.0066,0.0022 -0.131547,0.11282 0.05555,0.300295 0.08102,0.42919 0.271359,0.545544 0.512534,1.115909 0.866059,1.612762 0.08898,0.06846 0.277232,0.263344 0.364587,0.108395 -0.18678,-0.395979 -0.467228,-0.76553 -0.671143,-1.162753 -0.202802,-0.318503 -0.335582,-0.704304 -0.585747,-0.98212 -0.01447,0.01386 -0.03245,-0.0077 -0.04817,-0.0077 z m 0.428095,0.111676 c -0.007,4.99e-4 -0.01359,7.14e-4 -0.0208,0.0022 -0.101039,0.132791 0.09228,0.298467 0.123721,0.433569 0.449211,0.880792 0.925089,1.815419 1.750697,2.398868 0.216365,0.104584 0.441819,0.26646 0.687574,0.263863 0.13738,-0.139882 -0.100065,-0.325079 -0.123721,-0.476268 -0.37455,-0.824409 -0.676687,-1.696461 -1.052186,-2.517126 -0.143398,0.04118 -0.275404,0.360218 -0.183939,0.521174 0.130713,0.33707 0.263723,0.672942 0.393057,1.010586 -0.243922,-0.361426 -0.379134,-0.784108 -0.591239,-1.158358 -0.218348,-0.134294 -0.492049,-0.171464 -0.69961,-0.336121 -0.09085,-0.04271 -0.177921,-0.148951 -0.283574,-0.142334 z m -0.602176,0.136855 c -0.01434,5e-4 -0.02879,0.0061 -0.04489,0.01643 -0.05362,0.218158 0.08438,0.450404 0.121534,0.668946 0.09093,0.218478 0.08681,0.501648 0.238683,0.679933 0.164013,0.07218 0.307805,0.248587 0.494881,0.245251 0.136825,-0.109259 -0.101174,-0.318048 -0.129195,-0.453276 -0.204545,-0.384528 -0.400524,-0.775768 -0.637235,-1.140829 -0.01604,-0.01247 -0.02945,-0.01696 -0.0438,-0.01643 z m 2.51383,0.720435 c -0.01686,0 -0.03327,0.0058 -0.04489,0.01532 -0.04042,0.194472 0.128515,0.384094 0.180653,0.569316 0.29479,0.619406 0.53226,1.280562 0.93173,1.841588 0.204664,0.181257 0.464507,0.29536 0.711645,0.405098 0.15791,-0.08642 -0.0814,-0.246449 -0.123721,-0.3416 -0.6244,-0.764231 -1.082949,-1.644923 -1.610565,-2.473328 -0.01167,-0.011 -0.02803,-0.0165 -0.04489,-0.01642 z" />
  <path
     style="fill:#e36414;fill-opacity:1;stroke-width:0.04994"
     id="path11"
     d="m 7.3346914,1.000187 c 0.0026,0 0.0052,5e-4 0.0077,0.0011 0.0066,0.0017 0.01285,0.0063 0.01861,0.01533 1.555232,1.511085 3.2094436,3.032857 5.2661726,3.81232 0.687125,0.281612 1.507189,0.334453 2.044094,0.905462 0.705153,0.629744 0.933679,1.613112 0.909857,2.528063 -0.0045,0.819465 -0.213034,1.658857 -0.722632,2.312372 -0.06785,0.538703 -0.03672,1.127795 0.257296,1.600677 0.660057,1.119055 1.952954,1.697211 3.186072,1.946661 0.556482,0.08641 1.13224,0.0721 1.692667,0.04708 0.636535,-0.135283 1.26533,-0.309868 1.908357,-0.408384 0.0384,-0.07819 0.269017,-0.089 0.367878,-0.112775 0.04006,-0.0063 0.07967,-0.01524 0.12043,-0.0099 0.269921,0.09291 0.333515,0.436581 0.505843,0.639382 0.373126,0.600978 0.794345,1.173141 1.162753,1.775867 -0.02558,0.179564 -0.181687,0.341409 -0.301089,0.475179 -0.0156,-0.0012 -0.03032,-0.0051 -0.04379,-0.0099 0.02151,0.160797 -0.226582,0.226278 -0.335027,0.285762 -0.138663,-0.05441 -0.107641,-0.275649 -0.208025,-0.352552 -0.200409,-0.09419 -0.241879,0.215901 -0.365686,0.308759 -0.22003,0.263354 -0.43269,0.616759 -0.780662,0.704004 -0.245989,-0.07139 -0.276148,-0.398131 -0.341599,-0.608768 -0.09241,-0.219207 0.173461,-0.31632 0.243058,-0.489402 -0.09849,0.09972 -0.322518,0.289597 -0.418238,0.09416 -0.04079,-0.05236 -0.0613,-0.294237 -0.06679,-0.237585 -0.01523,0.180613 0.07429,0.335867 0.136861,0.493787 -0.09352,0.472437 -0.41635,0.888433 -0.795994,1.176986 -0.138613,0.09925 -0.42889,0.265076 -0.517878,0.02628 -0.09235,-0.261246 -0.122018,-0.553485 -0.112774,-0.825508 0.242568,-0.223442 0.404649,-0.521823 0.635037,-0.749999 0.163054,-0.01974 0.08738,0.199615 0.06569,0.279189 0.06545,-0.17077 0.158025,-0.382091 0.163134,-0.541949 -0.132745,0.04196 -0.257605,0.09459 -0.309848,0.236491 -0.153171,0.205154 -0.294056,0.488443 -0.553984,0.56602 -0.15394,-0.01058 -0.138134,-0.276428 -0.163134,-0.313134 -0.01863,0.205693 0.0531,0.399435 0.08868,0.594536 -0.200369,0.558279 -0.627546,1.110266 -1.228424,1.253644 -0.167544,0.064 -0.338538,-0.05285 -0.339412,-0.23321 -0.01864,-0.268592 -0.06653,-0.563623 0.0055,-0.818966 0.241365,-0.103321 0.452291,-0.334708 0.594536,-0.511286 -0.184903,0.0937 -0.330633,0.355164 -0.556182,0.321894 -0.146599,-0.123327 -0.09668,-0.352722 -0.133575,-0.523372 -0.04249,0.340441 -0.01541,0.719636 -0.277002,0.987564 -0.282371,0.340071 -0.629044,0.7076 -1.080652,0.787204 -0.188883,-0.127317 -0.156601,-0.416689 -0.204739,-0.616409 -0.06246,-0.219926 -0.05595,-0.433584 0.168608,-0.54964 0.09679,-0.09297 0.20764,-0.21208 0.269341,-0.310941 -0.176338,0.09023 -0.334243,0.361196 -0.556182,0.293422 -0.169746,-0.207995 -0.07133,-0.529064 -0.08102,-0.769675 -0.09188,0.164158 -0.03511,0.405603 -0.0624,0.595584 0.01386,0.234024 0.0074,0.470835 -0.221164,0.601078 -0.262006,0.249475 -0.576208,0.55773 -0.962394,0.548541 -0.179624,-0.147063 -0.245196,-0.410272 -0.302182,-0.628445 -0.02204,-0.301533 -0.05759,-0.619506 -0.01643,-0.914202 0.230723,-0.184688 0.45799,-0.373606 0.664602,-0.585746 -0.250544,0.132296 -0.452512,0.396953 -0.739062,0.445615 -0.181582,-0.08881 -0.06063,-0.357321 -0.08868,-0.512385 0.04972,-0.152546 -4.99e-4,-0.37391 -0.168612,-0.280288 -0.100215,0.228236 -0.223562,0.522223 -0.290137,0.719336 0.09904,-0.08976 0.185043,-0.460896 0.328461,-0.312035 0.03191,0.312255 0.106312,0.659208 -0.120436,0.920794 -0.205128,0.3036 -0.504294,0.572861 -0.864961,0.654713 -0.157266,-0.327067 -0.08191,-0.722582 -0.07883,-1.077356 0.0039,-0.204849 0.11677,-0.451198 0.140142,-0.609867 -0.570065,0.27483 -1.132689,0.750398 -1.807628,0.63284 -0.154495,0.0037 -0.314268,-0.10841 -0.244152,-0.279195 0.09064,-0.399665 0.213588,-0.819965 0.479554,-1.138682 0.160677,-0.134873 0.350244,-0.226707 0.522272,-0.341599 -0.136116,0.01011 -0.345879,0.198286 -0.44889,0.04927 -0.0296,-0.243503 0.07484,-0.482301 0.164227,-0.704004 -0.20349,0.219486 -0.235497,0.527666 -0.34926,0.782809 -0.402716,0.225689 -0.905213,0.244317 -1.357619,0.185033 -0.365176,-0.06255 -0.739861,-0.205169 -1.0149306,-0.45328 0.0045,-0.197933 0.2161956,-0.329699 0.3207946,-0.483929 0.376817,-0.414742 0.84868,-0.760686 1.40691,-0.876996 0.243222,-0.0829 0.05837,-0.03473 -0.09744,-0.0022 -0.12498,0.02151 -0.420845,0.09572 -0.388678,-0.120435 0.04795,-0.187205 0.138833,-0.360172 0.216784,-0.536506 -0.214522,0.227787 -0.280882,0.561676 -0.500349,0.778465 -0.387839,0.12047 -0.8209126,0.0767 -1.2251776,0.06022 -0.380083,-0.03439 -0.768027,-0.154554 -1.057629,-0.402911 0.300704,-0.562225 0.924689,-0.933279 1.5514356,-1.018227 0.218707,-0.007 0.555033,0.04925 0.700708,-0.02628 -0.205803,0.0084 -0.42834,0.01679 -0.619705,-0.05803 0.03164,-0.205094 0.222238,-0.364882 0.33722,-0.537604 -0.210872,0.17028 -0.357711,0.407465 -0.5660696,0.572612 -0.697163,0.02074 -1.472481,-0.09023 -1.999248,-0.583549 -0.125909,-0.102971 -0.16255,-0.283699 -0.03722,-0.40401 0.356832,-0.527915 1.036755,-0.700358 1.643376,-0.636135 0.220705,0.0066 0.468637,-0.03026 0.5977816,0.194886 0.06525,0.09069 0.308599,0.222732 0.15766,0.321893 -0.255528,0.03506 -0.5133326,0.055 -0.7696746,0.08321 0.348901,-0.01569 0.7116446,0.0021 1.0390516,-0.113868 0.170909,-0.03004 0.402057,0.0123 0.54085,-0.03613 -0.195011,-0.05483 -0.441799,-0.01517 -0.623002,-0.152187 -0.106846,-0.09555 -0.417313,-0.224006 -0.237584,-0.375539 0.1412,-0.179439 0.419266,-0.339282 0.54085,-0.45765 -0.267863,0.124905 -0.520874,0.3079 -0.746703,0.483929 -0.6169586,-0.17543 -1.3231596,-0.394417 -1.6631016,-0.983169 0.05312,-0.222143 0.303386,-0.343238 0.488314,-0.449995 0.319296,-0.117269 0.652066,-0.280687 0.996303,-0.271528 0.2874736,0.188778 0.5481906,0.411495 0.8693046,0.552885 0.06302,0.226104 -0.385137,0.07098 -0.53211,0.117155 -0.3283956,-0.0094 -0.2781506,0.01038 0.01423,0.03942 0.240117,0.0033 0.506841,0.11202 0.734668,0.04161 0.03031,-0.06644 0.148376,-0.193967 0.01204,-0.212405 C 10.613497,9.154366 10.276037,9.006998 10.064042,8.73851 10.039952,8.545028 10.321333,8.505495 10.433013,8.400197 10.650103,8.266233 10.905021,8.145808 11.104157,8.008228 11.090337,7.784706 10.806125,7.851426 10.659641,7.80677 10.458053,7.78477 10.25721,7.75976 10.055267,7.74108 c 0.27039,0.08579 0.601577,0.08759 0.839741,0.232111 0.01686,0.165411 -0.253465,0.15363 -0.345979,0.250724 -0.277896,0.108744 -0.505593,0.41581 -0.8255076,0.375539 -0.511586,-0.20033 -1.03226,-0.462635 -1.40691,-0.874799 -0.161371,-0.18383 0.116695,-0.330189 0.24525,-0.418238 C 9.0238564,7.022478 9.5925234,6.817684 10.135171,6.918833 10.345499,7.236931 10.6519,7.512619 11.024203,7.608604 10.749608,7.405873 10.390914,7.206947 10.2775,6.863 c 0.05965,-0.214762 0.363543,-0.190636 0.538653,-0.243068 0.244881,-0.03846 0.492154,-0.05296 0.739062,-0.07445 -0.343237,-0.206367 -0.704354,-0.451977 -0.902166,-0.80693 0.01472,-0.208065 0.314512,-0.206532 0.449994,-0.302187 0.285028,-0.101988 -0.0944,-0.0029 -0.171893,0.01752 -0.177826,0.05049 -0.36186,0.09765 -0.523371,0.180653 0.07574,0.179609 0.235592,0.317373 0.294516,0.502546 -0.12049,0.08144 -0.242883,0.04053 -0.03832,0.09197 0.118972,-0.0029 0.379824,0.134519 0.238683,0.25839 -0.271973,0.08156 -0.555832,0.1331 -0.820065,0.232111 C 9.6638814,6.627455 9.3201104,6.306696 9.0676634,5.972852 8.9513874,5.855458 9.0282234,5.682551 9.1848174,5.660812 9.4566064,5.551414 9.7466924,5.497943 10.033348,5.438554 7.7789064,4.510919 5.4940517,3.650552 3.2724708,2.647757 c 1.6306409,0.895225 3.3749456,1.547791 5.0963766,2.245552 0.340257,0.149226 0.710397,0.250704 1.029164,0.437949 0.02552,0.181162 -0.248012,0.173052 -0.361306,0.24525 -0.108824,0.05889 -0.290201,0.103286 -0.33722,0.221165 0.131927,0.36994 0.42899,0.638732 0.652566,0.944865 -0.113598,0.15766 -0.390581,0.17408 -0.563872,0.279194 C 8.5310084,7.203728 8.2906764,6.907394 8.0469694,6.833423 6.3755224,5.979378 4.6269734,5.236371 3.1101457,4.119313 2.367488,3.57272 1.7027866,2.795654 1.6452058,1.832161 1.6310014,1.602187 1.6070416,1.361292 1.6583465,1.135848 1.8186239,1.044638 1.9935388,1.251534 2.1510396,1.286941 4.8508958,2.657445 7.6529294,3.819349 10.456561,4.965721 9.4464744,4.202239 8.3484934,3.47661 7.6186704,2.417982 7.3476764,2.009548 7.1937014,1.498887 7.2792684,1.014369 c 0.01758,0.0018 0.03691,-0.01378 0.05474,-0.01423 z m 1.390479,0.05693 c 0.006,9.54e-4 0.01154,0.0024 0.01752,0.0055 0.556881,0.483209 1.058428,1.021622 1.6685946,1.448509 1.284657,0.972482 2.758935,1.659057 4.277661,2.19741 0.997401,0.350779 1.948958,1.118656 2.150316,2.20615 0.182591,0.74081 -0.13305,1.466738 -0.404009,2.140478 -0.246105,0.608169 -0.237455,1.288802 -0.178461,1.934626 0.265126,1.149868 1.282759,1.980171 2.334245,2.39667 0.598581,0.236936 1.271023,0.121514 1.905062,0.113869 0.426043,-0.01146 0.891329,-0.147953 1.294145,0.05037 0.05514,0.173916 -0.238898,0.140291 -0.33722,0.193792 -1.096932,0.256577 -2.241457,0.489088 -3.36236,0.228825 -1.277765,-0.263318 -2.502444,-1.183478 -2.831349,-2.484265 -0.09355,-0.555283 -0.0497,-1.138033 0.147803,-1.662003 C 15.75454,8.721626 15.859095,7.43632 15.280115,6.390277 14.844738,5.586143 13.99411,5.124947 13.133095,4.912203 11.907917,4.540474 10.784616,3.831201 9.8856964,2.928286 9.3662214,2.419048 8.9027274,1.828108 8.6528784,1.137088 c -0.0097,-0.04546 0.03027,-0.08679 0.07226,-0.07992 z M 1.15976,5.070896 c 0.00464,-4.99e-4 0.00961,0 0.014236,0.0011 1.4405193,0.594336 2.8788413,1.203105 4.3488252,1.718935 0.8275552,0.318457 1.6910682,0.543996 2.5127312,0.870404 0.235422,0.161601 0.402626,0.412939 0.586845,0.63284 0.06115,0.159014 -0.171559,0.106612 -0.24963,0.07445 C 6.3875024,7.793217 4.4532262,7.047263 2.5153045,6.331073 4.2030768,7.133859 6.0035634,7.677805 7.7694914,8.28977 c 0.411741,0.150454 0.854923,0.24589 1.248151,0.426997 -0.07259,0.181457 -0.35378,0.203541 -0.49926,0.3416 -0.12929,0.109448 -0.337525,0.200634 -0.387585,0.371164 0.112495,0.360926 0.47076,0.571014 0.733569,0.822262 0.08371,0.166035 -0.154569,0.168687 -0.252911,0.189412 -0.189832,0.09445 -0.403875,0.148792 -0.592338,0.01204 C 6.2078434,9.673608 4.3278517,9.017496 2.6455729,7.975548 1.893926,7.493387 1.0952355,6.830973 1,5.878867 1.00712,5.616747 0.987206,5.316793 1.1204303,5.085071 c 0.011693,-0.0072 0.025522,-0.01336 0.039416,-0.01424 z m 0.1828453,4.529459 c 2.1545115,0.480347 4.3262523,0.882589 6.5146731,1.176986 0.133085,0.140351 -0.175579,0.294236 -0.232111,0.435756 -0.09349,0.09016 -0.156073,0.218537 -0.04599,0.321893 0.05878,0.188034 -0.209658,0.103571 -0.306562,0.08868 -1.491508,-0.257631 -2.9668351,-0.604324 -4.4571946,-0.867158 1.5921372,0.480292 3.2501956,0.727875 4.8831336,1.045593 0.420045,0.118178 0.799988,0.349625 1.237213,0.413858 0.338224,0.0239 0.0417,0.248751 -0.100729,0.33284 -0.231262,0.17108 -0.391425,0.429669 -0.556182,0.660207 -0.235317,0.07514 -0.496598,-0.0569 -0.74011,-0.05584 C 6.1791334,12.955089 4.8012889,12.8007 3.4833723,12.40098 2.637988,12.140852 1.7604423,11.644039 1.4502151,10.764146 1.3224935,10.409722 1.2476035,10.024285 1.2684684,9.648487 c 0.00902,-0.03095 0.043494,-0.05176 0.074451,-0.04818 z m 7.5249591,4.031306 c 0.349011,0.149251 0.729923,0.144392 1.099229,0.168613 0.04484,0.189986 -0.339452,0.179114 -0.469695,0.278096 -1.32351,0.492198 -2.694014,0.921343 -4.0762029,1.178084 1.0643209,-0.04068 2.0838959,-0.416335 3.0995759,-0.7073 0.461516,-0.131148 0.916149,-0.3204 1.382839,-0.41605 0.1234856,0.133919 -0.124151,0.272677 -0.168613,0.404004 -0.06593,0.134109 -0.227446,0.362095 -0.01532,0.448896 0.147892,0.142349 0.3780896,0.184648 0.5036446,0.345979 -0.02436,0.16708 -0.2840536,0.125944 -0.4061966,0.193793 -1.377246,0.360771 -2.779361,0.71574 -4.2119399,0.720434 -0.8324,-0.01183 -1.7999875,-0.112979 -2.3627114,-0.79924 -0.066325,-0.111476 -0.2425735,-0.229209 -0.1806529,-0.371164 1.3196645,-0.264167 2.6434242,-0.556581 3.9448102,-0.922991 0.623451,-0.160907 1.238762,-0.367239 1.861264,-0.521174 z m 2.6944626,1.7901 0.01971,0.0033 c 0.143348,0.117179 -0.132615,0.215351 -0.205837,0.284663 -1.062824,0.696213 -2.1641996,1.333198 -3.2681736,1.963091 0.869805,-0.297503 1.640429,-0.820614 2.4316786,-1.274419 0.397792,-0.228525 0.774769,-0.501697 1.186824,-0.699609 0.147667,0.09284 -0.02923,0.294915 -0.03394,0.425903 -0.02821,0.165746 -0.135087,0.367109 -0.08868,0.52442 0.138743,0.02533 0.211676,0.198122 0.04708,0.255103 -0.895774,0.539502 -1.8169166,1.060127 -2.7907966,1.446313 -0.75744,0.283334 -1.618106,0.497242 -2.409805,0.232111 -0.24995,-0.112555 -0.573211,-0.216485 -0.695215,-0.477362 0.03776,-0.163338 0.272498,-0.118213 0.381013,-0.213503 1.524069,-0.709348 2.97907,-1.562772 4.4648846,-2.34738 0.30016,-0.113983 0.638683,-0.03839 0.94926,-0.122627 h 0.01204 z m 1.958747,1.125547 c 0.01051,7.14e-4 0.02102,0.003 0.03175,0.0066 0.01346,0.412674 -0.05267,0.84918 0.03832,1.250348 -0.968387,0.939671 -2.02227,1.836943 -3.232067,2.462341 -0.5563316,0.275559 -1.2522946,0.529264 -1.8393896,0.192699 -0.134578,-0.04336 -0.167604,-0.203071 -0.03066,-0.272623 1.165999,-1.102425 2.3486776,-2.194014 3.5747546,-3.228771 0.187125,-0.181402 0.468957,-0.130678 0.700708,-0.209123 0.138009,-0.06027 0.188903,0.112769 0.06898,0.177367 -0.851227,0.913502 -1.785804,1.746351 -2.691167,2.606868 1.082949,-0.753795 1.99825,-1.719984 2.949557,-2.628792 0.13696,-0.07783 0.271489,-0.368402 0.429189,-0.356926 z m 9.52955,0.06241 0.03832,0.0033 h 0.0022 c 0.162924,0.112425 0.244726,0.36231 0.133574,0.545245 -0.185557,0.455633 -0.379384,0.986515 -0.834297,1.232819 -0.183989,-0.03285 -0.07217,-0.296274 -0.08321,-0.422617 0.0086,-0.297308 0.06054,-0.608769 0.299994,-0.811275 0.167034,-0.166191 0.264842,-0.398502 0.443422,-0.547443 z m -1.567866,0.745604 c 0.01972,0.002 0.0388,0.01217 0.05693,0.03066 -0.02174,0.422951 -0.193862,0.835795 -0.322987,1.239411 -0.226908,0.54874 -0.467304,1.184626 -1.033559,1.461643 -0.161431,0.05302 -0.167069,-0.164442 -0.104015,-0.258389 0.148897,-0.526767 0.210038,-1.087943 0.430283,-1.58974 0.152078,-0.110807 0.157287,0.160517 0.132481,0.250729 0.09323,-0.461985 0.469222,-0.793397 0.781711,-1.113463 0.01912,-0.01698 0.03939,-0.02285 0.05913,-0.0208 z m -6.676479,0.224451 c 0.01286,0.0028 0.02673,0.01356 0.03942,0.01532 0.109494,0.286705 0.243847,0.564671 0.37883,0.838692 -0.06548,0.281452 -0.326498,0.485622 -0.483934,0.721533 -0.704204,0.820964 -1.486564,1.698709 -2.57186,1.98936 -0.223956,0.03606 -0.466509,0.06198 -0.685376,0.01314 0.01058,-0.190157 0.254794,-0.317219 0.352546,-0.480648 0.756042,-0.872252 1.394375,-1.842186 2.083547,-2.765627 0.169047,-0.07823 0.306627,-0.213908 0.482835,-0.273716 0.151198,0.0779 -0.03466,0.263938 -0.06788,0.373346 -0.356302,0.673441 -0.788602,1.341988 -1.189021,1.965289 0.633139,-0.726277 1.101127,-1.594284 1.639031,-2.388979 0.0064,-0.0078 0.01419,-0.0094 0.0219,-0.0077 z m 1.810925,0.09854 0.03284,0.01971 0.01095,0.0077 c 0.04839,0.447222 -0.243648,0.844335 -0.398532,1.245953 -0.192124,0.40781 -0.398691,0.809127 -0.584647,1.219684 0.398181,-0.543896 0.65731,-1.187473 0.942667,-1.795592 0.17904,-0.08774 0.18776,0.223915 0.229924,0.322981 0.265851,-0.0048 0.487494,-0.193507 0.737963,-0.217878 0.08617,0.144587 -0.131671,0.292104 -0.177366,0.431377 -0.544346,0.834697 -1.137634,1.699508 -2.011284,2.216038 -0.196554,0.08414 -0.440026,0.217413 -0.651467,0.137954 -0.0362,-0.195605 0.143717,-0.389662 0.189412,-0.58245 0.344926,-0.785956 0.589841,-1.618756 0.974429,-2.384635 0.248791,-0.190197 0.451843,-0.444721 0.705103,-0.620805 z m 3.481667,0.355833 c 0.0022,3e-6 0.0044,0.0012 0.0066,0.0022 0.131547,0.11282 -0.05555,0.300295 -0.08102,0.42919 -0.271359,0.545544 -0.512535,1.115909 -0.86606,1.612762 -0.08898,0.06846 -0.277232,0.263344 -0.364587,0.108395 0.186781,-0.395979 0.467229,-0.76553 0.671144,-1.162753 0.202801,-0.318503 0.335582,-0.704304 0.585746,-0.98212 0.01447,0.01386 0.03245,-0.0077 0.04817,-0.0077 z m -0.428096,0.111676 c 0.007,4.99e-4 0.01359,7.14e-4 0.0208,0.0022 0.101039,0.132791 -0.09228,0.298467 -0.123721,0.433569 -0.449211,0.880792 -0.925089,1.815419 -1.750697,2.398868 -0.216365,0.104584 -0.441819,0.26646 -0.687574,0.263863 -0.13738,-0.139882 0.100065,-0.325079 0.123717,-0.476268 0.37455,-0.824409 0.676687,-1.696461 1.052185,-2.517126 0.143398,0.04118 0.275405,0.360218 0.183939,0.521174 -0.130713,0.33707 -0.263723,0.672942 -0.393057,1.010586 0.243922,-0.361426 0.379134,-0.784108 0.591239,-1.158358 0.218348,-0.134294 0.492049,-0.171464 0.69961,-0.336121 0.09085,-0.04271 0.177921,-0.148951 0.283574,-0.142334 z m 0.602177,0.136855 c 0.01434,5e-4 0.02879,0.0061 0.04489,0.01643 0.05362,0.218158 -0.08438,0.450404 -0.121534,0.668946 -0.09093,0.218478 -0.08681,0.501648 -0.238683,0.679933 -0.164013,0.07218 -0.3078,0.248587 -0.49488,0.245251 -0.136826,-0.109259 0.101173,-0.318048 0.129194,-0.453276 0.204545,-0.384528 0.400524,-0.775768 0.637235,-1.140829 0.01604,-0.01247 0.02945,-0.01696 0.04379,-0.01643 z m -2.51383,0.720435 c 0.01686,0 0.03327,0.0058 0.04489,0.01532 0.04042,0.194472 -0.128516,0.384094 -0.180653,0.569316 -0.294791,0.619406 -0.532261,1.280562 -0.931731,1.841588 -0.204664,0.181257 -0.464502,0.29536 -0.711645,0.405098 -0.15791,-0.08642 0.0814,-0.246449 0.123722,-0.3416 0.6244,-0.764231 1.082949,-1.644923 1.610565,-2.473328 0.01167,-0.011 0.02803,-0.0165 0.04489,-0.01642 z" />
</svg>
