<?xml version="1.0" encoding="UTF-8" standalone="no"?>
<svg
   xmlns:dc="http://purl.org/dc/elements/1.1/"
   xmlns:cc="http://creativecommons.org/ns#"
   xmlns:rdf="http://www.w3.org/1999/02/22-rdf-syntax-ns#"
   xmlns:svg="http://www.w3.org/2000/svg"
   xmlns="http://www.w3.org/2000/svg"
   xmlns:sodipodi="http://sodipodi.sourceforge.net/DTD/sodipodi-0.dtd"
   xmlns:inkscape="http://www.inkscape.org/namespaces/inkscape"
   inkscape:version="1.0 (4035a4fb49, 2020-05-01)"
   sodipodi:docname="forta.svg"
   viewBox="0 0 4080 4523.232"
   height="4523.2319"
   width="4080"
   xml:space="preserve"
   id="svg2"
   version="1.1"><metadata
     id="metadata8"><rdf:RDF><cc:Work
         rdf:about=""><dc:format>image/svg+xml</dc:format><dc:type
           rdf:resource="http://purl.org/dc/dcmitype/StillImage" /><dc:title></dc:title></cc:Work></rdf:RDF></metadata><defs
     id="defs6"><clipPath
       id="clipPath18"
       clipPathUnits="userSpaceOnUse"><path
         id="path16"
         d="M 0,3332.424 H 3332.424 V 0 H 0 Z" /></clipPath></defs><sodipodi:namedview
     fit-margin-bottom="40"
     fit-margin-right="40"
     fit-margin-left="40"
     lock-margins="true"
     fit-margin-top="40"
     inkscape:current-layer="g10"
     inkscape:window-maximized="1"
     inkscape:window-y="0"
     inkscape:window-x="0"
     inkscape:cy="1671.0736"
     inkscape:cx="907.9183"
     inkscape:zoom="0.12347677"
     showgrid="false"
     id="namedview4"
     inkscape:window-height="1016"
     inkscape:window-width="1920"
     inkscape:pageshadow="2"
     inkscape:pageopacity="0"
     guidetolerance="10"
     gridtolerance="10"
     objecttolerance="10"
     borderopacity="1"
     bordercolor="#666666"
     pagecolor="#ffffff" /><g
     transform="matrix(1.3333333,0,0,-1.3333333,-181.61586,4483.2319)"
     inkscape:label="muscular-5279483"
     inkscape:groupmode="layer"
     id="g10"><g
       style="fill:#e36414;fill-opacity:1"
       transform="translate(166.2119,1502.79)"
       id="g20"><path
         id="path22"
         style="fill:#e36414;fill-opacity:1;fill-rule:nonzero;stroke:none"
         d="m 0,0 v -1263.595 c 0,-111.994 103.357,-144.901 110.139,-146.945 1279.02,-226.741 2094.286,34.814 2096.147,43.094 1.771,-0.977 258.985,-64.807 524.395,57.751 75.123,34.691 134.286,94.037 168.88,165.71 98.196,203.415 255.053,755.836 -273.051,1669.955 -109.189,188.984 -41.519,294.73 -129.822,431.06 -27.342,42.189 -40.392,91.186 -37.964,140.541 10.309,209.858 -0.827,728.272 -362.349,728.272 -453.275,0 -780.321,43.178 -780.321,-161.903 0,-97.909 52.485,-145.709 115.476,-270.512 l 7.244,-15.302 c -56.339,7.381 -109.189,10.082 -152.641,5.591 -77.667,-10.941 -102.927,-86.89 -79.099,-156.923 19.897,-58.474 152.953,-106.814 302.951,-156.435 141.557,-46.83 163.913,-139.656 385.52,-270.831 61.676,-36.514 100.331,-99.257 104.574,-167.689 0,0 -13.466,-656.644 45.607,-1045.145 C 1676.672,-94.396 1157.542,-7.974 685.763,-104.178 522.26,41.87 308.334,114.135 89.833,97.643 39.026,93.809 0,50.956 0,0" /></g><g
       style="fill:#e36414;fill-opacity:1"
       transform="translate(2375.9346,134.4394)"
       id="g24"><path
         id="path26"
         style="fill:#e36414;fill-opacity:1;fill-rule:nonzero;stroke:none"
         d="m 0,0 c 31.287,-7.479 272.511,-56.065 520.958,58.655 75.123,34.692 134.286,94.037 168.88,165.71 98.196,203.415 255.054,755.836 -273.051,1669.955 -109.188,188.985 -41.518,294.731 -129.821,431.061 -27.343,42.189 -40.393,91.186 -37.965,140.541 10.31,209.858 -0.826,728.271 -362.349,728.271 -190.228,0 -358.203,7.596 -489.125,1.263 48.347,-0.697 98.633,-1.263 150.604,-1.263 361.529,0 372.652,-518.413 362.349,-728.271 -2.421,-49.355 10.628,-98.352 37.965,-140.541 C 36.761,2189.051 -30.923,2083.318 78.267,1894.32 606.378,980.201 449.52,427.78 351.317,224.372 316.717,152.698 257.566,93.347 182.437,58.662 120.085,29.874 58.239,11.455 0,0" /></g><g
       style="fill:#ffffff;fill-opacity:1;stroke:none"
       transform="translate(1948.5449,3108.0288)"
       id="g28"><path
         sodipodi:nodetypes="cccccccccccccccc"
         id="path30"
         style="fill:#ffffff;fill-opacity:1;fill-rule:nonzero;stroke:none"
         d="m 0,0 -134.95,15.204 c -27.604,3.183 -52.512,-16.746 -55.623,-44.356 -3.112,-27.61 16.747,-52.512 44.356,-55.623 125.383,-15.862 185.178,-9.197 200.148,-55.154 l 2.746,-8.436 c 9.151,-28.091 -6.586,-58.187 -36.611,-70.013 -47.155,-18.504 -97.024,-15.1 -141.238,4.094 l -312.364,132.623 c 19.89,-35.361 45.079,-74.843 72.233,-128.643 l 7.257,-15.289 c -0.299,0.039 -0.586,0.065 -0.885,0.104 l 193.693,-81.074 c 176.65,-76.744 364.379,33.493 313.592,189.362 l -2.747,8.435 C 129.854,-48.158 73.932,-7.492 0,0" /></g></g></svg>
