<?xml version="1.0" encoding="UTF-8" standalone="no"?>
<svg
   xmlns:dc="http://purl.org/dc/elements/1.1/"
   xmlns:cc="http://creativecommons.org/ns#"
   xmlns:rdf="http://www.w3.org/1999/02/22-rdf-syntax-ns#"
   xmlns:svg="http://www.w3.org/2000/svg"
   xmlns="http://www.w3.org/2000/svg"
   xmlns:sodipodi="http://sodipodi.sourceforge.net/DTD/sodipodi-0.dtd"
   xmlns:inkscape="http://www.inkscape.org/namespaces/inkscape"
   inkscape:version="1.0 (4035a4fb49, 2020-05-01)"
   sodipodi:docname="gardisto.svg"
   id="svg879"
   viewBox="0 0 777.7 800"
   version="1.0">
  <metadata
     id="metadata885">
    <rdf:RDF>
      <cc:Work
         rdf:about="">
        <dc:format>image/svg+xml</dc:format>
        <dc:type
           rdf:resource="http://purl.org/dc/dcmitype/StillImage" />
        <dc:title></dc:title>
      </cc:Work>
    </rdf:RDF>
  </metadata>
  <defs
     id="defs883" />
  <sodipodi:namedview
     inkscape:current-layer="svg879"
     inkscape:window-maximized="1"
     inkscape:window-y="0"
     inkscape:window-x="0"
     inkscape:cy="400"
     inkscape:cx="388.85"
     inkscape:zoom="0.97125"
     showgrid="false"
     id="namedview881"
     inkscape:window-height="1016"
     inkscape:window-width="1920"
     inkscape:pageshadow="2"
     inkscape:pageopacity="0"
     guidetolerance="10"
     gridtolerance="10"
     objecttolerance="10"
     borderopacity="1"
     bordercolor="#666666"
     pagecolor="#ffffff" />
  <g
     style="fill:#5f0f40;fill-opacity:1"
     id="g877"
     transform="translate(-14.762 494.35)">
    <g
       style="fill:#5f0f40;fill-opacity:1"
       id="g875"
       transform="matrix(2.4672 0 0 2.4672 -953.74 -1891.1)">
      <g
         style="fill:#5f0f40;fill-opacity:1"
         id="g873"
         transform="matrix(2.6614 0 0 2.6614 -652.21 -1479.3)">
        <path
           style="fill:#5f0f40;fill-opacity:1"
           id="path869"
           fill-rule="evenodd"
           d="m470.14 881.26 4.8871-18.553-4.1564-1.72c2.2728-5.5862 6.0504-9.5393 8.3233-13.18-0.16836-3.1988-0.71553-5.64-0.88389-8.8388-1.6788 0.26361-3.3576 0.44558-5.0364 0.56883-0.42286 0.031-0.34065-1.2043-0.76351-1.1804-3.4816-0.41574-9.1115 1.1371-12.205-0.89362-4.533 1.9719-7.1558 1.5777-7.1861-1.0834-0.0304-2.661 1.6333-2.8375 6.4812-4.5782 3.5569-2.9078 8.3213-2.1933 12.482-3.2899l0.35266-1.3468 11.178-3.4751v-4.1669c-3.0514-1.5019-3.5441-4.1556-4.9245-5.9346-1.8894-0.46941-6.3104-0.48545-6.3134-2.5254-7e-3 -4.6567 9.738-5.787 14.395-5.8084 4.5582-0.021 13.994 0.24578 13.763 4.7982-0.0996 1.9644-4.5842 2.2117-5.9346 2.5254 0.38213 1.5943-3.1476 7.4335-4.672 7.5761v3.6618s8.2619 1.3812 11.112 3.283c2.905 1.9386 7.5762 8.8388 7.5762 8.8388l-2.0203 2.2728c1.8772 0.50016 3.0877 3.8 3.283 11.364 2.2884 4.8416 0.63701 7.8079-1.0102 8.0812-1.6966 0.2815-3.3672-0.67342-3.5355-4.5457-2.6052-3.2414-4.8523-6.5277-4.7982-10.102l-2.0203 0.75761c-1.3178-1.2351-2.1294-2.7234-2.7779-4.2932-0.92716 3.2806-2.297 5.6758-3.5355 8.3338 2.9463 4.3206 5.8926 8.9138 8.8388 14.9l-5.177 1.389s4.6806 19.44 5.6821 19.572c0.93032 0.12223 3.0122 4.2831 4.0406 4.7982 1.7795 0.89137-3.0811 3.0112-5.5558 1.2627-1.9854-1.4028-2.0775-3.7039-2.7779-5.5558-3.9709-7.1813-5.8611-18.657-7.5694-20.599-1.5152-0.50508-8.0229-0.63134-8.0229-0.63134l-7.6412 18.452c-1.0821 3.6914-1.4884 6.0781-2.691 7.2962-1.811 1.8344-6.1705 0.8909-5.8617-0.30577 0.49056-1.9009 4.0948-4.7424 4.6757-7.1253z" />
        <path
           style="fill:#5f0f40;fill-opacity:1"
           id="path871"
           d="m452.03 768.56s-2.26 4.6189-2.1875 6.75c0.0327 0.95962 1.1875 2.9688 1.1875 2.9688v11.812c-1.3052-0.64754-9.1049-4.3682-14.406-3.4062-3.8468 0.69805-7.0127 4.478-10.125 8.4375l-6.4688-1.7188c0.4107-1.1023 0.62794-2.2315 0.5625-3.3125-0.30367-5.0158-7.725-10.841-12.75-10.844-7.447-4e-3 -15.475 8.9577-15.281 16.281 0.25646 9.6858 11.371 21.817 24.25 21.344 6.251-0.22968 13.708-5.4974 19.938-6.0625 4.473-0.40577 12.175 7.0531 14.281 9.1875v69.333h2.2812v-110.99s0.84123-2.2223 0.8125-3.2188c-0.0596-2.0657-2.0938-6.5625-2.0938-6.5625zm-42.281 16.875c3.5789-0.0971 5.981 2.8453 6.1875 5.2812 0.21726 2.5633-1.6166 6.2563-4.5625 4.9375-0.45383-1.8655 2.103 0.52648 2.0312-2.0312-0.0599-2.1347-1.6571-2.0434-2.6562-2-0.57529 0.025-1.26 0.12143-1.8125 0.5l-3-5.5c1.159-0.70004 2.463-1.1519 3.8125-1.1875zm-8.1562 6.4375c2.0351 0.7966 4.7719 1.8526 6.4062 2.5 0.0147 1.7083 0.71141 3.7504 2.6562 4.8438-0.70264 1.4587-1.5201 3.0979-2.4688 4.9375-3.5551-1.5522-6.7165-4.6481-7.0312-9.75-0.049-0.79453 0.12819-1.6708 0.4375-2.5312zm17.219 3.9062c1.5452 0.99449 3.2636 2.086 4.6875 3.0938-2.9577 3.5898-6.0271 6.5564-9.7188 6.5-0.3524-5e-3 -0.72364 5e-3 -1.0938-0.0312l0.0625-5.4688c0.13403 0.0204 0.26549 0.0488 0.40625 0.0625 1.7224 0.16787 4.0544-1.6761 5.6562-4.1562z" />
      </g>
    </g>
  </g>
</svg>
