<?xml version="1.0" encoding="UTF-8" standalone="no"?>
<svg
   xmlns:dc="http://purl.org/dc/elements/1.1/"
   xmlns:cc="http://creativecommons.org/ns#"
   xmlns:rdf="http://www.w3.org/1999/02/22-rdf-syntax-ns#"
   xmlns:svg="http://www.w3.org/2000/svg"
   xmlns="http://www.w3.org/2000/svg"
   xmlns:sodipodi="http://sodipodi.sourceforge.net/DTD/sodipodi-0.dtd"
   xmlns:inkscape="http://www.inkscape.org/namespaces/inkscape"
   inkscape:version="1.0 (4035a4fb49, 2020-05-01)"
   height="500.13971"
   width="511.61563"
   sodipodi:docname="gefratoj.svg"
   id="svg4"
   version="1.1"
   viewBox="0 0 511.61563 500.13971">
  <metadata
     id="metadata10">
    <rdf:RDF>
      <cc:Work
         rdf:about="">
        <dc:format>image/svg+xml</dc:format>
        <dc:type
           rdf:resource="http://purl.org/dc/dcmitype/StillImage" />
        <dc:title></dc:title>
      </cc:Work>
    </rdf:RDF>
  </metadata>
  <defs
     id="defs8" />
  <sodipodi:namedview
     inkscape:current-layer="svg4"
     inkscape:window-maximized="1"
     inkscape:window-y="0"
     inkscape:window-x="0"
     inkscape:cy="247.54953"
     inkscape:cx="256.37544"
     inkscape:zoom="1.0218349"
     fit-margin-bottom="5"
     fit-margin-right="5"
     lock-margins="true"
     fit-margin-left="5"
     fit-margin-top="5"
     showgrid="false"
     id="namedview6"
     inkscape:window-height="704"
     inkscape:window-width="1366"
     inkscape:pageshadow="2"
     inkscape:pageopacity="0"
     guidetolerance="10"
     gridtolerance="10"
     objecttolerance="10"
     borderopacity="1"
     bordercolor="#666666"
     pagecolor="#ffffff" />
  <path
     style="fill:#5f0f40;fill-opacity:1"
     id="path2"
     fill="#ff7f00"
     d="m 395.11544,351.56953 13.239,34.422 c 2.5007,5.7369 5.0014,11.033 7.7964,16.328 1.7652,3.5304 4.2659,6.7666 7.208,9.5616 l 21.182,21.182 c 1.7652,2.0594 3.3833,3.8246 5.1485,5.7369 1.3239,1.471 2.6478,3.2362 3.6775,5.0014 1.0297,2.3536 2.0594,4.7072 2.7949,7.0608 0.44132,1.471 0.7355,2.942 0.7355,4.413 0,1.6181 -0.29419,3.2362 -0.8826,4.8543 -1.0297,3.0891 -2.2065,6.0312 -3.5304,9.1202 -2.2065,5.0014 -6.4724,8.679 -11.621,10.297 -1.6181,0.44128 -3.2362,1.1768 -4.7072,2.0594 -1.471,0.88263 -2.5007,2.5007 -2.7949,4.1188 l -1.0297,6.6195 h 28.096 l 39.864,-36.922 -45.013,-70.461 -8.0905,-13.239 -0.7355,-4.1188 -5.0014,-23.536 -6.3253,-32.215 -6.7667,-53.839 c 6.6195,3.6775 12.209,8.826 16.475,15.004 l 8.9731,12.651 c 2.2065,2.7949 3.8246,6.0311 4.8543,9.4145 l 10.738,37.216 c 3.2362,7.0608 8.9731,12.651 16.328,15.593 2.6478,1.0297 5.4427,1.6181 8.2376,1.6181 1.6181,0 2.942,-0.14712 4.413,-0.44132 4.8543,-0.88263 8.2376,-5.1485 8.2376,-10.15 0,-4.1188 -2.5007,-7.9434 -6.4724,-9.5616 -1.6181,-0.7355 -3.3833,-1.6181 -4.7072,-2.7949 -2.5007,-2.2065 -4.1188,-5.1485 -4.413,-8.3848 l -4.8543,-43.836 c -0.1471,-3.3833 -1.3239,-6.6195 -3.3833,-9.1202 l -24.566,-29.567 -22.801,-25.448 c -3.9717,-4.5601 -8.826,-8.5319 -14.269,-11.474 l -20.888,-11.474 c -1.471,-1.3239 -2.7949,-2.6478 -3.9717,-4.1188 -2.5007,-3.3833 -2.942,-7.7963 -1.1768,-11.474 l 10.738,-22.359 c 1.9123,-2.942 3.0891,-6.1782 3.2362,-9.5616 0.1471,-1.3239 0.1471,-2.5007 0.1471,-3.8246 0,-12.798 -4.5601,-25.301 -12.945,-35.157 -3.3833,-4.1188 -8.0906,-7.0608 -13.386,-8.2377 -3.8246,-0.88261 -7.5022,-1.3239 -11.474,-1.3239 -13.386,0 -26.331,5.4427 -35.893,15.004 -2.7949,2.942 -4.413,6.6195 -4.413,10.591 l -0.2942,14.563 v 0.58839 c 0,1.0297 0.1471,2.0594 0.44128,3.0891 l 7.7964,24.419 c 0.58841,0.88261 1.1768,1.7652 1.7652,2.5007 4.5601,5.1485 9.5616,9.7087 15.004,13.533 1.471,1.1768 2.5007,3.0891 2.5007,5.1485 0,1.6181 -0.7355,3.2362 -1.9123,4.413 -3.0891,2.942 -6.1782,6.0312 -9.2673,9.2674 -7.0608,7.355 -12.356,16.034 -15.593,25.301 l -7.2079,20.888 -12.651,36.481 -9.2674,0.7355 c -0.8826,-2.5007 -2.3536,-4.7072 -4.5601,-6.1782 l -0.7355,-0.5884 c 3.8246,-20.3 5.7369,-40.453 5.7369,-60.9 v -7.5021 l -0.2942,-11.621 c -0.29419,-2.942 -1.471,-5.884 -3.5304,-7.9434 -2.942,-2.942 -6.0311,-6.3253 -8.9731,-9.7086 -10.15,-11.768 -21.624,-22.506 -33.98,-32.215 -5.0014,-3.9717 -10.444,-8.2376 -15.887,-12.356 -9.2674,-7.208 -17.358,-11.474 -25.89,-14.269 l -12.651,-4.1188 c -2.2065,-1.471 -4.1188,-3.3833 -5.5898,-5.5898 -3.0891,-4.413 -2.0594,-10.591 2.5007,-13.68 8.6789,-6.0311 12.062,-8.3848 15.298,-10.738 1.0297,-0.5884 3.8246,-4.413 5.0014,-8.679 1.1768,-3.6775 2.0594,-7.355 2.6478,-11.033 0.4413,-3.6775 0.7355,-7.5021 0.7355,-11.18 0,-11.327 -2.6478,-22.359 -7.6492,-32.362 -3.6775,-7.355 -11.18,-11.915 -19.417,-11.915 h -0.58841 c -5.7369,0 -11.768,0 -17.505,-0.1471 h -1.1768 c -2.2065,0 -4.1188,0.1471 -6.1782,0.5884 3.2362,-0.7355 0.58841,-0.1471 -1.9123,0.44131 -10.738,2.3536 -14.71,4.1188 -18.388,6.4724 -2.5007,1.6181 -4.413,3.6775 -6.0311,6.0311 -1.0297,1.471 -2.0594,2.7949 -3.2362,3.9717 -2.3536,2.3536 -3.5304,5.4427 -3.6775,8.826 l -0.4413,25.596 v 1.9123 c 0,6.3253 1.1768,12.504 3.8246,18.24 1.1768,2.942 3.2362,5.4427 5.884,7.0608 2.942,1.9123 5.5898,3.6775 8.2377,5.7369 1.9123,1.3239 3.2362,3.6775 3.5304,6.3253 v 1.0297 c 0,5.5898 -3.3833,10.444 -8.5318,12.356 -3.3833,1.0297 -6.6195,2.5007 -9.7086,3.9717 -3.0891,1.471 -6.6195,3.0891 -10.15,4.8543 -3.2362,1.3239 -6.0311,3.0891 -8.679,4.8543 -2.942,2.0594 -5.2956,4.7072 -6.9137,7.6492 l -42.953,78.552 -41.188,29.42 c -5.1485,4.1188 -10.591,7.9434 -16.328,11.327 -2.942,1.7652 -5.4427,4.1188 -7.355,7.0608 C 5.14711,258.15981 5,259.04241 5,259.92501 c 0,1.3239 0.29421,2.3536 1.0297,3.3833 3.6775,4.413 8.0906,8.2376 13.239,11.033 2.6478,1.6181 5.7369,2.3536 8.826,2.5007 h 0.4413 c 3.5304,0 6.4724,-2.6478 6.7666,-6.3253 l 0.4413,-6.6195 c -0.2942,-1.1768 0.2942,-2.3536 1.471,-2.7949 l 51.044,-16.77 26.919,-34.127 c -5.4427,13.975 -11.768,28.243 -18.829,41.924 -8.3848,16.475 -19.27,31.038 -32.362,43.542 l -3.9717,3.8246 c 10.886,10.15 23.389,18.388 36.922,24.272 l 3.6775,1.6181 c -5.884,11.915 -9.5616,25.007 -10.886,38.54 -0.5884,5.5898 -1.0297,11.327 -1.3239,17.211 -0.58841,9.8558 -2.0594,19.564 -4.413,29.273 -1.9123,7.5021 -4.1188,15.004 -6.6196,22.506 -1.471,4.5601 -4.1188,8.679 -7.5021,12.062 -4.5601,4.2659 -9.7087,7.7964 -15.446,10.15 -9.4144,3.8246 -19.417,6.1782 -29.714,7.0608 -2.0594,0.29419 -3.8246,0.58841 -5.5898,1.3239 -2.0594,0.88263 -3.9717,2.0594 -5.884,3.2362 -1.7652,1.471 -2.942,3.2362 -3.3833,5.4428 l -1.1768,5.884 81.2,17.064 c 4.7072,-4.1188 7.5021,-10.003 7.5021,-16.328 v -0.58841 c -0.1471,-4.7072 -0.29421,-9.5616 -0.58841,-14.563 -0.4413,-5.7369 0.88261,-10.297 3.6775,-14.122 6.4724,-9.2674 12.356,-17.946 17.946,-26.772 5.884,-9.2674 10.444,-20.153 13.092,-31.627 1.6181,-7.208 2.5007,-14.71 2.5007,-22.212 0,-4.8543 0.7355,-9.8558 2.0594,-14.71 1.0297,-4.1188 3.0891,-7.9434 6.0311,-11.033 l 3.3833,-3.8246 c 10.15,2.3536 20.447,3.3833 30.744,3.3833 h 3.2362 l 4.413,-0.1471 v 1.1768 c 0,8.9732 1.7652,17.799 5.2956,26.184 4.8543,11.768 10.444,23.389 16.917,34.274 3.6775,6.3253 6.3253,13.68 7.6492,21.33 0.8826,6.0311 1.9123,11.768 3.2362,17.358 0.2942,1.471 0.58841,3.0891 0.58841,4.5601 0,1.9123 -0.2942,3.6775 -0.8826,5.5898 -1.1768,4.2659 -3.6775,7.9434 -7.355,10.297 -4.1188,2.7949 -8.826,5.7369 -13.533,8.5318 -5.2956,2.942 -10.003,6.7666 -14.122,11.18 -1.7652,1.7652 -2.6478,4.1188 -2.6478,6.4724 v 3.2362 h 78.993 c 0.88263,-3.0891 1.3239,-6.3254 1.3239,-9.5616 0,-5.0014 -1.0297,-10.003 -2.942,-14.563 l -6.3253,-14.857 c -1.471,-2.5007 -2.2065,-5.2956 -2.5007,-8.2376 l -1.9123,-23.242 -0.4413,-11.768 -0.1471,-10.003 c 0.14711,-1.1768 0.14711,-2.3536 0.14711,-3.3833 0,-3.5304 -0.4413,-7.0608 -1.1768,-10.591 -0.58839,-2.6478 -1.1768,-5.4428 -1.7652,-8.2377 -0.88261,-4.413 -2.3536,-8.3847 -4.5601,-12.062 -4.2659,-7.208 -6.7666,-15.298 -7.208,-23.683 l -0.2942,-6.7666 c 16.328,-4.1188 32.068,-11.033 46.337,-20.153 l 4.7072,-2.942 -12.062,-20.153 -8.2376,-17.064 -13.828,-33.833 -7.7964,-24.124 -9.4145,-36.775 41.482,25.007 c 1.1768,1.1768 1.9123,2.5007 2.0594,3.9717 l 2.6478,20.594 1.0297,11.915 0.5884,16.622 c 0.1471,1.0297 0.1471,2.0594 0.1471,3.0891 0,2.6478 -0.44128,5.2956 -1.3239,7.7963 -1.471,3.6775 -2.5007,7.7963 -2.942,11.915 v 1.0297 c 0,1.9123 0.58838,3.8246 1.7652,5.4428 3.2362,4.413 7.6493,7.9434 12.651,10.297 0.58841,0.1471 1.1768,0.29419 1.9123,0.29419 0.58841,0 1.471,-0.1471 2.0594,-0.58841 0.73554,-0.44128 1.6181,-0.58841 2.5007,-0.44128 0.7355,0.1471 1.3239,0.1471 2.0594,0.1471 h 0.44132 c 1.1768,0 2.5007,0.29419 3.5304,0.7355 9.1203,3.8246 18.976,5.884 28.979,5.884 h 4.5601 l 15.151,-32.509 c 0.8826,10.297 1.3239,20.447 1.3239,30.45 0,13.239 -0.7355,26.478 -2.2065,39.717 -0.8826,8.2377 -2.6478,15.887 -5.4427,23.389 l -3.3833,8.8261 -5.884,17.652 -9.1202,32.804 -4.8543,17.211 c -2.2065,3.5304 -5.2956,6.7667 -8.826,8.9732 -2.5007,1.6181 -5.0014,2.7949 -7.6492,3.8246 -2.7949,1.0297 -5.884,2.0594 -8.9731,3.0891 l -9.5616,3.0891 c -2.5007,1.0297 -4.1188,3.3833 -4.413,6.0312 l -0.8826,6.9137 62.077,11.18 16.328,-52.809 7.355,-21.182 3.0891,-7.355 12.356,-25.448 14.563,-26.772 z" />
</svg>
