<?xml version="1.0" encoding="UTF-8" standalone="no"?>
<svg
   xmlns:dc="http://purl.org/dc/elements/1.1/"
   xmlns:cc="http://creativecommons.org/ns#"
   xmlns:rdf="http://www.w3.org/1999/02/22-rdf-syntax-ns#"
   xmlns:svg="http://www.w3.org/2000/svg"
   xmlns="http://www.w3.org/2000/svg"
   xmlns:sodipodi="http://sodipodi.sourceforge.net/DTD/sodipodi-0.dtd"
   xmlns:inkscape="http://www.inkscape.org/namespaces/inkscape"
   height="519.63287"
   width="520.70801"
   inkscape:version="1.0 (4035a4fb49, 2020-05-01)"
   sodipodi:docname="hakilo.svg"
   id="svg5084"
   version="1.1"
   viewBox="0 0 520.70801 519.63287">
  <metadata
     id="metadata5090">
    <rdf:RDF>
      <cc:Work
         rdf:about="">
        <dc:format>image/svg+xml</dc:format>
        <dc:type
           rdf:resource="http://purl.org/dc/dcmitype/StillImage" />
        <dc:title></dc:title>
      </cc:Work>
    </rdf:RDF>
  </metadata>
  <defs
     id="defs5088" />
  <sodipodi:namedview
     fit-margin-bottom="5"
     fit-margin-right="5"
     fit-margin-left="5"
     lock-margins="true"
     fit-margin-top="5"
     inkscape:current-layer="svg5084"
     inkscape:window-maximized="1"
     inkscape:window-y="0"
     inkscape:window-x="0"
     inkscape:cy="270.05235"
     inkscape:cx="237.65651"
     inkscape:zoom="1.1429901"
     showgrid="false"
     id="namedview5086"
     inkscape:window-height="1016"
     inkscape:window-width="1920"
     inkscape:pageshadow="2"
     inkscape:pageopacity="0"
     guidetolerance="10"
     gridtolerance="10"
     objecttolerance="10"
     borderopacity="1"
     bordercolor="#666666"
     pagecolor="#ffffff" />
  <g
     transform="translate(3.94717,3.9291)"
     style="fill:#0f4c5c;fill-opacity:1;stroke:none"
     id="g5082"
     stroke="#000">
    <g
       style="fill:#0f4c5c;fill-opacity:1;stroke:none"
       id="g5056"
       stroke-linejoin="round"
       stroke-linecap="round">
      <path
         style="fill:#0f4c5c;fill-opacity:1;stroke:none"
         id="path5050"
         stroke-width="2.125"
         d="m 320.01,1.0709 c 0,0 -103.9,45.744 -125.44,40.844 -3.1272,-0.71138 -5.4528,-0.52249 -7.0938,0.34375 l -11,-15.312 -19.906,15.219 9.7812,13.562 c -66.891,34.753 -118.47,19.456 -164.47,-13.969 0.00609,0.05269 0.025146,0.10359 0.03125,0.15625 -0.28008,-0.20136 -0.56422,-0.39062 -0.84375,-0.59375 12.022,104.21 69.308,184.39 171.88,240.53 -6.1e-4,-0.0104 5.8e-4,-0.0208 0,-0.0312 0.2821,0.15518 0.56094,0.31393 0.84375,0.46875 -3.3092,-57.748 -6.4491,-115.42 42.062,-157.56 l 7.5625,10.5 20.5,-14.375 -11.688,-16.25 c 1.1008,-1.2002 1.994,-2.9442 2.625,-5.312499 6.2007,-23.276 85.156,-98.219 85.156,-98.219 z" />
      <path
         style="fill:#0f4c5c;fill-opacity:1;stroke:none"
         id="path5052"
         stroke-width="4"
         d="M 142.76,16.914 157.593,6.298 c 0.94978,-0.67975 1.9413,-0.9101 2.223,-0.51642 l 351.87,491.66 c 0.28177,0.39365 -0.25613,1.2579 -1.206,1.9376 l -14.833,10.616 c -0.94977,0.67975 -1.9412,0.9101 -2.223,0.51642 l -351.87,-491.66 c -0.28172,-0.39368 0.25606,-1.2579 1.2059,-1.9376 z" />
      <path
         style="fill:#0f4c5c;fill-opacity:1;stroke:none"
         id="path5054"
         stroke-width="0"
         d="M 142.76,16.914 157.593,6.298 c 0.94978,-0.67975 1.9413,-0.9101 2.223,-0.51642 l 351.87,491.66 c 0.28177,0.39365 -0.25613,1.2579 -1.206,1.9376 l -14.833,10.616 c -0.94977,0.67975 -1.9412,0.9101 -2.223,0.51642 l -351.87,-491.66 c -0.28172,-0.39368 0.25606,-1.2579 1.2059,-1.9376 z" />
    </g>
    <g
       style="fill:#0f4c5c;fill-opacity:1;stroke:none"
       id="g5080"
       stroke-width="0">
      <path
         style="fill:#0f4c5c;fill-opacity:1;stroke:none"
         id="path5058"
         d="M 216.87,123.83 C 167.289,166.051 170.441,224.15 173.774,282.3 71.204,226.155 13.914,145.98 1.894,41.76 48.101,75.337 99.913,90.624 167.244,55.255" />
      <path
         style="fill:#0f4c5c;fill-opacity:1;stroke:none"
         id="path5060"
         stroke-linejoin="round"
         stroke-linecap="round"
         d="m 320.01,1.0771 c 0,0 -78.949,74.936 -85.15,98.212 -4.9847,18.711 -26.314,-1.8119 -37.445,-17.657 -11.131,-15.8451 -21.745,-44.018 -2.8636,-39.723 21.542,4.9002 125.46,-40.832 125.46,-40.832 z" />
      <path
         style="fill:#0f4c5c;fill-opacity:1;stroke:none"
         id="path5062"
         d="m 156.58,42.154 19.896,-15.227 67.441,93.931 -20.484,14.389" />
      <path
         style="fill:#0f4c5c;fill-opacity:1;stroke:none"
         id="path5064"
         d="m 214.42,118.27 9.8831,11.995" />
      <path
         style="fill:#0f4c5c;fill-opacity:1;stroke:none"
         id="path5066"
         d="m 1.8877,41.763 c 12.021,104.21 69.323,184.4 171.89,240.54 -0.31799,-5.556 -0.63959,-11.109 -0.90878,-16.649 -87.886,-52.034 -139.72,-123.2 -155.51,-213.5 -5.2339,-3.2086 -10.386,-6.6922 -15.471,-10.387 z" />
      <rect
         style="fill:#0f4c5c;fill-opacity:1;stroke:none"
         id="rect5068"
         stroke-linejoin="round"
         stroke-linecap="round"
         ry="1.3959"
         rx="3.7553"
         height="211.42999"
         width="20"
         y="-205.03"
         x="98.075996"
         transform="matrix(0.3414,-0.23982,0.23139,0.32939,174.23,150.92)" />
      <path
         style="fill:#0f4c5c;fill-opacity:1;stroke:none"
         id="path5070"
         d="m 179.01,132.16 c -29.249,24.91 -27.376,59.203 -25.398,93.528 -60.537,-33.162 -94.363,-80.499 -101.48,-142.01 27.274,19.828 57.851,28.863 97.578,8.0008" />
      <path
         style="fill:#0f4c5c;fill-opacity:1;stroke:none"
         id="path5072"
         d="m 163.78,137.43 c -22.829,19.443 -21.368,46.209 -19.823,73 C 96.708,184.547 70.306,147.6 64.751,99.59 c 21.288,15.476 45.153,22.528 76.161,6.2447" />
      <rect
         style="fill:#0f4c5c;fill-opacity:1;stroke:none"
         id="rect5074"
         stroke-linejoin="round"
         stroke-linecap="round"
         ry="1.3959"
         rx="3.7553"
         height="211.42999"
         width="20"
         y="-143.2"
         x="402.79999"
         transform="matrix(0.26686,-0.18746,0.29604,0.42143,107.86,168.64)" />
      <path
         style="fill:#0f4c5c;fill-opacity:1;stroke:none"
         id="path5076"
         d="m 1.0576,41.322 c 12.022,104.21 69.323,184.4 171.89,240.54 -0.0774,-1.3516 -0.15933,-2.7051 -0.23637,-4.0563 -98.338,-55.122 -154.05,-132.88 -167.12,-233.27 -1.5181,-1.0556 -3.0325,-2.1228 -4.5384,-3.2171 z" />
      <rect
         style="fill:#0f4c5c;fill-opacity:1;stroke:none"
         id="rect5078"
         stroke-linejoin="round"
         stroke-linecap="round"
         ry="1.3959"
         rx="3.7553"
         height="211.42999"
         width="20"
         y="-135.73"
         x="402.79999"
         transform="matrix(0.26686,-0.18746,0.30639,0.43615,90.5,176.19)" />
    </g>
  </g>
</svg>
