<?xml version="1.0" encoding="UTF-8" standalone="no"?>
<svg
   xmlns:dc="http://purl.org/dc/elements/1.1/"
   xmlns:cc="http://creativecommons.org/ns#"
   xmlns:rdf="http://www.w3.org/1999/02/22-rdf-syntax-ns#"
   xmlns:svg="http://www.w3.org/2000/svg"
   xmlns="http://www.w3.org/2000/svg"
   xmlns:sodipodi="http://sodipodi.sourceforge.net/DTD/sodipodi-0.dtd"
   xmlns:inkscape="http://www.inkscape.org/namespaces/inkscape"
   inkscape:version="1.0 (4035a4fb49, 2020-05-01)"
   sodipodi:docname="infano.svg"
   id="svg34"
   viewBox="0 0 83.547838 87.066934"
   version="1.1"
   height="24.572269mm"
   width="23.578615mm">
  <metadata
     id="metadata40">
    <rdf:RDF>
      <cc:Work
         rdf:about="">
        <dc:format>image/svg+xml</dc:format>
        <dc:type
           rdf:resource="http://purl.org/dc/dcmitype/StillImage" />
        <dc:title></dc:title>
      </cc:Work>
    </rdf:RDF>
  </metadata>
  <defs
     id="defs38" />
  <sodipodi:namedview
     inkscape:current-layer="svg34"
     inkscape:window-maximized="1"
     inkscape:window-y="0"
     inkscape:window-x="0"
     inkscape:cy="-47.703445"
     inkscape:cx="125.07479"
     inkscape:zoom="1.5673742"
     fit-margin-bottom="5"
     fit-margin-right="5"
     fit-margin-left="5"
     lock-margins="true"
     fit-margin-top="5"
     showgrid="false"
     id="namedview36"
     inkscape:window-height="704"
     inkscape:window-width="1366"
     inkscape:pageshadow="2"
     inkscape:pageopacity="0"
     guidetolerance="10"
     gridtolerance="10"
     objecttolerance="10"
     borderopacity="1"
     bordercolor="#666666"
     pagecolor="#ffffff" />
  <g
     style="fill:#5f0f40;fill-opacity:1;stroke:none"
     id="g4"
     transform="translate(6.1216522,-212.30384)">
    <path
       style="fill:#5f0f40;fill-opacity:1;stroke:none"
       id="path2"
       stroke-width="0.3728"
       stroke="#000000"
       d="m 41.909,232.34 c -1.6446,2.828 -3.2682,8.5399 -1.6202,11.835 1.6446,3.2987 2.1414,6.0562 3.1693,6.0562 1.0279,0 -1.6338,2.0148 -2.045,2.7209 -0.41114,0.70601 0,0 -3.7784,0.14497 -2.878,-1.6513 -11.736,-3.2094 -14.614,-1.3268 -2.8815,1.8867 -4.3205,7.7741 -3.9093,9.4214 0.41114,1.6474 1.1568,5.1495 3.087,6.3581 1.0174,1.9545 0.65852,5.1894 -1.6864,3.538 -0.66201,-2.0662 -3.8466,-3.9927 -3.6654,-1.3761 -1.2613,-0.37495 -2.2752,-0.15157 -2.9477,0.48264 -0.8397,0.82566 -1.6202,5.9831 -1.9825,7.8419 -0.42159,1.9266 0.1986,2.1539 1.0209,3.0992 0.82576,0.94134 0.72123,-1.3801 1.324,-2.481 0.66201,-1.5117 1.5366,-3.2309 1.7421,-3.2309 0.0418,0 0.59232,0.80571 1.0244,1.1009 -1.0244,3.3027 3.6654,6.6732 2.2822,1.6514 2.1045,1.5795 3.8501,1.9306 4.9302,2.2696 2.2613,0.70601 3.8268,0.43379 5.3791,-1.5169 3.2424,-3.8228 3.2024,-9.6011 2.7227,-10.044 -0.15718,-0.14505 4.8649,-1.0959 7.3283,-1.3711 1.8501,0.47068 2.8344,5.1777 3.8622,6.119 1.7108,1.783 4.2438,6.4498 5.8919,7.1558 1.6446,0.70602 5.1044,0.57837 5.31,0.57837 0.21602,0.19546 2.8118,0.35899 1.8501,-2.118 -0.53309,-0.15555 -1.979,-0.40685 -3.2543,-0.86955 3.0069,-1.5117 -0.35888,-1.6513 -1.7421,-1.1687 -1.3763,-3.3506 -5.1184,-8.9627 -4.9128,-9.8961 0.20906,-0.94136 2.4899,-4.7462 3.0487,-8.9587 0,0 0.41318,-2.1078 0.98997,-4.0163 l 0.3692,-1.2216 c 0.31843,-1.2693 0.94864,-0.21725 1.8442,8.7e-4 1.8117,0.44226 1.2111,0.44526 2.448,0.20993 1.2334,-0.23534 4.087,-4.0964 4.087,-7.1558 0,-3.0634 -0.94424,-6.0589 -0.12196,-7.7062 0.82228,-1.6513 -1.2613,-6.1267 -4.087,-7.3632 -2.878,-1.1767 -11.697,-1.5875 -13.345,1.2365 z" />
  </g>
</svg>
