<?xml version="1.0" encoding="UTF-8" standalone="no"?>
<svg
   xmlns:dc="http://purl.org/dc/elements/1.1/"
   xmlns:cc="http://creativecommons.org/ns#"
   xmlns:rdf="http://www.w3.org/1999/02/22-rdf-syntax-ns#"
   xmlns:svg="http://www.w3.org/2000/svg"
   xmlns="http://www.w3.org/2000/svg"
   xmlns:sodipodi="http://sodipodi.sourceforge.net/DTD/sodipodi-0.dtd"
   xmlns:inkscape="http://www.inkscape.org/namespaces/inkscape"
   height="1266.5084"
   width="1176.1573"
   inkscape:version="1.0 (4035a4fb49, 2020-05-01)"
   sodipodi:docname="kaldrono.svg"
   id="svg252"
   version="1.1"
   viewBox="0 0 1176.1573 1266.5084">
  <metadata
     id="metadata256">
    <rdf:RDF>
      <cc:Work
         rdf:about="">
        <dc:format>image/svg+xml</dc:format>
        <dc:type
           rdf:resource="http://purl.org/dc/dcmitype/StillImage" />
        <dc:title></dc:title>
      </cc:Work>
    </rdf:RDF>
  </metadata>
  <sodipodi:namedview
     fit-margin-bottom="10"
     fit-margin-right="10"
     fit-margin-left="10"
     lock-margins="true"
     fit-margin-top="10"
     inkscape:current-layer="svg252"
     inkscape:window-maximized="1"
     inkscape:window-y="0"
     inkscape:window-x="0"
     inkscape:cy="525.53709"
     inkscape:cx="503.2916"
     inkscape:zoom="0.35920714"
     showgrid="false"
     id="namedview254"
     inkscape:window-height="1016"
     inkscape:window-width="1920"
     inkscape:pageshadow="2"
     inkscape:pageopacity="0"
     guidetolerance="10"
     gridtolerance="10"
     objecttolerance="10"
     borderopacity="1"
     bordercolor="#666666"
     pagecolor="#ffffff" />
  <defs
     id="defs102">
    <radialGradient
       gradientUnits="userSpaceOnUse"
       gradientTransform="matrix(2,0,0,-2,480,3200)"
       r="45.973"
       cy="1238.6"
       cx="636.5"
       id="v">
      <stop
         id="stop2"
         offset="0"
         stop-color="#fff" />
      <stop
         id="stop4"
         offset="1" />
    </radialGradient>
    <radialGradient
       gradientUnits="userSpaceOnUse"
       gradientTransform="matrix(2,0,0,-2,480,3200)"
       r="45.973"
       cy="1238.6"
       cx="163.5"
       id="u">
      <stop
         id="stop7"
         offset="0"
         stop-color="#fff" />
      <stop
         id="stop9"
         offset="1" />
    </radialGradient>
    <radialGradient
       gradientUnits="userSpaceOnUse"
       gradientTransform="matrix(-1.302,-0.0116,0.018,-2,1098.8,2947.36)"
       r="164.36"
       cy="1017"
       cx="431.60999"
       id="t">
      <stop
         id="stop12"
         offset="0"
         stop-color="#fff" />
      <stop
         id="stop14"
         offset=".0347"
         stop-color="#E2E6E2" />
      <stop
         id="stop16"
         offset=".0984"
         stop-color="#B3BCB3" />
      <stop
         id="stop18"
         offset=".1677"
         stop-color="#889788" />
      <stop
         id="stop20"
         offset=".2411"
         stop-color="#637663" />
      <stop
         id="stop22"
         offset=".3197"
         stop-color="#455B45" />
      <stop
         id="stop24"
         offset=".4052"
         stop-color="#2B452B" />
      <stop
         id="stop26"
         offset=".5"
         stop-color="#183418" />
      <stop
         id="stop28"
         offset=".6096"
         stop-color="#0A280A" />
      <stop
         id="stop30"
         offset=".7468"
         stop-color="#022102" />
      <stop
         id="stop32"
         offset="1"
         stop-color="#001F00" />
    </radialGradient>
    <radialGradient
       gradientUnits="userSpaceOnUse"
       gradientTransform="matrix(-2,-0.018,0.018,-2,2063.7,3208)"
       r="382.25"
       cy="1241.3"
       cx="474.85001"
       id="s">
      <stop
         id="stop35"
         offset=".1154"
         stop-color="#666565" />
      <stop
         id="stop37"
         offset=".1583"
         stop-color="#5B5A5A" />
      <stop
         id="stop39"
         offset=".3621"
         stop-color="#2A2929" />
      <stop
         id="stop41"
         offset=".5172"
         stop-color="#0B0B0B" />
      <stop
         id="stop43"
         offset=".6044" />
      <stop
         id="stop45"
         offset=".684"
         stop-color="#0F0F0F" />
      <stop
         id="stop47"
         offset=".837"
         stop-color="#363636" />
      <stop
         id="stop49"
         offset="1"
         stop-color="#666" />
    </radialGradient>
    <radialGradient
       gradientUnits="userSpaceOnUse"
       gradientTransform="matrix(-2,-0.018,0.018,-2,2063.7,3208)"
       r="201.17999"
       cy="1295.3"
       cx="494.67999"
       id="q">
      <stop
         id="stop52"
         offset="0"
         stop-color="#fff" />
      <stop
         id="stop54"
         offset="1" />
    </radialGradient>
    <radialGradient
       gradientUnits="userSpaceOnUse"
       gradientTransform="matrix(-2,-0.018,0.017,-1.8794,2064.2,3057.6)"
       r="239.94"
       cy="1197.1"
       cx="423.29001"
       id="r">
      <stop
         id="stop57"
         offset="0"
         stop-color="#343434" />
      <stop
         id="stop59"
         offset="1" />
    </radialGradient>
    <filter
       color-interpolation-filters="sRGB"
       id="m">
      <feGaussianBlur
         id="feGaussianBlur62"
         stdDeviation="10.69 11.21"
         result="blur" />
    </filter>
    <filter
       color-interpolation-filters="sRGB"
       id="n">
      <feGaussianBlur
         id="feGaussianBlur65"
         stdDeviation="10.69 11.21"
         result="blur" />
    </filter>
    <radialGradient
       cy="0.51953"
       cx="0.49608999"
       id="w">
      <stop
         id="stop68"
         offset="0"
         stop-opacity=".99609"
         stop-color="#7fff00" />
      <stop
         id="stop70"
         offset="1"
         stop-opacity=".99609"
         stop-color="#00ff7f" />
    </radialGradient>
    <radialGradient
       id="a">
      <stop
         id="stop73"
         offset="0"
         stop-opacity=".98047"
         stop-color="#008400" />
      <stop
         id="stop75"
         offset="0"
         stop-opacity=".98828"
         stop-color="#008900" />
      <stop
         id="stop77"
         offset=".14453"
         stop-opacity=".98828"
         stop-color="#008700" />
      <stop
         id="stop79"
         offset=".30078"
         stop-opacity=".98828"
         stop-color="#008900" />
      <stop
         id="stop81"
         offset=".46484"
         stop-opacity=".99219"
         stop-color="#00a000" />
      <stop
         id="stop83"
         offset=".73047"
         stop-opacity=".96484"
         stop-color="#00c400" />
      <stop
         id="stop85"
         offset=".79688"
         stop-opacity=".98828"
         stop-color="#00d100" />
      <stop
         id="stop87"
         offset=".85938"
         stop-opacity=".97656"
         stop-color="#00d800" />
      <stop
         id="stop89"
         offset=".90234"
         stop-opacity=".97266"
         stop-color="#00bf00" />
      <stop
         id="stop91"
         offset=".96094"
         stop-opacity=".97266"
         stop-color="#090" />
      <stop
         id="stop93"
         offset="1"
         stop-opacity=".99609"
         stop-color="#007f00" />
    </radialGradient>
    <filter
       height="2"
       width="2"
       y="-0.5"
       x="-0.5"
       id="o">
      <feGaussianBlur
         id="feGaussianBlur96"
         stdDeviation="8.7"
         in="SourceGraphic" />
    </filter>
    <filter
       height="2"
       width="2"
       y="-0.5"
       x="-0.5"
       id="p">
      <feGaussianBlur
         id="feGaussianBlur99"
         stdDeviation="6.5"
         in="SourceGraphic" />
    </filter>
  </defs>
  <path
     id="path104"
     fill="#001500"
     d="m 1019.9887,718.39148 c -6.978,0 -13.496,-1.58 -15.88,-4.094 -3.002,-3.158 1.678,-6.598 10.45,-7.68 45.204,-5.572 77.882,-15.644 97.136,-29.94 29.41,-21.836 27.59,-54.776 -4.876,-88.116 -9.0341,-9.278 -17.536,-10.862 -20.772,-11.114 -13.226,-1.022 -38.268,8.422 -54.818,14.676 -22.626,8.544 -42.16404,15.926 -63.47204,13.528 -8.848,-0.998 -13.78,-4.388 -11.016,-7.578 2.576,-2.968 10.914,-4.712 19.192,-4.136 6.4041,-0.87 21.13,-6.432 31.00004,-10.162 25.57,-9.66 54.558,-20.606 86.182,-18.152 19.616,1.524 34.458,7.714 45.382,18.934 10.826,11.12 24.322,28.48 27.136,48.042 2.738,19.028 -5.25,35.632 -23.74,49.36 -23.3,17.302 -62.49,29.45 -116.47,36.104 -1.76,0.26 -3.6,0.36 -5.4,0.36 z" />
  <path
     id="path106"
     fill="#001500"
     d="m 156.16866,718.39148 c 6.978,0 13.496,-1.58 15.88,-4.094 3.002,-3.158 -1.678,-6.598 -10.45,-7.68 -45.204,-5.572 -77.882001,-15.644 -97.136001,-29.94 -29.41,-21.836 -27.59,-54.776 4.876,-88.116 9.034,-9.278 17.536,-10.862 20.772,-11.114 13.226001,-1.022 38.268001,8.422 54.818001,14.676 22.626,8.544 42.164,15.926 63.472,13.528 8.848,-0.998 13.78,-4.388 11.016,-7.578 -2.576,-2.968 -10.914,-4.712 -19.192,-4.136 -6.404,-0.87 -21.13,-6.432 -31,-10.162 -25.57,-9.66 -54.558,-20.606 -86.182001,-18.152 -19.616,1.524 -34.458,7.714 -45.382,18.934 -10.826,11.12 -24.322,28.48 -27.136,48.042 -2.7380004,19.028 5.25,35.632 23.74,49.36 23.3,17.302 62.49,29.45 116.470001,36.104 1.76,0.26 3.6,0.36 5.4,0.36 z" />
  <path
     style="opacity:1;fill:#0f4c5c;fill-opacity:1"
     id="path108"
     opacity=".8"
     fill="url(#v)"
     d="m 1019.9887,718.39148 c -6.978,0 -13.496,-1.58 -15.88,-4.094 -3.002,-3.158 1.678,-6.598 10.45,-7.68 45.204,-5.572 77.882,-15.644 97.136,-29.94 29.41,-21.836 27.59,-54.776 -4.876,-88.116 -9.0341,-9.278 -17.536,-10.862 -20.772,-11.114 -13.226,-1.022 -38.268,8.422 -54.818,14.676 -22.626,8.544 -42.16404,15.926 -63.47204,13.528 -8.848,-0.998 -13.78,-4.388 -11.016,-7.578 2.576,-2.968 10.914,-4.712 19.192,-4.136 6.4041,-0.87 21.13,-6.432 31.00004,-10.162 25.57,-9.66 54.558,-20.606 86.182,-18.152 19.616,1.524 34.458,7.714 45.382,18.934 10.826,11.12 24.322,28.48 27.136,48.042 2.738,19.028 -5.25,35.632 -23.74,49.36 -23.3,17.302 -62.49,29.45 -116.47,36.104 -1.76,0.26 -3.6,0.36 -5.4,0.36 z" />
  <path
     style="opacity:1;fill:#0f4c5c;fill-opacity:1"
     id="path110"
     opacity=".8"
     fill="url(#u)"
     d="m 156.16866,718.39148 c 6.978,0 13.496,-1.58 15.88,-4.094 3.002,-3.158 -1.678,-6.598 -10.45,-7.68 -45.204,-5.572 -77.882001,-15.644 -97.136001,-29.94 -29.41,-21.836 -27.59,-54.776 4.876,-88.116 9.034,-9.278 17.536,-10.862 20.772,-11.114 13.226001,-1.022 38.268001,8.422 54.818001,14.676 22.626,8.544 42.164,15.926 63.472,13.528 8.848,-0.998 13.78,-4.388 11.016,-7.578 -2.576,-2.968 -10.914,-4.712 -19.192,-4.136 -6.404,-0.87 -21.13,-6.432 -31,-10.162 -25.57,-9.66 -54.558,-20.606 -86.182001,-18.152 -19.616,1.524 -34.458,7.714 -45.382,18.934 -10.826,11.12 -24.322,28.48 -27.136,48.042 -2.7380004,19.028 5.25,35.632 23.74,49.36 23.3,17.302 62.49,29.45 116.470001,36.104 1.76,0.26 3.6,0.36 5.4,0.36 z" />
  <path
     d="M 575.08163,367.51367 C 324.49089,366.95974 122.60561,404.5507 122.29061,452.54882 l -0.002,0.002 c -0.19,50.806 22.93286,60.96883 63.04688,81.79882 0.74573,0.38634 1.52313,0.77282 2.32421,1.15821 -90.747008,78.11951 -124.704312,190.92841 -126.130857,314.94336 -0.0013,0.11373 0.0012,0.22615 0,0.33984 -6.28e-4,0.0582 6e-4,0.11569 0,0.17383 -0.02414,2.14262 -0.02437,4.27613 -0.0098,6.4043 0.0033,0.41989 0.01083,0.83848 0.01563,1.25781 0.02293,2.19303 0.06506,4.37911 0.128906,6.55664 4.434711,151.24667 107.201251,264.97557 258.937501,325.03707 13.66624,36.2736 125.80839,65.3102 262.42773,66.2637 136.63156,0.9513 249.38687,-26.4663 263.92188,-62.5234 138.20645,-52.2787 237.49701,-148.8765 261.32621,-278.42776 0.034,-0.18593 0.067,-0.37251 0.1015,-0.5586 0.3267,-1.79367 0.6379,-3.59412 0.9356,-5.40039 0.1133,-0.68305 0.2267,-1.36593 0.3359,-2.05078 0.1984,-1.25337 0.386,-2.51212 0.5703,-3.77148 0.339,-2.29724 0.6534,-4.60478 0.9454,-6.92188 0.029,-0.23546 0.063,-0.46941 0.092,-0.70507 0.2147,-1.73543 0.4111,-3.47813 0.5996,-5.22461 1.1649,-10.79713 1.8408,-21.79706 1.9707,-33.00977 1.4216,-126.82769 -32.3279,-239.58389 -126.32623,-318.08203 0.13509,-0.0668 0.28012,-0.13225 0.41406,-0.19922 39.11807,-19.58 59.67247,-23.50294 61.81447,-80.46094 1.7159,-48.77 -206.5997,-89.77412 -462.6797,-91.57812 -4.00156,-0.0281 -7.99112,-0.0479 -11.96875,-0.0566 z m -17.29492,49.66211 c 6.18824,-0.003 12.41601,0.0127 18.68164,0.0488 200.48,1.227 362.73971,22.28152 362.40039,50.72852 -0.41,28.432 -163.23102,50.55262 -363.79102,49.32422 C 374.60231,516.08237 212.41571,491.96165 212.78866,463.5625 v -0.002 c 0.33906,-27.56093 153.16255,-46.29269 344.99805,-46.38476 z"
     style="fill:#0f4c5c;fill-opacity:1"
     id="path112" />
  <g
     style="fill:none;fill-opacity:1;stroke:#0f4c5c;stroke-width:10.6564;stroke-miterlimit:4;stroke-dasharray:none;stroke-opacity:0"
     id="g250"
     transform="matrix(0.4692,0,0,0.4692,774.82866,295.94148)">
    <circle
       style="fill:none;fill-opacity:1;stroke:#0f4c5c;stroke-width:70.4931;stroke-miterlimit:4;stroke-dasharray:none;stroke-opacity:0"
       id="circle244"
       fill="url(#a)"
       r="772.46002"
       cy="800"
       cx="1280"
       transform="scale(0.15117)" />
    <path
       style="fill:none;fill-opacity:1;stroke:#0f4c5c;stroke-width:70.4931;stroke-miterlimit:4;stroke-dasharray:none;stroke-opacity:0"
       id="path246"
       filter="url(#n)"
       fill="#fff"
       d="M 901.09,658.32 C 861.086,779.63 890.9,883.91 839.191,955 c -51.709,71.09 -103.14,135.95 -142.04,123.13 -38.902,-12.829 -57.906,-73.612 -57.183,-161.51 0.723,-87.898 21.171,-202.92 61.175,-324.23 40.004,-121.31 91.988,-225.93 143.7,-297.02 51.709,-71.088 103.14,-108.64 142.04,-95.814 38.9,12.826 57.906,73.612 57.183,161.51 -0.723,87.898 -102.97,175.95 -142.97,297.26 z"
       transform="scale(0.15117)" />
    <ellipse
       style="fill:none;fill-opacity:1;stroke:#0f4c5c;stroke-width:70.4917;stroke-miterlimit:4;stroke-dasharray:none;stroke-opacity:0"
       id="ellipse248"
       filter="url(#m)"
       fill="#fff"
       ry="104.14"
       rx="62"
       cy="1191.7"
       cx="856.25"
       transform="matrix(0.14203,-0.051776,0.051776,0.14203,-53.876,55.236)" />
  </g>
  <g
     transform="matrix(1.3070729,0,0,1.3070729,-502.76344,-55.42694)"
     id="g1135">
    <path
       id="path1131"
       d="m 763.7832,212.72852 c -24.90609,0 -45.13867,20.23257 -45.13867,45.13867 0,24.90609 20.23258,45.13867 45.13867,45.13867 24.9061,0 45.14063,-20.23258 45.14063,-45.13867 0,-24.9061 -20.23453,-45.13868 -45.14063,-45.13867 z m 0,4 c 22.74434,-1e-5 41.14063,18.39433 41.14063,41.13867 0,22.74433 -18.39629,41.13867 -41.14063,41.13867 -22.74433,0 -41.13867,-18.39434 -41.13867,-41.13867 0,-22.74434 18.39434,-41.13867 41.13867,-41.13867 z"
       style="color:#000000;font-style:normal;font-variant:normal;font-weight:normal;font-stretch:normal;font-size:medium;line-height:normal;font-family:sans-serif;font-variant-ligatures:normal;font-variant-position:normal;font-variant-caps:normal;font-variant-numeric:normal;font-variant-alternates:normal;font-variant-east-asian:normal;font-feature-settings:normal;font-variation-settings:normal;text-indent:0;text-align:start;text-decoration:none;text-decoration-line:none;text-decoration-style:solid;text-decoration-color:#000000;letter-spacing:normal;word-spacing:normal;text-transform:none;writing-mode:lr-tb;direction:ltr;text-orientation:mixed;dominant-baseline:auto;baseline-shift:baseline;text-anchor:start;white-space:normal;shape-padding:0;shape-margin:0;inline-size:0;clip-rule:nonzero;display:inline;overflow:visible;visibility:visible;opacity:1;isolation:auto;mix-blend-mode:normal;color-interpolation:sRGB;color-interpolation-filters:linearRGB;solid-color:#000000;solid-opacity:1;vector-effect:none;fill:#0f4c5c;fill-opacity:1;fill-rule:nonzero;stroke:#ffffff;stroke-width:1;stroke-linecap:butt;stroke-linejoin:miter;stroke-miterlimit:4;stroke-dasharray:none;stroke-dashoffset:0;stroke-opacity:1;color-rendering:auto;image-rendering:auto;shape-rendering:auto;text-rendering:auto;enable-background:accumulate;stop-color:#000000;stop-opacity:1" />
    <path
       d="m 746.56836,224.19531 c -2.04461,-0.0242 -4.55913,2.01646 -7.08594,5.49024 -2.88794,3.97014 -5.7913,9.81312 -8.02539,16.58789 -2.23409,6.77476 -3.37564,13.1986 -3.41601,18.10742 -0.0404,4.90882 1.02081,8.30307 3.19336,9.01953 2.17243,0.71596 5.04386,-2.90681 7.93164,-6.87695 2.88777,-3.97015 1.22293,-9.7936 3.45703,-16.56836 2.23387,-6.77477 7.94399,-11.69275 7.98437,-16.60156 0.0404,-4.90882 -1.02092,-8.30325 -3.19336,-9.01954 -0.27155,-0.0895 -0.55361,-0.13521 -0.8457,-0.13867 z m -7.7832,49.96094 a 5.8159939,3.462566 69.971039 0 0 -0.65821,0.12695 5.8159939,3.462566 69.971039 0 0 -1.26172,6.64844 5.8159939,3.462566 69.971039 0 0 5.2461,4.2793 5.8159939,3.462566 69.971039 0 0 1.25976,-6.65039 5.8159939,3.462566 69.971039 0 0 -4.58593,-4.4043 z"
       style="fill:#0f4c5c;fill-opacity:1;stroke:#ffffff;stroke-width:2;stroke-miterlimit:4;stroke-dasharray:none;stroke-opacity:1"
       id="path1133" />
  </g>
  <g
     transform="matrix(1.5161675,0,0,1.5161675,-864.89422,-71.77399)"
     id="g1147">
    <path
       id="path1143"
       d="m 763.7832,212.72852 c -24.90609,0 -45.13867,20.23257 -45.13867,45.13867 0,24.90609 20.23258,45.13867 45.13867,45.13867 24.9061,0 45.14063,-20.23258 45.14063,-45.13867 0,-24.9061 -20.23453,-45.13868 -45.14063,-45.13867 z m 0,4 c 22.74434,-1e-5 41.14063,18.39433 41.14063,41.13867 0,22.74433 -18.39629,41.13867 -41.14063,41.13867 -22.74433,0 -41.13867,-18.39434 -41.13867,-41.13867 0,-22.74434 18.39434,-41.13867 41.13867,-41.13867 z"
       style="color:#000000;font-style:normal;font-variant:normal;font-weight:normal;font-stretch:normal;font-size:medium;line-height:normal;font-family:sans-serif;font-variant-ligatures:normal;font-variant-position:normal;font-variant-caps:normal;font-variant-numeric:normal;font-variant-alternates:normal;font-variant-east-asian:normal;font-feature-settings:normal;font-variation-settings:normal;text-indent:0;text-align:start;text-decoration:none;text-decoration-line:none;text-decoration-style:solid;text-decoration-color:#000000;letter-spacing:normal;word-spacing:normal;text-transform:none;writing-mode:lr-tb;direction:ltr;text-orientation:mixed;dominant-baseline:auto;baseline-shift:baseline;text-anchor:start;white-space:normal;shape-padding:0;shape-margin:0;inline-size:0;clip-rule:nonzero;display:inline;overflow:visible;visibility:visible;opacity:1;isolation:auto;mix-blend-mode:normal;color-interpolation:sRGB;color-interpolation-filters:linearRGB;solid-color:#000000;solid-opacity:1;vector-effect:none;fill:#0f4c5c;fill-opacity:1;fill-rule:nonzero;stroke:#ffffff;stroke-width:1;stroke-linecap:butt;stroke-linejoin:miter;stroke-miterlimit:4;stroke-dasharray:none;stroke-dashoffset:0;stroke-opacity:1;color-rendering:auto;image-rendering:auto;shape-rendering:auto;text-rendering:auto;enable-background:accumulate;stop-color:#000000;stop-opacity:1" />
    <path
       d="m 746.56836,224.19531 c -2.04461,-0.0242 -4.55913,2.01646 -7.08594,5.49024 -2.88794,3.97014 -5.7913,9.81312 -8.02539,16.58789 -2.23409,6.77476 -3.37564,13.1986 -3.41601,18.10742 -0.0404,4.90882 1.02081,8.30307 3.19336,9.01953 2.17243,0.71596 5.04386,-2.90681 7.93164,-6.87695 2.88777,-3.97015 1.22293,-9.7936 3.45703,-16.56836 2.23387,-6.77477 7.94399,-11.69275 7.98437,-16.60156 0.0404,-4.90882 -1.02092,-8.30325 -3.19336,-9.01954 -0.27155,-0.0895 -0.55361,-0.13521 -0.8457,-0.13867 z m -7.7832,49.96094 a 5.8159939,3.462566 69.971039 0 0 -0.65821,0.12695 5.8159939,3.462566 69.971039 0 0 -1.26172,6.64844 5.8159939,3.462566 69.971039 0 0 5.2461,4.2793 5.8159939,3.462566 69.971039 0 0 1.25976,-6.65039 5.8159939,3.462566 69.971039 0 0 -4.58593,-4.4043 z"
       style="fill:#0f4c5c;fill-opacity:1;stroke:#ffffff;stroke-width:2;stroke-miterlimit:4;stroke-dasharray:none;stroke-opacity:1"
       id="path1145" />
  </g>
  <g
     transform="matrix(1.5063277,0,0,1.5063277,-637.82782,-269.6857)"
     id="g1159">
    <path
       id="path1155"
       d="m 763.7832,212.72852 c -24.90609,0 -45.13867,20.23257 -45.13867,45.13867 0,24.90609 20.23258,45.13867 45.13867,45.13867 24.9061,0 45.14063,-20.23258 45.14063,-45.13867 0,-24.9061 -20.23453,-45.13868 -45.14063,-45.13867 z m 0,4 c 22.74434,-1e-5 41.14063,18.39433 41.14063,41.13867 0,22.74433 -18.39629,41.13867 -41.14063,41.13867 -22.74433,0 -41.13867,-18.39434 -41.13867,-41.13867 0,-22.74434 18.39434,-41.13867 41.13867,-41.13867 z"
       style="color:#000000;font-style:normal;font-variant:normal;font-weight:normal;font-stretch:normal;font-size:medium;line-height:normal;font-family:sans-serif;font-variant-ligatures:normal;font-variant-position:normal;font-variant-caps:normal;font-variant-numeric:normal;font-variant-alternates:normal;font-variant-east-asian:normal;font-feature-settings:normal;font-variation-settings:normal;text-indent:0;text-align:start;text-decoration:none;text-decoration-line:none;text-decoration-style:solid;text-decoration-color:#000000;letter-spacing:normal;word-spacing:normal;text-transform:none;writing-mode:lr-tb;direction:ltr;text-orientation:mixed;dominant-baseline:auto;baseline-shift:baseline;text-anchor:start;white-space:normal;shape-padding:0;shape-margin:0;inline-size:0;clip-rule:nonzero;display:inline;overflow:visible;visibility:visible;opacity:1;isolation:auto;mix-blend-mode:normal;color-interpolation:sRGB;color-interpolation-filters:linearRGB;solid-color:#000000;solid-opacity:1;vector-effect:none;fill:#0f4c5c;fill-opacity:1;fill-rule:nonzero;stroke:#ffffff;stroke-width:1;stroke-linecap:butt;stroke-linejoin:miter;stroke-miterlimit:4;stroke-dasharray:none;stroke-dashoffset:0;stroke-opacity:1;color-rendering:auto;image-rendering:auto;shape-rendering:auto;text-rendering:auto;enable-background:accumulate;stop-color:#000000;stop-opacity:1" />
    <path
       d="m 746.56836,224.19531 c -2.04461,-0.0242 -4.55913,2.01646 -7.08594,5.49024 -2.88794,3.97014 -5.7913,9.81312 -8.02539,16.58789 -2.23409,6.77476 -3.37564,13.1986 -3.41601,18.10742 -0.0404,4.90882 1.02081,8.30307 3.19336,9.01953 2.17243,0.71596 5.04386,-2.90681 7.93164,-6.87695 2.88777,-3.97015 1.22293,-9.7936 3.45703,-16.56836 2.23387,-6.77477 7.94399,-11.69275 7.98437,-16.60156 0.0404,-4.90882 -1.02092,-8.30325 -3.19336,-9.01954 -0.27155,-0.0895 -0.55361,-0.13521 -0.8457,-0.13867 z m -7.7832,49.96094 a 5.8159939,3.462566 69.971039 0 0 -0.65821,0.12695 5.8159939,3.462566 69.971039 0 0 -1.26172,6.64844 5.8159939,3.462566 69.971039 0 0 5.2461,4.2793 5.8159939,3.462566 69.971039 0 0 1.25976,-6.65039 5.8159939,3.462566 69.971039 0 0 -4.58593,-4.4043 z"
       style="fill:#0f4c5c;fill-opacity:1;stroke:#ffffff;stroke-width:2;stroke-miterlimit:4;stroke-dasharray:none;stroke-opacity:1"
       id="path1157" />
  </g>
  <g
     id="g1177"
     transform="matrix(1.3070729,0,0,1.3070729,-322.76344,84.57306)">
    <path
       style="color:#000000;font-style:normal;font-variant:normal;font-weight:normal;font-stretch:normal;font-size:medium;line-height:normal;font-family:sans-serif;font-variant-ligatures:normal;font-variant-position:normal;font-variant-caps:normal;font-variant-numeric:normal;font-variant-alternates:normal;font-variant-east-asian:normal;font-feature-settings:normal;font-variation-settings:normal;text-indent:0;text-align:start;text-decoration:none;text-decoration-line:none;text-decoration-style:solid;text-decoration-color:#000000;letter-spacing:normal;word-spacing:normal;text-transform:none;writing-mode:lr-tb;direction:ltr;text-orientation:mixed;dominant-baseline:auto;baseline-shift:baseline;text-anchor:start;white-space:normal;shape-padding:0;shape-margin:0;inline-size:0;clip-rule:nonzero;display:inline;overflow:visible;visibility:visible;opacity:1;isolation:auto;mix-blend-mode:normal;color-interpolation:sRGB;color-interpolation-filters:linearRGB;solid-color:#000000;solid-opacity:1;vector-effect:none;fill:#0f4c5c;fill-opacity:1;fill-rule:nonzero;stroke:#ffffff;stroke-width:1;stroke-linecap:butt;stroke-linejoin:miter;stroke-miterlimit:4;stroke-dasharray:none;stroke-dashoffset:0;stroke-opacity:1;color-rendering:auto;image-rendering:auto;shape-rendering:auto;text-rendering:auto;enable-background:accumulate;stop-color:#000000;stop-opacity:1"
       d="m 763.7832,212.72852 c -24.90609,0 -45.13867,20.23257 -45.13867,45.13867 0,24.90609 20.23258,45.13867 45.13867,45.13867 24.9061,0 45.14063,-20.23258 45.14063,-45.13867 0,-24.9061 -20.23453,-45.13868 -45.14063,-45.13867 z m 0,4 c 22.74434,-1e-5 41.14063,18.39433 41.14063,41.13867 0,22.74433 -18.39629,41.13867 -41.14063,41.13867 -22.74433,0 -41.13867,-18.39434 -41.13867,-41.13867 0,-22.74434 18.39434,-41.13867 41.13867,-41.13867 z"
       id="path1173" />
    <path
       id="path1175"
       style="fill:#0f4c5c;fill-opacity:1;stroke:#ffffff;stroke-width:2;stroke-miterlimit:4;stroke-dasharray:none;stroke-opacity:1"
       d="m 746.56836,224.19531 c -2.04461,-0.0242 -4.55913,2.01646 -7.08594,5.49024 -2.88794,3.97014 -5.7913,9.81312 -8.02539,16.58789 -2.23409,6.77476 -3.37564,13.1986 -3.41601,18.10742 -0.0404,4.90882 1.02081,8.30307 3.19336,9.01953 2.17243,0.71596 5.04386,-2.90681 7.93164,-6.87695 2.88777,-3.97015 1.22293,-9.7936 3.45703,-16.56836 2.23387,-6.77477 7.94399,-11.69275 7.98437,-16.60156 0.0404,-4.90882 -1.02092,-8.30325 -3.19336,-9.01954 -0.27155,-0.0895 -0.55361,-0.13521 -0.8457,-0.13867 z m -7.7832,49.96094 a 5.8159939,3.462566 69.971039 0 0 -0.65821,0.12695 5.8159939,3.462566 69.971039 0 0 -1.26172,6.64844 5.8159939,3.462566 69.971039 0 0 5.2461,4.2793 5.8159939,3.462566 69.971039 0 0 1.25976,-6.65039 5.8159939,3.462566 69.971039 0 0 -4.58593,-4.4043 z" />
  </g>
  <g
     id="g1183"
     transform="matrix(1.5161675,0,0,1.5161675,-704.89422,48.22601)">
    <path
       style="color:#000000;font-style:normal;font-variant:normal;font-weight:normal;font-stretch:normal;font-size:medium;line-height:normal;font-family:sans-serif;font-variant-ligatures:normal;font-variant-position:normal;font-variant-caps:normal;font-variant-numeric:normal;font-variant-alternates:normal;font-variant-east-asian:normal;font-feature-settings:normal;font-variation-settings:normal;text-indent:0;text-align:start;text-decoration:none;text-decoration-line:none;text-decoration-style:solid;text-decoration-color:#000000;letter-spacing:normal;word-spacing:normal;text-transform:none;writing-mode:lr-tb;direction:ltr;text-orientation:mixed;dominant-baseline:auto;baseline-shift:baseline;text-anchor:start;white-space:normal;shape-padding:0;shape-margin:0;inline-size:0;clip-rule:nonzero;display:inline;overflow:visible;visibility:visible;opacity:1;isolation:auto;mix-blend-mode:normal;color-interpolation:sRGB;color-interpolation-filters:linearRGB;solid-color:#000000;solid-opacity:1;vector-effect:none;fill:#0f4c5c;fill-opacity:1;fill-rule:nonzero;stroke:#ffffff;stroke-width:1;stroke-linecap:butt;stroke-linejoin:miter;stroke-miterlimit:4;stroke-dasharray:none;stroke-dashoffset:0;stroke-opacity:1;color-rendering:auto;image-rendering:auto;shape-rendering:auto;text-rendering:auto;enable-background:accumulate;stop-color:#000000;stop-opacity:1"
       d="m 763.7832,212.72852 c -24.90609,0 -45.13867,20.23257 -45.13867,45.13867 0,24.90609 20.23258,45.13867 45.13867,45.13867 24.9061,0 45.14063,-20.23258 45.14063,-45.13867 0,-24.9061 -20.23453,-45.13868 -45.14063,-45.13867 z m 0,4 c 22.74434,-1e-5 41.14063,18.39433 41.14063,41.13867 0,22.74433 -18.39629,41.13867 -41.14063,41.13867 -22.74433,0 -41.13867,-18.39434 -41.13867,-41.13867 0,-22.74434 18.39434,-41.13867 41.13867,-41.13867 z"
       id="path1179" />
    <path
       id="path1181"
       style="fill:#0f4c5c;fill-opacity:1;stroke:#ffffff;stroke-width:2;stroke-miterlimit:4;stroke-dasharray:none;stroke-opacity:1"
       d="m 746.56836,224.19531 c -2.04461,-0.0242 -4.55913,2.01646 -7.08594,5.49024 -2.88794,3.97014 -5.7913,9.81312 -8.02539,16.58789 -2.23409,6.77476 -3.37564,13.1986 -3.41601,18.10742 -0.0404,4.90882 1.02081,8.30307 3.19336,9.01953 2.17243,0.71596 5.04386,-2.90681 7.93164,-6.87695 2.88777,-3.97015 1.22293,-9.7936 3.45703,-16.56836 2.23387,-6.77477 7.94399,-11.69275 7.98437,-16.60156 0.0404,-4.90882 -1.02092,-8.30325 -3.19336,-9.01954 -0.27155,-0.0895 -0.55361,-0.13521 -0.8457,-0.13867 z m -7.7832,49.96094 a 5.8159939,3.462566 69.971039 0 0 -0.65821,0.12695 5.8159939,3.462566 69.971039 0 0 -1.26172,6.64844 5.8159939,3.462566 69.971039 0 0 5.2461,4.2793 5.8159939,3.462566 69.971039 0 0 1.25976,-6.65039 5.8159939,3.462566 69.971039 0 0 -4.58593,-4.4043 z" />
  </g>
  <g
     id="g1189"
     transform="matrix(1.5063277,0,0,1.5063277,-317.82782,-149.6857)">
    <path
       style="color:#000000;font-style:normal;font-variant:normal;font-weight:normal;font-stretch:normal;font-size:medium;line-height:normal;font-family:sans-serif;font-variant-ligatures:normal;font-variant-position:normal;font-variant-caps:normal;font-variant-numeric:normal;font-variant-alternates:normal;font-variant-east-asian:normal;font-feature-settings:normal;font-variation-settings:normal;text-indent:0;text-align:start;text-decoration:none;text-decoration-line:none;text-decoration-style:solid;text-decoration-color:#000000;letter-spacing:normal;word-spacing:normal;text-transform:none;writing-mode:lr-tb;direction:ltr;text-orientation:mixed;dominant-baseline:auto;baseline-shift:baseline;text-anchor:start;white-space:normal;shape-padding:0;shape-margin:0;inline-size:0;clip-rule:nonzero;display:inline;overflow:visible;visibility:visible;opacity:1;isolation:auto;mix-blend-mode:normal;color-interpolation:sRGB;color-interpolation-filters:linearRGB;solid-color:#000000;solid-opacity:1;vector-effect:none;fill:#0f4c5c;fill-opacity:1;fill-rule:nonzero;stroke:#ffffff;stroke-width:1;stroke-linecap:butt;stroke-linejoin:miter;stroke-miterlimit:4;stroke-dasharray:none;stroke-dashoffset:0;stroke-opacity:1;color-rendering:auto;image-rendering:auto;shape-rendering:auto;text-rendering:auto;enable-background:accumulate;stop-color:#000000;stop-opacity:1"
       d="m 763.7832,212.72852 c -24.90609,0 -45.13867,20.23257 -45.13867,45.13867 0,24.90609 20.23258,45.13867 45.13867,45.13867 24.9061,0 45.14063,-20.23258 45.14063,-45.13867 0,-24.9061 -20.23453,-45.13868 -45.14063,-45.13867 z m 0,4 c 22.74434,-1e-5 41.14063,18.39433 41.14063,41.13867 0,22.74433 -18.39629,41.13867 -41.14063,41.13867 -22.74433,0 -41.13867,-18.39434 -41.13867,-41.13867 0,-22.74434 18.39434,-41.13867 41.13867,-41.13867 z"
       id="path1185" />
    <path
       id="path1187"
       style="fill:#0f4c5c;fill-opacity:1;stroke:#ffffff;stroke-width:2;stroke-miterlimit:4;stroke-dasharray:none;stroke-opacity:1"
       d="m 746.56836,224.19531 c -2.04461,-0.0242 -4.55913,2.01646 -7.08594,5.49024 -2.88794,3.97014 -5.7913,9.81312 -8.02539,16.58789 -2.23409,6.77476 -3.37564,13.1986 -3.41601,18.10742 -0.0404,4.90882 1.02081,8.30307 3.19336,9.01953 2.17243,0.71596 5.04386,-2.90681 7.93164,-6.87695 2.88777,-3.97015 1.22293,-9.7936 3.45703,-16.56836 2.23387,-6.77477 7.94399,-11.69275 7.98437,-16.60156 0.0404,-4.90882 -1.02092,-8.30325 -3.19336,-9.01954 -0.27155,-0.0895 -0.55361,-0.13521 -0.8457,-0.13867 z m -7.7832,49.96094 a 5.8159939,3.462566 69.971039 0 0 -0.65821,0.12695 5.8159939,3.462566 69.971039 0 0 -1.26172,6.64844 5.8159939,3.462566 69.971039 0 0 5.2461,4.2793 5.8159939,3.462566 69.971039 0 0 1.25976,-6.65039 5.8159939,3.462566 69.971039 0 0 -4.58593,-4.4043 z" />
  </g>
  <g
     transform="matrix(1.5063277,0,0,1.5063277,-477.82782,-149.6857)"
     id="g1195">
    <path
       id="path1191"
       d="m 763.7832,212.72852 c -24.90609,0 -45.13867,20.23257 -45.13867,45.13867 0,24.90609 20.23258,45.13867 45.13867,45.13867 24.9061,0 45.14063,-20.23258 45.14063,-45.13867 0,-24.9061 -20.23453,-45.13868 -45.14063,-45.13867 z m 0,4 c 22.74434,-1e-5 41.14063,18.39433 41.14063,41.13867 0,22.74433 -18.39629,41.13867 -41.14063,41.13867 -22.74433,0 -41.13867,-18.39434 -41.13867,-41.13867 0,-22.74434 18.39434,-41.13867 41.13867,-41.13867 z"
       style="color:#000000;font-style:normal;font-variant:normal;font-weight:normal;font-stretch:normal;font-size:medium;line-height:normal;font-family:sans-serif;font-variant-ligatures:normal;font-variant-position:normal;font-variant-caps:normal;font-variant-numeric:normal;font-variant-alternates:normal;font-variant-east-asian:normal;font-feature-settings:normal;font-variation-settings:normal;text-indent:0;text-align:start;text-decoration:none;text-decoration-line:none;text-decoration-style:solid;text-decoration-color:#000000;letter-spacing:normal;word-spacing:normal;text-transform:none;writing-mode:lr-tb;direction:ltr;text-orientation:mixed;dominant-baseline:auto;baseline-shift:baseline;text-anchor:start;white-space:normal;shape-padding:0;shape-margin:0;inline-size:0;clip-rule:nonzero;display:inline;overflow:visible;visibility:visible;opacity:1;isolation:auto;mix-blend-mode:normal;color-interpolation:sRGB;color-interpolation-filters:linearRGB;solid-color:#000000;solid-opacity:1;vector-effect:none;fill:#0f4c5c;fill-opacity:1;fill-rule:nonzero;stroke:#ffffff;stroke-width:1;stroke-linecap:butt;stroke-linejoin:miter;stroke-miterlimit:4;stroke-dasharray:none;stroke-dashoffset:0;stroke-opacity:1;color-rendering:auto;image-rendering:auto;shape-rendering:auto;text-rendering:auto;enable-background:accumulate;stop-color:#000000;stop-opacity:1" />
    <path
       d="m 746.56836,224.19531 c -2.04461,-0.0242 -4.55913,2.01646 -7.08594,5.49024 -2.88794,3.97014 -5.7913,9.81312 -8.02539,16.58789 -2.23409,6.77476 -3.37564,13.1986 -3.41601,18.10742 -0.0404,4.90882 1.02081,8.30307 3.19336,9.01953 2.17243,0.71596 5.04386,-2.90681 7.93164,-6.87695 2.88777,-3.97015 1.22293,-9.7936 3.45703,-16.56836 2.23387,-6.77477 7.94399,-11.69275 7.98437,-16.60156 0.0404,-4.90882 -1.02092,-8.30325 -3.19336,-9.01954 -0.27155,-0.0895 -0.55361,-0.13521 -0.8457,-0.13867 z m -7.7832,49.96094 a 5.8159939,3.462566 69.971039 0 0 -0.65821,0.12695 5.8159939,3.462566 69.971039 0 0 -1.26172,6.64844 5.8159939,3.462566 69.971039 0 0 5.2461,4.2793 5.8159939,3.462566 69.971039 0 0 1.25976,-6.65039 5.8159939,3.462566 69.971039 0 0 -4.58593,-4.4043 z"
       style="fill:#0f4c5c;fill-opacity:1;stroke:#ffffff;stroke-width:2;stroke-miterlimit:4;stroke-dasharray:none;stroke-opacity:1"
       id="path1193" />
  </g>
</svg>
