<?xml version="1.0" encoding="UTF-8" standalone="no"?>
<svg
   xmlns:dc="http://purl.org/dc/elements/1.1/"
   xmlns:cc="http://creativecommons.org/ns#"
   xmlns:rdf="http://www.w3.org/1999/02/22-rdf-syntax-ns#"
   xmlns:svg="http://www.w3.org/2000/svg"
   xmlns="http://www.w3.org/2000/svg"
   xmlns:sodipodi="http://sodipodi.sourceforge.net/DTD/sodipodi-0.dtd"
   xmlns:inkscape="http://www.inkscape.org/namespaces/inkscape"
   height="80.931694"
   width="129.97279"
   inkscape:version="1.0 (4035a4fb49, 2020-05-01)"
   sodipodi:docname="kaverno.svg"
   id="svg4"
   version="1.1"
   viewBox="0 0 129.97279 80.931694">
  <metadata
     id="metadata10">
    <rdf:RDF>
      <cc:Work
         rdf:about="">
        <dc:format>image/svg+xml</dc:format>
        <dc:type
           rdf:resource="http://purl.org/dc/dcmitype/StillImage" />
        <dc:title></dc:title>
      </cc:Work>
    </rdf:RDF>
  </metadata>
  <defs
     id="defs8" />
  <sodipodi:namedview
     fit-margin-bottom="4"
     fit-margin-right="4"
     fit-margin-left="4"
     lock-margins="true"
     fit-margin-top="4"
     inkscape:current-layer="svg4"
     inkscape:window-maximized="1"
     inkscape:window-y="0"
     inkscape:window-x="0"
     inkscape:cy="42.587112"
     inkscape:cx="40.559314"
     inkscape:zoom="4.2862129"
     inkscape:snap-global="false"
     showgrid="false"
     id="namedview6"
     inkscape:window-height="1016"
     inkscape:window-width="1920"
     inkscape:pageshadow="2"
     inkscape:pageopacity="0"
     guidetolerance="10"
     gridtolerance="10"
     objecttolerance="10"
     borderopacity="1"
     bordercolor="#666666"
     pagecolor="#ffffff" />
  <path
     d="m 59.955219,4.0000514 c -2.642419,0.01053 -5.109466,1.6417 -7.326172,3.582031 -2.798,2.4217996 -5.64385,5.1623496 -9.28125,6.2187496 -7.1159,2.573 -10.80655,8.7527 -15.21875,14.8125 -3.0114,4.2826 -6.59825,8.4166 -8.59375,13.1875 -0.9093,1.5589 -3.0512,5.0532 -5.4375,8.125 -1.8549,2.3573 -3.7319,4.97045 -6.3749999,6.46875 l -0.09375,-0.1875 c 2.3629,-1.6464 3.9549999,-4.60345 5.6874999,-6.90625 2.3606,-3.0386 4.61471,-6.3484 5.46875,-7.8125 2.5071,-4.6996 5.70585,-8.8841 8.90625,-13.125 1.8722,-2.5714 2.424,-4.9907 4.4375,-7.4375 -3.0894,1.6068 -6.2148,2.59842 -9.625,3.40625 -1.5243,0.5835 -3.28015,2.4273 -4.65625,3.9375 -1.3938,1.5296 -3.25,3.46755 -3.25,5.15625 l -0.125,-0.125 c 0,0 -7.2062653,12.489407 -9.001953,19.382812 -1.6472965,6.323751 -1.4648438,19.548828 -1.4648438,19.548828 l 5.6230469,1.76172 43.3984379,2.9375 72.945315,-1.17383 V 41.093801 l -1.41016,-2.347657 -0.12109,0.08594 c -0.6476,-0.943 -2.28312,-2.97852 -3.09375,-3.8125 -0.2442,-0.2512 -1.18227,4.80446 -1.4375,4.5625 -0.31738,-0.3008 0.92514,-4.74427 0.59375,-5.03125 -0.9651,-0.8358 -1.9718,-1.61677 -3,-2.34375 -1.448,-1.5586 -2.10894,-3.30625 -2.75,-4.96875 -0.6621,-1.6435 -1.1441,-2.52865 -2.4375,-3.78125 -0.296,1.5088 -1.06509,2.7479 -1.65625,4.9375 -0.67335,2.494 -1.35019,5.1149 -1.5,7.0625 0.545,4.849 -1.7574,9.217 -2.875,13.6875 l -0.21875,-0.0625 c 1.19583,-4.4871 2.57065,-9.01655 2.09375,-13.71875 0.1612,-2.0963 0.85433,-4.7428 1.53125,-7.25 0.6552,-2.427 1.29862,-4.69765 1.53125,-6.09375 -6.527,-3.9731 -14.477203,-8.14255 -22.000003,-9.65625 -0.1525,-0.0307 0.76245,2.922 2.96875,5.4375 3.9678,4.5238 11.621483,10.01318 11.343753,9.96875 -0.313,-0.0501 -7.281053,-5.072402 -11.781253,-9.625002 -2.8268,-2.8598 -3.92535,-6.07183 -4.125,-6.09375 -4.3275,-1.634 -8.7106,-2.7803396 -13.375,-3.0312496 -1.6122,-0.6077 -3.1893,-1.29507 -4.8125,-1.875 4.7783,5.7899996 7.7966,12.5199496 10.625,19.4687496 5.8638,10.973 10.34847,22.26675 10,34.96875 0.02636,0.184 -0.5639,2.55981 0.4375,3.0625 3.5471,1.7807 9.45404,2.38581 9.531253,3.125 0.0199,0.1899 -1.384453,-0.0799 -3.281253,-0.5 -0.74192,-0.1643 -0.69994,4.2861 -1.53125,4.09375 -0.33163,-0.0768 0.45808,-4.26664 0.125,-4.34375 -3.09,-0.7153 -4.81735,-1.28396 -4.8125,-1 0.0532,3.1147 1.70195,7.6032 3.21875,9.4375 l -0.59375,0.46875 c -2.0322,-3.866 -3.81204,-9.94865 -4.09375,-14.34375 0.0819,-12.677 -3.00215,-23.804 -9.46875,-34.75 v -0.03125 h -0.03125 c -1.7201,-3.826 -4.03505,-8.93985 -6.09375,-12.59375 -0.1049,-0.1861 -2.94055,3.74095 -4.84375,8.46875 -0.48108,1.1951 -0.85543,2.5116 -1.1875,3.8125 -0.0759,0.2975 1.53642,2.98212 1.46875,3.28125 -0.0927,0.4095 -1.76554,-2.62185 -1.84375,-2.21875 -0.60566,3.1215 -0.89848,6.92759 -0.96875,6.8125 -0.1192,-0.195 0.14055,-6.93085 1.90625,-12.28125 1.6674,-5.0525 4.86504,-8.72361 4.75,-8.90625 -1.2246,-1.9444 -2.59125,-3.8104496 -4.15625,-5.5312496 -1.0177,-2.08588 -2.8016,-1.99263 -4.9375,-2.53125 -1.266937,-0.788344 -2.503979,-1.11807 -3.705078,-1.113281 z M 56.285297,14.425832 h 0.002 l -1.34375,2.3125 c -0.4996,0.7374 -1.02087,1.67082 -1.625,2.5 -0.01929,0.04575 -0.04212,0.08046 -0.0625,0.125 h -0.03125 c -0.19631,0.42466 -0.44815,0.78884 -0.71875,1.125 4.1662,0.3715 10.068897,-0.2523 14.154297,-3.25 l 0.593703,0.1875 c -4.751,2.8492 -10.52385,4.42032 -15.96875,3.46875 -0.41251,0.37 -0.41916,1.12997 -0.84375,1.4375 -0.77212,0.5896 -1.67694,2.9974 -1.625,3.90625 0.6157,1.2477 0.73759,0.92215 0.9375,2.28125 1.8506,6.183 3.39057,12.46035 2.5,18.96875 0.34,6 -0.41576,11.6661 -1.125,18.0625 -0.0574,0.5177 1.223,3.13435 2.4375,4.96875 0.1348,0.20362 2.32815,0.53562 2.4375,0.75 0.1322,0.25923 -2.22,-0.18636 -2.09375,0.0625 0.83943,1.6547 1.86036,3.61313 1.8125,3.71875 l -4.34375,-6.34375 -1.75,2.5625 1.4375,-2.875 -1.25,-2.125 -9.59375,-1.40625 c -2.0768,-1.0513 -4.03875,-2.16157 -6.03125,-2.78125 -2.263,-0.44276 -4.6638,-1.06275 -6.875,-0.46875 0.02844,0.18188 0.13919,0.81273 0.09375,1 -0.7239,0.89 -1.33425,1.72124 -2.53125,1.9375 -1.8251,0.05976 -3.78545,0.28514 -5.46875,-0.375 -2.1913,-0.7832 -5.28714,-0.932 -6.1875,-3.3125 0.0764,-2.8789 1.87205,-5.30604 5.21875,-5.09375 1.4259,0.3438 2.67576,1.4427 3.53125,2.875 0.8347,0.2712 2.1645,0.71831 3.3125,1.3125 -0.39889,-0.9889 -0.56831,-2.17585 -0.625,-3.40625 -0.0078,-1.9379 0.17729,-4.78575 0.25,-6.71875 0.0125,-0.3339 -6.23477,-0.5753 -6.21875,-0.90625 0.064,-0.13867 2.0656,-0.12701 3.4375,-0.09375 0.32373,0.0078 -0.20225,-2.38337 0.125,-2.375 0.24147,0.0061 0.55038,2.40141 0.78125,2.40625 1.1754,0.02463 2.15761,0.02598 2.21875,-0.09375 3.1961,-6.259 8.5813,-10.92445 10.8125,-17.40625 0.7778,-2.1501 1.7004,-4.16123 3.875,-5.15625 1.8244,-0.7978 3.44395,-1.9589 4.71875,-3.3125 1.1948,-0.01122 1.7465,0.19208 2.46875,0.71875 0.6189,-0.9371 1.6842,-5.47435 1.28125,-7.09375 0.61223,-0.4841 -0.17588,4.11432 0.75,5 0.6154,0.5888 3.06889,-2.28752 3.28125,-2.78125 1.6892,-0.6935 2.41515,-2.9078 3.84375,-4.3125 z m -10.625,8.75 -5.46875,3.59375 c -2.0696,1.4384 -2.3426,3.3902 -3.375,5.125 l -11.1875,18.03125 -0.302734,6.779297 1.927734,4.408203 1.1875,-0.25 c -1.62634,-3.735 -1.00106,-6.90655 -1.4375,-10.34375 3.55,-5.616 6.8416,-11.8751 10.6875,-16.75 0.5266,-1.4807 0.96435,-2.9911 1.96875,-4.3125 2.468,-1.7452 4.5342,-3.69125 6.6875,-5.59375 z m -28.3125,33.46875 c -1.8496,0.5087 -3.83223,2.5063 -3.78125,4.375 1.1315,1.78212 4.1727,1.59116 6.1875,2.21875 h 0.0625 c 1.1078,0.55391 3.20235,0.32649 4.90625,0.3125 3.8122,-1.9496 -1.48495,-3.09635 -3.46875,-4.21875 -1.0358,-1.371 -2.06875,-2.63276 -3.90625,-2.6875 z m 39.9375,1.5625 c 4.373,0.0525 6.8615,3.3794 11.25,4.8125 2.478,-0.013 6.2473,-2.4025 7.6875,-1.9375 1.4402,0.465 2.5963,1.5018 4.125,3.625 2.0191,5.3653 -1.23875,7.21026 -6.53125,8.03125 -2.7419,-0.0494 -3.8208,-0.59374 -5.5625,-1.21875 -1.7417,-0.62501 -3.38185,-1.05612 -6.03125,-0.4375 h -0.09375 c -2.5473,-0.1688 -5.3334,-0.4015 -7.5625,-1.6875 -1.9726,-4.3199 -2.2541,-8.01065 1.8125,-11.15625 0.30932,-0.02729 0.61471,-0.03475 0.90625,-0.03125 z m 0.21875,0.96875 c -0.28218,0.0079 -0.57644,0.02351 -0.875,0.0625 -2.9301,2.8615 -4.24285,6.34235 -1.71875,9.90625 2.4348,0.13449 4.82825,0.88107 7.21875,0.96875 2.7696,-0.61545 4.70025,-0.16583 6.46875,0.46875 1.9439,0.71951 4.453,1.59911 6.5625,1.59375 3.88232,-0.4147 7.045,-2.8824 4.375,-6.875 -1.4823,-2.0587 -2.451,-2.9022 -3.625,-3.28125 -2.7895,1.6178 -7.439297,5.2374 -11.779297,5.71875 l -0.125,-0.125 c 8.2394,-2.3373 7.6812,-4.14485 10.125,-5.84375 -1.1731,-0.0257 -4.49575,1.75596 -5.65625,1.71875 -4.2384,-1.2257 -6.737903,-4.43142 -10.970703,-4.3125 z"
     style="fill:#fb8b24;fill-opacity:1;fill-rule:evenodd;stroke:none;stroke-width:1px;stroke-linecap:butt;stroke-linejoin:miter;stroke-opacity:1"
     id="path835" />
</svg>
