<?xml version="1.0" encoding="UTF-8" standalone="no"?>
<svg
   xmlns:dc="http://purl.org/dc/elements/1.1/"
   xmlns:cc="http://creativecommons.org/ns#"
   xmlns:rdf="http://www.w3.org/1999/02/22-rdf-syntax-ns#"
   xmlns:svg="http://www.w3.org/2000/svg"
   xmlns="http://www.w3.org/2000/svg"
   xmlns:sodipodi="http://sodipodi.sourceforge.net/DTD/sodipodi-0.dtd"
   xmlns:inkscape="http://www.inkscape.org/namespaces/inkscape"
   inkscape:version="1.0 (4035a4fb49, 2020-05-01)"
   sodipodi:docname="konkurso.ai.svg"
   viewBox="0 0 333.67242 568.50092"
   height="568.50092"
   width="333.67242"
   xml:space="preserve"
   id="svg943"
   version="1.1"><metadata
     id="metadata949"><rdf:RDF><cc:Work
         rdf:about=""><dc:format>image/svg+xml</dc:format><dc:type
           rdf:resource="http://purl.org/dc/dcmitype/StillImage" /><dc:title></dc:title></cc:Work></rdf:RDF></metadata><defs
     id="defs947"><clipPath
       id="clipPath961"
       clipPathUnits="userSpaceOnUse"><path
         id="path959"
         d="M 0,720 H 720 V 0 H 0 Z" /></clipPath><clipPath
       id="clipPath969"
       clipPathUnits="userSpaceOnUse"><path
         id="path967"
         d="M 107.602,612.398 H 612.398 V 107.602 H 107.602 Z" /></clipPath><clipPath
       id="clipPath1023"
       clipPathUnits="userSpaceOnUse"><path
         id="path1021"
         d="M 360,569.438 H 481.377 V 150.562 H 360 Z" /></clipPath></defs><sodipodi:namedview
     inkscape:current-layer="g951"
     inkscape:window-maximized="1"
     inkscape:window-y="0"
     inkscape:window-x="0"
     inkscape:cy="284.25025"
     inkscape:cx="166.83623"
     inkscape:zoom="0.48324275"
     fit-margin-bottom="5"
     fit-margin-right="5"
     fit-margin-left="5"
     lock-margins="true"
     fit-margin-top="5"
     showgrid="false"
     id="namedview945"
     inkscape:window-height="704"
     inkscape:window-width="1366"
     inkscape:pageshadow="2"
     inkscape:pageopacity="0"
     guidetolerance="10"
     gridtolerance="10"
     objecttolerance="10"
     borderopacity="1"
     bordercolor="#666666"
     pagecolor="#ffffff" /><g
     transform="matrix(1.3333333,0,0,-1.3333333,-313.16377,764.25025)"
     inkscape:label="trophy-1674911"
     inkscape:groupmode="layer"
     id="g951"><g
       style="fill:#9a031e;fill-opacity:1"
       transform="translate(370.3225,176.865)"
       id="g979"><path
         id="path981"
         style="fill:#9a031e;fill-opacity:1;fill-rule:nonzero;stroke:none"
         d="m 0,0 c 0,0 -17.252,-0.021 -22.172,1.886 -4.92,1.907 -4.434,-2.081 2.087,-3.027 6.521,-0.946 15.318,-3.877 21.614,-3.064 z" /></g><g
       style="fill:#9a031e;fill-opacity:1"
       transform="translate(367.1055,151.5633)"
       id="g983"><path
         id="path985"
         style="fill:#9a031e;fill-opacity:1;fill-rule:nonzero;stroke:none"
         d="m 0,0 c -0.04,0.517 -16.259,10.695 -17.563,14.694 -1.305,4 19.165,-15.303 19.165,-15.303 z" /></g><g
       style="fill:#9a031e;fill-opacity:1"
       transform="translate(446.4535,569.4377)"
       id="g987"><path
         id="path989"
         style="fill:#9a031e;fill-opacity:1;fill-rule:nonzero;stroke:none"
         d="m 0,0 h -86.453 -10e-4 -86.453 c 0,0 -1.218,-171.794 86.453,-180.875 v 0 h 10e-4 c 0,0 0,0 0,0 v 0 C 1.218,-171.794 0,0 0,0" /></g><g
       style="fill:#9a031e;fill-opacity:1"
       transform="translate(382.2778,378.9247)"
       id="g991"><path
         id="path993"
         style="fill:#9a031e;fill-opacity:1;fill-rule:nonzero;stroke:none"
         d="m 0,0 h -44.556 c -3.485,0 -6.337,2.852 -6.337,6.337 v 2.759 c 0,3.485 2.852,6.337 6.337,6.337 H 0 c 3.485,0 6.337,-2.852 6.337,-6.337 V 6.337 C 6.337,2.852 3.485,0 0,0" /></g><g
       style="fill:#9a031e;fill-opacity:1"
       transform="translate(372.1766,380.4787)"
       id="g995"><path
         id="path997"
         style="fill:#9a031e;fill-opacity:1;fill-rule:nonzero;stroke:none"
         d="m 0,0 -11.929,6.037 0.003,0.126 -0.125,-0.064 -0.126,0.064 L -12.185,6.032 -24.103,0 c 0,0 11.676,-101.639 -39.215,-152.384 h 40.994 7.31 54.229 C -11.676,-101.639 0,0 0,0" /></g><g
       style="fill:#9a031e;fill-opacity:1"
       transform="translate(411.507,221.7955)"
       id="g999"><path
         id="path1001"
         style="fill:#9a031e;fill-opacity:1;fill-rule:nonzero;stroke:none"
         d="m 0,0 h -103.014 c -2.2,0 -4,1.8 -4,4 v 1.741 c 0,2.2 1.8,4 4,4 H 0 c 2.2,0 4,-1.8 4,-4 V 4 C 4,1.8 2.2,0 0,0" /></g><path
       id="path1003"
       style="fill:#9a031e;fill-opacity:1;fill-rule:nonzero;stroke:none"
       d="M 427.766,158.477 H 292.234 v 66.971 h 135.532 z" /><path
       id="path1005"
       style="fill:#9a031e;fill-opacity:1;fill-rule:nonzero;stroke:none"
       d="M 435.191,150.562 H 284.81 v 14.003 h 150.381 z" /><path
       id="path1007"
       style="fill:#9a031e;fill-opacity:1;fill-rule:nonzero;stroke:none"
       d="m 408.706,170.33 h -97.413 v 48.135 h 97.413 z" /><g
       style="fill:#9a031e;fill-opacity:1"
       transform="translate(405.9612,421.5703)"
       id="g1009"><path
         id="path1011"
         style="fill:#9a031e;fill-opacity:1;fill-rule:nonzero;stroke:none"
         d="m 0,0 -1.736,9.584 c 31.049,5.626 51.78,26.473 61.615,61.961 5.687,20.516 5.945,40.325 5.719,48.925 H 22.03 v 9.741 h 52.705 l 0.369,-4.47 C 75.197,124.623 77.272,98.029 69.338,69.2 58.606,30.203 34.63,6.274 0,0" /></g><g
       style="fill:#9a031e;fill-opacity:1"
       transform="translate(314.0388,421.5703)"
       id="g1013"><path
         id="path1015"
         style="fill:#9a031e;fill-opacity:1;fill-rule:nonzero;stroke:none"
         d="m 0,0 1.736,9.584 c -31.049,5.626 -51.78,26.473 -61.615,61.961 -5.687,20.516 -5.945,40.325 -5.719,48.925 h 43.568 v 9.741 h -52.705 l -0.369,-4.47 C -75.197,124.623 -77.272,98.029 -69.338,69.2 -58.606,30.203 -34.63,6.274 0,0" /></g><g
       style="fill:#9a031e;fill-opacity:1"
       id="g1017"><g
         style="fill:#9a031e;fill-opacity:1"
         id="g1019" /><g
         style="fill:#9a031e;fill-opacity:1"
         id="g1031"><g
           style="fill:#9a031e;fill-opacity:1"
           id="g1029"
           opacity="0.0500031"
           clip-path="url(#clipPath1023)"><g
             style="fill:#9a031e;fill-opacity:1"
             id="g1027"
             transform="translate(465.8406,493.1157)"><path
               id="path1025"
               style="fill:#9a031e;fill-opacity:1;fill-rule:nonzero;stroke:none"
               d="m 0,0 c -8.14,-29.371 -23.751,-48.702 -46.489,-57.687 17.464,33.904 23.682,78.4 25.889,106.612 H 5.719 C 5.944,40.324 5.686,20.515 0,0 m 15.224,54.196 -0.368,4.47 h -34.804 c 0.606,10.891 0.561,17.656 0.561,17.656 h -86.453 -10e-4 v -418.875 h 75.191 v 14.003 h -7.425 v 60.883 h -12.433 c 0.103,0.391 0.174,0.795 0.174,1.217 0,2.679 -2.191,4.871 -4.87,4.871 h -2.513 c -43.618,47.92 -37.281,134.792 -36.103,147.388 h 8.878 c 4.244,0 7.716,3.473 7.716,7.717 0,4.244 -3.472,7.716 -7.716,7.716 h -0.144 c 12.714,6.039 22.971,16.125 31.241,28.517 31.384,7.86 53.207,31.207 63.303,67.896 7.934,28.829 5.859,55.423 5.766,56.541" /></g></g></g></g><g
       style="fill:#9a031e;fill-opacity:1"
       transform="translate(360,561.5648)"
       id="g1033"><path
         id="path1035"
         style="fill:#9a031e;fill-opacity:1;fill-rule:nonzero;stroke:none"
         d="M 0,0 13.952,-42.939 H 59.1 L 22.574,-69.476 36.526,-112.415 0,-85.878 l -36.526,-26.537 13.952,42.939 -36.526,26.537 h 45.148 z" /></g></g></svg>
