<?xml version="1.0" encoding="UTF-8" standalone="no"?>
<svg
   xmlns:dc="http://purl.org/dc/elements/1.1/"
   xmlns:cc="http://creativecommons.org/ns#"
   xmlns:rdf="http://www.w3.org/1999/02/22-rdf-syntax-ns#"
   xmlns:svg="http://www.w3.org/2000/svg"
   xmlns="http://www.w3.org/2000/svg"
   xmlns:sodipodi="http://sodipodi.sourceforge.net/DTD/sodipodi-0.dtd"
   xmlns:inkscape="http://www.inkscape.org/namespaces/inkscape"
   sodipodi:docname="kuirejo.svg"
   inkscape:version="1.0 (4035a4fb49, 2020-05-01)"
   version="1.1"
   id="svg2"
   height="1312"
   width="1516">
  <defs
     id="defs4" />
  <sodipodi:namedview
     inkscape:window-maximized="1"
     inkscape:window-y="0"
     inkscape:window-x="0"
     inkscape:window-height="704"
     inkscape:window-width="1366"
     inkscape:snap-global="false"
     inkscape:document-rotation="0"
     fit-margin-bottom="0"
     fit-margin-right="0"
     fit-margin-left="0"
     fit-margin-top="0"
     showgrid="false"
     inkscape:current-layer="layer1"
     inkscape:document-units="px"
     inkscape:cy="490.0495"
     inkscape:cx="1054.6771"
     inkscape:zoom="0.76893707"
     inkscape:pageshadow="2"
     inkscape:pageopacity="0.0"
     borderopacity="1.0"
     bordercolor="#666666"
     pagecolor="#ffffff"
     id="base" />
  <metadata
     id="metadata7">
    <rdf:RDF>
      <cc:Work
         rdf:about="">
        <dc:format>image/svg+xml</dc:format>
        <dc:type
           rdf:resource="http://purl.org/dc/dcmitype/StillImage" />
        <dc:title></dc:title>
      </cc:Work>
    </rdf:RDF>
  </metadata>
  <g
     transform="translate(-2344,520.6)"
     id="layer1"
     inkscape:groupmode="layer"
     inkscape:label="Layer 1">
    <rect
       style="fill:#fb8b24;fill-opacity:1;fill-rule:evenodd;stroke:none"
       id="rect3047"
       width="1534"
       height="672.1"
       x="2340"
       y="122" />
    <rect
       y="-0.72"
       x="2340"
       height="126"
       width="1534"
       id="rect3051"
       style="fill:#fb8b24;fill-opacity:1;fill-rule:evenodd;stroke:none" />
    <rect
       y="148.7"
       x="2340"
       height="10.67"
       width="1534"
       id="rect3053"
       style="fill:#ffffff;fill-opacity:1;fill-rule:evenodd;stroke:none" />
    <path
       transform="translate(2344,-520.6)"
       d="M 471.61523 184.48633 C 466.76152 184.48633 462.03151 184.56927 461.37891 184.73242 C 460.40001 185.05872 457.78996 185.38464 455.50586 185.71094 C 443.10646 187.66874 433.31583 191.9115 424.83203 198.4375 C 421.24273 201.0479 415.69608 206.59455 413.73828 209.53125 C 405.25448 221.60435 401.01236 234.00285 399.38086 253.25781 C 398.72826 259.45751 398.72826 295.3507 399.38086 302.5293 C 400.03346 311.3394 400.68724 318.51553 401.33984 323.73633 C 401.99244 329.60973 401.99168 329.28247 403.29688 336.13477 C 403.62317 339.07147 403.94922 341.68151 403.94922 342.00781 C 403.94922 342.33411 403.62356 342.98802 402.31836 343.64062 C 399.38166 345.27212 398.728 346.57723 400.0332 348.86133 C 400.6858 349.84023 400.68724 350.81889 401.33984 360.41211 C 401.66614 372.12628 401.66499 372.25611 404.27539 374.60547 C 405.90689 376.17171 410.14898 378.12956 413.73828 378.94531 C 419.93798 380.47892 422.87532 380.80469 432.01172 380.80469 C 441.80072 380.80469 444.4115 380.44574 450.9375 378.35742 C 454.8531 377.05222 462.03035 373.3328 464.31445 371.375 L 465.62109 370.36328 L 465.29492 364.00195 C 464.96862 360.51054 464.64075 356.00743 464.31445 353.98438 C 463.98815 351.14557 463.98815 349.84023 464.31445 348.86133 C 464.96705 346.90353 464.31548 346.25051 461.70508 344.94531 L 460.07422 343.9668 L 459.74609 341.35547 C 459.41979 339.72397 459.42005 336.13605 459.09375 332.87305 C 458.76745 329.61005 458.44153 323.40974 458.11523 319.49414 C 458.11523 315.25224 457.46289 308.40218 457.46289 303.83398 C 457.13659 299.59208 456.81068 294.04595 456.48438 291.43555 C 455.83178 282.62545 455.17969 269.24606 455.17969 264.35156 C 455.17969 255.86776 456.81122 247.71116 460.07422 240.5293 C 462.03202 236.2874 463.66291 233.67719 466.59961 230.08789 C 469.21001 226.82489 471.49299 224.86588 474.42969 223.23438 C 478.99789 220.29768 482.26162 219.32044 487.48242 218.99414 C 491.07172 218.66784 494.00887 218.99363 496.29297 220.29883 C 498.90337 221.27773 501.8392 225.84573 503.4707 230.74023 C 506.0811 238.24513 508.69297 252.93199 509.67188 266.96289 C 509.99817 269.57329 509.99792 273.16317 510.32422 275.44727 C 510.65052 279.68787 511.30273 290.78221 511.30273 298.28711 C 511.62903 300.89751 511.62878 316.23018 511.95508 331.89258 C 511.95508 360.60698 512.28099 382.46923 512.93359 404.625 C 513.58619 425.96502 513.26002 469.65746 512.60742 471.06055 C 512.28112 471.35422 511.62942 471.7462 510.32422 471.97461 C 505.42972 473.11666 496.61872 476.672 492.70312 479.34766 C 491.72422 480.00026 490.42005 480.68646 490.09375 480.84961 C 489.44115 481.17591 489.43932 481.20717 489.76562 486.33008 C 490.09193 488.94048 490.09193 490.14969 489.76562 490.44336 C 489.43932 490.67177 488.78749 490.96461 487.80859 491.0625 C 486.82969 491.19302 485.19765 491.42083 484.21875 491.58398 C 464.31445 494.71646 407.53862 497.97928 398.72852 496.02148 L 396.77148 496.02148 C 396.44518 496.34778 396.44518 499.93727 396.77148 505.48438 C 397.09778 510.37887 397.09766 515.92697 397.09766 517.88477 C 397.09766 520.82147 397.09791 520.82018 396.44531 521.14648 C 394.81381 521.79908 395.46603 524.40977 397.42383 525.38867 C 398.40273 526.04127 398.40335 526.04127 535.12305 525.38867 C 602.99345 525.06237 648.34884 524.73646 650.30664 524.41016 C 654.87484 524.08386 656.83152 523.4319 658.13672 522.7793 C 658.46302 522.453 659.4431 522.12695 660.0957 522.12695 C 661.0746 522.12695 661.40039 522.12708 661.40039 521.80078 C 661.40039 520.82188 658.46286 519.51627 653.56836 517.88477 C 651.93686 517.55847 650.30664 517.23255 650.30664 516.90625 C 649.98034 516.57995 649.00195 480.52255 649.00195 476.80273 C 649.00195 475.53016 649.00038 475.13835 648.02148 474.45312 C 647.36888 473.67 644.43267 472.6264 641.82227 472.03906 C 632.03327 469.95074 602.66663 471.06018 576.23633 474.48633 C 572.64703 474.94315 568.73098 475.43255 567.42578 475.5957 C 564.81538 475.88937 561.22551 476.44414 558.94141 476.93359 C 556.65731 477.35778 556.65884 477.3246 555.02734 476.3457 C 552.74324 474.77946 548.49997 473.3439 543.60547 472.46289 C 540.99507 471.97344 538.38489 471.48346 538.05859 471.32031 L 537.40625 471.02734 L 537.40625 441.92188 C 537.40625 375.1609 536.75403 256.19499 536.42773 247.05859 C 536.10143 239.55043 535.77578 236.61325 534.79688 231.71875 C 532.51278 218.01415 527.61831 207.89956 519.78711 200.06836 C 511.30331 191.58456 501.18715 187.34257 487.15625 185.38477 C 484.87215 185.05847 482.91419 184.73242 482.58789 184.73242 C 481.44584 184.56927 476.46895 184.48633 471.61523 184.48633 z "
       style="fill:#fb8b24;stroke-width:0.3263;fill-opacity:1"
       id="path992" />
    <path
       sodipodi:nodetypes="cccccccsccccccsc"
       id="path3105"
       d="m 2379.2307,97.752 c -5.8734,-0.9789 -8.1575,-2.2841 -6.8523,-4.2419 0.6526,-0.6526 1.3052,-0.9789 27.0829,-13.34567 12.7257,-5.8734 28.3881,-13.052 34.5878,-15.9887 35.577,-17.559637 75.4126,-35.668559 109.6368,-49.9239 11.2871,-4.8268662 8.1575,-4.2419 17.9465,-5.5471 1.6315,-0.3263 4.2419,-0.6526 6.1997,-0.9789 2.9367,-0.3263 24.1462,-0.3263 309.0061,-0.3263 289.1018,0 306.0694,0 309.3324,0.3263 1.6315,0.3263 4.8945,0.9789 7.5049,1.3052 6.526,0.9789 11.4205,2.2841 15.6624,4.2419 40.4822,19.016671 105.7641,49.303662 140.9616,65.9126 28.0618,13.01937 29.0407,13.67197 29.6933,14.32457 1.3052,1.9578 -0.9789,3.263 -7.1786,4.2419 -2.9367,0.3263 -72.7649,0.3263 -496.9549,0.3263 -387.6444,0 -494.0182,0 -496.6286,-0.3263 z m 184.6628,-87.679235 -0.8784,62.122543 -41.4179,25.613815"
       style="fill:none;stroke:#ffffff;stroke-width:4;stroke-miterlimit:4;stroke-dasharray:none" />
    <path
       sodipodi:nodetypes="cccccccccccccccccccccccccccccccscccccscccsccssccccccccccccccccccccccccccccccccccccccc"
       transform="translate(2344,-520.6)"
       d="m 1154,246.59961 c -12,0.3 -24,1.10117 -35,4.70117 -3,1.1 -7,2.19883 -8,5.29883 0,0.34845 0.04,0.68029 0.1074,1 H 1111 v 5.12305 c -0.8637,0.12873 -2.1067,0.36464 -3.498,0.67382 -21.1816,4.61912 -38.5341,13.42415 -45.6797,22.99414 -0.7656,0.81665 -1.5319,1.73504 -1.7871,1.99024 -0.5104,0.45936 -0.5104,0.51026 0,0.79102 0.09,0.0994 0.1768,0.40193 0.2558,0.91015 v 7.53711 7.73242 l 0.2539,0.16602 v 0.0976 l 0.7656,0.63672 c 2.8264,2.148 7.577,4.10578 13.754,5.7793 -2.3548,-0.585 -4.7098,-1.22522 -7.0645,-1.93164 -1,-0.5 -1,0.20117 -1,1.20117 2,15.8 4,31.69844 6,47.39844 4,23.6 9,46.80031 14,70.07031 4,17.43 9,34.73063 13,52.14063 3,11.94 6,23.81 8,35.75 1,1.174 1,2.52759 1,3.65039 0.5785,0.42312 1.2169,0.8602 1.8555,1.29492 l 0.022,0.5332 c -0.6671,-0.49814 -1.1726,-0.94858 -1.3321,-1.26758 -0.5104,-0.5104 -1.0209,10e-5 -3.8281,3.0625 -4.3384,4.3384 -8.9331,10.71776 -14.8027,20.16016 -3.5728,5.8696 -4.3374,7.65708 -7.1446,13.27148 -4.0832,7.9112 -6.8914,16.07719 -10.209,27.05079 -0.5104,1.7864 -1.0201,3.31706 -1.2753,3.57226 -0.2552,0.2552 -0.7663,1.02217 -1.0215,2.04297 -0.5104,1.0208 -0.7657,1.78523 -0.7657,4.08203 -0.2552,2.2968 0,2.55213 0.5118,3.82813 1.2139,2.22555 4.0478,4.60488 7.834,6.64257 10.5109,6.7717 32.6505,11.89458 61.0683,13.77344 2.552,0.2552 4.0846,0.50977 3.5742,0.50977 -0.7656,0 10e-5,0.25586 1.5313,0.25586 7.656,0.5104 39.5559,0.25454 36.2383,-0.25586 l -1.2774,-0.25391 h 1.2774 c 0.7656,0 4.3373,-0.25652 7.9101,-0.51172 30.1136,-2.2968 55.1246,-9.44165 60.9942,-17.09765 1.276,-1.7864 1.7851,-2.55279 1.7851,-4.08399 0,-1.0208 6e-4,-1.27475 -0.5098,-1.78515 -0.3326,-0.33269 -0.9583,-0.75591 -1.5761,-1.13477 -0.3996,-0.82601 -1.2383,-1.50652 -2.7617,-2.18359 -1.7864,-1.0208 -1.5327,3.8e-4 -3.5743,-8.16602 -2.8072,-9.9528 -5.8698,-19.64993 -8.4218,-25.51953 -4.3384,-10.4632 -10.973,-21.69242 -19.3946,-32.66602 -2.8072,-4.0832 -6.3802,-8.16667 -6.8906,-8.42187 -0.2396,0 -0.4791,-0.21859 -0.7187,-0.24609 0.3008,-0.29098 0.6014,-0.57745 0.9023,-0.87696 2,-9.08 4,-18.22039 6,-27.15039 1,-0.95 3,-0.38867 4,-0.63867 8,-0.92 16,-4.24164 22,-10.18164 9,-8.48 14,-20.33977 18,-32.00977 4,-15.36 7,-31.03984 10,-46.83984 2,-17.8 2,-36.19922 -3,-53.69922 -1,-7.1 -5,-14.40039 -11,-18.40039 -5,-2 -10,-2.69922 -16,-2.69922 1,-4.5 1,-9 1,-13.5 0.9653,-2.31675 0.9969,-4.8168 0.998,-7.14648 2.3625,-0.90776 4.5066,-1.83298 6.3536,-2.76172 l 2.2968,-1.12891 v -8.06445 -8.06445 l -1.7851,-1.66016 c -7.9112,-7.656 -19.6515,-13.77956 -34.4531,-17.96484 -3.4402,-0.98291 -10.091,-2.53034 -12.4102,-2.89649 v -2.11133 c 0.8874,-1.34103 0.5665,-3.10462 -1,-4.20117 -3,-3.2 -8,-4.20078 -13,-5.30078 -11,-2.3 -22,-2.90039 -33,-2.90039 z m 87,99.5 c 3,0.1 5,0.70039 7,2.90039 3,4.9 3,10.9 4,16.5 0,19.1 -2,38.29906 -7,56.78906 -3,9.85 -6,19.98 -12,28.25 -2,3.42 -7,6.20102 -11,6.79102 1,-8.91 3,-17.82 5,-26.75 4,-26.78 7,-53.67969 10,-80.67969 0,-1.1 0,-2.6 1,-3.5 1,-0.2 2,-0.20078 3,-0.30078 z"
       style="fill:#fb8b24;fill-opacity:1;stroke-width:4;stroke:#ffffff;stroke-miterlimit:4;stroke-dasharray:none"
       id="path3983" />
    <g
       transform="translate(0,-34)"
       id="g954">
      <path
         inkscape:connector-curvature="0"
         style="fill:none;fill-opacity:1;fill-rule:evenodd;stroke:#ffffff;stroke-width:4;stroke-miterlimit:4;stroke-dasharray:none;stroke-opacity:1"
         d="m 3800,-62.26 -2,1.79 c -1,1.15 -2,2.15 -4,2.89 -6,2.74 -15,5.01 -27,6.33 -5,0.54 -23,0.74 -29,0.37 -10,-0.61 -19,-2.18 -27,-4.45 -5,-1.52 -8,-3.16 -10,-5.07 -2,-1.47 -2,-1.49 -2,-0.76 0,0.74 3,23.69 5,47.4 1,15.295 4,42.32 6,67.13 1,11.53 2,21.7 3,22.63 0,1.73 2,5.19 3,5.43 0,0.12 0,-0.05 0,-0.54 -1,-0.51 0,-0.32 2,0.86 4,1.88 8,3.15 12,4.16 4,0.78 11,1.64 15,1.81 1,0.05 3,0.12 4,0.15 3,0.12 12,-0.62 16,-1.3 10,-1.71 17,-4.36 20,-8.13 2,-1.41 2,-1.54 3,-1.37 l 1,0.15 -1,-0.46 c -1,-0.47 -1,-0.49 -1,-2.08 0,-0.88 1,-4.02 1,-6.95 0,-2.93 1,-13.82 2,-24.15 1,-10.35 2,-23.15 3,-28.44 0,-5.285 1,-16.1006 2,-24.004 1,-7.926 2,-22.486 3,-32.426 1,-9.96 2,-18.69 2,-19.5 z m -92,11.33 v 0 c 0,0.03 0,0.03 0,0.03 z"
         id="path4478" />
      <path
         id="path4495-1"
         style="fill:#fb8b24;fill-opacity:1;fill-rule:evenodd;stroke:none"
         d="m 3749.4863,-14.23281 a 41.779358,8.3215437 0 0 0 -40.9707,7.07226 L 3708,-6.83242 v 2.20117 c 0,1.199 1,9.88555 2,19.31055 1,9.42 2,26.63047 3,38.23047 2,20.15 3,21.14976 3,22.25976 1,1.24 4,3.52063 6,4.64063 4,2.08 12,3.90015 19,4.41015 8,0.64 19,0.1493 26,-1.2207 6,-1.28 12,-3.91867 15,-6.38867 1,-1.1 1,-1.66149 2,-2.77149 0,-1.78 2,-18.97968 4,-39.42968 0,-8.98 1,-19.05008 2,-22.33008 0,-6.30264 0.6469,-13.19949 0.8887,-16.46094 a 41.779358,8.3215437 0 0 0 0.7129,-1.53125 41.779358,8.3215437 0 0 0 -41.7793,-8.32031 41.779358,8.3215437 0 0 0 -0.336,0 z" />
    </g>
    <path
       sodipodi:nodetypes="ccccc"
       id="path995"
       d="m 2563.1672,72.89293 h 632.4161 V 9.17706 m -0.057,64.65751 44.1596,24.342023"
       style="fill:none;fill-rule:evenodd;stroke:#ffffff;stroke-width:4;stroke-linecap:butt;stroke-linejoin:miter;stroke-opacity:1;stroke-miterlimit:4;stroke-dasharray:none" />
  </g>
  <g
     style="display:inline"
     inkscape:label="doors"
     id="layer2"
     inkscape:groupmode="layer">
    <g
       id="g901"
       transform="translate(-2344,520.6)">
      <path
         id="path3057"
         style="opacity:1;fill:none;fill-opacity:1;fill-rule:evenodd;stroke:#ffffff;stroke-width:8;stroke-miterlimit:4;stroke-dasharray:none;stroke-opacity:1"
         d="m 50.955078,726.12109 -6.260742,555.05081 437.969724,1.0293 -1.45313,-560.2764 z"
         transform="translate(2344,-520.6)"
         sodipodi:nodetypes="ccccc" />
      <path
         id="path4376-8-7"
         style="opacity:1;fill:#ffffff;fill-opacity:1;fill-rule:evenodd;stroke:none;stroke-width:1.34322"
         d="m 121.95703,951.625 a 24.743879,31.5 0 0 0 -1.31445,0.0566 21.840839,29.12112 0 0 0 -0.5957,-0.0117 21.840839,29.12112 0 0 0 -19.56641,16.1836 24.743879,31.5 0 0 0 -0.008,0.0156 24.743879,31.5 0 0 0 -3.095707,15.25586 24.743879,31.5 0 0 0 24.744137,31.50004 24.743879,31.5 0 0 0 24.74219,-31.50004 24.743879,31.5 0 0 0 -24.74219,-31.5 24.743879,31.5 0 0 0 -0.16406,0 z"
         transform="translate(2344,-520.6)" />
    </g>
    <g
       transform="translate(-1850,520.6)"
       id="g907">
      <path
         sodipodi:nodetypes="ccccc"
         transform="translate(2344,-520.6)"
         d="m 50.955078,726.12109 -6.260742,555.05081 437.969724,1.0293 -1.45313,-560.2764 z"
         style="opacity:1;fill:none;fill-opacity:1;fill-rule:evenodd;stroke:#ffffff;stroke-width:8;stroke-miterlimit:4;stroke-dasharray:none;stroke-opacity:1"
         id="path903" />
      <path
         transform="translate(2344,-520.6)"
         d="m 121.95703,951.625 a 24.743879,31.5 0 0 0 -1.31445,0.0566 21.840839,29.12112 0 0 0 -0.5957,-0.0117 21.840839,29.12112 0 0 0 -19.56641,16.1836 24.743879,31.5 0 0 0 -0.008,0.0156 24.743879,31.5 0 0 0 -3.095707,15.25586 24.743879,31.5 0 0 0 24.744137,31.50004 24.743879,31.5 0 0 0 24.74219,-31.50004 24.743879,31.5 0 0 0 -24.74219,-31.5 24.743879,31.5 0 0 0 -0.16406,0 z"
         style="opacity:1;fill:#ffffff;fill-opacity:1;fill-rule:evenodd;stroke:none;stroke-width:1.34322"
         id="path905" />
    </g>
    <g
       id="g913"
       transform="translate(-1362,520.6)">
      <path
         id="path909"
         style="opacity:1;fill:none;fill-opacity:1;fill-rule:evenodd;stroke:#ffffff;stroke-width:8;stroke-miterlimit:4;stroke-dasharray:none;stroke-opacity:1"
         d="m 50.955078,726.12109 -6.260742,555.05081 437.969724,1.0293 -1.45313,-560.2764 z"
         transform="translate(2344,-520.6)"
         sodipodi:nodetypes="ccccc" />
      <path
         id="path911"
         style="opacity:1;fill:#ffffff;fill-opacity:1;fill-rule:evenodd;stroke:none;stroke-width:1.34322"
         d="m 121.95703,951.625 a 24.743879,31.5 0 0 0 -1.31445,0.0566 21.840839,29.12112 0 0 0 -0.5957,-0.0117 21.840839,29.12112 0 0 0 -19.56641,16.1836 24.743879,31.5 0 0 0 -0.008,0.0156 24.743879,31.5 0 0 0 -3.095707,15.25586 24.743879,31.5 0 0 0 24.744137,31.50004 24.743879,31.5 0 0 0 24.74219,-31.50004 24.743879,31.5 0 0 0 -24.74219,-31.5 24.743879,31.5 0 0 0 -0.16406,0 z"
         transform="translate(2344,-520.6)" />
    </g>
  </g>
</svg>
