<?xml version="1.0" encoding="UTF-8" standalone="no"?>
<svg
   xmlns:dc="http://purl.org/dc/elements/1.1/"
   xmlns:cc="http://creativecommons.org/ns#"
   xmlns:rdf="http://www.w3.org/1999/02/22-rdf-syntax-ns#"
   xmlns:svg="http://www.w3.org/2000/svg"
   xmlns="http://www.w3.org/2000/svg"
   xmlns:sodipodi="http://sodipodi.sourceforge.net/DTD/sodipodi-0.dtd"
   xmlns:inkscape="http://www.inkscape.org/namespaces/inkscape"
   inkscape:version="1.0 (4035a4fb49, 2020-05-01)"
   sodipodi:docname="kuiristo.svg"
   viewBox="0 0 787.49016 761.6806"
   height="761.6806"
   width="787.49017"
   xml:space="preserve"
   id="svg851"
   version="1.1"><metadata
     id="metadata857"><rdf:RDF><cc:Work
         rdf:about=""><dc:format>image/svg+xml</dc:format><dc:type
           rdf:resource="http://purl.org/dc/dcmitype/StillImage" /><dc:title></dc:title></cc:Work></rdf:RDF></metadata><defs
     id="defs855"><clipPath
       id="clipPath867"
       clipPathUnits="userSpaceOnUse"><path
         id="path865"
         d="M 0,595.28 H 841.89 V 0 H 0 Z" /></clipPath></defs><sodipodi:namedview
     fit-margin-bottom="9"
     fit-margin-right="9"
     fit-margin-left="9"
     lock-margins="true"
     fit-margin-top="9"
     inkscape:current-layer="g859"
     inkscape:window-maximized="1"
     inkscape:window-y="0"
     inkscape:window-x="0"
     inkscape:cy="383.97423"
     inkscape:cx="350.19485"
     inkscape:zoom="0.97895108"
     showgrid="false"
     id="namedview853"
     inkscape:window-height="1016"
     inkscape:window-width="1920"
     inkscape:pageshadow="2"
     inkscape:pageopacity="0"
     guidetolerance="10"
     gridtolerance="10"
     objecttolerance="10"
     borderopacity="1"
     bordercolor="#666666"
     pagecolor="#ffffff" /><g
     transform="matrix(1.3333333,0,0,-1.3333333,-210.07045,783.27091)"
     inkscape:label="chefs-hat-1588125"
     inkscape:groupmode="layer"
     id="g859"><g
       style="fill:#5f0f40;fill-opacity:1"
       transform="translate(412.59122,302.96863)"
       id="g869"><path
         id="path871"
         style="fill:#5f0f40;fill-opacity:1;fill-rule:nonzero;stroke:none"
         d="m 0,0 -4.205,-0.097 1.614,-74.831 -8.016,0.089 -1.484,74.742 h -4.802 v -75.239 h -7.142 l -0.688,75.239 h -4.859 l -1.38,-75.239 -7.689,-0.024 1.702,75.263 -4.185,-0.011 -8.844,-63.826 c 0,0 -0.233,-2.381 -0.225,-3.327 0.097,-10.904 4.141,-17.273 10.296,-24.037 22.634,-24.871 7.431,-53.524 7.431,-59.944 v -116.362 -0.216 c 0,-6.71 5.411,-12.122 12.111,-12.122 6.728,0 12.138,5.412 12.138,12.122 0,0.072 0,0.143 -0.072,0.216 h 0.072 v 116.153 c 0,7.504 -12.394,39.061 9.082,61.615 0,0 0.032,0.073 0.082,0.126 3.922,4.202 7.939,9.599 8.564,20.397 0.034,0.569 0,2.012 0,2.012 z" /></g><g
       style="fill:#5f0f40;fill-opacity:1"
       transform="translate(477.77972,151.17223)"
       id="g873"><path
         id="path875"
         style="fill:#5f0f40;fill-opacity:1;fill-rule:nonzero;stroke:none"
         d="m 0,0 c 0.072,7.161 -0.144,167.114 -0.144,167.114 l -3.535,-0.383 c 0,0 -31.462,-0.522 -32.682,-139.452 -0.262,-29.849 12.793,-32.608 12.481,-37.306 -0.454,-6.839 0.505,-106.213 0.505,-106.213 l 0.073,0.071 c 0,-0.071 -0.073,-0.161 -0.073,-0.307 0,-6.401 5.268,-11.67 11.688,-11.67 6.494,0 11.759,5.269 11.687,11.67 0.072,0.074 0.072,0.236 0,0.236 l 0.072,0.071 c 0,0 0,79.507 -0.072,87.424 z" /></g><g
       style="fill:#5f0f40;fill-opacity:1"
       transform="translate(535.10982,308.86663)"
       id="g877"><path
         id="path879"
         style="fill:#5f0f40;fill-opacity:1;fill-rule:nonzero;stroke:none"
         d="m 0,0 c -20.04,0 -31.685,-34.004 -32.828,-44.046 -1.608,-14.121 -1.145,-19.511 -0.425,-27.89 0.838,-9.766 5.811,-18.797 12.953,-24.506 23.44,-26.46 7.431,-53.523 7.431,-59.944 v -116.362 -0.217 c 0,-6.709 5.412,-12.121 12.113,-12.121 6.727,0 12.137,5.412 12.137,12.121 0,0.074 0,0.145 -0.072,0.217 h 0.072 v 116.153 c 0,7.504 -13.5,38.528 9.082,61.615 0,0 0.081,0.053 0.081,0.126 5.555,5.21 9.831,12.391 10.905,20.429 0.124,0.932 1.647,10.992 -0.823,28.905 C 29.223,-35.347 19.674,0 0,0" /></g><g
       transform="translate(524.25332,216.51703)"
       id="g881"><path
         id="path883"
         style="fill:#ffffff;fill-opacity:1;fill-rule:nonzero;stroke:none"
         d="m 0,0 c 0,0 -11.604,8.552 -14.198,31.087 -1.317,11.431 1.624,22.548 2.218,24.897 2.01,7.976 3.949,10.258 3.949,10.258 0,0 0.46,0.962 0.856,0.855 0.396,-0.108 0.987,-0.534 0.987,-1.389 0,-0.856 -2.371,-8.976 -2.896,-12.607 -2.312,-15.975 -0.564,-29.011 4.636,-40.764 3.341,-7.551 6.027,-10.2 6.027,-10.2 0,0 1.113,-1.113 0.724,-2.35 C 2.039,-1.05 1.382,-1.174 0.854,-0.747 0.329,-0.319 0,0 0,0" /></g><g
       transform="translate(725.69772,508.38173)"
       id="g885"><path
         id="path887"
         style="fill:#5f0f40;fill-opacity:1;fill-rule:nonzero;stroke:none"
         d="m 0,0 c -22.747,37.885 -67.458,64.264 -122.268,64.264 -39.128,0 -108.834,-21.866 -137.569,-43.615 -25.696,28.426 -106.227,53.021 -159.097,51.615 -34.158,-0.854 -82.232,-12.243 -119.128,-67.529 -19.01,-28.483 -28.245,-56.906 -20.706,-87.804 14.209,-58.372 70,-100.334 102,-119.559 V -464.07 c 0,-11.82 9.559,-21.369 21.34,-21.369 h 19.739 v 302.452 c -1.708,4.572 -4.911,8.627 -9.404,11.035 -0.689,0.455 -73.985,43.718 -87.183,98.373 -4.57,19.021 -0.854,37.266 11.325,55.587 21.505,32.218 47.993,45.735 83.017,46.589 38.118,0.931 109.939,-16.822 128.416,-37.25 -29.113,-29.413 -48.962,-56.872 -50.505,-59.356 -6.066,-10.093 -2.863,-23.213 7.21,-29.336 10.103,-6.144 19.007,-4.472 29.355,7.133 0.839,0.941 101.063,107.068 181.493,107.068 39.361,0 71.086,-13.782 85.399,-38.895 10.465,-18.364 12.265,-58.149 -6.988,-94.482 -11.644,-21.98 -35.945,-36.886 -65.214,-46.988 v -321.93 h 21.195 c 11.801,0 21.35,9.549 21.35,21.369 v 272.466 c 25.775,12.897 47.435,30.744 60.4,55.043 C 20.728,-86.496 22.823,-37.955 0,0" /></g></g></svg>
