<?xml version="1.0" encoding="UTF-8" standalone="no"?>
<svg
   xmlns:dc="http://purl.org/dc/elements/1.1/"
   xmlns:cc="http://creativecommons.org/ns#"
   xmlns:rdf="http://www.w3.org/1999/02/22-rdf-syntax-ns#"
   xmlns:svg="http://www.w3.org/2000/svg"
   xmlns="http://www.w3.org/2000/svg"
   xmlns:sodipodi="http://sodipodi.sourceforge.net/DTD/sodipodi-0.dtd"
   xmlns:inkscape="http://www.inkscape.org/namespaces/inkscape"
   height="466.63635"
   width="601.2373"
   inkscape:version="1.0 (4035a4fb49, 2020-05-01)"
   sodipodi:docname="kuraÄa.svg"
   id="svg10"
   version="1.1"
   viewBox="0 0 601.2373 466.63635">
  <metadata
     id="metadata16">
    <rdf:RDF>
      <cc:Work
         rdf:about="">
        <dc:format>image/svg+xml</dc:format>
        <dc:type
           rdf:resource="http://purl.org/dc/dcmitype/StillImage" />
        <dc:title></dc:title>
      </cc:Work>
    </rdf:RDF>
  </metadata>
  <defs
     id="defs14" />
  <sodipodi:namedview
     fit-margin-bottom="5"
     fit-margin-right="5"
     fit-margin-left="5"
     fit-margin-top="5"
     lock-margins="true"
     inkscape:snap-global="false"
     inkscape:current-layer="svg10"
     inkscape:window-maximized="1"
     inkscape:window-y="0"
     inkscape:window-x="0"
     inkscape:cy="407.96468"
     inkscape:cx="228.09607"
     inkscape:zoom="0.50241654"
     showgrid="false"
     id="namedview12"
     inkscape:window-height="704"
     inkscape:window-width="1366"
     inkscape:pageshadow="2"
     inkscape:pageopacity="0"
     guidetolerance="10"
     gridtolerance="10"
     objecttolerance="10"
     borderopacity="1"
     bordercolor="#666666"
     pagecolor="#ffffff" />
  <path
     style="fill:#e36414;fill-opacity:1"
     d="m 363.38833,21.518557 -231.05,204.580003 24.338,27.457 207.66,-183.880003 207.61,183.880003 24.291,-27.457 -231,-204.580003 -0.89792,1.0397 -0.94518,-1.0397 z"
     id="path4" />
  <path
     style="fill:#e36414;fill-opacity:1"
     d="m 201.42833,50.968557 h 58.571 l -0.51038,34.691 -58.061,52.452003 V 50.968557 Z"
     id="path6" />
  <path
     style="fill:#e36414;fill-opacity:1"
     d="M 364.33928,100.42871 201.42913,244.67872 v 206.11914 c 0,5.3234 4.3016,9.59375 9.625,9.59375 h 101.80859 v -90.375 c 0,-5.3234 4.27035,-9.625 9.59375,-9.625 h 83.65625 c 5.3234,0 9.59375,4.3016 9.59375,9.625 v 90.375 h 101.83984 c 5.3234,0 9.59375,-4.27035 9.59375,-9.59375 V 244.61036 Z M 257.21819,229.80567 h 74.13867 v 70.65625 h -74.13867 z m 140,0 h 74.13867 v 70.65625 h -74.13867 z"
     id="path2" />
  <path
     id="path2754"
     d="m 486.29045,217.92676 c -1.22919,-0.0181 -2.47931,0.26324 -3.64648,0.87696 -1.65083,0.86803 -2.85532,2.25221 -3.50781,3.875 l -7.9336,25.42578 -30.71289,-9.54492 c -2.30855,-0.66783 -4.88731,-0.51661 -7.20703,0.70312 l -31.55859,16.61914 c -2.04418,1.07485 -3.3661,2.95018 -3.81055,5.01563 l -0.69531,2.95507 v 36.60938 h 6.51172 l 7.66992,-32.85742 v -0.002 l 11.6875,-6.07031 -9.01953,38.92969 h 57.28906 v -1.77539 l -24.08789,-7.48633 7.55078,-32.44922 18.86719,5.91211 c 0,0 7.63205,2.5855 10.54101,-6.72265 l 9.45313,-30.83985 c 0.34272,-1.68598 0.11762,-3.44861 -0.74023,-5.08008 -1.35017,-2.56778 -3.94617,-4.05401 -6.6504,-4.09375 z"
     style="fill:#e36414;fill-opacity:1;stroke:none;stroke-width:3;stroke-miterlimit:4;stroke-dasharray:none;stroke-opacity:1" />
  <path
     id="path931"
     d="m 444.45061,206.71583 c -2.36699,-0.0322 -4.77539,0.50853 -7.01758,1.6875 -7.19436,3.78287 -9.95238,12.65899 -6.17968,19.83398 3.77248,7.17459 12.65915,9.95475 19.85351,6.17187 7.17459,-3.77248 9.92482,-12.67111 6.15235,-19.8457 -2.59359,-4.93252 -7.60121,-7.77676 -12.8086,-7.84765 z"
     style="fill:#e36414;fill-opacity:1;stroke:#ffffff;stroke-width:3;stroke-miterlimit:4;stroke-dasharray:none;stroke-opacity:1" />
  <path
     d="m 486.31194,216.42676 c -1.47297,-0.0217 -2.9747,0.31766 -4.36523,1.04883 -1.96621,1.03386 -3.42242,2.70089 -4.20313,4.64258 l -0.0215,0.0566 -7.98047,25.44727 2.86328,0.89453 7.93164,-25.28907 c 0.52539,-1.29814 1.47372,-2.39586 2.80469,-3.0957 0.9438,-0.49627 1.94232,-0.71959 2.92773,-0.70508 2.16892,0.0319 4.25122,1.21323 5.34375,3.29102 0.69737,1.32626 0.86805,2.70897 0.59766,4.0625 l -9.41602,30.7207 c -1.33141,4.25263 -3.43042,5.41167 -5.25976,5.82813 -1.83061,0.41674 -3.36719,-0.0859 -3.36719,-0.0859 l -0.0156,-0.006 -2.06445,-0.625 v -0.008 l -17.13086,-5.38477 -0.65234,3.85156 16.81445,4.35938 2.11914,0.66406 -0.0312,-0.0117 c 0,0 2.27953,0.78942 4.99219,0.17188 2.71266,-0.61755 5.88326,-2.81889 7.46094,-7.86719 l 0.002,-0.004 9.47461,-30.91406 0.0156,-0.0703 c 0.40892,-2.01162 0.13186,-4.14647 -0.88281,-6.07617 -1.60781,-3.05777 -4.71749,-4.84888 -7.95703,-4.89649 z"
     style="color:#000000;font-style:normal;font-variant:normal;font-weight:normal;font-stretch:normal;font-size:medium;line-height:normal;font-family:sans-serif;font-variant-ligatures:normal;font-variant-position:normal;font-variant-caps:normal;font-variant-numeric:normal;font-variant-alternates:normal;font-variant-east-asian:normal;font-feature-settings:normal;font-variation-settings:normal;text-indent:0;text-align:start;text-decoration:none;text-decoration-line:none;text-decoration-style:solid;text-decoration-color:#000000;letter-spacing:normal;word-spacing:normal;text-transform:none;writing-mode:lr-tb;direction:ltr;text-orientation:mixed;dominant-baseline:auto;baseline-shift:baseline;text-anchor:start;white-space:normal;shape-padding:0;shape-margin:0;inline-size:0;clip-rule:nonzero;display:inline;overflow:visible;visibility:visible;opacity:1;isolation:auto;mix-blend-mode:normal;color-interpolation:sRGB;color-interpolation-filters:linearRGB;solid-color:#000000;solid-opacity:1;vector-effect:none;fill:#ffffff;fill-opacity:1;fill-rule:nonzero;stroke:none;stroke-width:3;stroke-linecap:butt;stroke-linejoin:miter;stroke-miterlimit:4;stroke-dasharray:none;stroke-dashoffset:0;stroke-opacity:1;color-rendering:auto;image-rendering:auto;shape-rendering:auto;text-rendering:auto;enable-background:accumulate;stop-color:#000000;stop-opacity:1"
     id="path2746" />
  <path
     style="fill:#e36414;fill-opacity:1;stroke:#ffffff;stroke-width:4;stroke-miterlimit:4;stroke-dasharray:none"
     d="m 230.223,266.13321 c -3.24584,-14.43969 -1.97499,-27.0248 2.25151,-37.40443 3.99151,17.75691 9.688,23.03612 19.05428,20.93071 6.24419,-1.40361 11.6308,-7.53422 9.83243,-15.53458 -1.62292,-7.21985 -9.44,-19.19705 -12.59811,-33.24647 -3.15812,-14.04942 -1.85241,-30.12721 14.77024,-45.54821 -1.74884,12.28257 -1.35574,22.23874 0.39877,30.04398 4.64945,20.68387 19.24323,27.24294 30.36569,24.74277 8.97602,-2.01769 17.02643,-9.97703 13.21037,-26.95341 7.54039,5.2747 11.98287,12.27073 13.69351,19.88083 2.71949,12.09812 -1.50251,24.32165 0.69063,34.07819 1.79837,8.00037 9.2904,11.23604 15.53458,9.83243 11.12246,-2.50017 12.20269,-13.19752 8.51822,-29.58851 4.58924,4.91313 10.01638,15.37765 12.16566,24.93906 6.40396,28.48911 -15.87466,55.22604 -45.92481,61.9809 23.21774,-15.26357 25.0498,-28.99978 21.84782,-43.24433 -3.74401,12.52606 -9.83243,15.53458 -12.95452,16.23638 -19.12283,4.29855 -6.64128,-36.84037 -45.71082,-54.70686 8.09543,10.4797 12.52273,20.14401 14.36496,28.33951 3.94765,17.56178 -3.46449,29.27247 -12.63564,31.33401 -7.80524,1.75451 -17.01408,-2.73517 -23.11884,-15.30226 4.16696,18.53743 13.57827,34.87105 40.64526,41.2912 -39.45413,2.30904 -59.04994,-18.29495 -64.40119,-42.10091 z"
     id="path2-9" />
  <path
     id="path2765"
     d="m 454.83208,419.81505 c 4.07614,-14.22762 3.53582,-26.86519 -0.0829,-37.47204 -5.01254,17.49612 -11.00504,22.43678 -20.23376,19.7928 -6.15249,-1.76266 -11.17524,-8.19476 -8.91684,-16.07762 2.03807,-7.11382 10.53527,-18.6185 14.50124,-32.46159 3.96598,-13.84308 3.593,-29.96949 -12.10925,-46.32672 1.03502,12.36319 0.0663,22.27992 -2.13699,29.97052 -5.8388,20.38011 -20.78773,26.08352 -31.74684,22.94379 -8.8442,-2.53382 -16.42044,-10.94575 -11.62822,-27.67281 -7.83304,4.82943 -12.67299,11.55661 -14.82122,19.05495 -3.41515,11.92044 0.0923,24.36784 -2.66185,33.98109 -2.2584,7.88288 -9.92515,10.67949 -16.07762,8.91683 -10.95911,-3.13972 -11.41839,-13.88166 -6.79142,-30.03192 -4.8659,4.63927 -10.88961,14.77215 -13.58869,24.19313 -8.04211,28.0707 12.65168,56.05225 42.2605,64.53504 -22.2954,-16.58178 -23.32936,-30.40101 -19.3083,-44.43635 3.01275,12.72176 8.91683,16.07762 11.99307,16.95895 18.84198,5.39813 8.7624,-36.39424 48.80052,-51.96951 -8.6884,9.99359 -13.66763,19.38545 -15.98111,27.46059 -4.95748,17.30386 1.76445,29.42392 10.80091,32.01281 7.69061,2.20332 17.14386,-1.74584 23.96575,-13.93853 -5.23289,18.26518 -15.57378,34.0267 -42.96699,38.86951 39.25436,4.5887 60.00983,-14.84659 66.72996,-38.30292 z"
     style="fill:#e36414;fill-opacity:1;stroke:#ffffff;stroke-width:4;stroke-miterlimit:4;stroke-dasharray:none" />
  <path
     style="fill:#e36414;fill-opacity:1;stroke:#ffffff;stroke-width:4;stroke-miterlimit:4;stroke-dasharray:none"
     d="m 503.20765,122.99959 c 4.07614,-14.22763 3.53582,-26.865198 -0.0829,-37.472048 -5.01254,17.496118 -11.00504,22.436778 -20.23376,19.792798 -6.15249,-1.76266 -11.17524,-8.194758 -8.91684,-16.077618 2.03807,-7.11382 10.53527,-18.6185 14.50124,-32.46159 3.96598,-13.84308 3.593,-29.969489 -12.10925,-46.32672 1.03502,12.363191 0.0663,22.27992 -2.13699,29.97052 -5.8388,20.38011 -20.78773,26.08352 -31.74684,22.94379 -8.8442,-2.53382 -16.42044,-10.94575 -11.62822,-27.67281 -7.83304,4.82943 -12.67299,11.55661 -14.82122,19.05495 -3.41515,11.92044 0.0923,24.36784 -2.66185,33.98109 -2.2584,7.88288 -9.92515,10.67949 -16.07762,8.91683 -10.95911,-3.13972 -11.41839,-13.88166 -6.79142,-30.03192 -4.8659,4.63927 -10.88961,14.77215 -13.58869,24.19313 -8.04211,28.070698 12.65168,56.052258 42.2605,64.535048 -22.2954,-16.58178 -23.32936,-30.40101 -19.3083,-44.43636 3.01275,12.72177 8.91683,16.07763 11.99307,16.95896 18.84198,5.39813 8.7624,-36.394248 48.80052,-51.969518 -8.6884,9.99359 -13.66763,19.38545 -15.98111,27.460588 -4.95748,17.30387 1.76445,29.42393 10.80091,32.01282 7.69061,2.20332 17.14386,-1.74584 23.96575,-13.93853 -5.23289,18.26518 -15.57378,34.0267 -42.96699,38.86951 39.25436,4.5887 60.00983,-14.84659 66.72996,-38.30292 z"
     id="path2767" />
  <g
     style="fill:#000000;fill-opacity:1"
     transform="matrix(0.35667916,0,0,0.35667916,-58.933539,231.15492)"
     fill="#231f20"
     id="g935">
    <path
       style="fill:#e36414;fill-opacity:1"
       d="m 467.85,344.25 c 17.784,0 32.207,-14.471 32.207,-32.255 0,-17.784 -14.422,-32.207 -32.207,-32.207 -17.833,0 -32.255,14.422 -32.255,32.207 0,17.784 14.422,32.255 32.255,32.255"
       id="path931-6" />
    <path
       style="fill:#e36414;fill-opacity:1"
       d="m 356.85,368.17 -50.137,57.933 c -2.972,3.654 -7.455,5.896 -12.522,5.896 -8.965,0 -16.225,-7.26 -16.225,-16.177 0,-4.872 2.095,-9.209 5.457,-12.181 l 54.084,-62.269 c 2.972,-3.557 7.455,-5.847 12.522,-5.847 l 78.251,-0.049 c 5.75,0 10.914,2.339 14.715,5.993 l 49.893,49.894 41.367,-41.27 c 2.924,-2.485 6.676,-3.947 10.768,-3.947 9.258,0 16.713,7.504 16.713,16.762 0,4.044 -1.365,7.698 -3.752,10.622 l -49.845,50.234 c -15.153,15.105 -27.334,2.29 -27.334,2.29 l -30.599,-30.745 -47.798,55.302 43.803,43.803 c 0,0 9.257,8.576 3.946,25.629 L 425.6,629.523 c -1.949,9.502 -10.329,16.664 -20.366,16.664 -11.548,0 -20.854,-9.355 -20.854,-20.854 0,-1.851 0.19501,-3.605 0.633,-5.262 l 20.221,-89.799 -49.797,-48.383 -42.828,47.75 c 0,0 -6.919,8.527 -25.288,7.893 l -86.875,0.146 c -9.696,0.14703 -18.515,-6.48 -20.659,-16.322 -2.583,-11.207 4.336,-22.219 15.591,-24.703 1.755,-0.38998 3.509,-0.53601 5.214,-0.48801 l 74.694,0.195 110.46,-128.05 -28.894,-0.146 z"
       id="path933" />
  </g>
</svg>
