<?xml version="1.0" encoding="UTF-8" standalone="no"?>
<svg
   xmlns:dc="http://purl.org/dc/elements/1.1/"
   xmlns:cc="http://creativecommons.org/ns#"
   xmlns:rdf="http://www.w3.org/1999/02/22-rdf-syntax-ns#"
   xmlns:svg="http://www.w3.org/2000/svg"
   xmlns="http://www.w3.org/2000/svg"
   xmlns:sodipodi="http://sodipodi.sourceforge.net/DTD/sodipodi-0.dtd"
   xmlns:inkscape="http://www.inkscape.org/namespaces/inkscape"
   width="15.034in"
   height="8.843997in"
   version="1.1"
   style="clip-rule:evenodd;fill-rule:evenodd;image-rendering:optimizeQuality;shape-rendering:geometricPrecision;text-rendering:geometricPrecision"
   viewBox="0 0 15034 8843.997"
   enable-background="new 0 0 353.209 182.186"
   id="svg77"
   sodipodi:docname="libro.svg"
   inkscape:version="1.0 (4035a4fb49, 2020-05-01)">
  <metadata
     id="metadata81">
    <rdf:RDF>
      <cc:Work
         rdf:about="">
        <dc:format>image/svg+xml</dc:format>
        <dc:type
           rdf:resource="http://purl.org/dc/dcmitype/StillImage" />
        <dc:title></dc:title>
      </cc:Work>
    </rdf:RDF>
  </metadata>
  <sodipodi:namedview
     inkscape:document-rotation="0"
     pagecolor="#ffffff"
     bordercolor="#666666"
     borderopacity="1"
     objecttolerance="10"
     gridtolerance="10"
     guidetolerance="10"
     inkscape:pageopacity="0"
     inkscape:pageshadow="2"
     inkscape:window-width="1920"
     inkscape:window-height="1016"
     id="namedview79"
     showgrid="false"
     inkscape:zoom="0.71586063"
     inkscape:cx="579.46417"
     inkscape:cy="395.12492"
     inkscape:window-x="0"
     inkscape:window-y="0"
     inkscape:window-maximized="1"
     inkscape:current-layer="svg77"
     inkscape:snap-global="false"
     fit-margin-top="1"
     fit-margin-left="1"
     fit-margin-right="1"
     fit-margin-bottom="1"
     lock-margins="true" />
  <defs
     id="defs4">
    <style
       type="text/css"
       id="style2">  .fil1 {fill:#302F2F} .fil0 {fill:#FEFEFE}  </style>
  </defs>
  <path
     class="fil0"
     d="m 1584.4972,2879.4959 c 72,132 208,292 293,433 56,94 148,221 216,329 23,36 47,73 70,107 48,70 93,149 140,223 l 417,669 c 23,38 48,74 70,111 201,331 420,675 627,1002 49,77 95,142 144,215 l 218,327 c 19,29 58,78 70,106 32,-6 225,-103 270,-125 l 780,-394 c 347,-176 694,-355 1062,-504 573,-231 1296.9998,-450 1946.9998,-358 151,21 333,60 476,111 33,12 115,49 140,52 -65,-60 -121,-125 -183,-186 l -90,-96 c -53,-51 -130,-136 -180,-192 l -135,-144 c -39,-44 -82,-100 -128,-147 -70,-70 -147,-173 -219,-245 -16,-17 -27,-34 -41,-52 -15,-19 -30,-30 -45,-47 l -1095.9998,-1260 c -9,-8 -14,-14 -22,-24 l -220,-244 c -18,-19 -29,-30 -46,-47 l -182,-186 c -37,-45 -70,-66 -94,-92 l -95,-91 c -17,-16 -27,-28 -44,-45 -99,-99 -277,-228 -437,-306 -599,-294 -1217,-229 -1814,12 -196,79 -450,193 -629,299 -38,23 -79,42 -120,66 -80,47 -152,91 -229,138 -77,48 -156,93 -229,143 -62,42 -640,417 -664,442 z"
     id="path7"
     style="stroke:#0f4c5c;stroke-opacity:1" />
  <path
     class="fil0"
     d="m 5734.4972,2000.4959 c 11,15 36,36 50,50 17,16 31,33 48,49 l 199,193 c 20,19 28,27 47,50 l 194,199 c 19,19 26,33 44,53 34,39 60,65 97,101 l 68,79 c 25,35 84,90 116,129 15,19 28,34 45,52 l 727.9998,839 c 15,18 29,33 45,52 49,58 82,103 137,158 10,10 15,17 23,27 l 204,235 c 16,18 31,37 47,55 l 139,152 c 16,17 30,38 45,56 27,33 110,111 143,148 l 143,152 c 16,18 30,34 46,51 l 94,104 c 32,36 64,59 98,96 9,10 17,15 28,23 47,37 139,148 177,164 48,-139 46,-133 121,-259 54,-91 184,-221 277,-293 36,-28 70,-52 111,-79 691,-450 1852,-622 2679,-736 150,-21 1294,-166 1328,-188 -13,-21 -72,-59 -97,-77 -163,-111 -335,-248 -503,-362 l -202,-144 c -67,-50 -137,-94 -203,-143 l -608,-426 c -139,-91 -271,-191 -410,-283 -68,-45 -138,-94 -205,-141 -66,-47 -136,-91 -203,-139 -70,-50 -136,-94 -205,-142 -68,-47 -136,-96 -205,-141 -165,-109 -346,-243 -510,-352 -103,-68 -204,-145 -306,-214 -130,-87 -71,-60 -258,-31 -351,54 -636,48 -992,49 -228,1 -456,2 -684,3 -111,0 -235,-5 -344,2 -357.9998,23 -780.9998,115 -1077.9998,302 -38,24 -70,46 -102,71 -97,74 -99,76 -186,160 -58,56 -207,239 -223,292 z"
     id="path9"
     style="stroke:#0f4c5c;stroke-opacity:1" />
  <path
     id="path11"
     style="fill:#0f4c5c;fill-opacity:1;stroke:#0f4c5c;stroke-width:1;stroke-opacity:1"
     d="m 9516.492,1000.5 c -50,28 -435.995,67.998 -527.995,72.998 -46,2 -99.003,2.0018 -144.003,6.0019 -46,3.9999 -99.002,-1.0094 -144.002,2.9906 -76,7 -218.986,3.0063 -293.986,-1.9937 -92,-6 -205.008,0 -300.008,0 -296,0 -587.991,-4.0009 -877.991,19.9991 -372.9998,30 -807.0014,139.9942 -1085.0014,343.9942 l -206.0141,166.0156 -75.9887,75.9888 c -15,15 -19.9966,25.9922 -33.9966,41.9922 l -65.9994,82.0109 c -43,54 -68.0034,99.0079 -91.0034,129.008 l -134.0128,-94.0145 c -23,-15 -44.9932,-31.0001 -67.9932,-46.0001 -23,-15 -41.9963,-27.9892 -66.9962,-42.9892 -362.0001,-211 -781.0012,-290.0154 -1197.0012,-245.0154 -279,30 -543.9989,111.0188 -802.9989,211.0188 -55,21 -104.9997,44.9963 -157.9997,66.9963 l -303.9958,142.985 c -175,95 -368.0107,203.0037 -536.0108,308.0037 l -308.0037,199.0154 c -47,30 -90.9894,55.9924 -134.9894,87.9924 -21,16 -48.0104,31.0063 -69.0104,44.0063 -23,14 -44.9994,28.986 -65.9994,43.986 -23,17 -41.99,27.0033 -68.99,45.0033 -23,16 -44.0136,29.0001 -68.0136,46.0001 -11,8 -24.9903,16.0103 -35.9903,23.0103 -12,8 -20.0028,14.9899 -32.0028,22.9899 l -136.0067,87.9923 c -45,25 -84.9995,67.0026 -111.9995,111.0026 -62.0001,100 -97.989,210.9999 -121.989,328.9999 -4,20 -11.0022,77.0035 -19.0022,91.0034 -9,17.0001 -88.0067,42.0127 -136.0067,88.0127 -105,100 -58.9942,73.9938 -93.9942,126.9938 l -0.9969,2.9908 v 35.0138 c 27,36 52.9968,87.9987 79.9968,131.9987 l 198.995,332.9875 c 14,24 26.0155,46.0104 41.0156,69.0104 79,119 158.984,273.9868 241.984,398.9868 42,63 118.0139,196.0115 160.0139,266.0115 26,43 53.9936,91.9925 80.9936,133.9925 l 61.9914,98.0022 c 7,11 14.0165,22.9966 21.0165,33.9966 14,23 26.9983,45.9994 39.9983,65.9994 55,83 106.9842,177.0004 162.9842,263.0004 65,98 141.014,232.0048 206.014,334.0048 81,126 163.9951,268.9929 244.9951,396.9929 29,45 56.9906,92.0161 81.9906,133.0161 l 289.9984,457.9874 c 7,12 14.0133,21.9997 22.0133,32.9997 L 3079.4999,7000.5 c 14,22 28.9891,45.996 42.9891,66.996 72,107 157.0181,251.998 231.0181,355.998 l 193.9901,291.992 c 8,11 12.9991,20.009 19.9991,30.009 l 67.9933,98.002 h 12.0035 l 1237.9965,-618.998 c 128,-60 299.0064,-148.009 419.0064,-201.009 l 426.005,-194.9869 c 26,-11 45.987,-20.0058 69.987,-31.0058 27,-12 48.0153,-20.0028 74.0153,-32.0028 98,-43 191.0014,-78.992 289.0014,-120.992 136.0001,-57 305.0012,-120.0113 447.0012,-174.0113 226,-87 544.9891,-189.9876 779.9891,-253.9876 108,-29 216.999,-58.0017 328.999,-85.0017 362,-87 245.004,-29.0001 558.004,-46.0001 360,-20 714.996,-51.0037 1053.996,-183.0037 130,-50 299,-130.9924 408,-212.9924 l 116.007,-91.0035 c 22,-14 44.003,-26.0076 65.003,-37.0076 319,-164 674.004,-249.0011 1025.004,-322.0011 371,-76 718.991,-111.9931 1094.991,-146.9931 127,-12 263.006,-14.9979 386.006,-26.9979 173,-16.9999 633.994,-24.0071 804.994,-24.0071 128,0 277.997,-9.008 401.997,-4.008 l 400.004,4.008 v -12.0036 c -16.999,-20 -261.005,-433.9889 -301.005,-496.9889 -17,-26 -36.002,-53.9999 -52.002,-78.9999 -42,-66 -168.998,-254.0055 -217.998,-314.0055 -34,-42 -31.007,-34.0021 -37.007,-98.0021 -7,-83 -8.987,-166.0031 -16.988,-249.0031 -4.999,-51 4.997,-74.0021 -32.003,-98.0021 l -1160.99,-835.9986 c -28,-22 -49.014,-33.9927 -81.014,-54.9927 -30,-20 -51,-37.0099 -79,-56.0099 l -470.988,-326.9857 c -59,-41 -95.003,-63.0088 -157.003,-109.0088 -25,-19 -53.003,-33.9988 -78.003,-52.9988 l -79,-55.9896 c -53,-33 -105.999,-75.0119 -157.999,-108.0119 l -394.002,-272.9899 c -72,-52 -155.997,-103.0046 -237.997,-163.0046 -115,-84 -280.005,-185.0023 -393.005,-269.0023 -76,-57 -163.003,-110.9953 -236.003,-165.9953 -41,-31 -298.988,-201.0021 -312.988,-223.0021 z m -23.621,91.6138 c 24.875,0.375 42.625,15.3871 107.625,59.3871 102,69 203.01,144.9893 306.01,213.9893 164,109 343.99,243.0101 509.99,352.0101 69,45 136.996,93.9913 204.996,140.9913 69,47 134.997,92.0084 204.997,142.0084 67,47 137.003,91.9974 203.003,138.9974 67,47 135.997,96.9913 204.997,140.9913 139,92 271.014,191.9997 410.014,282.9997 l 607.991,426.005 c 66,49 136.003,93.0054 203.003,143.0054 l 202.006,144.0022 c 168,115 339.991,250.9996 502.991,361.9996 26,17 84.006,55.9856 97.006,76.9856 -34,22 -1178.004,167.0087 -1328.004,188.0087 -828,114 -1988.996,287.0026 -2678.996,736.0026 -41,27 -75.002,50.9999 -111.002,78.9998 -93,72.0001 -222.998,201.9892 -276.998,292.9892 -74,126 -73.013,120.0128 -121.013,259.0128 -38,-16 -129.981,-127.0015 -176.981,-164.0015 -11,-8 -18.015,-13.0102 -28.015,-23.0102 -34,-38 -66.002,-60.988 -98.002,-95.988 l -93.995,-104.0039 c -17,-18 -30,-33.0051 -46,-51.0051 l -143.005,-151.9978 c -34,-37 -115.985,-114.9899 -142.985,-147.9899 -15,-18 -30.003,-39.01 -45.003,-56.01 l -138.998,-151.9978 c -15,-18 -30.997,-36.9927 -46.997,-54.9927 l -204,-235.0057 c -9,-10 -14.01,-17.9979 -23.01,-26.9979 -55,-56 -89.004,-99.9996 -137.004,-157.9996 -16,-19 -29.003,-34.002 -45.003,-52.002 l -727.9865,-839.0096 c -17,-18 -30.0033,-33.9817 -45.0033,-51.9817 -32,-39 -91.0075,-94.0079 -116.0075,-129.0079 l -67.9932,-78.9999 c -38,-36 -63.0051,-60.9928 -97.0052,-100.9928 -18,-21 -24.9859,-34.0192 -43.9859,-53.0192 l -194.0105,-198.995 c -19,-23 -26.9971,-31.9878 -46.9971,-49.9878 l -198.995,-193.0135 c -17,-16 -31.0142,-32.9909 -48.0142,-48.9909 -15,-14 -39.9878,-35.0081 -49.9878,-50.0081 l -3.0111,-3.9876 c 16,-52 165.0021,-236.0127 223.0021,-292.0127 87,-84 88.9945,-85.9934 185.9945,-159.9934 32,-25 65.0101,-47.0043 102.0101,-71.0043 297,-188 720.0029,-279.0019 1078.0026,-302.0019 109,-7 233.995,-1.9938 343.995,-1.9938 l 684,-3.0111 c 356,-2 641.005,5.0091 992.005,-48.9909 93.5,-14.5 125.495,-28.7563 150.37,-28.3813 z m -5076.1314,489.7461 c 285.0109,-1.1028 569.9674,57.8255 850.7487,195.638 159,78 338.0117,206.9896 437.0117,305.9896 17,17 27.0064,29.0033 44.0064,45.0033 l 94.991,91.0034 c 24,26 56.9941,46.0003 93.9941,92.0003 l 182.0069,185.9945 c 16,17 27.0001,27.9971 46.0001,46.9971 l 219.9912,244.0185 c 8,10 13.0133,15.9868 22.0133,23.9868 l 1095.988,1260.0098 c 16,18 30.003,27.9971 45.003,46.9971 14,18 24.996,35.002 40.996,52.002 72,72 150.014,174.9951 219.014,244.9951 46,47 87.991,102.993 127.991,146.993 l 135.01,144.0022 c 50,55 126.992,140.9963 179.992,191.9963 l 90.007,96.0083 c 61,62 118.003,125.9945 183.003,185.9945 -25,-4 -106.014,-40.002 -140.014,-52.002 -142,-51 -324.993,-88.9822 -475.993,-110.9822 -650,-92 -1374.0013,125.9915 -1947.0013,357.9915 -368,149 -715.9914,328.008 -1061.9914,504.0081 l -780.009,393.9818 c -45,22 -237.9991,119 -269.9991,125 -12,-28 -51.0074,-76.9977 -70.0074,-105.9977 l -217.9972,-326.9856 c -48,-73 -95.0023,-138.0066 -144.0023,-215.0066 -208,-327 -425.9939,-671.9937 -626.9939,-1001.9938 -22,-37 -47.0073,-73.0026 -70.0073,-111.0026 l -416.9922,-669.0063 c -48,-73 -91.9943,-152.0021 -139.9943,-223.0022 -23,-34 -47.0073,-70.9946 -70.0073,-106.9946 -68,-107 -160.0034,-234.9998 -216.0034,-328.9998 -85,-141 -220.9891,-301.0038 -292.9891,-433.0038 h -2.0142 c 24,-25 602.0015,-399.9962 664.0015,-441.9962 73,-50.0001 151.0039,-95.0055 229.0039,-143.0055 77,-48 149.0039,-91.0005 229.0039,-138.0005 41,-24 80.9951,-42.9993 119.9951,-65.9993 179,-106 433.0081,-219.9909 629.008,-298.9909 317.1563,-128.0313 640.2241,-206.3918 963.2366,-207.6416 z M 1511.5067,2922.4971 c 33,32 604.9868,903.9911 648.9868,969.9911 l 210.0017,330.0171 c 35,55 65.9928,109.9983 100.9928,164.9984 35,55 69.0039,111.9953 104.0039,165.9953 173,269 342.0085,562.0047 517.0085,834.0047 17,27 35.002,55.9875 52.002,82.9875 12,19 45.005,67.0017 51.005,85.0017 -34,-61 -164.0034,-244.9888 -216.0034,-325.9888 -35,-55 -71.0119,-107.0077 -108.0119,-162.0077 L 1686.4945,3280.4887 c -44,-67 -185.0065,-272.9857 -215.0065,-326.9857 11,-16 22.0187,-26.0059 40.0187,-31.0059 z m -55.013,52.002 c 21,22 2058.002,3098.9912 2302.002,3469.9912 10,15 32.9935,43.0068 34.9935,57.0068 5,30 -6.9969,62.0034 -0.9969,91.0034 -21,-15 -852.9904,-1266.007 -910.9904,-1353.007 -101,-150 -202.9989,-300.0061 -302.9989,-452.0061 -100,-151 -200.0051,-299.9919 -301.0051,-449.9919 L 1443.4932,3093.4973 c -13,-20 -34.004,-38.0007 -25.004,-59.0007 7,-16 27.0045,-48.9975 38.0045,-59.9975 z m -54.9927,98.999 c 15,10 799.001,1189.0066 901.001,1340.0066 101,150 198.9878,297.0011 299.9878,447.0012 200,299 398.0163,594.9991 600.0163,894.9991 l 562.9883,838.9893 c 18,27 25.993,31.9919 21.993,74.9919 -16,-15 -132.9917,-190.9849 -153.9917,-221.9849 -147,-222 -309.0017,-447.9971 -460.0016,-671.9971 -51,-75 -101.9948,-147.0021 -152.9948,-223.0021 -49,-74 -100.9948,-150.0022 -152.9948,-223.0021 -104,-150 -204.0069,-297.995 -307.0069,-448.995 -204,-299 -408.9995,-594.9992 -611.9995,-894.9992 -102,-150 -204.0068,-300.0153 -307.0068,-449.0153 -12,-17 -263.9912,-381.985 -265.9912,-392.985 -2,-14 17.0009,-57.0074 26.0009,-70.0074 z m -38.0045,95.988 c 23,21 866.0063,1263.0065 919.0063,1340.0065 l 611.9996,894.9992 c 207,296 407.9933,601.0103 613.9933,898.0103 l 268.0054,390.9912 c 19.9999,29 8.0004,50.0097 13.0004,89.0097 -21,-18 -611.0092,-884.0072 -622.0092,-899.0072 -104,-149 -204.0038,-297.998 -308.0038,-447.9981 -206,-299 -410.0013,-602.0103 -618.0013,-898.0103 -259,-369 -514.9868,-755.9969 -773.9868,-1125.9969 -26,-37 -51.006,-73.9965 -77.006,-112.9965 -53,-76 -50.9979,-52.0079 -26.9979,-129.0079 z m -25.0041,96.0082 11.0067,11.0067 c 5,6 5.9894,8.9944 9.9894,14.9944 6,9 13.0023,18.9948 19.0023,27.9948 13,20 25.0045,35.013 38.0045,55.013 l 541.9922,787.9842 c 209,298 409.0044,600.0103 617.0044,898.0103 209,300 408.0013,598.9899 618.0013,897.99 104.0001,148 203.0038,299.0183 308.0038,448.0183 88,126 182.9992,271.9851 269.9992,392.9851 27,37 10.0085,36.014 17.0085,81.014 -14,-9 -603.0142,-863.0104 -627.0142,-898.0103 -102,-150 -204.9945,-297.995 -310.9945,-448.995 -209,-297 -416.0031,-602.004 -624.0031,-900.0041 -106,-151 -209.9883,-301.0091 -312.9883,-451.0091 -180,-262 -367.0032,-522.9935 -545.0032,-784.9935 -12,-18 -28.9984,-38.0069 -39.9984,-57.0069 -9,-15 0.9894,-54.9919 9.9894,-74.9919 z m -20.3247,98.3888 312.3373,447.6115 c 104,151 209.0024,302.9998 315.0024,453.9998 211,302 416.9907,603.009 627.9907,905.009 261,374 526.9967,752.9877 783.9966,1128.9877 52.0001,76 103.9996,152.01 157.9997,227.01 l 235.0057,338.9893 c 10,15 35.0046,43.9976 38.0046,59.9976 6,31 -5.0063,66.0145 1.9937,94.014 -17,-12 -135.9965,-192.0158 -158.9965,-225.0158 -53,-77 -105.0059,-150.9866 -156.0059,-227.9866 -92,-141.0001 -214.9914,-312.9937 -311.9914,-455.9937 -99,-146 -218.0086,-311.0141 -313.0086,-456.0141 -102,-155 -210.9914,-300.9936 -311.9914,-455.9936 -98,-149 -211.0117,-305.9937 -312.0117,-455.9937 L 1367.5045,3490.4903 c -56.4574,-82.2097 -62.8235,-72.3897 -49.3368,-126.6072 z m -14.3026,73.1404 632.6294,921.4682 c 53,76 105.9997,151.9977 157.9997,230.9977 99,149 216.9932,313.0127 317.9932,463.0127 l 477.0101,697.0012 c 108,156 208.9931,308.9923 317.9931,462.9923 107,153 211.0135,309.9924 318.0135,462.9924 54,77 103.9997,154.0008 157.9997,230.0008 27,38 50.9999,76.0106 78.9998,115.0102 30.0001,43 25.99,44.997 22.99,125.997 0,13 0,35.004 -5.0049,45.004 -14,-13 -292.9913,-436.007 -311.9913,-465.007 L 1322.5012,3506.5019 c -17.5872,-26.3807 -29.2944,-31.0463 -18.6361,-69.4784 z m -90.0471,58.8379 c 0.021,17.827 -3.8229,25.4723 -3.8657,34.5866 -0.2573,-9.4094 3.7356,-16.8261 3.8657,-34.5866 z m 78.6742,8.6263 c 15,13 624.0129,933.0185 634.0129,948.0185 107,161 209.9962,315.9928 316.9963,475.9928 l 1423.9909,2136.007 c 18,27 111.9964,154.983 112.9964,182.983 l -0.9968,0.997 c 0,30 -4.0018,64.015 -6.0018,94.015 -15,-11 -65.9937,-96.005 -80.9937,-117.005 -28,-39 -51.9998,-77.998 -78.9998,-118.998 -263,-395.0001 -536.9904,-792.0074 -785.9904,-1195.0074 -101,-164 -207.0038,-316.9947 -308.0038,-481.9947 -26,-42 -51.006,-82.992 -77.006,-120.992 l -153.9918,-243.0014 c -120,-197.9999 -261.0129,-406.0038 -384.0128,-604.0038 l -467.0004,-718.9942 c -27,-41 -51.0029,-81.0155 -78.0029,-120.0155 -14,-19 -74.9963,-98.0013 -66.9963,-118.0013 z m -204.2439,103.5563 c 1.9049,34.92 40.479,75.2358 67.2404,121.46 78,138.0001 170.0092,269.9825 247.0092,406.9825 13.3373,23.7106 26.4214,45.4819 39.6322,66.9759 -13.2104,-21.1673 -26.4218,-42.4735 -39.6322,-65.9588 -77,-137 -169.0092,-269.0027 -247.0092,-407.0027 -27.0182,-46.6678 -66.0328,-87.3061 -67.2404,-122.4569 z m 12232.0567,179.4028 c 3.495,-0.1521 6.261,-0.1469 8.199,0.042 l 1,101.0133 c -238,12 -471.012,21.9983 -707.012,39.9983 -1006,75 -2108.999,266.9995 -2986.999,736.9995 -309,165 -557.989,363.0014 -779.989,618.0014 -13.581,15.521 -23.434,40.371 -45.918,41.8498 0.511,-30.7301 33.187,-112.4724 44.921,-139.8519 38,-88 90.987,-159.9977 148.987,-230.9977 l 197.001,-183.0038 c 100,-79 233.01,-157.0097 352.01,-214.0097 690,-329 1669.987,-480.9985 2444.987,-585.9985 327.001,-44 680.005,-86.9863 1005.005,-135.9863 48.75,-7.5 265.38,-45.7735 317.811,-48.055 z m 11.189,122.0499 c 5,23 6.008,37.9913 4.008,61.9913 -19,7 -298.012,15.0054 -345.012,18.0054 -1242,73 -2863.001,292.9955 -3835.001,1086.9955 -36,29 -63.982,55.0078 -97.982,83.0078 -17,14 -31.017,27.9922 -47.017,41.9922 -19,16 -28.997,28.0002 -46.997,46.0002 -62,61 -59.986,75.0122 -109.986,75.0122 11,-18 26.999,-34.0143 39.999,-48.0144 239,-267 447.988,-419.0007 779.988,-605.0007 315,-176 706.995,-311.9873 1060.995,-411.9873 787,-222.0001 1728.005,-319.0022 2597.005,-348.0022 z m -15.564,86.3037 c 7.066,0.094 13.944,0.3167 20.569,0.6917 1,1 1,2.008 1,4.008 1,8 5.008,11.9983 4.008,39.9983 -22,9 -289.01,16.0023 -339.01,19.0023 -110,6 -219.993,12.993 -330.993,21.993 -1205.001,96 -2710.995,351.0108 -3639.995,1161.0108 l -71.004,63.9852 c -12,11 -13.014,10.0098 -35.014,10.0098 l 1.018,-1.9938 c 92,-102 266.995,-247.003 382.995,-328.003 459,-321 923.988,-502.9997 1490.988,-657.9997 708,-193 1603.008,-292.009 2359.009,-326.009 48.125,-1.75 106.968,-7.3362 156.432,-6.6936 z m 30.558,67.688 c 1,22 4.008,33.0099 4.008,56.0099 -769,18 -1740.001,117.0033 -2480.001,295.0033 -620,149 -1188.989,367.9921 -1680.989,745.9921 -32,25 -66.012,52.0029 -95.012,78.0029 -58,51 -51.997,57.998 -105.997,72.998 l -0.997,0.9969 c 23,-46 324.988,-263.9865 391.988,-306.9865 787,-504 1730.001,-722.0034 2664.002,-841.0034 348,-44 958.998,-98.0132 1302.998,-101.0132 z m -13.997,78.003 c 5,0 7.003,0 12.003,0.9968 13,2 14.995,5.0002 14.995,46.0002 -18,8 -568.982,31.0138 -643.982,35.0138 -208,13 -420.017,30.002 -626.017,52.002 -399,42 -793.994,96.9864 -1172.994,181.9864 -608,137 -1288.002,375.0109 -1756.002,786.0109 -14,13 -31,26.0014 -46,39.0014 -27,22.0001 -15.006,27.9837 -64.006,24.9837 l 1.018,-0.9969 c 18,-23 63.989,-57.9998 88.989,-78.9998 32,-26 61.005,-49.9888 97.005,-75.9888 502,-370 1045,-574.0021 1671,-723.0021 659,-156 1429.996,-238.0103 2119.996,-273.0103 z m -6.796,69.9259 c 12.741,0.1135 25.055,0.4531 36.805,1.0782 8,16 8.992,32.0051 8.992,51.0051 -19,5 -272.999,11.9974 -315.999,13.9974 -706,35 -1400.994,81.9942 -2093.994,218.9941 -519,102.0001 -1019.992,259.9967 -1449.992,533.9967 -142,90 -211.017,147.0061 -330.017,248.0061 -17,14 -26.001,29.9948 -59.001,27.9948 l -0.997,0.9969 c 13,-24 161.01,-135.9806 181.01,-150.9806 468,-356 1066.987,-556.0148 1648.987,-686.0148 630,-141.0001 1426.007,-213.9952 2090.006,-244.9952 84.875,-4.375 195.019,-14.8717 284.2,-14.0787 z m -11858.9067,32.0231 c 5.5781,9.0147 10.9839,17.6627 16.7033,27.0589 105,180 228.9998,367.9953 328.9998,540.9953 52,91 108.9984,181.9992 164.9984,269.9992 237,377 467.0078,769.9992 708.0078,1144.9992 l 465.0066,730.0008 c 114,170.0002 225.9941,353.0012 343.9941,526.0012 l 171.9971,262.003 139.9943,-69.01 c 47,-23 89.0098,-43.993 135.0098,-67.993 92,-47 180.9991,-87.99 269.9991,-134.99 129,-68 276.9997,-134.999 407.9997,-203.999 46,-24 88.9894,-44.014 134.9894,-68.014 89,-47 185.0041,-88.989 275.0041,-134.989 91,-46 185.001,-84.0083 276.001,-129.0083 89,-45 186.012,-85.9969 279.012,-125.9969 95,-41 184.9918,-84.997 278.9918,-125.997 379,-165 770.0068,-311.0134 1182.0064,-443.0134 209,-67 414.99,-126.9896 634.99,-180.9896 142,-35 208.01,-52.002 352.01,-52.002 129,-1 270.993,1.9982 396.993,-6.0018 487,-30 923.993,-139.9982 1258.993,-368.9982 42,-29 77.007,-60.0035 116.007,-91.0035 38,-30 81.011,-51.9949 128.011,-73.995 483,-226.9999 1094.994,-339.0088 1626.994,-405.0088 121,-15 244.001,-25.9874 368.001,-36.9874 124,-11 247.986,-25.0059 372.986,-31.0059 396,-21 794.02,-25.9979 1191.02,-26.9979 86.867,0 330.152,0.9865 403.564,-3.9876 0.105,0.2531 0.344,0.7427 0.428,0.9761 -73,5 -316.992,4.008 -403.992,4.008 -397,1 -795.02,6.9978 -1191.02,26.9978 -125,6.0001 -248.986,20.0059 -372.986,31.0059 -124,11 -247.001,22.0076 -368.001,37.0076 -532,66 -1144.994,177.9887 -1626.994,404.9887 -48,22 -91.011,44.9949 -128.011,73.9949 -39,31 -74.007,62.0034 -116.007,91.0034 -334,229 -771.993,338.9983 -1258.993,368.9983 -127,8 -267.993,5.0017 -396.993,6.0017 -145,1 -210.01,18.002 -352.01,52.002 -219,54 -425.99,114.0099 -634.99,181.0099 -411.9996,132 -803.0064,277.9933 -1182.0064,442.9933 -95,41 -183.9918,84.9968 -278.9918,125.9968 -93,40 -190.012,81.9969 -279.012,125.9969 -91,45 -185.001,83.008 -276.001,129.008 -90,46 -186.0041,87.989 -275.0041,134.989 -46,24 -88.9894,44.014 -134.9894,68.014 -131,69 -278.9997,135 -407.9997,204 -89,47 -177.9991,87.989 -269.9991,134.989 -46,23 -88.0098,44.014 -135.0098,68.014 l -139.9943,68.99 -171.9971,-262.004 c -118,-172 -229.9941,-356.001 -343.9941,-526.0008 L 2685.4976,6227.49 c -241,-375.0001 -471.0078,-767.9993 -708.0078,-1144.9993 -55,-88.0001 -112.9984,-178.9992 -164.9984,-269.9992 -99,-173 -223.9998,-360.9952 -328.9998,-540.9952 -5.5678,-9.6921 -11.1355,-18.8952 -16.7033,-28.0559 z m 11988.7087,32.0638 c 0,0.031 0.105,0.094 0.146,0.1218 8.157,78.8913 36.961,185.2138 58.859,259.8674 15,50 68.998,202.9933 72.998,238.9933 -0.105,0 -0.146,0 -0.219,0 -5.639,-36.3911 -58.872,-188.3445 -72.775,-237.9964 -22,-75 -51,-181.9863 -59,-260.9863 z m -111.084,11.2305 c 13.078,0.01 24.334,0.5198 32.084,1.77 6,23 6.01,31.9957 10.01,53.9957 -693,13 -1719.005,81.0012 -2393.005,197.0012 -577,99 -1177.005,274.9987 -1630.005,631.9987 l -131.999,108.9885 c -18,17 -23.996,34.0058 -53.996,31.0058 v -0.9969 c 44,-58 308.992,-240.9917 370.992,-278.9917 130,-82 279.007,-159.0021 432.007,-223.0021 313,-131 650.004,-226.0002 1012.004,-296.0002 718,-140.0001 1493.001,-189.0114 2230.001,-220.0114 27,-1.5 82.673,-5.8045 121.907,-5.7576 z m 2.32,76.1514 c 19.244,-0.1875 34.261,-0.01 43.761,0.6105 6,22 15.001,46.998 13.001,72.998 -792,29 -1601.989,51.0058 -2371.989,156.0058 -585,80 -1169.011,230.9986 -1628.011,585.9986 -30,23 -55.998,43.987 -85.998,69.987 l -63.009,56.0099 c -9,10 -9.992,15.0066 -28.992,11.0066 l 0.997,-0.9968 c 87,-88 252.003,-207.0072 361.003,-274.0072 131,-81 273.005,-154.0034 426.005,-216.0034 316,-128 645.992,-205.9993 1008.992,-269.9993 528,-94 1201.011,-139.9921 1753.012,-166.9921 95.375,-4.3751 436.519,-23.3051 571.228,-24.6176 z m 8.748,93.4856 c 20.805,-0.2698 38.77,-0.2532 53.019,0.1218 1,1 1,1.0115 1.994,3.0111 0,0 14.012,41.9994 16.012,65.9994 -1002.001,6 -2396.009,58.9951 -3346.009,369.9951 -247,81 -520.003,204.9982 -716.003,368.9982 -49,41 -59.991,65.0069 -94.991,57.0069 l 82.987,-77.006 c 227,-181 409.007,-288.0104 695.007,-398.0104 735.001,-283 1938.999,-336.0012 2756.999,-368.0012 120.75,-4.375 405.353,-20.2284 550.985,-22.1151 z m 81.014,88.1145 7.995,41.0156 c -765,8 -1550.992,41.9991 -2291.992,144.9992 -562,78 -1262.005,223.9908 -1735.005,548.9908 -49,34 -66.006,58.9989 -97.006,52.9989 h 1.018 c 29,-57 286.996,-210.9969 362.996,-250.9969 131,-68 282.998,-129.002 434.998,-177.002 316,-101 658.002,-168.9972 1006.002,-217.9972 571,-80 1131.004,-111.008 1709.004,-129.008 98,-3 197,-4.9987 296.001,-6.9987 94.999,-2 214.989,2.9983 305.99,-6.0017 z m 18.006,61.0147 c 6,16 26.007,72.9942 24.007,93.9942 -393,8 -795.009,-0.9906 -1188.009,-2.9907 -352,-2 -781.011,20.99 -1128.011,68.99 -463,63 -778.989,141.002 -1187.989,302.002 -73,29 -138.007,60.0003 -208.007,92.0003 -67,31 -131.995,63.9928 -198.995,100.9929 l -140.992,82.0109 c -21.753,11.8653 -36.689,3.2275 -58.288,3.0314 17.417,-27.8884 154.536,-110.1633 178.284,-123.0266 466,-270 1098.995,-405.0162 1632.995,-475.0162 364,-47 726.993,-80.9867 1100.993,-102.9867 392,-23 779.012,-27.0015 1174.012,-39.0015 z M 7561.23,5076.733 c 326.252,-2.2536 646.602,59.2105 989.258,204.773 26,11 93.001,40.9803 118.001,58.9803 l 14.018,12.0036 c -56,33 -84.002,3.0039 -144.002,-20.9961 -774,-317 -1771.0175,-67.0032 -2501.0175,204.9968 -561.0001,209 -1126.9992,474.9986 -1644.9993,756.9986 l -515.9912,287.0077 -1.9938,0.9969 v -99.9959 c 38,-24 91.9864,-43.9994 135.9864,-65.9994 47,-23 90.0035,-44.9993 137.0035,-65.9993 93,-43 177.9992,-89.0098 269.9992,-135.0098 l 401.9979,-206.9905 c 185,-96 498.002,-256.9985 677.002,-335.9985 l 279.012,-127.0142 c 289,-128 577.9974,-241.9857 888.9974,-326.9858 316.4063,-87.1875 608.8594,-138.7788 896.7284,-140.7674 z m 146.912,127.238 c 206.056,-0.4032 404.846,21.0815 592.346,69.519 73,19 241.019,71.9977 290.019,105.9977 l -5.005,2.0142 c -35,14 -35.006,13.9877 -64.006,3.9877 -400,-141 -900.003,-136.0011 -1308.003,-72.0011 -441.0004,69 -843.9951,194.0126 -1231.9951,338.0126 -683.0001,254 -1353.0088,602.0048 -1984.0088,959.0048 -35.6873,20.8176 -89.9853,56.3022 -125.9969,70.5567 v -69.5598 c 23,-22 466.0142,-264.9966 502.0142,-283.9966 897.75,-480.9375 2221.9318,-1121.3599 3334.6356,-1123.5352 z m 38.269,85.8561 c 35.617,-0.1042 70.985,0.45 106.079,1.6683 251,9.0001 441.008,45.9964 662.008,112.9964 l -12.004,6.9988 c -27,11 -92,-11.9962 -138,-20.9962 -56,-12 -109.993,-19.9948 -166.993,-27.9948 -350,-47 -724.005,-18.9936 -1064.005,44.0064 -780.0002,143 -1570.9976,473.9901 -2263.9976,818.9901 -288.0001,143 -597.9939,307.9942 -876.9939,468.9942 -40,23 -83.0062,50.0073 -123.0062,70.0073 l -0.9969,-53.9958 c 27,-22 454.9982,-257.012 493.9982,-279.012 934.8438,-511.5001 2279.7897,-1138.4357 3383.9114,-1141.6627 z m 116.17,69.7632 c 88.281,0.9063 176.663,5.663 264.913,14.913 54,6 296.998,36.9975 322.998,59.9975 -34,4 -12.001,21.0018 -72.001,6.0017 -783,-193 -1766.0035,111.9913 -2466.0036,390.9913 -467,187 -1095.9988,493.0062 -1552.9989,748.0063 -83,45.9999 -165.9889,92.0035 -246.9889,137.0035 -83,46 -163.0013,93.9974 -243.0013,138.9974 l -0.9969,-0.9969 -0.9968,-65.9993 487.9964,-272.0134 c 509.0001,-267 1005.9879,-526.0008 1549.9879,-730.0008 373,-140 753.0001,-268.9991 1171.0001,-348.9991 257.25,-48.75 521.249,-80.6199 786.092,-77.9012 z m -57.8,41.2802 c 193.68,-1.3013 426.962,15.3126 579.712,61.6251 -16,19 -35.995,25.9992 -60.995,19.9992 -946,-226.0001 -2135.0014,273.9935 -2960.0014,659.9935 -425,199 -963,488.0101 -1375,727.0101 -25,15 -108.0093,58.0012 -122.0093,72.0012 h -1.9939 c -3,-74 -7.989,-57.0119 82.011,-108.0119 296,-168 560.9871,-312.9818 865.9871,-472.9818 165,-87 340.0005,-171.0142 513.0005,-252.0142 700,-328 1563.007,-660.9999 2353.007,-703.9999 39,-2.0625 81.587,-3.321 126.282,-3.6213 z m -1.404,45.756 c 61.375,-0.125 122.626,1.8797 183.126,5.8797 58,4 113.997,9.9819 171.997,18.9819 27,4 53,8.0005 79,13.0005 l 59,12.0035 c 27,8.0001 11.006,1.0063 18.006,11.0068 -29,5 3.983,21.0048 -67.017,5.0048 -76,-18 -170.982,-32.0045 -248.982,-38.0045 -709,-61 -1519.0042,228.0018 -2137.0042,506.0018 -352.0001,159 -690.9992,322 -1019.9992,500 l -492.0044,267.985 c -43.0556,23.4848 -448.0187,258.016 -487.9152,275.594 l 1.9125,-59.5905 c 126.0001,-77 344.007,-198.9931 478.007,-271.9931 161,-87 322.9934,-175.0005 488.9934,-263.0005 788,-414 1878.0015,-912.9928 2789.0011,-975.9928 61,-4.5 122.504,-6.7516 183.879,-6.8766 z m 9.359,36.9873 c 157.117,0.8729 309.381,17.8597 453.756,54.8909 -18,23 -18.986,14.9845 -63.986,4.9845 -199,-45 -410.016,-57.9952 -613.016,-40.9952 -620.0005,53 -1203.9988,300.994 -1743.9988,547.994 -175,80 -337.9925,168.0173 -508.9925,251.0173 -133,64 -365.0032,190.9943 -499.0032,264.9943 -295,162 -566.0038,317.9977 -854.0038,480.9974 -31,18 -94.0032,59.008 -124.0032,70.008 l 1.0177,-60.018 c 8,-22 873.9924,-495.9956 962.9924,-540.9956 166,-84 326.9921,-174.0019 495.9921,-256.0018 654.75,-316.4062 1644.8103,-781.5874 2493.2453,-776.8758 z m -37.761,33.5489 c 42.389,0.1761 84.898,1.5836 127.523,4.3336 85,5 167,15.9996 250,32.9996 13,3 25.005,4.9956 38.005,7.9956 l 29.988,7.9956 c 3.161,2.1072 4.059,2.3378 4.252,2.2176 -0.153,0.083 -0.08,0.7615 2.747,4.8015 l -13,4.9845 c -8,1 -12,0.01 -20,-2.9907 -95,-24 -187.987,-39.0002 -286.987,-46.0002 -696,-48 -1482.9981,308.9867 -2072.9982,602.9867 -170,84 -338.011,171.0067 -503.011,261.0067 -83,46 -165.0031,89.0098 -249.003,135.0098 -376.0002,204 -730.9991,414.9858 -1098.9991,622.986 -34,20 -91,58.004 -125,71.004 l -0.9969,1.994 v -85.999 l 238.9932,-136.983 c 832,-470.9999 1913.0087,-1089.0162 2813.0088,-1350.0162 278.2502,-80.5 568.7582,-139.5565 865.4782,-138.3261 z m -7.527,34.0373 c 30.876,-0.042 61.572,0.7052 92.041,2.299 175,9 186.998,22.994 335.998,47.994 -7,21 -12.996,14.0089 -20.996,30.0089 -179,-69 -490.991,-44.0097 -686.991,-10.0098 -706.0003,125 -1543.9961,528.0058 -2178.9961,860.0058 -386,202 -840.0127,459.9914 -1213.0128,686.9911 -31.6308,18.781 -216.3687,135.074 -239.9494,141.622 l 1.9531,-54.606 c 48,-36 917.0033,-526.0161 966.0033,-554.0161 324.0001,-184 653.0014,-357.9855 993.0014,-530.9855 331,-168 692.9932,-332.014 1067.9932,-456.014 270.0623,-88.8125 584.4813,-162.8425 882.9553,-163.2894 z m 82.417,57.841 c 77.862,-0.3417 155.626,4.5749 232.626,19.4499 l 59.001,12.0035 c 25,9 10.008,2.0037 17.008,12.0037 -17,13 -4.999,4e-4 -6.999,13.0004 -178,-49 -504.007,-3.0003 -682.007,32.9997 -846.9997,170 -1883.9945,718.9974 -2652.9945,1138.9974 -235,129 -490.0021,277.9924 -723.0021,416.9924 -76,45 -160.0075,102.003 -241.0075,137.003 h -0.9969 l 3.0112,-52.998 c 36,-16 81.9839,-47.987 116.9839,-69.987 41,-25 78.0187,-47.005 119.0187,-71.005 235,-140 480.9879,-287.006 720.9879,-419.006 740,-408 1816.9936,-978.0018 2659.9933,-1131.0018 112,-20 227.012,-35.0046 345.012,-38.0046 11.125,-0.25 22.243,-0.399 33.366,-0.4479 z m 125.855,57.4137 c 49.969,0.2344 116.52,2.285 139.77,15.035 -681,90 -1419.9855,306.0159 -2043.9856,587.0159 -77,35 -153.0101,65.9897 -227.0101,101.9897 l -1512.9802,767.4157 183.9803,-107.422 c 67,-39.0002 132.006,-76.9905 202.006,-114.9905 136,-75 269.9905,-153.01 410.9905,-227.01 464,-241 788.0028,-413.989 1282.0028,-621.989 439,-185 1037.0103,-402.004 1523.0103,-400.004 10.75,0 25.56,-0.1188 42.216,-0.042 z" />
  <path
     class="fil0"
     d="m 4391.4972,6294.4959 c 518,-282 1084,-548 1645,-757 731,-272 1726.9998,-522 2500.9998,-205 61,25 88,54 144,21 l -14,-12 c -26,-18 -92,-48 -118,-59 -645,-273 -1212,-250 -1885.9998,-64 -310,86 -600,199 -889,327 l -279,127 c -179,79 -492,240 -677,336 l -402,207 c -93,46 -177,92 -270,135 -46,21 -90,43 -137,66 -43,22 -98,42 -136,66 v 100 l 516,-287 z"
     id="path15"
     style="stroke:#0f4c5c;stroke-opacity:1" />
  <path
     class="fil0"
     d="m 8810.497,5327.4959 c 24,-1 34,-27 48,-42 221,-255 470,-453 780,-618 878,-470 1981,-662 2987,-737 236,-18 469,-27 707,-40 l -1,-101 c -31,-3 -274,40 -326,48 -324,48 -678,91 -1005,136 -775,105 -1756,257 -2445,586 -119,57 -252,134 -352,214 l -197,183 c -58,70 -112,142 -149,231 -12,28 -46,113 -45,142 z"
     id="path17"
     style="stroke:#0f4c5c;stroke-opacity:1" />
  <path
     class="fil0"
     d="m 3872.4972,6682.4959 c 36,-15 90,-51 127,-71 630,-357 1300,-705 1984,-959 387,-144 790,-269 1231.9998,-338 409,-64 909,-69 1308,72 29,10 29,10 64,-4 l 5,-2 c -50,-34 -217,-87 -290,-106 -1199,-309 -2862.9998,485 -3926.9998,1054 -36,19 -479,262 -502,284 v 71 z"
     id="path19"
     style="stroke:#0f4c5c;stroke-opacity:1" />
  <path
     class="fil0"
     d="m 1457.4972,2975.4959 c -11,11 -32,44 -38,60 -9,22 11,39 25,59 l 834,1244 c 101,150 201,299 301,450 101,152 203,303 303,452 58,86 890,1338 911,1353 -6,-29 6,-61 1,-91 -2,-14 -26,-43 -35,-57 -244,-371 -2281,-3449 -2302,-3470 z"
     id="path21"
     style="stroke:#0f4c5c;stroke-opacity:1" />
  <path
     class="fil0"
     d="m 8855.497,5323.4959 c 50,1 48,-14 110,-75 19,-18 28,-29 47,-46 16,-14 30,-28 47,-42 34,-28 62,-54 98,-83 973,-793 2593,-1013 3835,-1087 47,-3 327,-11 345,-18 2,-24 1,-39 -4,-62 -869,29 -1809,126 -2597,348 -355,100 -746,235 -1061,412 -332,186 -541,337 -780,605 -13,14 -28,30 -40,48 z"
     id="path23"
     style="stroke:#0f4c5c;stroke-opacity:1" />
  <path
     class="fil0"
     d="m 3870.4972,6764.4959 c 40,-20 83,-47 123,-70 279,-161 589,-326 877,-469 693,-344 1485,-676 2263.9998,-819 340,-62 714,-90 1064,-44 57,8 110,16 167,28 47,10 111,33 138,21 l 12,-7 c -220,-67 -411,-104 -662,-113 -1122.9998,-39 -2524.9998,612 -3489.9998,1140 -39,21 -467,256 -494,279 z"
     id="path25"
     style="stroke:#0f4c5c;stroke-opacity:1" />
  <path
     class="fil0"
     d="m 9270.497,5321.4959 c 35,8 46,-16 95,-57 197,-164 470,-288 716,-369 950,-311 2344,-364 3346,-370 -2,-25 -16,-66 -16,-66 0,-2 -1,-2 -2,-3 -114,-3 -465,16 -604,22 -819,32 -2022,85 -2757,368 -287,110 -469,217 -695,398 z"
     id="path27"
     style="stroke:#0f4c5c;stroke-opacity:1" />
  <path
     class="fil0"
     d="m 3852.4972,7391.496 c 81,-35 165,-92 241,-137 233,-138 488,-288.0001 723,-417.0001 769,-420 1806,-969 2652.9998,-1139 178,-36 504,-81 682,-33 2,-13 -10,0 7,-13 -8,-10 8,-4 -17,-12 l -59,-12 c -87,-17 -177,-21 -266,-19 -118,2 -232,17 -345,38 -842.9998,153 -1919.9998,723 -2659.9998,1131 -240,132 -486,279.0001 -721,419.0001 -41,24 -78,46 -119,71 -35,21 -81,53 -117,70 l -3,53 z"
     id="path29"
     style="stroke:#0f4c5c;stroke-opacity:1" />
  <path
     class="fil0"
     d="m 2889.4972,5749.4959 -477,-697 c -101,-150 -219,-314 -318,-463 -52,-79 -105,-155 -158,-231 l -633,-922 c -12,41 -1,44 18,72 l 2146,3220 c 19,29 297,452.0001 312,465.0001 5,-11 4,-32 5,-45 3,-80 7,-82 -23,-126 -27,-40.0001 -52,-77.0001 -79,-115.0001 -54,-77 -104,-153 -158,-230 -107,-154 -210,-310 -318,-463 -108,-155 -209,-308 -318,-463 z"
     id="path31"
     style="stroke:#0f4c5c;stroke-opacity:1" />
  <path
     class="fil0"
     d="m 3856.4972,7312.496 c 19,-4 209,-123 241,-142 373,-227.0001 827,-484.0001 1213,-687.0001 635,-332 1473,-735 2178.9998,-860 196,-35 509,-59 687,10 8,-16 14,-9 21,-30 -150,-25 -162,-39 -336,-48 -325,-17 -678,63 -974.9998,161 -375,124 -737,288 -1068,456 -340,173 -669,347 -993,531 -48,28 -917,518.0001 -966,554.0001 l -2,56 z"
     id="path33"
     style="stroke:#0f4c5c;stroke-opacity:1" />
  <path
     class="fil0"
     d="m 3858.4972,7228.496 c 35,-13 91,-51 125,-71 368,-209.0001 723,-420.0001 1099,-623.0001 84,-46 166,-90 249,-135 165,-90 334,-176 503,-261 590,-293 1376.9998,-651 2072.9998,-603 99,7 192,22 287,46 9,2 12,4 20,3 l 13,-5 c -7,-11 1,-2 -7,-7 l -30,-8 c -14,-3 -25,-6 -38,-8 -83,-17 -165,-28 -250,-33 -341,-22 -675,42 -992.9998,134 -900,261 -1981,880 -2813,1350.0001 l -239,137 v 86 z"
     id="path35"
     style="stroke:#0f4c5c;stroke-opacity:1" />
  <path
     class="fil0"
     d="m 8927.497,5314.4959 c 21,1 23,1 35,-10 l 71,-64 c 929,-810 2435,-1065 3640,-1161 110,-9 221,-16 331,-22 50,-3 317,-10 339,-19 1,-29 -4,-32 -4,-40 0,-2 -1,-2 -1,-4 -54,-3 -123,4 -177,6 -755,34 -1650,132 -2359,326 -567,155 -1032,338 -1491,658 -116,81 -291,227 -383,328 z"
     id="path37"
     style="stroke:#0f4c5c;stroke-opacity:1" />
  <path
     class="fil0"
     d="m 2242.4972,4538.4959 c 208,296 412,599 618,898 104,150 203,299 308,448 11,15 600,881 622,899 -5,-39 7,-60 -13,-89 l -268,-391 c -206,-296 -407,-601 -614,-898 l -612,-895 c -53,-76 -896,-1319 -919,-1340 -24,77 -26,54 27,129 27,38 51,75 77,113 260,370 515,757 774,1126 z"
     id="path39"
     style="stroke:#0f4c5c;stroke-opacity:1" />
  <path
     class="fil0"
     d="m 3774.4972,7343.496 c 1,-30 6,-64 6,-94 0,-28 -94,-156 -113,-183 l -1424,-2136.0001 c -107,-160 -210,-316 -317,-476 -10,-16 -619,-936 -634,-948 -8,20 53,99 67,118 28,39 51,79 78,120 l 467,719 c 123,198 264,406 384,604 l 154,243 c 26,39 51,79 77,121 101,165 206,318 308,482 249,403 523,800 786,1195.0001 27,41 52,80 79,119 15,21 67,106 81,117 z"
     id="path41"
     style="stroke:#0f4c5c;stroke-opacity:1" />
  <path
     class="fil0"
     d="m 3514.4972,6526.4959 c -54,-75 -106,-151 -158,-227 -257,-376 -523,-755 -784,-1129 -211,-302 -417,-603 -628,-905 -105,-151 -210,-302 -315,-454 l -314,-450 c -14,56 -8,45 49,128 l 859,1252 c 101,150 215,307 312,456 101,155 211,301 312,456 95,145 214,310 313,456 97,144 220,315 312,456 51,78 103,151 156,228 23,33 142,213.0001 159,225.0001 -7,-29.0001 4,-64.0001 -2,-94.0001 -3,-16 -27,-45 -38,-60 l -235,-339 z"
     id="path43"
     style="stroke:#0f4c5c;stroke-opacity:1" />
  <path
     class="fil0"
     d="m 5844.4972,6371.4959 c 74,-37 150,-68 227,-102 624,-280 1362.9998,-497 2043.9998,-587 -31,-17 -139,-15 -182,-15 -486,-1 -1083.9998,216 -1522.9998,400 -494,208 -818,381 -1282,622 -141,73 -275,152 -411,227 -70,38 -134,76 -202,115.0001 l -197,115 1526,-774.0001 z"
     id="path45"
     style="stroke:#0f4c5c;stroke-opacity:1" />
  <path
     class="fil0"
     d="m 3869.4972,6855.4959 c 80,-45 161,-92 243,-139 81,-45 164,-91 247,-137 457,-255 1087,-561 1553,-748 700,-280 1682.9998,-584 2465.9998,-391 60,15 39,-2 72,-6 -26,-22 -269,-54 -323,-60 -353,-37 -708,-2 -1051,63 -417.9998,80 -796.9998,209 -1170.9998,349 -544,203 -1041,462 -1550,730 l -488,272 1,66 z"
     id="path47"
     style="stroke:#0f4c5c;stroke-opacity:1" />
  <path
     class="fil0"
     d="m 3021.4972,5554.4959 c 50,76 102,148 153,223 151,224 312,450 460,672 21,31 138,207 154,222 4,-43 -4,-48 -22,-75 l -563,-839 c -202,-299 -400,-596 -600,-895 -101,-150 -199,-297 -300,-447 -102,-151 -886,-1330 -901,-1340 -9,13 -28,56 -26,70 2,11 255,377 266,393 104,148 205,298 307,449 203,300 408,596 612,895 103,151 203,299 307,449 51,74 104,149 153,223 z"
     id="path49"
     style="stroke:#0f4c5c;stroke-opacity:1" />
  <path
     class="fil0"
     d="m 3194.4972,5959.4959 c -210,-299 -409,-598 -618,-898 -208,-298 -409,-600 -617,-898 l -542,-788 c -13,-20 -25,-35 -38,-55 -6,-9 -12,-18 -19,-28 -4,-6 -5,-9 -10,-15 l -11,-11 c -10,19 -19,59 -10,75 11,19 28,39 40,57 178,261 365,523 545,785 103,150 207,300 313,451 209,298 415,603 624,900 106,150 209,299 311,449 24,35 613,889 627,898 -7,-45 10,-44 -17,-81 -87,-121 -182,-267 -270,-393 -105,-149 -204,-300 -308,-448 z"
     id="path51"
     style="stroke:#0f4c5c;stroke-opacity:1" />
  <path
     class="fil0"
     d="m 3865.4972,6942.4959 c 14,-14 97,-57 122,-72 413,-239 951,-529 1375,-727 826,-386 2013.9998,-886 2959.9998,-660 25,6 45,-1 61,-20 -188,-57 -498,-69 -706,-58 -789.9998,43 -1651.9998,376 -2352.9998,704 -172,81 -348,165 -513,252 -305,160 -570,305 -866,473 -89,51 -85,34 -82,108 z"
     id="path53"
     style="stroke:#0f4c5c;stroke-opacity:1" />
  <path
     class="fil0"
     d="m 9368.497,5347.4959 c 23,0 37,9 59,-3 l 141,-82 c 66,-37 131,-70 199,-101 69,-32 135,-63 208,-92 408,-161 725,-239 1188,-302 348,-47 776,-70 1128,-69 394,2 795,11 1188,3 2,-21 -18,-77 -24,-94 -394,12 -782,16 -1174,39 -374,22 -736,55 -1101,103 -534,69 -1167,205 -1633,475 -24,14 -164,97 -179,124 z"
     id="path55"
     style="stroke:#0f4c5c;stroke-opacity:1" />
  <path
     class="fil0"
     d="m 9227.497,5314.4959 c 18,3 19,-1 29,-11 l 63,-56 c 30,-26 56,-47 86,-70 458,-355 1043,-505 1628,-586 771,-106 1580,-128 2372,-156 2,-25 -7,-50 -13,-73 -76,-4 -506,19 -615,24 -552,27 -1225,73 -1753,167 -362,65 -693,143 -1009,270 -153,62 -295,134 -426,216 -109,68 -274,186 -361,274 z"
     id="path57"
     style="stroke:#0f4c5c;stroke-opacity:1" />
  <path
     class="fil0"
     d="m 9322.497,5333.4959 c 30,6 48,-19 97,-53 473,-326 1173,-472 1735,-549 741,-102 1527,-137 2292,-145 l -8,-41 c -91,9 -212,4 -306,6 -99,2 -198,4 -296,7 -578,19 -1138,50 -1709,129 -348,48 -690,117 -1006,218 -152,48 -304,109 -435,177 -76,39 -334,194 -363,251 z"
     id="path59"
     style="stroke:#0f4c5c;stroke-opacity:1" />
  <path
     class="fil0"
     d="m 3862.4972,7027.496 c 23,-8 447,-253.0001 491,-277.0001 l 492,-268 c 329,-178 668,-341 1020,-500 618,-279 1426.9998,-568 2136.9998,-506 78,7 173,21 249,38 71,16 38,0 67,-5 -7,-10 8,-3 -18,-11 l -59,-12 c -26,-5 -52,-9 -79,-13 -58,-9 -113,-15 -172,-19 -122,-8 -246,-8 -367,1 -910.9998,64 -2000.9998,562 -2788.9998,976 -166,87 -328,176 -489,263 -135,73 -353,194 -478,272 l -2,62.0001 z"
     id="path61"
     style="stroke:#0f4c5c;stroke-opacity:1" />
  <path
     class="fil0"
     d="m 8989.497,5312.4959 c 55,-15 48,-22 106,-73 29,-26 63,-53 95,-78 492,-379 1061,-597 1681,-746 740,-178 1711,-278 2480,-295 0,-23 -3,-34 -4,-56 -344,3 -955,56 -1303,101 -934,119 -1877,337 -2664,841 -66,43 -369,261 -392,307 z"
     id="path63"
     style="stroke:#0f4c5c;stroke-opacity:1" />
  <path
     class="fil0"
     d="m 3860.4972,7117.496 c 30,-10 92,-52 124,-70 288,-163.0001 559,-318.0001 854,-481.0001 135,-74 366,-201 499,-265 171,-83 335,-171 509,-251 540,-247 1124,-496 1743.9998,-548 204,-17 414,-4 613,41 45,10 46,18 64,-5 -924,-237 -2170.9998,347 -2946.9998,722 -169,82 -330,171 -496,256 -89,45 -955,518.0001 -963,541.0001 z"
     id="path65"
     style="stroke:#0f4c5c;stroke-opacity:1" />
  <path
     class="fil0"
     d="m 9052.497,5306.4959 c 49,4 37,-2 64,-25 15,-12 31,-26 46,-39 468,-411 1148,-649 1756,-786 379,-85 774,-140 1173,-182 207,-22 418,-39 626,-52 75,-5 626,-27 644,-35 0,-41 -2,-43 -15,-46 -5,-1 -7,-1 -12,-1 l -304,14 c -690,35 -1461,116 -2120,273 -626,149 -1169,353 -1671,723 -35,26 -65,50 -97,76 -26,21 -72,57 -89,79 z"
     id="path67"
     style="stroke:#0f4c5c;stroke-opacity:1" />
  <path
     class="fil0"
     d="m 9123.497,5307.4959 c 33,2 42,-14 59,-28 119,-102 188,-158 330,-248 430,-273 931,-431 1450,-534 693,-137 1388,-184 2094,-219 44,-2 298,-9 316,-14 0,-19 0,-35 -9,-51 -94,-5 -224,8 -321,13 -664,31 -1460,104 -2090,245 -582,130 -1181,330 -1649,686 -19,15 -167,127 -181,151 z"
     id="path69"
     style="stroke:#0f4c5c;stroke-opacity:1" />
  <path
     class="fil0"
     d="m 9178.497,5310.4959 c 30,3 36,-14 54,-31 l 132,-109 c 453,-357 1053,-533 1630,-632 674,-116 1700,-184 2393,-197 -4,-22 -5,-31 -10,-54 -31,-5 -118,3 -154,4 -737,31 -1513,80 -2230,220 -363,71 -699,166 -1012,296 -153,64 -301,141 -432,223 -62,39 -327,221 -371,279 z"
     id="path71"
     style="stroke:#0f4c5c;stroke-opacity:1" />
  <path
     class="fil0"
     d="m 3093.4972,5389.4959 c -175,-272 -345,-564 -517,-834 -35,-54 -69,-112 -104,-166 -35,-55 -66,-110 -101,-165 l -210,-330 c -43,-66 -615,-939 -649,-970 -17,5 -29,15 -40,31 30,54 170,260 215,327 l 1185,1787 c 37,56 73,107 108,162 52,80 181,265 216,326 -6,-19 -39,-67 -51,-85 -17,-27 -34,-56 -52,-83 z"
     id="path73"
     style="stroke:#0f4c5c;stroke-opacity:1" />
</svg>
