<?xml version="1.0" encoding="UTF-8" standalone="no"?>
<svg
   xmlns:dc="http://purl.org/dc/elements/1.1/"
   xmlns:cc="http://creativecommons.org/ns#"
   xmlns:rdf="http://www.w3.org/1999/02/22-rdf-syntax-ns#"
   xmlns:svg="http://www.w3.org/2000/svg"
   xmlns="http://www.w3.org/2000/svg"
   xmlns:sodipodi="http://sodipodi.sourceforge.net/DTD/sodipodi-0.dtd"
   xmlns:inkscape="http://www.inkscape.org/namespaces/inkscape"
   inkscape:version="1.0 (4035a4fb49, 2020-05-01)"
   sodipodi:docname="loko.svg"
   id="svg1962"
   version="1.1"
   viewBox="0 0 463.89285 438.87704">
  <metadata
     id="metadata1968">
    <rdf:RDF>
      <cc:Work
         rdf:about="">
        <dc:format>image/svg+xml</dc:format>
        <dc:type
           rdf:resource="http://purl.org/dc/dcmitype/StillImage" />
        <dc:title></dc:title>
      </cc:Work>
    </rdf:RDF>
  </metadata>
  <defs
     id="defs1966" />
  <sodipodi:namedview
     inkscape:current-layer="svg1962"
     inkscape:window-maximized="1"
     inkscape:window-y="0"
     inkscape:window-x="0"
     inkscape:cy="219.43852"
     inkscape:cx="231.94643"
     inkscape:zoom="1.7678925"
     showgrid="false"
     id="namedview1964"
     inkscape:window-height="1016"
     inkscape:window-width="1920"
     inkscape:pageshadow="2"
     inkscape:pageopacity="0"
     guidetolerance="10"
     gridtolerance="10"
     objecttolerance="10"
     borderopacity="1"
     bordercolor="#666666"
     pagecolor="#ffffff" />
  <g
     style="fill:#ffffff"
     id="g1960"
     transform="translate(-42.339 -276.34)">
    <path
       style="fill:#ffffff"
       id="path1954"
       d="m437.15 499.44zl-162.81-144.19-162.91 144.25v206.12c0 5.3234 4.3016 9.5938 9.625 9.5938h101.81v-90.375c0-5.3234 4.2704-9.625 9.5938-9.625h83.656c5.3234 0 9.5938 4.3016 9.5938 9.625v90.375h101.84c5.3234 0 9.5938-4.2704 9.5938-9.5938v-206.19zm-325.72 0.0625z" />
    <path
       style="fill:#ffffff"
       id="path1956"
       d="m273.39 276.34-231.05 204.58 24.338 27.457 207.66-183.88 207.61 183.88 24.291-27.457-231-204.58-0.89792 1.0397-0.94518-1.0397z" />
    <path
       style="fill:#ffffff"
       id="path1958"
       d="m111.43 305.79h58.571l-0.51038 34.691-58.061 52.452v-87.143z" />
  </g>
</svg>
