<?xml version="1.0" encoding="UTF-8" standalone="no"?>
<svg
   xmlns:dc="http://purl.org/dc/elements/1.1/"
   xmlns:cc="http://creativecommons.org/ns#"
   xmlns:rdf="http://www.w3.org/1999/02/22-rdf-syntax-ns#"
   xmlns:svg="http://www.w3.org/2000/svg"
   xmlns="http://www.w3.org/2000/svg"
   xmlns:sodipodi="http://sodipodi.sourceforge.net/DTD/sodipodi-0.dtd"
   xmlns:inkscape="http://www.inkscape.org/namespaces/inkscape"
   inkscape:version="1.0 (4035a4fb49, 2020-05-01)"
   sodipodi:docname="lupo.svg"
   id="svg2059"
   viewBox="0 0 91.268188 108.01728"
   height="108.01728"
   width="91.268188"
   version="1.1">
  <metadata
     id="metadata2065">
    <rdf:RDF>
      <cc:Work
         rdf:about="">
        <dc:format>image/svg+xml</dc:format>
        <dc:type
           rdf:resource="http://purl.org/dc/dcmitype/StillImage" />
        <dc:title></dc:title>
      </cc:Work>
    </rdf:RDF>
  </metadata>
  <defs
     id="defs2063" />
  <sodipodi:namedview
     inkscape:current-layer="svg2059"
     inkscape:window-maximized="1"
     inkscape:window-y="0"
     inkscape:window-x="0"
     inkscape:cy="-16.53882"
     inkscape:cx="-120.93948"
     inkscape:zoom="0.79496662"
     fit-margin-bottom="4"
     fit-margin-right="4"
     fit-margin-left="4"
     lock-margins="true"
     fit-margin-top="4"
     showgrid="false"
     id="namedview2061"
     inkscape:window-height="1016"
     inkscape:window-width="1920"
     inkscape:pageshadow="2"
     inkscape:pageopacity="0"
     guidetolerance="10"
     gridtolerance="10"
     objecttolerance="10"
     borderopacity="1"
     bordercolor="#666666"
     pagecolor="#ffffff" />
  <g
     transform="translate(-420.93948,-504.53882)"
     style="fill:#5f0f40;fill-opacity:1"
     id="layer1">
    <g
       id="g2056"
       style="fill:#5f0f40;fill-opacity:1;stroke-linejoin:miter">
      <path
         style="fill:#5f0f40;fill-opacity:1"
         id="path2054"
         d="m 495.00082,508.8509 c -0.14782,0.16424 -0.34484,0.70617 -0.427,1.1989 -0.0821,0.50916 -0.36132,1.2481 -0.6405,1.6916 -0.27918,0.4434 -0.5091,0.87036 -0.5091,0.969 0,0.45977 -0.95257,2.4306 -1.80657,3.67876 -0.9361,1.37954 -1.97077,2.4635 -3.51453,3.64594 -0.98542,0.7554 -1.75732,2.0365 -2.29926,3.8102 -0.2464,0.8047 -0.49266,1.44517 -0.55841,1.44517 -0.0657,0 -0.427,0.29563 -0.80475,0.67343 -0.39416,0.3613 -1.31384,1.0018 -2.0529,1.4124 -0.75545,0.41057 -1.49452,0.854 -1.6423,1.00175 -1.0839,0.95255 0.88685,3.90875 2.9562,4.45075 0.75548,0.21344 0.854,0.45984 0.4434,1.166 -0.1314,0.22993 -0.2299,0.7226 -0.24633,1.10035 0,0.37781 -0.0986,0.88685 -0.22997,1.14965 -0.90327,1.7737 -1.42878,3.0547 -1.3631,3.31746 0.0986,0.41058 -0.1642,0.83758 -0.54194,0.83758 -0.19708,0 -0.34491,0.16426 -0.41058,0.49276 -0.0657,0.26273 -0.27918,0.62406 -0.47632,0.7883 -0.45984,0.3613 -0.67334,0.77186 -0.8211,1.51093 -0.0657,0.41053 -0.39416,0.87043 -1.05116,1.56017 -1.41235,1.44527 -2.28277,2.06935 -3.99078,2.92335 -1.46167,0.70618 -4.84484,1.92145 -5.37042,1.92145 -0.37768,0 -3.7116,0.85407 -3.89227,0.9855 -0.0822,0.0821 -0.80475,0.29557 -1.57666,0.4762 -0.78827,0.19705 -1.69153,0.4599 -2.0036,0.5912 -0.32843,0.1315 -0.80475,0.2464 -1.05109,0.2464 -0.24634,0 -0.87042,0.14785 -1.3631,0.34487 -0.49273,0.19708 -1.56024,0.44343 -2.34858,0.55833 -0.80474,0.1314 -1.7244,0.3614 -2.05284,0.5421 -0.3285,0.16415 -0.88686,0.36124 -1.21534,0.427 -0.90326,0.1642 -1.69159,0.5255 -2.29925,1.0674 -0.29567,0.24635 -0.80475,0.59126 -1.11677,0.7555 -0.57482,0.29566 -1.1168,0.7062 -2.4635,1.90516 -0.41058,0.34479 -0.98535,0.78824 -1.281,0.96894 -0.2956,0.18066 -0.67334,0.55834 -0.8211,0.8375 -0.1479,0.27925 -0.60773,0.8212 -1.0019,1.199 -1.11676,1.06744 -1.6751,1.83935 -2.16778,3.07104 -0.26282,0.62416 -0.65699,1.39606 -0.88692,1.70806 -0.24632,0.3121 -0.427,0.72266 -0.39415,0.9361 0.0328,0.427 -0.0986,1.1004 -0.427,1.938 -0.11493,0.31206 -0.2956,0.88683 -0.39411,1.2645 -0.0986,0.37776 -0.24639,0.7391 -0.32849,0.77187 -0.0822,0.0493 -0.32849,0.49273 -0.57483,0.98547 -0.24632,0.49266 -0.62408,1.00186 -0.83758,1.14966 -0.22992,0.14777 -0.41059,0.3448 -0.41059,0.4434 0,0.0821 -0.57475,0.87044 -1.26458,1.74086 -0.70617,0.85401 -1.42877,1.77374 -1.6095,2.0365 -0.1806,0.26274 -0.44337,0.5091 -0.57477,0.55834 -0.47632,0.14784 -1.77374,1.4945 -2.23352,2.28285 -0.36138,0.64045 -0.62414,0.88685 -1.24823,1.1496 -0.49267,0.19715 -0.78827,0.427 -0.78827,0.59125 0,0.3284 -0.37774,0.67333 -1.1004,1.051 -0.27918,0.14785 -0.57478,0.42714 -0.64044,0.62417 -0.18067,0.59123 -1.05114,1.57659 -1.47814,1.67513 -0.2135,0.0657 -0.39412,0.21354 -0.39412,0.3449 0,0.1314 -0.2135,0.5584 -0.49273,0.93614 -0.26275,0.36126 -0.49268,0.73906 -0.49268,0.82116 0,0.0985 -0.14777,0.3777 -0.32849,0.6241 -0.1806,0.24633 -0.34485,0.68975 -0.37775,0.969 -0.0328,0.27916 -0.11493,0.55834 -0.16423,0.6241 -0.0656,0.0492 -0.11494,0.2955 -0.11494,0.5419 0,0.2299 -0.11493,0.57483 -0.24634,0.7555 -0.13142,0.1642 -0.24634,0.5255 -0.24634,0.77185 0,0.57485 0.47632,1.42875 0.78827,1.42875 0.13141,0 0.52558,0.2629 0.87049,0.57485 0.68976,0.60765 1.51092,0.77191 1.69152,0.32849 0.11499,-0.32849 0.47632,-0.31204 0.82124,0.0493 0.27917,0.32849 0.82116,2.57844 1.00176,4.2207 0.11499,1.13318 0.50916,2.93974 0.85401,4.02374 0.13141,0.4106 0.27923,1.62586 0.32849,2.7097 0.0985,1.87233 0.11499,2.00374 0.55841,2.51284 0.26275,0.29556 0.47626,0.59126 0.47626,0.6734 0,0.0656 0.2135,0.36126 0.49267,0.64046 l 0.49274,0.5255 1.18249,-0.2792 c 0.65687,-0.1314 1.28101,-0.3284 1.39594,-0.41057 0.11493,-0.0985 0.31207,-0.0985 0.49267,0 0.64051,0.32847 1.34668,0.36133 1.62592,0.0822 0.16424,-0.16426 0.49268,-0.26283 0.80469,-0.2464 1.24817,0.0821 0.72265,-0.44343 -2.0857,-2.1021 -1.79015,-1.0511 -2.0365,-1.3632 -2.18432,-2.67697 -0.0492,-0.55847 -0.24633,-2.16796 -0.427,-3.5639 -0.18067,-1.39593 -0.27918,-2.80833 -0.22993,-3.13678 0.0822,-0.50922 0.47626,-0.96899 2.2007,-2.66065 1.708,-1.6751 2.31566,-2.1678 3.20257,-2.562 0.59118,-0.2792 1.16607,-0.50904 1.2481,-0.50904 0.0822,0 0.39423,-0.21356 0.68983,-0.4599 0.2956,-0.26276 1.42883,-0.93616 2.51275,-1.51096 1.08392,-0.57473 2.23352,-1.1988 2.54559,-1.39596 0.31201,-0.19704 1.06751,-0.52554 1.65869,-0.72259 1.2154,-0.39415 3.71167,-1.62585 4.48359,-2.20075 0.27923,-0.21344 0.95251,-0.5255 1.4945,-0.68976 0.68976,-0.22994 1.19892,-0.54194 1.69158,-1.03464 1.00184,-0.98544 1.3467,-0.8868 1.3467,0.4106 0,0.6898 -1.01826,3.1204 -1.7737,4.23714 -0.31206,0.44346 -0.854,1.34676 -1.1989,1.98731 -0.3449,0.64045 -0.82117,1.2481 -1.03467,1.36305 -0.52551,0.29564 -0.91968,1.1825 -0.91968,2.10215 0,0.7555 0.0328,0.80475 1.52735,2.25 2.29925,2.23355 3.07116,3.33395 3.07116,4.35215 0,0.3777 0.3941,1.1004 0.82111,1.4945 0.34491,0.32846 0.82116,1.1989 0.82116,1.51096 0,0.55834 0.59125,1.42884 1.01825,1.51094 0.36132,0.0821 1.52742,0.2135 2.80842,0.3449 0.32842,0.0492 0.75543,0.1478 0.9361,0.2463 0.36132,0.1971 0.9854,0.0821 0.9854,-0.1806 0,-0.0986 0.22992,-0.115 0.5584,-0.0657 0.41054,0.0821 0.57478,0.0492 0.64052,-0.14783 0.0493,-0.13141 0.36126,-0.29567 0.67328,-0.36133 0.3285,-0.0492 0.59124,-0.16418 0.59124,-0.24634 0,-0.0657 -0.44342,-0.49274 -0.96894,-0.9525 -0.80474,-0.657 -1.13323,-0.82124 -1.85583,-0.91975 -1.44519,-0.18065 -1.85583,-0.34491 -2.49633,-0.95252 -1.08394,-1.05113 -2.70978,-3.25183 -2.9726,-4.0401 -0.14784,-0.41058 -0.44342,-1.1004 -0.67334,-1.54373 -0.45984,-0.887 -0.47626,-1.2647 -0.14783,-2.7756 0.18067,-0.88684 0.39417,-1.2974 1.06751,-2.16785 0.68976,-0.88685 1.18249,-1.281 3.08758,-2.44705 1.23176,-0.7719 2.64411,-1.60947 3.12037,-1.8558 0.47631,-0.26276 1.05114,-0.7062 1.28107,-1.0019 0.2299,-0.2955 0.47625,-0.5419 0.57482,-0.5419 0.082,0 0.60761,-0.2957 1.1496,-0.64053 0.67334,-0.44342 1.10034,-0.85401 1.31384,-1.28107 0.16424,-0.36127 0.57477,-0.9197 0.90326,-1.26446 0.62415,-0.65699 1.70801,-2.7428 1.70801,-3.30114 0.0164,-0.34486 0.59125,-2.15144 0.68982,-2.1021 0.427,0.2463 0.65685,0.2134 0.96893,-0.18075 0.39417,-0.50905 0.64057,-0.54195 0.64057,-0.11495 0,0.2136 0.16418,0.3285 0.6076,0.3942 0.32849,0.0657 0.68975,0.0328 0.80475,-0.0657 0.11493,-0.0986 0.32843,-0.1478 0.49268,-0.1149 0.19708,0.0328 0.32849,-0.0822 0.39416,-0.345 0.11499,-0.52556 0.49274,-0.6405 0.60766,-0.19707 0.0986,0.37781 0.31208,0.4599 0.427,0.13141 0.0493,-0.14784 0.11494,-0.14784 0.31208,0.0164 0.19702,0.14784 0.427,0.16424 0.96892,0.0492 0.64052,-0.14775 0.7555,-0.13133 0.9526,0.14784 0.2299,0.34486 0.9525,0.44346 1.46166,0.1806 0.45984,-0.22984 1.39594,-0.54194 1.88867,-0.62404 0.55835,-0.1149 1.01825,0.22994 0.75543,0.54195 -0.14782,0.18075 -0.11493,0.36139 0.0821,0.78839 0.14782,0.31196 0.26281,0.64046 0.26281,0.73896 0,0.0822 0.22993,0.49273 0.49268,0.9033 0.27925,0.39424 0.60765,0.98537 0.73901,1.31386 0.13141,0.31207 0.32849,0.62414 0.427,0.68974 0.0986,0.0493 0.3285,0.41066 0.49274,0.78835 0.18067,0.36139 0.37775,0.78825 0.45984,0.91965 0.29559,0.5256 0.55841,1.4453 0.68982,2.4143 0.13134,1.0675 0.37769,1.69156 0.6405,1.69156 0.18061,0 1.14954,1.42884 1.14954,1.70801 0,0.11493 0.115,0.34493 0.2464,0.52553 0.13135,0.1642 0.24634,0.45994 0.24634,0.65696 0,0.18064 0.18066,0.57484 0.41058,0.88684 0.22992,0.3121 0.41058,0.68976 0.41058,0.8376 0,0.16423 0.22992,0.5419 0.5091,0.8376 0.57483,0.62406 2.1186,3.728 2.1186,4.27005 0,0.21345 0.1807,0.67328 0.3942,1.03455 0.96895,1.5931 1.39595,2.4307 1.49446,2.907 0.14784,0.6569 1.00184,1.0346 2.95618,1.2974 2.16784,0.2956 5.83026,0.2956 6.38866,0 0.36128,-0.19714 0.54194,-0.19714 0.98536,-0.0493 0.57484,0.2135 1.88867,0.22995 2.56201,0.0493 0.41059,-0.115 0.68983,-0.67333 0.32849,-0.67333 -0.0985,0 -0.6405,-0.39417 -1.23176,-0.87042 -0.57482,-0.4599 -1.39592,-0.98542 -1.8394,-1.14965 -1.37952,-0.54194 -1.59302,-0.6734 -2.5456,-1.6259 -1.10034,-1.1004 -1.41235,-1.9379 -1.51092,-3.9908 -0.0328,-0.72267 -0.19708,-1.64235 -0.34485,-2.0365 -0.32849,-0.8869 -0.52557,-2.4471 -0.65698,-5.1077 -0.0821,-1.97074 -0.22992,-3.4488 -0.57477,-5.7481 -0.0822,-0.59123 -0.19708,-1.3959 -0.26276,-1.8065 -0.19714,-1.34674 -0.26282,-2.365 -0.31207,-5.00904 -0.0328,-2.44706 0.0328,-3.44896 0.37775,-5.09126 0.19708,-0.8868 1.31384,-2.61125 2.0036,-3.07115 0.70623,-0.4762 1.6095,-1.74085 1.6259,-2.24995 0.0164,-0.23 0.14778,-0.55846 0.31202,-0.739 0.19708,-0.21357 0.37775,-0.8376 0.50916,-1.6588 0.0985,-0.77187 0.27917,-1.39595 0.427,-1.49446 0.14782,-0.11504 0.24634,-0.4599 0.24634,-0.85401 0,-0.427 0.0821,-0.68973 0.24634,-0.75549 0.16424,-0.0493 0.24634,-0.31207 0.24634,-0.78824 0,-0.91977 0.427,-3.1697 0.6898,-3.6296 0.14778,-0.2463 0.22993,-1.2811 0.24635,-3.2354 0.0164,-1.5766 0.0657,-3.39956 0.13135,-4.0237 0.0657,-0.7719 0.0328,-1.4288 -0.13135,-2.0036 -0.14782,-0.5748 -0.18065,-1.11676 -0.0986,-1.64234 0.0822,-0.57483 0.0493,-0.88676 -0.11493,-1.14959 -0.13141,-0.19707 -0.22992,-0.62417 -0.22992,-0.93607 0,-0.78836 -0.4599,-2.89053 -0.68983,-3.1697 -0.11492,-0.14783 -0.19707,-1.05115 -0.2135,-2.3321 -0.0164,-1.1661 -0.0821,-2.20074 -0.14782,-2.29926 -0.0657,-0.0985 -0.19702,-0.62404 -0.27918,-1.18249 -0.0821,-0.55841 -0.32842,-1.34675 -0.54192,-1.77375 -0.70618,-1.3959 -0.83758,-2.34844 -0.52558,-3.7773 0.57483,-2.56205 1.33033,-5.0583 1.93793,-6.2901 0.34491,-0.68973 0.62415,-1.4288 0.62415,-1.6424 0,-0.95236 -0.22998,-1.64224 -0.59125,-1.8885 -0.36133,-0.23 -0.427,-0.23 -0.83765,0.0328 -0.26275,0.16426 -0.90326,0.72255 -1.42878,1.2646 -1.54375,1.51087 -1.9215,1.28095 -2.21715,-1.34674 -0.22992,-2.15143 -0.68975,-3.15326 -2.05292,-4.48358 -0.93603,-0.90326 -2.26636,-1.75726 -2.77545,-1.75726 -0.13141,0 -0.34491,0.13135 -0.50916,0.31208 z" />
    </g>
  </g>
</svg>
