<?xml version="1.0" encoding="UTF-8" standalone="no"?>
<svg
   xmlns:dc="http://purl.org/dc/elements/1.1/"
   xmlns:cc="http://creativecommons.org/ns#"
   xmlns:rdf="http://www.w3.org/1999/02/22-rdf-syntax-ns#"
   xmlns:svg="http://www.w3.org/2000/svg"
   xmlns="http://www.w3.org/2000/svg"
   xmlns:sodipodi="http://sodipodi.sourceforge.net/DTD/sodipodi-0.dtd"
   xmlns:inkscape="http://www.inkscape.org/namespaces/inkscape"
   inkscape:version="1.0 (4035a4fb49, 2020-05-01)"
   sodipodi:docname="malbenita.svg"
   viewBox="0 0 1193.3581 1034.7493"
   height="1034.7493"
   width="1193.3582"
   xml:space="preserve"
   id="svg2"
   version="1.1"><metadata
     id="metadata8"><rdf:RDF><cc:Work
         rdf:about=""><dc:format>image/svg+xml</dc:format><dc:type
           rdf:resource="http://purl.org/dc/dcmitype/StillImage" /><dc:title></dc:title></cc:Work></rdf:RDF></metadata><defs
     id="defs6"><clipPath
       id="clipPath18"
       clipPathUnits="userSpaceOnUse"><path
         id="path16"
         d="M 0,746.062 H 865.019 V 0 H 0 Z" /></clipPath></defs><sodipodi:namedview
     inkscape:current-layer="g10"
     inkscape:window-maximized="1"
     inkscape:window-y="0"
     inkscape:window-x="0"
     inkscape:cy="517.37397"
     inkscape:cx="596.67879"
     inkscape:zoom="0.7799818"
     fit-margin-bottom="20"
     fit-margin-right="20"
     fit-margin-left="20"
     lock-margins="true"
     fit-margin-top="20"
     showgrid="false"
     id="namedview4"
     inkscape:window-height="1016"
     inkscape:window-width="1920"
     inkscape:pageshadow="2"
     inkscape:pageopacity="0"
     guidetolerance="10"
     gridtolerance="10"
     objecttolerance="10"
     borderopacity="1"
     bordercolor="#666666"
     pagecolor="#ffffff" /><g
     transform="matrix(1.3333333,0,0,-1.3333333,19.999467,1014.7493)"
     inkscape:label="voo-doo-doll-5403291"
     inkscape:groupmode="layer"
     id="g10"><path
       d="m 512.4074,598.7466 c -0.084,0.084 -0.252,0.191 -0.236,0.247 0.055,0.202 0.173,0.387 0.267,0.578 0.09,-0.077 0.27,-0.183 0.256,-0.228 -0.066,-0.208 -0.185,-0.4 -0.287,-0.597 m -74.597,-29.283 c -0.052,0.215 -0.086,0.346 -0.118,0.477 0.072,-0.029 0.203,-0.054 0.206,-0.089 0.008,-0.096 -0.039,-0.195 -0.088,-0.388 m 96.967,122.151 c 1.595,0.068 3.186,-1.386 3.309,-3.024 0.133,-1.784 -1.474,-3.497 -3.244,-3.461 -1.625,0.034 -3.086,1.545 -3.103,3.211 -0.017,1.704 1.373,3.202 3.038,3.274 m -71.299,21.467 c 0.017,1.633 1.524,3.186 3.132,3.228 1.628,0.043 3.145,-1.417 3.223,-3.1 0.086,-1.847 -1.511,-3.51 -3.286,-3.421 -1.616,0.081 -3.084,1.657 -3.069,3.293 m -299.057,17.076 c -1.845,0.072 -3.309,1.699 -3.178,3.53 0.13,1.825 1.816,3.256 3.633,3.084 1.679,-0.159 3,-1.642 2.979,-3.343 -0.024,-1.864 -1.578,-3.344 -3.434,-3.271 m 606.154,-306.614 c -0.022,1.631 1.442,3.134 3.12,3.202 1.683,0.068 3.23,-1.292 3.36,-2.954 0.138,-1.763 -1.494,-3.444 -3.3,-3.4 -1.684,0.04 -3.159,1.503 -3.18,3.152 m -543.384,223.334 c -3.935,2.491 -4.721,12.405 -1.759,16.209 0.558,-5.135 1.153,-10.627 1.759,-16.209 m -173.239,52.357 c 0.044,1.659 1.895,3.428 3.55,3.393 1.761,-0.037 3.39,-1.747 3.361,-3.527 -0.03,-1.782 -1.722,-3.414 -3.497,-3.373 -1.714,0.04 -3.459,1.832 -3.414,3.507 m 352.278,-22.982 c 1.681,-0.041 3.365,-1.738 3.423,-3.452 0.065,-1.899 -1.692,-3.731 -3.551,-3.702 -1.871,0.029 -3.531,1.902 -3.389,3.825 0.131,1.766 1.826,3.37 3.517,3.329 m 420.298,-283.183 c 1.838,0.013 3.657,-1.725 3.781,-3.612 0.125,-1.901 -1.514,-3.687 -3.491,-3.803 -2.085,-0.122 -3.905,1.623 -3.927,3.766 -0.019,1.936 1.673,3.635 3.637,3.649 m -513.989,131.056 c 0.454,-6.466 -1.6,-17.92 -3.932,-25.605 -1.252,-4.126 -4.008,-6.512 -7.75,-8.985 2.581,5.957 5.097,11.34 7.255,16.863 2.228,5.704 3.844,11.608 4.427,17.727 m 200.77,77.155 -0.823,0.144 10.459,64.929 c 0.275,0.075 0.55,0.15 0.824,0.226 0.477,-0.578 1.239,-1.101 1.358,-1.744 0.154,-0.828 -0.187,-1.756 -0.35,-2.633 -2.525,-13.56 -5.046,-27.122 -7.591,-40.678 -1.267,-6.753 -2.583,-13.496 -3.877,-20.244 m -352.047,109.927 c 0.293,0.165 0.586,0.331 0.878,0.496 0.553,-0.46 1.353,-0.816 1.6,-1.405 0.382,-0.915 0.445,-1.983 0.543,-2.995 1.062,-10.932 2.074,-21.869 3.159,-32.798 0.97,-9.782 2.041,-19.556 3.014,-29.338 0.385,-3.863 0.626,-7.74 0.933,-11.611 -3.89,25.834 -7.133,51.728 -10.127,77.651 m 317.027,-101.226 c -0.483,-0.039 -0.964,-0.078 -1.445,-0.118 -4.491,26.454 -8.953,52.913 -12.941,79.644 0.973,-0.159 1.825,-0.448 2.087,-1.012 0.417,-0.896 0.465,-1.971 0.624,-2.978 3.754,-23.719 7.507,-47.439 11.24,-71.163 0.228,-1.444 0.293,-2.914 0.435,-4.373 m 236.56,-316.55 c -0.238,0.134 -0.477,0.268 -0.715,0.401 14.731,35.426 29.462,70.852 44.207,106.273 0.239,0.576 0.63,1.09 0.974,1.618 0.055,0.083 0.233,0.104 0.358,0.118 0.12,0.013 0.244,-0.019 0.591,-0.053 1.299,-1.298 0.002,-2.491 -0.48,-3.621 -12.226,-28.596 -24.48,-57.179 -36.737,-85.761 -2.716,-6.332 -5.464,-12.651 -8.198,-18.975 m -190.082,126.553 c -12.946,-3.953 -24.098,-11.019 -34.827,-17.517 -3.987,1.602 -7.466,2.998 -11.449,4.598 0.698,0.449 1.007,0.677 1.341,0.857 10.828,5.84 21.843,11.28 33.477,15.349 5.973,2.089 5.996,2.029 10.783,-2.152 0.177,-0.155 0.257,-0.421 0.675,-1.135 m -276.473,206.25 -0.191,-0.565 c -6.775,1.782 -13.539,3.612 -20.33,5.332 -5.826,1.475 -11.679,2.846 -17.528,4.228 -8.093,1.913 -16.166,3.93 -24.304,5.631 -3.837,0.802 -7.805,0.97 -11.91,1.449 v 3.23 c 1.083,0.075 2.092,0.28 3.074,0.191 8.799,-0.791 17.577,-1.783 26.105,-4.196 2.94,-0.832 5.971,-1.748 8.562,-3.295 2.973,-1.776 5.418,-1.122 8.468,0.216 -1.204,1.663 -2.216,3.059 -3.323,4.587 4.022,-0.389 13.815,-5.171 17.308,-8.054 2.126,-1.755 4.508,-3.22 6.861,-4.675 2.346,-1.451 4.801,-2.726 7.208,-4.079 m 167.704,-281.602 c -7.146,-7.712 -13.965,-15.07 -20.983,-22.644 -2.744,3.785 -5.641,7.781 -8.654,11.938 5.656,8.455 12.009,15.951 20.034,22.556 3.411,-4.209 6.586,-8.127 9.603,-11.85 m 301.798,-278.649 c -0.112,-0.215 -0.222,-0.429 -0.333,-0.644 -0.97,0.183 -2.007,0.205 -2.9,0.574 -5.071,2.095 -10.294,3.927 -15.119,6.499 -9.543,5.086 -17.47,12.425 -25.638,19.397 -5.062,4.321 -10.156,8.577 -16.286,11.401 -6.26,2.884 -12.563,3 -18.377,-0.569 -8.652,-5.312 -15.666,-12.351 -19.565,-21.97 -3.227,-7.959 -4.28,-16.219 -3.232,-24.795 1.338,-10.941 4.736,-20.915 12.615,-28.983 0.43,-0.44 0.608,-1.13 0.903,-1.703 -0.189,-0.165 -0.378,-0.33 -0.567,-0.495 -0.727,0.56 -1.627,0.992 -2.152,1.702 -4.171,5.65 -8.736,11.079 -12.29,17.102 -6.572,11.137 -10.096,23.231 -8.338,36.333 1.729,12.872 7.724,23.192 19.055,30.005 11.241,6.76 25.917,5.132 35.198,-3.588 4.557,-4.281 9.349,-8.344 14.28,-12.19 12.437,-9.7 25.964,-17.757 39.519,-25.759 1.136,-0.67 2.154,-1.54 3.227,-2.317 m 90.578,86.113 c 0.495,1.854 0.716,2.935 1.069,3.971 5.105,14.943 8.358,30.295 10.082,45.976 1.256,11.415 2.309,22.855 3.658,34.259 0.979,8.269 2.628,16.402 6.197,24.036 4.833,10.34 12.724,17.353 22.964,21.783 7.387,-5.219 9.798,-33.294 6.612,-43.254 -0.959,0.247 -1.915,0.597 -2.899,0.724 -2.005,0.258 -4.046,0.676 -6.037,0.529 -5.182,-0.386 -9.051,-3.249 -12.168,-7.207 -3.513,-4.463 -5.991,-9.509 -8.022,-14.785 -4.426,-11.497 -6.969,-23.527 -10.07,-35.405 -2.034,-7.785 -4.418,-15.482 -6.804,-23.171 -0.784,-2.523 -1.964,-4.956 -4.582,-7.456 m -531.968,266.568 c -10.572,0.659 -20.888,0.859 -31.181,-0.331 -10.317,-1.192 -20.402,-3.482 -30.569,-6.417 0.434,0.993 1.262,1.396 1.939,1.977 5.431,4.657 10.792,9.395 16.251,14.018 20.295,17.186 40.985,33.88 62.329,49.75 2.42,1.799 5.246,3.048 7.7,4.808 3.211,2.302 6.156,4.976 9.367,7.276 3.802,2.725 7.766,5.221 11.753,7.879 6.702,-9.364 13.116,-18.327 20.005,-27.955 -1.765,0.367 -2.66,0.439 -3.47,0.74 -5.038,1.872 -10.157,3.323 -15.56,3.694 -5.344,0.368 -10.678,1.271 -16.014,1.256 -9.002,-0.025 -17.411,-2.53 -24.963,-7.576 -0.656,-0.439 -1.156,-1.113 -2.164,-2.108 1.972,-0.592 3.406,-0.998 4.821,-1.459 0.677,-0.221 1.383,-0.451 1.969,-0.838 4.363,-2.878 8.65,-5.873 13.06,-8.676 3.198,-2.033 6.546,-3.829 9.822,-5.728 -0.856,-1.733 -1.649,-1.608 -2.697,-0.927 -2.358,1.534 -4.732,3.055 -7.176,4.448 -5.886,3.356 -11.757,6.727 -18.327,8.688 -1.368,0.408 -2.462,1.733 -4.007,2.876 -1.84,-1.094 -3.094,-3.149 -3.217,-5.653 -0.148,-3.04 0.098,-6.102 0.213,-9.153 0.304,-8.042 0.7,-16.081 0.896,-24.126 0.052,-2.109 -0.494,-4.233 -0.78,-6.463 m 67.155,77.284 c 35.044,-3.189 68.895,-10.272 101.957,-20.956 34.551,-11.165 88.745,-34.483 95.817,-40.986 -0.734,-0.154 -1.319,-0.318 -1.914,-0.395 -13.77,-1.778 -27.163,-5.172 -40.052,-10.246 -9.155,-3.605 -18.032,-7.927 -26.981,-12.042 -1.858,-0.855 -3.433,-1.246 -5.418,-0.32 -2.424,1.13 -5.022,1.892 -7.556,2.779 -21.591,7.546 -43.174,15.113 -64.786,22.598 -3.614,1.252 -7.298,2.455 -11.049,3.133 -12.688,2.291 -25.413,4.374 -38.138,6.455 -4.638,0.758 -9.261,1.878 -14.044,0.968 -1.619,-0.308 -3.311,-0.238 -4.97,-0.32 -1.402,-0.069 -2.801,0.293 -2.85,1.867 -0.076,2.424 -1.651,3.663 -3.275,4.884 -5.217,3.922 -10.489,7.771 -15.726,11.666 -0.648,0.483 -1.213,1.077 -2.052,1.832 0.763,0.211 1.103,0.386 1.443,0.387 7.162,0.008 14.328,0.152 21.483,-0.087 2.876,-0.096 5.789,-0.822 8.572,-1.645 5.502,-1.627 10.92,-3.538 16.387,-5.284 0.81,-0.258 1.771,-0.533 2.541,-0.333 3.012,0.786 3.776,3.461 1.958,5.977 -5.016,6.943 -9.975,13.928 -14.945,20.906 -3.391,4.76 -6.764,9.535 -10.147,14.306 33.793,22.475 69.529,41.073 104.197,62.414 1.824,-4.967 3.513,-9.569 5.336,-14.535 -4.551,-0.479 -8.033,1.779 -11.82,2.587 -0.185,-3.885 1.835,-6.653 5.965,-7.981 7.619,-2.451 14.679,-1.18 20.97,3.769 1.27,1.001 2.235,2.435 3.197,3.772 0.794,1.104 1.088,2.41 -0.101,3.466 -1.167,1.036 -2.052,0.054 -3.043,-0.546 -2.443,-1.482 -4.951,-2.858 -7.674,-4.415 -2.178,6.365 -4.157,12.147 -6.212,18.155 12.488,8.108 24.236,16.793 35.589,26.836 1.112,-6.193 2.094,-11.656 3.078,-17.126 -3.344,-0.498 -5.366,2.54 -8.332,2.062 0.546,-3.602 1.148,-4.593 3.597,-6.103 5.949,-3.669 15.295,-2.925 20.487,1.755 1.001,0.902 1.839,2.14 2.35,3.388 0.538,1.314 -0.545,2.271 -1.915,1.821 -0.839,-0.275 -1.571,-0.858 -2.39,-1.21 -1.964,-0.845 -3.953,-1.635 -6.369,-2.626 -1.333,8.154 -2.582,15.8 -3.846,23.542 8.259,3.879 16.243,6.389 25.442,3.009 -2.921,-18.571 -5.822,-37.017 -8.863,-56.348 -2.739,2.572 -4.784,4.491 -7.038,6.607 -1.293,-3.816 -0.151,-6.573 2.182,-8.785 3.591,-3.405 8.02,-5.147 12.948,-4.795 2.184,0.155 4.332,1.282 6.408,2.174 0.436,0.187 0.822,1.414 0.619,1.91 -0.192,0.466 -1.194,0.835 -1.839,0.833 -1.996,-0.007 -3.992,-0.211 -5.991,-0.338 -0.152,4.807 8.13,50.26 9.623,52.724 0.883,-1.39 1.765,-2.624 2.489,-3.945 3.413,-6.234 4.547,-13.065 4.548,-20.017 10e-4,-15.831 -4.602,-30.529 -11.799,-44.467 -7.172,-13.892 -16.617,-26.063 -28.062,-36.722 -6.295,-5.863 -13.034,-11.118 -20.186,-15.874 -1.282,-0.852 -2.329,-0.938 -3.876,-0.425 -9.104,3.017 -18.164,6.28 -27.45,8.621 -23.346,5.883 -47.058,9.914 -70.957,12.81 -5.667,0.687 -11.35,1.244 -17.251,1.886 -0.101,-1.145 -0.164,-1.866 -0.266,-3.027 m 389.453,-248.041 c 4.879,6.825 9.215,12.892 13.551,18.959 0.617,-0.435 0.878,-0.539 1.022,-0.731 9.602,-12.8 19.166,-25.63 28.824,-38.388 1.29,-1.705 1.276,-3.322 0.463,-4.987 -1.956,-4 -4.054,-7.931 -6.215,-12.125 0.325,-0.289 0.955,-0.849 1.558,-1.386 3.662,2.968 6.754,6.834 9.778,13.36 5.382,11.615 10.369,23.413 15.765,35.021 4.278,9.207 9.363,17.934 16.945,24.941 5.552,5.131 12.025,8.165 19.572,8.79 5.355,0.444 10.678,-0.434 13.801,-2.161 -13.561,-1.588 -20.257,-7.373 -25.542,-20.091 -2.919,-7.021 -4.505,-14.438 -5.383,-21.949 -1.824,-15.617 -3.333,-31.269 -5.09,-46.893 -1.863,-16.566 -4.53,-32.979 -10.24,-48.742 -0.582,-1.608 -1.258,-3.181 -1.923,-4.852 -4.619,4.171 -8.777,8.121 -13.139,11.831 -19.667,16.726 -41.216,30.787 -63.207,44.176 -30.743,18.719 -62.3,35.971 -94.853,51.344 -13.764,6.499 -27.615,12.842 -41.648,18.727 -11.552,4.846 -23.431,8.914 -35.167,13.321 -1.424,0.535 -2.663,0.964 -3.338,2.738 -3.997,10.495 -10.043,19.857 -16.614,28.877 -6.572,9.02 -13.664,17.611 -22.555,24.489 -1.658,1.282 -2.368,2.707 -2.836,4.688 -2.118,8.964 -4.196,17.951 -6.774,26.787 -1.962,6.726 -4.655,13.239 -7.094,20.048 0.259,0.192 0.538,0.455 0.864,0.63 15.404,8.252 31.314,15.246 48.444,19.097 9.63,2.164 19.356,3.428 29.267,2.519 2.579,-0.237 4.941,-0.804 7.23,-2.2 24.523,-14.952 47.934,-31.484 70.333,-49.444 21.691,-17.39 42.145,-36.153 61.535,-56.076 0.79,-0.813 1.527,-1.678 2.455,-2.703 -4.61,-10.966 -9.19,-21.864 -13.806,-32.848 -4.069,1.742 -5.002,5.883 -7.948,8.088 -1.876,-3.216 -1.897,-5.54 0.266,-8.645 3.662,-5.257 8.787,-8.149 15.206,-8.378 1.996,-0.072 4.073,0.353 6.008,0.911 1.485,0.427 2.7,1.473 1.899,3.427 -2.598,0.332 -5.071,0.648 -7.923,1.012 4.469,9.842 8.737,19.238 13.298,29.278 7.235,-8.194 14.055,-15.917 20.989,-23.769 -4.746,-7.352 -9.362,-14.315 -14.441,-21.644 -1.943,2.967 -3.491,5.329 -5.111,7.802 -2.283,-3.143 -2.489,-5.543 -0.662,-8.779 2.933,-5.194 7.417,-8.523 13.236,-9.613 2.43,-0.456 5.072,0.006 7.585,0.32 1.101,0.137 2.362,1.019 1.898,2.369 -0.234,0.68 -1.434,1.25 -2.293,1.448 -2.331,0.537 -4.713,0.849 -7.99,1.406 m -515.233,69.051 c 2.068,-7.019 3.967,-13.776 6.077,-20.466 0.784,-2.487 0.29,-4.282 -1.352,-6.274 -12.34,-14.964 -25.907,-28.636 -41.392,-40.379 -20.238,-15.346 -42.37,-26.782 -67.145,-32.765 -16.465,-3.978 -33.076,-5.293 -49.812,-1.802 -7.859,1.64 -15.186,4.55 -21.361,9.912 -6.162,5.352 -8.48,13.094 -5.84,20.409 0.488,1.353 1.439,2.788 2.588,3.612 15.111,10.848 28.911,23.248 42.413,35.973 10.62,10.011 20.95,20.331 31.369,30.554 10.058,9.868 20.04,19.81 30.1,29.675 9.965,9.772 19.928,19.548 30,29.21 8.493,8.149 17.149,16.128 25.714,24.202 2.184,2.059 4.636,3.532 7.611,4.153 10.263,2.141 20.46,4.666 30.79,6.412 12.74,2.153 25.603,3.406 38.571,2.365 2.109,-0.169 4.215,-0.353 6.762,-0.567 0.712,9.241 1.394,18.095 2.074,26.915 0.643,0.117 1.022,0.271 1.384,0.239 7.002,-0.608 13.993,-1.385 21.006,-1.808 4.014,-0.242 7.404,-1.652 10.551,-3.992 2.268,-1.685 4.632,-3.089 7.586,-3.433 1.132,-0.131 2.247,-1.119 3.204,-1.916 5.196,-4.33 10.167,-8.949 15.535,-13.05 17.834,-13.623 34.729,-28.288 50.282,-44.477 2.89,-3.008 5.612,-6.177 8.506,-9.377 -14.988,-15.432 -28.199,-31.672 -38.99,-49.815 -10.797,-18.15 -18.877,-37.382 -23.328,-58.819 -21.688,18.273 -42.568,36.531 -66.962,50.045 0.368,1.241 0.67,2.215 0.945,3.195 2.14,7.648 2.554,15.348 0.539,23.084 -0.46,1.767 -0.74,3.763 -3.323,4.774 -2.446,-12.818 -4.95,-25.392 -9.837,-37.548 -2.546,1.307 -4.644,2.386 -6.911,3.552 3.16,4.732 5.208,9.396 6.315,14.444 2.629,11.99 1.414,23.732 -3.094,35.01 -2.216,5.543 -5.458,10.681 -8.316,15.959 -0.607,1.122 -1.539,2.233 -3.092,1.439 -1.466,-0.749 -0.668,-1.919 -0.448,-3.02 2.007,-10.032 3.997,-20.068 5.933,-30.115 0.203,-1.052 0.028,-2.177 0.028,-3.308 -3.136,0.37 -3.073,0.329 -4.546,-1.943 -5.433,-8.378 -10.903,-16.733 -16.392,-25.075 -0.428,-0.65 -1.117,-1.13 -2.033,-2.031 -0.213,1.162 -0.306,1.76 -0.433,2.351 -0.947,4.41 -2.305,8.669 -4.824,12.464 -1.876,2.825 -3.136,3.201 -6.452,2.032 m 383.711,-263.007 c -0.808,0.607 -1.574,1.281 -2.43,1.812 -9.679,6.006 -19.377,11.983 -29.055,17.99 -1.012,0.628 -1.932,1.405 -3.189,2.329 1.223,0.622 1.898,0.96 2.568,1.307 6.17,3.184 11.108,7.734 14.872,13.547 0.682,1.055 1.32,2.257 1.516,3.467 0.136,0.835 -0.274,2.218 -0.896,2.585 -0.594,0.35 -1.984,-0.035 -2.652,-0.566 -0.971,-0.77 -1.642,-1.939 -2.385,-2.977 -3.006,-4.198 -6.437,-7.938 -10.903,-10.651 -2.138,-1.298 -4.176,-2.762 -6.402,-4.247 -20.336,13.056 -40.377,26.657 -60.405,41.188 5.484,2.662 9.853,5.68 13.293,9.935 3.757,4.649 6.665,9.704 7.81,15.634 0.247,1.281 0.841,2.735 -0.833,3.999 -5.954,-11.353 -14.365,-20.032 -25.69,-25.595 -0.823,0.563 -1.249,0.841 -1.661,1.14 -26.143,18.896 -51.552,38.744 -76.266,59.463 -18.811,15.769 -37.292,31.932 -55.98,47.848 -2.01,1.712 -2.536,3.445 -2.025,5.995 2.479,12.383 6.637,24.187 12.124,35.517 11.036,22.794 26.093,42.75 43.461,61.043 1.774,1.868 3.329,4.232 6.595,3.447 0.643,-0.154 1.443,0.45 2.19,0.615 5.118,1.131 10.2,2.507 15.371,3.296 11.014,1.678 22.106,2.339 33.254,1.616 8.418,-0.547 16.841,-1.008 25.256,-1.593 1.079,-0.075 2.288,-0.436 3.155,-1.058 11.386,-8.156 21.088,-17.973 27.651,-30.414 5.848,-11.086 11.028,-22.525 16.47,-33.825 0.196,-0.405 0.047,-0.976 0.059,-1.47 l -0.113,0.124 c 0.651,-0.932 1.437,-1.797 1.933,-2.805 4.124,-8.382 8.069,-16.856 12.309,-25.178 9.903,-19.437 21.682,-37.714 34.611,-55.262 13.978,-18.967 29.007,-37.07 45.302,-54.078 12.128,-12.658 24.624,-24.962 36.944,-37.434 0.719,-0.728 1.338,-1.555 2.003,-2.336 -2.599,-0.315 -3.506,1.536 -4.779,2.755 -8.281,7.922 -17.607,14.072 -28.886,16.71 -11.948,2.794 -23.164,1.055 -33.097,-6.479 -9.193,-6.973 -13.814,-16.578 -15.177,-27.844 -1.052,-8.691 0.497,-17.065 3.479,-25.233 0.493,-1.354 1.749,-2.694 0.566,-4.299 0.01,-0.007 0.021,-0.013 0.032,-0.018 m -466.252,384.995 c -1.335,0.393 -2.724,0.658 -3.995,1.199 -7.678,3.273 -15.011,7.187 -21.855,11.987 -15.423,10.819 -27.497,24.449 -35.055,41.854 -3.082,7.095 -5.048,14.503 -5.987,22.181 -0.138,1.136 -0.042,2.444 -2.18,2.032 -0.165,-1.541 -0.442,-3.165 -0.495,-4.798 -0.198,-6.074 0.708,-12.001 2.55,-17.79 5.08,-15.962 14.733,-28.911 26.927,-40.018 15.971,-14.549 34.555,-24.117 55.865,-28.192 0.812,-0.156 1.548,-0.702 2.345,-1.047 4.244,0.463 11.845,-0.22 13.941,-1.253 -0.125,-0.198 -0.274,-0.582 -0.371,-0.569 -4.51,0.596 -9.015,1.227 -13.521,1.854 -4.7,0.128 -9.471,1.12 -14.581,-0.845 3.385,-3.372 7.639,-3.024 11.371,-4.83 -1.664,0 -2.951,-0.128 -4.206,0.019 -28.771,3.368 -51.804,16.542 -67.502,41.069 -20.265,31.664 -21.884,64.694 -4.735,98.192 11.032,21.55 28.615,36.83 49.34,48.747 0.318,0.182 0.711,0.233 1.374,0.441 4.118,-4.732 8.296,-9.532 12.623,-14.503 -2.755,-2.304 -6.211,-2.014 -9.314,-3.481 0.654,-0.79 1.004,-1.485 1.569,-1.847 2.175,-1.394 4.607,-1.606 7.033,-0.935 6.919,1.916 11.659,6.219 13.798,13.154 0.369,1.197 0.425,2.52 0.442,3.787 0.016,1.168 -0.226,2.595 -1.678,2.52 -0.698,-0.036 -1.574,-1.131 -1.955,-1.942 -1.071,-2.277 -2.007,-4.603 -4.136,-6.695 -3.883,4.65 -7.534,9.022 -11.47,13.736 12.056,5.615 23.918,10.291 36.762,13.09 0.064,-1.281 0.099,-1.994 0.146,-2.915 -1.799,0.45 -3.315,0.829 -5.071,1.269 1.625,-4.32 4.913,-5.875 9.745,-4.974 4.707,0.878 6.647,2.526 6.581,5.76 -1.198,-0.304 -2.36,-0.598 -3.629,-0.92 -0.146,0.732 -0.289,1.222 -0.331,1.72 -0.049,0.592 -0.011,1.19 -0.011,1.745 0.621,0.195 0.972,0.344 1.339,0.416 11.104,2.196 22.294,2.958 33.615,2.487 15.728,-0.655 30.717,-4.417 44.732,-11.338 21.58,-10.659 37.645,-27.058 46.746,-49.443 12.543,-30.85 9.321,-60.162 -10.421,-87.305 -1.182,-1.626 -2.729,-3.053 -4.316,-4.308 -9.037,-7.142 -18.09,-14.266 -27.234,-21.27 -5.67,-4.343 -10.781,-9.541 -17.554,-12.276 -7.355,-2.969 -14.622,-6.282 -22.193,-8.566 -26.447,-7.98 -52.961,-8.043 -79.37,0.432 -1.152,0.369 -2.254,0.894 -3.438,1.37 7.033,9.571 7.267,22.84 0.491,26.771 -0.171,-2.98 -0.197,-5.886 -0.532,-8.756 -0.667,-5.71 -1.504,-11.401 -2.267,-17.096 0.33,-0.04 0.659,-0.08 0.989,-0.12 l -0.141,-0.312 z m 114.124,-134.145 -0.126,0.174 0.145,-0.131 c -0.883,-3.74 -1.779,-7.443 -0.358,-11.307 0.269,-0.731 -0.312,-1.962 -0.816,-2.764 -8.823,-14.016 -18.825,-27.08 -31.126,-38.266 -0.602,-0.548 -1.397,-0.883 -2.496,-1.56 -0.196,4.342 0.56,8.425 -1.875,11.039 3.977,4.282 7.663,8.362 11.47,12.328 8.516,8.871 16.697,18 23.091,28.588 0.465,0.768 1.386,1.26 2.091,1.899 m 278.865,271.225 c 1.997,0.131 1.719,-1.578 2.012,-2.658 2.61,-9.619 2.073,-19.244 -0.23,-28.818 -3.113,-12.936 -8.741,-24.797 -15.701,-36.066 -0.507,-0.82 -1.118,-1.575 -1.695,-2.382 -1.295,3.293 -2.488,6.331 -3.738,9.51 0.018,0.045 0.08,0.304 0.218,0.512 0.423,0.64 0.88,1.255 1.316,1.886 7.688,11.16 13.575,23.162 16.557,36.44 1.592,7.096 2.842,14.272 1.328,21.618 0.066,0.523 0.132,1.046 0.199,1.57 0.116,-0.039 0.233,-0.077 0.349,-0.116 -0.205,-0.499 -0.41,-0.997 -0.615,-1.496 m -392.781,49.71 -0.071,0.165 0.173,-0.029 c -2.515,-0.885 -4.97,-2.044 -7.555,-2.591 -4.29,-0.907 -5.525,-0.099 -7.925,4.372 12.816,6.576 26.815,9.336 40.6,12.32 0.25,4.388 -3.545,3.23 -5.828,4.818 3.802,0.742 6.973,1.462 10.412,0.615 0.41,-3.109 0.806,-6.108 1.229,-9.317 -1.088,-0.13 -1.824,-0.301 -2.558,-0.293 -11.257,0.125 -22.021,-2.707 -32.802,-5.44 -1.925,-0.487 -3.539,-1.339 -3.991,-3.701 2.728,-1.482 5.593,-0.696 8.316,-0.919 m 2.721,-24.856 1.652,-3.165 c -0.739,0.957 -2.572,1.344 -1.672,3.151 -0.475,0.124 -0.95,0.248 -1.425,0.372 -1.231,1.558 -2.462,3.116 -3.693,4.675 -0.76,0.635 -1.628,1.176 -2.262,1.919 -18.031,21.107 -36.04,42.235 -54.049,63.361 -2.325,2.727 -4.631,5.469 -6.949,8.201 -1.151,1.357 -0.384,1.927 0.954,2.458 0.831,-0.934 1.619,-1.762 2.344,-2.642 18.393,-22.315 36.787,-44.63 55.152,-66.968 1.683,-2.047 3.164,-4.26 4.738,-6.398 1.221,-1.566 2.443,-3.133 3.674,-4.693 0.512,-0.091 1.024,-0.18 1.536,-0.271 m 607.436,-330.271 0.093,-0.115 c 0.459,0.831 0.918,1.662 1.377,2.492 0.637,1.102 1.217,2.242 1.92,3.3 19.788,29.741 39.588,59.475 59.388,89.209 0.567,0.852 1.076,1.766 1.772,2.5 0.307,0.323 1.014,0.265 2.118,0.508 -0.587,-1.299 -0.835,-2.116 -1.285,-2.8 -1.764,-2.669 -3.593,-5.295 -5.394,-7.941 -18.595,-27.292 -37.181,-54.589 -55.807,-81.859 -0.737,-1.079 -1.851,-1.902 -2.78,-2.852 -0.468,-0.815 -0.936,-1.632 -1.402,-2.442 m -308.934,302.308 c -0.159,0.86 -0.319,1.72 -0.479,2.58 -1.576,0.547 -0.953,1.552 -0.521,2.516 -2.154,0.096 -2.035,2.038 -2.52,3.32 -8.226,21.741 -16.396,43.504 -24.562,65.268 -0.428,1.141 -0.71,2.335 -1.227,4.062 1.161,-0.333 2.018,-0.32 2.345,-0.73 0.533,-0.669 0.751,-1.602 1.047,-2.443 7.549,-21.447 15.08,-42.899 22.65,-64.339 0.621,-1.759 1.498,-3.429 2.249,-5.143 0.15,-0.875 0.299,-1.75 0.423,-2.655 0.164,-0.843 0.329,-1.686 0.492,-2.533 0.178,-0.191 0.355,-0.381 0.17,-0.183 0.063,-0.259 -0.002,0.011 -0.067,0.28 m -382.16,-12.56 c 0.419,0.234 0.838,0.468 1.257,0.702 -0.042,0.782 -0.084,1.564 -0.126,2.346 0.274,0.544 0.548,1.088 0.907,1.801 -4.443,-2.047 -8.43,-4.29 -12.685,-5.747 -5.98,-2.047 -9.998,-1.615 -13.221,0.531 7.687,-1.152 12.378,-0.227 18.531,3.87 2.333,1.553 4.479,3.387 6.754,5.034 2.272,1.646 4.519,3.354 6.926,4.782 2.323,1.377 4.873,2.125 7.685,1.846 4.201,-0.417 6.94,2.67 6.397,7.348 -3.074,0.584 -6.231,1.184 -9.486,1.802 0.249,0.515 0.273,0.678 0.354,0.713 0.46,0.201 0.922,0.423 1.406,0.547 10.867,2.783 20.402,8.048 28.642,15.613 2.996,2.75 5.728,5.789 8.563,8.707 -0.602,0.771 -1.203,1.541 -1.88,2.408 -2.384,-1.056 -4.583,-2.071 -6.815,-3.003 -2.126,-0.889 -4.263,-1.761 -6.44,-2.512 -2.297,-0.792 -4.623,-1.53 -6.98,-2.11 -2.183,-0.537 -4.424,-0.833 -6.64,-1.235 -0.065,0.248 -0.129,0.495 -0.194,0.743 12.563,4.101 23.254,11.661 34.441,18.74 1.293,-1.559 2.397,-2.889 3.642,-4.389 -3.256,-3.036 -6.236,-5.815 -9.215,-8.593 -0.101,-1.117 0.446,-1.642 1.526,-1.564 1.364,0.098 2.724,0.264 4.113,0.374 0.104,0.019 0.208,0.053 0.311,0.053 0.071,-10e-4 0.141,-0.049 0.211,-0.077 -0.211,0.033 -0.421,0.066 -0.632,0.098 -1.063,-0.842 -2.041,-1.832 -3.205,-2.502 -6.532,-3.76 -12.647,-8.093 -18.267,-13.114 -0.804,-0.718 -1.452,-1.612 -2.432,-2.718 1.263,-0.713 2.11,-1.192 2.95,-1.635 0.306,0.374 0.612,0.749 0.918,1.124 -0.038,0.017 -0.076,0.034 -0.132,0.062 -0.254,-0.397 -0.507,-0.793 -0.761,-1.19 -2.356,-2.286 -4.842,-4.453 -7.036,-6.886 -3.564,-3.953 -6.935,-8.079 -10.371,-12.112 -4.864,3.102 -5.648,3.081 -9.784,-0.568 -1.903,-1.679 -3.729,-3.455 -5.495,-5.279 -0.766,-0.791 -1.439,-1.428 -2.603,-0.956 -0.006,-0.768 -0.011,-1.536 -0.044,-2.284 -0.396,-0.228 -0.792,-0.455 -1.188,-0.682 -0.386,-0.184 -0.772,-0.367 -1.157,-0.55 0.039,-0.646 0.079,-1.291 0.083,-1.913 -0.392,-0.195 -0.784,-0.391 -1.175,-0.587 -0.087,-0.369 -0.086,-0.791 -0.272,-1.101 -4.662,-7.776 -7.196,-16.321 -9.328,-25.056 -1.269,-5.201 -2.644,-10.446 -4.683,-15.376 -3.915,-9.466 -14.065,-16.24 -24.077,-16.439 12.029,5.635 18.842,15.447 23.705,26.91 2.868,6.764 4.473,13.844 5.007,21.179 0.078,1.07 0.247,2.503 0.945,3.094 2.806,2.379 5.838,4.493 8.789,6.704 0.419,0.199 0.839,0.398 1.258,0.597 -0.062,0.675 -0.124,1.351 -0.141,2.021 0.38,0.143 0.759,0.286 1.144,0.429 M 4e-4,501.2596 c 4.422,-8.159 12.494,-11.405 22.167,-8.892 4.945,1.285 9.169,3.876 12.955,7.243 0.84,0.747 1.686,1.489 2.959,2.611 5.347,-11.364 4.251,-22.514 0.999,-33.593 -3.251,-11.074 -8.524,-20.883 -19.833,-26.693 2.104,-1.738 4.211,-2.211 6.474,-2.259 8.669,-0.183 15.681,3.595 21.342,9.726 3.067,3.321 5.292,7.42 7.644,10.803 0.691,-4.627 -2.037,-13.237 -6.458,-19.398 -4.483,-6.247 -10.192,-10.389 -18.368,-10.43 -0.52,-2.397 0.949,-3.14 2.72,-3.767 6.779,-2.401 13.638,-2.205 20.407,-0.263 11.058,3.173 19.774,9.464 25.14,19.91 0.233,0.454 0.477,0.906 0.765,1.324 0.137,0.198 0.392,0.314 0.698,0.547 30.042,-35.258 67.604,-51.442 115.073,-44.397 -3.689,-3.329 -6.743,-5.971 -9.67,-8.747 -11.052,-10.482 -22.287,-20.784 -33.044,-31.563 -23.708,-23.757 -47.077,-47.852 -70.763,-71.631 -13.832,-13.886 -28.027,-27.409 -43.265,-39.779 -0.693,-0.562 -1.44,-1.127 -1.941,-1.844 -5.421,-7.759 -9.744,-16.032 -10.488,-25.652 -0.886,-11.473 4.236,-20.005 13.674,-26.123 8.684,-5.629 18.447,-8.174 28.569,-9.372 19.822,-2.347 39.299,-0.08 58.52,4.904 32.423,8.408 61.205,23.765 86.369,45.819 15.718,13.774 28.743,29.834 39.273,47.903 0.383,0.656 0.814,1.285 1.24,1.915 0.056,0.081 0.217,0.09 0.607,0.236 2.056,-1.855 4.223,-3.801 6.379,-5.759 13.636,-12.377 27.162,-24.877 40.935,-37.097 11.763,-10.438 23.821,-20.54 35.701,-30.847 0.898,-0.779 1.984,-1.986 2.01,-3.019 0.127,-5.001 2.742,-8.744 5.835,-12.203 3.442,-3.848 7.51,-6.984 12.325,-8.954 1.719,-0.703 3.64,-0.911 5.601,-1.377 0.304,1.729 0.533,3.03 0.76,4.332 -0.002,10e-4 -0.233,-0.102 -0.233,-0.102 l 0.194,0.146 c 0.797,-0.799 1.525,-1.685 2.401,-2.386 24.693,-19.753 49.955,-38.751 75.72,-57.081 44.367,-31.561 89.952,-61.265 136.46,-89.555 19.577,-11.909 39.261,-23.647 58.984,-35.313 11.788,-6.972 24.531,-11.251 38.342,-10.497 22.382,1.222 39.822,10.903 49.569,31.791 4.596,9.851 4.763,20.173 -0.675,29.967 -1.583,2.851 -3.815,5.456 -6.166,7.746 -16.791,16.361 -33.984,32.318 -50.49,48.958 -29.446,29.687 -57.084,60.981 -81.369,95.101 -6.012,8.446 -11.556,17.225 -17.292,25.867 -0.682,1.025 -1.219,2.147 -2.198,3.891 1.738,-0.571 2.801,-0.835 3.797,-1.259 15.448,-6.568 30.398,-14.163 45.181,-22.091 36.902,-19.789 72.501,-41.843 108.82,-62.644 11.549,-6.615 23.219,-13.029 34.963,-19.292 9.944,-5.303 20.179,-9.999 30.949,-13.456 7.574,-2.429 14.952,-2.519 21.734,2.025 3.583,2.4 7.027,5.165 10.017,8.265 11.843,12.27 19.487,27.177 26.04,42.704 7.602,18.01 12.834,36.692 15.771,56.03 1.587,10.45 1.297,20.971 0.773,31.421 -0.268,5.381 -1.933,10.873 -3.901,15.953 -5.697,14.716 -18.604,19.718 -33.56,14.977 -8.557,-2.711 -15.173,-8.413 -21.016,-15.006 -11.335,-12.79 -18.721,-27.737 -23.687,-43.975 -0.401,-1.313 -0.846,-2.613 -1.411,-4.346 -10.407,13.172 -20.523,25.976 -30.816,39.003 0.429,0.715 0.881,1.598 1.45,2.398 21.314,29.962 42.653,59.907 63.932,89.893 1.434,2.02 2.854,2.898 5.548,3.007 10.326,0.419 17.615,8.169 17.295,17.803 -0.34,10.22 -9.706,18.057 -20.571,17.211 -10.028,-0.782 -17.254,-9.358 -16.19,-19.192 0.414,-3.835 2.211,-7.035 4.817,-10.278 -20.83,-31.123 -41.666,-62.257 -62.642,-93.599 -7.373,8.224 -14.459,16.127 -21.717,24.224 0.423,1.087 0.824,2.274 1.338,3.409 13.9,30.68 27.821,61.35 41.695,92.04 0.891,1.972 1.857,3.174 4.28,3.662 9.208,1.855 15.312,9.911 14.451,18.522 -0.911,9.112 -8.577,15.819 -18.133,15.984 -4.831,0.084 -9.091,-1.331 -12.751,-4.454 -7.635,-6.517 -8.128,-17.706 -1.154,-24.943 0.709,-0.735 1.327,-1.557 2.42,-2.851 -12.87,-30.736 -25.949,-61.972 -39.202,-93.622 -0.943,0.816 -1.613,1.31 -2.185,1.899 -38.601,39.887 -80.14,76.329 -126.243,107.378 -23.413,15.769 -47.673,30.07 -74.04,40.414 -7.607,2.985 -15.512,5.214 -23.278,7.794 -0.597,0.199 -1.181,0.438 -2.348,0.873 1.639,1.66 2.978,3.131 4.436,4.473 8.79,8.089 16.588,17.061 23.557,26.74 8.746,12.148 15.803,25.161 19.384,39.821 3.287,13.452 3.655,26.883 -1.091,40.115 -3.199,8.918 -8.577,16.275 -16.701,22.064 3.742,21.129 7.508,42.39 11.245,63.489 11.413,2.898 16.819,8.818 16.644,17.9 -0.152,7.867 -5.658,14.713 -13.196,16.405 -7.763,1.742 -15.586,-1.812 -19.191,-8.719 -4.097,-7.848 -1.982,-15.892 6.414,-23.142 -3.182,-20.28 -6.412,-40.856 -9.63,-61.359 -4.651,0.367 -9.078,1.221 -13.425,0.917 -4.376,-0.307 -8.673,-1.765 -13.32,-2.787 -4.628,28.286 -9.276,56.69 -13.962,85.321 0.978,0.626 1.922,1.222 2.858,1.831 7.038,4.578 9.796,13.126 6.746,20.905 -2.901,7.4 -10.705,11.876 -18.518,10.62 -8.286,-1.332 -14.248,-7.985 -14.671,-16.37 -0.357,-7.098 4.002,-13.956 10.89,-16.512 2.348,-0.871 3.308,-2.024 3.758,-4.511 5.09,-28.105 10.329,-56.183 15.541,-84.266 0.288,-1.551 0.436,-2.807 -1.018,-4.119 -5.628,-5.08 -27.924,-20.713 -35.144,-24.29 -9.112,26.091 -17.948,52.208 -27.065,78.615 4.675,3.54 7.678,8.151 7.872,14.176 0.123,3.821 -0.97,7.341 -3.178,10.484 -4.361,6.209 -12.601,8.799 -19.818,6.243 -7.236,-2.563 -11.818,-9.591 -11.337,-17.387 0.535,-8.67 5.857,-13.804 17.284,-16.427 9.747,-26.471 19.558,-53.12 29.481,-80.068 -1.296,-0.812 -2.431,-1.586 -3.622,-2.261 -20.286,-11.479 -40.612,-22.888 -60.855,-34.443 -8.224,-4.694 -16.501,-9.366 -24.289,-14.725 -3.258,-2.242 -6.968,-3.466 -10.113,-5.864 -3.133,-2.389 -6.815,-4.042 -10.134,-6.207 -3.2,-2.089 -6.242,-4.421 -9.357,-6.641 -0.985,-0.701 -1.983,-1.384 -3.724,-2.598 1.422,4.321 2.678,7.641 3.611,11.05 8.745,31.924 2.103,60.571 -18.63,86.091 -8.405,10.345 -18.609,18.658 -30.05,25.457 -1.658,0.985 -3.261,1.814 -3.658,4.079 -0.165,0.937 -1.288,1.881 -2.2,2.482 -3.725,2.452 -7.387,5.065 -11.347,7.08 -7.47,3.8 -10.93,10.503 -13.438,17.848 -2.617,7.668 -2.322,15.378 0.834,22.912 0.238,0.57 0.425,1.163 0.716,1.97 -2.764,1.342 -5.124,0.444 -7.327,-0.876 -3.202,-1.918 -5.124,-4.964 -6.638,-8.267 -1.894,-4.134 -2.602,-8.537 -2.618,-13.049 -7.803,1.166 -15.416,2.757 -23.104,3.325 -7.73,0.572 -15.536,0.126 -23.773,0.126 -2.043,18.24 -4.12,36.771 -6.215,55.476 1.05,0.631 2.009,1.202 2.963,1.781 6.882,4.178 9.975,12.333 7.566,19.983 -1.918,6.095 -7.835,12.729 -18.502,11.796 -7.117,-0.623 -13.616,-6.665 -14.855,-14.028 -1.339,-7.957 2.704,-15.645 10.231,-18.699 2.396,-0.972 3.216,-2.289 3.535,-4.705 2.129,-16.125 4.403,-32.231 6.614,-48.345 0.238,-1.739 0.379,-3.492 0.589,-5.46 -17.99,-4.132 -34.051,-11.94 -49.741,-21.305 -14.141,16.935 -28.158,33.723 -42.331,50.696 2.957,5.15 4.007,10.536 2.021,16.218 -1.271,3.633 -3.589,6.465 -6.816,8.557 -6.39,4.142 -14.953,3.497 -20.711,-1.564 -5.823,-5.116 -7.46,-13.726 -3.94,-20.722 3.792,-7.538 11.282,-10.528 21.809,-8.415 14.037,-16.107 28.237,-32.401 42.448,-48.708 -0.316,-0.464 -0.453,-0.882 -0.736,-1.047 -8.838,-5.171 -17.605,-10.472 -26.575,-15.405 -4.719,-2.594 -9.874,-4.228 -15.373,-4.459 -4.922,-0.206 -9.468,0.918 -13.302,4.03 -1.994,1.618 -3.748,1.925 -5.977,0.274 0.239,-4.802 2.938,-8.204 6.759,-10.826 5.587,-3.835 11.996,-4.932 18.604,-5.239 1.196,-0.055 2.393,-0.114 4.083,-0.194 -10.495,-6.513 -29.641,-4.495 -38.75,3.818 -2.135,-1.041 -2.429,-3.022 -2.409,-5.08 0.033,-3.216 1.449,-5.959 3.312,-8.448 4.507,-6.021 10.647,-9.454 17.908,-11.034 0.853,-0.186 1.712,-0.343 3.172,-0.633 -0.962,-0.825 -1.508,-1.422 -2.168,-1.84 -4.999,-3.177 -10.244,-5.846 -16.04,-7.229 -9.148,-2.185 -17.014,-0.278 -22.976,7.451 -0.309,0.401 -0.679,0.756 -1.037,1.117 -0.083,0.085 -0.23,0.108 -0.347,0.159 -4.343,-6.01 -3.623,-13.821 1.86,-19.116 4.431,-4.277 9.979,-6.097 15.929,-6.922 1.759,-0.244 3.529,-0.407 5.743,-0.658 -0.266,-1.682 -0.433,-3.163 -0.739,-4.613 -2.835,-13.429 -8.977,-25.014 -19.323,-34.172 -3.986,-3.528 -8.492,-6.226 -13.903,-6.901 -1.464,-0.182 -2.994,0.166 -4.493,0.27 z"
       style="fill:#e36414;fill-opacity:1;fill-rule:nonzero;stroke:none"
       id="path22" /><path
       d="m 537.0539,139.7676 c -0.564,-0.76 -1.236,-1.484 -1.702,-2.323 -5.156,-9.279 -12.335,-15.9 -23.169,-17.744 -0.974,-0.166 -1.951,-0.521 -1.573,-1.62 0.215,-0.625 1.182,-1.296 1.892,-1.401 10.896,-1.606 23.626,6 27.402,16.289 1.087,2.963 0.437,4.642 -2.85,6.799"
       style="fill:#e36414;fill-opacity:1;fill-rule:nonzero;stroke:none"
       id="path26" /><path
       d="m 436.8215,205.5088 c -2.039,-6.973 -5.394,-12.604 -9.723,-17.712 -0.668,-0.787 -1.099,-2.161 -0.963,-3.172 0.436,-3.218 1.789,-3.842 4.303,-2.549 7.022,3.61 10.199,9.744 11.533,17.053 0.637,3.486 -2.209,4.718 -5.15,6.38"
       style="fill:#e36414;fill-opacity:1;fill-rule:nonzero;stroke:none"
       id="path30" /><path
       d="m 547.9787,265.6689 c -11.737,1.625 -22.819,3.914 -32.301,10.669 -3.599,-2.027 -3.81,-2.948 -0.958,-5.089 8.882,-6.666 19.038,-8.976 29.954,-8.486 1.613,0.072 1.607,0.202 3.305,2.906"
       style="fill:#e36414;fill-opacity:1;fill-rule:nonzero;stroke:none"
       id="path34" /><path
       d="m 425.4153,219.1875 c -0.645,-4.584 -0.982,-8.895 -1.906,-13.076 -1.128,-5.107 -3.803,-9.451 -7.856,-12.864 -0.389,-0.329 -0.868,-0.63 -1.086,-1.056 -0.204,-0.399 -0.33,-1.147 -0.109,-1.382 0.362,-0.385 1.019,-0.573 1.58,-0.661 0.324,-0.051 0.716,0.232 1.057,0.406 9.757,4.996 14.131,14.328 13.164,24.772 -0.261,2.816 -1.804,3.86 -4.844,3.861"
       style="fill:#e36414;fill-opacity:1;fill-rule:nonzero;stroke:none"
       id="path38" /><path
       d="m 546.3654,275.3281 c -1.333,0.342 -2.758,0.487 -3.986,1.058 -8.057,3.739 -15.276,8.742 -21.549,15.022 -1.87,1.872 -3.413,4.115 -4.865,6.345 -0.894,1.373 -1.666,1.754 -3.275,0.632 5.797,-15.43 19.058,-20.894 33.571,-25.828 0,1.326 0,2.106 -0.004,2.89 -0.005,0.005 0.108,-0.119 0.108,-0.119"
       style="fill:#e36414;fill-opacity:1;fill-rule:nonzero;stroke:none"
       id="path42" /><path
       d="m 391.3132,246.4287 c -1.867,1.543 -3.761,1.622 -5.508,-0.396 -6.158,-7.113 -7.065,-17.464 -2.525,-24.915 0.369,-0.606 1.257,-0.897 2.657,-1.844 -0.867,5.485 -2.025,10.193 -0.304,14.691 1.616,4.225 3.738,8.255 5.68,12.464"
       style="fill:#e36414;fill-opacity:1;fill-rule:nonzero;stroke:none"
       id="path46" /><path
       d="m 378.8108,269.0351 c -2.304,-0.563 -2.919,-2.451 -3.523,-3.979 -4.297,-10.85 -5.147,-22.007 -2.512,-33.399 0.079,-0.34 0.354,-0.64 0.566,-0.937 0.064,-0.09 0.223,-0.114 0.687,-0.329 0.15,0.687 0.414,1.298 0.396,1.9 -0.353,11.556 0.575,22.934 4.526,33.917 0.21,0.583 0.265,1.231 0.316,1.855 0.017,0.216 -0.201,0.451 -0.456,0.972"
       style="fill:#e36414;fill-opacity:1;fill-rule:nonzero;stroke:none"
       id="path50" /><path
       d="m 591.0793,88.8574 c -4.057,-7.229 -9.207,-12.783 -17.533,-13.854 -0.317,-1.837 0.656,-1.988 1.775,-2.028 5.69,-0.203 10.508,1.778 14.29,5.996 1.339,1.494 2.442,3.28 3.309,5.095 0.815,1.707 0.728,3.488 -1.841,4.791"
       style="fill:#e36414;fill-opacity:1;fill-rule:nonzero;stroke:none"
       id="path54" /><path
       d="m 233.173,310.6162 c 3.036,0.513 4.352,1.901 4.353,4.234 10e-4,7.079 -1.953,13.61 -5.989,19.442 -1.302,1.881 -3.168,2.448 -5.801,1.174 1.333,-4.038 2.758,-8.057 3.98,-12.137 1.234,-4.12 2.267,-8.301 3.457,-12.713"
       style="fill:#e36414;fill-opacity:1;fill-rule:nonzero;stroke:none"
       id="path58" /><path
       d="m 284.8127,320.3955 c -0.891,-5.495 -2.966,-10.271 -5.635,-14.815 -1.263,-2.15 -1.081,-4.082 0.901,-5.86 2.652,0.782 4.46,2.492 5.991,4.594 2.167,2.974 3.263,6.323 3.607,9.956 0.38,3.995 -0.257,4.872 -4.864,6.125"
       style="fill:#e36414;fill-opacity:1;fill-rule:nonzero;stroke:none"
       id="path62" /><path
       d="m 153.5373,237.9375 c -0.938,0.671 -1.842,1.351 -2.778,1.983 -4.521,3.052 -8.002,7.111 -11.157,11.488 -0.523,0.725 -0.881,1.638 -1.549,2.169 -0.595,0.472 -1.691,0.92 -2.241,0.669 -0.544,-0.249 -1.028,-1.433 -0.937,-2.127 0.455,-3.487 1.637,-6.816 4.133,-9.305 2.414,-2.407 5.113,-4.605 7.96,-6.481 2.796,-1.845 3.854,-1.406 6.569,1.604"
       style="fill:#e36414;fill-opacity:1;fill-rule:nonzero;stroke:none"
       id="path66" /><path
       d="m 166.6604,242.4873 c -1.479,1.363 -3.063,2.612 -4.394,4.09 -3.432,3.809 -6.071,8.142 -8.195,12.813 -0.353,0.777 -1.273,1.773 -1.98,1.815 -1.575,0.092 -1.44,-1.352 -1.555,-2.504 -0.734,-7.384 5.449,-14.777 10.506,-17.94 0.409,-0.254 0.958,-0.36 1.451,-0.39 1.592,-0.097 3.009,0.252 4.167,2.116"
       style="fill:#e36414;fill-opacity:1;fill-rule:nonzero;stroke:none"
       id="path70" /><path
       d="m 757.1789,196.3838 c 0.619,8.208 3.967,15.092 9.988,20.58 1.575,1.436 3.448,2.715 5.409,3.506 1.926,0.776 2.94,1.821 3.085,4.103 -2.433,1.621 -5.251,1.648 -8.004,1.342 -10.467,-1.163 -19.761,-11.494 -16.665,-23.525 0.41,-1.589 1.225,-3.074 1.856,-4.608 0.775,-1.884 2.064,-2.495 4.331,-1.398"
       style="fill:#e36414;fill-opacity:1;fill-rule:nonzero;stroke:none"
       id="path74" /><path
       d="m 763.2463,238.7783 c -12.198,-0.145 -22.201,-7.604 -27.162,-18.581 -0.891,-1.972 -0.84,-3.998 0.311,-5.876 1.445,-2.354 3.235,-2.322 4.484,0.192 2.356,4.743 5.413,8.923 9.293,12.526 4.4,4.085 9.468,6.881 15.368,8.088 1.205,0.247 2.875,-0.024 2.797,1.807 -0.084,1.955 -1.763,1.824 -3.177,1.842 -0.638,0.008 -1.275,0.001 -1.914,0.002"
       style="fill:#e36414;fill-opacity:1;fill-rule:nonzero;stroke:none"
       id="path78" /><path
       d="m 552.7609,288.1416 c 2.106,-1.598 2.367,-1.641 3.934,0.162 3.154,3.629 5.408,7.779 6.538,12.458 1.791,7.413 0.461,14.441 -2.889,21.175 -1.14,2.292 -2.967,3.477 -5.522,3.407 -2.076,-0.057 -2.661,-0.97 -1.944,-3.054 0.415,-1.205 1.033,-2.338 1.502,-3.527 3.046,-7.726 3.811,-15.612 1.319,-23.622 -0.749,-2.41 -1.95,-4.679 -2.938,-6.999"
       style="fill:#e36414;fill-opacity:1;fill-rule:nonzero;stroke:none"
       id="path82" /><path
       d="m 693.3586,227.539 c 3.25,0.319 6.7,2.205 9.802,4.734 3.082,2.515 5.841,5.362 7.586,9.02 0.652,1.367 1.621,2.852 0.243,4.241 -1.384,1.396 -3.161,0.817 -4.68,0.262 -0.875,-0.32 -1.572,-1.233 -2.249,-1.97 -4.073,-4.437 -8.381,-8.6 -13.562,-11.748 -1.095,-0.665 -2.575,-1.172 -2.201,-2.723 0.395,-1.641 1.975,-1.784 3.432,-1.816 0.256,-0.005 0.512,0 1.629,0"
       style="fill:#e36414;fill-opacity:1;fill-rule:nonzero;stroke:none"
       id="path86" /><path
       d="m 566.6115,284.6816 c 1.089,-2.55 2.361,-1.771 3.569,-0.92 5.002,3.522 8.376,8.236 9.935,14.146 1.054,3.995 1.17,8.06 0.243,12.137 -0.768,3.384 -2.39,4.559 -6.257,4.056 0.54,-5.261 1.332,-10.567 0.073,-15.865 -1.24,-5.22 -3.489,-9.857 -7.563,-13.554"
       style="fill:#e36414;fill-opacity:1;fill-rule:nonzero;stroke:none"
       id="path90" /><path
       d="m 662.6984,267.8076 c -1.45,-1.53 -2.588,-2.87 -3.868,-4.057 -4.277,-3.96 -9.139,-6.947 -14.751,-8.639 -0.734,-0.221 -1.58,-0.292 -2.168,-0.719 -0.733,-0.53 -1.865,-1.531 -1.728,-2.02 0.261,-0.926 1.175,-1.863 2.063,-2.358 0.687,-0.385 1.769,-0.241 2.638,-0.099 7.503,1.234 13.69,4.749 18.334,10.829 1.664,2.179 1.825,4.395 -0.52,7.063"
       style="fill:#e36414;fill-opacity:1;fill-rule:nonzero;stroke:none"
       id="path94" /><path
       d="m 626.4689,258.9531 c 4.337,-1.446 7.863,-1.061 11.245,0.122 7.177,2.508 12.117,7.439 14.879,14.526 0.276,0.709 0.537,1.485 0.528,2.226 -0.006,0.53 -0.358,1.329 -0.771,1.508 -0.426,0.183 -1.272,-0.076 -1.648,-0.439 -0.528,-0.51 -0.804,-1.288 -1.17,-1.962 -3.488,-6.43 -8.679,-11.039 -15.339,-13.91 -2.178,-0.939 -4.62,-1.262 -7.724,-2.071"
       style="fill:#e36414;fill-opacity:1;fill-rule:nonzero;stroke:none"
       id="path98" /><path
       d="m 679.4318,234.0488 c 6.049,-1.588 12.437,0.898 16.354,6.615 1.622,2.365 2.55,5.223 3.63,7.923 0.187,0.466 -0.453,1.263 -1.039,2.727 -4.159,-8.667 -9.283,-15.402 -18.945,-17.265"
       style="fill:#e36414;fill-opacity:1;fill-rule:nonzero;stroke:none"
       id="path102" /><path
       d="m 134.0935,570.5337 c 11.375,-0.002 19.479,-6.036 22.801,-16.964 1.446,-4.752 1.568,-9.567 0.704,-14.428 -2.713,-15.277 -15.262,-26.813 -30.474,-28.02 -12.774,-1.013 -22.992,6.539 -25.559,18.895 -0.843,4.055 -0.869,8.102 -0.162,12.198 2.752,15.943 17.002,28.322 32.69,28.319 m 30.793,-23.809 c 0.333,13.16 -6.645,24.321 -17.98,28.591 -7.245,2.73 -14.546,2.311 -21.813,0.028 -18.806,-5.907 -33.004,-25.342 -32.917,-45.025 0.09,-20.853 16.877,-33.779 37.108,-28.576 19.862,5.109 35.08,24.337 35.602,44.982"
       style="fill:#e36414;fill-opacity:1;fill-rule:nonzero;stroke:none"
       id="path106" /><path
       d="m 201.6281,544.8643 c -6.327,8.31 -13.993,14.72 -22.103,21.354 8.585,0.581 38.085,-3.859 42.001,-6.262 -6.563,-4.977 -13.056,-9.902 -19.898,-15.092 m 9.202,28.087 c -0.237,-1.233 -0.473,-2.465 -0.758,-3.943 -6.848,0.496 -13.556,0.981 -20.389,1.475 -1.124,1.902 -1.826,4.307 -4.898,4.665 0.536,-1.556 0.996,-2.895 1.629,-4.732 h -23.044 c 2.784,-3.823 5.051,-6.937 7.21,-9.9 -1.634,-1.326 -3.046,-2.473 -4.457,-3.619 0.12,-0.222 0.24,-0.444 0.361,-0.666 1.427,0.35 2.845,0.913 4.286,0.977 1,0.044 2.417,-0.287 2.981,-0.988 2.394,-2.969 4.538,-6.139 6.928,-9.45 -1.136,-0.746 -2.162,-1.245 -2.957,-1.992 -0.784,-0.736 -1.334,-1.722 -1.552,-3.133 1.221,0.521 2.45,1.026 3.662,1.569 1.921,0.86 3.296,0.462 4.53,-1.378 3.423,-5.098 7,-10.092 10.526,-15.12 0.359,-0.511 0.784,-0.975 1.274,-1.578 1.578,1.225 3.047,2.364 4.903,3.805 0.293,-1.577 0.509,-2.738 0.759,-4.083 1.7,1.007 1.965,2.584 1.909,4.226 -0.046,1.354 0.152,2.438 1.354,3.328 3.799,2.811 7.529,5.716 11.728,8.922 1.56,-1.896 3.042,-3.697 4.813,-5.848 0.924,3.033 -0.644,5.039 -2.226,7.381 3.379,3.35 7.453,5.696 11.422,8.816 1.89,-1.21 3.748,-2.4 5.707,-3.654 0.472,2.454 -1.291,3.795 -2.684,5.679 2.917,2.142 5.753,4.224 9.033,6.632 -9.359,5.112 -19.326,6.48 -29.137,8.121 -1.021,1.502 -2.004,2.949 -2.986,4.395 z"
       style="fill:#e36414;fill-opacity:1;fill-rule:nonzero;stroke:none"
       id="path110" /><path
       d="m 242.4997,513.6655 c 0.341,-0.171 0.682,-0.342 1.023,-0.514 -0.295,-0.856 -0.33,-2.057 -0.93,-2.512 -3.794,-2.88 -7.714,-5.594 -11.974,-8.636 -0.158,1.181 -0.446,1.934 -0.252,2.09 4.011,3.231 8.077,6.395 12.133,9.572 m -19.62,-14.026 c 0.627,-2.133 -0.79,-2.734 -1.959,-3.35 -4.055,-2.136 -8.138,-4.223 -12.239,-6.27 -0.597,-0.297 -1.353,-0.275 -2.048,-0.403 -0.493,2.155 0.824,2.71 2.107,3.334 4.121,2.005 8.226,4.041 12.347,6.047 0.52,0.252 1.093,0.395 1.792,0.642 m 43.03,33.216 c -1.484,2.145 -1.404,3.647 -0.143,5.35 2.049,2.767 3.839,5.724 5.792,8.566 0.368,0.536 0.979,0.906 1.478,1.352 0.282,-0.185 0.564,-0.369 0.846,-0.554 -1.518,-5.3 -4.209,-10.009 -7.973,-14.714 m -65.877,-43.456 c -0.217,-2.843 -0.163,-3.013 -1.821,-3.528 -2.924,-0.91 -5.916,-1.605 -8.887,-2.36 -2.202,-0.56 -2.973,0.575 -3.111,2.593 4.6,1.097 9.052,2.158 13.819,3.295 m 59.393,40.518 c 0.33,-0.088 0.659,-0.176 0.989,-0.264 -0.079,-1.146 0.291,-2.688 -0.312,-3.371 -2.977,-3.373 -5.994,-6.765 -10.752,-9.723 0.407,1.861 0.305,3.145 0.897,3.8 2.959,3.277 6.101,6.389 9.178,9.558 m -36.781,-39.819 c -0.572,-3.308 -0.996,-5.763 -1.546,-8.949 1.086,0.806 1.802,1.079 2.086,1.592 1.544,2.791 2.936,5.666 4.478,8.457 0.591,1.07 1.248,2.278 2.208,2.938 4.215,2.894 8.547,5.619 12.854,8.379 0.394,0.253 0.909,0.315 1.74,0.588 v -9.314 c 0.213,-0.084 0.425,-0.167 0.637,-0.251 0.469,0.605 1.149,1.143 1.37,1.829 1.057,3.281 2.195,6.56 2.887,9.926 0.416,2.029 1.251,3.431 2.803,4.75 3.292,2.799 6.404,5.81 9.962,9.073 0.366,-1.949 0.652,-3.469 1.044,-5.551 1.888,2.612 2.177,5.17 2.482,7.61 0.251,2.011 1.013,3.582 2.175,5.185 2.548,3.518 4.947,7.146 7.311,10.792 1.906,2.941 2.156,6.26 1.664,9.623 -0.161,1.105 -0.605,2.242 -1.194,3.196 -1.903,3.085 -4.765,2.992 -6.546,-0.17 -1.317,-2.339 -2.511,-4.747 -3.848,-7.073 -0.622,-1.08 -1.453,-2.04 -2.289,-3.192 -1.934,1.207 -3.002,3.717 -5.75,2.844 -1.992,-3.075 1.939,-4.96 1.544,-8.485 -3.092,-3.137 -6.645,-6.741 -10.452,-10.603 -0.956,1.337 -1.531,2.293 -2.257,3.115 -0.834,0.943 -1.684,1.988 -2.756,2.562 -0.724,0.387 -2.028,0.337 -2.724,-0.089 -0.488,-0.3 -0.69,-1.643 -0.49,-2.376 0.467,-1.714 1.252,-3.341 1.911,-5.002 0.769,-1.934 0.309,-3.362 -1.462,-4.596 -3.639,-2.536 -7.167,-5.231 -10.752,-7.869 -1.134,1.988 -1.907,3.607 -2.931,5.05 -0.757,1.067 -2.065,1.995 -3.262,1.018 -0.674,-0.55 -0.632,-1.983 -0.896,-3.023 -0.028,-0.109 0.058,-0.245 0.08,-0.371 1.169,-6.529 1.187,-6.563 -4.804,-9.829 -3.563,-1.943 -7.195,-3.762 -10.988,-5.736 -1.672,3.202 -1.049,7.432 -5.174,8.683 -1.79,-1.101 -1.274,-2.718 -1.042,-4.161 1.252,-7.766 0.728,-6.932 -6.11,-9.092 -2.912,-0.92 -5.97,-1.388 -8.971,-2.014 -3.439,-0.717 -4.884,-1.891 -5.145,-4.283 -0.305,-2.781 1.064,-5.136 4.143,-6.118 1.734,-0.552 3.752,-0.59 5.583,-0.369 2.771,0.333 5.49,1.097 8.233,1.662 0.085,0.018 0.204,-0.133 0.667,-0.457 -0.374,-1.744 -0.786,-3.672 -1.272,-5.937 1.829,0.243 2.472,1.66 2.87,2.74 1.786,4.843 5.665,6.789 10.195,8.296 3.724,1.238 7.253,3.063 11.734,5.002"
       style="fill:#e36414;fill-opacity:1;fill-rule:nonzero;stroke:none"
       id="path114" /><path
       d="m 210.675,622.9292 c 11.131,0.269 20.385,-3.182 26.761,-9.618 7.223,-7.292 6.794,-16.408 -1.031,-23.051 -7.755,-6.583 -16.845,-8.919 -26.772,-8.26 -7.841,0.521 -15.071,2.941 -20.928,8.423 -8.68,8.125 -8.254,17.89 1.082,25.188 6.378,4.985 13.819,7.01 20.888,7.318 m 3.723,-47.047 c 8.868,0.173 17.178,2.144 24.564,7.353 12.937,9.124 13.298,24.49 0.76,34.181 -14.568,11.26 -38.725,11.236 -53.022,-0.247 -5.317,-4.27 -8.52,-9.781 -8.163,-16.945 0.293,-5.868 2.993,-10.501 7.207,-14.316 8.122,-7.351 17.985,-9.829 28.654,-10.026"
       style="fill:#e36414;fill-opacity:1;fill-rule:nonzero;stroke:none"
       id="path118" /><path
       d="m 180.4475,447.6528 c -0.584,2.056 -0.991,4.187 -1.816,6.141 -0.525,1.241 -1.696,2.63 -3.263,1.938 -0.972,-0.43 -1.55,-1.772 -2.268,-2.732 -0.136,-0.181 -0.142,-0.492 -0.14,-0.742 0.035,-5.67 -0.918,-11.127 -3.22,-16.355 -0.355,-0.805 -0.137,-2.031 0.185,-2.93 0.715,-2.006 2.133,-2.46 3.856,-1.18 1.093,0.81 2.121,1.871 2.805,3.039 2.289,3.91 3.471,8.177 3.861,12.821"
       style="fill:#e36414;fill-opacity:1;fill-rule:nonzero;stroke:none"
       id="path122" /><path
       d="m 106.7106,459.5092 c 0.208,4.502 -3.046,18.24 -5.07,21.788 -1.53,-0.743 -1.552,-2.164 -1.57,-3.516 -0.086,-6.493 2.633,-14.177 6.64,-18.272"
       style="fill:#e36414;fill-opacity:1;fill-rule:nonzero;stroke:none"
       id="path126" /><path
       d="m 219.8659,455.5454 c -2.516,-0.105 -3.237,-1.431 -3.454,-2.757 -0.892,-5.464 0.194,-10.527 3.581,-15.058 1.451,5.915 -0.764,11.681 -0.127,17.815"
       style="fill:#e36414;fill-opacity:1;fill-rule:nonzero;stroke:none"
       id="path130" /><path
       d="m 76.0764,511.6377 c 0.153,-9.138 1.273,-18.06 6.039,-26.163 -3.483,8.392 -5.453,17.122 -6.039,26.163"
       style="fill:#e36414;fill-opacity:1;fill-rule:nonzero;stroke:none"
       id="path134" /><path
       d="m 210.757,572.8584 -0.13,-0.023 c 0,0 0.19,0.093 0.197,0.105 0.006,0.011 -0.067,-0.082 -0.067,-0.082"
       style="fill:#e36414;fill-opacity:1;fill-rule:nonzero;stroke:none"
       id="path138" /><path
       d="m 459.4572,479.145 c 2.205,0.703 2.585,2.077 2.398,3.516 -0.374,2.897 -0.574,5.901 -1.53,8.619 -1.406,3.995 -5.285,5.336 -8.866,6.7 -1.244,0.474 -2.367,-1.101 -1.875,-2.444 0.216,-0.587 0.56,-1.165 0.974,-1.635 3.163,-3.588 5.493,-7.668 7.329,-12.064 0.378,-0.906 0.991,-1.714 1.57,-2.692"
       style="fill:#e36414;fill-opacity:1;fill-rule:nonzero;stroke:none"
       id="path142" /><path
       d="m 469.7776,488.0932 c 3.063,2.468 4.189,5.449 3.549,8.468 -0.835,3.933 -2.366,7.738 -3.859,11.495 -0.282,0.709 -1.783,0.935 -2.721,1.384 -0.307,-0.907 -0.79,-1.8 -0.863,-2.725 -0.054,-0.701 0.388,-1.453 0.658,-2.163 1.641,-4.316 2.781,-8.716 2.623,-13.398 -0.034,-1.013 0.396,-2.04 0.613,-3.061"
       style="fill:#e36414;fill-opacity:1;fill-rule:nonzero;stroke:none"
       id="path146" /><path
       d="m 128.3151,525.7876 c -1.925,0.094 -3.525,1.893 -3.442,3.871 0.107,2.562 2.827,5.337 5.196,5.301 2.043,-0.031 3.787,-2.017 3.628,-4.131 -0.198,-2.629 -2.903,-5.163 -5.382,-5.041 m 15.142,9.045 c -8.642,10.024 -25.444,6.699 -29.322,-9.07 -2.058,3.172 -2.19,6.569 -2.058,9.996 0.521,13.552 14.716,21.442 26.751,16.005 5.22,-2.358 9.721,-9.592 4.629,-16.931 m -17.581,-19.842 c 19.21,0.033 33.434,20.098 27.14,38.285 -3.428,9.905 -12.88,15.074 -24.01,13.129 -15.309,-2.675 -26.366,-17.899 -24.157,-33.264 1.649,-11.476 9.405,-18.17 21.027,-18.15"
       style="fill:#e36414;fill-opacity:1;fill-rule:nonzero;stroke:none"
       id="path150" /><path
       d="m 213.7199,617.2788 c -7.358,-0.024 -14.225,-1.592 -19.936,-6.566 -1.141,-0.995 -2.102,-2.213 -3.052,-3.404 -1.067,-1.337 -1.196,-2.774 -0.161,-4.245 1.105,-1.569 2.656,-2.008 4.386,-1.547 0.956,0.255 1.809,0.919 2.689,1.431 7.546,4.391 15.496,6.699 24.224,4.424 2.08,-0.541 4.054,-1.531 6.028,-2.422 2.499,-1.129 4.332,-0.95 5.517,0.687 1.271,1.757 0.926,4.068 -1.071,5.792 -4.563,3.941 -10.11,5.305 -15.935,5.839 -0.889,0.081 -1.792,0.011 -2.689,0.011"
       style="fill:#e36414;fill-opacity:1;fill-rule:nonzero;stroke:none"
       id="path154" /><path
       d="m 186.1013,602.7212 c -0.008,-6.545 9.956,-14.92 19.743,-16.615 14.767,-2.556 28.426,3.859 34.007,15.38 -0.767,0.982 -1.608,2.06 -2.653,3.399 -6.223,-8.847 -14.558,-13.426 -25.05,-13.76 -10.437,-0.332 -19.048,3.722 -26.047,11.596"
       style="fill:#e36414;fill-opacity:1;fill-rule:nonzero;stroke:none"
       id="path158" /><path
       d="m 211.3957,597.729 c 3.078,-3.024 7.871,-3.306 10.798,-0.794 1.548,1.328 1.391,3.136 -0.348,4.022 -3.173,1.616 -8.261,0.121 -10.45,-3.228"
       style="fill:#e36414;fill-opacity:1;fill-rule:nonzero;stroke:none"
       id="path162" /><path
       d="m 198.9416,599.2344 c 1.637,-0.349 2.842,-0.973 3.851,-0.741 1.817,0.418 3.568,1.25 5.232,2.128 0.489,0.258 0.951,1.383 0.773,1.873 -0.189,0.524 -1.156,1.087 -1.776,1.079 -2.988,-0.038 -5.817,-0.588 -8.08,-4.339"
       style="fill:#e36414;fill-opacity:1;fill-rule:nonzero;stroke:none"
       id="path166" /><path
       d="m 125.4206,540.6104 c 1.978,0.756 4.121,1.254 5.868,2.373 0.953,0.609 1.698,2.269 1.703,3.458 0.007,1.581 -1.613,2.365 -3.038,2.284 -2.109,-0.119 -4.299,-0.387 -6.263,-1.111 -2.315,-0.852 -3.466,-2.886 -2.892,-4.356 0.788,-2.017 2.666,-2.105 4.622,-2.648"
       style="fill:#e36414;fill-opacity:1;fill-rule:nonzero;stroke:none"
       id="path170" /></g></svg>
