<?xml version="1.0" encoding="UTF-8" standalone="no"?>
<svg
   xmlns:dc="http://purl.org/dc/elements/1.1/"
   xmlns:cc="http://creativecommons.org/ns#"
   xmlns:rdf="http://www.w3.org/1999/02/22-rdf-syntax-ns#"
   xmlns:svg="http://www.w3.org/2000/svg"
   xmlns="http://www.w3.org/2000/svg"
   xmlns:sodipodi="http://sodipodi.sourceforge.net/DTD/sodipodi-0.dtd"
   xmlns:inkscape="http://www.inkscape.org/namespaces/inkscape"
   height="1219.9707"
   width="1363.6278"
   inkscape:version="1.0 (4035a4fb49, 2020-05-01)"
   sodipodi:docname="malbela.svg"
   id="svg86"
   version="1.1"
   viewBox="0 0 1363.6278 1219.9707">
  <metadata
     id="metadata92">
    <rdf:RDF>
      <cc:Work
         rdf:about="">
        <dc:format>image/svg+xml</dc:format>
        <dc:type
           rdf:resource="http://purl.org/dc/dcmitype/StillImage" />
        <dc:title></dc:title>
      </cc:Work>
    </rdf:RDF>
  </metadata>
  <defs
     id="defs90" />
  <sodipodi:namedview
     fit-margin-bottom="10"
     fit-margin-right="10"
     fit-margin-left="10"
     lock-margins="true"
     fit-margin-top="10"
     inkscape:current-layer="svg86"
     inkscape:window-maximized="1"
     inkscape:window-y="0"
     inkscape:window-x="0"
     inkscape:cy="641.08208"
     inkscape:cx="362.72511"
     inkscape:zoom="0.23228157"
     showgrid="false"
     id="namedview88"
     inkscape:window-height="704"
     inkscape:window-width="1366"
     inkscape:pageshadow="2"
     inkscape:pageopacity="0"
     guidetolerance="10"
     gridtolerance="10"
     objecttolerance="10"
     borderopacity="1"
     bordercolor="#666666"
     pagecolor="#ffffff" />
  <path
     style="fill:#e36414;fill-opacity:1;stroke:#e36414;stroke-opacity:1"
     id="path4"
     stroke-width="5"
     stroke-linecap="round"
     stroke="#eeffaa"
     fill="#eeffaa"
     d="m 802.69763,578.77964 c -18.954,2.0026 -25.207,23.646 -32.133,38.204 -4.416,0.37513 -9.7533,-7.6738 -14.319,-10.68 -14.477,-12.922 -34.197,-27.992 -54.606,-19.709 -19.015,12.366 -24.529,36.946 -29.449,57.705 -2.8976,17.844 -5.8973,36.689 -2.9752,54.527 5.9748,2.8847 13.804,-2.4318 20.366,-2.2071 55.12,-9.8656 110.7,-17.63 166.7,-19.977 2.2075,-9.3345 -0.8193,-20.623 -1.9416,-30.582 -5.1458,-26.011 -17.937,-55.061 -43.394,-66.116 -2.6332,-0.8821 -5.4505,-1.3872 -8.2516,-1.165 z m -3.0094,26.116 c -2.0487,10.389 -6.1314,26.112 4.8053,32.815 6.196,2.5127 11.584,-3.5778 15.678,-6.5534 0.90074,12.436 0.19712,29.707 -13.591,34.175 -9.535,4.0907 -22.585,-1.2762 -23.347,-12.33 -0.97353,-15.963 -0.7906,-35.784 12.863,-46.553 1.0311,-0.42202 2.611,-1.6782 3.5919,-1.5534 z m -92.029,5.1941 c 0.70418,2.7405 -2.8866,8.38 -2.0872,12.184 -0.85173,8.1122 1.4045,22.365 12.28,21.068 4.3682,-0.95117 7.5758,-4.3474 10.824,-7.1844 0.71216,13.009 -0.51446,32.351 -16.212,35.145 -11.126,3.9653 -22.276,-5.8471 -21.406,-17.281 0.12771,-15.386 0.45853,-36.468 16.26,-43.883 l 0.19415,-0.0485 h 0.14562 z" />
  <path
     style="fill:#e36414;fill-opacity:1;stroke:#e36414;stroke-opacity:1"
     id="path6"
     stroke-width="10"
     stroke="#adcc1f"
     fill="#adcc1f"
     d="m 755.40763,500.85364 c -14.14,0.72493 -28.317,2.6734 -42.313,4.0881 -3.3286,4.1867 6.4448,6.6271 8.3292,10.022 9.382,8.6518 19.012,17.752 27.797,27.268 -30.19,-6.2164 -63.647,-9.6562 -91.972,5.4692 -16.057,6.8877 -31.943,16.478 -47.837,22.374 2.0078,-10.594 10.512,-19.842 11.932,-30.605 -9.0917,-1.2604 -18.705,5.5435 -28.061,6.8503 7.157,-13.25 16.7,-24.453 28.227,-33.533 -12.124,-2.6249 -26.942,1.5843 -40.159,0.55244 5.9157,-6.5867 -9.6807,-6.6811 -7.5125,0.55244 1.8965,26.613 21.295,47.845 31.714,71.525 2.6826,6.5941 8.4451,15.227 8.1679,21.23 -20.385,-2.9264 -42.39,-12.762 -62.862,-5.5796 -2.0182,7.089 6.3043,13.888 7.181,21.103 3.2936,9.239 9.338,17.096 14.804,25.081 -12.257,-0.53502 -25.195,-7.8911 -37.286,-4.8062 -5.4602,11.959 -0.9614,26.659 -3.922,39.334 -3.4104,3.239 -11.392,-12.613 -16.92,-16.843 -11.415,-14.086 -27.747,-28.495 -47.489,-23.485 -12.013,1.8858 -26.377,10.501 -26.956,23.7 6.6983,8.1089 20.134,12.977 22.04,24.086 -9.0426,25.229 -26.944,50.947 -19.223,79.165 1.8818,10.01 4.876,25.69 18.284,24.473 15.773,0.24643 28.808,-11.27 43.86,-13.148 19.168,11.938 35.396,29.264 43.393,50.738 8.0987,17.828 11.633,37.33202 14.166,56.65602 -11.771,-6.8237 -21.184,-19.203 -34.524,-22.982 -4.5669,3.4961 2.3294,11.181 2.5948,15.693 11.523,27.803 19.843,57.565 18.175,88.001 -15.24,-6.6901 -65.546,-45.431 -80.69,-51.888 -2.1715,21.814 0.99325,56.72 6.4831,86.54996 9.7782,27.447 33.335,64.898 53.935,82.953 23.202,18.339 55.72,-13.25 80.207,1.5844 28.586,21.119 50.156,79.49 86.759,88.48 23.706,7.1989 48.764,8.1313 73.102,10.204 12.631,7.4097 26.306,17.789 41.926,13.148 38.875,-8.1984 66.58,-43.075 106.39,-48.725 14.675,-1.5702 15.343,-20.545 14.362,-31.876 -1.5187,-16.978 -8.9648,-32.561 -16.737,-47.455 8.1726,-2.6028 19.156,-10.927 12.263,-20.219 -6.3877,-9.8175 -19.805,-5.7499 -26.025,2.1002 -5.7163,7.2057 -11.494,-5.3047 -16.73,-8.7295 -7.3632,-6.656 -9.1829,-16.41 -9.8877,-25.744 -6.0848,-4.4443 -16.527,1.4726 -21.046,-6.8503 -9.002,-10.246 -16.577,-22.71796 -21.985,-35.35596 -9.9652,1.1902 -19.883,6.1206 -29.221,10.11 2.1568,13.829 13.297,26.23296 13.644,40.93596 2.1977,10.283 -6.5813,17.75 -16.406,18.12 -19.319,3.3888 -39.807,8.4568 -59.382,6.1321 -5.2104,-15.794 1.3387,-32.457 5.6343,-47.676 -6.4892,-3.66116 -16.364,0.7957 -23.974,0.1657 -32.085,4.3038 -63.849,-6.50426 -93.551,-17.19196 -23.117,-9.1824 -48.246,-26.036 -49.296,-53.52 -1.4174,-24.19 2.5603,-48.745 9.6668,-71.707 2.0377,-4.24469 10.524,-1.58179 7.5125,3.5909 -3.2466,24.506 -11.196,49.875 -6.4077,74.69 10.038,29.176 42.808,39.051 69.477,46.948 28.502,9.7332 59.267,10.607 88.442,3.4295 47.832,-10.298 94.234,-28.104 137.33,-50.709 -12.459,-7.9718 -28.49,-12.894 -38.225,-25.412 -11.6,-12.25 -14.207,-30.34 -9.3354,-46.018 -8.284,-8.79519 -22.407,-10.83899 -33.272,-15.87599 -21.761,-8.2043 -48.528,-15.6 -69.086,-0.36569 -17.377,9.62578 -28.796,29.97898 -48.721,34.41698 -16.458,-0.306 -25.463,-17.867 -35.407,-28.50498 -15.781,-20.726 -33.538,-48.146 -23.366,-75.133 7.2402,-16.492 25.529,-24.751 43.307,-22.54 19.444,1.5342 40.247,8.1757 54.686,21.103 2.2932,4.6608 -2.345,7.9648 -6.4077,5.1929 -20.991,-10.305 -46.19,-23.931 -69.656,-12.872 -14.239,6.6862 -18.493,24.116 -12.705,38.008 7.6021,24.5 24.241,46.006 43.418,62.59198 10.188,7.254 18.592,-6.9057 25.876,-11.875 16.763,-15.16898 36.969,-33.04298 61.397,-28.66698 35.425,3.4969 67.461,21.36 100.91,32.71198 44.862,17.828 93.064,34.622 142.03997,26.447 32.164,-7.0216 53.799,-34.94698 74.075,-58.83498 17.401,-24.662 25.002,-61.071 5.3582,-86.623 -16.837,-23.731 -45.833,-33.8 -71.976,-43.035 -1.9106,-5.2046 2.337,-12.546 1.5487,-18.546 2.2924,-8.6922 0.9922,-21.131 -9.7792,-22.832 -21.34997,-2.6163 -36.51297,22.235 -31.59697,41.654 0.2918,7.5457 -12.957,-2.7168 -18.411,-2.8887 -74.136,-25.243 -153.79,-12.512 -229.38,-1.8773 -24.156,3.8202 -48.372,7.5626 -72.37,12.169 -0.49502,-29.493 2.5762,-59.035 8.5068,-87.783 -8.3096,-4.8079 -20.527,-4.9814 -27.233,-12.761 -7.3856,-5.9972 -13.42,-20.373 -4.5296,-27.291 7.5148,1.5867 3.9933,13.403 8.9487,18.01 6.2485,6.8233 19.307,13.885 27.785,7.4027 2.8448,-4.8627 7.7749,-10.971 6.7944,-16.518 -11.015,-8.1068 -28.457,-20.698 -22.427,-36.295 9.8362,-2.1741 7.7242,12.083 13.92,16.131 5.225,4.6694 12.088,13.307 18.918,11.691 17.011,-16.131 43.845,-9.8769 60.405,3.4458 6.6806,3.1874 11.243,11.805 18.063,13.093 6.6561,-17.374 22.851,-35.474 43.407,-30.833 14.42,4.0903 3.0834,-10.818 1.6122,-17.506 -0.5547,-5.7638 -4.3484,-10.964 -10.661,-7.8999 -6.2914,0.92667 -15.464,4.0814 -20.383,3.2594 2.7993,-9.0823 15.447,-17.995 9.722,-28.119 -8.7088,-10.943 -20.038,-21.131 -35.187,-18.893 z m -286.25,153.69 c 18.487,-1.2271 38.141,7.4014 45.959,24.307 1.7552,6.6634 -7.3734,8.3796 -9.722,2.4307 -10.022,-17.978 -32.899,-17.429 -50.82,-18.286 -6.182,-0.23137 -3.5805,-10.586 2.5962,-7.9551 3.9883,-0.30762 7.9902,-0.36471 11.987,-0.4972 z m 10.44,38.837 c 7.72,-1.0804 5.2714,8.1317 1.6572,11.491 -4.8151,4.9189 -5.5927,14.241 2.4305,16.021 8.0319,4.8126 19.66,-1.0056 26.57,5.0272 2.89,6.531 -8.0691,7.0361 -12.042,7.016 -13.203,1.5913 -29.47,-4.3542 -31.32,-18.949 1.0428,-7.5188 5.2371,-17.146 12.153,-20.551 l 0.44191,-0.0553 h 0.11048 z m 6.021,52.979 c 7.8334,-0.40258 21.955,3.7544 19.996,13.866 -5.3645,7.4528 -11.751,-5.0667 -18.45,-3.8671 -11.725,-1.7744 -20.362,7.9872 -29.995,11.767 -6.9335,-1.6279 -3.203,-10.49 1.6019,-12.154 7.7801,-5.6821 17.168,-9.4912 26.846,-9.6125 z" />
  <path
     style="fill:#e36414;fill-opacity:1;stroke:#e36414;stroke-opacity:1"
     id="path8"
     stroke-width="5"
     stroke-linecap="round"
     stroke="#eeffaa"
     fill="#eeffaa"
     d="m 785.80763,990.37964 c -10.768,3.8791 -27.057,3.8618 -30.2,17.62896 -4.6344,10.772 -9.0086,22.284 -8.2909,34.313 8.0804,2.3494 18.145,-1.9481 26.969,-2.5333 10.471,-2.9539 23.249,-1.7468 32.296,-8.0492 1.0307,-10.178 -5.0472,-20.367 -9.3684,-29.355 -3.0258,-4.04666 -5.6785,-11.33796 -11.406,-12.00396 z" />
  <path
     style="fill:#e36414;fill-opacity:1;stroke:#e36414;stroke-opacity:1"
     id="path10"
     stroke-width="5"
     stroke-linecap="round"
     stroke="#502d16"
     fill="#502d16"
     d="m 758.81763,264.18964 c -22.753,0.60772 -44.182,9.2235 -64.783,17.526 -28.984,6.3589 -58.725,6.3576 -88.137,9.9375 -28.116,1.3655 -57.47,-1.7483 -83.584,10.946 -16.201,6.3422 -32.781,13.699 -45.877,25.1 1.6629,7.702 -3.1736,18.827 2.6265,24.925 19.916,-4.7734 39.903,-16.07 60.877,-13.776 13.201,7.6494 12.332,29.63 -2.7433,34.44 -15.35,7.9222 -32.01,14.098 -48.62,17.454 -1.5144,11.19 5.5314,22.636 7.0041,33.798 13.031,-1.0941 26.434,-9.2681 39.703,-12.295 49.45,-17.268 102.55,-18.538 154.19,-23.721 38.444,-4.7975 77.198,-9.0112 115.57,-13.192 2.558,-11.546 -4.1332,-24.147 -5.3093,-35.894 -3.3825,-14.296 -25.614,-17.238 -24.283,-33.745 -2.206,-13.723 0.17145,-29.271 -3.5604,-42.087 l -13.074,0.58373 z" />
  <path
     style="fill:#e36414;fill-opacity:1;stroke:#e36414;stroke-opacity:1"
     id="path12"
     stroke-width="5"
     stroke-linecap="round"
     stroke="#502d16"
     fill="#502d16"
     d="m 436.04963,343.86964 c -34.895,15.759 -71.593,29.272 -104.1,49.845 -8.5538,5.2515 -19.91,13.313 -15.495,24.931 4.2646,13.538 15.793,25.455 11.615,40.511 -1.5896,15.311 1.7256,32.764 10.037,44.961 38.052,-23.236 78.96,-41.72 118.08,-62.998 7.996,-4.901 -2.0736,-14.077 -1.8495,-20.827 -7.6876,-24.489 -10.243,-50.29 -16.361,-75.021 -0.26005,-0.67223 -1.3472,-1.6878 -1.9261,-1.401 z" />
  <path
     style="fill:#e36414;fill-opacity:1;stroke:#e36414;stroke-opacity:1"
     id="path14"
     stroke-width="5"
     stroke-linecap="round"
     stroke="#eeffaa"
     fill="#eeffaa"
     d="m 882.83763,953.72964 c -14.619,3.7906 -28.581,11.09 -42.034,17.621 2.6683,10.849 10.318,20.507 16.6,29.70896 3.4429,6.4169 10.967,7.5834 16.794,3.6893 15.294,-7.39336 30.249,-16.62796 41.598,-29.41696 -5.0723,-9.2424 -17.077,-13.86 -26.017,-19.563 -2.165,-1.0739 -4.4281,-2.3531 -6.941,-2.0388 z" />
  <path
     style="fill:#e36414;fill-opacity:1;stroke:#e36414;stroke-opacity:1"
     id="path16"
     stroke-width="5"
     stroke="#cc00ff"
     fill="#cc00ff"
     d="m 410.38663,29.569635 c -26.179,20.807 -62.226,16.946 -93.105,25.352 -17.526,3.4428 -39.276,8.3293 -43.909,28.614 -15.369,43.915005 -37.737,85.824005 -71.443,118.230005 -10.485,11.113 -26.755,26.553 -16.228,42.949 9.0563,18.222 25.859,36.994 17.152,58.519 -0.57691,7.2087 -9.5996,19.346 -0.7916,24.212 15.11,3.7282 33.327,-2.0658 38.261,-18.077 10.298,-23.661 10.639,-55.464 36.414,-68.811 17.963,-7.2776 38.414,-16.356 43.993,-36.992 2.1006,-4.5328 4.664,-17.445 8.7813,-7.3422 3.4723,8.282 12.702,18.829 21.967,10.886 12.982,-7.8966 18.683,-22.389 26.453,-34.306 6.0798,-3.107 9.891,4.7732 6.7946,9.8301 -8.6996,44.642 -25.792,87.374 -42.483,129.51 -4.7864,20.298 -7.7628,42.292 -5.6072,63.005 6.1508,3.3865 13.944,-6.1221 20.464,-7.0326 26.473,-13.243 55.136,-22.965 80.07,-38.819 3.1929,-8.7006 6.3312,-18.122 13.655,-24.872 21.818,-22.3 54.373,-30.266 83.663,-37.861 15.867,-4.0258 37.444,-7.3059 47.084,9.3601 9.6624,11.215 27.214,3.7352 39.976,4.5522 31.07,-4.4698 63.997,-2.7699 92.552,-17.483 6.2942,-4.1934 16.15,-2.3507 20.45,-7.3231 -28.355,-24.4 -40.492,-60.386 -61.68,-89.922 -16.33,-23.024 -45.136,-28.98 -69.925,-38.727 -26.546,-13.125 -52.414,-28.237005 -81.668,-34.834005 -31.915,-10.86 -54.328,-37.807 -83.218,-54.186 -6.9131,-4.3547 -10.509,-13.638 -17.382,-16.934 l -10.291,8.5106 z" />
  <path
     style="fill:#e36414;fill-opacity:1;stroke:#e36414;stroke-opacity:1"
     id="path18"
     stroke-width="5"
     stroke="#cc00ff"
     fill="#cc00ff"
     d="m 891.81763,381.20564 c -96.16,1.4971 -191.24,17.593 -286.94,25.303 -81.469,12.673 -157.08,49.259 -228.92,88.122 -92.643,52.211 -180.43,114.84 -254.84,190.98 -5.3478,3.0366 -37.491,35.649 -33.54,30.446 78.118,-54.154 198.47,-127.64 278.34,-179.41 59.429,-35.154 131.26,-36.48 198.75,-37.84 20.66,-0.51424 42.256,-0.80409 61.488,-7.8801 21.818,-5.257 43.267,1.1427 64.714,3.8265 58.993,-0.5608 117.22,-12.546 175.68,-19.41 117.55,-16.374 236.01997,-30.752 354.94997,-25.864 16.289,2.5829 26.128,-2.4428 4.9451,-7.4178 -106.37,-41.431 -220.51,-61.983 -334.64997,-60.85 z" />
  <path
     style="fill:#e36414;fill-opacity:1;stroke:#e36414;stroke-opacity:1"
     id="path20"
     stroke-width="5"
     stroke="#660080"
     fill="#660080"
     d="m 309.91763,585.72964 c -61.153,34.914 -121.84,71.715 -179.42,112.41 -39.24,29.854 -81.667,60.335 -104.57,105.17 -9.7843,18.151 -5.4615,40.29 7.8801,55.493 10.352,13.965 23.975,35.02 44.498,28.491 79.659,-22.737 158.41,-50.185 239.65,-66.663 11.573,-4.617 13.84,-21.384 21.638,-30.885 5.6923,-13.366 28.708,-31.753 29.144,-46.677 -7.0973,-7.9281 -31.116,1.8808 -40.816,0.66611 -16.577,-0.7447 -34.378,8.8243 -48.354,10.688 11.385,-31.749 32.968,-72.008 56.064,-97.186 4.2431,-8.7143 -21.056,-0.51335 -25.785,0.13831 -22.344,0.21065 -40.277,16.632 -60.954,21.507 -10.151,-4.3095 -0.21986,-13.459 3.0778,-18.944 17.516,-26.132 53.097,-61.839 71.798,-86.967 -0.0806,-0.9052 -13.135,12.478 -13.856,12.756 z" />
  <path
     style="fill:#e36414;fill-opacity:1;stroke:#e36414;stroke-opacity:1"
     id="path22"
     stroke-width="5"
     stroke="#660080"
     fill="#660080"
     d="m 1157.5376,458.59264 c -54.926,1.6233 -110,3.8062 -164.51997,10.952 -0.4288,6.0868 11.84297,9.8595 15.76597,15.702 11.66,11.76 25.282,23.857 32.918,38.265 -20.928,-0.94571 -44.04197,-10.781 -63.98797,-1.0556 -1.9688,7.8289 10.644,10.395 14.843,15.108 11.69997,6.5135 21.16997,18.831 33.43797,22.912 94.472,-8.2928 190.64,-8.7564 282.94,-32.545 11.996,-4.6083 29.543,-7.422 33.577,-21.31 -3.3627,-16.774 -22.765,-23.891 -36.468,-30.519 -47.143,-17.446 -98.893,-17.163 -148.5,-17.51 z" />
  <path
     style="fill:#e36414;fill-opacity:1;stroke:#e36414;stroke-opacity:1"
     id="path24"
     stroke-width="10"
     stroke-linecap="round"
     stroke="#e6e6e6"
     fill="#e6e6e6"
     d="m 466.73163,428.50884 c -7.8293,-18.163 -20.561,-83.022 -19.367,-98.66 1.4266,-18.68 28.319,-37.397 70.959,-49.387 14.03,-3.945 35.565,-7.8895 41.242,-7.5541 3.8275,0.2261 10.407,3.9409 13.641,7.7024 l 1.5489,1.8011 -7.3243,-0.0252 c -11.512,-0.0396 -16.007,0.48016 -24.41,2.8225 -18.898,5.2677 -31.821,10.09 -45.193,16.866 -13.06,6.6177 -26.225,15.27 -28.519,18.744 -3.5468,5.3698 -3.748,17.12 -0.59687,34.849 l 1.1565,6.5065 -2.4427,2.8177 c -3.082,3.5551 -4.4402,6.1823 -5.1545,9.9704 -1.4545,7.7137 3.2242,13.729 11.868,15.26 l 2.6613,0.47112 3.1378,11.403 c 1.7258,6.2714 3.7525,13.626 4.5039,16.343 1.2299,4.4484 1.2792,4.9717 0.49448,5.2509 -0.47936,0.17053 -4.4035,1.9071 -8.7202,3.859 -4.3167,1.9519 -7.9691,3.5413 -8.1163,3.532 -0.1472,-0.009 -0.76336,-1.167 -1.3693,-2.5726 z" />
  <path
     style="fill:#e36414;fill-opacity:1;stroke:#e36414;stroke-opacity:1"
     id="path26"
     stroke-width="10"
     stroke="#808080"
     fill="#808080"
     d="m 547.48763,507.99164 c -51.711,1.0848 -104.99,3.4532 -152.93,24.703 -20.248,9.0732 -40.142,20.034 -57.239,34.251 -6.2422,7.4013 -9.5156,17.056 -16.116,24.271 -17.111,22.481 -38.809,41.268 -54.997,64.555 -2.207,4.1282 3.6374,4.9171 6.1321,2.7037 18.019,-8.7386 38.607,-12.84 58.369,-7.883 7.5685,1.7685 18.063,2.9048 23.689,5.9047 -14.365,8.7426 -29.706,17.601 -38.144,32.741 -8.0295,14.855 -14.805,30.599 -20.012,46.622 1.1548,5.0351 8.1181,0.79034 11.638,0.89023 22.282,-3.6217 46.822,-2.5481 66.992,7.7483 -21.66,43.587 -48.422,84.377 -71.245,127.33997 -2.4021,4.4933 3.9061,4.6311 6.7255,3.2312 26.125,-8.0672 54.743,-11.227 81.498,-3.9566 -8.348,12.992 -17.233,26.534 -18.166,42.5 -2.0278,21.141 1.7578,42.611 10.022,61.987 4.3899,2.2932 5.9864,-5.349 8.7133,-7.493 16.04,-22.882 32.399,-46.034 54.883,-63 4.22,-2.7043 12.09,-8.2474 15.891,-2.2091 10.268,16.62 29.437,24.225 45.544,33.983 10.695,5.8898 21.506,11.567 32.262,17.354 -2.294,-36.935 -18.327,-71 -32.869,-104.35997 15.242,0.48845 29.063,7.6103 42.331,14.53997 -5.4531,-29.19397 -19.898,-57.59697 -44.979,-74.41197 -4.0152,-3.0347 -9.0794,2.9735 -13.573,3.7542 -14.01,5.5022 -31.136,12.914 -45.397,4.2863 -9.9976,-7.88 -11.273,-22.09 -12.686,-33.858 -2.4628,-21.019 2.7741,-42.08 12.787,-60.334 2.0966,-5.5977 6.7705,-11.287 6.0972,-17.417 -7.3359,-7.0889 -21.544,-9.9822 -21.726,-22.256 2.5824,-20.654 24.728,-33.021 44.112,-32.51 14.514,-0.36476 28.04,7.1498 37.639,17.527 3.473,1.8875 11.442,14.839 11.427,8.191 0.0819,-8.3649 -1.0967,-21.142 8.9255,-24.004 6.6139,-1.7491 13.414,0.40438 20.078,0.72537 -5.0411,-13.704 -10.666,-27.515 -19.649,-38.972 17.59,-4.6734 36.235,-7.5511 54.269,-3.4061 3.2461,-0.2106 10.31,3.6352 10.678,-1.2758 -12.86,-25.643 -32.231,-49.405 -34.54,-78.964 -0.26484,-7.1132 -11.029,-1.961 -16.066,-3.4989 l -0.36269,8.6e-4 z" />
  <path
     style="fill:#e36414;fill-opacity:1;stroke:#e36414;stroke-opacity:1"
     id="path28"
     stroke-width="10"
     stroke="#808080"
     fill="#808080"
     d="m 829.59763,489.32964 c -14.398,2.0899 -29.234,3.4217 -43.419,6.5284 -3.2274,3.8522 2.7058,7.9483 4.7279,10.907 3.9838,2.4493 7.6886,12.308 11.861,9.7915 8.7036,-9.2745 19.517,-16.078 29.534,-23.665 1.5424,-1.9136 -0.48532,-4.164 -2.7034,-3.5609 z" />
  <path
     style="fill:#e36414;fill-opacity:1;stroke:#e36414;stroke-opacity:1"
     id="path30"
     stroke-width="10"
     stroke="#808080"
     fill="#808080"
     d="m 969.08763,470.86564 c -21.115,2.2596 -42.264,4.921 -63.2,7.7483 -4.7179,2.7719 1.9418,5.1554 4.2901,6.6028 5.9028,3.2552 12.176,5.8603 17.931,9.3884 -10.808,2.5569 -22.725,2.0156 -32.771,6.8911 -2.488,4.8316 5.3509,4.793 8.0443,6.5943 11.544,4.0773 17.218,15.936 22.583,25.949 -10.017,-1.5115 -19.825,-5.8317 -29.935,-5.6711 -4.3698,2.646 2.4637,6.2316 4.8834,8.0279 9.3507,6.6672 17.144,15.403 24.327,24.251 -34.376,-5.837 -67.827,-17.495 -102.76,-19.717 -4.6884,-0.51718 -4.3714,4.8036 -2.2801,7.686 4.9893,10.587 6.3269,22.474 11.544,32.836 2.5148,5.1515 8.5311,7.117 13.826,5.0026 7.8735,-0.9084 16.202,-6.4157 15.582,-15.257 0.87434,-4.5591 -3.5867,-13.193 2.9012,-14.837 5.0878,2.3472 4.7893,9.8127 4.8464,14.672 0.26581,11.296 -8.7046,21.427 -19.847,22.75 -5.9168,1.5099 -1.7873,8.3454 0.13187,11.639 2.5185,6.2272 10.064,6.2009 15.297,3.7588 11.354,-3.7523 23.921,-10.57 27.529,-22.783 -1.7562,-4.631 4.4352,-8.5344 7.0552,-4.8138 2.3287,11.674 -6.9857,22.355 -16.385,28.026 -7.1806,5.3243 -16.795,5.7596 -24.067,10.551 -2.8437,4.7829 2.1865,10.362 2.293,15.467 3.4935,13.518 4.0017,27.563 4.8611,41.508 26.127,1.8126 51.974,4.1737 77.57503,9.5618 4.7156,-2.1621 0.9756,-8.636 0.3297,-12.265 -5.3418,-18.612 -21.57604,-30.656 -36.82604,-41.017 7.9548,-5.0927 16.736,-9.5449 25.91304,-12.068 9.7691,-1.4818 19.259,1.1496 28.485,3.6598 5.1265,-0.70345 1.0555,-6.6643 -0.1978,-9.232 -7.8724,-15.827 -18.607,-29.977 -30.62805,-42.764 2.53715,-1.652 8.58385,-0.53574 12.23105,-0.9232 35.497,-0.5869 67.99397,15.507 99.53097,29.773 3.4674,2.1988 5.7149,-2.385 2.9342,-4.8138 -20.955,-26.684 -49.12897,-46.835 -77.82997,-64.589 -3.4554,-2.6767 -9.6398,-4.2952 -11.778,-7.7833 10.652,-9.1606 24.072,-14.751 38.21,-14.376 9.27207,-0.21486 18.55097,-0.0777 27.82497,-0.13189 -14.886,-16.026 -31.92897,-31.363 -52.45297,-39.302 z" />
  <path
     style="stroke:#ffffff;stroke-opacity:1"
     id="path32"
     stroke-width="10"
     stroke-linecap="round"
     stroke="#000000"
     fill="none"
     d="m 861.36763,676.52964 c 3.9252,-81.953 -66.417,-146.72 -93.107,-65.717 -95.532,-96.994 -108.11,53.155 -105.03,94.925 94.864,-15.664 220.04,-42.632 309.46,-4.8903 -8.0964,-45.755 70.25197,-70.492 49.29997,0 111.99,29.753 105.61,115.73 26.19,179 -86.46797,69.181 -245.63997,-58.902 -299.14997,-41.065 -56.719,18.908 -48.378,80.045 -99.537,9.4456 -53.964,-74.471 8.5829,-108.58 72.476,-64.98" />
  <path
     style="stroke:#ffffff;stroke-opacity:1"
     id="path34"
     stroke-width="10"
     stroke-linecap="round"
     stroke="#000000"
     fill="none"
     d="m 674.28763,617.10964 c -19.976,2.8308 -43.147,-9.9986 -38.984,-28.4" />
  <path
     style="stroke:#ffffff;stroke-opacity:1"
     id="path36"
     stroke-width="10"
     stroke-linecap="round"
     stroke="#000000"
     fill="none"
     d="m 687.54763,592.13964 c -11.343,-5.0665 -29.335,-18.187 -29.335,-31.426" />
  <path
     style="stroke:#ffffff;stroke-opacity:1"
     id="path38"
     stroke-width="10"
     stroke-linecap="round"
     stroke="#000000"
     fill="none"
     d="m 835.79763,591.94964 c 19.494,-2.2178 33.583,-4.6693 28.373,-31.734" />
  <path
     style="stroke:#ffffff;stroke-opacity:1"
     id="path40"
     stroke-width="10"
     stroke-linecap="round"
     stroke="#000000"
     fill="none"
     d="m 850.16763,615.39964 c 18.813,-0.0461 46.032,-12.284 46.032,-31.782" />
  <path
     style="fill:#ffffff;fill-opacity:1"
     id="path42"
     d="m 709.23763,609.02964 c -19.802,0 -30.803,63.813 -3.3004,63.813 30.686,0 23.102,-38.508 23.102,-38.508 0,0 -10.695,14.257 -18.243,7.1326 -11.266,-10.634 -1.5592,-32.438 -1.5592,-32.438 z" />
  <path
     style="fill:#ffffff;fill-opacity:1"
     id="path44"
     d="m 800.94763,603.97964 c -19.802,0 -30.803,63.813 -3.3004,63.813 30.686,0 23.102,-38.508 23.102,-38.508 0,0 -10.695,14.257 -18.243,7.1326 -11.266,-10.634 -1.5592,-32.438 -1.5592,-32.438 z" />
  <path
     style="stroke:#ffffff;stroke-opacity:1"
     id="path46"
     stroke-width="10"
     stroke-linecap="round"
     stroke="#000000"
     fill="none"
     d="m 844.01763,863.63964 c -18.165,46.903 24.559,65.154 57.271,73.823 -60.886,32.112 -161.88,71.68096 -213.81,61.095 -123,-25.071 -111.12,-60.601 -95.451,-134.92" />
  <path
     style="stroke:#ffffff;stroke-opacity:1"
     id="path48"
     stroke-width="10"
     stroke-linecap="round"
     stroke="#000000"
     fill="none"
     d="m 881.97763,947.22964 c 10.85,3.119 39.518,20.153 39.366,26.753 -0.20802,8.9834 -49.568,46.00996 -61.911,36.63096 -9.6726,-7.3502 -22.255,-30.67296 -25.42,-42.14896" />
  <path
     style="stroke:#ffffff;stroke-opacity:1"
     id="path50"
     stroke-width="10"
     stroke-linecap="round"
     stroke="#000000"
     fill="none"
     d="m 759.43763,992.94964 c -6.9443,3.9686 -22.047,41.54996 -15.607,54.47096 2.5899,2.5901 61.298,-6.3322 65.814,-10.848 6.6059,-6.6066 -4.0865,-36.538 -19.74,-52.19196" />
  <path
     style="stroke:#ffffff;stroke-opacity:1"
     id="path52"
     stroke-width="10"
     stroke-linecap="round"
     stroke="#000000"
     fill="none"
     d="m 879.87763,1007.7796 c -1.0147,14.14 -2.6821,28.886 17.594,41.691 21.764,-27.873 58.73,10.191 23.835,23.733 15.845,21.221 26.739,79.397 -3.433,81.995 -52.994,4.5635 -96.042,82.153 -151.17,34.177 -123.52,0.1508 -130.49,-71.752 -161.01,-104.03 -15.886,-7.9438 -67.873,26.263 -93.24,-8.9279 -39.871,-55.312 -45.493,-88.51696 -45.493,-161.77996" />
  <path
     style="stroke:#ffffff;stroke-opacity:1"
     id="path54"
     stroke-width="10"
     stroke-linecap="round"
     stroke="#000000"
     fill="none"
     d="m 502.03663,758.24964 c -9.1239,-13.055 -32.486,-6.9349 -44.468,5.1905" />
  <path
     style="stroke:#ffffff;stroke-opacity:1"
     id="path56"
     stroke-width="10"
     stroke-linecap="round"
     stroke="#000000"
     fill="none"
     d="m 455.15363,658.78964 c 25.495,-2.6742 48.311,3.9091 56.198,22.679" />
  <path
     style="stroke:#ffffff;stroke-opacity:1"
     id="path58"
     stroke-width="10"
     stroke-linecap="round"
     stroke="#000000"
     fill="none"
     d="m 480.78863,697.24964 c -20.083,18.228 -3.7336,36.483 25.634,30.567" />
  <path
     style="stroke:#ffffff;stroke-opacity:1"
     id="path60"
     stroke-width="10"
     stroke-linecap="round"
     stroke="#000000"
     fill="none"
     d="m 1020.4076,565.36964 c 71.368,-5.9084 370.54,-13.621 323.17,-71.076 -64.389,-78.089 -393.39997,-26.416 -561.51997,-2.1441 -216.29,31.227 -323.78,-19.591 -440.89,66.302 -65.635,48.137 -381.39,201.4 -317.78,294.4 53.369,78.026 22.936,31.911 302.87,-28.942" />
  <path
     style="stroke:#ffffff;stroke-opacity:1"
     id="path62"
     stroke-width="10"
     stroke-linecap="round"
     stroke="#000000"
     fill="none"
     d="m 569.64763,504.22764 c -8.2328,32.5 28.24,66.046 37.328,96.348 -41.655,-12.457 -49.326,-6.2431 -66.925,-2.9834 10.423,10.024 12.634,33.037 21.741,42.754 -48.502,-13.374 -28.289,8.4649 -33.938,32.592 -12.131,-14.643 -15.651,-20.354 -26.358,-28.934 -20.68,-16.572 -56.751,-9.097 -66.058,15.777 -6.6457,19.939 32.033,15.953 19.719,36.483 -20.707,34.523 -21.548,57.677 -14.789,84.799 8.1643,32.759 46.773,10.642 62.896,2.8561 29.139,17.146 46.578,45.603 52.935,92.118 -19.035,-15.857 -26.874,-20.441 -41.894,-21.489 5.9623,11.66 33.19,70.44 30.624,105.92 -45.905,-24.127 -77.699,-38.541 -85.541,-56.261 0,0 -16.287,-6.5697 -74.896,82.345 0,0 -36.321,-65.406 1.266,-112.82 0,0 -43.397,-13.667 -98.071,15.477 0,0 42.124,-69.727 82.578,-142.71 0,0 -38.908,-19.841 -83.527,1.3381 24.84,-62.69 26.687,-73.173 58.572,-90.167 -32.68,-8.9642 -49.845,-10.554 -97.779,18.577 34.853,-59.288 66.811,-69.188 85.162,-111.91 m 637.03,-97.711 c 31.75597,11.218 57.41097,43.336 61.99597,50.896 -31.82097,-8.1278 -55.00697,-4.7232 -69.72397,7.2869 18.349,8.0724 97.85097,63.041 93.89597,90.022 -42.224,-26.15 -95.72297,-43.407 -117.61997,-38.87 7.9259,6.4748 27.922,33.645 36.818,63.106 -32.871,-22.441 -42.334,-15.571 -61.021,-5.3301 22.23,13.067 35.105,30.463 37.392,59.511" />
  <path
     style="stroke:#ffffff;stroke-opacity:1"
     id="path64"
     stroke-width="10"
     stroke-linecap="round"
     stroke="#000000"
     fill="none"
     d="m 1298.4676,467.47464 c -309.28997,-149.3 -550.06997,-71.604 -667.78997,-69.053 -137.19,2.9727 -437.94,167.99 -577.68,357.4" />
  <path
     style="stroke:#ffffff;stroke-opacity:1"
     id="path66"
     stroke-width="10"
     stroke-linecap="round"
     stroke="#000000"
     fill="none"
     d="m 810.68763,537.25964 c 0,0 14.8,28.794 14.763,44.646" />
  <path
     style="stroke:#ffffff;stroke-opacity:1"
     id="path68"
     stroke-width="10"
     stroke-linecap="round"
     stroke="#000000"
     fill="none"
     d="m 800.44763,526.06264 c -10.351,-21.197 -29.926,-32.314 -41.622,-30.817" />
  <path
     style="fill:#e36414;fill-opacity:1;stroke:#ffffff;stroke-opacity:1"
     id="path70"
     stroke-width="10"
     stroke-linecap="round"
     stroke="#000000"
     fill="#808080"
     d="m 735.97763,535.10964 c -64.007,-15.405 -97.376,19.688 -118.01,26.39 4.8792,-13.146 10.436,-21.322 22.938,-30.664 -7.4875,0.40814 -20.137,0.0414 -36.322,6.8205 10.84,-18.379 28.608,-25.08 43.022,-27.606 -10.598,-5.5731 -34.376,-2.3869 -48.253,-2.1312 46.34,-33.177 110.89,-4.8513 136.63,27.19 z" />
  <path
     style="fill:#e36414;fill-opacity:1;stroke:#ffffff;stroke-opacity:1"
     id="path72"
     stroke-width="10.941"
     stroke-linecap="round"
     stroke="#000000"
     fill="#808080"
     d="m 790.77763,541.18964 c 44.352,-12.286 69.577,2.5746 123.08,12.819 -9.5267,-12.768 -28.008,-22.021 -40.125,-27.566 10.198,-5.7049 33.535,-2.3664 43.672,1.1458 -10.064,-21.136 -22.96,-14.873 -38.315,-22.999 8.6322,-6.8527 21.772,-10.987 35.108,-12.292 -41.069,-24.571 -103.75,8.797 -123.42,48.891 z" />
  <path
     style="stroke:#ffffff;stroke-opacity:1"
     id="path74"
     stroke-width="10"
     stroke-linecap="round"
     stroke="#000000"
     fill="none"
     d="m 443.04663,333.74864 c -34.519,20.393 -117.86,45.69 -132.36,73.104 -2.8227,6.5298 4.1999,26.692 8.8657,31.292 9.1668,9.0364 0.0626,27.623 3.3143,39.882 1.0313,3.8879 8.0582,28.637 11.324,34.342" />
  <path
     style="stroke:#ffffff;stroke-opacity:1"
     id="path76"
     stroke-width="10"
     stroke-linecap="round"
     stroke="#000000"
     fill="none"
     d="m 580.43763,287.39964 c 0.0344,-10.227 -10.175,-16.524 -17.598,-19.282 -7.238,-2.6899 -109.17,13.856 -119.39,58.004 -3.3364,14.423 13.136,98.185 22.712,111.33 m 24.485,-11.017 c 1.7556,-1.8283 -29.421,-91.189 -17.271,-103.84 34.364,-25.397 67.636,-31.203 74.628,-33.678 12.114,-4.1802 53.635,1.7084 80.116,-4.5003 25.025,-5.8672 53.554,1.5588 78.19,-12.961 17.674,-10.417 63.761,-16.258 70.379,-11.52 6.957,4.9807 -0.65533,38.27 2.7905,48.362 1.6995,8.5328 22.859,17.902 24.484,26.062 3.1408,15.77 1.4512,11.551 9.5249,45.312" />
  <path
     style="fill:#e36414;fill-opacity:1;stroke:#ffffff;stroke-opacity:1"
     id="path78"
     stroke-width="10"
     stroke-linecap="round"
     stroke="#000000"
     fill="#e6e6e6"
     d="m 533.60763,342.56464 c -92.404,12.982 -89.22,73.603 5.4816,24.496 7.3383,-3.8052 8.5726,-23.666 -5.4816,-24.496 z" />
  <path
     style="stroke:#ffffff;stroke-opacity:1"
     id="path80"
     stroke-width="10"
     stroke-linecap="round"
     stroke="#000000"
     fill="none"
     d="m 750.44763,259.35964 c -65.682,-38.265 -45.219,-108.31 -122.83,-128.8 -53.068,-14.015 -31.777,-23.895 -105.18,-43.280005 -34.281,-9.0536 -49.979,-40.698 -78.916,-50.602 -8.5382,-2.922 -11.904,-18.203 -21.851,-21.608 -2.7072,-0.92647 -21.085,17.24 -23.779,18.355 -41.479,17.166 -119.58,8.0061 -128.06,44.483 -6.0246,25.927005 -34.721,80.993005 -52.564,100.930005 -12.596,14.077 -28.827,26.665 -38.286,42.238 -11.293,18.593 18.589,47.018 21.66,65.108 1.9129,11.268 -11.155,36.435 -9.5471,39.71 2.7029,5.5054 13.058,7.3939 18.712,7.5813 59.321,1.9661 25.151,-76.262 77.207,-92.082 19.346,-5.8797 33.319,-16.209 39.791,-39.455 17.76,35.678 50.788,-7.7573 55.098,-29.268 -9.2543,48.595 -22.877,82.284 -22.895,82.658 -0.42459,8.8001 -18.786,42.889 -22.008,52.792 -6.2423,19.191 -5.8251,60.537 -6.7716,80.154" />
</svg>
