<?xml version="1.0" encoding="UTF-8" standalone="no"?>
<svg
   xmlns:dc="http://purl.org/dc/elements/1.1/"
   xmlns:cc="http://creativecommons.org/ns#"
   xmlns:rdf="http://www.w3.org/1999/02/22-rdf-syntax-ns#"
   xmlns:svg="http://www.w3.org/2000/svg"
   xmlns="http://www.w3.org/2000/svg"
   xmlns:sodipodi="http://sodipodi.sourceforge.net/DTD/sodipodi-0.dtd"
   xmlns:inkscape="http://www.inkscape.org/namespaces/inkscape"
   inkscape:version="1.0 (4035a4fb49, 2020-05-01)"
   sodipodi:docname="malfeliÄa.svg"
   id="svg905"
   xml:space="preserve"
   viewBox="0 0 100 100"
   version="1.1"
   enable-background="new 0 0 100 100"><metadata
   id="metadata911"><rdf:RDF><cc:Work
       rdf:about=""><dc:format>image/svg+xml</dc:format><dc:type
         rdf:resource="http://purl.org/dc/dcmitype/StillImage" /><dc:title></dc:title></cc:Work></rdf:RDF></metadata><defs
   id="defs909" /><sodipodi:namedview
   inkscape:current-layer="svg905"
   inkscape:window-maximized="1"
   inkscape:window-y="0"
   inkscape:window-x="0"
   inkscape:cy="50"
   inkscape:cx="50"
   inkscape:zoom="7.7588742"
   showgrid="false"
   id="namedview907"
   inkscape:window-height="1016"
   inkscape:window-width="1920"
   inkscape:pageshadow="2"
   inkscape:pageopacity="0"
   guidetolerance="10"
   gridtolerance="10"
   objecttolerance="10"
   borderopacity="1"
   bordercolor="#666666"
   pagecolor="#ffffff" />
	<path
   d="M 49.998047 5 C 25.185047 5 4.9980469 25.187 4.9980469 50 C 4.9980469 74.813 25.185047 95 49.998047 95 C 74.811047 95 95.001953 74.812 95.001953 50 C 95.001953 25.187 74.812047 5 49.998047 5 z M 36.966797 24.736328 C 41.088797 24.736328 44.429688 29.926125 44.429688 36.328125 C 44.429688 42.730125 41.087797 47.919922 36.966797 47.919922 C 32.845797 47.919922 29.505859 42.730125 29.505859 36.328125 C 29.505859 29.926125 32.845797 24.736328 36.966797 24.736328 z M 63.03125 24.736328 C 67.15225 24.736328 70.494141 29.926125 70.494141 36.328125 C 70.494141 42.730125 67.15225 47.919922 63.03125 47.919922 C 58.90925 47.919922 55.570313 42.730125 55.570312 36.328125 C 55.570312 29.926125 58.90925 24.736328 63.03125 24.736328 z M 32.746094 50 C 32.746094 50 35.990234 54.625969 35.990234 56.417969 C 35.990234 58.207969 34.538094 59.660156 32.746094 59.660156 C 30.956094 59.660156 29.503906 58.207969 29.503906 56.417969 C 29.503906 54.625969 32.746094 50 32.746094 50 z M 50.130859 58.896484 C 59.390859 58.896484 68.090984 63.700594 72.833984 71.433594 C 73.671984 72.797594 73.244859 74.582922 71.880859 75.419922 C 70.516859 76.259922 68.732531 75.829844 67.894531 74.464844 C 64.197531 68.437844 57.391813 64.693359 50.132812 64.693359 C 42.684812 64.693359 35.790625 68.584656 32.140625 74.847656 C 31.601625 75.769656 30.630813 76.286109 29.632812 76.287109 C 29.136813 76.287109 28.634781 76.158625 28.175781 75.890625 C 26.793781 75.084625 26.326812 73.310734 27.132812 71.927734 C 31.816813 63.890734 40.628859 58.896484 50.130859 58.896484 z "
   style="stroke:none;stroke-opacity:1;fill:#e36414;fill-opacity:1"
   id="path893" />
	
	
	
	
	
</svg>
