<?xml version="1.0" encoding="UTF-8" standalone="no"?>
<svg
   xmlns:dc="http://purl.org/dc/elements/1.1/"
   xmlns:cc="http://creativecommons.org/ns#"
   xmlns:rdf="http://www.w3.org/1999/02/22-rdf-syntax-ns#"
   xmlns:svg="http://www.w3.org/2000/svg"
   xmlns="http://www.w3.org/2000/svg"
   xmlns:sodipodi="http://sodipodi.sourceforge.net/DTD/sodipodi-0.dtd"
   xmlns:inkscape="http://www.inkscape.org/namespaces/inkscape"
   height="119.77647"
   width="170.4465"
   inkscape:version="1.0 (4035a4fb49, 2020-05-01)"
   sodipodi:docname="malgrandega.svg"
   viewBox="0 0 170.4465 119.77646"
   y="0px"
   x="0px"
   id="Ebene_1"
   version="1.1">
  <metadata
     id="metadata91">
    <rdf:RDF>
      <cc:Work
         rdf:about="">
        <dc:format>image/svg+xml</dc:format>
        <dc:type
           rdf:resource="http://purl.org/dc/dcmitype/StillImage" />
        <dc:title></dc:title>
      </cc:Work>
    </rdf:RDF>
  </metadata>
  <defs
     id="defs89" />
  <sodipodi:namedview
     fit-margin-bottom="4"
     fit-margin-right="4"
     fit-margin-left="4"
     lock-margins="true"
     fit-margin-top="4"
     inkscape:snap-global="false"
     inkscape:current-layer="Ebene_1"
     inkscape:window-maximized="1"
     inkscape:window-y="0"
     inkscape:window-x="0"
     inkscape:cy="93.391631"
     inkscape:cx="174.36876"
     inkscape:zoom="1.5383396"
     showgrid="false"
     id="namedview87"
     inkscape:window-height="1016"
     inkscape:window-width="1920"
     inkscape:pageshadow="2"
     inkscape:pageopacity="0"
     guidetolerance="10"
     gridtolerance="10"
     objecttolerance="10"
     borderopacity="1"
     bordercolor="#666666"
     pagecolor="#ffffff" />
  <style
     id="style2"
     type="text/css"> .st0{fill:#E5E5E5;stroke:#000000;stroke-width:2;stroke-linecap:round;stroke-linejoin:round;} .st1{opacity:0.6;fill:#FFFFFF;} .st2{fill:none;stroke:#000000;stroke-width:2;stroke-linecap:round;stroke-linejoin:round;} .st3{fill:#64AE24;stroke:#000000;stroke-width:2;stroke-linecap:round;stroke-linejoin:round;} .st4{fill:#639B2D;} .st5{opacity:0.2;fill:#FFFFFF;} .st6{fill:#639B2D;stroke:#000000;stroke-width:2;stroke-linecap:round;stroke-linejoin:round;} .st7{fill:#E32322;stroke:#000000;stroke-width:2;stroke-linecap:round;stroke-linejoin:round;} .st8{fill:#BA3131;} .st9{fill:#BA3131;stroke:#000000;stroke-width:2;stroke-linecap:round;stroke-linejoin:round;} .st10{fill:#8D4691;stroke:#000000;stroke-width:2;stroke-linecap:round;stroke-linejoin:round;} .st11{fill:#693B6D;} .st12{fill:#693B6D;stroke:#000000;stroke-width:2;stroke-linecap:round;stroke-linejoin:round;} .st13{fill:#F3E50D;stroke:#000000;stroke-width:2;stroke-linecap:round;stroke-linejoin:round;} .st14{fill:#DDCA17;} .st15{fill:#DDCA17;stroke:#000000;stroke-width:2;stroke-linecap:round;stroke-linejoin:round;} </style>
  <path
     class="st1"
     d="m 99.967536,81.144329 0.580644,0.05345 c 9.14057,-4.066928 27.1511,-9.074003 55.44211,-4.712953 0,0 -28.5879,-5.438945 -50.26553,-3.438918 0,0 -7.625902,7.444169 -5.757224,8.098419 z"
     id="path6" />
  <path
     style="fill:#e36414;fill-opacity:1;stroke:none"
     class="st2"
     d="m 99.967536,81.144329 c -1.868678,-0.65425 5.757224,-8.098419 5.757224,-8.098419 21.67763,-2.000027 50.22216,3.348813 50.22216,3.348813 -14.2295,3.409014 -41.57334,4.474094 -48.42098,4.773733 -0.98443,0.02993 -1.61181,0.109958 -1.61181,0.109958 z"
     id="path8" />
  <path
     d="m 85.555125,40.136706 c -6.436345,0.205515 -13.452998,6.289944 -18.009766,15.662109 3.50797,6.548186 5.704226,14.581368 6.101563,22.427734 0.408796,8.072661 -1.099586,15.963391 -5.109375,21.769531 h 0.107422 c 5.051359,9.11064 12.431147,14.9897 18.875,14.77344 0.480408,-0.0128 0.953908,-0.072 1.423828,-0.15039 0.611038,-2.50891 1.135292,-5.27475 1.558594,-8.25196 1.209854,-8.50927 1.675381,-18.61873 1.49414,-28.572261 C 91.81529,67.841374 90.986952,58.03962 89.617625,50.146471 88.954501,46.324056 88.1427,42.958205 87.238719,40.238268 86.682065,40.161958 86.121686,40.121622 85.555125,40.136706 Z m 2.839844,0.322265 c 0.846531,2.690523 1.578333,5.893606 2.207031,9.517578 1.381529,7.963482 2.212499,17.803798 2.394531,27.800782 0.182032,9.996979 -0.283566,20.147439 -1.503906,28.730469 -0.401011,2.82044 -0.889061,5.44726 -1.455078,7.86914 9.480413,-2.63566 16.435013,-18.49713 15.896483,-37.4375 -0.4508,-18.779972 -8.072907,-34.102584 -17.539061,-36.480469 z m -21.44336,16.353516 -37.787109,0.591797 -12.615234,6.072265 5.957031,29.207031 6.78125,7.16797 38.029297,0.14062 C 71.462419,94.37442 73.063831,86.47164 72.648875,78.277331 72.270234,70.800146 70.208446,63.115488 66.951609,56.812487 Z"
     style="fill:#e36414;fill-opacity:1;stroke:#ffffff;stroke-opacity:1"
     id="path10" />
  <path
     style="stroke:#ffffff;stroke-opacity:1"
     class="st2"
     d="m 29.164562,57.404093 -12.61464,6.072139 5.956996,29.206408 6.780144,7.16866 39.357073,0.14415 v 0 c 5.051359,9.11064 12.432302,14.99126 18.876155,14.775 C 98.258924,114.48455 106.51983,97.5232 105.9346,76.94026 105.43947,56.313946 96.294304,39.851384 85.55567,40.13728 78.888236,40.350174 71.589462,46.860005 67.056748,56.810608 v 0 z"
     id="path16" />
  <ellipse
     style="fill:#e36414;fill-opacity:1;stroke:#ffffff;stroke-opacity:1"
     transform="rotate(178.52073)"
     class="st3"
     cx="-16.600388"
     cy="-78.342323"
     rx="13.599373"
     ry="29.898621"
     id="ellipse18" />
  <path
     style="fill:#e36414;fill-opacity:1;stroke:#ffffff;stroke-opacity:1"
     class="st6"
     d="m 32.215909,77.576829 c 0.372337,13.915511 -5.585556,26.438831 -11.676014,29.925421 0.133477,0.0467 0,0 0.133477,0.0467 C 31.842371,108.38771 37.77705,94.4328 37.398298,77.967789 37.019545,61.50278 33.490493,46.332223 18.884082,48.03597 c -1.254744,0.160051 1.127987,-0.653946 0,0 7.688518,0.29444 12.949715,13.299431 13.331827,29.540859 z"
     id="path22" />
  <path
     style="fill:#e36414;fill-opacity:1;stroke:#ffffff;stroke-width:1;stroke-miterlimit:4;stroke-dasharray:none;stroke-opacity:1"
     d="m 118.53755,73.119073 c 0,0 0.82976,-34.77413 24.06279,-42.61905 0,0 -2.3761,-17.613357 13.80405,-24.0627856 0,0 2.75326,-1.923514 1.20691,3.205858 0,0 1.20691,-3.696165 5.95912,-5.129372 0,0 2.37611,-0.603456 -1.92351,6.4494306 0,0 2.97956,3.205859 2.56468,3.922459 -0.41487,0.7166 -0.56574,5.24252 0.0377,5.69511 0.60346,0.45259 1.69722,2.37611 1.69722,3.09271 0,0.7166 -4.07332,5.50653 -5.01622,4.78993 -0.94291,-0.7166 6.07227,7.61862 -4.18648,27.04235 0,0 -0.33944,12.03139 1.32006,12.86114 1.6595,0.82976 5.12938,2.48926 3.31901,4.75222 0,0 -6.90203,0.9429 -7.39233,0 -0.49031,-0.9429 2.18752,-2.86642 -2.52697,-5.01623 l -2.60241,-8.56152 c 0,0 0.71661,8.56152 -3.58301,9.05183 0,0 12.25769,-1.8858 7.73177,4.94079 l -25.11884,0.64117 c 0,0 -24.13822,31.455117 -5.80825,33.039187 7.16603,0.64117 9.65528,-4.11104 11.27707,-10.33417 0.37716,-1.47093 2.18753,-1.24463 2.67783,0.18858 0.33945,0.98061 0.2263,6.41171 -4.2619,11.95596 -7.20375,8.93868 -29.15445,4.07332 -21.46039,-16.36873 5.84598,-15.425827 4.63907,-6.90202 8.22208,-19.536867 z"
     id="path2" />
</svg>
