<?xml version="1.0" encoding="UTF-8" standalone="no"?>
<svg
   xmlns:dc="http://purl.org/dc/elements/1.1/"
   xmlns:cc="http://creativecommons.org/ns#"
   xmlns:rdf="http://www.w3.org/1999/02/22-rdf-syntax-ns#"
   xmlns:svg="http://www.w3.org/2000/svg"
   xmlns="http://www.w3.org/2000/svg"
   xmlns:sodipodi="http://sodipodi.sourceforge.net/DTD/sodipodi-0.dtd"
   xmlns:inkscape="http://www.inkscape.org/namespaces/inkscape"
   height="38.016998"
   width="38.014999"
   inkscape:version="1.0 (4035a4fb49, 2020-05-01)"
   sodipodi:docname="malica.svg"
   id="svg16"
   version="1.1"
   viewBox="0 0 38.014999 38.016999"
   enable-background="new 0 0 87.511 77.682">
  <metadata
     id="metadata22">
    <rdf:RDF>
      <cc:Work
         rdf:about="">
        <dc:format>image/svg+xml</dc:format>
        <dc:type
           rdf:resource="http://purl.org/dc/dcmitype/StillImage" />
        <dc:title></dc:title>
      </cc:Work>
    </rdf:RDF>
  </metadata>
  <defs
     id="defs20" />
  <sodipodi:namedview
     lock-margins="true"
     fit-margin-bottom="2"
     fit-margin-right="2"
     fit-margin-left="2"
     fit-margin-top="2"
     inkscape:current-layer="svg16"
     inkscape:window-maximized="1"
     inkscape:window-y="0"
     inkscape:window-x="0"
     inkscape:cy="40.841"
     inkscape:cx="45.755501"
     inkscape:zoom="9.987995"
     showgrid="false"
     id="namedview18"
     inkscape:window-height="1016"
     inkscape:window-width="1920"
     inkscape:pageshadow="2"
     inkscape:pageopacity="0"
     guidetolerance="10"
     gridtolerance="10"
     objecttolerance="10"
     borderopacity="1"
     bordercolor="#666666"
     pagecolor="#ffffff" />
  <path
     style="fill:#e36414;fill-opacity:1"
     id="path6"
     fill-rule="evenodd"
     d="M 2,19.008 C 2,9.615 9.616,2 19.008,2 28.4,2 36.015,9.615 36.015,19.008 c 0,9.393 -7.616,17.009 -17.007,17.009 C 9.617,36.017 2,28.399 2,19.008 Z m 9.45,-1.994 -0.634,0.079 h -0.282 c -1.9,0 -3.313,-1.76 -5.209,-1.76 h -0.21 c -0.494,0 -1.339,0.475 -1.339,0.913 0,0.194 0.273,0.378 0.433,0.41 l 2.03,-0.338 h 0.354 c 0.259,0 1.125,0.096 1.125,0.281 0,0.384 -0.209,0.76 -0.209,1.269 0,1.162 0.76,1.829 1.899,1.829 H 9.69 c 0.998,0 1.831,-0.722 1.831,-1.689 v -0.491 c 0,-0.245 -0.054,-0.273 -0.071,-0.503 z m 10.407,8.654 c -2.331,1.834 -5.069,3.25 -9.21,3.25 v 0.071 c 4.553,0 7.134,-0.648 9.899,-2.491 1.61,-1.075 5.448,-4.572 5.448,-6.942 0,-0.34 -0.19,-0.845 -0.493,-0.845 H 27.29 c -0.875,0 -1.108,1.022 -1.432,1.667 -0.36,0.717 -0.683,1.37 -1.103,1.996 -0.82,1.223 -1.746,2.387 -2.898,3.294 z m -7.66,-9.139 c 0,1.087 0.79,2.111 1.898,2.111 h 0.353 c 0.718,0 1.971,-0.871 1.971,-1.548 V 16.6 c 0,-0.943 -0.773,-1.539 -0.773,-1.832 0,-1.022 0.96,-2.52 1.688,-2.888 0.817,-0.412 3.45,-0.319 3.45,-1.192 v -0.283 c 0,-0.313 -0.627,-0.564 -0.985,-0.564 h -0.635 c -1.71,0 -2.966,2.011 -3.489,3.338 -0.462,1.17 -0.373,1.317 -1.244,2.138 -0.378,0.353 -1.668,1.08 -2.234,1.212 z" />
</svg>
