<?xml version="1.0" encoding="UTF-8" standalone="no"?>
<svg
   xmlns:dc="http://purl.org/dc/elements/1.1/"
   xmlns:cc="http://creativecommons.org/ns#"
   xmlns:rdf="http://www.w3.org/1999/02/22-rdf-syntax-ns#"
   xmlns:svg="http://www.w3.org/2000/svg"
   xmlns="http://www.w3.org/2000/svg"
   xmlns:sodipodi="http://sodipodi.sourceforge.net/DTD/sodipodi-0.dtd"
   xmlns:inkscape="http://www.inkscape.org/namespaces/inkscape"
   inkscape:version="1.0 (4035a4fb49, 2020-05-01)"
   sodipodi:docname="malsaÄa.svg"
   id="svg16"
   viewBox="0 0 546.01147 290.2955"
   height="290.2955"
   width="546.01147"
   version="1.1">
  <metadata
     id="metadata22">
    <rdf:RDF>
      <cc:Work
         rdf:about="">
        <dc:format>image/svg+xml</dc:format>
        <dc:type
           rdf:resource="http://purl.org/dc/dcmitype/StillImage" />
        <dc:title></dc:title>
      </cc:Work>
    </rdf:RDF>
  </metadata>
  <defs
     id="defs20" />
  <sodipodi:namedview
     fit-margin-bottom="6"
     fit-margin-right="6"
     fit-margin-left="6"
     lock-margins="true"
     fit-margin-top="6"
     inkscape:snap-global="false"
     inkscape:current-layer="svg16"
     inkscape:window-maximized="1"
     inkscape:window-y="0"
     inkscape:window-x="0"
     inkscape:cy="65.644283"
     inkscape:cx="23.049748"
     inkscape:zoom="1.0987978"
     showgrid="false"
     id="namedview18"
     inkscape:window-height="1016"
     inkscape:window-width="1920"
     inkscape:pageshadow="2"
     inkscape:pageopacity="0"
     guidetolerance="10"
     gridtolerance="10"
     objecttolerance="10"
     borderopacity="1"
     bordercolor="#666666"
     pagecolor="#ffffff" />
  <g
     transform="translate(312.02566,-154.58968)"
     style="fill:#e36414;fill-opacity:1"
     id="g928">
    <path
       style="fill:#e36414;fill-opacity:1"
       id="path14"
       fill="#5bba47"
       d="m 138.42234,341.55817 c 6.615,-9.087 1.732,-36.62 -2.229,-46.656 -3.93,0.652 -6.205,4.768 -8.633,7.939 3.154,-10.057 4.131,-23.783 -3.193,-32.276 -2.133,2.982 -4.1,6.039 -6.641,8.689 1.43,-9.589 -6.176,-20.627 -14.791,-24.803 -0.912,2.647 -1.738,5.422 -2.43,8.171 -0.254,-6.216 -2.684997,-14.176 -8.425997,-17.123 -3.688,4.433 -8.712,13.627 -8.982,19.012 -3.691,-0.327 -5.646,-3.585 -8.293,-5.477 -2.828,9.029 -12.651,25.805 0.379,32.72 -3.941,-0.638 -7.725,-0.128 -11.551,-1.669 3.551,6.634 2.115,13.376 7.551,19.604 5.525,6.328 13.766,10.111 21.335,13.126 -2.017,1.318 -4.953,1.761 -7.546,1.209 7.097,10.725 19.953997,19.569 33.745997,17.951 -2.158,0.052 -5.01,0.769 -7.32,1.104 5.008,5.51 24.854,10.687 26.582,0.031" />
    <path
       style="fill:#e36414;fill-opacity:1"
       id="path16"
       fill="#6cbe45"
       d="m -212.34766,357.68817 c -7.405,-7.55 -12.838,-10.403 -23.026,-8.897 -10.106,1.492 -14.634,2.852 -25.013,-2.115 2.005,7.9 4.155,13.564 11.248,18.225 5.042,3.312 14.943,0.626 15.917,6.738 3.608,-0.791 7.372,-1.999 10.375,-3.852 0.569,1.633 2.109,2.268 2.56,3.066 1.969,-4.305 9.223,-11.207 14.186,-11.869 -1.27,-0.483 -3.919,-1.406 -5.475,-1.535" />
    <path
       style="fill:#e36414;fill-opacity:1"
       id="path18"
       fill="#67bd45"
       d="m -0.2576575,367.48817 c -16.2339995,-5.063 -37.0659995,7.183 -43.2239995,21.865 -3.168,7.555 -4.428,16.117 -7.229,23.84 -2.848,7.852 -6.696,14.752 -10.849,21.716 7.788,2.357 17.347,-1.101 23.771,-4.938 -0.484,3.074 -1.18,6.019 -0.845,8.914 3.369,-1.365 7.354,-6.014 10.043,-8.752 1.277,-1.301 3.379,-5.001 4.994,-5.614 2.618,-0.995 3.669,1.045 5.902,0.398 5.078,-1.468 7.283,-2.116 11.2179995,-7.638 3.019,-4.235 6.583,-9.123 8.828,-13.752 9.3370005,7.32 13.5050005,-22.821 14.6060005,-28.309 -0.979,4.11 -2.904,8.326 -2.465,12.546 1.225,-6.668 4.023,-13.521 4.514,-20.193 -6.957,0.474 -17.5650005,0.138 -24.6650005,-1.137" />
    <path
       style="fill:#e36414;fill-opacity:1"
       id="path20"
       fill="#47b649"
       d="m -230.83766,297.95817 c -7.958,-12.269 -21.686,-28.054 -36.623,-28.861 1.718,2.163 1.993,4.488 2.654,7.075 -7.2,-0.225 -16.303,1.375 -23.694,3.632 1.474,1.533 2.096,4.341 3.552,5.859 -6.776,4.875 -13.679,6.892 -21.077,10.012 3.91,5.683 11.798,7.251 16.268,12.273 -2.521,1.87 -5.477,3.521 -7.768,5.506 9.103,7.474 20.74,3.174 31.028,5.535 -0.177,3.953 -1.849,6.976 -4.077,10.318 10.169,1.797 18.569,-4.27 27.701,-8.106 2.716,4.112 -0.616,8.566 -2.645,11.923 5.116,-3.315 10.727,-4.891 15.97,-8.178 6.467,-4.056 7.288,-7.263 11.286,-13.19 -2.993,-4.863 -8.63,-7.112 -11.704,-12.441" />
    <path
       style="fill:#e36414;fill-opacity:1"
       id="path22"
       fill="#149c48"
       d="m -177.68766,365.15817 c -7.25,-5.782 -33.746,2.991 -38.768,11.106 0.798,0.023 1.622,-0.178 2.304,-0.127 -5.487,7.978 -13.361,13.36 -14.775,23.445 7.396,-3.546 5.629,7.483 5.796,11.897 0.222,5.855 0.761,13.293 3.171,18.463 4.297,-2.133 6.938,-6.237 10.204,-9.79 1.86,2.379 2.854,5.684 2.449,8.817 13.566,-3.592 16.69,-14.103 23.495,-24.747 0.418,2.01 2.451,3.955 3.11,5.327 10.519,-12.174 12.139,-29.904 5.483,-44.371 -1.004,0.513 -1.074,-0.07 -1.721,-0.324" />
    <path
       style="fill:#e36414;fill-opacity:1"
       id="path24"
       fill="#605921"
       d="m 205.93234,370.13817 c -16.07,0.007 -37,-3.964 -51.453,-10.685 -6.404,-2.978 -27.705,-22.184 -33.283,-28.588 0.24,10.378 22.354,21.656 20.691,31.412 -14.682,0.482 -50.213997,-1.011 -65.790997,-1.011 -16.396,0 -32.625,-2.038 -48.569,-4.977 -19.8720005,-3.662 -42.666,-1.475 -63.27,-1.475 h -67.212003 c -14.306,0 -28.793,0.815 -42.729,-1.637 -15.129,-2.661 -22.63,-7.492 -33.887,-17.089 -9.368,-7.987 -19.272,-15.418 -30.631,-20.59 -5.393,-2.456 -32.222,-14.498 -29.712,-1.936 24.436,-2.062 51.154,21.891 62.522,41.312 -8.341,1.754 -17.689,0.475 -26.354,0.746 -9.954,0.312 -18.527,3.618 -27.982,5.642 15.22,0.018 31.521,0.135 45.464,5.411 0,6.271 -2.498,13.734 -6.916,19.428 7.708,0.18 11.353,-6.184 14.253,-12.739 4.148,-9.376 4.842,-11.162 15.502,-11.29 13.692,-0.164 28.32,-1.369 41.936,-0.042 29.120003,2.839 59.609003,1.655 89.295003,1.655 15.799,0 33.1139995,2.511 48.405,1.734 -9.5670005,9.923 -16.6200005,12.631 -28.604,16.652 7.7849995,0.571 16.8189995,-3.328 24.129,-5.685 7.62,-2.457 12.068,-3.039 20.045,-3.832 13.826,-1.374 28.575,0 42.481,0 24.674,0 105.659997,16.859 113.719997,20.162 7.66,3.136 15.371,4.834 22.781,7.885 6.18,2.545 11.025,6.864 16.773,9.776 -0.787,-7.741 1.82,-17 -0.623,-24.92 -1.81,-5.88 -10.4,-11.47 -20.98,-15.31" />
  </g>
  <path
     d="m 399.59764,253.5938 -14.97202,-80.56159 -2.01965,-10.86788 c -0.052,-0.27871 1.07866,-1.63012 1.20537,-2.18619 0.68111,-2.98537 0.17276,-6.81451 0.27346,-9.88634 0.21203,-6.47215 -1.95002,-9.17855 -8.03396,-11.47569 0.99275,2.39844 3.07942,3.8122 4.27345,5.9193 2.16735,3.82439 0.6449,9.86593 0.53222,14.06026 -0.0588,2.19152 -5.57169,1.65399 -7.42405,1.86165 -4.28669,0.48002 -3.82643,0.0412 -6.85829,-2.58196 -4.40899,-3.81496 -9.71263,-5.55359 -15.56166,-5.21468 -5.91367,0.34281 -10.85889,-0.68391 -15.58952,-4.39851 -4.30441,-3.38009 -5.13744,-8.28896 -6.48437,-13.25975 -1.69984,-6.27208 -3.07813,-12.80112 -5.22911,-18.91367 -0.67816,-1.92643 -1.06359,-5.5804 1.97382,-3.55393 2.01457,1.34433 3.28363,3.32969 5.50025,4.39236 3.41915,1.63915 9.025,-0.62998 12.65523,-0.86406 5.84294,-0.37632 11.29554,0.44224 17.04612,1.24132 3.55828,0.49469 8.10588,-0.12951 9.03883,-4.39747 -2.20006,1.09213 -3.98987,4.28484 -7.01979,3.56494 1.78257,-1.0319 2.83368,-2.29824 4.11035,-3.87993 2.23638,-2.77134 3.16743,-3.53188 5.57303,0.017 3.06401,4.52003 3.87995,9.62294 3.08038,14.97771 -0.39191,2.6246 -0.12412,8.22623 0.31628,10.89108 0.58857,3.55916 3.08773,3.0557 6.40309,4.30762 -5.37987,-6.45864 -2.01203,-18.45458 -4.41247,-26.01875 -1.94481,-6.12802 -7.10365,-13.12772 -12.6207,-6.90591 -1.29816,1.46406 -2.40409,3.72891 -4.26864,4.20932 -2.73934,0.70573 -7.61759,-0.96418 -10.79865,-1.03667 -5.04055,-0.11502 -9.93544,0.30743 -14.90155,1.13704 0.0112,-0.006 0.24859,-0.0773 0.21658,-0.0759 -4.97919,1.90431 -10.4122,-9.5488 -14.76139,-3.5664 -2.48061,3.41171 1.48929,11.5741 2.44774,15.01072 1.50914,5.41314 2.68815,11.81796 4.65066,16.74447 -1.91004,0.38536 -6.12738,1.1644 -7.09557,3.34884 -0.63575,1.43447 -0.0516,2.28172 0.70968,3.40028 0.49688,0.73025 2.33707,0.78719 2.03369,1.69483 -0.28152,0.84179 -0.91991,1.98596 -0.8317,2.93178 0.10178,1.0945 0.41589,1.64106 1.16659,2.44961 2.34169,2.52323 3.07262,0.90967 2.09331,4.73852 -0.19559,0.7652 0.32101,2.05317 0.94987,2.52589 0.86083,0.64671 1.83903,1.10598 2.78346,1.62112 1.00578,0.54882 -0.51879,2.12633 -0.50862,3.11455 0.0121,1.15959 0.18621,1.84943 0.98864,2.72463 0.66125,0.72034 1.94331,1.16565 2.77139,1.64632 0.97704,0.56675 -0.47233,2.07306 -0.47903,3.05281 -0.006,0.88785 0.0189,1.7797 0.65823,2.47557 0.33897,0.36862 0.78673,0.64528 1.22199,0.88416 3.05704,1.6744 1.32679,0.95494 1.46878,3.7363 0.0543,1.06671 -0.12897,1.63325 0.44364,2.64274 0.25306,0.44601 0.87963,0.78126 1.30187,1.0263 2.97161,1.72409 1.45873,0.9868 1.53659,3.75486 0.028,0.99869 -0.20234,1.54383 0.3145,2.5355 1.31779,2.53025 4.19692,0.92382 2.98851,4.53849 -1.28932,3.85806 4.37501,4.10243 3.54918,6.60656 -1.43967,4.36482 3.97393,4.96168 3.22725,7.44294 -1.25163,4.1609 3.92208,5.33977 3.22758,7.44308 -1.41521,4.28551 4.03005,5.1703 3.26426,7.4603 -0.42159,1.26166 -0.79309,2.29278 -0.15929,3.52379 0.63105,1.22541 3.92531,2.14797 3.66408,3.01694 -0.37303,1.23959 -1.12159,2.78892 -0.60504,4.12063 0.53238,1.37224 4.11028,2.55901 3.84589,3.35943 -0.43116,1.30588 -1.0949,2.7033 -0.56474,4.06401 0.5313,1.36319 4.06794,2.69098 3.84077,3.37093 -0.51136,1.52974 -1.10295,2.67889 -0.55566,4.23419 0.4935,1.40241 4.04554,2.20833 3.7461,3.22169 -1.15679,3.91619 -0.63163,4.84443 2.97048,6.81073 0.53191,0.29026 -0.38587,3.26097 0.60134,4.36656 1.02369,1.1467 2.24679,0.89308 3.46022,0.66851 2.39912,-0.44381 5.12481,-2.3285 7.33042,-3.3304 l 11.79191,-5.35737 c 2.04509,-0.92891 4.96571,-1.71861 4.5084,-4.55506"
     id="path2"
     style="fill:#ffffff;fill-opacity:1;stroke-width:0.349374" />
  <path
     d="m 375.51277,128.0974 c 0.86901,-3.55434 0.60988,-7.60106 -0.60087,-11.04396 -0.67589,-1.92148 -3.12399,-7.72703 -5.7622,-7.03829 -1.88187,0.49147 -4.27014,5.3132 -6.24573,6.45676 3.02992,0.71992 4.81973,-2.47281 7.01979,-3.56494 -0.82961,3.79447 -5.07877,5.07239 -8.45634,4.49655 -5.46948,-0.93203 -10.79699,-1.66158 -16.36494,-1.39984 -4.07317,0.19143 -9.13798,2.19999 -13.006,1.27088 -2.2729,-0.54606 -3.78059,-2.57028 -5.47503,-3.97462 -2.07045,-1.71672 -4.41445,-1.65137 -3.25852,1.63273 1.80001,5.11595 2.98977,10.53095 4.41292,15.78082 1.38837,5.12356 2.09856,11.48881 5.67513,15.65328 3.74439,4.35995 9.25448,6.36299 14.86165,6.42189 5.58562,0.0586 11.38326,-0.35412 16.10762,3.32105 0.84965,0.66111 4.39735,4.8648 5.13964,4.78167 l 11.12279,-1.24614 c 0.226,-0.0253 1.1331,-12.3115 0.22088,-14.06653 -0.97663,-1.87928 -2.88212,-4.22943 -4.32585,-5.80921 -1.81252,-1.98399 -4.28853,-2.53715 -7.04,-3.54935 -1.20248,-0.44241 -2.82477,2.48577 -4.46002,2.94205 -4.1974,1.17063 -9.17748,-2.13354 -13.66655,-2.09694 -4.35956,0.0356 -8.91941,4.2672 -12.88948,0.97688 -3.51628,-2.9147 -2.83473,-7.78246 0.75651,-10.21347 7.05529,-4.77612 20.68142,-4.01161 27.63522,0.55724 -6.22436,-4.44737 -23.48254,-8.29404 -29.20434,-1.03981 1.58878,-6.51691 17.24423,-5.25105 21.75866,-3.84622 5.94651,1.85078 12.78368,4.95845 9.31357,12.44172 l 7.26831,2.67469 c -1.33213,-3.51543 -0.95259,-6.97896 -0.53682,-10.51889"
     fill="#723800"
     id="path4"
     style="fill:#e36414;fill-opacity:1;stroke:#ffffff;stroke-width:1.04812;stroke-miterlimit:4;stroke-dasharray:none;stroke-opacity:1" />
  <path
     style="stroke-width:0.349374"
     d="m 366.91432,128.38558 c 0.16841,0.14817 0.32571,0.29447 0.51512,0.42712 -0.18938,-0.13272 -0.3467,-0.27896 -0.51512,-0.42712"
     id="path6" />
  <path
     style="stroke-width:0.349374"
     d="m 336.67857,119.92105 c 0.56861,-0.20009 0.56861,-0.20009 0,0"
     id="path10" />
  <path
     style="stroke-width:0.349374"
     d="m 337.50695,119.50803 c 0.40773,-0.0544 -0.0762,0.0103 0,0"
     id="path12" />
  <path
     style="stroke-width:0.349374"
     d="M 338.0807,119.06283"
     id="path14-6" />
  <path
     style="stroke-width:0.349374"
     d="M 337.53384,114.57051"
     id="path16-2" />
  <path
     sodipodi:nodetypes="ccccccccccccccccccccccsccsccccccccscccccccccccccccccscssccccccccccccccscccccccccccccsccccccccscscccccccsccccccsccccccccccsccccscccccccscsccccccccccccsccccscccsccccccccccccccccccccccccccccccc"
     d="m 263.94248,7.49812 -0.009,0.0888 c 1.40682,0 2.90969,0.0273 4.40165,0.0887 3.16376,0.13658 4.87192,0.22901 5.94002,0.32006 1.17053,0.0911 1.58194,0.18166 2.32086,0.4093 2.03694,0.59642 3.6147,1.64288 5.11304,3.43242 1.63492,1.93035 1.88848,2.65174 1.97407,5.66435 0.082,2.48129 0.13632,2.23962 -1.01371,4.18823 -0.63011,1.08812 -0.89106,1.38674 -1.60949,1.97405 l -0.32011,0.27591 c 0.01,0.0605 0.0123,0.12611 0.0178,0.18667 0.0159,0.1516 0.0328,0.30185 0.0446,0.45346 0.003,0.004 0.006,0.0137 0.009,0.0182 0.0501,0.13658 0.5616,1.1851 1.1471,2.40981 1.59029,3.29624 1.73318,3.6473 1.80512,4.72177 0.0259,0.57366 -0.0214,1.2885 -0.12448,1.89403 -0.12748,0.733 -0.15242,1.37417 -0.0978,2.49872 0.0956,1.81202 0.19623,2.18003 1.27159,4.20603 0.91375,1.75284 1.30543,2.78318 1.36051,3.73473 0.0414,0.67381 0.0173,0.7421 -0.3201,1.1382 -0.35968,0.40975 -1.24773,0.96447 -1.58282,0.97813 -0.0956,0.004 -0.22951,0.0956 -0.30235,0.18666 -0.11382,0.13659 -0.0497,0.31642 0.36459,1.04041 0.26861,0.46895 0.48406,0.93589 0.48907,1.0315 0.0168,0.36421 -0.60917,1.12331 -1.1382,1.37827 -0.29594,0.13659 -0.51141,0.31824 -0.50686,0.4093 0.004,0.0911 0.20997,0.36377 0.47128,0.59578 l 0.4624,0.40885 -0.19563,0.40883 c -0.10472,0.22764 -0.32448,0.56096 -0.48018,0.72031 -0.39155,0.40975 -0.6231,0.94954 -0.88033,2.16969 -0.46211,2.12617 -1.22863,3.50768 -2.30309,4.09044 -0.53724,0.3187 -0.74662,0.3624 -1.82291,0.45347 -0.20032,0.0227 -0.42036,0.0364 -0.64024,0.0455 -0.36878,0.0182 -0.75785,0.0273 -1.16488,0.0273 -0.98068,0 -2.0388,-0.0515 -3.01447,-0.14204 -0.0546,-0.003 -0.10544,-0.004 -0.16008,-0.009 h -0.0269 c 0.0592,0.99252 0.29885,1.88742 0.67581,2.16969 0.23219,0.18212 1.55879,0.66662 2.92554,1.05816 1.40546,0.36423 2.93239,0.90866 3.36127,1.21825 0.46848,0.3187 1.36675,0.62511 1.99186,0.70251 0.6251,0.0911 1.83522,0.32325 2.69434,0.56017 3.202,0.86504 5.14948,1.21706 8.11861,1.45836 1.71869,0.13659 3.36593,0.4093 3.71695,0.59578 0.39155,0.22764 1.67266,0.74926 2.96111,1.2182 26.56377,2.84953 55.81449,32.46508 62.77914,50.16715 0,0 0.34692,0.14752 0.35571,0.15116 0.0584,0.16026 4.91103,-10.61686 0.16895,0.48906 0.30959,0.54634 0.54955,1.60546 0.58689,2.34757 5.55117,15.2049 -13.80973,12.17348 -17.63329,2.88992 -0.73893,-1.72096 -1.59325,-3.56272 -1.98297,-4.07263 -0.39154,-0.50992 -0.7034,-1.21447 -0.70249,-1.56504 10e-6,-0.004 -0.009,-0.0137 -0.009,-0.0182 -4.71016,-14.84169 -14.20715,-18.3332 -20.69995,-23.77655 -10.629,-8.91099 -23.65404,-10.12894 -24.19372,-1.91048 -0.80249,12.22038 7.81433,64.67011 10.56966,82.98327 0.031,1.49892 0.067,2.86491 0.16008,3.61025 l -0.009,31.09609 c -0.29976,3.31637 -0.58871,9.29982 -0.6847,15.43693 -0.0455,3.32357 -0.28569,6.12943 -0.56021,6.79368 -0.27317,0.66471 -0.59644,3.75936 -0.72027,6.8826 -0.20488,4.57102 -0.1319,6.08653 0.37347,7.61172 0.30959,1.09267 0.69446,3.01538 0.80919,4.30383 0.11382,1.28844 0.57776,3.46829 1.00482,4.80181 0.97021,3.12779 0.97312,5.27973 -0.009,7.42502 -0.52221,1.15186 -0.67895,2.46294 -0.50686,3.61025 l -19.9097,-0.2759 h -0.0178 c 0.11837,-0.3187 0.28123,-0.64841 0.49796,-1.05816 0.43252,-0.77855 0.78959,-2.11493 0.79141,-2.93443 0.002,-0.86049 0.35708,-2.53606 0.79141,-3.7881 0.90419,-2.61786 0.98167,-3.74127 0.32011,-4.41053 -0.35057,-0.36423 -0.23529,-0.97796 0.47128,-2.69437 0.47168,-1.24747 1.21796,-2.62119 1.6095,-3.08558 0.509,-0.54634 0.74423,-1.40505 0.74694,-2.72992 0.003,-1.09267 0.20656,-2.159 0.48019,-2.42761 0.35056,-0.36422 0.34838,-0.58345 0,-0.93364 -0.6629,-0.66476 -0.58208,-1.68828 0.16007,-2.31202 0.70478,-0.58276 0.5856,-2.218 -0.34679,-4.33051 -1.43869,-3.24616 -2.4016,-6.95971 -2.97889,-11.25758 -0.26862,-1.91674 -1.51627,-6.60782 -2.95223,-11.02634 -1.35901,-4.22046 -2.4823,-8.28837 -2.48093,-9.07009 0.002,-0.97886 -0.2627,-1.56912 -1.00482,-2.15189 -0.67473,-0.52812 -1.10037,-0.78254 -1.82291,-0.78254 -0.61417,0 -1.44458,0.18257 -2.82772,0.54243 -1.25112,0.36422 -2.50747,0.74247 -2.70324,0.93369 -13.38215,3.43317 -10.35793,-0.9032 -23.1198,-1.49392 l -4.41944,-0.18666 -0.70249,1.24491 c -0.39154,0.70114 -1.45589,2.14949 -2.35644,3.20119 -1.99777,2.26275 -2.69976,3.55374 -3.09449,5.58431 -0.15935,0.86048 -0.59368,2.49353 -0.98704,3.6636 -0.43252,1.17463 -0.74558,2.5393 -0.74695,3.08564 -0.002,0.8969 -0.66783,2.70187 -1.80512,4.84625 -0.31414,0.54634 -0.55041,1.4019 -0.55132,1.91182 -7.3e-4,0.50536 -0.55382,2.96739 -1.26269,5.46871 l -1.2627,4.57063 -2.54318,0.85365 c -1.40773,0.50536 -2.73599,1.05453 -2.97,1.20932 -0.19577,0.18211 -0.65957,0.36468 -1.04929,0.36468 -0.35057,0.001 -1.4852,0.27181 -2.46315,0.62247 -1.01573,0.31869 -2.7811,0.72904 -3.99261,0.92481 -2.97071,0.50537 -4.02453,1.24638 -4.02818,2.88995 -0.002,0.74211 -0.35666,1.75588 -0.82697,2.33864 -0.66608,0.81951 -0.78514,1.47457 -0.71138,3.62806 0.0729,2.22633 -0.004,2.69696 -0.55132,2.77435 -0.78172,0.13658 -0.90122,1.09168 -0.16008,1.3694 0.27317,0.13658 0.73661,0.90474 0.96926,1.76067 0.27316,0.86048 0.74629,1.76317 1.05817,2.03633 0.31415,0.27318 0.57845,0.69696 0.578,0.9337 -6.9e-4,0.27317 0.5051,0.97771 1.12931,1.56503 1.09176,1.05626 1.09617,1.17381 1.04928,4.89073 -0.0255,1.13365 -0.0457,1.92895 -0.0889,2.52536 l -26.01867,-0.36468 h -0.0178 c 0.12748,-0.31869 0.32767,-0.72895 0.61356,-1.30716 0.58914,-1.13365 0.86537,-2.1136 0.63135,-2.23197 -0.70249,-0.46895 -0.35024,-3.20283 0.63135,-4.91742 0.50946,-0.93788 1.6884,-3.12141 2.55207,-4.83737 0.90191,-1.71641 1.96086,-3.47029 2.39201,-3.93924 0.39154,-0.40975 0.7376,-1.01706 0.73805,-1.2538 6.8e-4,-0.40976 0.43907,-1.36671 1.2627,-2.80995 0.19577,-0.31871 0.62171,-1.2142 1.01371,-1.95631 0.35512,-0.7421 0.98099,-1.79686 1.33384,-2.33865 0.78399,-1.13365 2.4013,-5.62345 3.50353,-9.56802 0.3961,-1.5252 0.98413,-3.35721 1.29827,-4.09931 0.31415,-0.74212 1.0586,-2.96831 1.6095,-4.88187 1.18009,-3.98371 2.43812,-7.64527 3.18341,-9.3635 1.25658,-2.96844 2.63236,-7.18259 2.79216,-8.7055 l 0.20452,-1.64508 c 0,0 -1.07957,-9.38495 -1.3783,-14.1564 -2.89414,-10.8222 5.49397,-70.26279 -1.53835,-57.75506 0,0 -16.8785,57.9237 -17.4021,62.98371 0,0 -0.28519,8.30629 -3.55689,8.77661 -4.14681,0.5961 -12.01707,-0.17438 -12.34241,-0.34693 -0.54953,-0.22764 -1.23888,-0.36468 -1.87626,-0.36468 -0.45073,0 -0.86921,0.041 -1.20934,0.17801 l -21.83932,-1.22712 c 0,0 -0.78434,-9.10392 12.04008,-12.66254 v 0.16891 l 1.72509,-0.0888 c 1.09449,-0.0364 2.19096,-0.41477 2.93444,-0.9337 0.74392,-0.58731 1.94696,-0.93092 3.23677,-1.04929 1.83615,-0.13658 2.23625,-0.36513 3.64581,-1.86734 0.86185,-0.93788 1.56412,-1.90631 1.56503,-2.14305 5.5e-4,-0.22764 0.5473,-1.09232 1.17377,-1.91183 0.66609,-0.85593 1.33719,-2.29958 1.57393,-3.39682 0.15093,-0.78262 0.47537,-2.30299 0.76473,-3.6458 0.0766,-0.37743 0.14109,-0.66517 0.22231,-1.08485 3.0021,-15.51028 9.05031,-58.85993 13.88966,-65.54465 l -0.23119,-0.19577 c 0.23807,-0.65142 0.47167,-1.34026 0.75584,-2.43645 0.31414,-1.13365 0.98288,-2.26156 1.80512,-3.08562 1.29209,-1.24748 1.32792,-1.39499 1.33384,-4.28604 0.005,-2.30372 0.12547,-3.04988 0.59578,-3.24565 0.31414,-0.13659 0.58597,-0.46753 0.58688,-0.8181 0.002,-0.81951 1.0606,-2.84938 2.00075,-3.82369 0.4694,-0.54633 0.74466,-1.3713 0.74695,-2.42756 0.002,-1.09267 0.23611,-1.83415 0.74695,-2.30309 0.78263,-0.70113 1.13468,-2.10587 1.49389,-5.8155 0.15935,-1.91674 0.35827,-2.34115 1.10264,-2.61433 0.4694,-0.1821 0.98115,-0.78399 1.13821,-1.28936 0.15934,-0.70568 0.58755,-1.00926 1.56503,-1.20049 0.74257,-0.13657 1.94728,-0.74215 2.72991,-1.32491 5.79201,-4.40258 6.85484,-4.86665 13.18718,-6.06449 3.71328,-0.73301 6.01994,-1.67216 9.54136,-3.93036 0.46439,-0.3187 0.89604,-0.57594 1.30716,-0.85365 h 0.0269 c -0.0607,-0.0319 -0.12301,-0.0674 -0.18675,-0.0979 h -0.0178 c 0.93651,-0.67836 1.86683,-1.51308 2.66767,-2.40088 0.23675,-0.27316 0.46583,-0.49912 0.62245,-0.64027 l 3.97483,-6.08224 c 0.0759,-0.21262 0.1384,-0.39109 0.17783,-0.52468 l 0.1156,-0.45345 h -0.009 -0.009 c -0.0433,-0.004 -0.14446,-0.36377 -0.24007,-0.77362 -0.0819,-0.40975 -0.24631,-1.14139 -0.35571,-1.5739 -0.0956,-0.45528 -0.31397,-1.31436 -0.4624,-1.95631 -0.25951,-1.12 -0.29862,-1.23932 -2.24084,-4.65061 -2.82412,-4.96586 -3.3033,-6.25399 -3.5569,-9.36356 -0.11382,-1.5161 -0.11555,-1.94065 0.0712,-3.5569 0.53633,-4.95074 1.12805,-7.15171 2.47205,-9.13232 1.27205,-1.89844 4.42192,-6.12186 5.2642,-7.06931 1.7023,-1.91218 4.27314,-3.39791 6.82923,-3.92148 0.57639,-0.13658 1.58532,-0.22127 2.8633,-0.26679 0.97157,-0.041 2.09934,-0.0533 3.29901,-0.0533 z"
     style="fill:#e36414;fill-opacity:1;stroke:#ffffff;stroke-width:3;stroke-linejoin:miter;stroke-miterlimit:4;stroke-dasharray:none;stroke-opacity:1"
     id="path7" />
  <path
     style="stroke-width:0.349374"
     d="m 336.14594,114.08492 c -0.17162,0.0638 -0.17162,0.0638 0,0"
     id="path18-6" />
  <path
     sodipodi:nodetypes="ccsc"
     id="path930"
     d="m 220.18256,182.07532 c 10.87837,-15.44035 37.64381,-9.11833 37.82246,2.46837 11.41588,8.76467 16.18358,1.95702 17.45467,-1.01471 9.74298,-22.77865 31.84046,-2.98321 31.84046,-2.98321"
     style="fill:none;fill-rule:evenodd;stroke:#ffffff;stroke-width:1px;stroke-linecap:butt;stroke-linejoin:miter;stroke-opacity:1" />
  <path
     style="stroke-width:0.349374"
     d="m 337.20311,114.32207 c -0.17241,0.063 -0.17241,0.063 0,0"
     id="path20-1" />
  <path
     style="stroke-width:0.349374"
     d="m 336.6555,114.14944 c -0.11577,0.0878 -0.11577,0.0878 0,0"
     id="path22-8" />
  <path
     d="m 375.96553,161.88712 10.50385,56.47069 5.53351,29.74926 c 0.1498,0.80525 1.23124,3.78243 0.35836,4.17838 l -13.41349,6.08016 c 2.28711,-1.44829 12.20906,-5.81215 11.71846,-8.46038 l -2.88892,-15.59689 c -3.32065,-17.92746 -6.64115,-35.85525 -9.96197,-53.78317 l -3.12565,-16.87543 c -0.3246,-1.75151 -0.11757,-1.53681 -2.11599,-1.31623 -4.2492,0.46969 -4.38476,-0.27798 -7.42009,-2.96908 -4.33125,-3.8397 -10.20908,-4.4057 -15.74294,-3.97421 -5.74409,0.44812 -10.82734,-0.49674 -15.67356,-3.70032 -1.99792,-1.32086 -3.07663,-3.45597 -4.85152,-4.8121 -1.10335,-0.84315 -0.15918,-1.82987 -1.76278,-1.26583 l -3.64609,1.28303 c 4.15202,2.28768 3.7765,2.07045 2.3047,6.56131 -0.2127,0.64889 3.10498,2.09644 3.70499,2.44104 1.63247,0.93798 0.28044,2.67687 -0.22212,4.31272 -0.87143,2.83603 5.0516,1.6833 3.85821,5.53118 -0.48871,1.57624 -1.46679,2.57227 0.0387,3.43737 1.3928,0.80022 4.05216,1.37501 3.48973,3.10421 -0.21366,0.65736 -1.57714,3.53954 -0.95648,3.89598 0.83271,0.47828 4.15535,1.71662 4.46622,2.56654 0.30694,0.83874 -1.1223,3.6212 -1.39919,4.51559 -0.20927,0.67495 3.71431,2.3715 4.41664,2.76128 0.62756,0.34855 -0.71752,3.31429 -0.92369,3.97951 -0.5004,1.6152 1.21576,1.81529 2.5737,2.59533 3.82644,2.19821 -1.68032,4.71323 1.83617,6.66173 0.54413,0.30112 3.42444,1.46889 3.21933,2.09392 -0.28807,0.87972 -1.76358,3.65125 -1.46804,4.4822 0.29915,0.84044 3.64312,2.09329 4.46606,2.56608 0.64731,0.37198 -0.90074,3.90255 -1.13745,4.66625 -0.2026,0.65374 3.13154,2.04833 3.73734,2.38409 1.52247,0.84496 0.51448,1.83711 0.001,3.40174 -1.26713,3.86753 4.80887,2.71414 3.88769,5.54566 -0.21364,0.65738 -1.57683,3.53968 -0.95616,3.89614 0.83271,0.47827 4.15551,1.7163 4.46637,2.56623 0.30694,0.83874 -1.12213,3.62167 -1.39934,4.51589 -0.21148,0.68358 3.68259,2.42798 4.3834,2.83061 0.62591,0.35928 -0.69296,3.25903 -0.89756,3.92421 -0.49099,1.5988 1.24069,1.81099 2.58049,2.58115 3.82582,2.19791 -1.66312,4.68545 1.82514,6.68474 0.53815,0.30878 3.40056,1.5171 3.19775,2.13976 -0.28366,0.87215 -1.72657,3.58762 -1.43573,4.41322 0.29471,0.83674 3.64705,2.09556 4.46637,2.56622 0.62035,0.35628 -0.59546,2.99581 -0.80477,3.68979 3.47347,-1.58896 22.2878,-7.95404 21.69006,-11.18209 l -5.73975,-31.01091 -7.8934,-42.64234 -2.66544,-14.40064 c -0.7412,-4.00856 -0.19134,-3.00494 -4.2226,-3.08359"
     fill="#dbd6ac"
     id="path56"
     style="fill:#e36414;fill-opacity:1;stroke-width:0.349374" />
</svg>
