<?xml version="1.0" encoding="UTF-8" standalone="no"?>
<svg
   xmlns:dc="http://purl.org/dc/elements/1.1/"
   xmlns:cc="http://creativecommons.org/ns#"
   xmlns:rdf="http://www.w3.org/1999/02/22-rdf-syntax-ns#"
   xmlns:svg="http://www.w3.org/2000/svg"
   xmlns="http://www.w3.org/2000/svg"
   xmlns:sodipodi="http://sodipodi.sourceforge.net/DTD/sodipodi-0.dtd"
   xmlns:inkscape="http://www.inkscape.org/namespaces/inkscape"
   inkscape:version="1.0 (4035a4fb49, 2020-05-01)"
   sodipodi:docname="manĝaĵo.svg"
   viewBox="0 0 1002.2992 612.22797"
   height="612.22797"
   width="1002.2992"
   xml:space="preserve"
   id="svg1560"
   version="1.1"><metadata
     id="metadata1566"><rdf:RDF><cc:Work
         rdf:about=""><dc:format>image/svg+xml</dc:format><dc:type
           rdf:resource="http://purl.org/dc/dcmitype/StillImage" /><dc:title></dc:title></cc:Work></rdf:RDF></metadata><defs
     id="defs1564"><clipPath
       id="clipPath1576"
       clipPathUnits="userSpaceOnUse"><path
         id="path1574"
         d="M 0,595.28 H 841.89 V 0 H 0 Z" /></clipPath></defs><sodipodi:namedview
     inkscape:current-layer="g1568"
     inkscape:window-maximized="1"
     inkscape:window-y="0"
     inkscape:window-x="0"
     inkscape:cy="354.86571"
     inkscape:cx="486.30226"
     inkscape:zoom="0.58448929"
     fit-margin-bottom="5"
     fit-margin-right="5"
     fit-margin-left="5"
     lock-margins="true"
     fit-margin-top="5"
     showgrid="false"
     id="namedview1562"
     inkscape:window-height="704"
     inkscape:window-width="1366"
     inkscape:pageshadow="2"
     inkscape:pageopacity="0"
     guidetolerance="10"
     gridtolerance="10"
     objecttolerance="10"
     borderopacity="1"
     bordercolor="#666666"
     pagecolor="#ffffff" /><g
     transform="matrix(1.3333333,0,0,-1.3333333,-74.95775,751.71905)"
     inkscape:label="cutlery-1588097"
     inkscape:groupmode="layer"
     id="g1568"><g
       style="fill:#0f4c5c;fill-opacity:1"
       id="g1570"><g
         style="fill:#0f4c5c;fill-opacity:1"
         clip-path="url(#clipPath1576)"
         id="g1572"><g
           style="fill:#0f4c5c;fill-opacity:1"
           transform="translate(377.938,189.4463)"
           id="g1578"><path
             id="path1580"
             style="fill:#0f4c5c;fill-opacity:1;fill-rule:nonzero;stroke:none"
             d="m 0,0 c -78.314,0 -141.798,63.487 -141.798,141.836 0,78.315 63.484,141.717 141.798,141.717 78.233,0 141.718,-63.402 141.718,-141.717 C 141.718,63.487 78.233,0 0,0 m 2.479,370.593 c -124.744,0 -225.859,-101.116 -225.859,-225.788 0,-124.768 101.115,-225.883 225.859,-225.883 124.682,0 225.799,101.115 225.799,225.883 0,124.672 -101.117,225.788 -225.799,225.788" /></g><g
           style="fill:#0f4c5c;fill-opacity:1"
           transform="translate(126.5996,520.0342)"
           id="g1582"><path
             id="path1584"
             style="fill:#0f4c5c;fill-opacity:1;fill-rule:nonzero;stroke:none"
             d="m 0,0 -5.581,-0.128 2.142,-99.318 -10.639,0.116 -1.971,99.202 h -6.372 v -99.86 H -31.9 l -0.914,99.86 h -6.448 l -1.831,-99.86 -10.206,-0.031 2.258,99.891 -5.554,-0.016 -11.737,-84.711 c 0,0 -0.31,-3.16 -0.299,-4.416 0.128,-14.471 5.497,-22.926 13.665,-31.902 30.04,-33.011 9.862,-71.038 9.862,-79.559 v -154.44 -0.287 c 0,-8.905 7.182,-16.089 16.076,-16.089 8.928,0 16.109,7.184 16.109,16.089 0,0.097 0,0.19 -0.096,0.287 h 0.096 v 154.163 c 0,9.959 -16.45,51.841 12.054,81.774 0,0 0.042,0.099 0.108,0.169 5.206,5.578 10.537,12.741 11.367,27.072 0.044,0.754 0,2.67 0,2.67 z" /></g><g
           style="fill:#0f4c5c;fill-opacity:1"
           transform="translate(685.5957,318.5649)"
           id="g1586"><path
             id="path1588"
             style="fill:#0f4c5c;fill-opacity:1;fill-rule:nonzero;stroke:none"
             d="m 0,0 c 0.096,9.505 -0.191,221.8 -0.191,221.8 l -4.692,-0.508 c 0,0 -41.758,-0.694 -43.376,-185.085 -0.347,-39.619 16.979,-43.279 16.565,-49.516 -0.603,-9.077 0.671,-140.969 0.671,-140.969 l 0.095,0.096 c 0,-0.096 -0.095,-0.214 -0.095,-0.408 0,-8.495 6.99,-15.489 15.512,-15.489 8.617,0 15.607,6.994 15.511,15.489 0.096,0.097 0.096,0.312 0,0.312 l 0.096,0.096 c 0,0 0,105.522 -0.096,116.03 z" /></g><g
           style="fill:#0f4c5c;fill-opacity:1"
           transform="translate(761.6865,527.8613)"
           id="g1590"><path
             id="path1592"
             style="fill:#0f4c5c;fill-opacity:1;fill-rule:nonzero;stroke:none"
             d="m 0,0 c -26.599,0 -42.054,-45.131 -43.571,-58.458 -2.134,-18.742 -1.519,-25.896 -0.564,-37.017 1.114,-12.963 7.711,-24.948 17.193,-32.525 31.108,-35.118 9.862,-71.039 9.862,-79.56 v -154.439 -0.287 c 0,-8.905 7.182,-16.089 16.075,-16.089 8.929,0 16.109,7.184 16.109,16.089 0,0.097 0,0.19 -0.095,0.287 h 0.095 v 154.162 c 0,9.96 -17.917,51.134 12.054,81.775 0,0 0.108,0.073 0.108,0.169 7.373,6.917 13.048,16.447 14.473,27.116 0.165,1.235 2.187,14.588 -1.092,38.362 C 38.785,-46.912 26.111,0 0,0" /></g></g></g></g></svg>
