<?xml version="1.0" encoding="UTF-8" standalone="no"?>
<svg
   xmlns:dc="http://purl.org/dc/elements/1.1/"
   xmlns:cc="http://creativecommons.org/ns#"
   xmlns:rdf="http://www.w3.org/1999/02/22-rdf-syntax-ns#"
   xmlns:svg="http://www.w3.org/2000/svg"
   xmlns="http://www.w3.org/2000/svg"
   xmlns:sodipodi="http://sodipodi.sourceforge.net/DTD/sodipodi-0.dtd"
   xmlns:inkscape="http://www.inkscape.org/namespaces/inkscape"
   inkscape:version="1.0 (4035a4fb49, 2020-05-01)"
   sodipodi:docname="muro.svg"
   id="svg8703"
   version="1.1"
   viewBox="0 0 500 500">
  <metadata
     id="metadata8709">
    <rdf:RDF>
      <cc:Work
         rdf:about="">
        <dc:format>image/svg+xml</dc:format>
        <dc:type
           rdf:resource="http://purl.org/dc/dcmitype/StillImage" />
        <dc:title></dc:title>
      </cc:Work>
    </rdf:RDF>
  </metadata>
  <defs
     id="defs8707" />
  <sodipodi:namedview
     inkscape:current-layer="svg8703"
     inkscape:window-maximized="1"
     inkscape:window-y="0"
     inkscape:window-x="0"
     inkscape:cy="250"
     inkscape:cx="250"
     inkscape:zoom="1.5517748"
     showgrid="false"
     id="namedview8705"
     inkscape:window-height="1016"
     inkscape:window-width="1920"
     inkscape:pageshadow="2"
     inkscape:pageopacity="0"
     guidetolerance="10"
     gridtolerance="10"
     objecttolerance="10"
     borderopacity="1"
     bordercolor="#666666"
     pagecolor="#ffffff" />
  <g
     id="g8485"
     stroke-width="3.75"
     stroke-linejoin="bevel"
     stroke="#000"
     font-size="12"
     fill-rule="evenodd"
     fill="#b95300"
     transform="translate(63.31 37.012)">
    <path
       style="fill:#0f4c5c;fill-opacity:1;stroke:#ffffff;stroke-opacity:1"
       id="path8479"
       d="m351.62 200.01 74.024 8.766v41.882l-74.024-9.74v-40.908z"
       transform="translate(-100.32 65.258)" />
    <path
       style="fill:#0f4c5c;fill-opacity:1;stroke:#ffffff;stroke-opacity:1"
       id="path8481"
       d="m326.29 273.06c0.974 0.974 66.233-39.934 66.233-39.934v42.856s-67.207 40.909-67.207 38.961 0-40.909 0.974-41.883z" />
    <path
       style="fill:#0f4c5c;fill-opacity:1;stroke:#ffffff;stroke-opacity:1"
       id="path8483"
       d="m251.29 266.24 73.05 7.792 69.155-40.908-68.181-6.818-74.024 39.934z" />
  </g>
  <g
     id="g8493"
     stroke-width="3.75"
     stroke-linejoin="bevel"
     stroke="#000"
     font-size="12"
     fill-rule="evenodd"
     fill="#b95300"
     transform="translate(-6.818 77.92)">
    <path
       style="fill:#0f4c5c;fill-opacity:1;stroke:#ffffff;stroke-opacity:1"
       id="path8487"
       d="m351.62 200.01 74.024 8.766v41.882l-74.024-9.74v-40.908z"
       transform="translate(-100.32 65.258)" />
    <path
       style="fill:#0f4c5c;fill-opacity:1;stroke:#ffffff;stroke-opacity:1"
       id="path8489"
       d="m326.29 273.06c0.974 0.974 66.233-39.934 66.233-39.934v42.856s-67.207 40.909-67.207 38.961 0-40.909 0.974-41.883z" />
    <path
       style="fill:#0f4c5c;fill-opacity:1;stroke:#ffffff;stroke-opacity:1"
       id="path8491"
       d="m251.29 266.24 73.05 7.792 69.155-40.908-68.181-6.818-74.024 39.934z" />
  </g>
  <g
     id="g8501"
     stroke-width="3.75"
     stroke-linejoin="bevel"
     stroke="#000"
     font-size="12"
     fill-rule="evenodd"
     fill="#b95300"
     transform="translate(-76.947 118.83)">
    <path
       style="fill:#0f4c5c;fill-opacity:1;stroke:#ffffff;stroke-opacity:1"
       id="path8495"
       d="m351.62 200.01 74.024 8.766v41.882l-74.024-9.74v-40.908z"
       transform="translate(-100.32 65.258)" />
    <path
       style="fill:#0f4c5c;fill-opacity:1;stroke:#ffffff;stroke-opacity:1"
       id="path8497"
       d="m326.29 273.06c0.974 0.974 66.233-39.934 66.233-39.934v42.856s-67.207 40.909-67.207 38.961 0-40.909 0.974-41.883z" />
    <path
       style="fill:#0f4c5c;fill-opacity:1;stroke:#ffffff;stroke-opacity:1"
       id="path8499"
       d="m251.29 266.24 73.05 7.792 69.155-40.908-68.181-6.818-74.024 39.934z" />
  </g>
  <g
     id="g8509"
     stroke-width="3.75"
     stroke-linejoin="bevel"
     stroke="#000"
     font-size="12"
     fill-rule="evenodd"
     fill="#b95300"
     transform="translate(-145.13 158.76)">
    <path
       style="fill:#0f4c5c;fill-opacity:1;stroke:#ffffff;stroke-opacity:1"
       id="path8503"
       d="m351.62 200.01 74.024 8.766v41.882l-74.024-9.74v-40.908z"
       transform="translate(-100.32 65.258)" />
    <path
       style="fill:#0f4c5c;fill-opacity:1;stroke:#ffffff;stroke-opacity:1"
       id="path8505"
       d="m326.29 273.06c0.974 0.974 66.233-39.934 66.233-39.934v42.856s-67.207 40.909-67.207 38.961 0-40.909 0.974-41.883z" />
    <path
       style="fill:#0f4c5c;fill-opacity:1;stroke:#ffffff;stroke-opacity:1"
       id="path8507"
       d="m251.29 266.24 73.05 7.792 69.155-40.908-68.181-6.818-74.024 39.934z" />
  </g>
  <g
     id="g8517"
     stroke-width="3.75"
     stroke-linejoin="bevel"
     stroke="#000"
     font-size="12"
     fill-rule="evenodd"
     fill="#b95300"
     transform="translate(12.662 20.454)">
    <path
       style="fill:#0f4c5c;fill-opacity:1;stroke:#ffffff;stroke-opacity:1"
       id="path8511"
       d="m351.62 200.01 74.024 8.766v41.882l-74.024-9.74v-40.908z"
       transform="translate(-100.32 65.258)" />
    <path
       style="fill:#0f4c5c;fill-opacity:1;stroke:#ffffff;stroke-opacity:1"
       id="path8513"
       d="m326.29 273.06c0.974 0.974 66.233-39.934 66.233-39.934v42.856s-67.207 40.909-67.207 38.961 0-40.909 0.974-41.883z" />
    <path
       style="fill:#0f4c5c;fill-opacity:1;stroke:#ffffff;stroke-opacity:1"
       id="path8515"
       d="m251.29 266.24 73.05 7.792 69.155-40.908-68.181-6.818-74.024 39.934z" />
  </g>
  <g
     id="g8525"
     stroke-width="3.75"
     stroke-linejoin="bevel"
     stroke="#000"
     font-size="12"
     fill-rule="evenodd"
     fill="#b95300"
     transform="translate(-57.466 61.362)">
    <path
       style="fill:#0f4c5c;fill-opacity:1;stroke:#ffffff;stroke-opacity:1"
       id="path8519"
       d="m351.62 200.01 74.024 8.766v41.882l-74.024-9.74v-40.908z"
       transform="translate(-100.32 65.258)" />
    <path
       style="fill:#0f4c5c;fill-opacity:1;stroke:#ffffff;stroke-opacity:1"
       id="path8521"
       d="m326.29 273.06c0.974 0.974 66.233-39.934 66.233-39.934v42.856s-67.207 40.909-67.207 38.961 0-40.909 0.974-41.883z" />
    <path
       style="fill:#0f4c5c;fill-opacity:1;stroke:#ffffff;stroke-opacity:1"
       id="path8523"
       d="m251.29 266.24 73.05 7.792 69.155-40.908-68.181-6.818-74.024 39.934z" />
  </g>
  <g
     id="g8533"
     stroke-width="3.75"
     stroke-linejoin="bevel"
     stroke="#000"
     font-size="12"
     fill-rule="evenodd"
     fill="#b95300"
     transform="translate(-127.6 102.27)">
    <path
       style="fill:#0f4c5c;fill-opacity:1;stroke:#ffffff;stroke-opacity:1"
       id="path8527"
       d="m351.62 200.01 74.024 8.766v41.882l-74.024-9.74v-40.908z"
       transform="translate(-100.32 65.258)" />
    <path
       style="fill:#0f4c5c;fill-opacity:1;stroke:#ffffff;stroke-opacity:1"
       id="path8529"
       d="m326.29 273.06c0.974 0.974 66.233-39.934 66.233-39.934v42.856s-67.207 40.909-67.207 38.961 0-40.909 0.974-41.883z" />
    <path
       style="fill:#0f4c5c;fill-opacity:1;stroke:#ffffff;stroke-opacity:1"
       id="path8531"
       d="m251.29 266.24 73.05 7.792 69.155-40.908-68.181-6.818-74.024 39.934z" />
  </g>
  <g
     id="g8541"
     stroke-width="3.75"
     stroke-linejoin="bevel"
     stroke="#000"
     font-size="12"
     fill-rule="evenodd"
     fill="#b95300"
     transform="translate(-195.78 142.2)">
    <path
       style="fill:#0f4c5c;fill-opacity:1;stroke:#ffffff;stroke-opacity:1"
       id="path8535"
       d="m351.62 200.01 74.024 8.766v41.882l-74.024-9.74v-40.908z"
       transform="translate(-100.32 65.258)" />
    <path
       style="fill:#0f4c5c;fill-opacity:1;stroke:#ffffff;stroke-opacity:1"
       id="path8537"
       d="m326.29 273.06c0.974 0.974 66.233-39.934 66.233-39.934v42.856s-67.207 40.909-67.207 38.961 0-40.909 0.974-41.883z" />
    <path
       style="fill:#0f4c5c;fill-opacity:1;stroke:#ffffff;stroke-opacity:1"
       id="path8539"
       d="m251.29 266.24 73.05 7.792 69.155-40.908-68.181-6.818-74.024 39.934z" />
  </g>
  <g
     id="g8549"
     stroke-width="3.75"
     stroke-linejoin="bevel"
     stroke="#000"
     font-size="12"
     fill-rule="evenodd"
     fill="#b95300"
     transform="translate(46.752 -45.778)">
    <path
       style="fill:#0f4c5c;fill-opacity:1;stroke:#ffffff;stroke-opacity:1"
       id="path8543"
       d="m351.62 200.01 74.024 8.766v41.882l-74.024-9.74v-40.908z"
       transform="translate(-100.32 65.258)" />
    <path
       style="fill:#0f4c5c;fill-opacity:1;stroke:#ffffff;stroke-opacity:1"
       id="path8545"
       d="m326.29 273.06c0.974 0.974 66.233-39.934 66.233-39.934v42.856s-67.207 40.909-67.207 38.961 0-40.909 0.974-41.883z" />
    <path
       style="fill:#0f4c5c;fill-opacity:1;stroke:#ffffff;stroke-opacity:1"
       id="path8547"
       d="m251.29 266.24 73.05 7.792 69.155-40.908-68.181-6.818-74.024 39.934z" />
  </g>
  <g
     id="g8557"
     stroke-width="3.75"
     stroke-linejoin="bevel"
     stroke="#000"
     font-size="12"
     fill-rule="evenodd"
     fill="#b95300"
     transform="translate(-23.376 -4.8702)">
    <path
       style="fill:#0f4c5c;fill-opacity:1;stroke:#ffffff;stroke-opacity:1"
       id="path8551"
       d="m351.62 200.01 74.024 8.766v41.882l-74.024-9.74v-40.908z"
       transform="translate(-100.32 65.258)" />
    <path
       style="fill:#0f4c5c;fill-opacity:1;stroke:#ffffff;stroke-opacity:1"
       id="path8553"
       d="m326.29 273.06c0.974 0.974 66.233-39.934 66.233-39.934v42.856s-67.207 40.909-67.207 38.961 0-40.909 0.974-41.883z" />
    <path
       style="fill:#0f4c5c;fill-opacity:1;stroke:#ffffff;stroke-opacity:1"
       id="path8555"
       d="m251.29 266.24 73.05 7.792 69.155-40.908-68.181-6.818-74.024 39.934z" />
  </g>
  <g
     id="g8565"
     stroke-width="3.75"
     stroke-linejoin="bevel"
     stroke="#000"
     font-size="12"
     fill-rule="evenodd"
     fill="#b95300"
     transform="translate(-93.505 36.038)">
    <path
       style="fill:#0f4c5c;fill-opacity:1;stroke:#ffffff;stroke-opacity:1"
       id="path8559"
       d="m351.62 200.01 74.024 8.766v41.882l-74.024-9.74v-40.908z"
       transform="translate(-100.32 65.258)" />
    <path
       style="fill:#0f4c5c;fill-opacity:1;stroke:#ffffff;stroke-opacity:1"
       id="path8561"
       d="m326.29 273.06c0.974 0.974 66.233-39.934 66.233-39.934v42.856s-67.207 40.909-67.207 38.961 0-40.909 0.974-41.883z" />
    <path
       style="fill:#0f4c5c;fill-opacity:1;stroke:#ffffff;stroke-opacity:1"
       id="path8563"
       d="m251.29 266.24 73.05 7.792 69.155-40.908-68.181-6.818-74.024 39.934z" />
  </g>
  <g
     id="g8573"
     stroke-width="3.75"
     stroke-linejoin="bevel"
     stroke="#000"
     font-size="12"
     fill-rule="evenodd"
     fill="#b95300"
     transform="translate(-161.69 75.972)">
    <path
       style="fill:#0f4c5c;fill-opacity:1;stroke:#ffffff;stroke-opacity:1"
       id="path8567"
       d="m351.62 200.01 74.024 8.766v41.882l-74.024-9.74v-40.908z"
       transform="translate(-100.32 65.258)" />
    <path
       style="fill:#0f4c5c;fill-opacity:1;stroke:#ffffff;stroke-opacity:1"
       id="path8569"
       d="m326.29 273.06c0.974 0.974 66.233-39.934 66.233-39.934v42.856s-67.207 40.909-67.207 38.961 0-40.909 0.974-41.883z" />
    <path
       style="fill:#0f4c5c;fill-opacity:1;stroke:#ffffff;stroke-opacity:1"
       id="path8571"
       d="m251.29 266.24 73.05 7.792 69.155-40.908-68.181-6.818-74.024 39.934z" />
  </g>
  <g
     id="g8581"
     stroke-width="3.75"
     stroke-linejoin="bevel"
     stroke="#000"
     font-size="12"
     fill-rule="evenodd"
     fill="#b95300"
     transform="translate(5.844 -67.206)">
    <path
       style="fill:#0f4c5c;fill-opacity:1;stroke:#ffffff;stroke-opacity:1"
       id="path8575"
       d="m351.62 200.01 74.024 8.766v41.882l-74.024-9.74v-40.908z"
       transform="translate(-100.32 65.258)" />
    <path
       style="fill:#0f4c5c;fill-opacity:1;stroke:#ffffff;stroke-opacity:1"
       id="path8577"
       d="m326.29 273.06c0.974 0.974 66.233-39.934 66.233-39.934v42.856s-67.207 40.909-67.207 38.961 0-40.909 0.974-41.883z" />
    <path
       style="fill:#0f4c5c;fill-opacity:1;stroke:#ffffff;stroke-opacity:1"
       id="path8579"
       d="m251.29 266.24 73.05 7.792 69.155-40.908-68.181-6.818-74.024 39.934z" />
  </g>
  <g
     id="g8589"
     stroke-width="3.75"
     stroke-linejoin="bevel"
     stroke="#000"
     font-size="12"
     fill-rule="evenodd"
     fill="#b95300"
     transform="translate(-64.284 -26.298)">
    <path
       style="fill:#0f4c5c;fill-opacity:1;stroke:#ffffff;stroke-opacity:1"
       id="path8583"
       d="m351.62 200.01 74.024 8.766v41.882l-74.024-9.74v-40.908z"
       transform="translate(-100.32 65.258)" />
    <path
       style="fill:#0f4c5c;fill-opacity:1;stroke:#ffffff;stroke-opacity:1"
       id="path8585"
       d="m326.29 273.06c0.974 0.974 66.233-39.934 66.233-39.934v42.856s-67.207 40.909-67.207 38.961 0-40.909 0.974-41.883z" />
    <path
       style="fill:#0f4c5c;fill-opacity:1;stroke:#ffffff;stroke-opacity:1"
       id="path8587"
       d="m251.29 266.24 73.05 7.792 69.155-40.908-68.181-6.818-74.024 39.934z" />
  </g>
  <g
     id="g8597"
     stroke-width="3.75"
     stroke-linejoin="bevel"
     stroke="#000"
     font-size="12"
     fill-rule="evenodd"
     fill="#b95300"
     transform="translate(-134.41 14.61)">
    <path
       style="fill:#0f4c5c;fill-opacity:1;stroke:#ffffff;stroke-opacity:1"
       id="path8591"
       d="m351.62 200.01 74.024 8.766v41.882l-74.024-9.74v-40.908z"
       transform="translate(-100.32 65.258)" />
    <path
       style="fill:#0f4c5c;fill-opacity:1;stroke:#ffffff;stroke-opacity:1"
       id="path8593"
       d="m326.29 273.06c0.974 0.974 66.233-39.934 66.233-39.934v42.856s-67.207 40.909-67.207 38.961 0-40.909 0.974-41.883z" />
    <path
       style="fill:#0f4c5c;fill-opacity:1;stroke:#ffffff;stroke-opacity:1"
       id="path8595"
       d="m251.29 266.24 73.05 7.792 69.155-40.908-68.181-6.818-74.024 39.934z" />
  </g>
  <g
     id="g8605"
     stroke-width="3.75"
     stroke-linejoin="bevel"
     stroke="#000"
     font-size="12"
     fill-rule="evenodd"
     fill="#b95300"
     transform="translate(-202.59 54.544)">
    <path
       style="fill:#0f4c5c;fill-opacity:1;stroke:#ffffff;stroke-opacity:1"
       id="path8599"
       d="m351.62 200.01 74.024 8.766v41.882l-74.024-9.74v-40.908z"
       transform="translate(-100.32 65.258)" />
    <path
       style="fill:#0f4c5c;fill-opacity:1;stroke:#ffffff;stroke-opacity:1"
       id="path8601"
       d="m326.29 273.06c0.974 0.974 66.233-39.934 66.233-39.934v42.856s-67.207 40.909-67.207 38.961 0-40.909 0.974-41.883z" />
    <path
       style="fill:#0f4c5c;fill-opacity:1;stroke:#ffffff;stroke-opacity:1"
       id="path8603"
       d="m251.29 266.24 73.05 7.792 69.155-40.908-68.181-6.818-74.024 39.934z" />
  </g>
  <g
     id="g8613"
     stroke-width="3.75"
     stroke-linejoin="bevel"
     stroke="#000"
     font-size="12"
     fill-rule="evenodd"
     fill="#b95300"
     transform="translate(29.22 -126.62)">
    <path
       style="fill:#0f4c5c;fill-opacity:1;stroke:#ffffff;stroke-opacity:1"
       id="path8607"
       d="m351.62 200.01 74.024 8.766v41.882l-74.024-9.74v-40.908z"
       transform="translate(-100.32 65.258)" />
    <path
       style="fill:#0f4c5c;fill-opacity:1;stroke:#ffffff;stroke-opacity:1"
       id="path8609"
       d="m326.29 273.06c0.974 0.974 66.233-39.934 66.233-39.934v42.856s-67.207 40.909-67.207 38.961 0-40.909 0.974-41.883z" />
    <path
       style="fill:#0f4c5c;fill-opacity:1;stroke:#ffffff;stroke-opacity:1"
       id="path8611"
       d="m251.29 266.24 73.05 7.792 69.155-40.908-68.181-6.818-74.024 39.934z" />
  </g>
  <g
     id="g8621"
     stroke-width="3.75"
     stroke-linejoin="bevel"
     stroke="#000"
     font-size="12"
     fill-rule="evenodd"
     fill="#b95300"
     transform="translate(-40.908 -85.713)">
    <path
       style="fill:#0f4c5c;fill-opacity:1;stroke:#ffffff;stroke-opacity:1"
       id="path8615"
       d="m351.62 200.01 74.024 8.766v41.882l-74.024-9.74v-40.908z"
       transform="translate(-100.32 65.258)" />
    <path
       style="fill:#0f4c5c;fill-opacity:1;stroke:#ffffff;stroke-opacity:1"
       id="path8617"
       d="m326.29 273.06c0.974 0.974 66.233-39.934 66.233-39.934v42.856s-67.207 40.909-67.207 38.961 0-40.909 0.974-41.883z" />
    <path
       style="fill:#0f4c5c;fill-opacity:1;stroke:#ffffff;stroke-opacity:1"
       id="path8619"
       d="m251.29 266.24 73.05 7.792 69.155-40.908-68.181-6.818-74.024 39.934z" />
  </g>
  <g
     id="g8629"
     stroke-width="3.75"
     stroke-linejoin="bevel"
     stroke="#000"
     font-size="12"
     fill-rule="evenodd"
     fill="#b95300"
     transform="translate(-111.04 -44.804)">
    <path
       style="fill:#0f4c5c;fill-opacity:1;stroke:#ffffff;stroke-opacity:1"
       id="path8623"
       d="m351.62 200.01 74.024 8.766v41.882l-74.024-9.74v-40.908z"
       transform="translate(-100.32 65.258)" />
    <path
       style="fill:#0f4c5c;fill-opacity:1;stroke:#ffffff;stroke-opacity:1"
       id="path8625"
       d="m326.29 273.06c0.974 0.974 66.233-39.934 66.233-39.934v42.856s-67.207 40.909-67.207 38.961 0-40.909 0.974-41.883z" />
    <path
       style="fill:#0f4c5c;fill-opacity:1;stroke:#ffffff;stroke-opacity:1"
       id="path8627"
       d="m251.29 266.24 73.05 7.792 69.155-40.908-68.181-6.818-74.024 39.934z" />
  </g>
  <g
     id="g8637"
     stroke-width="3.75"
     stroke-linejoin="bevel"
     stroke="#000"
     font-size="12"
     fill-rule="evenodd"
     fill="#b95300"
     transform="translate(-179.22 -4.8702)">
    <path
       style="fill:#0f4c5c;fill-opacity:1;stroke:#ffffff;stroke-opacity:1"
       id="path8631"
       d="m351.62 200.01 74.024 8.766v41.882l-74.024-9.74v-40.908z"
       transform="translate(-100.32 65.258)" />
    <path
       style="fill:#0f4c5c;fill-opacity:1;stroke:#ffffff;stroke-opacity:1"
       id="path8633"
       d="m326.29 273.06c0.974 0.974 66.233-39.934 66.233-39.934v42.856s-67.207 40.909-67.207 38.961 0-40.909 0.974-41.883z" />
    <path
       style="fill:#0f4c5c;fill-opacity:1;stroke:#ffffff;stroke-opacity:1"
       id="path8635"
       d="m251.29 266.24 73.05 7.792 69.155-40.908-68.181-6.818-74.024 39.934z" />
  </g>
  <g
     id="g8645"
     stroke-width="3.75"
     stroke-linejoin="bevel"
     stroke="#000"
     font-size="12"
     fill-rule="evenodd"
     fill="#b95300"
     transform="translate(-18.506 -145.13)">
    <path
       style="fill:#0f4c5c;fill-opacity:1;stroke:#ffffff;stroke-opacity:1"
       id="path8639"
       d="m351.62 200.01 74.024 8.766v41.882l-74.024-9.74v-40.908z"
       transform="translate(-100.32 65.258)" />
    <path
       style="fill:#0f4c5c;fill-opacity:1;stroke:#ffffff;stroke-opacity:1"
       id="path8641"
       d="m326.29 273.06c0.974 0.974 66.233-39.934 66.233-39.934v42.856s-67.207 40.909-67.207 38.961 0-40.909 0.974-41.883z" />
    <path
       style="fill:#0f4c5c;fill-opacity:1;stroke:#ffffff;stroke-opacity:1"
       id="path8643"
       d="m251.29 266.24 73.05 7.792 69.155-40.908-68.181-6.818-74.024 39.934z" />
  </g>
  <g
     id="g8653"
     stroke-width="3.75"
     stroke-linejoin="bevel"
     stroke="#000"
     font-size="12"
     fill-rule="evenodd"
     fill="#b95300"
     transform="translate(-88.635 -104.22)">
    <path
       style="fill:#0f4c5c;fill-opacity:1;stroke:#ffffff;stroke-opacity:1"
       id="path8647"
       d="m351.62 200.01 74.024 8.766v41.882l-74.024-9.74v-40.908z"
       transform="translate(-100.32 65.258)" />
    <path
       style="fill:#0f4c5c;fill-opacity:1;stroke:#ffffff;stroke-opacity:1"
       id="path8649"
       d="m326.29 273.06c0.974 0.974 66.233-39.934 66.233-39.934v42.856s-67.207 40.909-67.207 38.961 0-40.909 0.974-41.883z" />
    <path
       style="fill:#0f4c5c;fill-opacity:1;stroke:#ffffff;stroke-opacity:1"
       id="path8651"
       d="m251.29 266.24 73.05 7.792 69.155-40.908-68.181-6.818-74.024 39.934z" />
  </g>
  <g
     id="g8661"
     stroke-width="3.75"
     stroke-linejoin="bevel"
     stroke="#000"
     font-size="12"
     fill-rule="evenodd"
     fill="#b95300"
     transform="translate(-158.76 -63.311)">
    <path
       style="fill:#0f4c5c;fill-opacity:1;stroke:#ffffff;stroke-opacity:1"
       id="path8655"
       d="m351.62 200.01 74.024 8.766v41.882l-74.024-9.74v-40.908z"
       transform="translate(-100.32 65.258)" />
    <path
       style="fill:#0f4c5c;fill-opacity:1;stroke:#ffffff;stroke-opacity:1"
       id="path8657"
       d="m326.29 273.06c0.974 0.974 66.233-39.934 66.233-39.934v42.856s-67.207 40.909-67.207 38.961 0-40.909 0.974-41.883z" />
    <path
       style="fill:#0f4c5c;fill-opacity:1;stroke:#ffffff;stroke-opacity:1"
       id="path8659"
       d="m251.29 266.24 73.05 7.792 69.155-40.908-68.181-6.818-74.024 39.934z" />
  </g>
  <g
     id="g8669"
     stroke-width="3.75"
     stroke-linejoin="bevel"
     stroke="#000"
     font-size="12"
     fill-rule="evenodd"
     fill="#b95300"
     transform="translate(-226.94 -23.376)">
    <path
       style="fill:#0f4c5c;fill-opacity:1;stroke:#ffffff;stroke-opacity:1"
       id="path8663"
       d="m351.62 200.01 74.024 8.766v41.882l-74.024-9.74v-40.908z"
       transform="translate(-100.32 65.258)" />
    <path
       style="fill:#0f4c5c;fill-opacity:1;stroke:#ffffff;stroke-opacity:1"
       id="path8665"
       d="m326.29 273.06c0.974 0.974 66.233-39.934 66.233-39.934v42.856s-67.207 40.909-67.207 38.961 0-40.909 0.974-41.883z" />
    <path
       style="fill:#0f4c5c;fill-opacity:1;stroke:#ffffff;stroke-opacity:1"
       id="path8667"
       d="m251.29 266.24 73.05 7.792 69.155-40.908-68.181-6.818-74.024 39.934z" />
  </g>
  <g
     id="g8677"
     stroke-width="3.75"
     stroke-linejoin="bevel"
     stroke="#000"
     font-size="12"
     fill-rule="evenodd"
     fill="#b95300"
     transform="translate(8.766 -207.46)">
    <path
       style="fill:#0f4c5c;fill-opacity:1;stroke:#ffffff;stroke-opacity:1"
       id="path8671"
       d="m351.62 200.01 74.024 8.766v41.882l-74.024-9.74v-40.908z"
       transform="translate(-100.32 65.258)" />
    <path
       style="fill:#0f4c5c;fill-opacity:1;stroke:#ffffff;stroke-opacity:1"
       id="path8673"
       d="m326.29 273.06c0.974 0.974 66.233-39.934 66.233-39.934v42.856s-67.207 40.909-67.207 38.961 0-40.909 0.974-41.883z" />
    <path
       style="fill:#0f4c5c;fill-opacity:1;stroke:#ffffff;stroke-opacity:1"
       id="path8675"
       d="m251.29 266.24 73.05 7.792 69.155-40.908-68.181-6.818-74.024 39.934z" />
  </g>
  <g
     id="g8685"
     stroke-width="3.75"
     stroke-linejoin="bevel"
     stroke="#000"
     font-size="12"
     fill-rule="evenodd"
     fill="#b95300"
     transform="translate(-61.362 -166.56)">
    <path
       style="fill:#0f4c5c;fill-opacity:1;stroke:#ffffff;stroke-opacity:1"
       id="path8679"
       d="m351.62 200.01 74.024 8.766v41.882l-74.024-9.74v-40.908z"
       transform="translate(-100.32 65.258)" />
    <path
       style="fill:#0f4c5c;fill-opacity:1;stroke:#ffffff;stroke-opacity:1"
       id="path8681"
       d="m326.29 273.06c0.974 0.974 66.233-39.934 66.233-39.934v42.856s-67.207 40.909-67.207 38.961 0-40.909 0.974-41.883z" />
    <path
       style="fill:#0f4c5c;fill-opacity:1;stroke:#ffffff;stroke-opacity:1"
       id="path8683"
       d="m251.29 266.24 73.05 7.792 69.155-40.908-68.181-6.818-74.024 39.934z" />
  </g>
  <g
     id="g8693"
     stroke-width="3.75"
     stroke-linejoin="bevel"
     stroke="#000"
     font-size="12"
     fill-rule="evenodd"
     fill="#b95300"
     transform="translate(-131.49 -125.65)">
    <path
       style="fill:#0f4c5c;fill-opacity:1;stroke:#ffffff;stroke-opacity:1"
       id="path8687"
       d="m351.62 200.01 74.024 8.766v41.882l-74.024-9.74v-40.908z"
       transform="translate(-100.32 65.258)" />
    <path
       style="fill:#0f4c5c;fill-opacity:1;stroke:#ffffff;stroke-opacity:1"
       id="path8689"
       d="m326.29 273.06c0.974 0.974 66.233-39.934 66.233-39.934v42.856s-67.207 40.909-67.207 38.961 0-40.909 0.974-41.883z" />
    <path
       style="fill:#0f4c5c;fill-opacity:1;stroke:#ffffff;stroke-opacity:1"
       id="path8691"
       d="m251.29 266.24 73.05 7.792 69.155-40.908-68.181-6.818-74.024 39.934z" />
  </g>
  <path
     d="m 51.63,179.555 74.024,8.766 v 41.882 l -74.024,-9.74 z"
     id="path8695"
     style="font-size:12px;fill:#0f4c5c;fill-rule:evenodd;stroke:#ffffff;stroke-width:3.75;stroke-linejoin:bevel;fill-opacity:1;stroke-opacity:1" />
  <path
     d="m 126.62,187.347 c 0.974,0.974 66.233,-39.934 66.233,-39.934 v 42.856 c 0,0 -67.207,40.909 -67.207,38.961 0,-1.948 0,-40.909 0.974,-41.883 z"
     id="path8697"
     style="font-size:12px;fill:#0f4c5c;fill-rule:evenodd;stroke:#ffffff;stroke-width:3.75;stroke-linejoin:bevel;fill-opacity:1;stroke-opacity:1" />
  <path
     d="m 51.62,180.527 73.05,7.792 69.155,-40.908 -68.181,-6.818 z"
     id="path8699"
     style="font-size:12px;fill:#0f4c5c;fill-rule:evenodd;stroke:#ffffff;stroke-width:3.75;stroke-linejoin:bevel;fill-opacity:1;stroke-opacity:1" />
</svg>
