<?xml version="1.0" encoding="UTF-8" standalone="no"?>
<svg
   xmlns:dc="http://purl.org/dc/elements/1.1/"
   xmlns:cc="http://creativecommons.org/ns#"
   xmlns:rdf="http://www.w3.org/1999/02/22-rdf-syntax-ns#"
   xmlns:svg="http://www.w3.org/2000/svg"
   xmlns="http://www.w3.org/2000/svg"
   xmlns:sodipodi="http://sodipodi.sourceforge.net/DTD/sodipodi-0.dtd"
   xmlns:inkscape="http://www.inkscape.org/namespaces/inkscape"
   inkscape:version="1.0 (4035a4fb49, 2020-05-01)"
   sodipodi:docname="nokto.svg"
   id="svg4"
   viewBox="0 0 1066 1778"
   version="1.1"
   enable-background="new 0 0 1066 1778">
  <metadata
     id="metadata10">
    <rdf:RDF>
      <cc:Work
         rdf:about="">
        <dc:format>image/svg+xml</dc:format>
        <dc:type
           rdf:resource="http://purl.org/dc/dcmitype/StillImage" />
        <dc:title></dc:title>
      </cc:Work>
    </rdf:RDF>
  </metadata>
  <defs
     id="defs8" />
  <sodipodi:namedview
     inkscape:current-layer="svg4"
     inkscape:window-maximized="1"
     inkscape:window-y="0"
     inkscape:window-x="0"
     inkscape:cy="889"
     inkscape:cx="533"
     inkscape:zoom="0.43638212"
     showgrid="false"
     id="namedview6"
     inkscape:window-height="1016"
     inkscape:window-width="1920"
     inkscape:pageshadow="2"
     inkscape:pageopacity="0"
     guidetolerance="10"
     gridtolerance="10"
     objecttolerance="10"
     borderopacity="1"
     bordercolor="#666666"
     pagecolor="#ffffff" />
  <path
     style="fill:#fb8b24;fill-opacity:1"
     id="path2"
     fill="#010101"
     d="m970.18 959.84c-62.261 36.867-134.92 58.03-212.52 58.03-230.69 0-417.71-187.01-417.71-417.71s187.01-417.71 417.71-417.71c77.602 0 150.26 21.163 212.52 58.03-92.638-93.54-221.15-151.49-363.2-151.49-282.31 0-511.17 228.86-511.17 511.17 0 272.42 213.1 495.05 481.7 510.32-1.5533 3.1002-3.316 6.0914-5.2905 8.9453-6.8193 13.431-14.422 26.434-21.461 39.739-4.0232 7.1421-8.7305 13.913-12.116 21.391-1.3334 2.8058-3.5941 5.0667-4.8348 7.9304-2.481 6.0637-7.165 10.864-9.8666 16.835-5.1361 7.1421-8.7188 15.188-13.391 22.609-3.2694 4.2434-5.1941 9.3102-8.4175 13.588-4.5566 6.0754-7.1072 13.438-12.023 19.281-7.0378 12.498-14.945 24.545-22.226 36.928-7.2813 10.133-12.116 21.936-20.499 31.27-4.3595 0.3362-8.8116 0.1392-13.101 1.0435-1.8436 3.8843-3.9885 7.5364-6.7365 10.852-3.7333 7.2001-10.203 12.185-15.78 17.844-10.585 8.7072-21.751 16.788-31.2 26.782-4.313 4.858-11.188 5.5769-16.44 8.9624-4.6031 3.5593-9.1017 7.4087-14.319 10.04-4.4521 0.9507-8.6492-1.7275-13.067-1.3101-2.7246 0.9275-5.1826 2.574-8.0461 3.084-0.116-4.3594 4.0348-6.5276 6.1914-9.739 0.2781-1.3103 0.4172-2.9913-1.2639-3.3044-3.4434-1.7507-7.3275-1.4955-11.038-1.3682 3.3623-7.6057 14.98-6.3767 17.252-14.794 2.3535-4.0464-3.1305-7.6405-1.4261-11.71 3.0725-4.765 3.2928-11.072 1.1016-16.243-0.5104-2.9218 0.1274-5.9362 0.0115-8.8811-3.3972-2.2377-6.9102-4.3478-9.9131-7.0957-2.6782-5.0667-4.2319-10.91-4.1971-16.649 1.5768-2.7941 4.6145-4.5448 5.7509-7.5941 0.0348-4.2782-1.113-8.5332-2.8289-12.418-1.6929 2.9915-2.7478 6.5508-6.1218 8.1042-0.9159-3.5013-1.2058-7.0957-1.4493-10.69-0.3593-3.6405-2.9218-7.8375-7.0028-7.7681 0.0695 3.2001 1.7971 7.0145-0.9971 9.6232-3.629 0.9624-5.8551-2.9797-9.2058-3.397-2.9333-0.4058-5.8899-0.3943-8.835-0.4407-9.9709-0.6145-19.096 4.1855-28.696 5.9825-6.7014 2.574-12.73 7.0725-16.904 12.962-2.3419 3.2347-2.771 7.6405-5.9014 10.307-2.9102 2.9218-6.9681 4.9971-8.4175 9.1013-1.7624 3.629 0.116 8.1392-2.2725 11.525-3.2232 4.4871-7.826 8.0115-10.122 13.159-3.0956 4.7419 1.113 11.27-2.9102 15.664-2.2725 1.2871-5.2057 1.3218-7.0957 3.2581-3.1536 2.6436-2.5739 7.687-6.2493 9.9595-5.1478 3.6405-11.907 3.7565-17.96 4.4753 1.1479 1.5768 2.0291 3.7682 4.174 4.2434 2.6551 0.4175 5.3566 0.3247 8.0348 0.661 1.7159 4.0463-3.316 4.2433-5.6464 6.0173-1.6116 1.9015-2.5855 4.2434-4.0464 6.2609-2.2261 1.7739-5.3101 2.0869-7.4203 4.0464-3.6405 3.8494-6.829 8.1042-9.4725 12.696-1.1827 1.5072-0.9391 3.455-1.0435 5.2521 4.2087-1.5883 6.2377-5.8202 9.1362-8.9275 4.8232-1.6926 10.052-1.2405 15.026-2.1913-0.2087 1.8667 0.2551 4.1044-1.4609 5.4377-2.887 4.058-8.8464 2.7362-12.046 6.4348-2.7826 2.6434-1.9014 6.7594-1.9478 10.191 0.6724-0.0464 2.0174-0.1506 2.6899-0.197 1.0318-1.9132 2.0174-3.8494 3.0144-5.7739 3.3624-0.1622 6.7362 0.0233 10.099-0.2782 2.4927-1.3914 5.0087-3.2463 8.0233-2.1218-2.3305 3.6406-5.7972 6.8986-6.2841 11.42-0.8232 3.5941 1.4145 6.7826 2.8754 9.8783 1.6348 3.061 2.6899 6.4348 4.6957 9.3101 0.3594-0.5216 1.0899-1.5535 1.4493-2.0752-1.287-4.2203-1.5303-8.6029-0.4754-12.904 0.429-0.1971 1.2637-0.5796 1.6812-0.7653-0.3942 5.09 1.6116 10.11 6.1218 12.765 0.2435-3.5942-0.8-7.084-0.858-10.632 1.8666-5.4261 9.4028-4.3943 12.093-9.0784 2.4116-4.3478 3.9885-9.1014 5.6464-13.762 2.3072 3.1074 1.1827 7.2117 2.0406 10.782 3.3507-6.5273 5.0782-13.855 9.5073-19.861 0.3826 0.6725 1.1478 2.0173 1.5305 2.6898 0.5797 5.7507 0.7189 11.687-0.4986 17.391 1.7739-1.4492 3.4087-3.571 5.9827-3.1653 1.4957 2.5508 2.8521 5.1943 4.0232 7.9189 0.0232 3.6406-3.3044 6.655-2.3305 10.388 0.545 3.084 1.9362 6.1682 1.1942 9.3682-1.2522 5.1942-1.4609 10.62-0.9044 15.942 1.1711 4.5796 2.1448 9.1824 2.9565 13.855 0.7769 4.0116 4.8115 6.5392 5.0087 10.702 0.2434 5.1365 5.2058 8.6842 4.7304 13.936 0.858 6.7595-7.0724 10.667-6.2725 17.31-0.0115 3.49-1.7856 6.7712-1.3565 10.307 3.1188 10.562 6.5507 21.09 8.9043 31.872 1.7507 4.7074 6.5508 6.7015 9.6232 10.284 0.6956 4.6145-2.8986 10.098 0.3248 14.319 4.3014 2.6436 9.3448 3.9421 13.89 6.1799 4.9159 2.7128 10.643 3.3274 15.594 6.0056 3.5364 2.0637 7.8611 1.8204 11.397 3.9536 5.0667 2.7362 11.154 2.6666 16.104 5.658 9.02 4.7654 19.374 5.4609 28.58 9.7623 4.0579 1.9943 8.6841 1.3451 12.649-0.4984 3.3508 0.5796 6.7478 2.8289 8.5449 5.8435 1.5421 2.1912 0.7534 5.0549 1.368 7.5594 0.8118 2.0638 2.9916 2.8636 4.7538 3.9535 4.3246 2.2493 7.4783 6.1218 11.791 8.4058 2.3884-1.2638 4.9275-2.2725 7.142-3.826 2.3073-3.235 2.0752-7.5828 4.4521-10.771 3.0957-2.4114 7.3392-1.4606 10.922-2.6086 2.6204-0.8926 4.1971 1.7971 5.9131 3.2695 4.4869 4.7887 9.6 8.9972 15.049 12.672 9.1709 3.4669 17.148 9.9943 26.991 11.675 2.8751 0.5913 5.4143 2.3304 8.3826 2.632 4.3942 0.8114 9.0433 0.5448 13.252 2.2374 3.838 2.1917 7.4785 4.7539 10.876 7.606 3.5593 2.8174 5.0549 7.4435 8.5563 10.331 5.6117 0.3707 11.861 1.9825 16.812-1.6117 6.6899-4.3828 14.852-2.6669 22.215-1.4146 4.5565-2.0754 9.5653-3.803 13.066-7.5828 3.9653-3.8723 1.3448-12.8-4.6838-12.429-5.4611 0.3827-10.957 0.6842-16.418 0.058 1.6929-5.1593 8.4985-5.0203 10.203-10.064 1.3799-3.3278-2.0291-6.7365-5.3448-6.1683-7.7452 0.2435-15.386 1.7855-23.154 1.4493 0.2087-2.0521 0.6375-4.0697 0.5912-6.1101-4.0464-3.4203-9.9359-2.1801-14.817-2.1915-0.3943 2.4117-0.7885 4.8582-1.8319 7.1074-11.223-2.5276-21.646-7.3857-32.139-11.931-10.887-3.5361-21.09-9.0435-30.412-15.617-4.626-2.6202-9.4724-5.1245-13.067-9.1365-2.1797-2.4231-5.4028-3.6752-7.4434-6.2026 1.2753-6.1566-4.429-11.304-2.3883-17.403 4.0812-5.0089 9.8783-8.6028 12.777-14.562-0.3478-4.9158-6.3304-4.3594-9.913-4.1855-6.5393 0.8234-13.125 0.2319-19.617-0.6724-4.9739-0.3943-9.0549-3.6406-13.588-5.3914 0.2205-8.2666 3.9886-15.849 7.9769-22.875 1.7623-5.3798 3.8491-10.62 6.2954-15.722 2.1567-6.8175 6.9683-12.441 8.8467-19.374 0.8926-3.2813 3.5823-5.6697 4.5099-8.9276 2.5043-8.6378 7.5941-16.197 10.852-24.522 3.5476-6.3999 6.9102-12.951 8.823-20.046 2.3887-4.7651 4.3595-9.9478 7.7451-14.098 7.0724-3.3276 11.548-10.203 13.391-17.612 2.4003-5.1825-0.5216-11.339 2.6089-16.29 6.2839-10.875 11.919-22.098 17.762-33.206 3.9188-5.9246 6.655-12.51 10.388-18.539 4.3479-6.377 7.0144-13.704 11.177-20.186 3.7451-6.7361 8.4175-12.951 11.467-20.058 6.1683-10.412 12.162-20.939 18.319-31.362 5.3218-8.9972 10.006-18.354 15.803-27.061 6.3884-11.119 11.687-22.841 18.319-33.82 5.1245-9.6465 10.296-19.27 15.165-29.044 0.7303-1.9478 0.4636-4.0928 0.9043-6.0869 7.0491-10.099 11.362-21.762 16.719-32.789 3.7798-6.9797 8.6957-13.275 12.418-20.29 4.223-7.1252 8.4998-14.224 12.689-21.372 134.5-4.909 255.73-61.782 344.23-151.14zm-622.77 483.23c6.1333-5.6464 13.519-9.7623 19.664-15.42 6.2841-6.168 14.319-10.354 19.838-17.333 3.9767-5.3682 9.7277-8.8464 14.783-13.055 2.6086-2.7479 4.8231-5.8783 7.7914-8.2784 6.5044-5.5535 11.212-12.765 16.684-19.269 3.6055-4.6957 6.3997-10.191 11.165-13.89 1.6232 0 3.165 0.4058 4.6261 1.2057-6.4348 6.8058-7.5363 16.464-11.571 24.591-5.6116 14.528-14.759 27.594-18.62 42.806-1.2635 3.5479-2.2958 8.2087-6.516 9.2522-8.2898 2.1913-16.684 4.0579-24.893 6.5854-6.6899 1.542-12.928 4.7188-19.78 5.5304-3.9305 0.3944-7.1074 2.8755-10.551 4.545-2.1331-1.8317-3.6172-4.4403-2.6201-7.2694zm22.956 100.99c-7.2233 1.2058-10.307-6.6204-15.409-10.087-4.8115-3.2463-7.3159-8.6378-10.064-13.519-2.1333-3.6058-1.7971-7.942-3.4087-11.71-1.6812-3.4551-0.9392-7.3623-1.1245-11.049 1.9941-1.9825 4.2085-3.7681 5.8782-6.0404-0.116-4.5916 1.0898-9.8436 5.5999-12.035 4.9856-2.4928 9.0669-6.8059 14.783-7.6406 6.8058-2.8752 14.319-3.803 20.8-7.4551 4.9275-2.5391 9.5421-5.6464 13.948-8.9855 0.7651 0.4406 2.2957 1.3218 3.0493 1.7739-4.4637 9.4028-9.229 18.783-11.71 28.951-1.7971 4.8116-3.1653 9.7855-5.3682 14.458-2.9912 8.2318-5.1364 16.87-9.6462 24.475-2.0059 6.4581-5.1364 12.464-7.3277 18.864zm62.818-87.142c-4.3827 9.3218-9.5421 18.261-13.728 27.676-2.1682 5.855-4.4175 11.71-7.1189 17.356-5.5303 8.7303-8.8694 18.586-14.064 27.502-2.632 4.2666-3.861 9.1709-5.9595 13.704-2.3881 4.8116-1.9131 10.713-5.8087 14.818-3.1537-2.4116-6.5391-4.5333-9.6926-6.9335-1.5771-8.1854 4.4521-14.806 6.5505-22.249 2.9102-10.702 6.655-21.148 10.91-31.386 1.9827-7.3042 5.2173-14.168 8.452-20.974 1.3218-5.5769 4.7188-10.284 6.4696-15.687 1.8669-3.7217 2.6666-8.7535 7.1421-10.261 7.6521-3.4203 14.006-11.606 23.13-9.9943 0.0926 6.1336-3.4088 11.316-6.2841 16.429zm170.83-319.97c-5.6346 7.0261-8.8578 15.548-12.742 23.582-4.1624 10.922-12.719 19.861-15.13 31.49-5.3218 10.864-11.78 21.171-17.496 31.861-3.0724 7.3508-8.6841 13.229-12.058 20.417-6.8752 12.093-12.997 24.603-20.278 36.464-4.1042 7.8608-9.368 15.107-12.904 23.246-3.5363 4.8347-6.2728 10.156-8.9738 15.49-3.9075 5.5188-6.2147 11.965-10.041 17.542-8.5797 14.319-17.078 28.707-25.02 43.397-3.8956 6.9683-6.8174 14.47-11.316 21.102-2.5048 3.9187-4.5568 8.4406-8.7771 10.841-3.4781 1.8782-5.4493 5.3682-8.0928 8.1276-6.0176 3.8376-13.391 4.7072-19.56 8.2899-1.1594 0.7302-2.3071 0.6841-3.455-0.116-0.6146-4.5798 2.3885-8.3362 3.9535-12.371 7.5828-15.154 14.794-30.574 20.116-46.701 1.89-4.8 3.3508-10.087 7.2813-13.681 3.4897-3.4783 7.7448-6.6318 9.1709-11.583 0.5913-3.8492-1.1362-7.5013-2.2957-11.061 1.6465-4.7537 4.1158-9.0781 6.6898-13.368 2.597-6.4232 7.884-11.13 11.223-17.113 3.7451-6.1797 7.3274-12.452 11.316-18.47 5.4727-9.6001 10.678-19.362 16.962-28.476 5.4609-10.609 11.965-20.638 18.018-30.922 4.3942-5.8203 7.2811-12.58 11.397-18.597 3.8608-8.9739 10.33-16.44 15.27-24.788 2.4463-6.2839 5.7393-12.185 9.113-18.006 4.2087-7.6405 7.8839-15.594 13.044-22.667 2.6318-5.4495 6.0408-10.458 9.0435-15.698 2.2111-4.8413 4.6351-9.5773 7.0953-14.297 7.1025 0.2927 14.24 0.4484 21.415 0.4484 4.3523 0 8.6914-0.056 13.018-0.1642-5.1932 8.676-10.586 17.236-15.985 25.781z" />
</svg>
