<?xml version="1.0" encoding="UTF-8" standalone="no"?>
<svg
   xmlns:dc="http://purl.org/dc/elements/1.1/"
   xmlns:cc="http://creativecommons.org/ns#"
   xmlns:rdf="http://www.w3.org/1999/02/22-rdf-syntax-ns#"
   xmlns:svg="http://www.w3.org/2000/svg"
   xmlns="http://www.w3.org/2000/svg"
   xmlns:sodipodi="http://sodipodi.sourceforge.net/DTD/sodipodi-0.dtd"
   xmlns:inkscape="http://www.inkscape.org/namespaces/inkscape"
   height="1023.6217"
   width="1158.45"
   enable-background="new 0 0 1242.062 1045.1"
   version="1.1"
   viewBox="0 0 1158.4499 1023.6217"
   id="svg4"
   sodipodi:docname="parento.svg"
   inkscape:version="1.0 (4035a4fb49, 2020-05-01)">
  <metadata
     id="metadata10">
    <rdf:RDF>
      <cc:Work
         rdf:about="">
        <dc:format>image/svg+xml</dc:format>
        <dc:type
           rdf:resource="http://purl.org/dc/dcmitype/StillImage" />
        <dc:title></dc:title>
      </cc:Work>
    </rdf:RDF>
  </metadata>
  <defs
     id="defs8" />
  <sodipodi:namedview
     fit-margin-bottom="10"
     fit-margin-right="10"
     fit-margin-left="10"
     lock-margins="true"
     fit-margin-top="10"
     inkscape:document-rotation="0"
     pagecolor="#ffffff"
     bordercolor="#666666"
     borderopacity="1"
     objecttolerance="10"
     gridtolerance="10"
     guidetolerance="10"
     inkscape:pageopacity="0"
     inkscape:pageshadow="2"
     inkscape:window-width="1366"
     inkscape:window-height="704"
     id="namedview6"
     showgrid="false"
     inkscape:zoom="0.42048502"
     inkscape:cx="576.51415"
     inkscape:cy="490.90025"
     inkscape:window-x="0"
     inkscape:window-y="0"
     inkscape:window-maximized="1"
     inkscape:current-layer="svg4" />
  <path
     d="m 956.88314,811.35026 c 4.86,-0.149 9.662,0.423 14.426,1.146 11.601,1.759 16.149,6.896 17.154,19.016 1.314,15.847 -10e-4,31.619 -1.486,47.376 -0.982,10.422 -1.994,20.631 1.116,31.113 3.464,11.676 -2.754,25.535 -12.953,32.235 -2.083,1.369 -4.206,2.715 -6.438,3.813 -3.624,1.783 -6.53,5.508 -6.935,9.635 -0.191,1.945 0.676,4.139 2.492,4.86 0.828,0.329 1.746,0.321 2.636,0.308 15.846,-0.227 31.687,-0.171 47.53696,-0.171 h 6.184 c 3.805,0 6.89,-3.085 6.89,-6.89 v -0.516 c 0,-1.634 -0.626,-3.179 -1.639,-4.461 -1.991,-2.519 -2.352,-5.42 -1.096,-9.674 3.186,-10.793 2.863,-21.714 2.592,-32.675 -0.554,-22.366 1.865,-44.55 3.8,-66.768 0.374,-4.293 0.471,-8.604 2.015,-12.744 0.579,-1.553 0.95,-3.067 2.896,-2.446 3.704,1.181 7.261,-0.058 10.865,-0.367 6.3,-0.54 7.337,0.385 7.014,6.786 -0.067,1.33 -0.229,2.655 -0.347,3.982 -1.625,29.956 -0.796,59.938 -0.761,89.906 0.01,7.103 1.486,14.212 2.385,21.307 0.149,1.177 0.598,2.522 0.531,3.704 -0.077,1.364 -0.834,2.715 -0.964,4.111 -0.142,1.52 0.099,3.126 0.969,4.381 1.397,2.014 4.081,2.7 6.534,2.688 10.202,-0.047 20.401,-0.253 30.605,-0.309 3.881,-0.021 6.808,1.414 7.383,-3.395 0.542,-4.533 0.281,-9.114 0.027,-13.657 -0.084,-1.506 -0.176,-3.044 -0.751,-4.439 -1.052,-2.553 -4.083,-2.481 -5.113,-4.824 -0.753,-1.714 -10e-4,-4.264 0.176,-6.045 1.743,-17.553 3.67,-35.089 5.254,-52.657 1.39,-15.418 2.509,-30.863 3.486,-46.312 0.159,-2.525 0.914,-3.006 3.12,-3.122 13.077,-0.683 26.127,-2.199 39.249,-1.184 1.336,0.103 2.191,-0.551 2.122,-1.459 -0.476,-6.279 1.556,-12.474 -0.015,-18.839 -9.272,-37.558 -19.479,-74.877 -30.022,-112.08 -5.184,-18.293 -6.82,-35.911 -1.547,-54.334 3.101,-10.834 4.818,-22.083 6.17,-33.312 2.693,-22.37 -0.032,-44.544 -2.731,-66.702 -0.88,-7.224 -2.981,-14.464 2.088,-21.135 1.185,-1.56 0.809,-3.321 0.144,-4.971 -2.102,-5.214 -4.596,-10.258 -7.217,-15.232 -10.426,-19.784 -18.399,-40.383 -22.729,-62.41 -3.427,-17.432 -7.564,-34.726 -11.546,-52.045 -2.801,-12.181 -5.954,-24.14 -15.2,-33.566 -9.985,-10.181 -21.496,-15.117 -35.625,-11.519 -14.572,3.71 -27.741,10.161 -32.16696,25.922 -4.403,15.675 -6.626,31.874 -7.274,48.206 -0.161,4.066 0.445,8.17 3.418,11.173 5.285,5.339 6.91796,12.081 7.57296,19.076 0.919,9.809 -2.59696,12.997 -9.75496,13.776 -1.481,0.161 -2.933,0.589 -4.414,0.76 -9.614,1.109 -17.763,4.911 -24.442,12.147 -6.339,6.868 -12.328,13.979 -17.927,21.458 -3.42,4.568 -4.078,9.153 -1.986,14.48 1.51,3.845 2.435,7.929 3.498,11.939 0.699,2.637 0.485,5.256 -0.587,7.817 -2.652,6.336 -6.172,12.109 -10.557,17.415 -3.891,4.708 -8.696,5.329 -13.946,3.359 -5.253,-1.971 -9.919,-4.624 -10.681,-11.218 -0.633,-5.483 -0.851,-10.952 -0.854,-16.453 -0.018,-30.163 0.106,-60.328 -0.147,-90.489 -0.112,-13.309 -0.993,-26.598 -3.577,-39.732 -3.247,-16.507 -9.138,-32.245 -13.695,-48.369 -3.245,-11.481 -3.096,-11.84 6.796,-18.236 5.889,-3.807 6.854,-5.828 4.896,-12.453 -9.856,-33.348 -23.24,-65.333 -37.027,-97.209 -6.88,-15.906 -17.714,-27.041 -33.167,-34.155 -3.925,-1.807 -7.757,-3.874 -11.806,-5.339 -9.507,-3.441 -18.991,-6.909 -28.28,-10.925 -7.432,-3.213 -14.219,-7.307 -19.716,-13.291 -8.785,-9.562 -7.34,-14.672 -0.35,-21.335 4.604,-4.388 6.499,-9.847 6.148,-16.247 -0.257,-4.686 -1.688,-9.163 -2.052,-13.800003 -1.381,-17.592 -3.396,-35.109 -6.096,-52.545 -1.069,-6.9 -3.996,-12.627 -10.515,-16.015 -12.701,-6.601 -25.577,-12.662 -39.755,-15.574 -11.602,-2.3830002 -22.823,-2.9870002 -32.976,4.531 -7.066,5.232 -14.926,8.408 -23.498,10.414 -7.219,1.689 -12.583,6.159 -14.016,13.94 -0.72,3.912 -0.952,7.923 -1.247,11.901 -0.089,1.203 -0.882,3.068 0.657,3.543 1.668,0.515 1.579,-1.632 2.306,-2.575 0.268,-0.348 0.519,-0.709 0.778,-1.065 0.152,0.401 0.417,0.796 0.439,1.205 0.622,11.165 3.915,21.894 5.422,32.925 0.658,4.817 -0.096,8.176 -4.133,11.111 -3.281,2.385 -3.957,6.945003 -1.461,10.144003 4.297,5.506 9.124,10.624 9.523,18.16 0.04,0.756 0.584,1.604 1.126,2.195 3.202,3.493 3.723,7.441 2.969,12.042 -0.828,5.055 1.16,7.075 6.212,7.406 1.163,0.076 2.333,0.1 3.498,0.067 1.815,-0.052 2.57,0.733 2.89,2.587 1.166,6.769 -1.851,12.658 -8.19,15.079 -10.707,4.089 -21.416,8.187 -32.216,12.019 -12.423,4.408 -20.452,13.082 -25.781,24.872 -12.963,28.681 -22.742,58.449 -30.611,88.866 -2.697,10.426 -4.928,21.007 3.679,30.153 0.111,0.118 0.167,0.288 0.256,0.428 0.915,1.427 0.962,2.754 -1.099,2.675 -4.751,-0.182 -5.546,2.968 -6.422,6.626 -8.285,34.573 -15.27,69.429 -22.759,104.17 -1.19,5.52 -2.202,11.078 -3.254,16.626 -0.396,2.088 -1.376,4.07 -3.321,4.57 -1.568,0.404 -2.275,-1.718 -3.044,-2.912 -4.777,-7.42 -9.184,-15.04 -11.544,-23.644 -11.902,-43.394 -24.879,-86.455 -39.864,-128.9 -7.074,-20.037 -13.674,-40.248 -23.006,-59.417 -3.272,-6.72 -8.184,-11.599 -14.771,-14.999 -7.879,-4.067 -16.203,-6.893 -24.787,-8.922 -2.654,-0.627 -4.368,-1.997 -6.028,-3.991 -3.115,-3.744 -3.372,-7.896 -2.041,-12.228 2.919,-9.502 3.159,-18.998 0.831,-28.68 -1.612,-6.705 -2.988,-13.463 -4.096,-20.27 -3.362,-20.662 -9.414,-40.484 -18.13,-59.489003 -6.956,-15.168 -17.326,-26.341 -34.693,-29.163 -2.789,-0.453 -5.635,-0.724 -8.339,-1.488 -6.772,-1.914 -12.63,-0.334 -18.409,3.483 -7.943,5.248 -15.538,10.859 -22.549,17.318 -6.869,6.329 -10.611,14.027 -10.88,23.294003 -0.629,21.649 -1.968,43.296 -0.993,64.959 0.359,7.984 1.149,15.945 0.976,23.954 -0.327,15.165 -5.214,22.029 -19.355,27.39 -6.55,2.483 -13.485,3.607 -20.078,5.851 -14.516,4.941 -24.714,13.601 -26.819,30.036 -1.818,14.19 -3.672,28.368 -5.19,42.595 -2.261,21.193 -4.226,42.417 -5.539,63.683 -1.664,26.956 -1.814,53.967 -2.168,80.969 -0.154,11.777 -1.4,23.507 -3.495,35.097 -3.342,18.486 -4.475,37.078 -3.433,55.816 0.306,5.506 1.865,10.302 6.589,13.888 7.443,5.651 7.972,7.338 4.423,16.039 -2.451,6.008 -3.532,12.024 -3.059,18.467 0.343,4.683 -0.008,9.515 -2.529,13.547 -5.168,8.268 -11.724,15.35 -20.024,20.62 -5.492,3.488 -11.016,3.291 -16.326,-0.5 -1.894,-1.352 -3.923,-2.635 -5.472,-4.332 -8.405,-9.213 -18.866,-13.07 -31.204,-13.069 -8.076,10e-4 -13.724,-4.646 -17.487,-11.472 -4.444,-8.061 -1.945,-15.105 6.609,-18.298 4.94,-1.844 7.498,-5.151 8.429,-10.138 2.548,-13.647 3.487,-27.419 2.909,-41.266 -0.264,-6.314 -2.613,-11.993 -7.08,-16.629 -10.561,-10.958 -22.499,-19.244 -37.621,-23.343 -7.945,-2.154 -14.077995,-0.05 -20.507995,3.03 -0.862,0.413 -1.694,0.889 -2.485,1.425 -9.896,6.713 -18.384,15.046 -26.786,23.432 -5.849,5.838 -8.09,13.207 -7.676,21.432 0.219,4.347 1.146,8.548 2.167,12.76 4.099,16.915 8.943,33.322 26.579,41.569 0.179,0.084 0.354,0.192 0.503,0.322 3.618,3.126 4.81,7.172 3.96,11.622 -0.726,3.799 -4.558,3.265 -7.17,4.384 -0.447,0.192 -0.974,0.204 -1.468,0.275 -6.694,0.973 -12.918,2.955 -18.057,7.682 -2.633,2.422 -6.041,3.589 -9.491,4.149 -6.285,1.021 -9.817,4.7 -12.108,10.472 -6.248,15.741 -12.943,31.292 -20.754,46.348 -2.363,4.555 -4.101,9.435 -6.098,14.177 -1.9320001,4.589 -1.6410001,9.106 0.674,13.467 4.803,9.052 10.803,17.165 18.723,23.778 6.106,5.099 12.681,8.239 21.036,6.968 5.356,-0.815 6.392,0.415 6.734,5.904 0.197,3.156 0.181,6.331 0.136,9.496 -0.234,16.494 -0.047,32.995 -0.919,49.477 -1.718,32.478 4.191,64.377 7.388,96.48 0.914,9.182 1.373,18.245 -2.819,26.907 -4.221,8.721 -4.38,17.968 -3.141,27.353 1.315,9.955 5.204,19.214 7.781,28.827 3.098,11.556 6.983,22.983 4.671,35.24104 -0.42,2.228 0.637,4.198 0.969,6.294 H 188.16914 c 2.785,0 7.242,1.585 7.998,-2.795 0.17,-0.984 0.053,-2.002 -0.225,-2.961 -1.078,-3.725 -1.558,-5.849 -4.134,-8.60304 -4.65,-4.972 -9.788,-9.851 -16.875,-10.019 -12.55,-0.298 -23.336,-15.953 -19.113,-27.711 0.878,-2.444 2.333,-4.379 4.937,-5.265 2.197,-0.747 4.35,-1.625 6.536,-2.404 4.245,-1.512 6.128,-4.302 6.318,-9.003 2.397,-59.268 2.18,-118.58 3.04,-177.87 0.418,-28.813 1.232,-57.621 1.919,-86.43 0.169,-7.088 1.487,-8.08 8.081,-10.755 22.79,-9.242 43.725,-21.136 57.899,-42.265 2.499,-3.726 5.315,-7.241 8.017,-10.828 1.727,-2.292 4.025,-3.191 6.933,-3.204 7.93,-0.037 10.181,2.195 9.033,9.945 -2.097,14.15 -6.474,27.797 -9.469,41.753 -2.06,9.596 -4.06,19.199 -4.489,29.043 -0.126,2.889 -0.684,5.808 -2.327,8.054 -5.631,7.698 -5.702,16.477 -5.388,25.334 0.415,11.711 0.5,11.708 15.077,12.029 11.338,0.69 25.629,1.586 39.924,2.404 2.314,0.132 4.648,-0.149 6.972,-0.129 4.661,0.04 5.68,1.098 5.114,5.695 -1.138,9.24 -2.217,18.495 -3.662,27.69 -2.643,16.813 -1.399,33.554 0.687,50.264 1.939,15.53 3.314,31.109 4.477,46.705 1.646,22.071 3.489,44.132 7.632,65.885 2.913,15.296 2.621,29.751 -6.969,42.879 -5.815,7.961 -6.219,17.852 -6.059,27.40104 0.049,2.943 2.466,5.294 5.409,5.28 11.552,-0.057 23.104,-0.11 34.657,-0.111 11.009,0 22.017,0 33.026,-0.01 1.857,0 3.713,-10e-4 5.57,-10e-4 h 52.864 c 5.693,0 9.258,0.303 10.88,-6.021 0.937,-3.653 0.532,-7.70004 -1.224,-11.05004 -2.344,-4.47 -6.079,-2.759 -9.725,-5.119 -2.949,-1.908 -4.906,-4.808 -6.037,-8.1 -3.854,-11.212 -4.726,-22.589 -2.515,-34.375 6.954,-37.066 15.402,-73.819 23.135,-110.72 5.414,-25.832 5.703,-51.479 1.694,-77.373 -0.941,-6.08 -1.365,-12.267 -2.738,-18.242 -0.809,-3.521 0.411,-4.295 3.309,-4.774 10.164,-1.683 20.338,-3.333 30.458,-5.256 10.441,-1.983 20.874,-4.086 30.873,-7.834 7.512,-2.816 10.204,-6.192 9.906,-14.23 -0.558,-15.045 -4.126,-29.58 -8.673,-43.862 -18.479,-58.042 -37.355,-115.96 -56.851,-173.66 -3.804,-11.261 -5.921,-22.318 -3.152,-34.184 1.387,-5.943 -0.87,-11.862 -2.803,-17.533 -7.295,-21.405 -13.634,-43.066 -17.14,-65.448 -2.823,-18.022 -4.227,-36.064 1.333,-53.894 0.292,-0.936 -0.531,-2.702 1.181,-2.685 1.156,0.011 0.891,1.573 1.183,2.468 6.951,21.3 13.832,42.623 20.854,63.9 6.033,18.282 12.21,36.514 18.942,54.558 3.201,8.58 7.642,16.321 14.412,22.461 11.791,10.694 19.326,24.002 24.625,38.756 3.154,8.782 6.776,17.325 11.939,25.148 5.367,8.131 5.68,17.55 6.881,26.767 1.209,9.274 7.742,13.018 16.412,9.475 5.894,-2.408 11.418,-5.441 15.668,-10.373 2.987,-3.465 6.979,-5.609 10.69,-8.137 5.394,-3.674 6.154,-6.034 4.448,-12.237 -0.571,-2.073 -1.146,-4.196 -1.295,-6.326 -0.561,-8.042 -3.125,-15.154 -8.409,-21.408 -3.687,-4.365 -4.32,-9.964 -4.733,-15.495 -0.852,-11.391 0.009,-22.705 7.458,-31.791 21.878,-26.684 31.886,-58.692 41.922,-90.765 3.965,-12.671 8.051,-25.305 12.167,-37.928 0.867,-2.659 1.64,-5.454 4.098,-7.266 0.925,-0.682 1.816,-1.925 2.959,-1.548 1.708,0.563 0.644,2.272 0.86,3.463 0.117,0.645 0.021,1.328 0.021,0.861 -0.485,5.671 1.496,9.827 2.122,14.217 2.025,14.199 0.661,28.283 -0.573,42.367 -1.449,16.536 -0.46,32.91 1.851,49.291 3.021,21.415 6.362,42.808 7.126,64.467 0.508,14.4 -1.704,28.577 -4.825,42.549 -5.485,24.552 -4.014,48.951 0.748,73.331 4.634,23.727 7.103,47.686 8.539,71.795 1.337,22.44 3.1,44.854 4.582,67.286 1.514,22.931 2.88,45.872 4.376,68.804 0.953,14.611 1.893,29.224 3.128,43.812 0.338,3.994 3.916,6.884 4.491,11.134 0.91,6.733 2.534,13.375 3.995,20.025 0.97,4.414 -0.819,7.022 -4.891,8.441 -1.724,0.601 -3.424,1.28 -5.106,1.99 -4.109,1.734 -5.554,5.021 -5.22,9.253 0.118,1.49 0.19,3.046 0.675,4.435 1.722,4.928 2.676,9.492 -1.138,13.028 -2.046,1.897 -4.707,5.432 -5.732,8.026 -1.586,4.016 -2.985,8.106 -4.579,12.118 -2.357,5.937 -6.82,9.592 -13.099,10.159 -11.127,1.004 -19.666,10.553 -20.175,21.8 -0.439,9.683 8.964,17.446 18.199,17.446 h 74.547 c 6.558,0 11.875,-5.317 11.875,-11.875 v -12.27 c 0,-3 -1.116,-5.807 -2.682,-8.367 -0.855,-1.397 -0.691,-3.38 0.284,-6.251 1.777,-5.233 4.817,-9.846 7.518,-14.601 4.629,-8.149 6.906,-16.739 6.907,-26.171 0.006,-43.502 -2.008,-86.963 -2.46,-130.45 -0.106,-10.165 -0.198,-20.319 0.027,-30.488 0.201,-9.066 2.273,-17.556 6.877,-25.204 8.008,-13.304 10.626,-27.689 10.565,-42.98 -0.091,-22.836 -0.683,-45.649 -1.79,-68.453 -0.2,-4.113 4.724,-8.584 8.823,-8.059 1.274,0.163 1.468,1.037 1.787,2.01 12.059,36.739 24.154,73.466 36.203,110.21 3.516,10.723 6.571,21.61 10.43,32.206 6.479,17.789 5.559,35.577 1.103,53.515 -5.415,21.803 -5.215,43.856 -3.031,66.018 1.319,13.381 2.578,26.752 1.158,40.237 -0.901,8.555 1.228,17.151 5.896,24.376 2.7,4.179 5.448,8.337 7.928,12.65 1.661,2.89 0.308,5.427 -0.358,8.384 -0.734,3.259 -1.152,6.588 -1.258,9.927 -0.31,9.781 0.77,24.89 13.572,24.89 h 51.499 c 7.145,0 13.006,-5.765 13,-12.91 -0.005,-5.708 0.461,-11.569 -0.31,-17.244 -0.9,-6.623 -4.758,-10.66 -7.301,-16.489 -1.934,-4.432 -3.315,-9.027 -4.487,-13.7 -1.039,-4.141 -2.878,-7.775 -6.445,-10.357 -3.165,-2.291 -4.17,-5.44 -3.574,-9.223 1.943,-12.327 3.612,-24.631 3.196,-37.212 -1.046,-31.633 -2.057,-63.266 -3.771,-94.872 -1.091,-20.121 -1.974,-40.258 -3.402,-60.355 -1.569,-22.08 -3.59,-44.13 -5.536,-66.182 -1.697,-19.231 -3.586,-38.446 -5.345,-57.672 -0.804,-8.784 -1.296,-17.602 -2.301,-26.362 -1.19,-10.375 0.159,-20.613 1.078,-30.882 0.264,-2.946 5.167,-7.383 8.063,-7.725 1.42,-0.168 2.185,0.633 2.825,1.635 1.342,2.1 2.91,4.117 3.877,6.384 3.613,8.476 11.003,10.995 19.102,12.495 0.634,0.117 1.554,0.276 1.931,-0.053 4.416,-3.858 6.357,0.073 9.143,2.531 12.811,11.303 27.824,13.928 41.097,5.051 3.722,-2.489 6.344,-5.852 8.536,-9.616 4.266,-7.325 8.38,-14.74 12.699,-22.033 3.42,-5.775 4.704,-5.622 8.052,0.4 4.216,7.583 4.249,15.987 4.761,24.252 1.206,19.475 -2.86,38.393 -6.292,57.386 -7.237,40.045 -20.579,78.362 -32.906,116.97 -2.705,8.471 -3.849,17.335 -3.766,26.227 0.093,9.983 -1.542,19.639 -5.869,28.768 -2.511,5.297 -3.055,10.849 -2.048,16.575 0.901,5.127 3.153,7.254 8.386,7.307 6.658,0.072 13.324,-0.13 19.984,-0.335 z m 126.63996,-251.88 c 0.057,-0.155 0.063,-0.327 0.112,-0.486 1.05,-3.466 2.92,-7.519 6.18,-7.664 2.084,-0.093 1.898,4.999 2.406,7.758 1.09,5.92 0.505,11.959 0.529,17.961 -0.283,5.988 -0.551,11.977 -0.871,17.963 -0.032,0.605 -0.38,1.193 -0.581,1.79 -0.316,-0.344 -0.7,-0.646 -0.936,-1.037 -6.777,-11.245 -11.839,-22.819 -6.839,-36.285 z m -959.71996,426.88 c -0.353,2.795 -1.644,3.817 -4.332,3.231 -4.885,-1.065 -9.237,-2.942 -11.265,-7.976 -1.907,-4.734 -0.479,-8.759 2.926,-12.271 2.201,-2.27 4.364,-4.579 6.616,-6.797 0.897,-0.884 1.64,-2.335 3.256,-1.834 1.805,0.56 1.654,2.315 1.938,3.731 0.792,3.95 0.451,7.965 0.6,11.951 -0.01,3.323 0.686,6.604 0.261,9.965 z m 160.17,-538.53 c -6.028,12.646 -5.052,26.291 -3.272,39.747 1.698,12.833 0.892,25.607 -0.458,38.361 -1.189,11.237 -2.585,22.463 -4.807,33.559 -1.097,5.479 -2.53,5.954 -7.167,2.607 -2.545,-1.837 -3.91,-4.396 -5.029,-7.248 -5.356,-13.651 -6.479,-27.617 -4.327,-42.121 4.441,-29.925 8.351,-59.928 12.691,-89.868 3.29,-22.696 5.928,-45.49 10.018,-68.067 0.326,-1.797 0.014,-4.712 2.349,-4.941 2.493,-0.245 3.884,1.997 4.732,4.4 2.119,6.004 3.459,12.184 3.701,18.509 0.273,7.149 0.063,14.317 0.063,21.477 0.707,18.388 -0.342,36.481 -8.494,53.585 z m 120.51,502.92 c -0.567,6.992 -1.926,13.782 -4.968,20.205 -4.219,8.91 -9.585,17.093 -15.249,25.116 -1.465,2.075 -2.804,2.425 -5.398,1.561 -11.553,-3.848 -17.087,-12.067 -19.347,-23.669 -4.911,-25.203 -5.394,-50.458 -3.599,-76.026 2.089,-29.752 7.92,-59.025 10.227,-88.706 1.226,-15.776 0.694,-31.632 -0.074,-47.445 -0.323,-6.65 -0.743,-13.3 -1.365,-19.928 -0.249,-2.659 0.55,-3.383 3.16,-3.581 9.288,-0.704 18.575,-1.531 27.818,-2.668 3.047,-0.375 3.984,0.718 4.844,3.31 3.738,11.262 2.175,24.754 1.21,36.37 -0.59,7.107 -1.239,14.213 -1.769,21.326 -0.451,6.047 -0.818,12.1 -0.992,18.164 -0.436,15.132 -0.391,30.681 3.897,45.346 1.546,5.287 2.45,10.71 2.554,16.214 0.467,24.814 1.061,49.631 -0.949,74.411 z m 470.76,-450.04 c -2.691,4.772 -5.129,5.106 -9.672,1.761 -2.611,-1.922 -4.444,-4.448 -6.055,-7.206 -5.049,-8.64 -7.238,-18.106 -8.452,-27.927 -2.346,-18.978 -5.464,-37.881 -7.153,-56.913 -1.633,-18.398 -1.873,-36.92 -2.724,-55.387 -0.063,-0.002 -0.126,-0.005 -0.188,-0.007 0,-5.828 0.012,-11.656 -0.005,-17.483 -0.01,-3.419 1.395,-3.643 3.852,-1.798 4.725,3.548 8.262,7.663 7.798,14.14 -0.962,13.436 2.85,25.777 7.636,38.237 8.056,20.972 13.007,42.874 16.252,65.124 1.562,10.71 2.841,21.445 2.993,32.292 0.076,5.509 -1.643,10.488 -4.282,15.167 z"
     id="path2"
     style="fill:#5f0f40;fill-opacity:1" />
</svg>
