<?xml version="1.0" encoding="UTF-8" standalone="no"?>
<svg
   xmlns:dc="http://purl.org/dc/elements/1.1/"
   xmlns:cc="http://creativecommons.org/ns#"
   xmlns:rdf="http://www.w3.org/1999/02/22-rdf-syntax-ns#"
   xmlns:svg="http://www.w3.org/2000/svg"
   xmlns="http://www.w3.org/2000/svg"
   xmlns:sodipodi="http://sodipodi.sourceforge.net/DTD/sodipodi-0.dtd"
   xmlns:inkscape="http://www.inkscape.org/namespaces/inkscape"
   height="346.73825"
   width="483.91293"
   inkscape:version="1.0 (4035a4fb49, 2020-05-01)"
   sodipodi:docname="parolas.svg"
   id="svg46"
   version="1.1"
   viewBox="0 0 483.91295 346.73825">
  <metadata
     id="metadata52">
    <rdf:RDF>
      <cc:Work
         rdf:about="">
        <dc:format>image/svg+xml</dc:format>
        <dc:type
           rdf:resource="http://purl.org/dc/dcmitype/StillImage" />
        <dc:title></dc:title>
      </cc:Work>
    </rdf:RDF>
  </metadata>
  <defs
     id="defs50" />
  <sodipodi:namedview
     fit-margin-bottom="5"
     fit-margin-right="5"
     fit-margin-left="5"
     lock-margins="true"
     fit-margin-top="5"
     inkscape:current-layer="svg46"
     inkscape:window-maximized="1"
     inkscape:window-y="0"
     inkscape:window-x="0"
     inkscape:cy="268.0071"
     inkscape:cx="249.60254"
     inkscape:zoom="1.3132382"
     showgrid="false"
     id="namedview48"
     inkscape:window-height="1016"
     inkscape:window-width="1920"
     inkscape:pageshadow="2"
     inkscape:pageopacity="0"
     guidetolerance="10"
     gridtolerance="10"
     objecttolerance="10"
     borderopacity="1"
     bordercolor="#666666"
     pagecolor="#ffffff" />
  <path
     d="m 74.659064,261.15267 c -5.9434,-12.357 -25.31,-34.028 -42.967,-14.838 -17.657,19.19 7.6236,65.768 27.213,65.575 19.589,-0.19318 21.698,-38.38 15.755,-50.737 z"
     id="path2"
     style="fill:#e36414;fill-opacity:1;stroke:#ffffff;stroke-width:3;stroke-miterlimit:4;stroke-dasharray:none;stroke-opacity:1" />
  <path
     d="m 57.543064,282.17267 c -11.412,-4.9409 -23.156,2.9525 -31.513,14.056 -10.288,1.4588 -23.4600003,7.1459 -18.4390003,17.017 7.7238003,12.496 17.0880003,-1.5546 25.9940003,-3.3498 -3.343,6.4141 -8.9881,17.916 -0.35161,22.262 8.6365,4.3456 12.526,-9.0381 17.914,-13.404 -0.28447,5.5438 -3.8333,23.245 13.609,21.344 12.971,-2.7103 8.6399,-16.842 3.1116,-23.532 -2.5361,-3.7556 -8.3783,-9.8307 -7.2666,-13.024 4.3008,-9.9232 8.3526,-16.427 -3.0596,-21.368 z"
     stroke-linecap="round"
     stroke-linejoin="round"
     id="path4"
     style="fill:#e36414;fill-opacity:1;stroke:#ffffff;stroke-width:3;stroke-miterlimit:4;stroke-dasharray:none;stroke-opacity:1" />
  <path
     d="m 230.53506,261.15267 c 5.9434,-12.357 25.31,-34.028 42.967,-14.838 17.657,19.19 -7.6236,65.768 -27.213,65.575 -19.589,-0.19318 -21.698,-38.38 -15.755,-50.737 z"
     id="path6"
     style="fill:#e36414;fill-opacity:1;stroke:#ffffff;stroke-width:3;stroke-miterlimit:4;stroke-dasharray:none;stroke-opacity:1" />
  <path
     d="m 246.06506,282.17267 c 11.412,-4.9409 23.156,2.9525 31.513,14.056 10.288,1.4588 23.46,7.1459 18.439,17.017 -7.7238,12.496 -17.088,-1.5546 -25.994,-3.3498 3.343,6.4141 8.9881,17.916 0.35159,22.262 -8.6364,4.3456 -12.526,-9.0381 -17.914,-13.404 0.28447,5.5438 3.8333,23.245 -13.609,21.344 -12.971,-2.7103 -8.6399,-16.842 -3.1116,-23.532 2.5361,-3.7556 8.3784,-9.8307 7.2666,-13.024 -4.3008,-9.9232 -8.3526,-16.427 3.0596,-21.368 z"
     stroke-linecap="round"
     stroke-linejoin="round"
     id="path8"
     style="fill:#e36414;fill-opacity:1;stroke:#ffffff;stroke-width:3;stroke-miterlimit:4;stroke-dasharray:none;stroke-opacity:1" />
  <path
     id="path12"
     fill="#bcd35f"
     d="m 67.494064,235.55267 c -7.2902,6.9628 -26.118,21.097 -17.5,45.357 8.6184,24.26 63.390996,47.29 100.709996,48.929 37.323,1.6386 92.438,-22.358 100.71,-48.929 8.2763,-26.571 -14.917,-32.71 -27.143,-40.714 -30.083,-17.29 -128.419996,-23.034 -156.789996,-4.6428 z"
     style="fill:#e36414;fill-opacity:1;stroke:#ffffff;stroke-width:3;stroke-miterlimit:4;stroke-dasharray:none;stroke-opacity:1" />
  <path
     id="path20"
     stroke-width="5"
     stroke-linejoin="round"
     fill="#ff80b2"
     d="m 197.45506,251.97267 c 0,0 -1.6117,29.478 13.547,30.522 24.688,-9.186 7.076,-40.016 7.076,-40.016 -7.4368,0.53873 -9.374,-8.2542 -20.623,9.4937 z"
     style="fill:#e36414;fill-opacity:1;stroke:#ffffff;stroke-linecap:round;stroke-opacity:1" />
  <path
     id="path22"
     stroke-width="2.5"
     fill="none"
     d="m 205.35506,250.55267 c 2.2971,1.2503 4.5961,2.4572 6.4286,13.929"
     style="stroke:#ffffff;stroke-linecap:round;stroke-opacity:1" />
  <path
     id="path26"
     stroke-width="10"
     d="m 81.065064,152.69267 c -19.534,13.762 -49.999,17.938 -44.286,49.286 5.7134,31.347 72.128996,53.915 114.999996,54.643 42.871,0.72815 109.73,-23.166 117.86,-54.643 8.1243,-31.477 -18.91,-34.538 -38.571,-49.286 -19.662,-14.748 -52.316,-31.046 -79.286,-30.357 -26.97,0.68892 -51.18,16.595 -70.713996,30.357 z"
     style="fill:#e36414;fill-opacity:1;stroke:#ffffff;stroke-width:3;stroke-miterlimit:4;stroke-dasharray:none;stroke-opacity:1" />
  <g
     transform="translate(1.5350637,49.832672)"
     style="opacity:1;fill:#ffffff;fill-opacity:1"
     id="g923">
    <path
       id="path925"
       d="m 153.56,61.041 c 0,30.405 -18.204,55.053 -40.659,55.053 -22.455,0 -40.659,-24.648 -40.659,-55.053 0,-30.405 18.204,-55.053 40.659,-55.053 22.455,0 40.659,24.648 40.659,55.053 z"
       style="color:#000000;font-style:normal;font-variant:normal;font-weight:normal;font-stretch:normal;font-size:medium;line-height:normal;font-family:sans-serif;font-variant-ligatures:normal;font-variant-position:normal;font-variant-caps:normal;font-variant-numeric:normal;font-variant-alternates:normal;font-variant-east-asian:normal;font-feature-settings:normal;font-variation-settings:normal;text-indent:0;text-align:start;text-decoration:none;text-decoration-line:none;text-decoration-style:solid;text-decoration-color:#000000;letter-spacing:normal;word-spacing:normal;text-transform:none;writing-mode:lr-tb;direction:ltr;text-orientation:mixed;dominant-baseline:auto;baseline-shift:baseline;text-anchor:start;white-space:normal;shape-padding:0;shape-margin:0;inline-size:0;clip-rule:nonzero;display:inline;overflow:visible;visibility:visible;isolation:auto;mix-blend-mode:normal;color-interpolation:sRGB;color-interpolation-filters:linearRGB;solid-color:#000000;solid-opacity:1;vector-effect:none;fill:#ffffff;fill-opacity:1;fill-rule:nonzero;stroke:none;stroke-width:8.378;stroke-linecap:round;stroke-linejoin:round;stroke-miterlimit:4;stroke-dasharray:none;stroke-dashoffset:0;stroke-opacity:1;color-rendering:auto;image-rendering:auto;shape-rendering:auto;text-rendering:auto;enable-background:accumulate;stop-color:#000000;stop-opacity:1" />
    <path
       id="path927"
       d="m 112.90039,1.7988281 c -12.7602,0 -24.156344,7.0425256 -32.11914,17.8242189 -7.962796,10.781693 -12.728516,25.37946 -12.728516,41.417969 0,16.038509 4.76572,30.636275 12.728516,41.417964 7.962796,10.7817 19.35894,17.82422 32.11914,17.82422 12.7602,0 24.1583,-7.04252 32.12109,-17.82422 7.9628,-10.781689 12.72657,-25.379455 12.72657,-41.417964 0,-16.038509 -4.76377,-30.636276 -12.72657,-41.417969 C 137.05869,8.8413537 125.66059,1.7988281 112.90039,1.7988281 Z m 0,8.3789059 c 9.6948,0 18.62791,5.280272 25.38086,14.423828 6.75295,9.143557 11.08984,22.072963 11.08984,36.439454 0,14.366491 -4.33689,27.295896 -11.08984,36.439453 -6.75295,9.143561 -15.68606,14.423831 -25.38086,14.423831 -9.6948,0 -18.627905,-5.28027 -25.380859,-14.423831 -6.752954,-9.143557 -11.08789,-22.072962 -11.08789,-36.439453 0,-14.366491 4.334936,-27.295897 11.08789,-36.439454 6.752954,-9.143556 15.686059,-14.423828 25.380859,-14.423828 z"
       style="color:#000000;font-style:normal;font-variant:normal;font-weight:normal;font-stretch:normal;font-size:medium;line-height:normal;font-family:sans-serif;font-variant-ligatures:normal;font-variant-position:normal;font-variant-caps:normal;font-variant-numeric:normal;font-variant-alternates:normal;font-variant-east-asian:normal;font-feature-settings:normal;font-variation-settings:normal;text-indent:0;text-align:start;text-decoration:none;text-decoration-line:none;text-decoration-style:solid;text-decoration-color:#000000;letter-spacing:normal;word-spacing:normal;text-transform:none;writing-mode:lr-tb;direction:ltr;text-orientation:mixed;dominant-baseline:auto;baseline-shift:baseline;text-anchor:start;white-space:normal;shape-padding:0;shape-margin:0;inline-size:0;clip-rule:nonzero;display:inline;overflow:visible;visibility:visible;isolation:auto;mix-blend-mode:normal;color-interpolation:sRGB;color-interpolation-filters:linearRGB;solid-color:#000000;solid-opacity:1;vector-effect:none;fill:#e36414;fill-opacity:1;fill-rule:nonzero;stroke:none;stroke-width:8.378;stroke-linecap:round;stroke-linejoin:round;stroke-miterlimit:4;stroke-dasharray:none;stroke-dashoffset:0;stroke-opacity:1;color-rendering:auto;image-rendering:auto;shape-rendering:auto;text-rendering:auto;enable-background:accumulate;stop-color:#000000;stop-opacity:1" />
  </g>
  <path
     style="color:#000000;font-style:normal;font-variant:normal;font-weight:normal;font-stretch:normal;font-size:medium;line-height:normal;font-family:sans-serif;font-variant-ligatures:normal;font-variant-position:normal;font-variant-caps:normal;font-variant-numeric:normal;font-variant-alternates:normal;font-variant-east-asian:normal;font-feature-settings:normal;font-variation-settings:normal;text-indent:0;text-align:start;text-decoration:none;text-decoration-line:none;text-decoration-style:solid;text-decoration-color:#000000;letter-spacing:normal;word-spacing:normal;text-transform:none;writing-mode:lr-tb;direction:ltr;text-orientation:mixed;dominant-baseline:auto;baseline-shift:baseline;text-anchor:start;white-space:normal;shape-padding:0;shape-margin:0;inline-size:0;clip-rule:nonzero;display:inline;overflow:visible;visibility:visible;isolation:auto;mix-blend-mode:normal;color-interpolation:sRGB;color-interpolation-filters:linearRGB;solid-color:#000000;solid-opacity:1;vector-effect:none;fill:#e36414;fill-opacity:1;fill-rule:evenodd;stroke:none;stroke-width:0.9;stroke-linecap:round;stroke-linejoin:round;stroke-miterlimit:4;stroke-dasharray:none;stroke-dashoffset:0;stroke-opacity:1;color-rendering:auto;image-rendering:auto;shape-rendering:auto;text-rendering:auto;enable-background:accumulate;stop-color:#000000"
     d="m 196.00967,75.965484 c -24.54502,0 -44.01953,21.745476 -44.01953,47.808596 0,26.06311 19.47451,47.80664 44.01953,47.80664 24.54502,0 44.01953,-21.74353 44.01953,-47.80664 0,-26.06312 -19.47451,-47.808595 -44.01953,-47.808596 z"
     id="path921" />
  <path
     style="color:#000000;font-style:normal;font-variant:normal;font-weight:normal;font-stretch:normal;font-size:medium;line-height:normal;font-family:sans-serif;font-variant-ligatures:normal;font-variant-position:normal;font-variant-caps:normal;font-variant-numeric:normal;font-variant-alternates:normal;font-variant-east-asian:normal;font-feature-settings:normal;font-variation-settings:normal;text-indent:0;text-align:start;text-decoration:none;text-decoration-line:none;text-decoration-style:solid;text-decoration-color:#000000;letter-spacing:normal;word-spacing:normal;text-transform:none;writing-mode:lr-tb;direction:ltr;text-orientation:mixed;dominant-baseline:auto;baseline-shift:baseline;text-anchor:start;white-space:normal;shape-padding:0;shape-margin:0;inline-size:0;clip-rule:nonzero;display:inline;overflow:visible;visibility:visible;isolation:auto;mix-blend-mode:normal;color-interpolation:sRGB;color-interpolation-filters:linearRGB;solid-color:#000000;solid-opacity:1;vector-effect:none;fill:#ffffff;fill-opacity:1;fill-rule:evenodd;stroke:none;stroke-width:0.9;stroke-linecap:round;stroke-linejoin:round;stroke-miterlimit:4;stroke-dasharray:none;stroke-dashoffset:0;stroke-opacity:1;color-rendering:auto;image-rendering:auto;shape-rendering:auto;text-rendering:auto;enable-background:accumulate;stop-color:#000000"
     d="m 196.00967,87.233063 c 17.85498,0 32.75195,16.020137 32.75195,36.541017 0,20.52088 -14.89697,36.54101 -32.75195,36.54101 -17.85498,0 -32.75391,-16.02013 -32.75391,-36.54101 0,-20.52088 14.89893,-36.541017 32.75391,-36.541017 z"
     id="path944" />
  <path
     d="m 98.319064,90.625672 c -8.2336,4.9864 -10.864,15.694998 -5.8776,23.928998 4.9864,8.2336 15.694996,10.864 23.928996,5.8776 7.4169,-4.4918 10.255,-13.622 7.1064,-21.409998 0.0882,3.246998 -1.5911,6.500798 -4.6725,8.366998 -4.482,2.7143 -10.258,1.4301 -12.849,-2.8481 -2.591,-4.2783 -1.0312,-9.955598 3.4508,-12.669998 2.241,-1.3572 4.7779,-1.6948 7.0954,-1.1824 -5.389,-3.3236 -12.395,-3.5682 -18.181996,-0.0629 v -4.6e-5 z"
     id="path36"
     style="fill:#e36414;fill-opacity:1;stroke:none" />
  <path
     d="m 145.50506,183.85267 c 0,5.9973 -3.0528,10.859 -6.8185,10.859 -3.7658,0 -6.8185,-4.8618 -6.8185,-10.859 0,-5.9973 3.0528,-10.859 6.8185,-10.859 3.7658,0 6.8185,4.8618 6.8185,10.859 z"
     id="path38"
     style="fill:#ffffff;fill-opacity:1;stroke:none" />
  <path
     d="m 167.97506,183.10267 c 0,5.9973 -3.0528,10.859 -6.8185,10.859 -3.7658,0 -6.8185,-4.8618 -6.8185,-10.859 0,-5.9973 3.0528,-10.859 6.8185,-10.859 3.7658,0 6.8185,4.8618 6.8185,10.859 z"
     id="path40"
     style="fill:#ffffff;fill-opacity:1;stroke:none" />
  <path
     d="m 190.04506,106.63767 c 6.0843,3.6848 8.0281,11.598 4.3433,17.682 -3.6848,6.0844 -11.598,8.0281 -17.682,4.3433 -5.4808,-3.3192 -7.5777,-10.066 -5.2514,-15.821 -0.0653,2.3995 1.1758,4.8039 3.4528,6.1829 3.312,2.0058 7.5801,1.0568 9.4948,-2.1047 1.9146,-3.1615 0.76198,-7.3568 -2.55,-9.3626 -1.656,-1.0029 -3.5307,-1.2524 -5.2433,-0.87373 3.9822,-2.456 9.1592,-2.6367 13.436,-0.0466 v 9e-5 z"
     id="path42"
     style="fill:#e36414;fill-opacity:1;stroke:none" />
  <path
     style="fill:#e36414;fill-opacity:1;stroke-width:2.83808"
     id="path2-3"
     d="M 372.47656,5 C 313.69433,5 266.0402,36.968087 266.0402,76.423017 c 0,21.26854 13.864,40.351763 35.83922,53.435293 -4.67715,8.66748 -13.92076,19.72746 -33.0352,34.72101 -3.12188,2.44642 -7.0214,5.98834 5.60236,3.46529 21.13799,-4.22873 43.69502,-15.00774 60.89092,-24.67138 11.56516,2.89199 24.07256,4.47564 37.1419,4.47564 58.77939,0 106.43352,-31.96809 106.43352,-71.423015 C 478.91292,36.970925 431.25595,5 372.47656,5 Z" />
</svg>
