<?xml version="1.0" encoding="UTF-8" standalone="no"?>
<svg
   xmlns:dc="http://purl.org/dc/elements/1.1/"
   xmlns:cc="http://creativecommons.org/ns#"
   xmlns:rdf="http://www.w3.org/1999/02/22-rdf-syntax-ns#"
   xmlns:svg="http://www.w3.org/2000/svg"
   xmlns="http://www.w3.org/2000/svg"
   xmlns:sodipodi="http://sodipodi.sourceforge.net/DTD/sodipodi-0.dtd"
   xmlns:inkscape="http://www.inkscape.org/namespaces/inkscape"
   inkscape:version="1.0 (4035a4fb49, 2020-05-01)"
   height="305.5"
   width="344.5"
   sodipodi:docname="perdiÄis.svg"
   id="svg8"
   version="1.1"
   viewBox="0 0 344.5 305.5">
  <metadata
     id="metadata14">
    <rdf:RDF>
      <cc:Work
         rdf:about="">
        <dc:format>image/svg+xml</dc:format>
        <dc:type
           rdf:resource="http://purl.org/dc/dcmitype/StillImage" />
        <dc:title></dc:title>
      </cc:Work>
    </rdf:RDF>
  </metadata>
  <defs
     id="defs12" />
  <sodipodi:namedview
     inkscape:current-layer="svg8"
     inkscape:window-maximized="1"
     inkscape:window-y="0"
     inkscape:window-x="0"
     inkscape:cy="175"
     inkscape:cx="196.75"
     inkscape:zoom="1.3216896"
     fit-margin-bottom="5"
     fit-margin-right="5"
     fit-margin-left="5"
     lock-margins="true"
     fit-margin-top="5"
     showgrid="false"
     id="namedview10"
     inkscape:window-height="704"
     inkscape:window-width="1366"
     inkscape:pageshadow="2"
     inkscape:pageopacity="0"
     guidetolerance="10"
     gridtolerance="10"
     objecttolerance="10"
     borderopacity="1"
     bordercolor="#666666"
     pagecolor="#ffffff" />
  <path
     d="m 73.25,172.5 1.75,-2 1.25,9 q 1.25,9 2.75,30 1.5,21 0.5,23.5 -1,2.5 -1.25,6.5 l -0.25,4 7.5,1.25 Q 93,246 95,245 q 2,-1 5.75,-5.25 l 3.75,-4.25 V 232 q 0,-3.5 -2,-6 l -2,-2.5 0.5,-9 q 0.5,-9 0,-16 -0.5,-7 -0.75,-7.25 L 100,191 l 6.5,0.25 q 6.5,0.25 6.25,8.25 -0.25,8 -0.75,9 -0.5,1 -0.75,5 l -0.25,4 3.5,1.25 q 3.5,1.25 14.5,-1.25 11,-2.5 12.25,-6.75 l 1.25,-4.25 -0.5,-1 q -0.5,-1 -4.25,-2.5 L 134,201.5 133.75,192 Q 133.5,182.5 133,181.5 l -0.5,-1 -1.75,-1.75 q -1.75,-1.75 -4,-4.5 l -2.25,-2.75 -0.75,-11 -0.75,-11 2.25,1.5 q 2.25,1.5 4.25,3.5 2,2 7,7 5,5 17.25,11.25 12.25,6.25 20.25,8.5 l 8,2.25 -1.25,-3 q -1.25,-3 -4,-5.75 -2.75,-2.75 -7.5,-5.5 -4.75,-2.75 -10,-5 L 154,162 151.25,157.25 Q 148.5,152.5 138.75,140.75 129,129 124,126.75 l -5,-2.25 0.5,-1.5 0.5,-1.5 2.75,-3 q 2.75,-3 14.25,-16.5 11.5,-13.5 17,-23.5 5.5,-10 5.5,-12.5 v -2.5 l -1.75,-2.75 Q 156,58 146,53 136,48 127.5,46 119,44 114,46.25 l -5,2.25 -2.75,-5 q -2.75,-5 -4.5,-9.5 L 100,29.5 122,29 l 22,-0.5 -1.5,1.75 q -1.5,1.75 -2.5,3 -1,1.25 10,4.5 11,3.25 22.25,9 Q 183.5,52.5 187,57 l 3.5,4.5 V 67 q 0,5.5 -3,13 l -3,7.5 31.75,-33 31.75,-33 -7,-1.25 -7,-1.25 3,-1.5 q 3,-1.5 20.5,-7 L 275,5 l 4.75,6.75 q 4.75,6.75 7,11.25 L 289,27.5 279.5,26.75 270,26 l -3.75,5.75 q -3.75,5.75 -13,21 -9.25,15.25 -12.5,20.5 -3.25,5.25 -12.5,20.5 -9.25,15.25 -12.5,20.5 -3.25,5.25 -12,19.5 -8.75,14.25 -12,19.5 -3.25,5.25 -5.5,9 L 184,166 l 3,-1.5 q 3,-1.5 12,-6 9,-4.5 23,-8.5 14,-4 31.5,-6.5 Q 271,141 283,140 l 12,-1 -3.5,-5.25 -3.5,-5.25 15.5,3.25 q 15.5,3.25 25.75,6 l 10.25,2.75 -1.5,2.5 q -1.5,2.5 -13.25,13.5 l -11.75,11 -2.25,-3.5 q -2.25,-3.5 -4,-5.75 L 305,156 l -16,1.5 q -16,1.5 -31.5,6 -15.5,4.5 -21.25,9.75 -5.75,5.25 -14,18.5 -8.25,13.25 -11,18 -2.75,4.75 -11.5,19 -8.75,14.25 -12,19.5 -3.25,5.25 -14,23.5 Q 163,290 160,295 l -3,5 -76,0.25 -76,0.25 0.25,-27 0.25,-27 7.25,-8.25 q 7.25,-8.25 33,-36 25.75,-27.75 27.5,-29.75 z"
     id="path2"
     style="fill:#9a031e;fill-opacity:1;fill-rule:evenodd;stroke:none;stroke-width:4" />
  <path
     d="m 120,118.75 v 2.75 l -0.5,1.5 -0.5,1.5 5,2.25 q 5,2.25 14.75,14 9.75,11.75 12.5,16.5 l 2.75,4.75 5.25,2.25 q 5.25,2.25 10,5 4.75,2.75 7.5,5.5 2.75,2.75 4,5.75 l 1.25,3 -8,-2.25 q -8,-2.25 -20.25,-8.5 -12.25,-6.25 -17.25,-11.25 -5,-5 -7,-7 -2,-2 -4.25,-3.5 l -2.25,-1.5 0.75,11 0.75,11 2.25,2.75 q 2.25,2.75 4,4.5 l 1.75,1.75 0.5,1 q 0.5,1 0.75,10.5 l 0.25,9.5 3.75,1.5 q 3.75,1.5 4.25,2.5 l 0.5,1 -1.25,4.25 Q 140,215 129,217.5 q -11,2.5 -14.5,1.25 l -3.5,-1.25 0.25,-4 q 0.25,-4 0.75,-5 0.5,-1 0.75,-9 0.25,-8 -6.25,-8.25 L 100,191 l 0.25,0.25 q 0.25,0.25 0.75,7.25 0.5,7 0,16 l -0.5,9 2,2.5 q 2,2.5 2,6 v 3.5 l -3.75,4.25 Q 97,244 95,245 q -2,1 -9.5,-0.25 l -7.5,-1.25 0.25,-4 q 0.25,-4 1.25,-6.5 1,-2.5 -0.5,-23.5 -1.5,-21 -2.75,-30 l -1.25,-9 0.75,-4 q 0.75,-4 2.5,-14.5 L 80,141.5 78.25,142 q -1.75,0.5 -8,5.25 L 64,152 46.5,153 Q 29,154 25.25,151.75 L 21.5,149.5 V 148 q 0,-1.5 1.75,-4.25 Q 25,141 33.5,139 q 8.5,-2 8.75,-5.25 0.25,-3.25 2,-5 L 46,127 47.5,126.75 Q 49,126.5 51.25,133 l 2.25,6.5 1.75,-0.75 q 1.75,-0.75 10.5,-8 8.75,-7.25 18,-10.5 L 93,117 88.5,112.5 Q 84,108 80.75,100.75 77.5,93.5 78,85.5 78.5,77.5 82.25,71.75 86,66 90,64 q 4,-2 14,-3.5 10,-1.5 14.5,0 l 4.5,1.5 0.5,0.5 q 0.5,0.5 4.75,5.75 4.25,5.25 5.75,15.75 1.5,10.5 0.5,13.5 -1,3 -3.5,7 -2.5,4 -6.75,7.75 -4.25,3.75 -4.25,6.5 z"
     id="path4"
     style="fill:#9a031e;fill-opacity:1;fill-rule:evenodd;stroke:#ffffff;stroke-width:4;stroke-opacity:1" />
</svg>
