<?xml version="1.0" encoding="UTF-8" standalone="no"?>
<svg
   xmlns:dc="http://purl.org/dc/elements/1.1/"
   xmlns:cc="http://creativecommons.org/ns#"
   xmlns:rdf="http://www.w3.org/1999/02/22-rdf-syntax-ns#"
   xmlns:svg="http://www.w3.org/2000/svg"
   xmlns="http://www.w3.org/2000/svg"
   xmlns:sodipodi="http://sodipodi.sourceforge.net/DTD/sodipodi-0.dtd"
   xmlns:inkscape="http://www.inkscape.org/namespaces/inkscape"
   inkscape:version="1.0 (4035a4fb49, 2020-05-01)"
   sodipodi:docname="princino.svg"
   id="svg867"
   version="1.1"
   viewBox="0 0 73.796503 197.52019"
   height="87.668968"
   width="73.796501">
  <metadata
     id="metadata873">
    <rdf:RDF>
      <cc:Work
         rdf:about="">
        <dc:format>image/svg+xml</dc:format>
        <dc:type
           rdf:resource="http://purl.org/dc/dcmitype/StillImage" />
        <dc:title></dc:title>
      </cc:Work>
    </rdf:RDF>
  </metadata>
  <defs
     id="defs871" />
  <sodipodi:namedview
     fit-margin-bottom="4"
     fit-margin-right="4"
     fit-margin-left="4"
     lock-margins="true"
     fit-margin-top="4"
     inkscape:current-layer="svg867"
     inkscape:window-maximized="1"
     inkscape:window-y="0"
     inkscape:window-x="0"
     inkscape:cy="42.927587"
     inkscape:cx="47.279124"
     inkscape:zoom="4.9974275"
     showgrid="false"
     id="namedview869"
     inkscape:window-height="1016"
     inkscape:window-width="1920"
     inkscape:pageshadow="2"
     inkscape:pageopacity="0"
     guidetolerance="10"
     gridtolerance="10"
     objecttolerance="10"
     borderopacity="1"
     bordercolor="#666666"
     pagecolor="#ffffff" />
  <path
     id="path876"
     d="m -34.459319,181.88346 13.161432,-6.62959 12.2280607,-8.73232 8.023481,-13.73906 -2.517462,-28.29968 3.48429699,-23.99296 L 6.2057837,83.682981 16.254508,72.23596 l 12.857648,-6.816262 14.727912,-3.943939 27.193723,2.341357 9.81714,4.207221 17.93924,14.78515 5.964789,9.298502 3.88229,8.857351 -1.53038,2.46199 -25.179919,1.58674 -16.82888,-8.8e-4 -15.282657,-1.75844 -10.054886,-4.217792 -4.459057,1.293512 -4.540945,10.80159 -4.993542,19.09539 -2.29733,13.39478 -0.130315,12.73349 0.346934,14.06927 3.601407,8.63634 3.337248,4.38773 -10.500441,2.83886 -15.5344893,-0.50103 -12.958027,0.62078 -21.3909607,-2.91634 z"
     style="fill:#5f0f40;fill-opacity:1;fill-rule:evenodd;stroke:none;stroke-width:2.25302px;stroke-linecap:butt;stroke-linejoin:miter;stroke-opacity:1" />
  <path
     sodipodi:nodetypes="csscscscscssssssccssssscccccccssscccssccsccscssscccccccsccsssccssscssscccscsscccccccccsccsssscssccscccccccscccsccccccccccccccssssscccscccccscsscccssssscccccsscsscccsccscc"
     d="m -3.2012293,188.45641 c -14.2999997,-0.9424 -23.9649997,-2.4721 -33.4429997,-5.2931 -0.41521,-0.1236 -0.57803,-0.5159 -0.57803,-1.3928 v -1.2208 l 2.8901,-0.9809 c 1.5896,-0.5395 5.0843,-2.0553 7.7661,-3.3684 12.532,-6.136 19.8559997,-13.03 22.5369997,-21.212 0.76863,-2.3457 0.79563,-5.7943 0.0998,-12.745 -1.5569,-15.551 -0.85379,-28.775 2.1863,-41.122 3.5995,-14.619002 10.93,-25.961002 21.1660003,-32.748002 4.6721,-3.0977 11.695,-5.8825 17.836,-7.0724 1.635,-0.31679 3.0161,-0.60929 3.0691,-0.64999 0.0784,-0.0602 -5.8043,-34.567 -6.3942,-37.507 -0.15086,-0.7519 -0.008,-0.91684 1.2097,-1.3951 0.75944,-0.29831 1.4848,-0.4781 1.612,-0.39953 0.1272,0.0786 0.95376,1.3382 1.8369,2.7991 0.88314,1.4609 1.7104,2.5446 1.8383,2.4083 0.26023,-0.27748 3.205699,-9.4565 4.584199,-14.286 0.85377,-2.9909997 0.93843,-3.1377997 1.8089,-3.1377997 0.87047,0 0.99351,0.21368 2.465,4.1286997 0.85348,2.2708 2.1238,5.8022 2.8229,7.8475 0.6991,2.0453 1.3566,3.6333 1.4609,3.5289 0.1043,-0.1044 0.78943,-2.6696 1.5223,-5.7005 l 1.3325,-5.5107 1.5331,-0.0994 1.5331,-0.0994 1.777801,7.3438 1.7778,7.3438 3.8388,-9.3913 c 3.1649,-7.7428 3.9598,-9.4097997 4.5282,-9.4967997 0.37916,-0.0581 0.68938,0.0523 0.68938,0.24533 0,0.38273 2.9567,20.8379997 3.0723,21.2549997 0.0539,0.19452 6.404,-8.0223 7.5378,-9.7536 0.12111,-0.18495 0.81846,-0.043 1.696,0.34515 l 1.4903,0.65924 -5.2526,21.086 c -2.8889,11.597 -5.1945,21.238 -5.1234,21.423 0.0711,0.185 1.3018,0.81589 2.735,1.4019 1.4332,0.58601 3.9843,1.88 5.6689,2.8754 11.992,7.0866 20.947999,17.62 26.180999,30.792 1.4132,3.557502 1.2894,4.061902 -1.1768,4.796202 -1.09,0.32456 -3.5053,0.83991 -5.3674,1.1452 -3.757999,0.61622 -3.761499,0.61977 -2.9134,3.0234 1.606,4.552 2.8308,13.298 2.8308,20.214 0,18.568 -6.791399,35.511 -18.868999,47.073 -13.861,13.27 -32.505001,16.341 -49.07,8.0818 -2.2891,-1.1413 -2.9743,-1.3826 -2.3328,-0.8214 0.49957,0.437 0.90832,0.8645 0.90832,0.9499 0,0.2721 -6.5191,2.1923 -9.6747,2.8498 -5.43,1.1313 -11.153,1.6852 -18.5660003,1.7969 -3.9966,0.06 -8.0841,0.056 -9.0832,-0.011 z m 21.1390003,-3.9258 c 3.3567,-0.4675 9.5446,-1.7282 9.8597,-2.0088 0.0637,-0.057 -0.25428,-0.5961 -0.70675,-1.1984 -5.4117,-7.2041 -7.094,-21.883 -4.6677,-40.731 2.3892,-18.56 8.4159,-37.487 13.763,-43.225002 l 1.4041,-1.5066 2.4772,1.4824 c 8.209399,4.912602 28.411,7.367202 50.04,6.080002 9.2781,-0.55213 17.009999,-1.6734 17.009999,-2.4667 0,-0.70591 -1.828,-4.768402 -3.5277,-7.840002 -4.674399,-8.4472 -12.453999,-16.487 -20.813999,-21.51 -2.09,-1.2556 -7.4764,-3.8457 -7.9978,-3.8457 -0.15879,0 -0.49685,0.85465 -0.75124,1.8992 -0.5351,2.1971 -0.53364,2.1963 -6.3156,3.4501 -2.8653,0.62132 -4.3765,0.72948 -10.138001,0.72564 -6.0851,-0.004 -7.186,-0.0939 -10.866,-0.88658 -2.2522,-0.48514 -4.1523,-0.93938 -4.2224,-1.0094 -0.0701,-0.07 -0.41468,-1.8019 -0.76583,-3.8486 -0.35115,-2.0467 -0.721369,-3.8042 -0.822699,-3.9055 -0.36204,-0.36204 -5.3534,0.68991 -9.1024,1.9183 -6.9162,2.2663 -11.92,5.3092 -16.83,10.234 -13.4240003,13.465 -18.6880003,36.375002 -15.56000031,67.722002 0.65082,6.522 0.54345,9.1813 -0.49934999,12.369 -2.7938,8.539 -11.1079997,16.391 -23.9999997,22.666 -2.6856,1.3072 -4.8296,2.4302 -4.7643,2.4955 0.23365,0.2337 8.0695,1.7125 11.963,2.2577 8.1697997,1.1441 13.6579997,1.4635 22.9529997,1.3357 5.8588003,-0.081 10.4320003,-0.3126 12.8820003,-0.6537 z m 43.5,-0.1696 c 6.2028,-1.2435 11.454,-3.6017 16.586,-7.4479 11.739,-8.7977 19.257,-22.428 21.672,-39.293 0.2602,-1.8166 0.475809,-3.7816 0.479139,-4.3665 l 0.006,-1.0635 -1.189299,0.80705 c -1.8676,1.2674 -3.3006,1.3979 -5.0653,0.46124 -3.642,-1.933 -5.0317,-7.7078 -2.9945,-12.444 0.86671,-2.0147 2.1231,-3.1955 3.9976,-3.7571 1.1592,-0.34731 1.5287,-0.31071 2.9578,0.29308 1.2521,0.52901 1.6331,0.5858 1.6331,0.24344 0,-0.70919 -0.90589,-4.6596 -1.8836,-8.2138 l -0.89872,-3.2672 -3.8111,0.21766 c -13.69,0.78183 -24.741,0.52198 -34.848001,-0.81937 -8.1311,-1.0791 -13.313,-2.3914 -17.615999,-4.4613 -2.8972,-1.393502 -2.5158,-1.664302 -5.1695,3.6702 -4.3198,8.6839 -8.0232,22.846 -9.9761,38.15 -0.70663,5.5375 -0.81576,19.689 -0.18085,23.451 1.1596,6.8715 1.488,7.4591 5.9734,10.684 9.2412,6.6454 20.095999,9.2066 30.327,7.1557 z m 7.6958,-13.036 c -2.2699,-0.5837 -5.7862,-1.9077 -8.030601,-3.0237 -2.4618,-1.224 -12.126,-6.837 -11.995,-6.9672 0.0602,-0.06 2.4728,-0.3283 5.3611,-0.5957 2.8883,-0.2674 7.555301,-0.7887 10.371001,-1.1585 5.6797,-0.746 12.197,-0.8816 15.704,-0.3268 2.5866,0.4091 8.4398,1.9239 8.8241,2.2836 0.44775,0.4192 -4.0691,5.3106 -6.444,6.9784 -1.269,0.8912 -3.1446,1.9395 -4.168,2.3294 -2.3815,0.9074 -7.055,1.1408 -9.6227,0.4805 z m 9.6206,-4.0632 c 1.1578,-0.5727 2.8345,-1.6863 3.7261,-2.4747 l 1.621,-1.4335 -1.2907,-0.3793 c -2.1615,-0.6354 -8.0282,-1.1359 -10.679,-0.9111 -3.3117,0.2809 -12.644001,1.442 -12.794001,1.5918 -0.18711,0.1871 6.815001,3.4 8.639601,3.9642 2.6664,0.8246 2.8407,0.8474 5.8221,0.7638 2.4371,-0.069 3.154,-0.2306 4.9545,-1.1212 z m 1.3278,-18.661 c -0.59602,-0.596 -0.45598,-1.0416 0.655,-2.0841 2.6125,-2.4515 3.0916,-6.3998 1.2589,-10.376 -0.91125,-1.977 -1.0142,-2.4208 -0.61931,-2.6707 0.77972,-0.49341 0.92741,-0.38763 2.169,1.5533 4.4244,6.9165 4.1685,8.9658 -1.6165,12.946 -1.1042,0.7597 -1.5621,0.9162 -1.847,0.6313 z m -14.761,-13.744 c -3.6639,-2.2343 -4.891101,-8.1665 -2.6408,-12.766 2.7096,-5.5382 8.8699,-4.3847 10.594,1.9837 1.1775,4.35 -0.43231,9.3133 -3.5461,10.933 -1.2396,0.64496 -3.2123,0.57725 -4.4069,-0.15125 z m 2.0841,-3.0913 c -1.5114,-2.8997 -1.0752,-7.7641 0.84072,-9.3763 0.80637,-0.67851 0.91092,-0.90273 0.53262,-1.1422 -2.4046,-1.5218 -5.3314,2.5907 -4.7834,6.7213 0.37784,2.8483 1.9826,5.1917 3.5552,5.1917 0.53263,0 0.52037,-0.11787 -0.14508,-1.3946 z m 28.276,-1.793 c -0.60152,-1.1881 -0.77817,-2.0546 -0.75889,-3.7222 0.0298,-2.576 0.48284,-3.9815 1.6986,-5.2696 1.0249,-1.0859 0.90751,-1.3629 -0.5777,-1.3629 -3.1334,0 -4.7555,5.6991 -2.7823,9.7753 0.61701,1.2746 2.3989,2.6259 2.9849,2.2637 0.12064,-0.0746 -0.13345,-0.83245 -0.56465,-1.6842 z M 51.08707,35.724508 l 1.4645,-6.0762 -2.5577,-7.285 c -1.4068,-4.0068 -2.6378,-7.508 -2.7356,-7.7805 -0.22253,-0.61994 0.0222,-1.2885 -2.8776,7.8615 l -2.3344,7.366 3.7123,6.071 c 2.0418,3.3391 3.7464,6.0369 3.7881,5.9953 0.0417,-0.0416 0.73483,-2.8101 1.5403,-6.152 z m 18.920001,1.9792 c 1.4488,-1.9075 2.743,-3.6497 2.8759,-3.8716 0.29513,-0.49269 -2.1222,-17.719 -2.4358,-17.359 -0.43376,0.4984 -6.2758,15.128 -6.2719,15.706 0.003,0.49978 1.7558,8.061 2.1933,9.4635 0.18667,0.59845 0.21472,0.56808 3.6386,-3.9396 z"
     id="path863"
     style="fill:#5f0f40;fill-opacity:1;stroke:none;stroke-opacity:1" />
</svg>
