<?xml version="1.0" encoding="UTF-8" standalone="no"?>
<svg
   xmlns:dc="http://purl.org/dc/elements/1.1/"
   xmlns:cc="http://creativecommons.org/ns#"
   xmlns:rdf="http://www.w3.org/1999/02/22-rdf-syntax-ns#"
   xmlns:svg="http://www.w3.org/2000/svg"
   xmlns="http://www.w3.org/2000/svg"
   xmlns:sodipodi="http://sodipodi.sourceforge.net/DTD/sodipodi-0.dtd"
   xmlns:inkscape="http://www.inkscape.org/namespaces/inkscape"
   inkscape:version="1.0 (4035a4fb49, 2020-05-01)"
   height="1053.7313"
   width="661.26691"
   sodipodi:docname="princo.svg"
   id="svg898"
   version="1.1"
   viewBox="0 0 661.26691 1053.7313">
  <metadata
     id="metadata904">
    <rdf:RDF>
      <cc:Work
         rdf:about="">
        <dc:format>image/svg+xml</dc:format>
        <dc:type
           rdf:resource="http://purl.org/dc/dcmitype/StillImage" />
        <dc:title></dc:title>
      </cc:Work>
    </rdf:RDF>
  </metadata>
  <defs
     id="defs902" />
  <sodipodi:namedview
     inkscape:current-layer="svg898"
     inkscape:window-maximized="1"
     inkscape:window-y="0"
     inkscape:window-x="0"
     inkscape:cy="489.69187"
     inkscape:cx="265.0424"
     inkscape:zoom="0.54168996"
     fit-margin-bottom="10"
     fit-margin-right="10"
     fit-margin-left="10"
     lock-margins="true"
     fit-margin-top="10"
     showgrid="false"
     id="namedview900"
     inkscape:window-height="1016"
     inkscape:window-width="1920"
     inkscape:pageshadow="2"
     inkscape:pageopacity="0"
     guidetolerance="10"
     gridtolerance="10"
     objecttolerance="10"
     borderopacity="1"
     bordercolor="#666666"
     pagecolor="#ffffff" />
  <path
     style="fill:#5f0f40;fill-opacity:1;stroke:#5f0f40;stroke-opacity:1"
     id="path886"
     stroke-width="8.0812"
     stroke-linejoin="round"
     stroke-linecap="round"
     stroke="#000"
     fill-rule="evenodd"
     d="m 437.7136,1038.0189 c -1.0654,-1.0655 -53.386,-2.1312 -116.27,-2.3682 -122.85,-0.463 -144.65,-3.295 -160.67,-20.875 -17.753,-19.48701 -18.757,-25.85401 -7.6769,-48.71201 13.742,-28.348 19.901,-72.441 17.618,-126.12 -1.9599,-46.07 -1.1108,-54.548 5.4632,-54.548 2.1376,0 17.643,9.2827 34.456,20.628 40.296,27.192 60.505,35.727 91.423,38.615 42.32,3.9519 87.76,-12.504 127.42,-46.144 16.565,-14.051 22.575,-17.124 26.264,-13.425 3.3002,3.3087 4.8305,26.342 4.9351,74.282 0.13448,61.599 1.1665,72.195 9.0914,93.352 14.808,39.534 11.174,61.84301 -12.746,78.23301 -13.739,9.4142 -16.108,10.283 -19.311,7.0802 h -4e-5 z" />
  <path
     style="fill:#5f0f40;fill-opacity:1;stroke:#5f0f40;stroke-opacity:1"
     id="path888"
     stroke-width="8.0812"
     stroke-linejoin="round"
     stroke-linecap="round"
     stroke="#000"
     fill-rule="evenodd"
     d="m 281.1336,819.38889 c -49.318,-13.262 -102.05,-56.169 -124.26,-101.11 l -14.982,-30.314 -3.5962,-99.784 c -4.1751,-115.85 -2.629,-237.19 3.0943,-242.85 11.161,-11.045 352.1,-11.463 363.11,-0.44496 5.3649,5.3677 4.2798,143.3 -1.8518,235.38 -4.3337,65.083 -14.825,110.09 -32.806,140.73 -26.73,45.549 -71.786,82.021 -119.55,96.774 -30.273,9.3502 -39.608,9.5697 -69.153,1.6249 h 8e-5 z m 76.494,-84.64 c 12.689,-11.484 4.0133,-15.3 -38.754,-17.047 -38.645,-1.5788 -38.786,-1.5496 -37.462,7.7929 2.6706,18.848 58.169,25.586 76.216,9.2541 h -4e-5 z m 31.947,-35.232 c 0.13269,-1.6668 0.24118,-4.5139 0.24118,-6.327 0,-1.8131 -7.7277,-7.7202 -17.173,-13.127 -22.645,-12.963 -73.298,-14.073 -97.346,-2.133 -15.541,7.7163 -22.315,16.4 -16.975,21.761 3.4017,3.4152 114.39,7.7734 124.18,4.8765 3.7566,-1.1112 6.9385,-3.384 7.0711,-5.0508 h -8e-5 z m -16.7,-77.676 c 0.81988,-0.81992 -2.2648,-6.6339 -6.8548,-12.92 -7.5399,-10.326 -8.403,-17.671 -8.94,-76.079 -0.68666,-74.692 2.9573,-92.845 23.119,-115.16 16.648,-18.427 36.416,-26.058 59.62,-23.014 17.326,2.2729 42.857,-6.6774 45.911,-16.095 4.6601,-14.371 -88.918,-8.7737 -114.16,6.8281 -29.624,18.308 -39.075,51.408 -37.728,132.13 1.063,63.701 0.44273,65.548 -26.977,80.314 -15.644,8.4248 -21.905,20.838 -13.443,26.65 4.9326,3.3874 75.781,1.0259 79.455,-2.6485 l -4e-5,4e-5 z m 99.344,-155.19 c 9.5068,-10.505 4.9322,-25.743 -12.259,-40.838 -14.613,-12.83 -31.694,-15.727 -46.382,-7.8667 -7.8061,4.1777 -7.7418,4.5273 2.2859,12.415 13.275,10.442 13.865,28.314 1.2269,37.13 -8.6389,6.0262 -7.6647,6.3524 19.577,6.5538 23.116,0.17092 30.001,-1.2612 35.552,-7.3942 l -1.2e-4,-4e-5 z m -214.51,-2.7193 c 11.623,-4.5101 6.8223,-21.601 -9.843,-35.045 -17.064,-13.766 -46.598,-19.845 -52.342,-10.775 -5.5379,8.7459 -4.3984,11.699 4.5145,11.699 12.073,0 13.918,10.194 4.2911,23.714 -4.6522,6.5334 -8.4585,13.226 -8.4585,14.872 0,3.447 50.924,-0.22934 61.838,-4.4642 l -8e-5,4e-5 z m 53.539,-19.728 c 5.2959,-28.229 -19.951,-56.841 -61.078,-69.219 -21.509,-6.4732 -49.386,-7.4923 -57.875,-2.1156 -6.914,4.3786 -0.36152,8.1977 31.861,18.57 45.723,14.718 70.459,34.084 75.457,59.072 2.8848,14.424 8.2965,11.49 11.636,-6.3084 v -4e-5 z" />
  <path
     style="fill:#5f0f40;fill-opacity:1;stroke:#5f0f40;stroke-opacity:1"
     id="path890"
     stroke-width="8.0812"
     stroke-linejoin="round"
     stroke-linecap="round"
     stroke="#000"
     fill-rule="evenodd"
     d="m 494.1636,849.86889 c -19.953,-11.642 -18.943,-57.212 2.7741,-125.1 7.4641,-23.335 15.543,-53.336 17.954,-66.67 4.7989,-26.543 15.019,-149.12 19.896,-238.63 1.7021,-31.242 4.4342,-58.971 6.0712,-61.619 5.6933,-9.2119 13.84,-4.6604 38.124,21.3 52.593,56.222 69.186,128.53 44.637,194.52 -10.73,28.842 -28.777,54.753 -64.723,92.92 -46.025,48.87 -54.518,72.093 -33.905,92.706 11.341,11.341 17.151,12.108 28.23,3.7285 14.466,-10.942 22.463,-7.6572 22.446,9.2199 -0.0319,31.935 -25.161,55.167 -49.969,46.196 -25.816,-9.3351 -29.079,-6.276 -12.675,11.882 11.699,12.95 13.829,17.437 9.5615,20.141 -7.2387,4.5864 -20.003,4.3208 -28.422,-0.59151 z" />
  <path
     style="fill:#5f0f40;fill-opacity:1;stroke:#5f0f40;stroke-opacity:1"
     id="path892"
     stroke-width="8.0812"
     stroke-linejoin="round"
     stroke-linecap="round"
     stroke="#000"
     fill-rule="evenodd"
     d="m 106.9736,837.75889 c -5.1913,-3.4781 -4.7564,-5.1565 3.0305,-11.697 5.0002,-4.2002 9.0914,-8.5276 9.0914,-9.6164 0,-1.0888 -9.1977,-4.1863 -20.439,-6.8831 -24.565,-5.8931 -44.21,-21.183 -44.21,-34.409 0,-12.983 5.953,-15.602 17.807,-7.8348 23.339,15.292 48.35,-3.2714 47.862,-35.524 -0.35299,-23.345 -8.5671,-40.053 -35.24,-71.678 -26.962,-31.968 -56.159,-87.514 -62.906,-119.68 -3.9164,-18.669 -3.9408,-28.966 -0.11427,-48.01 5.8494,-29.111 29.539,-86.476 45.32,-109.74 12.502,-18.432 38.354,-36.831 43.813,-31.182 1.8832,1.9485 5.3376,74.896 7.6767,162.11 l 4.253,158.56 14.703,47.508 c 18.304,59.141 20.126,89.956 6.4522,109.13 -9.7515,13.672 -24.677,17.271 -37.101,8.9474 v -4e-5 z" />
  <path
     style="fill:#5f0f40;fill-opacity:1;stroke:#5f0f40;stroke-opacity:1"
     id="path894"
     stroke-width="8.0812"
     stroke-linejoin="round"
     stroke-linecap="round"
     stroke="#000"
     fill-rule="evenodd"
     d="m 89.6336,297.46889 -6.0786,-15.152 32.921,-4.7663 c 73.932,-10.704 202.68,-14.919 317.82,-10.405 113.87,4.4643 133.3,7.5891 133.3,21.433 0,3.8417 -3.244,10.991 -7.209,15.888 l -7.2091,8.9027 -119.06,-4.5667 c -84.427,-3.2384 -145.51,-3.3628 -209.97,-0.42778 -137.05,6.2391 -127.32,7.0276 -134.51,-10.906 h -4e-5 z" />
  <path
     style="fill:#5f0f40;fill-opacity:1;stroke:#5f0f40;stroke-opacity:1"
     id="path896"
     stroke-width="8.0812"
     stroke-linejoin="round"
     stroke-linecap="round"
     stroke="#000"
     fill-rule="evenodd"
     d="m 68.0936,248.98889 c -1.4683,-6.1114 -14.231,-34.089 -28.361,-62.172 -14.13,-28.083 -25.692,-55.87 -25.692,-61.75 0,-12.92 9.5242,-17.336 32.634,-15.133 20.085,1.9153 24.661,10.953 21.214,41.898 l -2.383,21.394 13.856,-13.132 c 21.959,-20.812 38.265,-15.144 45.909,15.959 3.593,14.62 -13.949,33.291 -28.639,30.483 -10.773,-2.0594 -12.858,4.0456 -5.8533,17.135 9.675,18.078 52.629,12.773 70.727,-8.7345 13.003,-15.453 11.163,-28.896 -5.9872,-43.731 -18.162,-15.71 -17.849,-28.986 0.95391,-40.45 28.239,-17.218 41.777,-6.2793 37.234,30.084 -3.1395,25.128 1.2531,35.884 18.244,44.67 15.4,7.9635 53.695,7.8383 69.29,-0.22655 12.428,-6.4268 23.725,-26.645 23.725,-42.461 0,-5.832 -1.878,-7.9226 -5.774,-6.4276 -29.402,11.283 -66.46,2.9814 -76.911,-17.228 -7.6765,-14.844 0.29193,-43.191995 15.288,-54.387995 10.211,-7.6239 11.431,-7.6638 34.887,-1.1424 13.368,3.7168 25.243,6.7577 26.387,6.7577 5.1381,0 1.3259,-11.553 -5.9999,-18.183 -12.381,-11.205 -10.695,-32.353 3.7298,-46.778 13.146,-13.146 22.42,-14.499 42.339,-6.1769 30.347,12.68 36.252,50.107 9.4897,60.149 -3.8891,1.4593 -7.0711,4.5286 -7.0711,6.8207 0,5.6848 2.6607,5.2578 14.151,-2.2711 19.309,-12.652 67.947,4.1596 73.258,25.320995 1.3989,5.5736 0.38911,17.324 -2.244,26.113 -6.3716,21.267 -17.949,25.675 -51.901,19.763 -28.768,-5.0098 -33.265,-3.6624 -33.265,9.9686 0,16.51 7.3807,30.012 21.112,38.624 19.356,12.138 62.974,9.7516 77.891,-4.2622 9.7472,-9.157 10.416,-12.02 9.2882,-39.748 -0.97035,-23.847 0.0855,-30.72 5.2299,-34.043 12.877,-8.3167 44.062,8.0724 44.062,23.156 0,3.2594 -6.364,12.29 -14.142,20.068 -16.745,16.745 -18.241,30.883 -4.7006,44.423 16.628,16.628 64.312,21.748 75.622,8.1204 6.4273,-7.7444 0.76307,-21.97 -8.7476,-21.97 -4.3959,0 -12.338,-4.3452 -17.649,-9.6561 -11.894,-11.894 -9.837,-22.879 6.9266,-36.985 14.112,-11.874 24.934,-10.447 37.946,5.0045 l 8.5851,10.195 -0.42665,-16.265 c -0.49526,-18.889 8.4996,-31.225 29.132,-39.953 14.97004,-6.3329 38.85604,-3.5054 35.48604,4.2009 -1.1224,2.567 -10.271,25.38 -20.329,50.695 -10.05804,25.315 -23.02604,53.187 -28.81704,61.937 -16.329,24.675 -27.28,27.447 -90.974,23.028 -87.977,-6.1042 -284,-4.9445 -359.44,2.1265 -36.669,3.4367 -68.908,6.2558 -71.644,6.2648 -2.736,0.009 -6.1751,-4.9838 -7.6435,-11.095 z" />
</svg>
