<?xml version="1.0" encoding="UTF-8" standalone="no"?>
<svg
   xmlns:dc="http://purl.org/dc/elements/1.1/"
   xmlns:cc="http://creativecommons.org/ns#"
   xmlns:rdf="http://www.w3.org/1999/02/22-rdf-syntax-ns#"
   xmlns:svg="http://www.w3.org/2000/svg"
   xmlns="http://www.w3.org/2000/svg"
   xmlns:xlink="http://www.w3.org/1999/xlink"
   xmlns:sodipodi="http://sodipodi.sourceforge.net/DTD/sodipodi-0.dtd"
   xmlns:inkscape="http://www.inkscape.org/namespaces/inkscape"
   height="108.72752"
   width="84.71875"
   inkscape:version="1.0 (4035a4fb49, 2020-05-01)"
   sodipodi:docname="puto.svg"
   id="svg113"
   version="1.1"
   viewBox="0 0 84.71875 108.72752">
  <metadata
     id="metadata117">
    <rdf:RDF>
      <cc:Work
         rdf:about="">
        <dc:format>image/svg+xml</dc:format>
        <dc:type
           rdf:resource="http://purl.org/dc/dcmitype/StillImage" />
        <dc:title></dc:title>
      </cc:Work>
    </rdf:RDF>
  </metadata>
  <sodipodi:namedview
     fit-margin-bottom="4"
     fit-margin-right="4"
     fit-margin-left="4"
     lock-margins="true"
     fit-margin-top="4"
     inkscape:current-layer="svg113"
     inkscape:window-maximized="1"
     inkscape:window-y="0"
     inkscape:window-x="0"
     inkscape:cy="34.9786"
     inkscape:cx="22.440914"
     inkscape:zoom="4.2862129"
     showgrid="false"
     id="namedview115"
     inkscape:window-height="1016"
     inkscape:window-width="1920"
     inkscape:pageshadow="2"
     inkscape:pageopacity="0"
     guidetolerance="10"
     gridtolerance="10"
     objecttolerance="10"
     borderopacity="1"
     bordercolor="#666666"
     pagecolor="#ffffff" />
  <defs
     id="defs51">
    <filter
       id="w">
      <feGaussianBlur
         id="feGaussianBlur2"
         stdDeviation="1.62778" />
    </filter>
    <linearGradient
       id="b">
      <stop
         id="stop5"
         offset="0"
         stop-color="#1a1a1a" />
      <stop
         id="stop7"
         offset="1"
         stop-color="#2b2b2b" />
    </linearGradient>
    <linearGradient
       id="a">
      <stop
         id="stop10"
         offset="0"
         stop-color="#6a3c1d" />
      <stop
         id="stop12"
         offset="1"
         stop-color="#8f5127" />
    </linearGradient>
    <linearGradient
       id="c">
      <stop
         id="stop15"
         offset="0"
         stop-color="#b1b1b1" />
      <stop
         id="stop17"
         offset="1"
         stop-color="#e4e4e4" />
    </linearGradient>
    <linearGradient
       gradientUnits="userSpaceOnUse"
       y2="67.027"
       y1="63.784"
       x2="81.038002"
       x1="76.280998"
       id="p">
      <stop
         id="stop20"
         offset="0"
         stop-color="#007dff" />
      <stop
         id="stop22"
         offset="1"
         stop-color="#58abff" />
    </linearGradient>
    <linearGradient
       gradientUnits="userSpaceOnUse"
       y2="19.844"
       y1="51"
       x2="86.903"
       x1="57.416"
       id="m">
      <stop
         id="stop25"
         offset="0"
         stop-color="#4a585b" />
      <stop
         id="stop27"
         offset="1"
         stop-color="#5e7074" />
    </linearGradient>
    <linearGradient
       gradientUnits="userSpaceOnUse"
       y2="66.194"
       y1="64.514999"
       x2="31.245001"
       x1="30.361"
       id="e">
      <stop
         id="stop30"
         offset="0"
         stop-color="#c2a05c" />
      <stop
         id="stop32"
         offset="1"
         stop-color="#d6be91" />
    </linearGradient>
    <linearGradient
       gradientTransform="translate(-20.875,-14.125)"
       xlink:href="#c"
       gradientUnits="userSpaceOnUse"
       y2="114.79"
       y1="86.414001"
       x2="81.459"
       x1="50.27"
       id="v" />
    <linearGradient
       gradientTransform="translate(-20.875,-14.125)"
       xlink:href="#c"
       gradientUnits="userSpaceOnUse"
       y2="89.717003"
       y1="78.954002"
       x2="71.061996"
       x1="52.959999"
       id="u" />
    <linearGradient
       xlink:href="#c"
       gradientUnits="userSpaceOnUse"
       y2="68.190002"
       y1="84.823997"
       x2="58.220001"
       x1="48.556999"
       id="t" />
    <linearGradient
       gradientTransform="translate(-20.875,-14.125)"
       xlink:href="#c"
       gradientUnits="userSpaceOnUse"
       y2="80.482002"
       y1="70.697998"
       x2="60.910999"
       x1="60.787998"
       id="s" />
    <linearGradient
       xlink:href="#a"
       gradientUnits="userSpaceOnUse"
       y2="77.974998"
       y1="68.924004"
       x2="81.947998"
       x1="74.975998"
       id="r" />
    <linearGradient
       xlink:href="#a"
       gradientUnits="userSpaceOnUse"
       y2="70.918999"
       y1="63.395"
       x2="0"
       id="q" />
    <linearGradient
       xlink:href="#a"
       gradientUnits="userSpaceOnUse"
       x2="45.287998"
       x1="41.058998"
       id="o" />
    <linearGradient
       xlink:href="#a"
       gradientUnits="userSpaceOnUse"
       x2="88.682999"
       x1="84.233002"
       id="n" />
    <linearGradient
       xlink:href="#a"
       gradientUnits="userSpaceOnUse"
       y2="47.939999"
       y1="37.480999"
       x2="49.292999"
       x1="35.161999"
       id="l" />
    <linearGradient
       gradientTransform="translate(-20.875,-14.125)"
       xlink:href="#a"
       gradientUnits="userSpaceOnUse"
       y2="46.493999"
       y1="41.82"
       x2="38.834"
       x1="37.721001"
       id="k" />
    <linearGradient
       xlink:href="#b"
       gradientUnits="userSpaceOnUse"
       y2="61.25"
       y1="56.375"
       x2="55.625"
       x1="54.625"
       id="j" />
    <linearGradient
       xlink:href="#b"
       gradientUnits="userSpaceOnUse"
       y2="66.371002"
       y1="54.129002"
       x2="45.255001"
       x1="38.801998"
       id="i" />
    <linearGradient
       xlink:href="#b"
       gradientUnits="userSpaceOnUse"
       y2="60.780998"
       y1="66.482002"
       x2="49.144001"
       x1="47.508999"
       id="h" />
    <linearGradient
       xlink:href="#b"
       gradientUnits="userSpaceOnUse"
       y2="63.653"
       y1="62.018002"
       x2="35.355"
       x1="34.780998"
       id="g" />
    <linearGradient
       xlink:href="#a"
       gradientUnits="userSpaceOnUse"
       y2="63.321999"
       y1="59.167999"
       x2="42.338001"
       x1="39.819"
       id="f" />
    <linearGradient
       xlink:href="#b"
       gradientUnits="userSpaceOnUse"
       y2="61.112"
       y1="59.278"
       x2="40.924"
       x1="39.112"
       id="d" />
  </defs>
  <path
     style="fill:url(#v)"
     id="path55"
     fill-rule="evenodd"
     fill="url(#v)"
     d="m 21.322,96.135 -0.85617,-25.441 5.7486,2.5685 6.7271,1.59 15.533,1.1008 10.029,-1.4677 5.504,-1.3454 7.2163,-4.0362 v 1.59 l -0.61155,26.174 -6.6048,3.1801 c -4.4291,2.7389 -9.1984,3.4367 -13.943,4.2809 l -10.519,-0.12231 -9.7848,-2.6908 -5.8709,-3.4247 -2.5685,-1.957 z" />
  <path
     style="fill:url(#u)"
     id="path57"
     fill-rule="evenodd"
     fill="url(#u)"
     d="m 14.84,57.245 2.3239,3.1801 7.094,4.8924 10.029,2.5685 11.986,0.61155 9.1733,-0.85617 8.4394,-2.2016 5.9932,-3.1801 2.3239,-2.0793 2.3239,-4.5255 0.36693,7.4609 -2.8131,5.504 -4.5255,2.6908 -6.2378,2.4462 -13.821,1.8347 -11.375,-0.36693 -7.5832,-1.2231 -4.7701,-1.8347 -4.4032,-1.957 -3.4247,-3.4247 -1.3454,-2.6908 0.24462,-6.8494 z" />
  <path
     style="fill:#0f4c5c;fill-opacity:1"
     id="path59"
     fill-rule="evenodd"
     fill="url(#t)"
     d="m 14.962,53.331 v 2.6908 l 1.59,4.2809 4.8924,3.547 10.763,3.547 8.8064,1.1008 5.137,0.12231 8.8064,-0.85617 5.8709,-1.2231 7.5832,-3.3024 4.5255,-3.6693 1.4677,-3.1801 -2.8131,-6.3601 -1.59,-1.2231 c -4.1319,-0.75126 -5.1926,-3.998 -8.8686,-4.9619 -3.5779,-0.93817 -8.7913,-1.8402 -15.349,0.55877 l -16.634,3.9139 -14.188,5.0147 z" />
  <path
     style="fill:url(#s)"
     id="path61"
     fill-rule="evenodd"
     fill="url(#s)"
     d="m 25.603,55.9 2.0793,-4.2809 3.6693,-2.2016 6.3601,-1.1008 7.8279,-0.61155 -0.12231,2.6908 2.4462,11.864 h -5.7486 l -7.5832,-0.97848 -5.504,-1.7123 -3.1801,-1.8346 -0.24462,-1.8347 z" />
  <path
     style="fill:#0f4c5c;fill-opacity:1"
     id="path63"
     fill-rule="evenodd"
     fill-opacity=".15686"
     d="m 21.322,96.135 -0.85617,-25.441 5.7486,2.5685 6.7271,1.59 15.533,1.1008 10.029,-1.4677 5.504,-1.3454 7.2163,-4.0362 v 1.59 l -0.61155,26.174 -6.6048,3.1801 c -4.6478,2.6565 -9.2956,3.9045 -13.943,4.2809 l -10.519,-0.12231 -9.7848,-2.6908 -5.8709,-3.4247 -2.5685,-1.957 z" />
  <path
     style="fill:#0f4c5c;fill-opacity:1"
     id="path65"
     fill-rule="evenodd"
     fill-opacity=".15686"
     d="m 14.84,57.245 2.3239,3.1801 7.094,4.8924 10.029,2.5685 11.986,0.61155 9.1733,-0.85617 8.4394,-2.2016 5.9932,-3.1801 2.3239,-2.0793 2.3239,-4.5255 0.36693,7.4609 -2.8131,5.504 -4.5255,2.6908 -6.2378,2.4462 -13.821,1.8347 -11.375,-0.36693 -7.5832,-1.2231 -4.7701,-1.8347 -4.4032,-1.957 -3.4247,-3.4247 -1.3454,-2.6908 0.24462,-6.8494 z" />
  <path
     style="fill:#0f4c5c;fill-opacity:1"
     id="path67"
     fill-rule="evenodd"
     fill-opacity=".15686"
     d="m 25.603,55.9 2.0793,-4.2809 3.6693,-2.2016 6.3601,-1.1008 7.8279,-0.61155 -0.12231,2.6908 2.4462,11.864 h -5.7486 l -7.5832,-0.97848 -5.504,-1.7123 -3.1801,-1.8346 -0.24462,-1.8347 z" />
  <path
     style="fill:#0f4c5c;fill-opacity:1"
     id="path69"
     fill-rule="evenodd"
     fill="url(#r)"
     d="m 47.986,64.339 -2.8131,-13.943 2.0793,1.2231 3.7916,1.1008 3.0578,0.12231 5.8709,-0.24462 1.957,-0.61155 3.4247,-1.4677 -1.7123,13.21 -2.0793,0.85617 -6.6048,1.7123 -4.1586,-0.85617 -2.8131,-1.1008 z" />
  <path
     style="fill:#0f4c5c;fill-opacity:1"
     id="path71"
     fill-rule="evenodd"
     fill="url(#q)"
     d="m 45.806,48.664 4.5838,-2.1622 3.9784,-0.95135 3.4595,0.17297 5.3622,1.2973 2.4216,1.9027 0.07088,0.85675 -2.9249,1.9973 -2.854,0.69189 -5.0162,0.51892 -6.6595,-0.95135 -2.5946,-1.3838 -0.08649,-1.1243 0.25946,-0.86487 z" />
  <path
     style="fill:#0f4c5c;fill-opacity:1"
     id="path73"
     fill-rule="evenodd"
     fill="url(#p)"
     d="m 47.622,51.518 1.3838,-0.95135 3.027,-1.4703 3.027,-0.77838 2.7676,0.25946 1.6432,0.25946 1.9027,0.43243 3.2,1.4703 c -1.737,1.0977 -3.4692,2.2067 -5.8811,1.7297 l -4.8432,0.43243 -3.6246,-0.32253 -2.6024,-1.0613 z" />
  <path
     style="fill:#0f4c5c;fill-opacity:1"
     id="path75"
     fill-rule="evenodd"
     fill="#1a1a1a"
     d="m 45.21689,53.92021 4.64217,1.10153 7.396,0.23604 4.72085,-0.78681 3.54064,-0.94417 0.23604,0.86549 -0.31472,1.18021 -3.54064,0.94417 -5.90106,0.86549 -7.396,-0.47208 -3.06855,-0.78681 -0.62945,-0.3934 -0.31472,-0.94417 0.62945,-0.86549 z" />
  <path
     style="fill:#0f4c5c;fill-opacity:1"
     id="path77"
     fill-rule="evenodd"
     fill="#1a1a1a"
     d="m 46.554,60.687 3.0686,0.94417 3.2259,0.31472 3.3833,-0.07868 2.9899,-0.3934 4.0914,-0.86549 h 1.1802 l -0.07868,1.4949 -1.4949,0.47208 -3.6193,0.78681 -2.2817,0.31472 h -4.4061 l -3.3833,-0.55077 -2.2817,-0.55076 -0.3934,-1.8883 z" />
  <path
     style="fill:#0f4c5c;fill-opacity:1"
     id="path79"
     fill-rule="evenodd"
     fill="url(#o)"
     d="m 18.515,60.131 0.89017,-43.507 5.8974,13.909 0.22254,29.821 -1.7803,0.44509 -2.0029,0.44509 -2.2254,-0.44509 -1.0014,-0.66763 z" />
  <path
     style="fill:#0f4c5c;fill-opacity:1"
     id="path81"
     fill-rule="evenodd"
     fill="url(#n)"
     d="m 62.134,46.222 0.33382,-5.6748 1.6691,-0.55636 1.7803,-2.448 0.66763,-2.7818 -1.1127,-2.448 3.8945,-0.89017 v 18.582 l -1.7633,0.98444 -2.7538,0.12827 0.70074,-1.3021 -0.74578,-1.8135 -2.2254,-1.224 -0.44509,-0.55636 z" />
  <path
     style="fill:#0f4c5c;fill-opacity:1"
     id="path83"
     fill-rule="evenodd"
     fill="url(#m)"
     d="M 31.756,41.549 20.406,14.51 66.472,4.384 80.158,28.307 31.755,41.548 Z" />
  <path
     style="fill:#0f4c5c;fill-opacity:1"
     id="path85"
     fill-rule="evenodd"
     fill="url(#l)"
     d="m 4.495,36.096 14.688,-21.03 h 1.224 l 11.35,26.705 -2.1142,0.72326 -10.014,-25.314 -12.907,18.582 -2.2254,0.33382 z" />
  <path
     style="fill:url(#k)"
     id="path87"
     fill-rule="evenodd"
     fill="url(#k)"
     d="m 6.943,35.429 12.574,-18.36 -0.66763,16.468 -11.906,1.8916 z" />
  <path
     style="fill:#0f4c5c;fill-opacity:1"
     id="path89"
     fill-rule="evenodd"
     fill-opacity=".15686"
     d="m 6.943,35.429 12.574,-18.36 -0.66763,16.468 -11.906,1.8916 z" />
  <path
     style="fill:#0f4c5c;fill-opacity:1"
     id="path91"
     fill-rule="evenodd"
     fill-opacity=".15686"
     d="m 4.495,36.096 14.688,-21.03 h 1.224 l 11.35,26.705 -2.0029,0.55636 -10.126,-25.147 -12.907,18.582 -2.2254,0.33382 z" />
  <path
     style="fill:#0f4c5c;fill-opacity:1"
     id="path93"
     fill-rule="evenodd"
     fill="url(#j)"
     d="m 65.965,32.233 0.36693,1.2231 0.18347,2.6908 -2.0793,3.547 -35.837,8.6229 -0.06116,-3.4247 -1.162,-4.8313 1.3454,0.06116 0.91733,2.4462 2.5685,-1.0396 32.045,-8.8064 1.7123,-0.48924 z" />
  <path
     style="fill:#0f4c5c;fill-opacity:1"
     id="path95"
     fill-rule="evenodd"
     fill="url(#i)"
     d="m 19.386,36.049 1.4584,-0.04419 2.6958,1.5026 2.1655,3.3146 0.57453,2.1213 0.7513,4.0217 -0.35355,3.6239 -1.8562,4.331 -3.0052,2.1655 -1.4142,0.53033 c 0,0 -1.5468,-0.22097 -1.9445,-0.39775 -0.3977,-0.17678 -3.9333,-5.5685 -3.9333,-5.5685 l -0.53033,-5.0823 c 0,0 0.39775,-3.8891 0.53033,-4.3752 0.13258,-0.4861 1.9887,-3.8449 1.9887,-3.8449 l 2.8726,-2.2981 z" />
  <path
     style="fill:#0f4c5c;fill-opacity:1"
     id="path97"
     fill-rule="evenodd"
     fill="url(#h)"
     d="m 19.872,35.828 1.5468,-0.04419 2.0771,0.53033 1.9004,1.2816 1.9004,2.5633 0.88388,2.6075 0.44194,4.2426 -0.66291,4.4636 -1.9004,3.2704 c 0,0 -1.0165,1.4142 -1.1932,1.5468 -0.1767,0.1326 -1.2816,0.61872 -1.2816,0.61872 l -1.149,0.44194 -1.812,0.17678 c 0,0 0.7513,-0.39775 1.3258,-0.57452 0.5745,-0.17677 2.2097,-1.6794 2.2097,-1.6794 l 1.8562,-3.0936 0.88388,-2.6516 v -2.3423 l -0.35355,-3.7123 -1.149,-3.6681 -1.591,-2.1213 -1.7236,-1.1048 -1.7236,-0.53033 -0.48614,-0.22097 z" />
  <path
     style="fill:#0f4c5c;fill-opacity:1"
     id="path99"
     fill-rule="evenodd"
     fill="url(#g)"
     d="m 11.608,48.954 4.331,-1.9445 1.7678,-1.0607 0.7513,2.2539 c 0,0 -1.5026,0.17678 -1.9445,0.44194 -0.4419,0.26516 -3.1378,1.812 -3.1378,1.812 l -1.0165,0.7513 0.04419,-1.2816 -0.7955,-0.97227 z" />
  <path
     style="fill:#0f4c5c;fill-opacity:1"
     id="path101"
     fill-rule="evenodd"
     fill="url(#f)"
     d="m 17.397,48.689 0.7513,1.812 1.37,0.97227 1.0165,0.22097 0.7513,-0.30936 0.66291,-0.83969 0.70711,-2.3865 -0.08839,-3.1378 -0.83969,-1.8562 -1.6352,-1.0607 h -1.0165 l -1.37,0.7955 -0.66291,1.2816 -0.22097,2.2539 1.2816,-0.57453 0.13258,2.3423 -0.83969,0.48613 z" />
  <path
     style="fill:#0f4c5c;fill-opacity:1"
     id="path103"
     fill-rule="evenodd"
     fill="url(#e)"
     d="m 7.63,50.545 3.8891,-1.37 1.0165,0.61872 -0.35355,1.5468 -3.2262,2.1213 -1.0607,-1.37 -0.26516,-1.5468 z" />
  <path
     id="path105"
     fill-rule="evenodd"
     fill-opacity="0.15686"
     d="m 7.63024,50.58894 1.41421,0.44194 0.22097,0.44194 0.22097,1.14905 -0.39775,0.7513 -1.14905,-1.41421 -0.35355,-0.88388 0.04419,-0.48614 z" />
  <path
     style="fill:#0f4c5c;fill-opacity:1"
     id="path107"
     fill-rule="evenodd"
     fill-opacity=".15686"
     d="m 19.828,42.236 1.1932,1.6352 0.83969,1.4584 0.22097,0.7955 -0.13258,2.3865 -1.6352,2.4307 -0.53033,0.61872 1.0165,0.04419 0.88388,-0.70711 0.7513,-1.812 0.13258,-1.9887 0.08839,-1.37 -0.70711,-2.0771 -0.7513,-0.97227 -1.37,-0.44194 z" />
  <path
     style="fill:#0f4c5c;fill-opacity:1"
     id="path109"
     fill-rule="evenodd"
     fill="url(#d)"
     d="m 18.23684,45.50661 0.22097,2.69584 1.28163,-0.30936 1.01647,-0.7513 0.22097,-0.88388 -0.70711,-1.10485 -1.14905,0.04419 z" />
  <path
     style="fill:#ffffff"
     id="path111"
     d="M 66.375,4 18.875,14.6875 4,36.375 18.71875,33.9375 18.6875,36 c -3.88185,2.17524 -4.83285,6.66374 -5.03125,10.8125 0,0.3727 0.03281,0.73245 0.0625,1.09375 -0.81572,0.36627 -1.63632,0.695 -2.46875,1.03125 L 7.375,50.5 c -0.40375,1.36977 1.04593,2.28926 1.5625,3.25 l 3.53125,-2.21875 c 0.03399,-0.12243 0.06644,-0.22942 0.09375,-0.34375 0.48022,-0.30255 0.95558,-0.60574 1.4375,-0.875 0.20174,0.99267 0.48602,1.92831 0.84375,2.78125 -0.6837,1.3324 -0.61521,2.67977 -0.40625,4.09375 -0.01458,1.87863 0.19972,3.77448 0,5.90625 0.13507,3.72579 2.97878,6.00718 5.84375,7.875 l 1.03125,25.5 c 9.11915,7.0427 17.39237,8.80034 28.59375,8.125 9.24894,-1.15571 16.01434,-4.65902 21.0625,-7.46875 l 0.5625,-27.875 c 1.9786,-1.55232 3.17224,-3.65129 3.40625,-6.15625 C 74.9201,60.611 74.80105,58.12775 74.75,55.65625 74.63563,52.18944 72.0763,49.94755 69.4375,48.125 L 69.3125,31.5625 80.71875,28.375 Z M 66.0625,4.9375 79.71875,27.96875 31.78125,41.375 21.34375,15.15625 Z M 55,8.4375 54.71875,8.5 56,10.65625 l -2.9375,0.625 -0.03125,0.28125 3.09375,-0.71875 2.125,3.59375 0.21875,0.03125 -2.125,-3.6875 8.09375,-1.875 H 64.28125 L 56.25,10.59375 Z M 43.03125,12.15625 42.5625,12.25 c 0.10295,0.22305 0.7694,1.5925 1.15625,2.40625 L 25.125,19.03125 23.90625,16 l -0.4375,-0.125 1.3125,3.21875 -0.78125,0.1875 0.21875,0.25 0.65625,-0.15625 7.78125,19.21875 h 0.375 L 25.25,19.28125 43.84375,14.9375 c 0.95874,2.01536 1.54217,3.22888 2.6875,5.625 l -5.46875,1.28125 0.21875,0.25 5.375,-1.28125 c 0.84521,1.7681 2.03125,4.28125 2.03125,4.28125 l 0.34375,0.0625 c 0,0 -1.17761,-2.5582 -2.03125,-4.40625 l 19.34375,-4.5625 4.90625,9.21875 -6.21875,1.8125 0.3125,0.1875 6.0625,-1.71875 0.96875,1.8125 0.25,0.03125 -1,-1.90625 3.34375,-0.96875 -0.1875,-0.25 L 71.5,25.34375 66.65625,16.125 71,15.09375 l -0.25,-0.1875 -4.21875,1 -1.8125,-3.46875 -0.375,0.03125 1.875,3.5 L 46.875,20.5 c -1.12601,-2.43773 -1.67038,-3.65702 -2.59375,-5.65625 l 3.46875,-0.8125 -0.25,-0.25 -3.34375,0.78125 c -0.37083,-0.80292 -1.03003,-2.20048 -1.125,-2.40625 z m -23.71875,3.1875 1.03125,0.03125 10.875,26.40625 -1.28125,0.5 L 19.84375,16.125 C 19.46605,15.96922 19.71004,16.2873 19.375,16.03125 L 6.40625,35.4375 l -1.375,0.40625 z m 0.25,2.21875 5.28125,12.625 -0.1875,6.625 C 23.29024,35.89461 21.57625,35.45861 19.5,35.75 l 0.0625,0.0625 c -0.08138,-1.9e-4 -0.1703,-0.03524 -0.25,-0.03125 z M 19.03125,18.21875 18.75,32.875 7.5,35.125 Z m 45.8125,2.25 L 54.5625,22.9375 53.71875,21.03125 53.34375,21 54.25,23.03125 l -1.59375,0.375 0.3125,0.1875 L 54.34375,23.25 57,29.125 40.53125,33.15625 35.6875,21.1875 l -0.375,-0.09375 5,12.125 -3.375,0.8125 0.375,0.0625 3.0625,-0.75 1.3125,3.21875 0.28125,0.09375 -1.375,-3.375 16.46875,-4 1.40625,3.125 0.25,0.03125 -1.40625,-3.21875 3.15625,-0.78125 -0.15625,-0.125 -3.0625,0.75 -2.59375,-5.875 10.25,-2.53125 z m -47.4375,3.875 -4.34375,7.0625 -2,-0.03125 -0.4375,0.40625 2.25,-0.03125 -0.40625,0.625 0.34375,0.21875 0.5,-0.875 3.9375,-0.0625 -0.15625,0.375 0.03125,0.09375 0.21875,-0.46875 h 0.75 l 0.25,-0.21875 h -0.875 L 18.25,29.84375 18,29.71875 17.34375,31.4375 13.5,31.40625 17.46875,24.375 Z m 51.15625,7.3125 0.40625,18.0625 c -1.1378,0.9572 -2.51985,1.30532 -3.25,1.25 C 66.24908,49.37353 65.50926,48.4548 64.5,47.375 c -0.25137,-0.88945 -0.8512,-1.74191 -1.65625,-2.5 l 0.03125,-4.15625 1.75,-0.4375 c 1.97864,-2.42188 2.68253,-4.94949 1.65625,-7.875 z m -43.125,0.625 2.9375,7.53125 -1,0.21875 C 26.88204,39.0524 26.25612,38.19846 25.5,37.5 Z M 65.625,32.6875 c 1.3286,2.42875 0.08387,4.85523 -1.46875,6.6875 L 61.625,40 60.78125,33.9375 Z m -5.46875,1.5625 0.9375,5.78125 -3.25,0.84375 -1.40625,-5.78125 z m -4.25,1.0625 L 57.375,41 54.71875,41.875 53.4375,36 Z m -35.0625,0.65625 C 31.16381,35.96535 29.81354,57.16198 21.5,57.40625 23.86955,56.68466 25.84809,54.65038 26.8125,51 c 0.7983,-3.00981 0.27908,-6.35106 -0.5625,-9.65625 -0.77265,-2.9885 -3.16792,-4.83721 -5.40625,-5.375 z m -0.4375,0.1875 c 1.53329,-1e-5 3.03073,1.47352 4.125,3.3125 1.09427,1.83898 2.25,4.72392 2.25,7.59375 -0.14669,4.30899 -1.71441,9.0965 -6.28125,10.34375 -3.54996,-0.69945 -5.04192,-4.10439 -5.71875,-7.5 0.74997,-0.38938 1.4993,-0.74742 2.28125,-1.0625 0.66822,2.08993 1.39331,2.67412 2.78125,2.875 1.86549,0.40762 2.48075,-1.32226 3,-4.71875 0.11775,-3.24611 -1.69002,-5.45912 -3.90625,-5.09375 V 41.9375 H 18.875 c -0.91985,0.46055 -1.48611,0.94961 -2.03125,1.78125 -0.30792,0.64811 -0.31673,1.77582 -0.1875,2.65625 -0.72668,0.4461 -1.48456,0.85501 -2.25,1.21875 -0.03286,-0.32855 -0.06907,-0.6613 -0.09375,-0.96875 0.05921,-4.38506 1.53615,-9.23934 6.09375,-10.46875 z m 32.53125,0 0.96875,5.6875 L 52,42.3125 50.6875,36.78125 Z m -2.875,0.875 1.375,5.59375 -2.625,0.5625 -1.15625,-5.5625 z m -2.90625,0.875 1.03125,5.4375 L 45.5,43.875 44.59375,38.46875 Z m -3.1875,0.84375 1.125,5.34375 -1.8125,0.3125 -1.71875,-5.09375 z m -2.8125,0.5 1.46875,5.5 -2.4375,0.40625 -0.40625,-5.34375 z m -1.875,0.71875 0.28125,5.4375 -2.15625,0.40625 -0.75,-5.125 z M 28.75,40.75 l 0.75,1.9375 2.71875,-0.75 0.25,5.09375 L 30.75,47.4375 28.125,40.90625 Z m 33.125,0.1875 -0.03125,3.125 c -0.57573,-0.38684 -1.19968,-0.71407 -1.875,-0.9375 -1.20546,-0.39884 -2.56472,-0.65776 -3.9375,-0.78125 z M 36.03125,41 l 0.75,4.875 -3.65625,1.09375 -0.375,-5.125 z m -17,1.28125 c 1.35166,0.02312 2.41476,2.40645 2.875,4.0625 0.2737,1.94113 -0.75264,3.71002 -2.21875,4.875 -1.32355,-0.20689 -1.58046,-1.4646 -2.03125,-2.59375 l 0.65625,-0.25 1.90625,-0.40625 c 1.17302,-0.99188 0.85027,-1.49966 0.75,-2.15625 -0.44792,-0.96462 -0.89583,-0.66974 -1.34375,-1 l -1.4375,0.5 c -0.31696,0.2426 -0.63948,0.46951 -0.96875,0.6875 -0.11594,-0.66159 -0.075,-1.32578 0.15625,-1.8125 0.22881,-0.48158 0.50628,-1.53075 1.65625,-1.90625 z m 1.1875,0.125 c 1.55274,0.48695 2.24845,2.26114 2.34375,4.28125 -0.20613,2.25493 -0.46954,4.70784 -2.34375,4.75 1.63486,-1.2297 1.95723,-2.90406 2,-5.125 -0.22844,-1.17501 -0.83917,-3.04157 -2,-3.90625 z m 34.90625,0.5 c 0.83933,-0.03619 2.19818,0.16618 4.875,0.65625 0.61926,0.11337 1.85845,0.65231 1.9375,1.53125 -1.7432,-0.48173 -5.97697,-1.5544 -7.9375,-1.875 0.30833,-0.18363 0.6214,-0.29079 1.125,-0.3125 z m -26.625,0.4375 1.6875,4.25 -1.4375,0.34375 c 0.11519,-1.53576 0.04582,-3.11103 -0.25,-4.59375 z m 21.5625,0.375 c 0.14835,-0.01356 0.27735,-0.0074 0.40625,0 4.20828,0.36302 8.04564,1.12207 11.375,2.15625 v 0.4375 C 60.05395,45.81262 57.82694,45.5 55.375,45.5 c -3.07294,-0.0018 -6.95409,0.96665 -9.71875,2.34375 0.03638,-0.70064 0.53745,-2.1163 0.96875,-2.625 0.93902,-0.80603 2.39909,-1.40506 3.4375,-1.5 z m -3.53125,0.9375 c -0.93758,0.67924 -1.33884,2.35154 -1.625,2.84375 -4.14133,0 -7.97862,0.4496 -11.21875,1.21875 l -0.625,-1.03125 z m -26.9375,0.53125 c 1.38944,0.46947 1.80896,1.56132 0.0625,2.375 L 18.71875,47.75 18.5,45.6875 Z m 43.25,0.125 c 0.26632,0.27843 1.09018,1.62231 1.25,1.90625 -0.20017,-0.08733 -1.02844,-0.51394 -1.25,-0.59375 z m -7.5,0.625 c 3.10055,0.26188 8.48578,0.6963 10.28125,3.53125 -0.26275,0.41468 -0.62601,0.75215 -1.03125,1.0625 -2.96821,-1.32945 -6.10014,-2.41055 -8.875,-2.28125 -2.78742,0.12989 -5.65282,1.43205 -8.1875,3.15625 -0.04002,-0.01544 -0.08506,-0.01552 -0.125,-0.03125 -1.1122,-0.24712 -1.81123,-1.5524 -1.34375,-2.5625 2.60479,-1.66523 6.27111,-2.79662 9.28125,-2.875 z M 17.5625,46.34375 17.75,48 c -2.08555,0.72927 -3.50163,1.80967 -5.125,2.84375 0.10227,-0.62487 0.0077,-1.14099 -0.59375,-1.6875 2.08759,-0.83937 4.04607,-1.21306 5.53125,-2.8125 z m 15.375,1.375 0.59375,1.03125 c -1.10322,0.267 -2.15067,0.56625 -3.09375,0.90625 -0.76569,0.27604 -1.43498,0.58156 -2.0625,0.90625 0.14863,-0.62209 0.23658,-1.25481 0.3125,-1.90625 z m 12.25,0.34375 -0.5625,1.65625 0.75,3.75 c -0.97674,0.45432 -1.00974,1.29806 -0.71875,1.96875 l -0.0625,-0.09375 c -2.22438,-0.17261 -3.69525,-0.11782 -5.4375,0.03125 -1.94726,0.16661 -3.60171,0.52967 -4.96875,1 l -0.28125,-7.25 c 3.6844,-0.8261 7.54599,-0.96175 11.28125,-1.0625 z m 10.5625,0.5 c 2.81375,-0.08711 5.72253,0.68609 8.5,2.25 -2.41219,1.54926 -6.50652,1.73946 -9,1.96875 -2.5836,-0.02186 -5.11026,-0.39529 -7.5,-1.28125 2.42414,-1.88238 5.15456,-2.84941 8,-2.9375 z m -22.125,0.65625 0.3125,7.25 c -2.0987,0.76686 -3.49899,1.81539 -4.25,2.96875 -1.23528,-0.52544 -2.23888,-1.09699 -2.96875,-1.71875 -0.34286,-0.29207 -0.59457,-0.60506 -0.8125,-0.90625 -0.12462,-0.34911 -0.18575,-0.69391 -0.21875,-1.03125 1.06475,-1.07289 1.85092,-2.5524 2.375,-4.21875 0.72283,-0.56492 1.57682,-1.12211 2.625,-1.5 0.95747,-0.34669 1.94626,-0.6112 2.9375,-0.84375 z m 35.8125,0.09375 c 2.40285,1.51454 3.79448,3.58738 4.3125,6.34375 0,1.2679 -0.49002,2.504 -1.40625,3.6875 l -6.96875,-3.75 C 66.32608,55.10238 65.69033,52.80692 65.34375,53.375 L 65.625,51.53125 c 2.82176,-0.0794 3.68552,-0.89818 3.8125,-2.21875 z m -57.875,0.09375 c 0.83599,0.43854 0.40473,1.00999 0.53125,1.625 C 9.93549,52.59946 9.86961,52.63373 9.5,52.875 9.40652,52.93602 9.37022,52.9696 9.1875,53.09375 8.36264,52.48222 7.84902,51.55394 7.75,50.6875 Z M 9.5,52.875 c 0.60796,-0.66617 0.22986,-2.28585 -1,-1.96875 H 8.4375 c 0.49077,0.16872 1.13174,1.18919 0.84375,1.90625 z m 36.4375,-1.75 c 0.56612,0.43021 1.28915,0.79056 2.1875,1.09375 1.8881,0.63724 4.44021,1.03125 7.25,1.03125 3.22045,0.01235 6.44979,-0.43732 9.28125,-2 l -0.375,2.34375 C 63.814,53.68466 62.53032,54.10542 62.0625,54.1875 l 0.125,-0.875 -0.28125,-0.03125 -0.0625,0.90625 c -1.15334,0.18472 -2.54209,0.41628 -3.6875,0.53125 l -0.0625,-0.625 h -0.1875 l -0.03125,0.625 c -1.12174,0.09002 -2.71264,0.24731 -3.8125,0.25 -0.02116,-0.27908 0.09987,-0.8881 0.0625,-1.0625 h -0.25 C 53.88814,53.96755 53.79288,54.80808 53.8125,55 52.65034,54.97133 50.74583,54.74464 49.625,54.59375 L 49.5,53.53125 49.1875,53.5 l 0.15625,1.09375 c -0.71821,-0.12538 -2.18056,-0.59539 -2.875,-0.78125 z M 65.5,53.8125 c 0.03382,0.38384 0.25146,0.85454 -0.28125,1.375 C 58.53767,58.00504 52.1666,57.23868 45.625,56 c -1.27457,-0.55464 -0.74736,-1.58452 -0.3125,-1.9375 5.34053,2.60683 16.39221,1.26572 20.1875,-0.25 z m -50.0625,0.53125 c 0.73372,1.46925 1.57032,2.11771 2.90625,2.96875 l -0.125,3.09375 c 0.50901,0.21008 0.87574,0.44975 1.25,0.65625 H 18.375 c -1.89992,-1.66852 -3.16619,-3.83662 -2.9375,-6.71875 z m 26.3125,1.1875 c 0.55309,-0.0037 1.12861,0.0066 1.71875,0.03125 L 43.5,61.96875 c -4.93426,-0.12604 -9.37726,-0.89164 -12.625,-2.0625 -0.38065,-0.13723 -0.74642,-0.29169 -1.09375,-0.4375 h 0.0625 c 1.09844,-1.77509 5.09466,-3.89143 11.90625,-3.9375 z m 1.96875,0.0625 1.0625,0.0625 c 0.3408,0.58997 0.89731,0.97687 1.1875,0.6875 l 0.84375,4.34375 c -0.25179,0.18737 -0.55671,0.09922 -0.15625,1.1875 -0.33187,0.0085 -1.41151,0.125 -1.75,0.125 -0.41248,0 -0.81252,-0.02226 -1.21875,-0.03125 z m 21.1875,0.125 7.28125,3.8125 c -0.19619,0.23925 -0.39233,0.48381 -0.625,0.71875 -4.45807,3.96497 -10.20787,5.99578 -16.125,7.0625 l -0.875,-0.9375 c 3.50969,0.11139 6.77183,-0.78131 9,-2.46875 l 0.15625,-0.125 0.03125,-0.21875 0.1875,-1.28125 c 0.80733,0.37817 1.10929,-2.2473 0.25,-1.9375 z m -39.6875,0.5 v 3.96875 c -1.8383,0.47496 -4.0738,1.84545 -6.34375,-0.15625 L 18.84375,57.6875 c 0.69724,0.046 1.3714,0.01095 2.03125,-0.125 1.71509,0.16 3.16902,-0.36031 4.34375,-1.34375 z m 38.59375,0.46875 -0.59375,3.75 -1.40625,0.28125 0.28125,-3.625 C 62.50823,56.999 63.39652,56.79067 63.8125,56.6875 Z m -2.09375,0.5 -0.25,3.5625 c -0.98372,0.16888 -2.29709,0.39703 -3.21875,0.5 l -0.09375,-3.4375 c 1.04596,-0.14941 2.5019,-0.40173 3.5625,-0.625 z m 12.5625,0.03125 c -0.10531,1.41745 -0.05069,4.42012 0.1875,5.6875 -0.23915,1.01649 -0.59772,1.93002 -1.0625,2.78125 l -0.4375,-5.75 c 0.51598,-0.96155 1.03696,-2.22672 1.3125,-2.71875 z m -27.09375,0.0625 c 0.61773,0.18415 1.74332,0.31424 2.375,0.4375 L 50,61.34375 c -0.5542,-0.12101 -1.65084,-0.46096 -2.21875,-0.625 z M 49.84375,57.75 c 1.01683,0.14722 2.76635,0.32781 3.8125,0.34375 0.01559,1.08387 0.0182,2.54198 0.0625,3.625 -0.91806,-0.05366 -2.54377,-0.08841 -3.46875,-0.25 z m 8.03125,0.0625 0.09375,3.46875 c -1.05238,0.08876 -2.92342,0.52086 -3.9375,0.5 -0.02199,-1.08333 -0.10089,-2.57296 -0.125,-3.65625 1.0506,-0.02178 2.89588,-0.18657 3.96875,-0.3125 z M 25.75,58.15625 c 0.07422,0.07216 0.13988,0.15156 0.21875,0.21875 1.0899,0.92846 2.59908,1.73221 4.46875,2.40625 2.22788,0.80318 4.95031,1.41811 7.96875,1.78125 l -3.96875,4.84375 0.03125,0.03125 c -4.10532,-0.78462 -7.79232,-1.9594 -10.8125,-3.25 -1.73056,-0.73504 -3.44883,-1.63315 -4.875,-2.78125 l 1.6875,0.0625 c 0.96517,0.27937 2.30246,0.20066 5.3125,-0.875 z m -10.4375,1.0625 c 0.58327,0.895 1.28152,1.65693 2.0625,2.34375 l -0.34375,5.40625 c -0.74797,-1.12436 -1.31574,-2.39575 -1.59375,-3.875 0.13084,-1.26288 -0.0011,-2.58889 -0.125,-3.875 z m 57.375,1.21875 0.5,5.65625 C 70.05219,71.30356 62.86338,73.40526 55.90625,74.375 l -0.25,-6.40625 c 6.10729,-0.93358 12.05107,-2.84648 16.625,-7 0.12213,-0.12332 0.26779,-0.30673 0.40625,-0.53125 z M 64.125,60.625 c 0.60482,0.09629 0.30788,0.92634 0,1.4375 -6.51725,1.82224 -12.26719,2.20435 -17.25,0.0625 L 46.65625,61.0625 C 52.58478,63.25399 58.1002,62.10004 64.125,60.625 Z m -46.4375,1.21875 c 1.65544,1.36902 3.64074,2.38148 5.59375,3.28125 3.09172,1.32117 6.84398,2.32657 11,2.96875 l -0.1875,6.375 C 27.53168,73.67071 20.65978,71.92299 17.3125,67.375 Z m 20.96875,0.75 c 1.97447,0.22716 4.07012,0.34375 6.25,0.34375 0.44218,0 1.53562,-0.05173 1.96875,-0.0625 0.22261,0.35669 0.13146,0.14894 0.53125,0.28125 l 0.21875,1.4375 0.0625,0.28125 0.25,0.09375 c 1.9936,0.7988 4.04147,1.24867 6.03125,1.375 l 1.28125,1 c -3.64216,0.64337 -7.34351,0.94115 -10.84375,1.0625 -3.38897,0 -6.61406,-0.34914 -9.625,-0.90625 z m 24.15625,0.34375 0.09375,0.40625 c -3.19221,2.32112 -9.10275,3.03539 -14.40625,1 l -0.09375,-1.0625 c 1.68932,0.41615 3.82502,0.81627 5.4375,0.84375 0.0051,0.08795 -0.03125,0.625 -0.03125,0.625 l 0.3125,0.09375 c 0,0 -0.03039,-0.75325 -0.03125,-0.78125 2.71178,-0.06549 5.69326,-0.29956 8.71875,-1.125 z M 55.4375,68 55.46875,74.46875 C 51.51409,74.99343 47.6581,75.15676 44.6875,75.3125 41.9047,75.08348 38.20693,74.95185 34.375,74.5 l 0.3125,-6.34375 C 37.76819,68.61066 41.05772,68.875 44.5,68.875 48.0336,68.74586 51.75977,68.54791 55.4375,68 Z m 15.78125,1.28125 -0.25,8.9375 c -2.34211,1.10767 -4.68716,2.03846 -7.03125,2.8125 l -0.90625,-7.5 c 2.87505,-1.03663 5.63752,-2.41339 8.1875,-4.25 z m -50.375,2.0625 c 2.08311,1.08474 4.2565,1.90001 6.46875,2.5625 l -0.28125,6.75 c -2.0009,-0.66578 -3.99808,-1.39475 -5.96875,-2.25 z m 41.875,2.3125 0.90625,7.46875 c -5.74964,1.86341 -11.49412,2.73301 -17.1875,2.75 V 76.25 c 5.55567,-0.12984 11.11576,-0.78346 16.28125,-2.59375 z M 27.625,74 c 5.51059,1.60395 11.32043,2.1167 17.0625,2.3125 0.47977,-0.0015 0.95722,-0.02184 1.4375,-0.03125 l -0.0625,7.625 C 39.73652,83.88301 33.4745,82.75773 27.34375,80.75 Z m 43.34375,4.46875 -0.3125,11.34375 c -4.82454,2.03544 -9.6651,3.65525 -14.5,4.65625 L 55.625,83.4375 c 5.06765,-0.89854 10.18574,-2.5348 15.34375,-4.96875 z M 21.0625,78.75 c 4.3181,1.8775 8.67576,3.31517 13.0625,4.25 L 34.0625,94.0625 C 29.80068,92.88445 25.57133,91.00463 21.375,88.25 Z M 34.5,83.0625 c 6.85747,1.41652 13.78435,1.64235 20.8125,0.4375 l 0.53125,11.03125 c -7.18113,1.44737 -14.36922,1.52753 -21.46875,-0.375 z m -13.125,5.375 c 1.80522,1.18667 3.60566,2.20992 5.40625,3.09375 L 26.75,99.40625 C 25.0651,98.4601 23.3572,97.3812 21.625,96.09375 Z m 49.28125,1.59375 -0.1875,6.5 c -1.59259,0.88125 -3.37669,1.82643 -5.3125,2.75 l -0.5,-6.96875 c 1.99001,-0.69124 3.9978,-1.43581 6,-2.28125 z m -43.5,1.6875 c 6.04891,2.9009 12.08159,4.15676 18.125,4.1875 l 0.0625,8.28125 C 39.45407,104.29144 33.4146,103.09069 27.0625,99.59375 Z m 37.25,0.6875 0.5,7 c -4.09418,1.93181 -8.9748,3.72367 -14.9375,4.46875 -1.41028,0.17622 -2.8249,0.27405 -4.25,0.3125 l -0.0625,-8.28125 c 6.22285,-0.0208 12.45631,-1.33586 18.75,-3.5 z" />
</svg>
