<?xml version="1.0" encoding="UTF-8" standalone="no"?>
<svg
   xmlns:dc="http://purl.org/dc/elements/1.1/"
   xmlns:cc="http://creativecommons.org/ns#"
   xmlns:rdf="http://www.w3.org/1999/02/22-rdf-syntax-ns#"
   xmlns:svg="http://www.w3.org/2000/svg"
   xmlns="http://www.w3.org/2000/svg"
   xmlns:sodipodi="http://sodipodi.sourceforge.net/DTD/sodipodi-0.dtd"
   xmlns:inkscape="http://www.inkscape.org/namespaces/inkscape"
   sodipodi:docname="rano.svg"
   inkscape:version="1.0 (4035a4fb49, 2020-05-01)"
   id="svg2586"
   version="1.1"
   viewBox="0 0 106.12075 110.57339"
   height="110.57339mm"
   width="106.12075mm">
  <defs
     id="defs2580" />
  <sodipodi:namedview
     fit-margin-bottom="4"
     fit-margin-right="4"
     fit-margin-left="4"
     lock-margins="true"
     fit-margin-top="4"
     inkscape:window-maximized="1"
     inkscape:window-y="0"
     inkscape:window-x="0"
     inkscape:window-height="1016"
     inkscape:window-width="1920"
     showgrid="false"
     inkscape:document-rotation="0"
     inkscape:current-layer="layer1"
     inkscape:document-units="mm"
     inkscape:cy="227.70231"
     inkscape:cx="131.09324"
     inkscape:zoom="1.3826518"
     inkscape:pageshadow="2"
     inkscape:pageopacity="0.0"
     borderopacity="1.0"
     bordercolor="#666666"
     pagecolor="#ffffff"
     id="base" />
  <metadata
     id="metadata2583">
    <rdf:RDF>
      <cc:Work
         rdf:about="">
        <dc:format>image/svg+xml</dc:format>
        <dc:type
           rdf:resource="http://purl.org/dc/dcmitype/StillImage" />
        <dc:title></dc:title>
      </cc:Work>
    </rdf:RDF>
  </metadata>
  <g
     transform="translate(-53.140647,-170.23619)"
     id="layer1"
     inkscape:groupmode="layer"
     inkscape:label="Calque 1">
    <path
       d="m 149.42661,249.51255 c -0.3392,-0.55716 -0.7198,-1.11148 -1.17452,-1.57576 -0.8734,-0.89196 -1.99244,-1.41816 -3.13024,-1.89088 -2.76712,-1.148 -5.63732,-1.94432 -8.53696,-2.64496 -0.3228,-0.0844 -0.6418,-0.1688 -1.21076,-0.332 5.7816,-2.49864 9.87992,-6.33836 11.80776,-12.32948 1.30108,1.51664 2.86572,1.50816 4.48984,1.24088 0.0592,-0.004 0.1236,-0.024 0.1828,-0.028 1.46516,-0.3152 2.31716,-1.15928 2.44352,-2.6534 0.076,-0.88636 0.016,-1.81492 -0.152,-2.6928 -0.3864,-2.03156 -1.01716,-4.00716 -1.86976,-5.90476 -0.72372,-1.61232 -1.63032,-3.109 -2.87892,-4.39376 -2.57772,-2.6506 -4.76604,-5.60764 -6.76716,-8.70168 -2.5434,-3.93228 -5.04796,-7.88876 -7.60552,-11.81208 -2.33656,-3.58448 -4.0438,-7.45036 -5.36788,-11.48284 -0.378,-1.15364 -0.5926,-2.35796 -0.8478,-3.54708 0.0956,-0.1688 0.1716,-0.3712 0.2084,-0.58244 0.0536,-0.2812 0.032,-0.56276 -0.0536,-0.82444 -0.016,-0.1688 -0.0676,-0.3544 -0.1632,-0.52336 -0.59932,-1.0608 -2.11852,-1.25496 -3.00884,-0.47272 -0.92908,0.816 -0.81456,2.2876 0.1124,3.02652 0.2476,0.72316 0.3432,1.5054 0.48032,2.25384 l 0.1772,0.97076 c -0.0676,-0.0564 -0.138,-0.1124 -0.2024,-0.1408 -0.348,-0.2928 -0.6998,-0.58808 -1.0228,-0.90884 -0.1688,-0.1972 -0.344,-0.3884 -0.52028,-0.57964 -1.25832,-1.542 -2.44912,-3.136 -3.72452,-4.66192 -0.2644,-0.3152 -0.54364,-0.61904 -0.82784,-0.92012 -0.2984,-0.97076 -0.86296,-1.80644 -1.77916,-2.0372 -0.2532,-0.1408 -0.54644,-0.1968 -0.87116,-0.1968 -1.25044,0.028 -2.10356,1.24652 -1.8602,2.43396 0.016,0.0844 0.036,0.1688 0.0676,0.2532 0.0536,0.3628 0.1968,0.72312 0.41248,1.02984 0.47272,0.67812 1.14468,1.09176 1.87796,1.39 0.67304,0.5656 1.42628,1.0608 1.96768,1.4688 0.2756,0.1972 0.53968,0.42772 0.80504,0.64436 0.53068,0.49524 1.06136,0.99048 1.58556,1.49132 0.67812,0.65 1.27184,1.39284 1.85008,2.13568 0.2916,0.3744 0.46316,0.84132 0.75636,1.39284 -0.3872,-0.028 -0.7392,-0.1124 -1.06956,-0.1968 -0.58132,-0.318 -1.14156,-0.66968 -1.68712,-1.04392 -0.70796,-0.771 -1.30928,-1.65452 -2.11544,-2.30732 -0.036,-0.028 -0.0816,-0.0564 -0.124,-0.0844 -0.1856,-0.2928 -0.44372,-0.54588 -0.78084,-0.72316 -0.78168,-0.41644 -1.70908,-0.2252 -2.26736,0.43612 -0.1632,0.0844 -0.3228,0.1972 -0.4578,0.3432 -0.6694,0.67816 -0.76676,1.829 -0.256,2.62812 0.3736,0.58528 1.0186,0.937 1.697,0.99608 0.2336,0.1124 0.46456,0.2252 0.69472,0.3488 0.45328,0.3208 0.95808,0.5768 1.45108,0.84132 2.09712,1.11708 3.9896,2.51836 5.71816,4.145 0.0984,0.0844 0.1856,0.1968 0.27,0.304 -0.0676,-0.012 -0.1576,-0.028 -0.2728,-0.0564 -0.2728,-0.0844 -0.54644,-0.2252 -0.8008,-0.346 -0.70568,-0.3264 -1.38212,-0.70064 -2.11824,-0.95668 -0.59116,-0.1968 -1.20148,-0.332 -1.80868,-0.3432 -0.0844,-0.028 -0.1716,-0.0564 -0.2616,-0.0564 -0.208,-0.1124 -0.4198,-0.1968 -0.62972,-0.2812 -0.54192,-0.1968 -1.12128,-0.2532 -1.66548,-0.02 -0.2196,0.0844 -0.41108,0.2252 -0.57176,0.3912 -0.0956,0.0564 -0.1828,0.1408 -0.2672,0.2252 -0.003,0.002 -0.008,0.004 -0.008,0.004 -0.48316,0.42488 -0.6908,1.00732 -0.65452,1.57572 -0.002,0.028 -0.004,0.0844 -0.004,0.1124 0.003,0.1408 0.0452,0.2928 0.1152,0.42488 0.1604,0.4474 0.48848,0.84412 0.9702,1.08332 0.61428,0.304 1.30056,0.1968 1.88048,-0.1124 0.1464,-0.0844 0.3,-0.1688 0.4578,-0.2532 1.24876,-0.1408 2.4604,-0.0564 3.638,0.2532 0.5456,0.2812 1.09992,0.50648 1.67448,0.59932 0.0452,0.02 0.0816,0.028 0.1212,0.0564 2.31236,1.08612 4.23812,2.67876 6.03316,4.73168 -0.2956,-0.1124 -0.44232,-0.1408 -0.56812,-0.1968 -1.83176,-1.00172 -3.80152,-1.64324 -5.7532,-2.34108 -3.00064,-1.07768 -5.59408,-0.42488 -7.9182,1.55604 -1.39844,1.19024 -1.76816,2.85796 -1.00536,4.55808 0.18,0.3996 0.4066,0.78224 0.65448,1.1424 0.3376,0.4924 0.72512,0.94824 1.07628,1.43224 0.89368,1.2296 1.6548,2.5296 1.94856,4.03752 0.1096,0.56836 0.1912,1.1424 -0.003,1.75016 -2.51888,-0.861 -4.99296,-1.5532 -7.70288,-1.7164 0.1324,-0.60216 0.2532,-1.1368 0.37,-1.6742 0.3,-1.36752 0.6306,-2.75192 0.2756,-4.15292 -0.70852,-2.79128 -1.44852,-5.57892 -2.253,-8.34712 -0.32,-1.10584 -0.76312,-2.19476 -1.29464,-3.21928 -0.92968,-1.78956 -2.36556,-3.0704 -4.26968,-3.80876 -1.53296,-0.59372 -3.1006,-1.08332 -4.72712,-1.21276 -4.743998,-0.3744 -9.001558,-2.09628 -12.983798,-4.65796 -1.57008,-1.01016 -3.23844,-1.82052 -5.0716,-2.21164 -0.2616,-0.0564 -0.5346,-0.0844 -0.80612,-0.1124 -0.0816,-0.0564 -0.166,-0.1124 -0.2532,-0.1688 -0.0844,-0.0564 -0.1716,-0.1124 -0.2644,-0.1408 -0.6694,-0.3068 -1.465708,-0.1124 -1.964032,0.41084 -0.976388,1.02984 -0.34552,2.74344 1.017192,3.00512 0.463148,0.0844 0.94964,-0.024 1.33908,-0.2812 0.2872,0.028 0.6002,0.028 0.83344,0.1688 1.19896,0.6922 2.17,1.65172 3.10728,2.70972 -0.1576,0.0844 -0.2336,0.1408 -0.3144,0.1688 -1.53072,0.4446 -3.077,0.75972 -4.700548,0.64436 -0.09568,-0.004 -0.18572,-0.008 -0.27576,-0.008 -0.14068,-0.1408 -0.29544,-0.2812 -0.474124,-0.3828 -1.307292,-0.78784 -3.049628,-0.028 -3.416012,1.4266 -0.38944,1.5504 1.127208,3.06988 2.648352,2.61404 0.32528,-0.004 0.657304,-0.0844 0.968508,-0.2844 0.21104,-0.1408 0.37816,-0.2868 0.516052,-0.45864 0.814332,-0.2252 1.620492,-0.50088 2.437332,-0.7288 1.09792,-0.3068 2.2198,-0.3628 2.9454,-0.1688 -0.076,0.0564 -0.138,0.1408 -0.2052,0.1968 -2.15032,1.10584 -4.20508,2.37484 -6.1634,3.80792 -0.05908,0.008 -0.10972,0.024 -0.166,0.028 -0.3686,-0.028 -0.748468,0.0564 -1.070368,0.2532 -0.863276,0.57404 -0.887192,1.90216 -0.15196,2.58028 0.68038,0.63308 1.800836,0.56836 2.428032,-0.1124 0.12944,-0.1408 0.23356,-0.3124 0.3098,-0.4924 1.117656,-0.55716 2.218976,-1.15648 3.269576,-1.82616 1.44516,-0.92012 3.04004,-1.39004 4.69584,-1.71924 0.45108,-0.0844 0.86864,2.8e-4 1.10416,0.574 -0.41476,0.62748 -0.85908,1.25496 -1.25948,1.9134 -0.0508,0.0844 -0.0928,0.1688 -0.1352,0.2532 -0.024,0.008 -0.0536,0.016 -0.0676,0.02 -0.2812,0.1408 -0.50844,0.2812 -0.64828,0.57404 -0.09,0.1968 -0.1268,0.42768 -0.0984,0.64436 -0.2224,0.92572 0.47804,1.82052 1.446,1.8768 1.07488,0.0564 1.85204,-1.06924 1.54084,-2.06816 -0.016,-0.028 -0.036,-0.0844 -0.0536,-0.1124 0.4488,-0.48116 0.98824,-0.8638 1.48316,-1.30276 0.70204,-0.62188 1.51104,-0.87228 2.40048,-0.82164 0.83372,0.0564 1.67984,0.1688 2.4888,0.3828 1.33204,0.3516 2.625,0.86384 3.960638,1.19588 0.77744,0.1968 1.26312,0.6134 1.42744,1.32248 0.2168,0.9398 0.40208,1.90212 0.43388,2.8574 0.0452,1.43224 -0.0956,2.867 -0.0676,4.3006 0.024,1.14244 -0.3732,2.04848 -1.25328,2.88052 -1.64408,-0.71752 -3.320918,-1.41816 -4.972518,-2.17788 -1.82756,-0.83852 -3.60312,-1.79804 -5.45204,-2.58028 -3.67464,-1.55604 -7.55844,-2.27916 -11.463144,-2.92184 -2.63006,-0.43332 -5.233784,-0.42772 -7.840688,-0.004 -0.861584,0.1408 -1.726828,0.2532 -2.586728,0.41084 -1.50876,0.2532 -2.986568,0.63308 -4.366172,1.3056 -2.87216,1.40408 -4.556108,3.681 -4.824264,6.88872 -0.10692,1.29436 -0.0052,2.61684 0.09284,3.91992 0.22512,2.96632 1.507072,5.48636 3.63242,7.5548 1.71276,1.66576 3.472064,3.30056 5.325008,4.8082 2.765404,2.24824 5.463388,4.5696 7.9843,7.08488 2.113164,2.10752 3.804092,4.5288 4.950868,7.28944 0.98284,2.3664 1.36468,4.80764 1.00424,7.34344 -0.1208,0.8526 -0.56868,1.44632 -1.29996,1.79804 -0.49524,0.2252 -1.05264,0.42488 -1.597392,0.46708 -2.065892,0.1688 -4.12354,0.004 -6.147424,-0.51212 -0.47356,-0.1124 -0.904636,-0.3124 -1.289564,-0.59088 -0.21668,-0.2252 -0.42798,-0.46148 -0.641828,-0.69504 -0.0364,-0.1688 -0.10972,-0.346 -0.19976,-0.48116 -0.05908,-0.0844 -0.14912,-0.1968 -0.22512,-0.2532 -0.0076,-0.008 -0.0224,-0.02 -0.0308,-0.024 -0.0788,-0.0564 -0.19416,-0.1408 -0.2828,-0.1968 -0.0148,-0.008 -0.0224,-0.016 -0.0308,-0.02 -0.539688,-0.2532 -1.213596,-0.1688 -1.615404,0.3012 -0.37084,0.42488 -0.438392,1.01576 -0.19416,1.51664 0.0364,0.0844 0.06752,0.1408 0.11536,0.1968 0.15196,0.1968 0.19416,0.2252 0.37508,0.3572 0.14632,0.0844 0.16884,0.1124 0.33512,0.1688 0.0023,8.8e-4 0.0048,10e-4 0.0076,0.003 0.0308,0.3264 -0.05344,0.66124 -0.28728,1.01016 -0.166,-0.0564 -0.35004,-0.1124 -0.51746,-0.1688 -1.278592,-0.60216 -2.550708,-1.2212 -3.832704,-1.81492 -0.0308,-0.016 -0.05348,-0.028 -0.0844,-0.0564 -0.05908,-0.2252 -0.15476,-0.44456 -0.29772,-0.64996 -0.85624,-1.20996 -2.669172,-1.179 -3.478676,0.0564 -0.7873,1.19304 -0.15476,2.61684 1.016064,3.08756 0.15756,0.0564 0.32076,0.1124 0.489884,0.1408 1.3495,0.62748 2.690556,1.27468 4.09816,1.70236 0.3582,0.2928 0.593432,0.70064 0.569516,1.32812 -1.2845,0.1968 -2.544804,0.2532 -3.826068,0.0564 -0.97498,-0.1408 -1.95306,-0.2956 -2.933192,-0.3996 -0.0148,-0.012 -0.0364,-0.028 -0.05908,-0.0564 -0.34188,-0.2252 -0.781392,-0.332 -1.154784,-0.1968 -0.36636,0.012 -0.730464,0.1124 -1.052364,0.3628 -0.991864,0.74004 -1.049264,2.25952 -0.0788,3.04316 0.851736,0.68372 2.057452,0.46708 2.710252,-0.346 0.649144,-0.0564 1.294068,-0.1968 1.944336,-0.2532 0.94572,-0.0844 1.751592,0.2252 2.45814,1.12832 -1.077408,0.3348 -2.043664,0.65564 -3.022476,0.9342 -0.90182,0.2532 -1.826156,0.43896 -2.72038,0.71472 -0.539688,-0.1124 -1.116516,-0.028 -1.575732,0.2532 -0.833728,0.55712 -1.050952,1.81488 -0.411096,2.60276 0.69304,0.85256 1.984576,0.91728 2.749084,0.1124 0.1604,-0.1688 0.2814,-0.38 0.35596,-0.605 0.18008,-0.0844 0.35596,-0.1968 0.524212,-0.304 0.952188,-0.60776 1.96994,-1.07204 3.073008,-1.29716 1.187704,-0.2532 2.390884,-0.47832 3.600172,-0.54588 3.621924,-0.1968 7.250772,-0.0844 10.87284,0.2252 0.894224,0.0844 1.75384,0.028 2.584476,-0.2532 2.57856,-0.90324 4.97724,-2.12444 6.8598,-4.13884 2.85892,-3.05692 3.89016,-6.55444 2.23388,-10.64348 -0.1068,-0.2532 -0.208,-0.52616 -0.2984,-0.79068 -0.51072,-1.49692 -0.80728,-3.02512 -0.79124,-4.60168 0.0025,-0.2816 0.036,-0.54024 0.0592,-0.8582 5.80708,0.59372 11.396998,2.15536 17.306438,2.87176 -0.37,0.2812 -0.56136,0.42208 -0.76084,0.56276 -2.6748,1.84868 -5.3702,3.66692 -8.015118,5.5564 -0.7178,0.51212 -1.381,1.16492 -1.89564,1.87964 -0.8298,1.15084 -0.63424,2.13848 0.50788,3.01104 0.72288,0.55152 1.49328,1.058 2.2952,1.48004 2.689158,1.41816 5.558478,2.34108 8.501478,3.01248 3.45512,0.78784 6.92648,1.49976 10.38492,2.26792 1.12636,0.2532 2.235,0.58244 3.3516,0.87792 0.004,0.0844 0.004,0.1408 0.008,0.2252 -0.63648,0.42208 -1.28732,0.82728 -1.90776,1.27464 -0.74452,0.53464 -1.56052,0.86948 -2.46572,1.03548 -3.42272,0.63312 -6.77364,0.2812 -10.09268,-0.80192 -2.86524,-0.9342 -5.74384,-1.82616 -8.629358,-2.69 -0.1744,-0.0564 -0.356,-0.0844 -0.53912,-0.1124 -0.036,-0.028 -0.076,-0.0564 -0.124,-0.0844 -0.41252,-0.2532 -0.95808,-0.2956 -1.41252,-0.1408 -0.9806,0.3264 -1.49272,1.54476 -1.07796,2.48456 0.417,0.94264 1.5726,1.49132 2.55324,1.06364 0.1096,-0.0564 0.208,-0.1124 0.3076,-0.1688 0.1124,-2.8e-4 0.2308,-0.003 0.3584,-0.008 0.68348,-0.028 1.355438,-0.1968 2.037198,-0.2868 0.91732,-0.1124 1.52848,0.2956 1.81856,1.16208 -1.38016,1.3 -3.937478,0.95952 -5.690598,0.94544 l -1.00564,-0.008 c -1.17392,-0.2252 -2.33688,-0.1968 -3.49688,-0.028 -0.3528,-0.003 -0.70512,-0.004 -1.0574,-0.008 -0.032,-0.028 -0.0536,-0.0564 -0.0816,-0.0844 -0.3112,-0.2812 -0.73552,-0.41084 -1.14524,-0.3856 -0.40572,0.028 -0.79488,0.2252 -1.0698,0.5262 -0.2844,0.1688 -0.52028,0.42208 -0.64772,0.72032 -0.0816,0.1968 -0.1296,0.3968 -0.138,0.6106 -7.2e-4,0.004 -0.0018,0.008 -0.004,0.016 -0.2084,1.04672 0.63788,2.05124 1.7212,1.93308 0.47044,-0.0564 0.89928,-0.2816 1.2282,-0.6134 1.54928,-0.0564 3.09828,-0.1408 4.64784,-0.1968 0.77912,-0.028 1.56136,-0.028 2.34136,-0.003 0.3164,0.008 0.62972,0.1408 0.94544,0.1968 -0.2672,0.2532 -0.51524,0.3772 -0.77352,0.45584 -4.50104,1.33936 -9.00372,2.67312 -13.50484,4.01416 -0.0956,0.028 -0.1884,0.0564 -0.286,0.0844 -0.1068,-0.0564 -0.2252,-0.0844 -0.346,-0.1124 -0.2984,-0.0564 -0.61564,0.024 -0.86412,0.1968 -0.2308,0.0844 -0.44008,0.2532 -0.59176,0.4474 -0.60072,0.77944 -0.3164,1.85992 0.5248,2.32984 0.77296,0.43052 1.78984,0.028 2.12412,-0.7738 0.024,-0.0564 0.024,-0.0844 0.036,-0.1408 3.27,-0.94544 6.59696,-1.65172 9.97892,-2.1188 0.48396,-0.0564 0.9778,-0.0564 1.6368,-0.0844 -0.194,0.2252 -0.256,0.3264 -0.3432,0.3884 -1.22144,0.84696 -2.44376,1.68548 -3.86112,2.20884 -0.78588,0.29 -1.55772,0.6162 -2.32588,0.95388 -0.48396,-0.1688 -1.02252,-0.1124 -1.45584,0.1688 -0.8402,0.55712 -1.03492,1.70232 -0.47416,2.5296 0.53972,0.79348 1.61064,1.08048 2.44016,0.55712 0.2616,-0.1688 0.4876,-0.41364 0.64856,-0.69784 0.1968,-0.0844 0.3884,-0.1688 0.57036,-0.2812 0.75352,-0.42488 1.48796,-0.89196 2.1942,-1.39 1.977,-1.39848 4.01672,-2.6872 6.241638,-3.66696 2.0912,-0.92012 4.25836,-1.57572 6.57936,-1.60668 3.16448,-0.0564 6.29076,-0.4108 9.42088,-0.79632 2.01184,-0.2532 3.8944,-0.79628 5.66628,-1.73892 2.764,-1.4716 5.53104,-2.93564 8.296,-4.40472 4.2444,-2.25668 8.50316,-4.47788 12.99244,-6.24832 1.31968,-0.52056 2.56592,-1.24372 3.79072,-1.96404 0.60016,-0.3544 1.12184,-0.87508 1.59456,-1.39564 0.49804,-0.54872 0.59036,-1.24652 0.1856,-1.9106"
       style="fill:#5f0f40;fill-opacity:1;fill-rule:nonzero;stroke:#ffffff;stroke-width:1.86121;stroke-miterlimit:4;stroke-dasharray:none;stroke-opacity:1"
       id="path30-9" />
  </g>
</svg>
