<?xml version="1.0" encoding="UTF-8" standalone="no"?>
<svg
   xmlns:dc="http://purl.org/dc/elements/1.1/"
   xmlns:cc="http://creativecommons.org/ns#"
   xmlns:rdf="http://www.w3.org/1999/02/22-rdf-syntax-ns#"
   xmlns:svg="http://www.w3.org/2000/svg"
   xmlns="http://www.w3.org/2000/svg"
   xmlns:sodipodi="http://sodipodi.sourceforge.net/DTD/sodipodi-0.dtd"
   xmlns:inkscape="http://www.inkscape.org/namespaces/inkscape"
   inkscape:version="1.0 (4035a4fb49, 2020-05-01)"
   sodipodi:docname="renkontiÄado.svg"
   viewBox="0 0 429.73993 432.31561"
   height="432.31561"
   width="429.73993"
   xml:space="preserve"
   id="svg3536"
   version="1.1"><metadata
     id="metadata3542"><rdf:RDF><cc:Work
         rdf:about=""><dc:format>image/svg+xml</dc:format><dc:type
           rdf:resource="http://purl.org/dc/dcmitype/StillImage" /><dc:title></dc:title></cc:Work></rdf:RDF></metadata><defs
     id="defs3540"><clipPath
       id="clipPath3552"
       clipPathUnits="userSpaceOnUse"><path
         id="path3550"
         d="M 0,792 H 612 V 0 H 0 Z" /></clipPath></defs><sodipodi:namedview
     fit-margin-bottom="10"
     fit-margin-right="10"
     fit-margin-left="10"
     lock-margins="true"
     fit-margin-top="10"
     inkscape:current-layer="g3544"
     inkscape:window-maximized="1"
     inkscape:window-y="0"
     inkscape:window-x="0"
     inkscape:cy="248.20658"
     inkscape:cx="145.33535"
     inkscape:zoom="1.0390819"
     showgrid="false"
     id="namedview3538"
     inkscape:window-height="1016"
     inkscape:window-width="1920"
     inkscape:pageshadow="2"
     inkscape:pageopacity="0"
     guidetolerance="10"
     gridtolerance="10"
     objecttolerance="10"
     borderopacity="1"
     bordercolor="#666666"
     pagecolor="#ffffff" /><g
     transform="matrix(1.3333333,0,0,-1.3333333,-198.53409,673.95233)"
     inkscape:label="business-2323757"
     inkscape:groupmode="layer"
     id="g3544"><g
       transform="translate(238.2816,381.0339)"
       id="g3554"><path
         id="path3556"
         style="fill:#000000;fill-opacity:1;fill-rule:nonzero;stroke:none"
         d="m 0,0 c -0.774,0.474 -1.53,0.564 -2.394,0.264 -1.471,-0.511 -2.948,-1.016 -4.452,-1.416 -6.073,-1.617 -12.197,-2.86 -18.546,-2.448 -2.174,0.141 -4.363,-0.028 -6.575,0.305 0.125,-0.486 0.503,-0.487 0.771,-0.606 10.848,-4.807 21.701,-9.602 32.551,-14.404 5.37,-2.378 10.733,-4.771 16.107,-7.142 0.3,-0.132 0.638,-0.471 0.971,-0.208 0.225,0.178 0.074,0.528 0.005,0.795 C 15.652,-14.082 9.485,-5.813 0,0" /></g><g
       transform="translate(214.3032,382.4312)"
       id="g3558"><path
         id="path3560"
         style="fill:#000000;fill-opacity:1;fill-rule:nonzero;stroke:none"
         d="M 0,0 C 31.855,-0.038 57.841,25.962 57.818,57.758 57.795,89.634 31.87,115.578 -2.892,115.533 -17.085,115.443 -31.43,108.978 -42.849,96.612 -54.636,83.848 -59.36,68.395 -57.515,51.173 -54.777,25.606 -32.625,0.039 0,0" /></g><g
       transform="translate(399.9104,382.462)"
       id="g3562"><path
         id="path3564"
         style="fill:#000000;fill-opacity:1;fill-rule:nonzero;stroke:none"
         d="m 0,0 c 32.077,-0.094 57.811,25.999 57.851,57.652 0.04,31.681 -25.383,57.772 -57.635,57.807 -17.557,0.019 -32.31,-6.761 -43.879,-19.837 C -53.129,84.923 -57.75,72.157 -57.733,57.764 -57.55,41.956 -51.958,28.338 -40.871,17.112 -29.672,5.771 -15.904,0.047 0,0" /></g><g
       style="fill:#9a031e;fill-opacity:1"
       transform="translate(256.4506,298.3334)"
       id="g3566"><path
         id="path3568"
         style="fill:#9a031e;fill-opacity:1;fill-rule:nonzero;stroke:none"
         d="m 0,0 c -8.844,3.797 -17.669,7.637 -26.475,11.522 -4.44,1.959 -8.808,4.08 -13.242,6.054 -5.623,2.503 -11.282,4.924 -16.92,7.396 -4.191,1.837 -8.367,3.707 -12.558,5.543 -2.235,0.979 -4.493,1.912 -6.725,2.889 -3.367,1.474 -6.42,3.476 -8.785,6.387 -0.211,0.261 -0.323,0.899 -0.833,0.649 -0.408,-0.2 -0.184,-0.729 -0.184,-1.104 -0.015,-22.439 -0.019,-44.878 -0.023,-67.316 -0.002,-12.638 -10e-4,-25.275 -10e-4,-37.912 l -0.038,-43.713 c -1.054,0.171 87.24,0 87.24,0 0,0 0.027,8.467 0.026,12.587 C 1.479,-65.46 1.468,-33.901 1.495,-2.343 1.496,-1.131 1.152,-0.495 0,0" /></g><g
       style="fill:none"
       transform="translate(420.515,272.3055)"
       id="g3570"><path
         sodipodi:nodetypes="zscsccccccczz"
         id="path3572"
         style="fill:none;fill-opacity:1;fill-rule:nonzero;stroke:none"
         d="M 1.8486921,-2.8175504 C 5.2927588,-6.3615536 15.130913,-5.3835273 18.872111,-4.6631809 25.37958,-3.4102047 28.231329,5.3599821 28.287,10.433 28.26,34.586 28.272,58.739 28.269,82.892 c 0,0.48 -0.008,0.96 -0.037,1.439 -0.364,6.003 -4.65,11.209 -10.465,12.765 -2.759,0.738 -5.565,0.415 -8.353,0.418 -3.59,0.004 -6.659,-1.541 -9.198,-3.88 -2.777,-2.558 -4.185,-5.806 -4.153,-9.747 0.1,-12.236 0.037,-24.473 0.037,-36.709 h -0.008 c 0,-12.517 -0.035093,-29.305371 -0.01,-37.549 0.025093,-8.2436292 2.3226254,-8.90254725 5.7666921,-12.4465504 z" /></g><g
       transform="translate(463.6729,188.7282)"
       id="g3578"><path
         id="path3580"
         style="fill:#000000;fill-opacity:1;fill-rule:nonzero;stroke:none"
         d="M 0,0 C 0.045,0.01 0.042,0.019 0,0.028 Z" /></g><path
       transform="matrix(0.75000002,0,0,-0.75000002,0,792.00002)"
       d="m 495.83398,544.37695 c -0.71468,0.0304 -1.38976,0.27927 -2.00976,0.69727 -9.68667,6.536 -16.51759,15.13845 -19.29492,26.67578 -0.728,3.024 -0.95961,6.09069 -0.96094,9.19336 -0.004,74.236 -0.0249,149.18392 0.01,223.41992 4.64384,-0.0325 6.05474,-0.0637 7.97852,-0.0937 v 0.0703 h 95.70313 V 681.70117 h -28.61524 c -0.035,-0.57595 -0.0642,-1.16256 -0.0664,-1.80273 -0.11066,-32.37067 -0.12771,-64.74066 -0.0117,-97.11133 0.0267,-7.51733 2.41698,-14.3342 8.07031,-19.6582 4.04667,-3.81067 8.87624,-5.97197 14.3789,-6.66797 1.72134,-0.21734 3.43658,-0.47729 5.39258,-0.75196 -2.83466,-3.68533 -5.97658,-6.66275 -9.53125,-9.21875 -0.68533,-0.49333 -1.32155,-0.0826 -1.96289,0.16407 -7.93333,3.04533 -16.11022,5.19288 -24.57422,5.93554 -9.912,0.872 -19.67034,-0.29145 -29.26367,-2.93945 -3.19733,-0.88267 -6.33255,-1.84417 -9.19922,-3.57617 -1.616,-0.976 -3.46974,-1.35368 -5.3164,-1.65234 -0.24634,-0.0397 -0.48834,-0.0551 -0.72657,-0.0449 z"
       style="fill:#9a031e;fill-opacity:1;fill-rule:nonzero;stroke:none;stroke-width:1.33333"
       id="path3584" /><g
       style="fill:#9a031e;fill-opacity:1;stroke:#ffffff;stroke-width:6;stroke-miterlimit:4;stroke-dasharray:none;stroke-opacity:1"
       id="g4277"
       transform="translate(417.515,272.3055)"><path
         d="M 1.8486921,-2.8175504 C 5.2927588,-6.3615536 15.130913,-5.3835273 18.872111,-4.6631809 25.37958,-3.4102047 28.231329,5.3599821 28.287,10.433 28.26,34.586 28.272,58.739 28.269,82.892 c 0,0.48 -0.008,0.96 -0.037,1.439 -0.364,6.003 -4.65,11.209 -10.465,12.765 -2.759,0.738 -5.565,0.415 -8.353,0.418 -3.59,0.004 -6.659,-1.541 -9.198,-3.88 -2.777,-2.558 -4.185,-5.806 -4.153,-9.747 0.1,-12.236 0.037,-24.473 0.037,-36.709 h -0.008 c 0,-12.517 -0.035093,-29.305371 -0.01,-37.549 0.025093,-8.2436292 2.3226254,-8.90254725 5.7666921,-12.4465504 z"
         style="fill:#9a031e;fill-opacity:1;fill-rule:nonzero;stroke:#ffffff;stroke-width:6;stroke-miterlimit:4;stroke-dasharray:none;stroke-opacity:1"
         id="path4275"
         sodipodi:nodetypes="zscsccccccczz" /></g><g
       transform="translate(303.3508,296.7905)"
       id="g3586"><path
         id="path3588"
         style="fill:#000000;fill-opacity:1;fill-rule:nonzero;stroke:none"
         d="m 0,0 c 2.278,2.536 3.538,5.683 4.849,8.777 1.081,2.55 2.088,5.163 2.073,7.953 -0.043,7.695 -3.192,13.664 -10.359,16.95 -9.233,4.233 -18.568,8.242 -27.854,12.361 -12.604,5.592 -25.2,11.2 -37.803,16.793 -11.508,5.106 -23.07,10.091 -34.513,15.339 -7.231,3.316 -15.843,1.77 -21.327,-4.139 -1.971,-2.123 -3.1,-4.729 -4.248,-7.326 -1.437,-3.256 -3.036,-6.467 -2.85,-9.209 0.065,-7.854 3.062,-13.101 8.906,-16.642 2.777,-1.684 5.82,-2.88 8.806,-4.171 5.259,-2.273 10.454,-4.694 15.694,-7.01 5.055,-2.235 10.157,-4.368 15.197,-6.636 4.506,-2.029 9.036,-3.996 13.566,-5.97 15.109,-6.585 30.162,-13.299 45.246,-19.943 2.444,-1.077 4.728,-2.502 7.471,-2.909 C -10.412,-6.782 -4.61,-5.131 0,0" /></g><g
       transform="translate(355.3085,375.2346)"
       id="g3590"><path
         id="path3592"
         style="fill:#000000;fill-opacity:1;fill-rule:nonzero;stroke:none"
         d="m 0,0 c -0.397,0.092 -0.59,-0.101 -0.818,-0.277 -3.314,-2.561 -6.669,-5.067 -9.948,-7.676 -5.093,-4.054 -10.434,-7.785 -15.582,-11.772 -8.255,-6.395 -16.612,-12.658 -24.93,-18.971 -1.867,-1.417 -1.875,-1.407 0.125,-2.594 8.288,-4.921 12.719,-14.808 10.688,-24.157 -0.938,-4.322 -2.706,-8.386 -4.85,-12.225 -3.183,-5.7 -7.959,-9.533 -14.372,-11.115 -2.509,-0.62 -5.069,-0.984 -7.967,-0.661 3.067,-2.65 9.544,-3.015 13.125,-0.591 2.451,1.659 4.757,3.533 7.117,5.327 13.458,10.234 26.904,20.484 40.383,30.69 1.171,0.886 1.657,1.862 1.667,3.33 0.071,10.235 -0.214,20.469 0.114,30.706 0.214,6.684 1.691,12.965 4.852,18.854 C -0.21,-0.786 0.141,-0.45 0,0" /></g><g
       style="fill:#9a031e;fill-opacity:1"
       transform="translate(211.4115,497.9641)"
       id="g3594"><path
         id="path3596"
         style="fill:#9a031e;fill-opacity:1;fill-rule:nonzero;stroke:none"
         d="m 0,0 c 34.761,0.045 60.687,-25.899 60.709,-57.775 0.023,-31.796 -25.962,-57.796 -57.817,-57.758 -32.625,0.039 -54.777,25.606 -57.516,51.173 -1.844,17.222 2.88,32.676 14.667,45.44 C -28.539,-6.555 -14.193,-0.09 0,0" /></g><g
       style="fill:#9a031e;fill-opacity:1"
       transform="translate(342.1778,440.2261)"
       id="g3598"><path
         id="path3600"
         style="fill:#9a031e;fill-opacity:1;fill-rule:nonzero;stroke:none"
         d="M 0,0 C -0.017,14.393 4.603,27.159 14.069,37.858 25.639,50.934 40.392,57.714 57.948,57.695 90.201,57.66 115.623,31.569 115.583,-0.112 115.544,-31.765 89.81,-57.858 57.733,-57.764 41.828,-57.717 28.061,-51.993 16.861,-40.652 5.775,-29.426 0.182,-15.808 0,0" /></g><g
       style="fill:#9a031e;fill-opacity:1"
       transform="translate(171.3186,354.289)"
       id="g3602"><path
         id="path3604"
         style="fill:#9a031e;fill-opacity:1;fill-rule:nonzero;stroke:none"
         d="m 0,0 c -0.186,2.742 1.413,5.954 2.851,9.209 1.147,2.598 2.277,5.203 4.247,7.327 5.484,5.908 14.096,7.455 21.327,4.139 11.443,-5.248 23.006,-10.234 34.513,-15.34 12.604,-5.592 25.2,-11.201 37.803,-16.792 9.286,-4.119 18.621,-8.129 27.854,-12.362 7.167,-3.285 10.316,-9.255 10.359,-16.949 0.015,-2.791 -0.991,-5.404 -2.072,-7.954 -1.312,-3.094 -2.572,-6.24 -4.85,-8.777 -4.61,-5.131 -10.412,-6.781 -17.145,-5.782 -2.744,0.407 -5.028,1.833 -7.472,2.909 -15.084,6.644 -30.137,13.358 -45.246,19.943 -4.529,1.974 -9.06,3.942 -13.566,5.97 -5.04,2.269 -10.141,4.401 -15.197,6.636 -5.24,2.317 -10.435,4.737 -15.693,7.01 -2.987,1.292 -6.029,2.488 -8.807,4.171 C 3.062,-13.1 0.065,-7.854 0,0" /></g><g
       style="fill:#9a031e;fill-opacity:1"
       transform="translate(287.6541,285.787)"
       id="g3606"><path
         id="path3608"
         style="fill:#9a031e;fill-opacity:1;fill-rule:nonzero;stroke:none"
         d="m 0,0 c 2.899,-0.323 5.458,0.041 7.967,0.66 6.414,1.583 11.19,5.415 14.373,11.116 2.143,3.839 3.911,7.902 4.85,12.224 2.031,9.35 -2.4,19.236 -10.688,24.157 -2,1.188 -1.993,1.178 -0.126,2.595 8.318,6.313 16.676,12.576 24.931,18.97 5.148,3.988 10.488,7.719 15.581,11.772 3.279,2.61 6.634,5.116 9.949,7.677 0.227,0.176 0.421,0.369 0.817,0.277 0.141,-0.45 -0.209,-0.787 -0.395,-1.133 C 64.097,82.426 62.62,76.146 62.406,69.462 62.079,59.225 62.364,48.99 62.293,38.755 62.283,37.287 61.796,36.312 60.626,35.426 47.146,25.22 33.7,14.97 20.242,4.736 17.883,2.942 15.577,1.067 13.125,-0.592 9.545,-3.015 3.068,-2.651 0,0" /></g><g
       style="fill:#9a031e;fill-opacity:1"
       transform="translate(206.3148,377.7387)"
       id="g3610"><path
         id="path3612"
         style="fill:#9a031e;fill-opacity:1;fill-rule:nonzero;stroke:none"
         d="m 0,0 c 2.212,-0.333 4.4,-0.164 6.574,-0.305 6.35,-0.412 12.473,0.831 18.547,2.448 1.503,0.4 2.981,0.906 4.452,1.416 0.864,0.3 1.62,0.211 2.394,-0.264 9.485,-5.812 15.652,-14.081 18.438,-24.86 0.069,-0.267 0.22,-0.617 -0.005,-0.795 -0.333,-0.263 -0.671,0.076 -0.972,0.209 -5.373,2.37 -10.736,4.764 -16.106,7.141 C 22.472,-10.207 11.618,-5.413 0.77,-0.606 0.503,-0.487 0.124,-0.486 0,0" /></g></g></svg>
