<?xml version="1.0" encoding="UTF-8" standalone="no"?>
<svg
   xmlns:dc="http://purl.org/dc/elements/1.1/"
   xmlns:cc="http://creativecommons.org/ns#"
   xmlns:rdf="http://www.w3.org/1999/02/22-rdf-syntax-ns#"
   xmlns:svg="http://www.w3.org/2000/svg"
   xmlns="http://www.w3.org/2000/svg"
   xmlns:sodipodi="http://sodipodi.sourceforge.net/DTD/sodipodi-0.dtd"
   xmlns:inkscape="http://www.inkscape.org/namespaces/inkscape"
   inkscape:version="1.0 (4035a4fb49, 2020-05-01)"
   sodipodi:docname="reÄo.svg"
   id="svg1137"
   enable-background="new 0 0 1920 1080"
   viewBox="0 0 420.04688 737.60156"
   height="737.60156"
   width="420.04688"
   y="0px"
   x="0px"
   version="1.1">
  <metadata
     id="metadata1143">
    <rdf:RDF>
      <cc:Work
         rdf:about="">
        <dc:format>image/svg+xml</dc:format>
        <dc:type
           rdf:resource="http://purl.org/dc/dcmitype/StillImage" />
        <dc:title />
      </cc:Work>
    </rdf:RDF>
  </metadata>
  <defs
     id="defs1141" />
  <sodipodi:namedview
     inkscape:current-layer="svg1137"
     inkscape:window-maximized="1"
     inkscape:window-y="0"
     inkscape:window-x="0"
     inkscape:cy="384.95584"
     inkscape:cx="465.32626"
     inkscape:zoom="0.99096778"
     showgrid="false"
     id="namedview1139"
     inkscape:window-height="1016"
     inkscape:window-width="1920"
     inkscape:pageshadow="2"
     inkscape:pageopacity="0"
     guidetolerance="10"
     gridtolerance="10"
     objecttolerance="10"
     borderopacity="1"
     bordercolor="#666666"
     pagecolor="#ffffff"
     inkscape:document-rotation="0"
     lock-margins="true"
     fit-margin-top="10"
     fit-margin-left="10"
     fit-margin-right="10"
     fit-margin-bottom="10" />
  <path
     d="m 190,308.60547 v 0.36328 L 102.0293,309.68164 10,449.60156 l 115,113 -30.64062,131 H 190 235 329.23047 L 292.98633,562.67578 410.04688,449.60156 322.26562,309.68164 235,308.9707 v -0.36523 l -22.56055,0.18164 z"
     style="fill:#5f0f40;fill-opacity:1"
     id="polygon990" />
  <path
     style="fill:#5f0f40;fill-opacity:1"
     fill="#c1272d"
     d="m 212,717.01856 c 0,5.661 -10.293,10.583 -22.682,10.583 h -69.886 c -12.389,0 -22.432,-4.922 -22.432,-10.583 v -13.167 c 0,-5.661 10.043,-10.25 22.432,-10.25 h 69.886 c 12.389,0 22.682,4.589 22.682,10.25 z"
     id="path996" />
  <path
     style="fill:#5f0f40;fill-opacity:1"
     fill="#c1272d"
     d="m 327,717.01856 c 0,5.661 -10.293,10.583 -22.682,10.583 h -69.886 c -12.389,0 -22.432,-4.922 -22.432,-10.583 v -13.167 c 0,-5.661 10.043,-10.25 22.432,-10.25 h 69.886 c 12.389,0 22.682,4.589 22.682,10.25 z"
     id="path998" />
  <path
     style="fill:#ffffff"
     fill="#fbb03b"
     d="m 158,519.26856 c 0,15.647 -12.686,28.333 -28.333,28.333 h -0.333 c -15.648,0 -28.334,-12.686 -28.334,-28.333 v -8.334 c 0,-15.647 12.686,-28.333 28.333,-28.333 h 0.333 c 15.648,0 28.334,12.686 28.334,28.333 z"
     id="path1031" />
  <path
     style="fill:#ffffff"
     fill="#fbb03b"
     d="m 317,519.26856 c 0,15.647 -12.686,28.333 -28.333,28.333 h -0.333 c -15.648,0 -28.334,-12.686 -28.334,-28.333 v -8.334 c 0,-15.647 12.686,-28.333 28.333,-28.333 h 0.333 c 15.648,0 28.334,12.686 28.334,28.333 z"
     id="path1033" />
  <g
     style="fill:#5f0f40;fill-opacity:1"
     id="g1068"
     transform="translate(-151,-222.39844)">
    <path
       style="fill:#5f0f40;fill-opacity:1"
       fill="#fbb03b"
       d="m 470.758,523.517 c -0.135,6.599 -5.645,12.128 -12.243,12.287 l -190.911,4.605 c -6.598,0.159 -12.211,-5.106 -12.475,-11.701 L 247.811,345.041 C 247.548,338.446 252.733,333 259.333,333 h 203.333 c 6.6,0 11.889,5.45 11.754,12.048 z"
       id="path1066" />
  </g>
  <path
     d="M 210,10 165.27734,87.46094 89.06836,39.60156 H 89 v 76 h 120.32031 0.76758 60.88086 H 330 V 39.81445 L 254.56445,87.1875 Z m 120,29.81445 0.33789,-0.21289 H 330 Z"
     style="fill:#5f0f40;fill-opacity:1"
     id="polygon1070" />
  <polygon
     style="fill:#ffffff;stroke:#5f0f40;stroke-width:3;stroke-miterlimit:4;stroke-dasharray:none;stroke-opacity:1"
     fill="#cccccc"
     points="475,338 475,532 360.07,622 247,534 247,338 291.833,493 360.5,525.5 431.476,497.049 "
     id="polygon1076"
     transform="translate(-151,-222.39844)" />
  <polygon
     style="fill:#ffffff"
     fill="#cccccc"
     points="313.408,338 247.504,338 299.368,362.603 332.319,346.971 365.271,362.603 393.952,348.998 422.632,362.603 474.496,338 417.135,338 370.768,338 351.231,338 "
     id="polygon1078"
     transform="translate(-151,-222.39844)" />
  <polygon
     style="fill:#ffffff"
     fill="#cccccc"
     points="440.1,486.592 364.815,467.924 289.531,485.039 291.833,493 297.455,495.137 364.815,489.753 431.476,497.049 438.125,495 "
     id="polygon1080"
     transform="translate(-151,-222.39844)" />
  <rect
     y="396.6488"
     x="205.60202"
     height="293.34302"
     width="6.8246293"
     id="rect1600"
     style="fill:#ffffff;fill-opacity:1;stroke:none;stroke-width:3;stroke-linecap:round;stroke-linejoin:round;stroke-miterlimit:4;stroke-dasharray:none;stroke-opacity:1" />
  <g
     transform="matrix(0.62293645,0,0,0.62293645,1.3305,-73.83826)"
     id="g1608">
    <path
       style="fill:#ffffff;stroke-width:0.529282"
       fill="#fbb03b"
       d="m 308.16355,386.87889 c 0,8.28168 -6.71447,14.99615 -14.99615,14.99615 h -0.17625 c -8.28221,0 -14.99668,-6.71447 -14.99668,-14.99615 v -4.41104 c 0,-8.28168 6.71447,-14.99615 14.99615,-14.99615 h 0.17625 c 8.28221,0 14.99668,6.71447 14.99668,14.99615 z"
       id="path1602" />
    <path
       style="fill:#ffffff;stroke-width:0.529282"
       fill="#fbb03b"
       d="m 392.31942,386.87889 c 0,8.28168 -6.71448,14.99615 -14.99616,14.99615 h -0.17625 c -8.2822,0 -14.99668,-6.71447 -14.99668,-14.99615 v -4.41104 c 0,-8.28168 6.71448,-14.99615 14.99615,-14.99615 h 0.17626 c 8.2822,0 14.99668,6.71447 14.99668,14.99615 z"
       id="path1604" />
  </g>
</svg>
