<?xml version="1.0" encoding="UTF-8" standalone="no"?>
<svg
   xmlns:dc="http://purl.org/dc/elements/1.1/"
   xmlns:cc="http://creativecommons.org/ns#"
   xmlns:rdf="http://www.w3.org/1999/02/22-rdf-syntax-ns#"
   xmlns:svg="http://www.w3.org/2000/svg"
   xmlns="http://www.w3.org/2000/svg"
   xmlns:sodipodi="http://sodipodi.sourceforge.net/DTD/sodipodi-0.dtd"
   xmlns:inkscape="http://www.inkscape.org/namespaces/inkscape"
   inkscape:version="1.0 (4035a4fb49, 2020-05-01)"
   sodipodi:docname="reÄino.svg"
   id="svg930"
   version="1.1"
   viewBox="0 0 78.308456 196.24057">
  <metadata
     id="metadata936">
    <rdf:RDF>
      <cc:Work
         rdf:about="">
        <dc:format>image/svg+xml</dc:format>
        <dc:type
           rdf:resource="http://purl.org/dc/dcmitype/StillImage" />
        <dc:title></dc:title>
      </cc:Work>
    </rdf:RDF>
  </metadata>
  <defs
     id="defs934" />
  <sodipodi:namedview
     inkscape:current-layer="svg930"
     inkscape:window-maximized="1"
     inkscape:window-y="0"
     inkscape:window-x="0"
     inkscape:cy="98.120285"
     inkscape:cx="39.154228"
     inkscape:zoom="3.9537564"
     showgrid="false"
     id="namedview932"
     inkscape:window-height="1016"
     inkscape:window-width="1920"
     inkscape:pageshadow="2"
     inkscape:pageopacity="0"
     guidetolerance="10"
     gridtolerance="10"
     objecttolerance="10"
     borderopacity="1"
     bordercolor="#666666"
     pagecolor="#ffffff" />
  <g
     style="fill:#5f0f40;fill-opacity:1"
     id="g928"
     transform="translate(-236.16 -372.21)">
    <path
       style="fill:#5f0f40;fill-opacity:1"
       id="path926"
       d="m236.16 563.32c0-7.1022 1.2178-9.1903 5.9248-10.159l1.6689-0.34348 9.2262-39.705c5.0744-21.838 9.2389-40.024 9.2545-40.415 0.02055-0.51435-1.3052-0.70932-4.8232-0.70932-3.0891 0-5.4196-0.29374-6.4152-0.80862-3.96-2.0478-3.6816-8.2471 0.44728-9.9573l1.718-0.71162-5.0959-3.9438c-5.0392-3.8999-5.096-3.9715-5.096-6.4272v-2.4833l10.175-7.8368 10.175-7.8368-2.1652-2.2698c-4.7831-5.014-8.1167-12.817-9.2252-21.594-0.57209-4.5295-0.83503-5.36-1.6971-5.36-0.56106 0-1.0268-0.19152-1.0349-0.42559s-0.99915-6.4264-2.2023-13.761-2.1213-13.41-2.0404-13.502 2.0294 2.2611 4.3302 5.2292 4.3109 5.4019 4.4669 5.4085 1.283-2.272 2.5044-5.0635 2.4186-4.9532 2.6606-4.8036 1.2681 1.7348 2.2803 3.5228 2.449 4.2299 3.193 5.4265l1.3527 2.1756 3.0853-4.4326c2.6298-3.7781 3.0353-4.6989 2.7469-6.2365-0.63398-3.3794 3.0481-5.4396 5.4424-3.0452 1.2661 1.2661 1.4192 2.3807 0.55017 4.0045-0.48537 0.90692-0.03977 1.8166 2.6223 5.3535 1.7639 2.3435 3.3816 4.2609 3.5949 4.2609s1.906-2.6798 3.7616-5.955 3.5221-5.9565 3.7035-5.9582 1.2945 2.4341 2.4736 5.4132l2.1438 5.4164 4.021-5.4002c2.2116-2.9701 4.0702-5.3437 4.1304-5.2746s-0.92401 6.318-2.1871 13.886c-1.4299 8.568-2.5403 13.761-2.9426 13.761-0.38982 0-0.91468 2.1262-1.3231 5.36-1.1085 8.7768-4.4422 16.58-9.2252 21.594l-2.1652 2.2698 10.175 7.8368 10.175 7.8368v2.4833c0 2.4542-0.05928 2.5292-5.0557 6.396l-5.0557 3.9126 1.9401 0.70155c3.1814 1.1504 4.4634 4.7465 2.823 7.9188-1.1738 2.2698-3.1466 2.9196-8.8648 2.9196-2.7942 0-5.0774 0.19152-5.0738 0.42559s4.2947 18.426 9.5357 40.426l9.5291 40.001 1.9552 0.32515c4.9313 0.82002 6.2111 2.9123 6.2111 10.154v5.1353h-78.308v-5.1353z" />
  </g>
</svg>
