<?xml version="1.0" encoding="UTF-8" standalone="no"?>
<svg
   xmlns:dc="http://purl.org/dc/elements/1.1/"
   xmlns:cc="http://creativecommons.org/ns#"
   xmlns:rdf="http://www.w3.org/1999/02/22-rdf-syntax-ns#"
   xmlns:svg="http://www.w3.org/2000/svg"
   xmlns="http://www.w3.org/2000/svg"
   xmlns:sodipodi="http://sodipodi.sourceforge.net/DTD/sodipodi-0.dtd"
   xmlns:inkscape="http://www.inkscape.org/namespaces/inkscape"
   inkscape:version="1.0 (4035a4fb49, 2020-05-01)"
   sodipodi:docname="rivero.svg"
   viewBox="0 0 1260.5411 805.164"
   height="805.164"
   width="1260.541"
   xml:space="preserve"
   id="svg2"
   version="1.1"><metadata
     id="metadata8"><rdf:RDF><cc:Work
         rdf:about=""><dc:format>image/svg+xml</dc:format><dc:type
           rdf:resource="http://purl.org/dc/dcmitype/StillImage" /><dc:title></dc:title></cc:Work></rdf:RDF></metadata><defs
     id="defs6"><linearGradient
       id="linearGradient28"
       spreadMethod="pad"
       gradientTransform="matrix(-3.05e-5,-588.87354,-588.87354,3.05e-5,469.17969,592.87305)"
       gradientUnits="userSpaceOnUse"
       y2="0"
       x2="1"
       y1="0"
       x1="0"><stop
         id="stop24"
         offset="0"
         style="stop-opacity:1;stop-color:#5ac9e9" /><stop
         id="stop26"
         offset="1"
         style="stop-opacity:1;stop-color:#037ca9" /></linearGradient><clipPath
       id="clipPath38"
       clipPathUnits="userSpaceOnUse"><path
         id="path36"
         d="M 0,596.874 H 938.349 V 0 H 0 Z" /></clipPath></defs><sodipodi:namedview
     inkscape:current-layer="g10"
     inkscape:window-maximized="1"
     inkscape:window-y="0"
     inkscape:window-x="0"
     inkscape:cy="402.5813"
     inkscape:cx="630.26385"
     inkscape:zoom="0.58292838"
     fit-margin-bottom="10"
     fit-margin-right="10"
     fit-margin-left="10"
     lock-margins="true"
     fit-margin-top="10"
     showgrid="false"
     id="namedview4"
     inkscape:window-height="704"
     inkscape:window-width="1366"
     inkscape:pageshadow="2"
     inkscape:pageopacity="0"
     guidetolerance="10"
     gridtolerance="10"
     objecttolerance="10"
     borderopacity="1"
     bordercolor="#666666"
     pagecolor="#ffffff" /><g
     transform="matrix(1.3333333,0,0,-1.3333333,4.6978748,800.49731)"
     inkscape:label="water-908813"
     inkscape:groupmode="layer"
     id="g10"><g
       style="fill:#fb8b24;fill-opacity:1"
       id="g12"><g
         style="fill:#fb8b24;fill-opacity:1"
         id="g14"><g
           style="fill:#fb8b24;fill-opacity:1"
           id="g20"><g
             style="fill:#fb8b24;fill-opacity:1"
             id="g22"><path
               id="path30"
               style="fill:#fb8b24;fill-opacity:1;stroke:none"
               d="M 320.771,592.863 C 222.554,585.9 146.547,576.72 94.86,565.578 v 0 C 43.304,554.463 14.35,541.231 6.343,525.125 v 0 C 2.502,517.399 3.34,509.205 8.834,500.768 v 0 c 13.427,-20.613 77.365,-37.11 145.059,-54.576 v 0 c 63.127,-16.287 134.678,-34.748 149.358,-54.913 v 0 c 2.088,-2.866 1.799,-4.761 1.399,-5.938 v 0 c -4.071,-11.991 -45.125,-24.106 -81.347,-34.795 v 0 C 171.15,335.156 117.221,319.243 108.352,293.217 v 0 c -2.775,-8.142 -1.008,-16.651 5.25,-25.288 v 0 c 21.059,-29.064 76.858,-41.37 141.467,-55.618 v 0 c 42.637,-9.402 90.963,-20.059 133.088,-36.946 v 0 c 47.787,-19.157 80.878,-43.611 101.164,-74.758 v 0 C 508.695,70.86 548.944,45.813 605.72,28.173 v 0 C 655.157,12.812 715.625,4.002 771.618,4 v 0 h 0.02 c 82.376,0 141.381,18.112 157.827,48.447 v 0 c 8.312,15.33 6.078,33.003 -6.638,52.524 v 0 c -23.909,36.712 -72.833,66.915 -149.566,92.335 v 0 c -65.469,21.687 -139.137,36.115 -204.133,48.843 v 0 c -72.676,14.234 -135.44,26.525 -145.751,42.357 v 0 c -2.62,4.022 -3.315,7.497 -2.125,10.621 v 0 c 4.713,12.37 37.374,21.255 66.192,29.094 v 0 c 36.955,10.052 71.861,19.546 79.185,38.772 v 0 c 2.68,7.039 1.367,14.712 -3.906,22.807 v 0 c -10.635,16.33 -41.655,31.166 -97.623,46.685 v 0 c -47.604,13.2 -104.718,24.559 -159.951,35.543 v 0 c -75.169,14.949 -152.897,30.408 -162.7,44.27 v 0 c -3.282,4.641 -3.926,8.788 -2.027,13.05 v 0 c 13.222,29.676 135.21,50.163 181.098,55.552 v 0 c 2.158,0.254 3.719,2.184 3.516,4.348 v 0 c -0.195,2.067 -1.933,3.625 -3.979,3.625 v 0 c -0.095,0 -0.191,-0.003 -0.286,-0.01" /></g></g></g></g><g
       id="g32"><g
         clip-path="url(#clipPath38)"
         id="g34"><g
           transform="translate(321.061,596.8735)"
           id="g40"><path
             id="path42"
             style="fill:#ffffff;fill-opacity:1;fill-rule:nonzero;stroke:none"
             d="m 0,0 c -0.103,0 -0.207,-0.002 -0.31,-0.006 -0.115,-0.004 -0.229,-0.011 -0.342,-0.02 -98.369,-6.975 -174.534,-16.181 -226.392,-27.36 -53.555,-11.545 -82.553,-25.076 -91.256,-42.582 -3.105,-6.245 -5.154,-16.228 2.721,-28.32 6.855,-10.525 24,-19.945 55.591,-30.546 26.162,-8.78 59.54,-17.392 91.82,-25.72 33.146,-8.552 67.419,-17.395 94.683,-26.573 28.931,-9.739 46.574,-18.763 52.442,-26.821 1.108,-1.522 0.923,-2.066 0.844,-2.299 -0.465,-1.37 -3.546,-6.463 -23.655,-14.469 -14.897,-5.93 -34.394,-11.683 -55.035,-17.775 -25.198,-7.435 -51.255,-15.125 -72.53,-24.163 -26.251,-11.153 -40.574,-22.5 -45.076,-35.712 -3.218,-9.443 -1.268,-19.176 5.797,-28.926 21.951,-30.296 78.438,-42.752 143.845,-57.176 42.486,-9.369 90.641,-19.989 132.461,-36.754 46.997,-18.84 79.478,-42.793 99.301,-73.229 25.127,-38.581 78.343,-61.575 118.562,-74.071 50.541,-15.703 109.88,-24.352 167.086,-24.352 38.608,0 73.446,4.08 100.75,11.796 31.039,8.773 51.432,21.809 60.614,38.747 4.471,8.248 6.161,17.262 5.023,26.794 -1.132,9.475 -5.111,19.507 -11.826,29.819 -24.423,37.5 -74.032,68.231 -151.66,93.947 -65.709,21.768 -139.51,36.221 -204.623,48.973 -38.698,7.578 -72.12,14.124 -98.007,21.055 -32.458,8.692 -42.474,15.433 -45.161,19.558 -2.783,4.273 -2.024,6.265 -1.738,7.015 0.889,2.334 4.655,7.158 19.888,13.249 12.086,4.832 27.401,8.998 43.616,13.408 37.965,10.327 73.824,20.081 81.872,41.209 3.162,8.3 1.719,17.187 -4.291,26.413 -11.198,17.196 -42.945,32.562 -99.906,48.357 -47.748,13.24 -104.936,24.613 -160.24,35.612 -40.846,8.123 -79.425,15.796 -108.925,23.28 -41.342,10.489 -49.639,17.044 -51.288,19.375 -3.082,4.358 -2.559,7.052 -1.641,9.113 2.707,6.077 17.174,22.015 92.84,38.716 42.098,9.293 82.807,14.222 84.983,14.481 1.079,0.114 2.093,0.441 3,0.939 0.002,0.001 0.003,0.002 0.005,0.003 0.004,0.002 0.008,0.004 0.012,0.006 0.005,0.003 0.009,0.005 0.014,0.008 0.001,10e-4 0.003,10e-4 0.004,0.002 0.267,0.148 0.524,0.311 0.771,0.487 l 0.001,0.002 c 0.004,0.003 0.008,0.006 0.012,0.009 0.004,0.002 0.008,0.004 0.011,0.007 0.001,10e-4 0.001,10e-4 0.002,0.002 2.014,1.452 3.326,3.819 3.326,6.492 0,4.093 -3.073,7.469 -7.039,7.943 C 0.642,-0.02 0.323,0 0,0 m -0.008,-8 c 0,0 -216.828,-25.457 -181.869,-74.886 24.848,-35.137 380.999,-66.196 420.188,-126.371 37.891,-58.177 -171.353,-52.151 -139.347,-101.294 30.046,-46.134 415.191,-54.157 499.451,-183.533 41.631,-63.922 -42.433,-94.79 -147.858,-94.79 -107.951,0 -238.299,32.38 -278.945,94.79 -80.341,123.358 -327.872,101.293 -375.832,167.486 -47.96,66.192 220.311,81.236 189.644,123.359 -30.667,42.122 -268.824,70.204 -294.299,109.317 -25.474,39.114 63.68,68.539 308.867,85.922 m 0,0 h 0.005" /></g></g></g></g></svg>
