<?xml version="1.0" encoding="UTF-8" standalone="no"?>
<svg
   xmlns:dc="http://purl.org/dc/elements/1.1/"
   xmlns:cc="http://creativecommons.org/ns#"
   xmlns:rdf="http://www.w3.org/1999/02/22-rdf-syntax-ns#"
   xmlns:svg="http://www.w3.org/2000/svg"
   xmlns="http://www.w3.org/2000/svg"
   xmlns:xlink="http://www.w3.org/1999/xlink"
   xmlns:sodipodi="http://sodipodi.sourceforge.net/DTD/sodipodi-0.dtd"
   xmlns:inkscape="http://www.inkscape.org/namespaces/inkscape"
   height="417.24631"
   width="233.37305"
   inkscape:version="1.0 (4035a4fb49, 2020-05-01)"
   sodipodi:docname="sablohorloÄo.svg"
   id="svg97"
   version="1.1"
   viewBox="0 0 233.37305 417.24631">
  <metadata
     id="metadata101">
    <rdf:RDF>
      <cc:Work
         rdf:about="">
        <dc:format>image/svg+xml</dc:format>
        <dc:type
           rdf:resource="http://purl.org/dc/dcmitype/StillImage" />
        <dc:title></dc:title>
      </cc:Work>
    </rdf:RDF>
  </metadata>
  <sodipodi:namedview
     fit-margin-bottom="5"
     fit-margin-right="5"
     fit-margin-left="5"
     lock-margins="true"
     fit-margin-top="5"
     inkscape:current-layer="svg97"
     inkscape:window-maximized="1"
     inkscape:window-y="0"
     inkscape:window-x="0"
     inkscape:cy="191.30125"
     inkscape:cx="64.343295"
     inkscape:zoom="0.82557844"
     showgrid="false"
     id="namedview99"
     inkscape:window-height="704"
     inkscape:window-width="1366"
     inkscape:pageshadow="2"
     inkscape:pageopacity="0"
     guidetolerance="10"
     gridtolerance="10"
     objecttolerance="10"
     borderopacity="1"
     bordercolor="#666666"
     pagecolor="#ffffff" />
  <defs
     id="defs57">
    <filter
       id="s">
      <feGaussianBlur
         id="feGaussianBlur2"
         stdDeviation=".86621" />
    </filter>
    <filter
       id="r">
      <feGaussianBlur
         id="feGaussianBlur5"
         stdDeviation="1.4685" />
    </filter>
    <linearGradient
       id="b">
      <stop
         id="stop8"
         offset="0"
         stop-color="#0ab2fd" />
      <stop
         id="stop10"
         offset="1"
         stop-opacity="0"
         stop-color="#0ab2fd" />
    </linearGradient>
    <linearGradient
       id="c">
      <stop
         id="stop13"
         offset="0"
         stop-color="#0c73b6" />
      <stop
         id="stop15"
         offset="1"
         stop-opacity="0"
         stop-color="#0c73b6" />
    </linearGradient>
    <linearGradient
       id="d">
      <stop
         id="stop18"
         offset="0"
         stop-color="#24caf2" />
      <stop
         id="stop20"
         offset="1"
         stop-color="#0ab2fd" />
    </linearGradient>
    <linearGradient
       id="a">
      <stop
         id="stop23"
         offset="0" />
      <stop
         id="stop25"
         offset=".29773"
         stop-color="#757575" />
      <stop
         id="stop27"
         offset=".82273"
         stop-color="#403f3f" />
      <stop
         id="stop29"
         offset="1" />
    </linearGradient>
    <linearGradient
       gradientTransform="translate(0,-552.36)"
       gradientUnits="userSpaceOnUse"
       x2="194"
       x1="369.70999"
       id="m">
      <stop
         id="stop32"
         offset="0"
         stop-color="#00acff" />
      <stop
         id="stop34"
         offset="1"
         stop-opacity="0"
         stop-color="#fff" />
    </linearGradient>
    <linearGradient
       gradientTransform="translate(0,-552.36)"
       gradientUnits="userSpaceOnUse"
       y2="805.35999"
       y1="767.35999"
       x2="194"
       x1="288.20999"
       id="l">
      <stop
         id="stop37"
         offset="0"
         stop-color="#0073ff" />
      <stop
         id="stop39"
         offset="1"
         stop-opacity="0" />
    </linearGradient>
    <linearGradient
       gradientTransform="translate(0,-552.36)"
       gradientUnits="userSpaceOnUse"
       y2="747.81"
       y1="761.95001"
       x2="239.46001"
       x1="253.39"
       id="e">
      <stop
         id="stop42"
         offset="0"
         stop-color="#fff" />
      <stop
         id="stop44"
         offset="1"
         stop-opacity="0"
         stop-color="#fff" />
    </linearGradient>
    <linearGradient
       gradientTransform="translate(0,-552.36)"
       xlink:href="#a"
       gradientUnits="userSpaceOnUse"
       x2="298"
       x1="78"
       id="q" />
    <linearGradient
       gradientTransform="translate(0,-552.36)"
       xlink:href="#a"
       gradientUnits="userSpaceOnUse"
       x2="283.16"
       x1="96.842003"
       id="o" />
    <linearGradient
       gradientTransform="translate(0,-552.36)"
       xlink:href="#a"
       gradientUnits="userSpaceOnUse"
       x2="299.38"
       x1="77.014"
       id="p" />
    <linearGradient
       gradientTransform="translate(0,-552.36)"
       xlink:href="#a"
       gradientUnits="userSpaceOnUse"
       x2="286.20999"
       x1="94.365997"
       id="n" />
    <linearGradient
       gradientTransform="translate(0,-552.36)"
       xlink:href="#d"
       gradientUnits="userSpaceOnUse"
       y2="781.66998"
       y1="701.90997"
       x2="0"
       id="k" />
    <linearGradient
       gradientTransform="translate(0,-552.36)"
       xlink:href="#d"
       gradientUnits="userSpaceOnUse"
       y2="901.42999"
       y1="958.71002"
       x2="0"
       id="j" />
    <linearGradient
       gradientTransform="translate(0,-552.36)"
       xlink:href="#c"
       gradientUnits="userSpaceOnUse"
       y2="894.71997"
       y1="883.75"
       x2="130.99001"
       x1="114.3"
       id="i" />
    <linearGradient
       gradientTransform="translate(0,-552.36)"
       xlink:href="#b"
       gradientUnits="userSpaceOnUse"
       x2="235.46001"
       x1="5.2275"
       id="h" />
    <linearGradient
       gradientTransform="translate(0,-552.36)"
       xlink:href="#c"
       gradientUnits="userSpaceOnUse"
       y2="715.46002"
       y1="729.25"
       x2="142.38"
       x1="99.630997"
       id="g" />
    <linearGradient
       gradientTransform="translate(0,-552.36)"
       xlink:href="#b"
       gradientUnits="userSpaceOnUse"
       x2="233.62"
       x1="149.48"
       id="f" />
  </defs>
  <path
     style="fill:#ffffff;fill-opacity:1;stroke:#9a031e;stroke-width:4;stroke-miterlimit:4;stroke-dasharray:none;stroke-opacity:1"
     d="m 32.176328,47.730204 c 0,0 -20.732,29.084 -2.5,74.999996 18.232,45.916 77.131002,65.348 77.000002,92.5 -0.131,27.152 -60.543002,54.062 -76.500002,98 -15.957,43.938 -4,64.5 -4,64.5 l 177.000002,3 c 0,0 18.775,-44.523 -9.5,-85.5 -28.275,-40.977 -67.93,-56.582 -68,-81.5 -0.07,-24.918 76.762,-56.627 82.5,-112 5.738,-55.372996 -17,-55.999996 -17,-55.999996 z"
     fill="#118fd9"
     id="path59" />
  <path
     d="m 154.29633,49.360204 c 0,0 19.046,43.018 4.5251,69.049996 -14.5209,26.032 -51.307,43.807 -51.307,43.807 15.065,-25.8 29.292,-42.666 46.782,-112.859996 z"
     fill="#ffffff"
     opacity="0.5977"
     id="path67" />
  <path
     d="m 13.96875,5.000204 a 7.5944,7.5944 0 0 0 -7.482422,7.59375 v 19.8125 a 7.5944,7.5944 0 0 0 7.59375,7.59375 h 11.246094 v 5.294922 a 6.361,6.361 0 0 0 6.359376,6.361328 H 205.27539 a 6.361,6.361 0 0 0 6.36133,-6.361328 v -5.294922 h 7.25391 a 7.5944,7.5944 0 0 0 7.59375,-7.59375 v -19.8125 a 7.5944,7.5944 0 0 0 -7.59375,-7.59375 H 14.080078 a 7.5944,7.5944 0 0 0 -0.111328,0 z"
     style="fill:#9a031e;fill-opacity:1"
     id="path69" />
  <path
     sodipodi:nodetypes="cccsccc"
     d="m 25.668328,368.9902 c 4.9498,-0.70711 188.030002,0.53034 188.030002,0.53034 1.0267,-7.4965 -5.89567,-12.39371 -5.89127,-21.27471 0,0 -66.99943,-35.36829 -87.74443,-35.17829 -21.246002,0.19456 -94.631002,35.709 -94.631002,35.709 -1.8749,15.33 0.0333,16.036 0.23744,20.213 z"
     fill="url(#j)"
     id="path73"
     style="fill:#9a031e;fill-opacity:1" />
  <path
     d="m 29.187498,368.10958 a 6.3552,6.3552 0 0 0 -6.335936,6.35546 v 2.29493 H 13.091797 A 7.5915,7.5915 0 0 0 5.5,384.35176 v 19.80274 a 7.5915,7.5915 0 0 0 7.591797,7.59179 H 220.28321 a 7.5915,7.5915 0 0 0 7.58984,-7.59179 v -19.80274 a 7.5915,7.5915 0 0 0 -7.58984,-7.59179 h -5.58204 v -2.29493 a 6.3552,6.3552 0 0 0 -6.35546,-6.35546 H 29.207028 a 6.3552,6.3552 0 0 0 -0.0195,0 z"
     style="fill:#9a031e;fill-opacity:1;stroke:#9a031e;stroke-opacity:1"
     id="path75" />
  <path
     sodipodi:nodetypes="cccccccccc"
     d="m 34.956328,120.7402 c 28.082,-11.689 164.719572,-13.92272 163.489572,-1.52482 -4.5509,24.8711 -72.74111,75.16873 -70.26957,88.82782 l -7.2407,8.9116 -0.17694,98.101 -2.464,-0.1353 0.0997,-97.903 -7.7743,-9.3033 c -20.644002,-29.263 -80.884002,-66.065 -75.660002,-86.974 z"
     fill="url(#k)"
     id="path79"
     style="fill:#9a031e;fill-opacity:1" />
  <path
     d="m 121.38633,240.2402 c -22.688002,0.65546 -61.104002,115.26 -61.104002,115.26 l 126.570002,-2.2904 c 0,0 -42.76,-113.62 -65.468,-112.97 z"
     fill="url(#h)"
     id="path83"
     style="fill:#9a031e;fill-opacity:1" />
</svg>
