<?xml version="1.0" encoding="UTF-8" standalone="no"?>
<svg
   xmlns:dc="http://purl.org/dc/elements/1.1/"
   xmlns:cc="http://creativecommons.org/ns#"
   xmlns:rdf="http://www.w3.org/1999/02/22-rdf-syntax-ns#"
   xmlns:svg="http://www.w3.org/2000/svg"
   xmlns="http://www.w3.org/2000/svg"
   xmlns:sodipodi="http://sodipodi.sourceforge.net/DTD/sodipodi-0.dtd"
   xmlns:inkscape="http://www.inkscape.org/namespaces/inkscape"
   inkscape:version="1.0 (4035a4fb49, 2020-05-01)"
   height="38.810917"
   width="45.16819"
   sodipodi:docname="sorĉo.svg"
   id="svg22"
   version="1.1"
   viewBox="0 0 45.16819 38.810917">
  <metadata
     id="metadata28">
    <rdf:RDF>
      <cc:Work
         rdf:about="">
        <dc:format>image/svg+xml</dc:format>
        <dc:type
           rdf:resource="http://purl.org/dc/dcmitype/StillImage" />
        <dc:title></dc:title>
      </cc:Work>
    </rdf:RDF>
  </metadata>
  <defs
     id="defs26" />
  <sodipodi:namedview
     inkscape:current-layer="svg22"
     inkscape:window-maximized="1"
     inkscape:window-y="0"
     inkscape:window-x="0"
     inkscape:cy="20.353127"
     inkscape:cx="22.578545"
     inkscape:zoom="15.517748"
     fit-margin-bottom="1"
     fit-margin-right="1"
     fit-margin-left="1"
     lock-margins="true"
     fit-margin-top="1"
     showgrid="false"
     id="namedview24"
     inkscape:window-height="1016"
     inkscape:window-width="1920"
     inkscape:pageshadow="2"
     inkscape:pageopacity="0"
     guidetolerance="10"
     gridtolerance="10"
     objecttolerance="10"
     borderopacity="1"
     bordercolor="#666666"
     pagecolor="#ffffff" />
  <g
     style="fill:#0f4c5c;fill-opacity:1"
     id="g20"
     transform="matrix(0.45862,0.61914,-0.61914,0.45862,185.24854,392.53312)">
    <g
       style="fill:#0f4c5c;fill-opacity:1"
       id="g18"
       fill="#3f007f">
      <g
         style="fill:#0f4c5c;fill-opacity:1"
         id="g6"
         stroke-width="0">
        <path
           style="fill:#0f4c5c;fill-opacity:1"
           id="path2"
           stroke="#000000"
           d="m -507.41,-119.15 -5.134,-2.914 -5.219,3.099 1.185,-5.783 -4.56,-4.005 5.866,-0.66 2.401,-5.575 2.44,5.375 6.044,0.56 -4.358,3.982 z" />
        <path
           style="fill:#0f4c5c;fill-opacity:1"
           id="path4"
           d="m -513.12,-122.35 c 0.61298,-0.226 0.61395,-0.26 1.06,-0.254 l 1.008,39.022 c 0,0.0829 -0.066,0.1496 -0.14902,0.1496 h -3.129 c -0.083,0 -0.15002,-0.0667 -0.15002,-0.1496 0.578,-5.1498 1.381,-38.487 1.36,-38.768 z" />
      </g>
      <path
         style="fill:#0f4c5c;fill-opacity:1"
         id="path8"
         d="m -522.8,-122.5 -5.989,2.471 0.951,1.806 z" />
      <path
         style="fill:#0f4c5c;fill-opacity:1"
         id="path10"
         d="m -523.3,-136.17 -4.009,-5.089 -1.4789,1.406 5.488,3.683 z" />
      <path
         style="fill:#0f4c5c;fill-opacity:1"
         id="path12"
         d="m -502.83,-136.59 5.988,-2.472 -0.95,-1.806 z" />
      <path
         style="fill:#0f4c5c;fill-opacity:1"
         id="path14"
         d="m -502.33,-122.92 4.008,5.09 1.479,-1.407 z" />
      <path
         style="fill:#0f4c5c;fill-opacity:1"
         id="path16"
         d="m -513,-141 0.839,-6.424 -2.039,-0.075 z" />
    </g>
  </g>
</svg>
