<?xml version="1.0" encoding="UTF-8" standalone="no"?>
<svg
   xmlns:dc="http://purl.org/dc/elements/1.1/"
   xmlns:cc="http://creativecommons.org/ns#"
   xmlns:rdf="http://www.w3.org/1999/02/22-rdf-syntax-ns#"
   xmlns:svg="http://www.w3.org/2000/svg"
   xmlns="http://www.w3.org/2000/svg"
   xmlns:sodipodi="http://sodipodi.sourceforge.net/DTD/sodipodi-0.dtd"
   xmlns:inkscape="http://www.inkscape.org/namespaces/inkscape"
   height="45.227688"
   width="45.088322"
   inkscape:version="1.0 (4035a4fb49, 2020-05-01)"
   sodipodi:docname="tima.svg"
   id="svg10043"
   version="1.1"
   viewBox="0 0 45.088322 45.227688">
  <metadata
     id="metadata10047">
    <rdf:RDF>
      <cc:Work
         rdf:about="">
        <dc:format>image/svg+xml</dc:format>
        <dc:type
           rdf:resource="http://purl.org/dc/dcmitype/StillImage" />
        <dc:title></dc:title>
      </cc:Work>
    </rdf:RDF>
  </metadata>
  <sodipodi:namedview
     fit-margin-bottom="4"
     fit-margin-right="4"
     fit-margin-left="4"
     lock-margins="true"
     fit-margin-top="4"
     inkscape:current-layer="svg10043"
     inkscape:window-maximized="1"
     inkscape:window-y="0"
     inkscape:window-x="0"
     inkscape:cy="23.525991"
     inkscape:cx="22.279513"
     inkscape:zoom="16.164321"
     showgrid="false"
     id="namedview10045"
     inkscape:window-height="1016"
     inkscape:window-width="1920"
     inkscape:pageshadow="2"
     inkscape:pageopacity="0"
     guidetolerance="10"
     gridtolerance="10"
     objecttolerance="10"
     borderopacity="1"
     bordercolor="#666666"
     pagecolor="#ffffff" />
  <defs
     id="defs10021">
    <radialGradient
       gradientUnits="userSpaceOnUse"
       fy="15.756"
       fx="29.158001"
       r="8.9020996"
       cy="15.721"
       cx="29.288"
       id="b">
      <stop
         id="stop10004"
         offset="0"
         stop-color="#fffcde" />
      <stop
         id="stop10006"
         offset=".64486"
         stop-color="#f6e76a" />
      <stop
         id="stop10008"
         offset="1"
         stop-color="#ffb738" />
    </radialGradient>
    <radialGradient
       gradientUnits="userSpaceOnUse"
       r="19.695999"
       cy="41.062"
       cx="25.101999"
       id="c">
      <stop
         id="stop10011"
         offset="0"
         stop-color="#777" />
      <stop
         id="stop10013"
         offset="1" />
    </radialGradient>
    <radialGradient
       gradientUnits="userSpaceOnUse"
       gradientTransform="matrix(1,0,0,0.33333,0,25.714)"
       r="19.714001"
       cy="38.570999"
       cx="24.714001"
       id="a">
      <stop
         id="stop10016"
         offset="0" />
      <stop
         id="stop10018"
         offset="1"
         stop-opacity="0" />
    </radialGradient>
  </defs>
  <path
     d="M 22.689669,4.5005999 A 18.044021,18.044021 0 0 0 4.5002162,22.63146 a 18.044021,18.044021 0 1 0 36.0878908,0 A 18.044021,18.044021 0 0 0 22.689669,4.5005999 Z m -5.246094,5.2207026 c 1.375,0 2.5,2.0000005 2.5,4.5000005 0,2.5 -1.125,4.5 -2.5,4.5 -1.375,0 -2.5,-2 -2.5,-4.5 0,-2.5 1.125,-4.5000005 2.5,-4.5000005 z m 9.291016,0 c 1.375,0 2.5,2.0000005 2.5,4.5000005 0,2.5 -1.125,4.5 -2.5,4.5 -1.375,0 -2.5,-2 -2.5,-4.5 0,-2.5 1.125,-4.5000005 2.5,-4.5000005 z M 22.564669,24.971303 c 5.125,0 9.375,2.75 9.375,6.25 0,3.5 -4.25,6.25 -9.375,6.25 -5.125,0 -9.375,-2.75 -9.375,-6.25 0,-3.5 4.25,-6.25 9.375,-6.25 z"
     style="fill:#e36414;fill-opacity:1;stroke:#e36414;stroke-opacity:1"
     id="path10025" />
</svg>
