<?xml version="1.0" encoding="UTF-8" standalone="no"?>
<svg
   xmlns:dc="http://purl.org/dc/elements/1.1/"
   xmlns:cc="http://creativecommons.org/ns#"
   xmlns:rdf="http://www.w3.org/1999/02/22-rdf-syntax-ns#"
   xmlns:svg="http://www.w3.org/2000/svg"
   xmlns="http://www.w3.org/2000/svg"
   xmlns:sodipodi="http://sodipodi.sourceforge.net/DTD/sodipodi-0.dtd"
   xmlns:inkscape="http://www.inkscape.org/namespaces/inkscape"
   height="2124.9854"
   width="2525.866"
   inkscape:version="1.0 (4035a4fb49, 2020-05-01)"
   sodipodi:docname="transformiÄo.svg"
   enable-background="new 0 0 2313.02 1663.769"
   viewBox="0 0 2525.8659 2124.9852"
   y="0px"
   x="0px"
   id="Layer_1"
   version="1.1">
  <metadata
     id="metadata9">
    <rdf:RDF>
      <cc:Work
         rdf:about="">
        <dc:format>image/svg+xml</dc:format>
        <dc:type
           rdf:resource="http://purl.org/dc/dcmitype/StillImage" />
        <dc:title></dc:title>
      </cc:Work>
    </rdf:RDF>
  </metadata>
  <defs
     id="defs7" />
  <sodipodi:namedview
     fit-margin-bottom="20"
     fit-margin-right="20"
     fit-margin-left="20"
     lock-margins="true"
     fit-margin-top="20"
     inkscape:current-layer="Layer_1"
     inkscape:window-maximized="1"
     inkscape:window-y="0"
     inkscape:window-x="0"
     inkscape:cy="1718.6204"
     inkscape:cx="1773.0673"
     inkscape:zoom="0.15351002"
     showgrid="false"
     id="namedview5"
     inkscape:window-height="1016"
     inkscape:window-width="1920"
     inkscape:pageshadow="2"
     inkscape:pageopacity="0"
     guidetolerance="10"
     gridtolerance="10"
     objecttolerance="10"
     borderopacity="1"
     bordercolor="#666666"
     pagecolor="#ffffff" />
  <path
     style="fill:#9a031e;fill-opacity:1;stroke-width:0.508935"
     id="path2"
     d="m 2486.1401,1490.485 c -2.8604,-2.692 1.2432,-6.4589 3.5652,-16.2923 12.4916,-52.8891 -35.8274,-101.144 -82.9874,-128.1675 -72.8417,-41.7392 -205.3814,-37.5681 -288.1447,-18.3639 -34.6967,8.0508 -96.1116,21.9725 -125.2277,42.234 -5.6036,3.9 -7.8706,-3.3936 -13.3711,-2.7702 -1.4959,0.1693 -0.5381,-1.4763 -0.4853,-2.0508 0.1955,-0.4804 4.2265,-13.7209 4.0344,-27.279 -0.1395,-9.8181 9.4247,-4.6485 16.9869,-12.6882 2.2698,-2.413 3.4278,-5.563 2.5034,-8.5781 0.016,-1.8682 -0.3327,-2.723 -0.51,-3.9204 0.281,-1.4605 11.0013,-25.3773 32.2749,-26.3103 1.5922,-0.07 2.5107,1.4139 3.6675,2.2235 3.1442,2.2013 11.3057,2.2231 10.1095,-4.086 0.2034,-1.3775 0.07,-4.5018 -0.856,-5.364 -2.7124,-5.1948 -10.2155,-0.07 -12.273,0.584 -13.6922,4.3537 -18.6408,3.2889 -27.9231,13.118 -11.335,12.0028 -9.3928,15.5771 -12.7742,13.852 -2.9325,-2.4119 1.1245,-2.0664 7.5995,-17.2426 5.3184,-12.4658 2.3432,-16.6457 0.8778,-30.8385 -0.2224,-2.1548 1.495,-11.072 -4.365,-11.4854 -1.1734,-0.5102 -4.1033,0.6361 -5.2596,1.357 -6.2725,1.4264 -2.9631,8.9084 0.2903,10.9001 1.2042,0.7373 2.9313,0.9867 3.5029,2.4747 1.8069,4.702 2.1321,9.8081 1.7325,14.5922 -0.9194,11.0154 -11.1628,24.267 -12.9678,25.5035 -1.1736,0.3165 -2.0884,0.3347 -3.798,1.0977 -3.1333,0.3564 -5.559,2.6758 -6.865,5.7202 -4.3529,10.1463 4.2088,16.847 -4.8504,20.6404 -12.4802,5.2257 -23.0354,14.2183 -23.3993,14.5907 -0.5054,0.2774 -1.6316,1.8132 -2.074,0.374 -1.6243,-5.2899 -9.2163,-4.461 -7.8787,-11.153 14.4645,-72.389 -38.3192,-310.5045 -143.1662,-388.52272 -43.5381,-32.39719 -107.1561,-57.46876 -150.6429,-24.91071 -8.1001,6.0646 -9.9003,11.32309 -13.5133,9.77417 -62.9389,-26.9819 -121.9782,57.47333 -89.2599,105.39666 14.475,21.2024 25.8371,18.8291 19.1109,23.9278 -2.1378,1.6209 -19.2155,11.3042 -33.7238,30.5942 -26.3884,35.0853 -26.3973,73.2171 -5.6332,93.7377 1.714,1.6938 1.4921,3.0549 0.4095,4.8019 -12.9077,20.831 5.8481,53.3054 22.6325,57.5989 3.0147,0.7712 3.3379,1.9382 1.2105,4.3234 -22.8606,25.6281 -21.9667,62.6466 -12.0097,85.6213 14.6766,33.8648 35.3387,36.3669 41.3235,40.2809 0.7822,0.5113 2.5891,-0.5768 2.4202,1.3071 -0.3477,3.8792 -4.1329,1.0432 -13.4672,5.5824 -22.4978,10.9399 -31.4193,26.5757 -21.5756,49.5747 0.8609,2.0115 -0.6435,4.9242 -2.4897,4.253 -7.8821,-2.8663 -22.8731,9.2393 -21.8805,23.4581 0.2956,4.2337 1.9001,7.8831 2.8396,11.8093 1.3469,5.6278 -5.5577,3.1074 -15.6406,10.8981 -33.1911,25.6461 -15.7457,67.9554 16.3622,75.5663 13.3098,3.1547 16.2853,1.5126 15.8913,5.8507 -0.638,7.0227 2.996,12.4594 9.7222,14.6262 1.2818,0.4127 3.1326,0.6124 3.1626,2.3904 0.042,2.474 -2.6161,2.312 -12.006,8.1795 -31.3612,19.5984 -36.1872,22.76 -40.8249,29.7249 -10.3596,15.5575 6.8618,28.7219 14.3275,27.823 5.7165,-0.6883 -0.373,5.6088 -0.1244,9.7193 1.2817,21.19 24.7617,32.5156 44.4408,35.5308 20.6816,3.1689 28.6336,17.1129 26.3459,17.8603 -1.0717,0.3505 -1.5027,2.2293 -2.9514,1.3732 -8.9198,-5.2701 -25.6381,-3.1224 -33.6403,10.3175 -8.6922,14.5978 -3.4391,35.2583 15.5158,41.2258 13.7535,4.33 33.8816,-3.6515 48.1352,-10.045 55.2507,-24.7821 69.869,-56.8888 115.1316,-100.1609 9.22,-8.8148 25.3442,-26.1304 36.2956,-30.5319 1.9765,-0.7943 3.6882,-1.5894 5.0376,-3.3824 -0,0.054 -0.011,0.108 -0.016,0.1622 -1.7072,2.5479 -2.8026,3.5892 0.074,5.2463 26.2836,15.1435 5.6885,1.6372 30.2125,19.7957 2.6678,1.9755 3.1847,0.5552 4.8395,-2.027 0.047,-0.027 0.094,-0.055 0.1422,-0.08 -1.1052,1.9524 -1.1506,3.8399 -1.0897,5.9692 0.3372,11.7888 -9.1322,33.5828 -13.5004,45.4676 -20.312,55.2673 -45.1986,84.7963 -45.8607,145.5482 -0.2037,18.6921 1.2095,38.0218 10.0098,48.1425 13.0686,15.0294 34.1113,11.518 43.9921,-2.2352 9.0939,-12.6571 4.4485,-28.8683 -3.9724,-34.962 -1.3638,-0.9867 0.1871,-2.1317 0.08,-3.2545 -0.2278,-2.3974 15.701,-0.7205 26.8942,17.0234 10.6591,16.8969 30.4045,33.835 50.3199,26.558 3.872,-1.415 7.2104,-9.5104 8.8614,-3.9949 2.1616,7.2204 21.1076,17.7296 31.2296,2.0268 4.5697,-7.0886 5.5393,-12.946 10.9521,-49.2979 1.6307,-10.9533 0.4208,-13.3245 2.7054,-14.2735 1.6422,-0.6824 2.5643,0.9348 3.4544,1.9452 4.6726,5.3019 11.1077,6.4626 17.2916,3.0736 3.8227,-2.0946 3.5101,1.3002 11.7091,12.2336 19.6582,26.2127 65.4929,25.7426 75.8146,-15.1707 3.0958,-12.272 -1.9221,-17.6839 3.7467,-18.6912 3.9747,-0.7063 7.961,-0.6919 11.9609,-2.1117 13.4017,-4.7564 18.5605,-23.3286 12.7706,-29.4271 -1.3525,-1.4246 0.7168,-3.9671 2.9052,-3.9807 25.0172,-0.1582 35.7894,-14.5809 36.8368,-39.5754 0.4332,-10.3391 -3.6652,-12.7148 -0.2589,-14.576 1.6597,-0.907 1.3837,1.1847 2.1646,1.697 5.8656,3.8499 16.6694,21.8686 53.4304,21.8032 24.9946,-0.045 59.2877,-13.9021 73.7046,-45.1972 1.3371,-2.9024 2.5364,-3.0724 4.4471,-0.6164 10.545,13.5542 47.8362,17.996 61.8451,-2.2479 1.1694,-1.6901 2.3287,-2.437 4.566,-1.5419 26.3073,10.5246 61.4902,-3.3815 83.6922,-42.5922 11.8781,-20.9775 13.9197,-40.3946 14.5845,-43.1346 1.9995,-8.2455 4.2513,3.1433 29.5682,7.9676 56.8682,10.8371 110.9683,-76.8861 60.9932,-123.9181 z m -597.1864,-141.7883 c 2.6119,11.233 -7.7308,18.4878 -13.0156,13.238 -5.9012,-3.7667 -5.9393,-8.6276 -0.4433,-11.9946 0.5549,-0.3398 1.5992,-0.3485 1.1981,-1.42 -0.56,-1.4974 -1.0865,-1.1517 -14.3504,0.1191 -22.8518,2.1891 -30.9939,-14.895 -46.8068,-31.0543 -1.6682,-1.7052 -5.8962,-3.9582 -4.9812,-5.5887 0.7055,-1.256 2.1591,-1.7054 3.4862,-1.0963 18.0154,8.2743 24.0874,23.9064 46.2509,21.9886 14.9747,-1.2956 18.1213,-2.0036 19.4685,5.0129 0.9987,5.2026 7.0485,1.5718 9.1936,10.7953 z m -188.9852,186.0801 c 23.4843,-12.3581 25.1235,-17.0886 26.9558,-14.3384 1.1822,1.7755 1.7835,3.9724 0.2493,5.741 -2.9873,3.4439 -50.0818,46.7818 -61.5031,51.9841 -17.197,7.8326 -22.2653,-12.2686 -16.4751,-19.3952 3.3654,-6.051 5.8627,-0.3588 50.7731,-23.9915 z m 50.2233,-52.7359 c 6.1494,-7.0367 -2.1048,-9.7252 7.345,-15.0284 1.6139,-0.906 2.4927,-2.2955 2.3888,-3.3943 -0.5457,-5.7612 3.592,-9.5021 5.6743,-14.0963 9.2393,-20.3871 4.8336,-32.6172 2.8598,-52.2168 -0.1804,-1.7909 0.197,-2.365 1.6829,-2.8797 2.1463,-0.7433 1.5961,0.9703 1.9672,1.9473 14.2793,37.6435 18.1133,58.4286 14.1062,77.3798 -1.0937,5.172 -7.4632,20.7185 -24.6559,23.5569 -6.7586,1.1152 -17.8024,-7.9067 -11.3683,-15.2685 z m -26.1019,-34.7815 c -11.3285,3.65 -13.6558,8.672 -14.6894,3.3413 -1.356,-6.99 4.1283,-10.8908 1.8109,-13.5841 -1.2119,-1.408 -2.1634,0.2095 -3.1525,0.3949 -13.7613,2.575 -11.2119,-10.8947 -5.213,-13.4739 5.0563,-2.174 5.2983,-2.7736 1.9549,-7.1948 -4.5274,-5.988 0.7496,-18.4462 13.0154,-17.4323 8.7008,0.7189 7.3815,-9.8728 8.1989,-10.9922 1.0928,-1.4951 2.0968,-1.6039 2.8492,0.2009 4.3441,10.4185 -0.5711,18.1775 -8.7876,25.8488 -5.2233,4.8769 -2.5401,12.1536 4.0498,12.2719 9.5634,0.1712 16.7025,-21.1977 11.4825,-42.6645 -2.5179,-10.3549 -10.7049,-19.2749 -7.0855,-21.8161 2.1315,-1.4971 3.2241,1.2297 4.2645,2.3756 22.9313,25.2725 25.3399,83.5582 1.3785,77.3039 -4.8396,-1.2629 0.1747,2.1181 -10.0766,5.4206 z m -68.5457,21.014 c 0.3219,0.8236 -0.1939,2.7995 1.6141,2.1333 2.3128,-0.8527 4.7133,3.0426 7.0231,-0.6293 5.5769,-8.8653 8.2712,3.3228 17.1747,6.2998 6.2097,2.0766 11.7179,-0.8381 25.0012,-7.1969 3.2755,-1.5678 5.9383,2.0516 2.6663,4.6913 -12.533,10.1074 -33.2518,17.8547 -41.8524,18.3313 -10.1611,0.5628 -9.524,-2.8044 -13.8925,-2.6189 -6.4184,0.2727 -1.8294,-5.7383 -4.5605,-6.9552 -6.3344,-2.8215 -7.5119,-8.0689 -2.9962,-13.9959 0.4762,-2.6797 7.1339,-6.932 9.8222,-0.06 z M 1770.8841,1330.32 c -1.0002,-1.2528 -0.8194,-1.8706 0.4533,-2.8742 5.7954,-4.5714 4.7836,-11.3273 -2.0227,-14.4508 -0.8145,-0.3737 -2.1124,-0.5602 -2.021,-1.7659 0.043,-0.561 0.8045,-1.2259 1.3993,-1.5626 9.1197,-5.1654 22.3532,1.6503 20.4271,10.2731 -0.4945,2.2145 -0.1896,4.0224 1.6251,5.9014 2.7498,2.847 2.1844,9.7737 0.08,12.1765 -1.7176,1.9612 -2.0138,3.862 -1.4746,6.1666 0.9082,3.8801 -0.6615,8.2121 -4.2207,10.1441 -6.669,3.6205 3.7857,5.9145 -7.2944,18.5656 -0.7082,0.8088 -1.5088,0.7241 -2.3003,0.2968 -4.4307,-2.3913 -9.1941,-4.3983 -10.8981,-9.8506 -1.9993,-6.3984 -11.7255,0.1858 -14.1741,-11.3577 -0.9148,-4.3121 -11.8793,-4.3628 -10.1058,-15.4086 0.2719,-1.6947 -0.8385,-3.0885 -1.9299,-4.0592 -4.9411,-4.3972 -3.2309,-13.5923 3.7443,-16.313 3.3094,-1.2908 6.6979,-2.6671 10.3613,-2.902 0.3605,3.5006 -5.3631,7.7405 -0.8521,14.6152 2.3896,3.6418 8.1851,-0.629 7.892,6.1348 -0.5477,12.6388 21.0663,8.4887 11.3112,-3.7295 z m 105.4026,-61.3927 c 1.8183,2.5245 3.4807,4.9889 6.8905,2.0609 0.3115,-0.2674 0.9261,-0.1653 1.3923,-0.2705 5.9528,-1.3415 5.9528,-1.3433 5.4675,-7.5469 -0.3816,-4.8797 5.2593,-8.4753 10.2559,-6.621 9.1861,3.4086 15.3268,17.3164 8.7971,25.1322 -0.6383,5.0797 -8.6568,4.0717 -3.6353,8.3712 4.2244,3.6173 3.1585,7.0436 -2.3216,8.6972 -2.1927,0.6619 -4.2135,1.6177 -6.0838,3.1126 -10.8409,8.6691 -33.2855,13.6002 -55.5285,4.2302 -0.5259,-0.2216 -5.8816,-0.2066 -5.1393,-3.0965 0.3992,-1.5547 2.8314,-2.048 4.332,-1.7725 15.1566,2.7792 39.0038,-1.8401 46.4452,-6.5037 8.2275,-5.1567 3.6342,-19.6209 -20.4252,-4.8537 -20.7823,12.7558 -58.4916,-0.8617 -58.0521,-4.009 0.7736,-5.5417 29.7051,10.721 42.0263,-3.0572 8.8043,-9.8453 10.1984,-3.7388 16.3968,-13.6494 2.9685,-4.7479 5.8938,-4.7886 9.1822,-0.2239 z m 0.3533,-66.2265 c 4.388,-3.2806 9.5523,-2.01 14.2747,-3.1488 2.3146,-0.5582 0.8974,6.8338 -1.6731,10.2751 -1.5739,2.1077 -0.7657,3.5226 1.5994,3.7659 3.0126,0.3098 4.9744,2.3758 7.27,3.8525 1.7041,1.0959 2.0625,2.592 0.2004,4.107 -4.7543,3.8675 -9.8317,6.5473 -16.2114,4.5722 -16.0874,-4.9801 -25.0853,-0.8198 -30.6047,-0.5141 -0.1106,-0.7095 -1.0532,-1.9137 2.2637,-3.3442 16.5065,-7.1188 17.8025,-15.7688 22.881,-19.5656 z m -37.1792,-50.2974 c 4.0644,4.0424 17.9695,-5.6667 30.3129,9.1935 3.5916,4.3247 8.1112,15.5062 16.6632,9.5423 0.8779,-0.6118 1.69,-1.3879 2.4458,-0.5179 0.5838,0.6728 0.1667,1.7904 -0.3057,2.7081 -5.4476,10.5802 -20.7245,7.0791 -28.2557,1.1181 -5.7858,-3.2902 -7.2662,-7.1606 -9.2402,-6.0738 -1.0717,0.5901 -0.4085,1.5577 -0.2102,2.2718 1.596,5.752 2.8882,11.557 0.9619,17.4398 -2.2756,6.9488 -5.0093,13.6498 -13.4101,15.271 -12.3877,2.3907 -27.3338,-6.7189 -23.9885,-21.7869 1.5462,-6.9631 12.7024,-10.457 17.746,-3.4274 6.1555,8.5807 -0.087,9.6454 -1.2332,7.6238 -0.4452,-0.7851 -1.4191,-1.2498 -2.038,-1.9608 -1.2058,-1.3857 -2.4668,-0.5941 -3.6783,-0.1465 -1.396,0.5157 -1.625,1.8217 -1.5143,3.0466 0.576,6.3755 13.6385,10.9215 16.1863,1.4891 2.7374,-10.1332 -2.5794,-25.6605 -11.6305,-23.3392 -1.9825,0.5082 -2.4779,-0.3914 -3.4852,-1.338 -14.3212,-13.4558 -31.8214,-13.114 -38.4976,-5.7404 -0.7596,0.839 -1.9383,2.8413 -3.3797,1.5403 -1.149,-1.037 0.2192,-2.2847 1.0465,-3.3885 6.9141,-9.2244 16.1523,-14.3748 27.5699,-15.0452 10.272,-0.6021 23.0984,6.7104 27.9347,11.5202 z m -63.9801,43.6134 c -5.4794,5.6029 -11.6217,2.2562 -13.8695,-4.1019 -1.4935,-4.2246 -0.2457,-7.2379 3.4913,-9.9781 3.8676,-2.8355 7.0157,-2.973 10.9206,-0.4765 6.5408,4.1816 8.9751,11.0202 6.5312,18.3467 -7.3215,21.949 -37.8776,18.3929 -49.2995,-11.4958 -6.3719,-16.6732 2.1431,-29.2204 -1.3167,-44.5239 -0.9844,-4.3553 -4.3665,-5.952 -2.915,-7.5953 2.7933,-3.1628 11.0509,5.966 13.5423,9.3781 14.3824,19.6973 -0.3776,40.0058 12.9747,55.3683 6.9749,8.0248 21.4166,6.0095 19.9406,-4.9216 z m 54.4173,-135.2933 c 0.8944,1.3661 0.089,4.3547 2.6836,4.0474 1.9473,-0.2307 1.4853,-2.6356 2.1717,-3.9923 0.5957,-1.1777 1.8123,-3.1422 3.7001,-2.9969 1.7674,0.1358 1.6707,2.0961 2.1401,3.3401 5.5504,14.7081 5.4472,15.6596 4.5649,17.9005 -0.263,0.6679 -0.2165,1.7084 0.5515,1.9293 4.4568,1.2816 4.7512,5.13 5.6879,8.7039 2.3055,8.7968 -10.1711,29.0347 -31.8732,30.1676 -2.619,0.1367 -11.6166,0.2656 -11.5944,-2.3544 0.023,-2.6592 9.0277,-2.7462 14.4906,-5.4248 21.1035,-10.3476 13.0753,-36.564 6.828,-33.7861 -2.4177,1.0748 -2.9057,3.4012 -2.3374,16.1178 0.2716,6.0757 -6.6872,11.482 -8.6826,9.7134 -0.7677,-0.6801 -0.2923,-1.518 0.089,-1.9808 5.8297,-7.0855 -5.0999,-15.2556 -3.9678,-23.4745 0.6545,-4.7515 2.5318,-8.0465 7.4764,-8.8559 -0.1143,-2.5428 -0.9333,-4.8068 -0.7337,-7.3392 0.3365,-4.2522 5.3334,-7.0189 8.8055,-1.7151 z m -36.0404,32.059 c -12.7038,15.6577 -29.3802,20.375 -48.3078,27.0695 -1.184,0.4186 -2.6791,0.8135 -3.2922,-0.3634 -1.01,-1.9389 1.2692,-2.0549 2.1727,-2.6427 35.0094,-22.7613 21.28,-31.591 30.2585,-39.1049 3.4415,-2.8798 -3.2957,-6.4442 1.4164,-10.6429 4.1096,-3.6626 -0.035,-9.9203 8.1728,-11.3896 10.4813,-1.8771 20.7666,20.667 9.5796,37.074 z m 8.8974,-79.1848 c 1.1915,1.7622 2.7577,3.1431 4.467,0.016 1.3046,-2.3858 4.1164,-3.1799 6.5089,-3.3695 3.8403,-0.3033 3.193,3.5828 3.9761,5.7521 0.4743,1.3135 0.1037,3.2489 -1.2664,4.6956 -1.5051,1.5894 -0.7458,3.0075 1.3029,3.1579 1.9916,0.1464 4.0419,0.846 4.1912,2.5654 0.4053,4.6598 -8.2208,6.4559 -17.9605,9.686 -1.2079,0.4005 -2.9646,0.1433 -3.3598,-1.433 -1.4688,-5.8567 -4.5701,-11.3746 -3.6253,-17.7643 0.5052,-3.4121 2.9378,-7.4878 5.7659,-3.3062 z m -86.9346,178.7789 c 2.8216,27.0459 -18.5774,41.2211 -35.0006,32.4658 -13.2833,-7.0813 -13.6753,-27.4188 1.4016,-28.1351 7.4896,-0.3559 12.9499,9.4791 8.1396,15.3598 -1.4549,1.7786 -3.0166,3.4618 -5.6547,3.224 -0.8452,-0.076 -1.8089,-0.2555 -2.1875,0.7997 -0.9375,2.6111 15.3479,9.932 18.9907,-4.7329 5.5645,-22.3988 -30.0006,-41.3177 -11.6785,-68.581 0.7105,-1.0574 1.3527,-2.3682 2.7128,-1.8494 1.0842,0.4134 0.3299,1.7531 0.2897,2.6613 -0.6776,15.4092 20.7444,27.2943 22.9869,48.7878 z m 31.5535,-121.2041 c 2.3323,-0.627 3.3341,0.9707 4.9387,1.4739 0.897,0.281 0.593,2.5856 -1.5506,2.5726 -8.295,-0.05 -6.1475,9.9257 -16.9234,13.7418 -1.0236,0.3625 -2.2884,0.6417 -3.0781,-0.3539 -0.8726,-1.1011 0.4762,-1.6071 0.9357,-2.3604 2.6205,-4.2939 3.6491,-8.748 1.7589,-13.6895 -2.3,-6.0138 6.2285,-3.1516 6.5794,-2.5616 2.0551,3.4567 5.0955,1.7805 7.3394,1.1771 z m -91.3701,-118.42248 c 2.0009,-1.91621 3.679,-2.14372 5.769,-0.42202 7.1338,5.60087 4.7879,10.46283 8.7451,9.57715 9.4954,-2.12458 10.3832,12.30792 8.6201,22.0768 -1.4658,8.1219 -3.2186,16.26755 -1.935,24.62835 0.1626,1.0594 0.3328,2.212 -1.0529,2.6907 -1.4025,0.4848 -1.7121,-0.3697 -2.2761,-1.4907 -4.7567,-9.4555 -12.58,-16.56988 -19.068,-24.70827 -5.0335,-6.31411 -10.5201,-18.11279 -3.0525,-20.47445 3.5091,-1.10994 0.5372,-8.32143 4.2503,-11.87756 z m -58.5795,88.47718 c -5.2519,-1.9309 -5.4256,-3.4758 -2.9164,-8.6081 6.3683,-13.0264 19.5584,-14.7064 20.0504,-15.0673 1.6561,-1.2154 4.3597,0.025 5.3799,-1.4996 1.3884,-2.0754 -1.6481,-2.9654 -2.2836,-4.6523 -4.6895,-12.44701 31.1828,-12.69677 61.2423,29.4644 3.7671,5.2836 6.1592,11.5476 9.3273,17.6665 1.3665,-2.3818 0.8152,-4.7228 0.5751,-6.7773 -5.9197,-50.7075 33.3933,-75.55073 35.875,-58.67083 0.6697,4.55433 1.3438,4.82563 6.0587,4.09384 19.7833,-3.07032 34.0073,10.81219 28.0956,14.87299 -5.4579,3.7491 6.5561,9.3105 3.8577,23.9055 -3.3369,18.05 -27.5299,16.3614 -31.013,1.3869 -2.577,-11.08 16.3533,-16.1664 19.6152,-2.6085 0.7991,3.3224 -0.084,1.6448 1.8686,4.4406 3.0884,-3.2147 2.411,-6.8212 1.3231,-10.2331 -6.3832,-20.0203 -35.3145,-18.0532 -48.5961,-0.796 -9.4886,12.3291 -14.2437,26.3895 -7.0599,40.399 1.9571,3.8171 4.6591,7.7426 0.8664,12.0369 -1.0357,1.173 0.1085,1.5886 0.6922,2.3191 5.2111,6.5193 12.9404,6.7848 14.7854,15.9723 0.6691,3.3304 -0.7647,4.9744 -4.1304,4.8701 -4.8124,-0.1492 -3.1729,10.3985 -5.756,10.8807 -1.0965,0.2045 -1.9386,-0.621 -2.207,-1.5495 -0.5952,-2.0614 -2.3569,-3.0557 -3.7303,-4.362 -1.5795,-1.5016 -2.9802,-3.1063 -5.7402,-1.1216 -2.1244,1.528 -4.642,-0.9052 -5.7534,-4.5802 -1.2887,-4.2614 0.5708,-7.8461 2.4048,-11.2626 1.2442,-2.3177 1.4083,-4.8722 2.4918,-7.1814 2.1434,-4.5687 -4.8652,0.533 -6.3824,-9.6256 -1.6267,-10.8886 -5.3713,-20.8645 -17.5072,-29.5048 -6.9583,-4.9541 -22.9677,-18.0174 -46.1028,-11.1288 -14.6924,4.375 -16.7261,19.5157 -6.715,28.2314 0.7319,0.6372 1.7478,1.3813 2.6169,0.6706 0.7013,-0.5736 0.053,-1.5835 -0.2609,-2.3553 -5.5727,-13.7242 13.0113,-19.4586 18.6854,-7.4696 7.9299,16.7551 -19.3732,27.3631 -31.4006,9.5374 -9.2578,-13.7201 -0.5609,-18.8643 -8.2566,-21.6938 z m 72.9186,59.5229 c -4.2765,0.8688 -7.8784,-1.6025 -11.7264,-2.321 -3.4607,-4.4056 -7.7687,-5.3981 -12.7856,-3.9417 -0.8482,0.2462 -1.4652,-0.1447 -1.82,-0.8457 -0.4852,-0.958 0.4178,-1.2042 0.9561,-1.6431 0.5483,-0.4469 0.9701,-1.1891 1.5837,-1.3937 4.3557,-1.4539 8.2101,-3.4717 11.4141,-7.003 2.1546,-2.3747 3.2465,-1.6964 3.6605,1.3464 0.8041,5.9129 4.6671,9.7594 9.1876,13.0712 0.6351,0.4654 1.7711,0.3372 1.5802,1.5592 -0.1823,1.1687 -1.3684,1.0335 -2.0502,1.1714 z m -76.7865,-7.6916 c 3.8262,-5.7727 10.0441,-6.1045 13.6465,-0.4944 0.8369,1.3034 1.6734,1.6166 2.8152,1.6346 7.8102,0.1251 4.4488,8.4981 10.5649,8.9077 3.2448,0.2174 4.9723,3.4703 7.3283,5.4788 7.779,6.6332 16.3872,11.1223 26.9891,11.7757 5.9648,0.3676 13.0192,2.3667 16.5491,1.7043 1.2326,-0.2311 2.1875,-0.1804 2.594,1.2031 0.481,1.6367 -1.1515,1.9525 -1.8573,2.1308 -8.6301,2.1774 -27.064,4.1726 -28.2881,4.2522 -50.7547,3.3156 -55.5596,-28.7212 -50.3417,-36.5928 z m -6.5572,85.6313 c 0.9339,-5.0387 -3.2078,0.5852 -9.2146,-10.3575 -1.6603,-3.0239 -3.3595,-6.0691 -6.3572,-8.0576 -1.1162,-0.7405 -1.2065,-2.1163 -0.7285,-2.8441 3.0197,-4.5976 7.8099,1.1397 10.1544,-1.4951 1.5922,-1.7891 -1.1075,-3.4625 -1.5046,-5.2997 -0.3002,-1.3899 -0.66,-3.0044 0.6398,-4.0511 4.1697,-3.358 8.2758,-1.3776 11.3423,2.5951 1.5432,1.9992 2.7092,4.0501 5.485,0.9039 2.4077,-2.7285 7.2255,-1.7239 10.8541,1.0382 7.5457,5.7441 5.2725,16.6202 16.7475,18.6275 0.9797,0.1716 2.2371,0.058 2.1745,1.2678 -0.053,1.0197 -0.9385,1.8316 -2.1454,2.1951 -12.2155,3.676 -17.5003,-6.9506 -25.4245,-10.3033 -13.0237,-5.5099 4.4829,28.8183 32.5364,15.8022 5.9092,-2.7421 12.6007,-10.8784 14.3164,-9.4853 1.2122,0.9841 -0.096,2.316 -0.6483,3.5405 -6.7877,15.0461 -29.0167,22.2559 -43.2464,19.4337 -12.8278,-2.5438 -15.8342,-8.9048 -14.9809,-13.5103 z m 8.4455,58.2571 c -1.8602,-1.2627 -7.8184,-0.7553 -7.4069,-2.8227 0.7548,-3.7902 -2.4487,-4.6984 -4.2923,-6.6505 -3.0156,-3.1933 -5.1577,-11.3628 5.6399,-14.5472 2.5334,-0.7471 3.3871,1.7368 4.2567,3.5326 1.3363,2.7605 6.7933,3.3626 8.7463,0.9818 5.0202,-6.1204 9.1343,3.8024 15.4182,6.7715 5.5718,2.6322 10.4667,-0.5779 15.6449,-1.558 4.0648,-0.7695 7.0248,-4.2776 11.3667,-4.3046 1.0727,-0.01 2.2334,-0.6163 2.8423,0.6971 1.4754,3.1815 -6.3599,7.1593 -9.1962,8.6772 -10.1536,5.434 -33.468,15.7081 -43.0196,9.2228 z m -2.3547,95.7088 c -3.6927,-2.2388 -3.5497,-8.0094 -0.048,-10.7036 3.7685,-2.8998 3.8438,-3.0044 -0.011,-5.7781 -14.5511,-10.4693 -17.8533,-34.4842 -5.4812,-30.1697 3.2837,1.1452 3.2396,-1.7349 4.0667,-3.5702 3.273,-7.2621 14.881,-16.2883 24.1699,-13.3721 11.9585,3.7545 19.1054,20.0927 5.5831,26.0917 -4.1174,1.8266 -8.8938,0.8479 -11.8065,-2.4198 -2.3734,-2.6625 -2.652,-8.6746 -0.3141,-11.8424 0.9518,-1.2893 1.7603,-2.5223 0.6451,-3.7994 -0.9656,-1.106 -2.1065,0.1154 -3.2004,0.4086 -5.577,1.4959 -9.2661,10.3728 -6.6965,17.4831 6.9607,19.2634 32.5418,25.9243 54.568,20.158 3.3969,-0.8895 4.511,-3.1878 5.8043,-1.4843 3.9526,5.2037 -36.2333,37.8211 -67.279,18.9982 z m 84.85,-42.5243 c -9.5875,-0.8782 -20.5024,-8.8609 -22.7674,-17.9153 -2.1083,-8.4291 3.2034,-17.7683 13.933,-19.2868 5.5334,-0.7832 11.1677,-1.4639 16.8599,-0.6506 5.691,0.8132 13.34,7.4544 16.058,1.9448 3.693,-7.4852 9.1192,10.5859 -3.3514,15.5137 -9.3182,3.6827 -18.5144,4.5241 -27.156,-1.9831 -1.7125,-1.2894 -4.2137,-3.1691 -5.753,-1.5924 -2.0016,2.0501 0.291,4.538 1.6709,6.3664 7.8252,10.3702 20.7417,8.8133 32.5531,3.6666 17.8398,-7.7736 25.8133,-25.3996 28.5244,-44.5819 1.3778,-9.75 11.8755,-13.6644 19.0609,-3.7889 21.3659,29.3657 57.3053,33.862 70.9735,20.4777 2.7354,-2.6786 4.3049,-10.3998 2.6643,-13.8093 -2.2022,-4.5759 -4.346,-0.046 -6.6764,3.511 -1.7499,5.0907 -6.8871,5.659 -11.4318,7.1508 -4.8497,1.5921 -9.8895,1.2281 -14.8624,1.2932 -2.7385,0.036 -7.0536,-3.7686 -7.4191,-5.9819 -0.2864,-1.7349 0.5477,-3.1044 2.0656,-2.1385 14.5456,9.2567 8.2692,-11.1402 32.4802,-16.7837 3.5853,-0.8355 10.597,3.2665 13.5138,7.6181 10.286,15.3454 -3.4927,34.5081 -26.6647,36.0652 -1.8069,0.1212 -3.4547,-0.1608 -2.2834,2.8014 2.548,6.444 -13.0402,4.0404 -31.3433,-8.8392 -4.4435,-3.1268 -9.4247,-5.4384 -13.6062,-8.9594 -3.1695,-2.6688 -6.966,2.871 -3.3602,5.2055 14.3844,9.3112 19.6584,12.9432 19.0989,20.2547 -0.5907,7.7187 -6.8124,-0.4509 -8.6439,6.5492 -1.9814,7.5705 -9.2066,10.436 -15.7133,4.452 -2.2781,-2.095 -4.1218,-3.2835 -7.3646,-1.3384 -5.2244,3.1336 -5.9791,-4.2802 -4.2849,-9.9397 2.0663,-6.9016 10.1648,-18.5985 3.3556,-21.5961 -9.8521,-4.3366 -2.3559,30.8247 -30.6947,37.8 -6.5514,1.6125 -1.372,-5.3917 -7.5744,-3.7751 -7.1685,1.8689 -14.3317,2.9794 -21.861,2.29 z m -10.7771,74.9201 c -3.2011,2.6874 -6.5813,2.7111 -9.2524,-0.065 -5.9057,-6.139 -6.1921,-8.7385 -1.4869,-14.1952 2.1445,-2.4865 -1.4848,-8.7215 8.115,-10.2866 10.6205,-1.7318 19.6984,-5.7052 23.4205,-15.3697 1.5523,-2.097 9.0109,-15.6284 12.1713,-12.4509 0.9336,0.9385 -0.063,2.176 -0.5849,2.9626 -9.9956,15.0623 -2.7895,31.7661 -30.0204,36.913 -7.5186,1.4217 6.2684,5.2456 -2.3622,12.4923 z m -63.0949,53.0122 c -0.9339,-0.5183 -2.1937,-0.6878 -2.0276,-2.1828 0.4424,-3.9747 11.3062,-5.9943 12.459,-6.0312 1.2979,-3.2019 -1.7399,-4.753 -2.914,-6.8566 -3.65,-6.5406 7.1529,-12.9079 12.6235,-7.2006 2.7301,2.8481 4.0107,1.344 5.4581,-1.0759 3.5382,-5.9153 9.3878,-7.9389 15.2835,-5.0208 5.2343,2.5911 6.731,13.5723 15.6789,9.5903 1.1165,-0.4969 2.6099,-1.8427 3.5922,-0.3862 1.0062,1.4917 -0.5926,2.8499 -1.5489,3.7262 -11.6342,10.658 -22.0717,1.5679 -26.7486,2.3179 -2.262,0.3627 -4.6677,0.5333 -5.2464,2.9981 -2.0241,8.6201 4.9914,11.2526 13.8701,11.1584 11.4389,-0.1216 19.2096,-6.9752 26.1077,-15.0078 2.0823,-2.4251 23.3168,-25.1284 30.5664,-46.4718 1.9149,-5.6378 7.7153,-10.9051 8.8605,-9.8754 1.3625,1.2255 0.3157,2.1314 -5.3291,13.6958 -15.5001,31.7578 -24.0365,53.0696 -42.6068,66.2343 -14.4924,10.2741 -35.1039,20.7214 -39.5802,3.6086 -0.3092,-1.1811 -0.5075,-2.8777 -2.2883,-2.7266 -4.1211,0.3493 -6.0899,-3.0033 -8.7658,-5.0231 -2.4593,-1.8554 -4.7297,-3.9649 -7.4442,-5.4708 z m -9.733,120.9233 c -36.7412,-9.526 -35.9036,-29.1522 -26.8471,-30.6626 9.0624,-1.512 -4.5799,-8.7586 1.531,-27.3659 1.0263,-3.1255 2.165,-6.2935 5.0032,-8.6407 3.1388,-2.5962 4.0432,-2.8871 6.6263,0.2967 3.5843,4.4185 0.9352,-1.3623 17.939,-6.2526 4.3086,-1.2389 12.8291,1.7719 15.9018,5.714 8.7091,11.1745 3.6313,26.1593 -6.6822,26.1355 -11.7647,-0.027 -12.9918,-12.0579 -9.1475,-15.2664 1.102,-2.5837 2.7037,-4.1043 5.0059,-4.9378 0.8982,-0.3253 2.5261,0.055 2.2129,-1.7207 -0.6224,-3.5243 -12.0883,-3.0011 -16.6455,5.4141 -7.7515,14.3136 1.3732,30.8574 14.5759,39.7648 20.75,13.9991 83.3061,-16.228 106.4505,-25.9807 2.0713,-0.8722 3.3838,-3.0034 4.6067,-0.8787 2.3142,4.0225 -3.5288,6.6125 -13.2391,11.7451 -12.7299,6.7286 -41.4647,22.7969 -74.6922,30.953 -10.6442,2.6113 -21.4112,4.5836 -32.5996,1.6829 z m 68.6133,105.0671 c -12.2888,9.1849 -36.8522,14.7655 -47.3142,13.2923 -3.0421,-0.4283 -6.6377,-5.6579 -5.8701,-9.0247 0.3352,-1.47 0.025,-2.6328 -0.5521,-3.7885 -0.9909,-1.9848 -2.0688,-0.069 -3.1091,-0.053 -7.0943,0.1055 -10.6053,-10.1212 -19.4364,-13.6647 -1.5808,-0.6342 -1.8808,-2.3604 -3.4209,-3.0836 -0.9559,-0.4486 -0.8989,-1.8338 0.2655,-3.0277 3.4085,-3.4952 7.9226,-3.7665 12.2392,-4.4763 1.3648,-0.2248 2.6909,-0.9385 4.246,-0.5724 1.5417,0.3633 3.9331,-2.2772 0.9827,-4.2012 -7.2571,-4.7313 -7.4123,-14.2086 -0.2525,-16.9763 7.1175,-2.7511 8.239,-3.5241 14.209,3.2114 3.9235,4.4265 4.7009,-2.1191 8.5232,-6.6526 5.6472,-6.6995 17.1047,-5.9674 22.1119,1.2226 6.1322,8.8058 10.3407,14.8569 19.8513,9.2138 0.8061,-0.4781 1.4363,-1.6034 2.4693,-0.7014 0.8958,0.7816 0.4623,2.0868 -0.026,2.6847 -7.5876,9.3015 -16.1628,14.2553 -27.7391,10.7403 -2.6531,-0.8057 -5.5503,-1.288 -8.1284,-2.5368 -2.66,-1.2883 -8.1687,-2.3964 -10.5287,-0.1216 -5.7621,5.5534 2.1434,20.2992 14.3908,17.2859 13.0449,-3.2098 21.3363,9.307 94.3299,-82.3962 3.162,-3.9725 4.0425,-5.7546 5.9143,-4.2878 1.6554,1.2976 3.3345,3.7978 1.4899,6.5417 -8.0885,12.0308 -46.3571,70.2291 -74.6459,91.3721 z m 153.059,-189.287 c -7.409,-2.3774 -7.493,-10.9745 -2.6636,-12.4588 9.4005,-2.8889 -11.3892,-6.1396 -14.8297,-21.3101 -2.6017,-11.4714 -0.2203,-19.97 -1.7437,-28.3846 -0.2522,-1.3943 -0.7387,-3.1405 1.2708,-3.6407 1.9363,-0.4824 2.6301,0.8648 3.3002,2.5129 5.0092,12.3157 1.4941,26.0288 18.9174,36.0947 2.7935,1.6137 7.1593,3.3797 6.238,7.2755 -1.1773,4.9773 1.911,10.0265 -1.0349,14.8106 -1.5516,2.5203 -6.619,6.0104 -9.4545,5.1005 z m 34.5123,-63.6932 c -1.8961,-0.9795 -2.5907,-0.4459 -3.4482,0.9947 -5.51,9.2591 -5.5149,9.2565 -16.1137,13.0493 -1.6331,-3.123 -0.2108,-6.3747 -0.3208,-9.5572 -0.4249,-12.2752 -9.1593,-23.7102 -19.2144,-30.8534 -0.6252,-0.4443 -2.1813,-0.012 -1.5687,-1.7513 0.4442,-1.2611 1.3341,-1.295 2.3096,-1.2479 37.487,1.8121 33.4613,30.6861 59.913,20.3247 0.482,-0.1887 1.0014,-0.4939 1.2746,-0.056 2.2056,3.5346 -13.6629,13.8331 -22.8314,9.0968 z m 544.2206,87.6784 c 8.1784,-2.1612 14.9463,-7.0209 21.8074,-11.6077 8.3108,-5.556 21.8466,-10.426 23.6825,-0.9116 0.7724,4.0047 4.2445,-0.1346 12.2724,4.1938 2.413,1.2287 2.8744,2.8581 1.9165,5.4577 -1.7878,4.8523 -9.5778,4.9638 -9.1922,8.6395 0.3523,3.3607 -1.7027,4.9945 -4.6699,5.868 -13.4182,3.9504 -27.9862,-7.1329 -45.587,-8.1086 -1.2529,-0.069 -2.1599,-0.012 -2.2755,-1.4916 -0.1151,-1.4614 1.0099,-1.766 2.0458,-2.0395 z m -88.6995,-43.2948 c 1.1019,1.2702 2.9667,1.5508 3.3231,3.9394 0.3428,2.2982 0.02,5.7554 4.0097,6.2591 0.6675,0.084 6.7338,6.7612 0.2785,7.0549 -5.2853,0.24 -8.9578,2.9617 -11.8486,7.0785 -0.5072,0.7221 -0.4325,2.1608 -1.7905,1.8003 -2.6449,-0.7022 -2.2365,-8.5306 2.0085,-14.1532 2.1669,-2.8698 3.9467,-5.7644 2.2794,-9.5298 -0.863,-1.9497 1.1215,-3.1622 1.7399,-2.4492 z m -41.2941,82.8581 c 0.8167,-0.3995 1.7438,-1.6259 2.5557,-0.797 1.0187,1.0399 0.073,2.1521 -0.6121,3.226 -5.9257,9.2788 -15.0352,12.7702 -25.3667,13.8809 -11.0154,1.184 -29.8185,-6.6804 -42.1735,2.7941 -14.6383,11.2256 7.7632,25.4927 3.1032,16.9761 -1.2714,-2.3237 -0.3517,-4.4275 0.698,-6.4717 3.4708,-6.7571 14.6668,-5.6816 17.3323,1.3298 5.3641,14.1095 -13.4448,21.8652 -25.2355,12.5188 -14.5186,-11.5097 -10.2638,-36.7989 15.7907,-45.0525 6.2468,-1.9787 12.5859,-2.579 19.1169,-1.1376 24.0789,5.3152 28.9084,5.6083 34.791,2.7331 z m -77.6165,-34.5928 c 19.3416,6.084 32.1891,-15.5233 55.9438,-10.2119 4.1146,0.9199 15.7904,4.8457 14.0053,8.6715 -0.9247,1.9824 -3.7449,-0.4757 -8.1275,0.3601 -15.4603,2.9476 -23.441,15.7511 -41.3466,16.5702 -31.9757,1.4625 -47.4264,-25.1311 -30.2239,-40.6091 5.7413,-5.166 12.9829,-5.6642 19.4286,-1.3375 3.8483,2.5836 4.9793,5.5248 3.9239,10.2028 -1.02,4.52 -3.2844,6.8671 -7.7543,7.1851 -6.7267,0.4778 -12.2479,-3.817 -9.2985,-11.0782 -10.5854,3.0033 -6.7194,17.0482 3.4492,20.247 z m 137.523,-127.738 c 0.9559,1.8182 2.5592,1.9482 3.4155,-0.066 0.7797,-1.8335 2.4057,-2.9463 3.7993,-3.0359 2.3017,-0.1475 5.6065,-2.293 6.8613,1.3487 0.7819,2.2695 1.1761,5.1642 -0.4904,7.3129 -4.7479,6.1217 8.0081,1.8318 3.6014,8.3298 -2.7776,5.4614 -16.3547,5.4829 -20.2674,6.1343 -1.6029,0.267 -2.5401,-1.2408 -2.6552,-2.5082 -0.4644,-5.1183 -1.307,-10.2009 -1.0753,-15.3955 0.2169,-4.8265 4.0412,-7.3861 6.8108,-2.1197 z m -15.8455,43.4035 c 1.9306,8.1143 -5.4643,6.8157 -7.1792,12.0406 -1.9674,5.9929 -7.9264,1.2446 -9.1926,5.5478 -3.2783,11.1436 -16.897,2.2655 -23.7709,43.3557 -0.1779,1.0627 0.6258,3.1986 -1.5554,3.0472 -1.3238,-0.092 -1.559,-1.6202 -1.6476,-2.8733 -1.421,-20.0375 -3.7526,-37.2012 5.5297,-55.0983 10.6081,-16.8599 35.3606,-16.3373 37.816,-6.0197 z m -57.9235,-47.9845 c 3.6499,-0.568 7.2962,-1.8345 10.251,1.7395 0.5091,0.6159 1.4814,0.2436 1.9891,-0.2647 1.6994,-1.7012 2.4722,-2.175 18.2344,-2.962 1.3279,-0.066 3.0863,-0.9373 3.9168,0.6284 0.8869,1.6727 -0.4282,3.5722 -1.2703,4.589 -0.9699,1.171 -3.3591,1.7084 -2.7932,3.5851 0.7541,2.5014 3.1727,0.5698 4.7823,0.8444 6.1915,1.0559 5.7654,6.7207 1.9435,8.7568 -2.2417,1.1944 -4.6448,1.3472 -7.0217,2.2577 1.2322,4.8566 -1.0393,7.8933 -5.1342,10.3906 -7.0831,4.3191 -18.9411,-2.432 -23.1064,5.735 -0.2726,0.5339 -0.8506,1.3046 -1.7806,0.8723 -2.4182,-1.1232 -0.2407,-9.6617 5.4388,-11.8387 11.2875,-4.3267 13.8227,-5.7528 13.8444,-8.5783 0.053,-6.8423 -27.189,-3.7436 -28.2498,19.7502 -0.2747,6.0774 3.2421,14.3682 0.8122,15.4514 -2.3933,1.0665 -5.8674,-7.2347 -6.788,-9.69 -7.541,-20.1188 5.8281,-39.8498 14.9317,-41.2667 z m -88.6981,0.4105 c -3.3607,16.7324 24.9376,2.0445 32.2979,29.2051 2.5983,9.5886 1.1558,1.8818 17.1245,15.6869 19.9497,17.2466 6.0658,46.8081 2.7518,45.3042 -1.7679,-0.8018 -0.4032,-2.6822 0.063,-3.7137 4.1668,-9.2241 -2.8292,-25.3533 -20.6342,-33.0036 -1.2697,-0.5453 -2.2922,-0.6404 -2.6179,-2.6608 -2.118,-13.1503 -34.7187,-4.659 -28.0428,7.7168 3.6563,6.7778 12.2436,6.5443 12.0176,2.5794 -0.073,-1.2893 0.149,-2.7615 -1.603,-3.3137 -0.8985,-0.2833 -1.7142,-0.9905 -2.6114,-1.0856 -1.6189,-0.1711 -1.4898,-1.3089 -1.5933,-2.3405 -0.3305,-3.3002 12.452,-4.2403 15.0396,4.7316 5.0697,17.5796 -27.2129,21.6739 -32.5587,-2.2215 -1.8678,-8.3494 3.1845,-13.5318 8.647,-18.3919 4.6244,-4.115 10.4625,-5.2481 16.3734,-6.0816 0.7339,-0.1032 1.8858,0.1185 1.9989,-1.0997 0.094,-1.0124 -0.7109,-1.4947 -1.4992,-1.8554 -36.5925,-16.7482 -13.146,-39.4503 -15.1529,-29.456 z m -97.3492,167.9368 c -0.4124,1.5673 -0.9065,1.9798 -2.4542,1.5633 -15.0929,-4.0651 -10.2735,17.4088 1.0975,11.8597 6.0876,-2.9707 4.4847,4.0501 8.7757,4.7862 8.0484,1.3812 9.7494,-5.5638 13.0593,-6.6168 1.2479,3.4528 1.339,7.109 1.4766,10.6582 0.2908,7.481 -7.4569,12.7208 -13.4613,9.9464 -6.1992,-2.8644 -8.2002,6.8552 -19.0318,-2.1172 -1.1418,-0.9458 -2.263,-1.4224 -3.6232,-1.1443 -11.5082,2.3531 -9.5014,-9.1722 -16.0724,-8.4603 -5.6788,0.615 -9.4208,-2.9509 -13.3828,-6.0585 -0.7074,-0.5548 -1.1046,-1.255 -0.6459,-2.2273 7.1683,-15.1971 13.4521,-6.542 14.109,-14.1006 0.3505,-4.035 3.6951,-7.2034 7.6152,-7.9199 2.3282,-0.4258 3.9526,-1.4564 5.0649,-3.8142 1.3627,-2.8887 7.4876,-6.1727 11.1957,-4.7884 6.0131,2.2448 5.9041,-4.0372 13.3121,-1.9183 10.3115,2.9492 11.7522,16.367 9.448,17.5855 -1.0689,0.5652 -1.7582,-0.5502 -2.4259,-1.1478 -5.5813,-4.9942 -12.1791,-3.2236 -14.0565,3.9143 z m -93.0415,174.2628 c -0.9822,-0.8986 -1.6838,-0.4797 -2.5561,0.078 -5.4279,3.4701 -4.8033,-2.1401 -7.7031,-4.2817 -6.6821,-4.9355 -7.8638,-16.065 -8.3063,-23.8224 -0.3568,-6.2521 -0.71,-34.0286 5.5276,-33.33 3.9294,0.4401 1.6211,5.5306 1.9932,11.7074 0.5018,8.3226 -1.9466,17.8232 12.9316,22.4807 5.0672,1.586 6.2758,3.8303 3.4467,7.979 -2.4442,3.5837 2.0856,4.2292 2.2273,6.6901 0.111,1.9237 1.7162,0.6616 2.6004,0.6281 7.2881,-0.276 6.1906,7.4843 3.8672,9.0291 -3.6317,6.5075 -8.9125,7.5226 -14.0285,2.8417 z m 3.0043,-94.5087 c -15.2016,-19.345 38.7747,-40.6451 71.4248,-29.602 1.4659,0.4957 4.4022,0.4086 3.8808,2.9614 -0.4549,2.2264 -3.291,2.0353 -5.6305,2.0345 -3.6928,0 -33.1426,-4.0401 -50.1875,18.9302 -5.3613,7.225 0.359,13.4009 4.8011,13.0075 6.4271,-0.5694 5.8544,-5.8829 10.416,-13.96 6.0708,-10.7492 17.2398,-10.3979 17.9265,-9.2896 2.1519,3.4733 -12.0073,4.8207 -7.1125,13.928 5.8436,10.8704 -3.5332,20.6424 -10.7856,18.8932 -5.3884,-1.3 -5.8411,-0.8385 -5.8159,4.665 0.03,6.5436 -11.3029,14.2373 -14.4346,0.6005 -0.2249,-0.9809 0.8777,-2.4994 -0.8967,-3.048 -1.7484,-0.5409 -2.6414,0.666 -3.6436,1.7136 -5.2385,5.4784 -11.8807,7.7895 -11.1002,2.7743 1.7619,-11.3225 -1.9663,-16.2551 1.7712,-20.8776 0.9388,-1.1597 0.1305,-1.7842 -0.6133,-2.731 z m -97.6379,117.2305 c 0.1765,-10.5864 12.6607,-47.3479 15.9027,-56.3929 6.4002,-17.8574 5.65,-24.0495 12.5644,-22.8144 1.6513,0.2952 1.3786,1.915 1.1713,3.0217 -4.2712,22.8226 -5.8803,54.3259 -4.1129,73.8542 0.294,3.249 1.081,6.7533 -1.1646,9.692 -4.2357,8.1799 -24.6745,11.5058 -24.3609,-7.3606 z m 67.3848,-132.1511 c -3.7954,1.2424 -0.3089,9.4847 -7.4702,11.2032 -6.1893,1.4852 -4.5432,7.9248 -10.3193,9.1879 -5.1703,1.1307 -12.4595,-3.3149 -13.7518,-8.4372 -3.4637,-13.729 3.8877,-26.4058 11.753,-32.0109 16.2504,-11.5798 37.4432,-16.0771 76.5764,-17.9633 1.0438,-0.051 2.3949,-1.2388 2.5708,1.0261 0.3428,4.4217 -6.8443,2.61 -26.6867,10.4295 -22.1892,8.7443 -24.5606,23.9101 -32.6722,26.5647 z m 170.5234,-224.9843 c 2.2701,1.5154 4.9474,2.4884 6.4348,5.1271 1.1674,2.0712 2.7877,2.2476 4.0913,-0.037 2.116,-3.7087 8.3389,-7.9891 8.7529,-5.6363 0.8414,4.7843 4.0684,9.0118 2.8126,14.3448 -1.4612,6.2064 -8.866,10.8106 -8.8023,28.79 0.013,3.6178 -1.484,3.2327 -2.1623,3.4107 -0.3592,-0.9673 -0.8091,-1.7349 -0.9215,-2.5496 -3.6694,-26.584 -19.6088,-22.0776 -14.0506,-41.9931 0.6451,-2.3123 2.1598,-2.5812 3.8451,-1.4563 z m -69.5008,22.258 c 5.9849,2.9053 1.8064,-4.0533 6.2235,-6.6754 4.5184,-9.0272 19.6912,-9.1032 26.5544,-1.9693 3.6952,3.8407 2.651,10.4481 -1.9753,12.0466 -5.8814,2.032 -5.883,2.0327 -4.7361,8.026 0.09,0.469 0.4287,0.9922 0.3079,1.3846 -1.3233,4.2956 1.6001,4.8354 4.6407,5.4945 12.0565,2.614 -0.6389,9.3579 0.04,18.5611 0.5276,7.1493 -4.3388,11.2707 -4.0675,16.6002 0.6921,13.5844 8.8797,18.9254 15.8557,31.4328 0.524,0.9396 0.5222,1.6101 -0.3575,2.1484 -1.8208,1.1149 -20.1302,-16.2635 -25.2301,-36.1159 -4.4664,-17.3833 1.2873,-20.2521 -1.2618,-30.9335 -2.4718,-10.3594 -11.7504,-9.4666 -12.9678,-1.3626 -1.3029,8.6728 3.976,32.3833 12.5814,45.1788 0.8515,1.2662 1.3705,3.6927 0.1046,4.6794 -1.7384,1.355 -2.9048,-0.7399 -3.9863,-1.9468 -8.2451,-9.2064 -14.3189,-16.415 -17.829,-28.8614 -5.7766,-20.4845 0.079,-23.4265 -0.9446,-32.0873 -0.6714,-5.6836 2.0444,-8.0289 7.0475,-5.6002 z m -37.4308,41.6194 c 3.0139,3.4143 7.8112,-2.3446 10.9663,3.3058 5.7641,10.3212 4.6719,22.997 19.8568,32.2472 12.3191,7.5046 27.9935,13.8283 24.381,18.5961 -1.1296,1.491 -4.8521,-1.475 -7.1127,-2.3355 -9.1939,-3.5007 -18.8086,-5.775 -27.8899,-9.6266 -16.2706,-6.9005 -18.5034,-18.6275 -23.1168,-32.5317 -0.2853,-0.8599 -0.7459,-1.615 -1.774,-1.5604 -1.1425,0.06 -0.7331,1.0214 -0.8235,1.6655 -0.8921,6.3835 -5.3643,8.2892 -11.174,4.3828 -3.5855,-1.4238 -4.3953,-5.2266 -3.505,-8.3117 2.5848,-8.953 14.6115,-12.1541 20.1918,-5.8315 z m -34.0295,24.5169 c 0.5113,0.076 0.4385,0.6736 0.458,1.1908 1.0591,28.3048 25.8045,12.9216 42.5562,46.8148 0.4327,0.8755 0.7573,1.7052 -0.222,2.6157 -1.3503,1.2558 -1.5749,-0.3431 -2.2319,-0.7389 -2.8589,-1.7229 -5.758,-3.404 -8.9384,-4.417 -25.6442,-8.1686 -29.2475,3.1162 -35.9116,2.6414 -0.7543,-11.2321 -0.759,-11.2352 5.5301,-19.9839 0.9783,-1.3613 1.1907,-2.2109 -0.4645,-3.5582 -6.2244,-5.0665 -5.8426,-17.0724 -2.9191,-23.5243 0.4021,-0.8877 1.2742,-1.1693 2.1432,-1.0404 z m -31.354,79.1059 c 0.5676,5.0192 -7.3471,8.3772 -12.4861,2.5325 -1.9663,-2.2364 -0.7898,-8.2759 0.9009,-10.705 3.2099,-4.6111 9.0724,-3.7957 13.1656,-6.8624 3.2037,-2.3998 6.5659,0.8978 9.1612,2.8142 16.1858,11.9554 27.3636,3.2569 40.6459,2.9321 1.7786,-0.044 3.2907,0.055 3.6216,2.0225 0.3437,2.0421 -1.4515,2.2932 -2.8305,2.6187 -8.3241,1.963 -15.1653,7.54 -26.7201,9.7348 -11.0244,2.0938 -19.7574,-6.3845 -21.723,-6.9988 -1.6727,-0.5228 -4.2793,-2.9 -3.7355,1.9114 z m -77.411,266.416 c 0.9565,1.2795 0.8312,2.7801 1.1705,4.1213 1.0727,4.241 2.6264,8.4881 0.7828,13.0087 -0.6301,1.5439 -1.8769,2.1495 -2.6699,1.4523 -1.2784,-1.1236 -2.9801,-0.7096 -4.193,-1.9052 -6.7656,-6.6727 -17.5559,-5.8249 -20.2891,-12.3641 -0.4015,-0.9603 0.9252,-2.7141 -1.29,-2.8294 -1.2901,-0.068 -2.48,0.1122 -3.6939,1.0065 -2.7803,2.0481 -9.0106,0.8396 -10.6179,-1.7785 -1.2451,-2.0278 -2.6914,-4.5963 -3.0589,-6.3236 -1.0053,-4.7256 -2.6817,-9.2951 -3.4236,-14.1153 -3.7594,-24.4112 -0.3182,-30.042 7.723,-50.0696 12.2822,-30.5927 29.949,-56.9655 38.0682,-70.933 8.1446,-12.4303 9.1788,-16.3099 14.547,-13.4096 2.0855,1.1268 0.838,2.5971 -1.5693,7.1348 -0.6366,1.2001 -20.7786,40.7937 -27.2506,55.569 -21.7325,49.6162 -12.4129,53.3855 -10.6291,63.8143 2.1545,12.5913 18.8528,13.6583 21.5942,6.2919 1.1428,-3.0711 -2.0713,-7.6796 -4.3154,-9.6044 -2.1744,-1.8659 -3.7738,-4.329 -5.5713,-6.4395 -7.8464,-9.2123 -6.7251,-19.0537 -1.2286,-29.7205 0.3534,-0.686 1.3766,-1.6042 2.4512,-1.0954 1.2398,0.5872 0.4595,1.6147 0.3428,2.5441 -1.3815,11.0167 5.9612,12.4369 16.3737,14.5213 8.5918,1.7202 13.8376,11.9318 9.9503,19.785 -2.6312,5.3158 -8.3212,8.6408 -2.6963,10.4705 8.559,2.7842 8.298,4.1215 8.6177,11.745 0.3242,7.7237 -8.484,11.2751 -15.6652,6.5468 -2.8807,-1.8985 -4.4381,1.2678 -3.4593,2.5766 z m 118.3818,-18.996 c -3.6366,0.1568 -4.0966,1.2896 -3.3304,4.3465 0.8019,3.2001 -0.7359,6.5046 -5.0295,7.6938 -13.279,3.6795 -25.306,-9.2168 -33.8023,-20.065 -18.1717,-23.2023 -15.1144,-82.3526 -12.9164,-111.3995 0.8248,-10.9008 0.8807,-17.3417 5.482,-16.8276 2.4348,0.2725 1.007,2.3263 1.0338,4.5744 0.298,25.0165 -2.4863,94.5037 18.6837,107.9705 13.3965,8.5215 32.2214,10.3443 42.2774,-2.5136 5.8996,-7.5435 1.8087,-18.2621 -1.6825,-17.4228 -1.753,0.4218 -0.7544,1.7624 -0.694,2.7159 0.155,2.4435 -0.6,4.5189 -2.5283,6.5611 -0.9665,3.3016 -4.5049,3.9707 -7.2943,4.6797 -3.8322,0.9743 -8.4653,-2.6589 -10.3549,-6.9709 -4.1028,-9.3623 7.4676,-20.1113 21.2938,-16.5618 4.841,1.2432 11.004,7.8531 11.5879,12.2978 2.299,17.4939 -4.043,17.4237 1.4302,18.9435 3.9504,1.0971 4.0447,2.0424 2.9178,5.9568 -1.7308,6.0049 -11.519,15.3498 -27.074,16.0212 z m 68.1824,-78.0734 c 0.4266,1.0705 2.9368,11.8244 -0.5545,13.8312 -1.304,0.7495 -1.9624,-0.3378 -2.8108,-0.9874 -8.2338,-6.3051 -14.3354,-5.4738 -16.0935,-10.6719 -0.5728,-1.6925 -2.2072,-1.1973 -3.4135,-1.0093 -17.4764,2.7291 -16.1284,-20.3393 -12.4951,-37.7291 5.0946,-24.384 23.63,-41.2686 51.6353,-74.9026 0.6848,-0.8224 1.576,-1.3848 2.5072,-0.9608 1.0547,0.4805 0.3245,1.4222 0.1455,2.2146 -2.3536,10.4138 -5.6738,5.4195 -23.5646,32.551 -4.9222,7.4641 -8.585,15.7882 -12.499,23.88 -4.6103,9.5315 -7.7919,19.3926 -3.3355,29.9285 3.4532,8.1652 8.6665,13.564 15.7685,8.2613 2.0289,-1.5152 1.2246,-3.7884 0.654,-6.0071 -0.6265,-2.4361 -2.4593,-3.7592 -3.9591,-5.3649 -12.627,-13.5201 -0.6316,-30.4988 -0.7182,-19.5443 -0.078,9.7972 10.5757,6.7711 15.053,10.5455 5.0296,4.2399 5.5097,10.4114 1.4991,16.0171 -1.6408,2.2933 -2.5082,4.0675 1.1929,5.4338 4.2265,1.5597 5.9444,6.6092 4.1535,10.7689 -3.5304,8.1983 -9.316,-0.1857 -13.1652,3.7455 z m 54.8948,-117.3056 c 4.1951,1.6365 -5.3762,14.0843 -6.5556,16.1304 -7.3746,7.2714 -7.3928,17.1808 -4.7401,27.6094 1.3803,5.4264 0.4445,7.2678 -4.966,10.2684 -3.3671,1.8674 -1.4306,10.5569 -14.8335,5.584 -7.9996,-2.9683 -3.3636,-15.8849 4.1032,-13.1908 4.6929,1.693 2.2651,-1.3239 1.4295,-12.0873 -1.2379,-15.9396 15.4216,-20.7555 23.0792,-32.594 0.5133,-0.7936 1.2501,-2.2013 2.4833,-1.7201 z m 19.722,-12.1831 c -3.2416,0.9087 -3.4993,-3.0904 -3.5883,-6.4563 -0.5002,-18.9402 10.4023,-22.8206 22.276,-34.5246 1.6066,-1.5837 3.109,-2.6352 0.4121,-5.1244 -6.5465,-6.0423 -13.649,10.9478 -24.272,15.046 -3.2137,1.2396 -5.4422,-0.01 -5.0123,-3.306 0.4882,-3.7501 -1.3372,-4.9656 -4.1676,-6.2177 -8.0843,-3.5763 -8.3424,-11.345 -2.1922,-16.184 5.6975,-4.4834 -4.3051,-6.9077 2.5531,-10.54 12.1329,-6.4268 26.1494,14.9285 30.5374,8.4839 0.9897,-1.4537 1.1859,-3.1804 -0.911,-4.2202 -4.8978,-2.4278 -9.0056,-6.0716 -13.6469,-8.8972 -19.421,-11.8245 -27.3935,-24.9757 -20.6188,-25.2072 6.478,-0.2216 -3.6939,-6.3175 -0.1923,-23.0707 5.9196,-28.326 34.7746,-19.8353 36.6482,-9.6403 4.5029,24.5041 -16.8865,26.7235 -2.4191,36.4802 1.4917,1.006 0.5691,2.3175 -1.1359,2.7476 -2.1751,0.5487 -7.3862,-1.8885 -8.4467,-4.4136 -1.9259,-4.5852 -4.2716,-9.061 -4.7486,-14.1425 -1.2493,-13.3143 -0.6363,-8.5008 4.6191,-17.3676 3.8145,-6.4357 -10.7839,-3.1096 -13.671,4.4644 -5.3345,13.9947 4.7205,31.6 16.3563,41.3426 24.1648,20.2334 37.9824,11.502 40.3621,24.0151 2.3002,12.096 -16.8109,11.5904 -28.466,32.2211 -10.6473,18.8464 -8.6167,46.1978 9.872,50.6381 2.2273,0.5352 5.4232,1.6435 6.5041,-1.01 0.8309,-2.0408 -1.8907,-3.5831 -3.7571,-4.6387 -9.4164,-5.3247 -12.3168,-14.092 -12.661,-24.1056 -0.4175,-12.1481 12.7645,-13.475 13.6157,-12.2158 1.8531,2.7408 -4.3962,2.9552 -0.2092,8.6825 4.5116,6.1717 8.1139,3.3632 13.8088,23.9298 2.8918,10.4434 -3.5497,19.0423 -12.1195,20.4749 -9.2058,1.5386 -20.8826,-5.2811 -25.5159,-13.7206 -9.044,-16.4757 -4.1276,-25.1167 -9.8135,-23.5232 z m 19.8409,111.7686 c -4.0823,-2.4272 -4.1485,-2.316 -5.3021,2.2965 -1.072,4.2864 -6.3059,6.7213 -9.8325,4.2298 -29.8486,-21.0856 -15.6086,-70.7695 -9.4456,-69.2699 2.0744,0.5049 0.4181,2.4589 0.9566,5.9142 3.6714,23.5462 20.6,43.2409 40.2694,41.9809 7.545,-0.4832 14.2109,-7.4096 13.3552,-13.1202 -0.1674,-1.1197 0.4961,-2.6533 -0.9032,-3.0974 -1.6162,-0.5125 -2.4233,0.7213 -3.2258,2.1085 -1.9709,3.4083 -7.5942,5.5534 -10.9829,4.4404 -4.1589,-1.3657 -6.9634,-5.3541 -6.9326,-9.8584 0.1003,-14.7056 17.8823,-14.8237 26.1508,-5.2991 6.3826,7.3519 2.7421,21.5981 -2.6094,27.4989 -1.3526,1.4915 -4.0106,2.6007 -1.6496,5.154 8.9418,9.6707 -14.5409,16.1223 -29.8483,7.0218 z m 85.0303,-26.9034 c -2.526,-0.9103 -4.6376,-3.4852 -7.8111,-1.2798 -1.7322,1.2033 -3.6314,-4.4536 -5.5454,-5.6639 -14.4831,-9.1531 -9.1353,-67.8138 -2.6632,-52.6929 1.7085,3.9913 -0.3256,8.106 0.592,12.14 1.1686,5.1393 0.1802,10.9084 4.8182,14.9659 5.2282,4.5737 15.9699,4.3889 12.3649,11.4323 -1.403,2.7412 1.3281,7.5035 4.3924,7.6269 1.9936,0.08 4.6123,-0.1285 4.9383,2.4921 0.3144,2.5243 0.6936,5.299 -0.8866,7.5778 -1.9003,3.269 -6.3629,4.7849 -10.1995,3.4016 z m 66.528,-15.5378 c -3.0196,-1.9541 -6.4904,-2.2964 -9.9253,-2.6109 -12.4223,-1.1373 -8.9298,-7.1798 -13.1753,-4.3127 -15.3967,10.3977 -37.3679,-34.1772 -17.8177,-55.7493 0.9021,-0.9952 1.6009,-2.7266 2.9871,-2.0081 1.3599,0.7049 0.2439,2.4165 5e-4,3.5792 -0.8355,3.9941 -10.2276,25.4687 10.6001,38.5616 9.1798,5.1277 14.3629,3.6999 15.4232,1.2514 1.2437,-2.8723 -8.7122,-7.5751 -10.7369,-8.6182 -13.9909,-7.2114 -11.0803,-20.7663 -7.1997,-14.8925 6.4204,9.717 15.4876,3.2936 23.7651,7.917 3.9811,2.224 6.8266,6.2399 5.2857,9.5368 -2.8313,6.0597 4.2355,2.7412 8.903,7.9636 1.618,1.8098 1.6028,3.9531 1.0238,6.0672 -0.4404,1.6092 -2.0646,1.9243 -3.4587,2.2041 -1.843,0.3695 -4.4555,-1.4378 -5.4598,0.7365 -1.4803,3.2029 5.692,5.3035 2.6833,9.9065 -0.4763,0.729 -1.7738,1.1955 -2.8984,0.4678 z m 19.3146,-47.4657 c -17.8101,-13.1528 -21.9362,-38.7103 -25.2467,-48.3494 -1.1575,-3.3698 -1.7405,-6.9559 -2.3237,-10.488 -0.1184,-0.7182 -0.4806,-2.3411 1.212,-2.5536 2.4012,-0.3013 1.1127,1.2427 4.561,6.9294 8.5316,14.0706 11.3548,21.7122 27.3206,29.5034 2.7824,1.3576 6.4538,1.6427 7.9491,4.5312 1.2536,2.4216 2.7414,2.5708 4.8747,2.4072 8.3197,-0.6375 5.9396,4.973 10.1334,5.6503 6.5819,1.0628 8.76,6.8957 4.9951,12.7087 -4.3633,6.7382 -20.2357,9.4383 -33.4755,-0.3392 z m -3.9818,-69.3358 c 1.0441,-0.663 1.3806,0.43 2.0605,0.8261 4.8416,2.8219 9.9103,4.8281 15.6525,3.2045 2.9549,-0.8354 4.0125,-0.1047 2.696,2.8184 -1.9581,4.3471 -2.2689,8.6873 -1.8628,13.2613 0.057,0.6442 -0.4546,1.3272 -0.6454,2.0084 -0.1875,0.6688 -0.053,1.595 -1.1247,1.5326 -0.7841,-0.046 -1.3891,-0.455 -1.5021,-1.331 -0.6679,-5.1811 -3.2983,-8.7348 -8.7189,-10.1483 -2.1951,-3.2411 -5.899,-5.5567 -6.8101,-9.8244 -0.1444,-0.6812 -0.7424,-1.7149 0.255,-2.3476 z m 92.4902,44.6711 c -3.7036,4.3497 -5.1893,4.8073 -9.0567,0.7632 -5.6673,-5.9263 -6.9107,4.1016 -23.186,1.0927 -21.1523,-3.9112 -22.311,-33.1775 -3.7934,-32.5971 13.266,0.416 15.4165,19.7432 0.6127,20.114 -0.8333,0.021 -2.0181,-0.1711 -2.264,0.701 -0.3045,1.0806 0.7838,1.7152 1.6597,2.1315 11.9991,5.7039 25.0563,-2.2208 23.2022,-17.4287 -2.5763,-21.1317 -16.2714,-30.4055 -28.611,-37.825 -12.6208,-7.5891 -23.2291,-7.1751 -34.0412,-4.2704 -9.8691,2.6513 -8.0699,-5.7639 -11.3738,-2.0085 -1.6848,1.9158 -3.961,3.0858 -5.5891,5.1519 -2.4002,3.0456 -4.9442,6.1817 -9.3658,6.7017 -3.8131,0.4484 -7.0489,-0.8887 -6.4965,-3.4461 0.7176,-3.3229 -1.3124,-3.9661 -3.3198,-4.8147 -1.7463,-0.7383 -3.3615,-1.956 -5.4891,-1.6786 -0.958,0.1249 -2.0515,-0.3178 -2.3018,-1.4048 -0.5788,-2.5137 9.7154,-5.3123 7.6775,-9.6217 -1.4395,-3.0442 -0.5047,-5.0151 2.8158,-5.7314 9.1446,-1.9736 12.5142,5.0106 20.5474,7.1783 0.9028,0.2435 1.7407,1.1265 2.4026,-0.2913 2.4232,-5.1917 7.1007,-4.282 11.3818,-4.0118 15.7163,0.9925 26.7073,-8.9855 34.22,-22.6032 10.51,-19.0519 0.7976,-46.381 -20.1332,-44.2366 -3.5625,0.365 -7.1399,1.1837 -8.8537,5.2989 3.3429,0.6741 1.4525,0.5338 4.8174,-0.06 13.7475,-2.4258 16.6146,16.9664 5.4404,19.0253 -15.1357,2.7885 -26.3223,-18.7246 -11.1113,-28.9873 12.2158,-8.2416 22.2098,0.4398 23.4579,-6.0079 1.3631,-7.0448 19.7667,0.4429 24.8541,19.8204 1.2116,4.615 1.7295,5.1247 6.1724,3.9202 16.43,-4.4546 9.4967,41.465 -39.467,56.3173 -1.9795,0.6001 -4.3459,1.0295 -5.984,3.2333 6.875,0.4614 13.5731,0.1535 19.9214,1.4977 50.6917,10.7324 64.7435,43.7139 51.4666,44.3842 -1.8003,0.091 -3.8292,-2.3379 -5.1771,-0.2361 -0.9904,1.544 1.226,3.5279 0.7732,5.5312 -0.1205,0.5301 3.5337,13.4263 -5.8086,24.3982 z" />
  <path
     id="path888"
     d="m 1150.7048,224.32841 a 64,64 0 0 0 -27.9166,20.83222 L 363.5884,1235.3722 25.282995,2015.5234 a 64,64 0 0 0 33.255,84.179 64,64 0 0 0 84.179105,-33.2549 L 474.75494,1300.7508 1224.3685,323.04288 a 64,64 0 0 0 -11.8508,-89.73058 64,64 0 0 0 -61.8129,-8.98389 z"
     style="color:#000000;font-style:normal;font-variant:normal;font-weight:normal;font-stretch:normal;font-size:medium;line-height:normal;font-family:sans-serif;font-variant-ligatures:normal;font-variant-position:normal;font-variant-caps:normal;font-variant-numeric:normal;font-variant-alternates:normal;font-variant-east-asian:normal;font-feature-settings:normal;font-variation-settings:normal;text-indent:0;text-align:start;text-decoration:none;text-decoration-line:none;text-decoration-style:solid;text-decoration-color:#000000;letter-spacing:normal;word-spacing:normal;text-transform:none;writing-mode:lr-tb;direction:ltr;text-orientation:mixed;dominant-baseline:auto;baseline-shift:baseline;text-anchor:start;white-space:normal;shape-padding:0;shape-margin:0;inline-size:0;clip-rule:nonzero;display:inline;overflow:visible;visibility:visible;opacity:1;isolation:auto;mix-blend-mode:normal;color-interpolation:sRGB;color-interpolation-filters:linearRGB;solid-color:#000000;solid-opacity:1;vector-effect:none;fill:#9a031e;fill-opacity:1;fill-rule:evenodd;stroke:none;stroke-width:128;stroke-linecap:round;stroke-linejoin:miter;stroke-miterlimit:4;stroke-dasharray:none;stroke-dashoffset:0;stroke-opacity:1;color-rendering:auto;image-rendering:auto;shape-rendering:auto;text-rendering:auto;enable-background:accumulate;stop-color:#000000;stop-opacity:1" />
  <path
     sodipodi:nodetypes="sccccs"
     d="M 1234.1031,154.91364 C 1132.1542,41.534728 957.36334,32.478793 843.69714,134.68665 633.49673,367.16322 479.12011,553.55233 375.17356,759.89593 c 256.4355,49.21939 510.40387,-81.0459 652.37724,-131.07377 141.9734,-50.02787 164.9551,-65.23108 185.3351,-83.55517 113.6668,-102.20716 123.1661,-276.97452 21.2172,-390.35335 z"
     style="fill:#9a031e;stroke:none;stroke-width:128;stroke-linecap:round;stroke-linejoin:round;stroke-miterlimit:4;stroke-dasharray:none;fill-opacity:1"
     id="path854" />
  <path
     sodipodi:nodetypes="cc"
     id="path860"
     d="M 1074.7431,312.89822 C 1005.4099,420.03266 496.11295,700.76276 496.11295,700.76276"
     style="fill:none;fill-rule:evenodd;stroke:#ffffff;stroke-width:5;stroke-linecap:butt;stroke-linejoin:miter;stroke-miterlimit:4;stroke-dasharray:none;stroke-opacity:1" />
  <path
     id="path866"
     style="fill:#9a031e;stroke:none;stroke-width:128;stroke-linecap:round;stroke-linejoin:round;stroke-miterlimit:4;stroke-dasharray:none;fill-opacity:1"
     d="m 1280.1096,95.01565 c 110.9679,-104.5679858 285.9094,-99.1512916 390.7423,12.0985 190.2739,249.049 328.7228,447.55581 415.2653,661.78224 -259.6254,27.86375 -501.9626,-122.93966 -639.3171,-184.52668 -137.3545,-61.58702 -159.0015,-78.63705 -177.7978,-98.58234 -104.8336,-111.24914 -99.8607,-286.20381 11.1073,-390.77172 z"
     sodipodi:nodetypes="sccccs" />
  <path
     style="fill:none;fill-rule:evenodd;stroke:#ffffff;stroke-width:5;stroke-linecap:butt;stroke-linejoin:miter;stroke-miterlimit:4;stroke-dasharray:none;stroke-opacity:1"
     d="m 1425.8716,265.62679 c 60.2444,112.49662 544.6054,434.34629 544.6054,434.34629"
     id="path868"
     sodipodi:nodetypes="cc" />
  <path
     id="path872"
     style="fill:#9a031e;stroke:#ffffff;stroke-width:16;stroke-linecap:round;stroke-linejoin:round;stroke-miterlimit:4;stroke-dasharray:none;stroke-opacity:1;fill-opacity:1"
     d="m 811.38686,1144.0275 c -144.25936,49.3718 -221.07913,206.6378 -171.58155,351.263 131.525,284.4833 335.05336,645.8319 598.85999,550.2871 145.7623,-216.645 47.6559,-377.8949 -36.3588,-536.2736 9.6016,-150.2233 -31.2196,-166.8743 -40.093,-192.8045 -49.4967,-144.6255 -206.56732,-221.8439 -350.82664,-172.472 z"
     sodipodi:nodetypes="sccccs" />
  <path
     sodipodi:nodetypes="cc"
     id="path878"
     d="m 669.72363,1474.008 c 0,0 299.811,165.7253 498.94677,43.8894"
     style="fill:none;fill-rule:evenodd;stroke:#ffffff;stroke-width:8;stroke-linecap:butt;stroke-linejoin:miter;stroke-miterlimit:4;stroke-dasharray:none;stroke-opacity:1" />
  <path
     sodipodi:nodetypes="cscscc"
     id="path884"
     d="m 905.20523,1549.9584 c -30.04334,125.2207 100.10977,248.3909 155.04937,336.8675 54.9396,88.4766 156.3857,181.9793 178.4107,158.7518 22.025,-23.2275 -74.5366,-112.79 -124.0402,-192.5121 -49.5034,-79.7221 -131.93318,-475.1142 -107.0438,-578.8531 z"
     style="color:#000000;font-style:normal;font-variant:normal;font-weight:normal;font-stretch:normal;font-size:medium;line-height:normal;font-family:sans-serif;font-variant-ligatures:normal;font-variant-position:normal;font-variant-caps:normal;font-variant-numeric:normal;font-variant-alternates:normal;font-variant-east-asian:normal;font-feature-settings:normal;font-variation-settings:normal;text-indent:0;text-align:start;text-decoration:none;text-decoration-line:none;text-decoration-style:solid;text-decoration-color:#000000;letter-spacing:normal;word-spacing:normal;text-transform:none;writing-mode:lr-tb;direction:ltr;text-orientation:mixed;dominant-baseline:auto;baseline-shift:baseline;text-anchor:start;white-space:normal;shape-padding:0;shape-margin:0;inline-size:0;clip-rule:nonzero;display:inline;overflow:visible;visibility:visible;isolation:auto;mix-blend-mode:normal;color-interpolation:sRGB;color-interpolation-filters:linearRGB;solid-color:#000000;solid-opacity:1;vector-effect:none;fill:#ffffff;fill-opacity:1;fill-rule:evenodd;stroke:none;stroke-width:64;stroke-linecap:butt;stroke-linejoin:miter;stroke-miterlimit:4;stroke-dasharray:none;stroke-dashoffset:0;stroke-opacity:1;color-rendering:auto;image-rendering:auto;shape-rendering:auto;text-rendering:auto;enable-background:accumulate;stop-color:#000000" />
  <path
     sodipodi:nodetypes="cc"
     id="path896"
     d="M 902.36606,1198.1487 933.20687,638.20461"
     style="fill:#e36414;fill-opacity:1;fill-rule:evenodd;stroke:#9a031e;stroke-width:16;stroke-linecap:butt;stroke-linejoin:miter;stroke-miterlimit:4;stroke-dasharray:none;stroke-opacity:1" />
</svg>
