<?xml version="1.0" encoding="UTF-8" standalone="no"?>
<svg
   xmlns:dc="http://purl.org/dc/elements/1.1/"
   xmlns:cc="http://creativecommons.org/ns#"
   xmlns:rdf="http://www.w3.org/1999/02/22-rdf-syntax-ns#"
   xmlns:svg="http://www.w3.org/2000/svg"
   xmlns="http://www.w3.org/2000/svg"
   xmlns:sodipodi="http://sodipodi.sourceforge.net/DTD/sodipodi-0.dtd"
   xmlns:inkscape="http://www.inkscape.org/namespaces/inkscape"
   inkscape:version="1.0 (4035a4fb49, 2020-05-01)"
   sodipodi:docname="trap.svg"
   viewBox="0 0 309.34491 553.17199"
   height="553.172"
   width="309.34491"
   xml:space="preserve"
   id="svg1740"
   version="1.1"><metadata
     id="metadata1746"><rdf:RDF><cc:Work
         rdf:about=""><dc:format>image/svg+xml</dc:format><dc:type
           rdf:resource="http://purl.org/dc/dcmitype/StillImage" /><dc:title></dc:title></cc:Work></rdf:RDF></metadata><defs
     id="defs1744"><clipPath
       id="clipPath1760"
       clipPathUnits="userSpaceOnUse"><path
         id="path1758"
         d="M 0,405.878 H 223.009 V 0 H 0 Z" /></clipPath><clipPath
       id="clipPath1776"
       clipPathUnits="userSpaceOnUse"><path
         id="path1774"
         d="M 0,405.878 H 223.009 V 0 H 0 Z" /></clipPath><clipPath
       id="clipPath1790"
       clipPathUnits="userSpaceOnUse"><path
         id="path1788"
         d="M 0,405.878 H 223.009 V 0 H 0 Z" /></clipPath></defs><sodipodi:namedview
     lock-margins="true"
     fit-margin-bottom="6"
     fit-margin-right="6"
     fit-margin-left="6"
     fit-margin-top="6"
     inkscape:current-layer="g1748"
     inkscape:window-maximized="1"
     inkscape:window-y="0"
     inkscape:window-x="0"
     inkscape:cy="248.6872"
     inkscape:cx="154.67267"
     inkscape:zoom="1.4337204"
     showgrid="false"
     id="namedview1742"
     inkscape:window-height="1016"
     inkscape:window-width="1920"
     inkscape:pageshadow="2"
     inkscape:pageopacity="0"
     guidetolerance="10"
     gridtolerance="10"
     objecttolerance="10"
     borderopacity="1"
     bordercolor="#666666"
     pagecolor="#ffffff" /><g
     transform="matrix(1.3333333,0,0,-1.3333333,6,547.17199)"
     inkscape:label="mouse-1638339"
     inkscape:groupmode="layer"
     id="g1748"><g
       style="fill:#0f4c5c;fill-opacity:1"
       transform="translate(219.6757,3)"
       id="g1750"><path
         id="path1752"
         style="fill:#0f4c5c;fill-opacity:1;fill-rule:nonzero;stroke:none"
         d="m 0,0 0.333,381 -15.657,18.878 V 20.149 Z" /></g><g
       style="stroke:#ffffff;stroke-opacity:1"
       id="g1754"><g
         style="stroke:#ffffff;stroke-opacity:1"
         clip-path="url(#clipPath1760)"
         id="g1756"><g
           style="stroke:#ffffff;stroke-opacity:1"
           transform="translate(219.6757,3)"
           id="g1762"><path
             id="path1764"
             style="fill:none;stroke:#ffffff;stroke-width:6;stroke-linecap:butt;stroke-linejoin:round;stroke-miterlimit:10;stroke-dasharray:none;stroke-opacity:1"
             d="m 0,0 0.333,381 -15.657,18.878 V 20.149 Z" /></g></g></g><g
       style="fill:#0f4c5c;fill-opacity:1"
       transform="translate(3,23.1486)"
       id="g1766"><path
         id="path1768"
         style="fill:#0f4c5c;fill-opacity:1;fill-rule:nonzero;stroke:none"
         d="m 0,0 19.676,-20.149 h 197 L 201.351,0" /></g><g
       style="stroke:#ffffff;stroke-opacity:1"
       id="g1770"><g
         style="stroke:#ffffff;stroke-opacity:1"
         clip-path="url(#clipPath1776)"
         id="g1772"><g
           style="stroke:#ffffff;stroke-opacity:1"
           transform="translate(3,23.1486)"
           id="g1778"><path
             id="path1780"
             style="fill:none;stroke:#ffffff;stroke-width:6;stroke-linecap:butt;stroke-linejoin:round;stroke-miterlimit:10;stroke-dasharray:none;stroke-opacity:1"
             d="m 0,0 19.676,-20.149 h 197 L 201.351,0" /></g></g></g><path
       id="path1782"
       style="fill:#0f4c5c;fill-opacity:1;fill-rule:nonzero;stroke:none"
       d="M 204.351,23.149 H 3 v 379.73 h 201.351 z" /><path
       id="path1792"
       style="fill:none;stroke:#ffffff;stroke-width:6;stroke-linecap:butt;stroke-linejoin:round;stroke-miterlimit:10;stroke-dasharray:none;stroke-opacity:1"
       d="M 204.351,23.149 H 3 v 379.73 h 201.351 z" /><g
       style="fill:#0f4c5c;fill-opacity:1;stroke:#ffffff;stroke-opacity:1"
       transform="translate(128.6757,110.5)"
       id="g1794"><path
         id="path1796"
         style="fill:#0f4c5c;fill-opacity:1;fill-rule:nonzero;stroke:#ffffff;stroke-opacity:1"
         d="m 0,0 h -42 c -6.6,0 -12,5.4 -12,12 v 78.514 c 0,6.599 5.4,12 12,12 H 0 c 6.6,0 12,-5.401 12,-12 V 12 C 12,5.4 6.6,0 0,0" /></g><g
       style="stroke:#ffffff;stroke-opacity:1"
       transform="translate(128.6757,110.5)"
       id="g1798"><path
         id="path1800"
         style="fill:none;stroke:#ffffff;stroke-width:4;stroke-linecap:butt;stroke-linejoin:round;stroke-miterlimit:10;stroke-dasharray:none;stroke-opacity:1"
         d="m 0,0 h -42 c -6.6,0 -12,5.4 -12,12 v 78.514 c 0,6.599 5.4,12 12,12 H 0 c 6.6,0 12,-5.401 12,-12 V 12 C 12,5.4 6.6,0 0,0 Z" /></g><g
       style="fill:#0f4c5c;fill-opacity:1;stroke:#ffffff;stroke-opacity:1"
       transform="translate(176.6757,228.167)"
       id="g1802"><path
         id="path1804"
         style="fill:#0f4c5c;fill-opacity:1;fill-rule:nonzero;stroke:#ffffff;stroke-opacity:1"
         d="M 0,0 C -3.86,0 -7,3.141 -7,7 V 135.999 H -134 V 7 c 0,-3.859 -3.14,-7 -7,-7 -3.86,0 -7,3.141 -7,7 v 135.999 c 0,3.86 3.14,7 7,7 H -5 c 0.646,0 1.301,-0.094 1.945,-0.28 l 0.555,-0.16 0.555,0.16 c 0.644,0.186 1.298,0.28 1.945,0.28 3.86,0 7,-3.14 7,-7 L 7,7 C 7,3.141 3.86,0 0,0" /></g><g
       style="fill:#ffffff;fill-opacity:1;stroke:none;stroke-opacity:1"
       transform="translate(176.6757,380.1667)"
       id="g1806"><path
         id="path1808"
         style="fill:#ffffff;fill-opacity:1;fill-rule:nonzero;stroke:none;stroke-opacity:1"
         d="M 0,0 C -0.869,0 -1.705,-0.13 -2.5,-0.359 -3.295,-0.13 -4.132,0 -5,0 h -136 c -4.971,0 -9,-4.029 -9,-9 v -136 c 0,-4.971 4.029,-9 9,-9 4.971,0 9,4.029 9,9 V -18 H -9 v -127 c 0,-4.971 4.029,-9 9,-9 4.971,0 9,4.029 9,9 V -9 C 9,-4.029 4.971,0 0,0 m 0,-4 c 2.757,0 5,-2.243 5,-5 v -136 c 0,-2.757 -2.243,-5 -5,-5 -2.757,0 -5,2.243 -5,5 v 127 4 h -4 -123 -4 v -4 -127 c 0,-2.757 -2.243,-5 -5,-5 -2.757,0 -5,2.243 -5,5 V -9 c 0,2.757 2.243,5 5,5 H -5 c 0.458,0 0.926,-0.068 1.39,-0.202 l 1.11,-0.321 1.11,0.321 C -0.926,-4.068 -0.458,-4 0,-4" /></g><g
       style="stroke:#ffffff;stroke-opacity:1"
       transform="translate(171.6757,221.5)"
       id="g1810"><path
         id="path1812"
         style="fill:#bdbcbc;fill-opacity:1;fill-rule:nonzero;stroke:#ffffff;stroke-opacity:1"
         d="m 0,0 h -136 c -4.971,0 -9,4.029 -9,9 0,4.971 4.029,9 9,9 H 0 C 4.971,18 9,13.971 9,9 9,4.029 4.971,0 0,0" /></g><g
       style="fill:#0f4c5c;fill-opacity:1;stroke:#ffffff;stroke-opacity:1"
       transform="translate(171.6757,221.5)"
       id="g1814"><path
         id="path1816"
         style="fill:#0f4c5c;fill-opacity:1;stroke:#ffffff;stroke-width:4;stroke-linecap:butt;stroke-linejoin:miter;stroke-miterlimit:10;stroke-dasharray:none;stroke-opacity:1"
         d="m 0,0 h -136 c -4.971,0 -9,4.029 -9,9 0,4.971 4.029,9 9,9 H 0 C 4.971,18 9,13.971 9,9 9,4.029 4.971,0 0,0 Z" /></g><g
       style="fill:#0f4c5c;fill-opacity:1;stroke:#ffffff;stroke-opacity:1"
       transform="translate(84.6757,230.5)"
       id="g1818"><path
         id="path1820"
         style="fill:#0f4c5c;fill-opacity:1;fill-rule:nonzero;stroke:#ffffff;stroke-opacity:1"
         d="m 0,0 c 0,-18.778 -7.387,-34 -16.5,-34 -9.113,0 -16.5,15.222 -16.5,34 0,18.778 7.387,34 16.5,34 C -7.387,34 0,18.778 0,0" /></g><g
       style="stroke:#ffffff;stroke-opacity:1"
       transform="translate(84.6757,230.5)"
       id="g1822"><path
         id="path1824"
         style="fill:none;stroke:#ffffff;stroke-width:4;stroke-linecap:butt;stroke-linejoin:miter;stroke-miterlimit:10;stroke-dasharray:none;stroke-opacity:1"
         d="m 0,0 c 0,-18.778 -7.387,-34 -16.5,-34 -9.113,0 -16.5,15.222 -16.5,34 0,18.778 7.387,34 16.5,34 C -7.387,34 0,18.778 0,0 Z" /></g><g
       style="stroke:#ffffff;stroke-opacity:1"
       transform="translate(96.6757,230.5)"
       id="g1826"><path
         id="path1828"
         style="fill:#bdbcbc;fill-opacity:1;fill-rule:nonzero;stroke:#ffffff;stroke-opacity:1"
         d="m 0,0 c 0,-18.778 -7.387,-34 -16.5,-34 -9.113,0 -16.5,15.222 -16.5,34 0,18.778 7.387,34 16.5,34 C -7.387,34 0,18.778 0,0" /></g><g
       style="fill:#0f4c5c;fill-opacity:1;stroke:#ffffff;stroke-opacity:1"
       transform="translate(96.6757,230.5)"
       id="g1830"><path
         id="path1832"
         style="fill:#0f4c5c;fill-opacity:1;stroke:#ffffff;stroke-width:4;stroke-linecap:butt;stroke-linejoin:miter;stroke-miterlimit:10;stroke-dasharray:none;stroke-opacity:1"
         d="m 0,0 c 0,-18.778 -7.387,-34 -16.5,-34 -9.113,0 -16.5,15.222 -16.5,34 0,18.778 7.387,34 16.5,34 C -7.387,34 0,18.778 0,0 Z" /></g><g
       style="fill:#0f4c5c;fill-opacity:1;stroke:#ffffff;stroke-opacity:1"
       transform="translate(107.6757,230.5)"
       id="g1834"><path
         id="path1836"
         style="fill:#0f4c5c;fill-opacity:1;fill-rule:nonzero;stroke:#ffffff;stroke-opacity:1"
         d="m 0,0 c 0,-18.778 -7.387,-34 -16.5,-34 -9.113,0 -16.5,15.222 -16.5,34 0,18.778 7.387,34 16.5,34 C -7.387,34 0,18.778 0,0" /></g><g
       style="stroke:#ffffff;stroke-opacity:1"
       transform="translate(107.6757,230.5)"
       id="g1838"><path
         id="path1840"
         style="fill:none;stroke:#ffffff;stroke-width:4;stroke-linecap:butt;stroke-linejoin:miter;stroke-miterlimit:10;stroke-dasharray:none;stroke-opacity:1"
         d="m 0,0 c 0,-18.778 -7.387,-34 -16.5,-34 -9.113,0 -16.5,15.222 -16.5,34 0,18.778 7.387,34 16.5,34 C -7.387,34 0,18.778 0,0 Z" /></g><g
       style="stroke:#ffffff;stroke-opacity:1"
       transform="translate(118.6757,230.5)"
       id="g1842"><path
         id="path1844"
         style="fill:#bdbcbc;fill-opacity:1;fill-rule:nonzero;stroke:#ffffff;stroke-opacity:1"
         d="m 0,0 c 0,-18.778 -7.387,-34 -16.5,-34 -9.113,0 -16.5,15.222 -16.5,34 0,18.778 7.387,34 16.5,34 C -7.387,34 0,18.778 0,0" /></g><g
       style="fill:#0f4c5c;fill-opacity:1;stroke:#ffffff;stroke-opacity:1"
       transform="translate(118.6757,230.5)"
       id="g1846"><path
         id="path1848"
         style="fill:#0f4c5c;fill-opacity:1;stroke:#ffffff;stroke-width:4;stroke-linecap:butt;stroke-linejoin:miter;stroke-miterlimit:10;stroke-dasharray:none;stroke-opacity:1"
         d="m 0,0 c 0,-18.778 -7.387,-34 -16.5,-34 -9.113,0 -16.5,15.222 -16.5,34 0,18.778 7.387,34 16.5,34 C -7.387,34 0,18.778 0,0 Z" /></g><g
       style="stroke:#ffffff;stroke-opacity:1"
       transform="translate(129.6757,230.5)"
       id="g1850"><path
         id="path1852"
         style="fill:#bdbcbc;fill-opacity:1;fill-rule:nonzero;stroke:#ffffff;stroke-opacity:1"
         d="m 0,0 c 0,-18.778 -7.387,-34 -16.5,-34 -9.113,0 -16.5,15.222 -16.5,34 0,18.778 7.387,34 16.5,34 C -7.387,34 0,18.778 0,0" /></g><g
       style="fill:#0f4c5c;fill-opacity:1;stroke:#ffffff;stroke-opacity:1"
       transform="translate(129.6757,230.5)"
       id="g1854"><path
         id="path1856"
         style="fill:#0f4c5c;fill-opacity:1;stroke:#ffffff;stroke-width:4;stroke-linecap:butt;stroke-linejoin:miter;stroke-miterlimit:10;stroke-dasharray:none;stroke-opacity:1"
         d="m 0,0 c 0,-18.778 -7.387,-34 -16.5,-34 -9.113,0 -16.5,15.222 -16.5,34 0,18.778 7.387,34 16.5,34 C -7.387,34 0,18.778 0,0 Z" /></g><g
       style="fill:#0f4c5c;fill-opacity:1;stroke:#ffffff;stroke-opacity:1"
       transform="translate(140.6757,230.5)"
       id="g1858"><path
         id="path1860"
         style="fill:#0f4c5c;fill-opacity:1;fill-rule:nonzero;stroke:#ffffff;stroke-opacity:1"
         d="m 0,0 c 0,-18.778 -7.387,-34 -16.5,-34 -9.113,0 -16.5,15.222 -16.5,34 0,18.778 7.387,34 16.5,34 C -7.387,34 0,18.778 0,0" /></g><g
       style="stroke:#ffffff;stroke-opacity:1"
       transform="translate(140.6757,230.5)"
       id="g1862"><path
         id="path1864"
         style="fill:none;stroke:#ffffff;stroke-width:4;stroke-linecap:butt;stroke-linejoin:miter;stroke-miterlimit:10;stroke-dasharray:none;stroke-opacity:1"
         d="m 0,0 c 0,-18.778 -7.387,-34 -16.5,-34 -9.113,0 -16.5,15.222 -16.5,34 0,18.778 7.387,34 16.5,34 C -7.387,34 0,18.778 0,0 Z" /></g><g
       style="stroke:#ffffff;stroke-opacity:1"
       transform="translate(151.6757,230.5)"
       id="g1866"><path
         id="path1868"
         style="fill:#bdbcbc;fill-opacity:1;fill-rule:nonzero;stroke:#ffffff;stroke-opacity:1"
         d="m 0,0 c 0,-18.778 -7.387,-34 -16.5,-34 -9.113,0 -16.5,15.222 -16.5,34 0,18.778 7.387,34 16.5,34 C -7.387,34 0,18.778 0,0" /></g><g
       style="fill:#0f4c5c;fill-opacity:1;stroke:#ffffff;stroke-opacity:1"
       transform="translate(151.6757,230.5)"
       id="g1870"><path
         id="path1872"
         style="fill:#0f4c5c;fill-opacity:1;stroke:#ffffff;stroke-width:4;stroke-linecap:butt;stroke-linejoin:miter;stroke-miterlimit:10;stroke-dasharray:none;stroke-opacity:1"
         d="m 0,0 c 0,-18.778 -7.387,-34 -16.5,-34 -9.113,0 -16.5,15.222 -16.5,34 0,18.778 7.387,34 16.5,34 C -7.387,34 0,18.778 0,0 Z" /></g><g
       style="stroke:#ffffff;stroke-opacity:1"
       transform="translate(162.6757,230.5)"
       id="g1874"><path
         id="path1876"
         style="fill:#bdbcbc;fill-opacity:1;fill-rule:nonzero;stroke:#ffffff;stroke-opacity:1"
         d="m 0,0 c 0,-18.778 -7.387,-34 -16.5,-34 -9.113,0 -16.5,15.222 -16.5,34 0,18.778 7.387,34 16.5,34 C -7.387,34 0,18.778 0,0" /></g><g
       style="fill:#0f4c5c;fill-opacity:1;stroke:#ffffff;stroke-opacity:1"
       transform="translate(162.6757,230.5)"
       id="g1878"><path
         id="path1880"
         style="fill:#0f4c5c;fill-opacity:1;stroke:#ffffff;stroke-width:4;stroke-linecap:butt;stroke-linejoin:miter;stroke-miterlimit:10;stroke-dasharray:none;stroke-opacity:1"
         d="m 0,0 c 0,-18.778 -7.387,-34 -16.5,-34 -9.113,0 -16.5,15.222 -16.5,34 0,18.778 7.387,34 16.5,34 C -7.387,34 0,18.778 0,0 Z" /></g><g
       style="fill:#0f4c5c;fill-opacity:1;stroke:#ffffff;stroke-opacity:1"
       transform="translate(35.6757,221.5)"
       id="g1882"><path
         id="path1884"
         style="fill:#0f4c5c;fill-opacity:1;fill-rule:nonzero;stroke:#ffffff;stroke-width:4;stroke-linecap:butt;stroke-linejoin:miter;stroke-miterlimit:10;stroke-dasharray:none;stroke-opacity:1"
         d="m 0,0 c -4.971,0 -9,4.029 -9,9 0,4.971 4.029,9 9,9" /></g><g
       style="fill:#0f4c5c;fill-opacity:1;stroke:#ffffff;stroke-opacity:1"
       transform="translate(137.1759,239.5)"
       id="g1886"><path
         id="path1888"
         style="fill:#0f4c5c;fill-opacity:1;fill-rule:nonzero;stroke:#ffffff;stroke-width:4;stroke-linecap:butt;stroke-linejoin:miter;stroke-miterlimit:10;stroke-dasharray:none;stroke-opacity:1"
         d="m 0,0 h 34.5 c 4.97,0 9,-4.029 9,-9 0,-4.971 -4.03,-9 -9,-9 H 0" /></g><g
       style="stroke:#ffffff;stroke-opacity:1"
       transform="translate(154.0467,221.4997)"
       id="g1890"><path
         id="path1892"
         style="fill:none;stroke:#ffffff;stroke-width:4;stroke-linecap:butt;stroke-linejoin:miter;stroke-miterlimit:10;stroke-dasharray:none;stroke-opacity:1"
         d="m 0,0 c -1.537,-5.693 -4.485,-9.545 -7.871,-9.545 -4.971,0 -9,8.303 -9,18.545 0,10.243 4.029,18.546 9,18.546 3.386,0 6.335,-3.853 7.871,-9.546" /></g></g></svg>
