<?xml version="1.0" encoding="UTF-8" standalone="no"?>
<svg
   xmlns:dc="http://purl.org/dc/elements/1.1/"
   xmlns:cc="http://creativecommons.org/ns#"
   xmlns:rdf="http://www.w3.org/1999/02/22-rdf-syntax-ns#"
   xmlns:svg="http://www.w3.org/2000/svg"
   xmlns="http://www.w3.org/2000/svg"
   xmlns:xlink="http://www.w3.org/1999/xlink"
   xmlns:sodipodi="http://sodipodi.sourceforge.net/DTD/sodipodi-0.dtd"
   xmlns:inkscape="http://www.inkscape.org/namespaces/inkscape"
   inkscape:version="1.0 (4035a4fb49, 2020-05-01)"
   sodipodi:docname="venenita.svg"
   id="svg98"
   version="1.1"
   viewBox="0 0 300 700">
  <metadata
     id="metadata102">
    <rdf:RDF>
      <cc:Work
         rdf:about="">
        <dc:format>image/svg+xml</dc:format>
        <dc:type
           rdf:resource="http://purl.org/dc/dcmitype/StillImage" />
        <dc:title></dc:title>
      </cc:Work>
    </rdf:RDF>
  </metadata>
  <sodipodi:namedview
     inkscape:snap-global="false"
     inkscape:current-layer="svg98"
     inkscape:window-maximized="1"
     inkscape:window-y="0"
     inkscape:window-x="0"
     inkscape:cy="166.98391"
     inkscape:cx="144.39828"
     inkscape:zoom="3.1350586"
     showgrid="false"
     id="namedview100"
     inkscape:window-height="1016"
     inkscape:window-width="1920"
     inkscape:pageshadow="2"
     inkscape:pageopacity="0"
     guidetolerance="10"
     gridtolerance="10"
     objecttolerance="10"
     borderopacity="1"
     bordercolor="#666666"
     pagecolor="#ffffff" />
  <defs
     id="defs32">
    <linearGradient
       id="b">
      <stop
         id="stop2"
         offset="0"
         stop-color="#fff" />
      <stop
         id="stop4"
         offset="1"
         stop-opacity="0"
         stop-color="#fff" />
    </linearGradient>
    <linearGradient
       id="a">
      <stop
         id="stop7"
         offset="0"
         stop-opacity="0" />
      <stop
         id="stop9"
         offset=".6"
         stop-opacity="0" />
      <stop
         id="stop11"
         offset="1" />
    </linearGradient>
    <linearGradient
       gradientUnits="userSpaceOnUse"
       y2="128.98"
       y1="218.85"
       x2="149.68"
       x1="141.96"
       id="n">
      <stop
         id="stop14"
         offset="0"
         stop-opacity=".67843" />
      <stop
         id="stop16"
         offset=".57"
         stop-opacity=".32941" />
      <stop
         id="stop18"
         offset="1"
         stop-opacity="0" />
    </linearGradient>
    <linearGradient
       xlink:href="#b"
       gradientUnits="userSpaceOnUse"
       y2="494.66"
       y1="753.8"
       x2="123.29"
       x1="375.97"
       id="m" />
    <linearGradient
       xlink:href="#b"
       gradientUnits="userSpaceOnUse"
       y2="787.72"
       y1="-857.51"
       x2="0"
       id="l" />
    <linearGradient
       xlink:href="#b"
       gradientUnits="userSpaceOnUse"
       x2="232.22"
       x1="-280.84"
       id="k" />
    <radialGradient
       xlink:href="#a"
       gradientUnits="userSpaceOnUse"
       gradientTransform="matrix(5.3322 -1.4288 1.2151 4.5349 -2957.8 -651.1)"
       r="17.922"
       cy="340.96"
       cx="505.31"
       id="j" />
    <radialGradient
       xlink:href="#a"
       gradientUnits="userSpaceOnUse"
       gradientTransform="matrix(7.9937 -.63356 1.9503 24.608 -4572.6 -8238.1)"
       r="13.047"
       cy="357.75"
       cx="499.62"
       id="i" />
    <radialGradient
       xlink:href="#a"
       gradientUnits="userSpaceOnUse"
       gradientTransform="matrix(6.5558 -1.7566 1.2151 4.5349 -3578.9 -484.69)"
       r="17.922"
       cy="332.63"
       cx="507.58"
       id="h" />
    <radialGradient
       xlink:href="#a"
       gradientUnits="userSpaceOnUse"
       gradientTransform="matrix(-4.102e-6 -6.7871 4.3186 0 -1283.6 3577.1)"
       r="17.922"
       cy="332.63"
       cx="504.93"
       id="g" />
    <radialGradient
       xlink:href="#a"
       gradientUnits="userSpaceOnUse"
       gradientTransform="matrix(2.4541 -5.0384 5.5623 2.7093 -2940.2 1802.8)"
       r="17.922"
       cy="327.4"
       cx="508.93"
       id="f" />
    <radialGradient
       xlink:href="#a"
       gradientUnits="userSpaceOnUse"
       gradientTransform="matrix(0 -2.9941 4.057 2.3246e-6 -1165.3 1675.2)"
       r="17.922"
       cy="326.56"
       cx="506.72"
       id="e" />
    <radialGradient
       xlink:href="#a"
       gradientUnits="userSpaceOnUse"
       gradientTransform="matrix(0 -2.9085 3.941 2.2581e-6 -1125.9 1634.1)"
       r="17.922"
       cy="324.51"
       cx="521.02"
       id="d" />
    <radialGradient
       xlink:href="#a"
       gradientUnits="userSpaceOnUse"
       gradientTransform="matrix(1.1753 -19.257 6.8221 .4163 -3377.3 9819.3)"
       r="28.917"
       cy="423.26"
       cx="494.12"
       id="c" />
  </defs>
  <path
     id="path34"
     fill="#008080"
     d="m152.96 266.72c-48.239 0-88.83 36.682-87.419 81.876l8.5572 274.02c0.67862 21.732 35.377 39.382 78.862 39.382s78.086-17.65 78.765-39.382l8.5572-274.02c1.4113-45.195-39.083-81.876-87.322-81.876z" />
  <path
     style="fill:#e36414;fill-opacity:1"
     id="path42"
     d="m573.91 361.69c-3.6006-1e-5 -6.8813 0.70629-9.4688 2s-4.8125 3.401-4.8125 6.3438v5c1e-5 2.5112 1.6168 4.4023 3.7188 5.7188-0.30298 4.6535-0.5 9.6287-0.5 14.969 1e-5 0.84626 0.01314 1.6163 0.03125 2.4062-6.3088 3.5393-10.765 9.9159-10.531 17.406l1.875 60.094c0.11364 3.64 2.8912 6.4078 6.4375 8.1875s8.1579 2.7812 13.25 2.7812 9.7037-1.0016 13.25-2.7812 6.3238-4.5475 6.4375-8.1875l1.875-60.094c0.234-7.4926-4.225-13.868-10.531-17.406 0.01812-0.78987 0.03125-1.5598 0.03125-2.4062 3e-5 -5.4075-0.22249-10.456-0.53125-15.156 2.0412-1.3069 3.75-3.0622 3.75-5.5312v-5c-1e-5 -2.9427-2.2251-5.05-4.8125-6.3438s-5.8682-2-9.4688-2z"
     transform="matrix(4.6308 0 0 4.5729 -2506.2 -1547.6)" />
  <g
     style="fill:#e36414;fill-opacity:0"
     id="g52"
     transform="translate(-350.72 -7.0711)">
    <path
       style="fill:#e36414;fill-opacity:0"
       id="path48"
       fill="#0f0"
       d="m419.03 410.88 6.25 212.81c0.45173 15.327 11.496 26.975 25.594 34.469s32.445 11.688 52.688 11.688 38.559-4.1941 52.656-11.688 25.142-19.142 25.594-34.469l6.1875-209.28c-8.0052 16.092-42.539 28.219-83.844 28.219-44.277 0-80.741-13.93-85.125-31.75z" />
    <path
       style="fill:#e36414;fill-opacity:0"
       id="path50"
       fill="#008000"
       d="m585.48 390.99a83.439 54.447 0 1 1 -166.88 0 83.439 54.447 0 1 1 166.88 0z"
       transform="matrix(1.0254 0 0 .76623 -12.057 106.96)" />
  </g>
  <path
     id="path64"
     fill="url(#e)"
     d="m152.96 118.7c19.557-3e-5 35.422 7.8852 35.422 17.664s-15.865 17.758-35.422 17.758-35.422-7.9797-35.422-17.758 15.865-17.664 35.422-17.664z" />
  <path
     id="path66"
     fill="url(#n)"
     d="m152.96 118.7c19.557-3e-5 35.422 7.8852 35.422 17.664s-15.865 17.758-35.422 17.758-35.422-7.9797-35.422-17.758 15.865-17.664 35.422-17.664z" />
  <path
     id="path68"
     fill="url(#d)"
     d="m152.96 118.7c19.557-3e-5 35.422 7.8852 35.422 17.664s-15.865 17.758-35.422 17.758-35.422-7.9797-35.422-17.758 15.865-17.664 35.422-17.664z" />
  <path
     style="fill:#e36414;fill-opacity:0"
     id="path74"
     fill="url(#c)"
     d="m152.96 266.72c-48.239 0-88.83 36.682-87.419 81.876l8.5572 274.02c0.67862 21.732 35.377 39.382 78.862 39.382s78.086-17.65 78.765-39.382l8.5572-274.02c1.4113-45.195-39.083-81.876-87.322-81.876z" />
  <g
     style="fill:#e36414;fill-opacity:1;stroke:#ffffff;stroke-opacity:1;stroke-width:3;stroke-miterlimit:4;stroke-dasharray:none"
     id="g88"
     fill="#1a1a1a"
     transform="translate(-401.59 42.924)">
    <path
       style="fill:#e36414;fill-opacity:1;stroke:#ffffff;stroke-opacity:1;stroke-width:3;stroke-miterlimit:4;stroke-dasharray:none"
       id="path80"
       d="m492.38 521.21c-6.1326-2.5633 2.997-14.54-7.5059-11.866-8.6159 0.11992-13.538-11.751-6.848-17.445 6.5722-6.5725 15.894-0.12149 22.352 3.3353 2.6011 1.9808 5.247 3.3922 8.1814 1.1264 35.603-5.9257 68.25-14.275 91.34-34.774 10.398-3.1171 6.2819-16.643 8.7886-24.575 4.9166-7.3626 18.017-3.8156 21.457 3.4512 4.4165 6.9971-12.274 13.49-4.4352 17.859 4.543-13.686 17.413 3.561 8.4426 9.86-5.6444 6.192-16.09 4.0514-20.09-2.9-34.221 20.284-51.596 30.303-89.619 36.678-8.7378 2.1067-17.607 4.5142-16.87 13.949-3.616 4.1568-9.8449 5.9071-15.195 5.3024z" />
    <path
       style="fill:#e36414;fill-opacity:1;stroke:#ffffff;stroke-opacity:1;stroke-width:3;stroke-miterlimit:4;stroke-dasharray:none"
       id="path82"
       d="m591.81 519.41c-9.5774-2.7107-1.0697-18.823-10.292-21.603-6.3481-2.1225-15.137 0.07578-16.899-3.982 7.3846-2.8375 8.5526-4.2448 14.665-4.9118 7.4391 3.8717 9.5086 5.7528 17.988 1.283 7.4862-5.1113 18.406-1.5078 21.075 7.1861 0.99518 9.9961-14.165-3.7543-15.12 2.1708 11.802-0.2066 14.678 17.983 2.3649 19.782-4.4682 0.9606-9.3408 1.3591-13.781 0.0748z" />
    <path
       style="fill:#e36414;fill-opacity:1;stroke:#ffffff;stroke-opacity:1;stroke-width:3;stroke-miterlimit:4;stroke-dasharray:none"
       id="path84"
       d="m534.03 486.97c-12.592-2.9913-27.19-14.878-37.9-21.388-7.4662 6.0158-21.371 6.2929-22.559-5.7753-3.3868-9.9439 6.868-12.639 14.391-10.529 5.2472-0.59608-4.3638-9.935 4.3532-9.5306 9.338-5.1669 20.551 4.3178 12.721 13.598-3.7669 9.2302 8.5972 13.39 14.462 16.303 13.21 9.5071 31.239 7.7692 35.167 12.58-3.6084 3.8663-16.057 6.151-20.635 4.7412z" />
    <path
       style="fill:#e36414;fill-opacity:1;stroke:#ffffff;stroke-opacity:1;stroke-width:3;stroke-miterlimit:4;stroke-dasharray:none"
       id="path86"
       d="m558.75 328.38c-6.3129 0.02381-12.622 0.60567-18.781 1.5312-18.977 2.8766-35.689 16.353-42.188 34.469-4.2462 8.3057-2.9443 17.771 0.96875 25.875 6.4775 1.0186 1.3107-14.355 7.7188-17.781 6.3483-1.4299-0.21717-13.307 4.5312-8.8438 4.711 4.7235-1.5818 9.7753-4.2812 13.75-0.66656 3.2082 0.06319 6.8653-0.0625 10.25 1.096 3.5852-2.5001 5.3688-4.4375 7.7812-7.7527 5.5494-9.7782 16.652-2.9062 23.844 5.5518 13.091 19.551-2.133 25.5 8.125 4.8853 6.2956-2.4185 4.586-6.2812 3.625-8.6721 5.447 0.97662 17.464-0.3125 25.625-1.024 4.9757 9.4034 5.4815 8.2188 0.59375 3.5841-13.801 9.2616 13.908 16.875 4.3438 2.8565-8.3033 7.7342-1.8799 11.656 2.0312 0.98427-6.4703 7.2083-7.5771 11.094-2.5 4.9955 4.1236 6.8505 4.0451 9.3125-1 9.7576 3.3177 15.65-7.6208 19.406-14.781 5.0193-8.7049-3.6618-8.8213-9.0625-9.8438 2.778-9.7417 14.361-6.4713 21.5-9.2812 6.1247-6.3005 11.624-15.764 8.4062-24.781-2.4581-6.3398-4.761-14.322 1.7812-18.938-0.2496-4.7176-0.15731-9.477-0.875-14.156-4.1126-14.251-12.891-28.51-26.938-34.688-9.7799-3.8152-20.322-5.2897-30.844-5.25zm29.094 43.875c0.45852-0.01205 0.91805-0.01724 1.375 0 6.0927 0.22979 11.967 3.0709 15.375 8.5938 5.8699 7.2579-0.85114 16.622-7.9062 19.844-2.4589 1.1498-5.2205 1.2244-7.875 1.375-7.6044-0.8383-21.412 3.5428-24.25-5.9062 0.29469-9.1858 4.2518-18.922 13.938-21.531 2.9109-1.4979 6.1341-2.2906 9.3438-2.375zm-57.75 0.71875c6.1338-0.23861 12.698 2.2576 17.406 5.9375 5.308 4.8749 9.4677 17.185 3.7188 22.5-1.5859 0.90006-3.4045 1.1246-5.1875 1.25-8.7781-0.14643-18.991 2.0406-26.5-3.625-6.2723-4.6684-7.9423-14.186-1.9062-19.781 3.1787-4.26 7.698-6.0957 12.469-6.2812zm24.781 32.062c0.90104 4.7953-0.18814 12.596-2.75 17.312-9.2314 5.1968-3.6471-15.993 2.75-17.312zm8.1875 0.4375c5.5756 0.0032 9.5186 11.78 8.3438 17.094-9.4903 5.0086-7.3179-11.801-10.125-16.688 0.60785-0.27161 1.2045-0.40658 1.7812-0.40625z" />
  </g>
  <g
     style="stroke:#ffffff;stroke-opacity:1;stroke-width:3;stroke-miterlimit:4;stroke-dasharray:none;fill:#e36414;fill-opacity:1"
     id="g94"
     transform="translate(1.4142 91.924)">
    <path
       style="stroke:#ffffff;stroke-opacity:1;stroke-width:3;stroke-miterlimit:4;stroke-dasharray:none;fill:#e36414;fill-opacity:1"
       id="path90"
       fill-rule="evenodd"
       fill="#666"
       d="m114.55 45.628c15.16 24.955 67.337 22.641 72.125-1.4142l15.556-77.782-101.82 1.4142 14.142 77.782z" />
    <path
       style="stroke:#ffffff;stroke-opacity:1;stroke-width:3;stroke-miterlimit:4;stroke-dasharray:none;fill:#e36414;fill-opacity:1"
       id="path92"
       fill="#333"
       d="m151.54-62.324c28.146-5e-5 50.978 11.663 50.978 26.126s-22.832 26.266-50.978 26.266-50.978-11.803-50.978-26.266 22.832-26.126 50.978-26.126z" />
  </g>
  <path
     sodipodi:nodetypes="cc"
     id="path945"
     d="m 97.693979,190.74881 c 27.385601,18.98763 82.721411,16.21492 108.127141,-1.87311"
     style="fill:none;fill-rule:evenodd;stroke:#ffffff;stroke-width:1;stroke-linecap:butt;stroke-linejoin:miter;stroke-miterlimit:4;stroke-dasharray:none;stroke-opacity:1" />
</svg>
