<?xml version="1.0" encoding="UTF-8" standalone="no"?>
<svg
   xmlns:dc="http://purl.org/dc/elements/1.1/"
   xmlns:cc="http://creativecommons.org/ns#"
   xmlns:rdf="http://www.w3.org/1999/02/22-rdf-syntax-ns#"
   xmlns:svg="http://www.w3.org/2000/svg"
   xmlns="http://www.w3.org/2000/svg"
   xmlns:sodipodi="http://sodipodi.sourceforge.net/DTD/sodipodi-0.dtd"
   xmlns:inkscape="http://www.inkscape.org/namespaces/inkscape"
   inkscape:version="1.0 (4035a4fb49, 2020-05-01)"
   sodipodi:docname="vestaĵoj.svg"
   id="svg5745"
   viewBox="0 0 256.86215 220.61414"
   version="1.1"
   enable-background="new 0 0 283.464 283.464"
   height="220.61102"
   width="256.85852">
  <metadata
     id="metadata5751">
    <rdf:RDF>
      <cc:Work
         rdf:about="">
        <dc:format>image/svg+xml</dc:format>
        <dc:type
           rdf:resource="http://purl.org/dc/dcmitype/StillImage" />
        <dc:title></dc:title>
      </cc:Work>
    </rdf:RDF>
  </metadata>
  <defs
     id="defs5749" />
  <sodipodi:namedview
     inkscape:current-layer="svg5745"
     inkscape:window-maximized="1"
     inkscape:window-y="0"
     inkscape:window-x="0"
     inkscape:cy="113.40647"
     inkscape:cx="125.67829"
     inkscape:zoom="2.7372026"
     fit-margin-bottom="5"
     fit-margin-right="5"
     fit-margin-left="5"
     lock-margins="true"
     fit-margin-top="5"
     showgrid="false"
     id="namedview5747"
     inkscape:window-height="1016"
     inkscape:window-width="1920"
     inkscape:pageshadow="2"
     inkscape:pageopacity="0"
     guidetolerance="10"
     gridtolerance="10"
     objecttolerance="10"
     borderopacity="1"
     bordercolor="#666666"
     pagecolor="#ffffff" />
  <path
     style="fill:#0f4c5c;fill-opacity:1"
     id="path5721"
     fill-rule="evenodd"
     d="m 137.50807,188.96607 c -1.794,-0.82 -3.934,-4.085 -5.851,-11.195 -1.965,-7.012 -4.265,-13.434 -7.968,-19.52 -0.639,-0.647 -1.228,-1.105 -1.867,-0.957 l -2.369,0.403 c -0.928,0.22 -1.466,0.661 -1.463,1.413 -0.523,9.252 -0.834,18.473 -0.251,27.587 l -0.353,0.454 -0.96,0.051 c -1.901,0.014 -1.786,-0.227 -2.168,-0.403 0.273,-5.276 -0.185,-10.672 -0.757,-16.089 -0.772,-8.033 -2.845,-15.693 -6.401,-22.929 -0.164,-0.503 -0.029,-0.728 0.109,-0.918 -2.054,-5.23 3.126,-14.42 9.581,-18.429 0.246,-0.265 0.377,-0.41 0.489,-0.538 -0.12,-1.08 20.918,28.887 19.373,27.783 1.907,3.666 3.187,7.33 4.388,10.996 1.869,3.591 5.356,5.278 10.944,4.489 3.377,-0.203 6.757,2.521 10.035,3.933 6.028,2.514 11.702,4.955 13.568,6.608 1.009,1.31 0.856,2.673 0,3.631 -0.19,0.736 -0.692,1.158 -1.415,1.361 -6.517,1.979 -13.504,2.864 -20.475,3.784 -8.38,0.65 -13.38,-0.01 -16.18,-1.5 z" />
  <path
     style="fill:#0f4c5c;fill-opacity:1"
     id="path5723"
     d="m 248.55807,46.389071 -24.35,-32.52 -17.907,-3.826 -1.334,-4.2960003 0.056,-0.574 h -0.233 l -0.054,-0.172 -10.813,0.085 -10.813,-0.085 -0.054,0.172 h -0.233 l 0.056,0.574 -1.333,4.2960003 -17.908,3.826 -24.35,32.52 -3.303,39.476 14.956,24.870999 11.826,-5.914 c 0,0 11.905,9.156 31.157,8.696 19.251,0.46 31.156,-8.696 31.156,-8.696 l 11.826,5.914 14.956,-24.870999 -3.36,-39.477 z m -86.49,45.387 -11.997,-23.827 12.87,-15.824 c 4.18,24.001 -0.87,39.651 -0.87,39.651 z m 63.71,0 c 0,0 -5.043,-15.655 -0.873,-39.65 l 12.87,15.824 -12,23.826 z" />
  <path
     style="fill:#0f4c5c;fill-opacity:1"
     id="path5725"
     d="m 200.56807,119.14607 c -0.144,1.76 0.349,4.769 0.709,6.976 0.452,2.742 -0.491,14.79 -0.447,19.224 0.042,4.432 -2.725,24.734 -3.74,29.599 -1.007,4.868 -3.104,6.365 -4.357,7.856 -1.255,1.489 -8.973,11.059 -11.902,13.835 -2.935,2.777 -11.266,7.036 -12.96,7.479 -1.685,0.431 -15.733,5.573 -16.353,6.85 -0.414,0.842 -0.966,3.047 -1.373,4.646 h 48.311 c 3.168,-5.539 7.365,-14.772 8.355,-15.747 1.537,-1.511 4.626,-1.993 6.111,-1.958 2.281,0.051 1.181,12.049 0.996,17.706 h 11.046 c 0.347,-9.173 3.993,-17.972 3.291,-20.616 -0.642,-2.418 -4.518,-7.583 -4.518,-7.583 0,0 -0.326,-5.692 -0.082,-8.41 0.247,-2.721 2.844,-12.474 3.315,-15.8 0.46,-3.259 6.352,-16.651 8.309,-22.604 2.388,-7.268 2.533,-19.308 2.533,-19.308 -0.104,-0.735 -0.209,-1.47 -0.551,-2.142 h -36.69 z" />
  <path
     style="fill:#0f4c5c;fill-opacity:1"
     id="path5727"
     d="m 81.020071,166.36607 -7.797,6.167 c -2.758,1.399 -3.784,1.399 -6.723,0 l -8.851,-6.167 c -2.83,-1.667 -9.372,2.128 -9.372,4.754 l -7.695,26.402 h 57.504 l -7.695,-26.402 c 0,-2.62 -6.33,-6.81 -9.368,-4.75 z" />
  <rect
     style="fill:#0f4c5c;fill-opacity:1"
     id="rect5729"
     height="5.3860002"
     width="57.504002"
     y="200.79607"
     x="40.582069" />
  <rect
     style="fill:#0f4c5c;fill-opacity:1"
     id="rect5731"
     height="7.118"
     width="80.396004"
     y="208.49608"
     x="29.13607" />
  <g
     transform="translate(-16.051929,-28.323929)"
     id="g5743"
     fill-rule="evenodd">
    <polygon
       style="fill:#0f4c5c;fill-opacity:1"
       id="polygon5733"
       points="60.326,119.95 53.984,182.96 83.849,182.96 84.385,182.96 114.25,182.96 107.91,119.95 105.88,106.78 62.353,106.78 " />
    <path
       style="fill:#0f4c5c;fill-opacity:1"
       id="path5735"
       d="M 124.27,62.883 C 122.206,53.765 116.508,52.355 109.542,48.154 109.016,47.519 97.269,42.119 97.269,42.119 h 5.523 L 92.769,33.324 H 75.459 L 65.441,42.12 h 5.522 c 0,0 -11.747,5.4 -12.273,6.035 -6.966,4.2 -12.664,5.611 -14.728,14.729 -2.455,10.841 -22.91,80.799 -22.91,80.799 l 15.342,1.432 22.296,-66.072 4.019,16.077 h 42.818 l 4.02,-16.077 22.296,66.072 15.341,-1.432 c 0,0 -20.45,-69.956 -22.91,-80.797 z M 91.749,48.563 84.117,53.848 76.485,48.563 V 42.12 c 0,0 3.616,-0.009 7.632,-0.012 4.016,0.003 7.632,0.012 7.632,0.012 z" />
    <rect
       style="fill:#0f4c5c;fill-opacity:1"
       id="rect5737"
       height="7.6360002"
       width="10.738"
       y="97.436996"
       x="78.748001" />
    <rect
       style="fill:#0f4c5c;fill-opacity:1"
       id="rect5739"
       height="7.6360002"
       width="3.6470001"
       y="97.436996"
       x="100.7" />
    <rect
       style="fill:#0f4c5c;fill-opacity:1"
       id="rect5741"
       height="7.6360002"
       width="3.6470001"
       y="97.436996"
       x="63.882999" />
  </g>
</svg>
