<?xml version="1.0" encoding="UTF-8" standalone="no"?>
<svg
   xmlns:dc="http://purl.org/dc/elements/1.1/"
   xmlns:cc="http://creativecommons.org/ns#"
   xmlns:rdf="http://www.w3.org/1999/02/22-rdf-syntax-ns#"
   xmlns:svg="http://www.w3.org/2000/svg"
   xmlns="http://www.w3.org/2000/svg"
   xmlns:sodipodi="http://sodipodi.sourceforge.net/DTD/sodipodi-0.dtd"
   xmlns:inkscape="http://www.inkscape.org/namespaces/inkscape"
   inkscape:version="1.0 (4035a4fb49, 2020-05-01)"
   sodipodi:docname="ĉevalo.svg"
   id="svg7"
   viewBox="0 0 822.18164 565.45178"
   height="565.45178"
   width="822.18164"
   version="1.1">
  <metadata
     id="metadata13">
    <rdf:RDF>
      <cc:Work
         rdf:about="">
        <dc:format>image/svg+xml</dc:format>
        <dc:type
           rdf:resource="http://purl.org/dc/dcmitype/StillImage" />
        <dc:title></dc:title>
      </cc:Work>
    </rdf:RDF>
  </metadata>
  <defs
     id="defs11" />
  <sodipodi:namedview
     fit-margin-bottom="5"
     fit-margin-right="5"
     fit-margin-left="5"
     lock-margins="true"
     fit-margin-top="5"
     inkscape:current-layer="svg7"
     inkscape:window-maximized="1"
     inkscape:window-y="0"
     inkscape:window-x="0"
     inkscape:cy="329.79974"
     inkscape:cx="469.11491"
     inkscape:zoom="0.79496662"
     showgrid="false"
     id="namedview9"
     inkscape:window-height="1016"
     inkscape:window-width="1920"
     inkscape:pageshadow="2"
     inkscape:pageopacity="0"
     guidetolerance="10"
     gridtolerance="10"
     objecttolerance="10"
     borderopacity="1"
     bordercolor="#666666"
     pagecolor="#ffffff" />
  <g
     transform="translate(169.11491,-158.20026)"
     style="fill:#5f0f40;fill-opacity:1"
     id="layer1">
    <g
       id="g4"
       style="fill:#5f0f40;fill-opacity:1;stroke-linejoin:miter">
      <path
         style="fill:#5f0f40;fill-opacity:1"
         id="path2"
         d="m 380.52814,312.2959 c 0.22229,6.7e-4 0.1654,0.1209 -0.21744,0.36127 -0.34522,0.22155 -1.03876,0.40393 -1.51703,0.40966 -0.69617,-0.035 -0.69672,-0.0785 0.21271,-0.39393 0.76456,-0.25045 1.28726,-0.3763 1.51794,-0.377 z m -511.39606,190.99573 c 0.55382,0 0.74496,0.0828 0.49611,0.21099 -0.16011,0.0479 -0.38112,0.0723 -0.59264,0.0723 -0.18911,0 -0.37066,-0.0195 -0.49431,-0.0591 -0.3059,-0.1267 -0.0896,-0.21642 0.51911,-0.22375 0.0246,-3e-4 0.0485,-4.2e-4 0.0717,-4.2e-4 z m 36.86108,20.03797 c 1.164234,0 1.64594,0.0731 1.055676,0.159 -0.3685,0.0536 -0.904446,0.0815 -1.442336,0.0815 -0.412546,0 -0.82623,-0.0164 -1.16637,-0.05 -0.78365,-0.0775 -0.26297,-0.1708 1.171786,-0.1881 0.134048,-0.002 0.261268,-0.002 0.381244,-0.002 z M 553.7993,163.20026 c -1.04704,0 -1.456,0.44708 -3.83745,3.30059 -2.10058,2.50403 -6.4823,10.55811 -6.46655,11.86243 0.004,0.30432 -1.0093,2.83862 -2.2805,5.59349 -2.1199,4.50452 -2.5038,5.11792 -4.4027,6.31494 -1.1215,0.75281 -2.3316,1.3761 -2.6795,1.38037 -0.3043,0.004 -2.3796,0.98536 -4.58237,2.22962 -3.93078,2.17822 -4.01723,2.22278 -7.88683,2.26941 -2.17384,0.0264 -4.95374,0.27734 -6.2556,0.51049 -1.2577,0.276 -3.90554,0.65589 -5.9025,0.94092 -1.95385,0.24097 -4.078,0.78846 -4.682,1.18714 -0.39282,0.2688 -0.70706,0.4084 -0.89407,0.4084 -0.12093,0 -0.18873,-0.0584 -0.19016,-0.17793 -0.004,-0.30588 -0.74145,-0.46013 -1.51767,-0.46013 -0.76834,0 -1.57443,0.15114 -1.7438,0.45598 -0.12732,0.26245 -0.86072,0.74963 -1.5515,1.14941 l -1.29652,0.66785 0.72595,-1.09583 c 0.38403,-0.6134 0.85597,-1.14099 1.07337,-1.14368 0.2174,-0.003 0.38757,-0.30896 0.38342,-0.65673 -0.004,-0.3479 0.20948,-0.65491 0.42688,-0.65747 0.26086,-0.003 0.43017,-0.39649 0.4243,-0.87476 -0.007,-0.57945 -0.42412,-0.85844 -1.0219,-0.85844 -0.65814,0 -1.53522,0.33815 -2.3249,0.98576 -3.22777,2.77844 -5.28893,4.93421 -5.28112,5.58631 0.0142,1.17393 -2.26706,3.11485 -3.61496,3.13108 -1.08692,0.0132 -1.21569,0.14514 -1.03027,1.09949 0.18335,0.78052 -0.1554,1.52393 -1.14125,2.70983 -0.72813,0.922 -1.58153,2.2804 -1.87633,3.06666 l -0.54895,1.35461 -1.88647,-1.36865 c -1.05335,-0.8136 -2.41005,-1.5365 -3.06445,-1.70239 -0.6543,-0.16614 -1.9225,-0.75953 -2.88575,-1.31336 -0.9537,-0.59076 -2.3316,-1.04873 -3.16073,-1.04873 -0.009,0 -0.0176,4e-5 -0.0263,1.5e-4 -0.008,1.1e-4 -0.0171,1.5e-4 -0.0257,1.5e-4 -0.91986,0 -2.64944,-0.58499 -4.29704,-1.46988 -1.52174,-0.80234 -3.34236,-1.4725 -4.09083,-1.4725 -0.005,0 -0.01,3e-5 -0.0147,9e-5 -0.0111,1.4e-4 -0.0221,2e-4 -0.0332,2e-4 -0.73048,0 -1.54022,-0.2914 -1.84458,-0.6733 -0.30745,-0.35296 -0.83202,-0.5131 -1.3551,-0.5131 -0.75228,0 -1.50152,0.33127 -1.59728,0.89665 -0.20484,1.04614 2.07861,2.88843 3.51404,2.91455 0.012,-1.5e-4 0.0239,-2.1e-4 0.0359,-2.1e-4 0.64016,0 1.27426,0.20741 1.44861,0.50412 0.1348,0.2099 0.0753,0.3096 -0.237,0.3096 -0.20132,0 -0.50772,-0.0414 -0.93487,-0.12149 -2.05802,-0.3898 -3.22635,-0.59311 -3.88733,-0.59311 -0.79483,0 -0.85611,0.29396 -0.84863,0.9111 0.007,0.56519 0.23266,1.2583 0.4967,1.51599 0.30811,0.30066 0.0529,0.78211 -0.85059,1.57568 -0.73181,0.61768 -1.33068,1.45105 -1.32641,1.79895 0.005,0.39124 -0.90039,1.05457 -2.15442,1.63489 -1.90308,0.84925 -2.1609,1.11316 -2.14722,2.24378 0.0111,0.91284 0.27722,1.3446 0.88806,1.51111 0.47974,0.12463 0.87366,0.33728 0.87574,0.51123 0.006,0.46298 -1.97251,1.12118 -3.20984,1.12118 -0.15702,0 -0.3021,-0.0106 -0.42969,-0.0335 -0.25201,-0.0493 -0.44827,-0.0817 -0.6008,-0.0817 -0.48062,0 -0.52679,0.32111 -0.51327,1.44327 0.0189,1.56518 -0.0245,1.56568 -1.80665,1.63061 -0.63217,0.008 -1.48776,0.018 -2.28653,0.018 -0.51965,0 -1.01528,-0.004 -1.40963,-0.0168 -0.11005,-0.002 -0.21424,-0.003 -0.31275,-0.003 -1.18642,0 -1.55542,0.15256 -1.54956,0.63428 0.005,0.45599 -0.21886,0.68755 -0.59793,0.68755 -0.34387,0 -0.81503,-0.19054 -1.35739,-0.57695 -0.48194,-0.29858 -1.83459,-0.67358 -3.05347,-0.78943 -1.17553,-0.11621 -2.74387,-0.35815 -3.39817,-0.52417 -0.29122,-0.0596 -0.5198,-0.0944 -0.70263,-0.0944 -0.44653,0 -0.6202,0.20717 -0.7677,0.76442 -0.12463,0.47986 -0.24987,0.91614 -0.33679,0.91712 h -1.8e-4 c -0.0452,0 -0.6993,-0.20935 -1.48383,-0.46033 -0.55157,-0.18951 -1.09012,-0.27691 -1.57321,-0.27691 -1.12323,0 -1.94676,0.47245 -1.93753,1.23248 0.006,0.47602 0.26889,0.8627 0.57141,0.8627 10e-4,0 0.003,-2e-5 0.004,-3e-5 0.001,-2e-5 0.002,-2e-5 0.003,-2e-5 0.61185,0 2.50263,2.2321 2.51093,2.92665 0.003,0.26087 0.39757,0.51697 0.87744,0.64172 0.6543,0.16602 0.87696,0.59815 0.88855,1.5547 0.009,0.78259 0.3263,1.82238 0.72498,2.42639 0.44253,0.66108 0.57092,0.88191 0.32348,0.88191 -0.12393,0 -0.34213,-0.0554 -0.66235,-0.13863 -0.56677,-0.12366 -1.57263,-0.58984 -2.31703,-1.01562 -0.69386,-0.42211 -1.7701,-0.75426 -2.33998,-0.75426 -0.006,0 -0.0115,3e-5 -0.0172,1.1e-4 -0.91309,0.011 -0.99842,0.14245 -0.76526,1.44409 l 0.23412,1.38879 -1.69714,-0.11011 c -0.32406,-0.0274 -0.59033,-0.0429 -0.80773,-0.0429 -0.68793,0 -0.88691,0.15571 -0.88173,0.58517 0.005,0.44995 -0.2711,0.6821 -0.63713,0.6821 -0.3414,0 -0.76062,-0.20197 -1.10145,-0.61752 -0.30722,-0.34278 -0.70019,-0.64125 -0.91818,-0.64125 -9.1e-4,0 -0.002,0 -0.003,10e-6 -4e-4,0 -8.3e-4,2e-5 -0.001,2e-5 -0.17691,0 -1.09354,-0.46651 -1.96832,-1.06325 -1.03668,-0.68108 -1.91152,-1.03525 -2.48678,-1.03525 -0.47064,0 -0.74074,0.23706 -0.73484,0.72617 0.0178,1.47396 0.5517,2.72549 1.15815,2.72549 0.002,0 0.004,-1e-5 0.005,-3e-5 0.002,-3e-5 0.005,-5e-5 0.007,-5e-5 0.34613,0 0.73654,0.29784 0.87033,0.64177 0.17664,0.34299 0.60964,0.64008 0.99862,0.64008 0.003,0 0.006,-3e-5 0.009,-6e-5 0.0221,-2.6e-4 0.0434,-4.1e-4 0.0638,-4.1e-4 h 0.004 c 0.53984,2.2e-4 0.51992,0.0939 -0.0193,0.43473 -0.21842,0.13465 -0.39307,0.20198 -0.52404,0.20198 -0.12788,0 -0.21406,-0.0642 -0.25856,-0.19258 -0.0875,-0.25229 -0.78927,-0.41522 -1.58636,-0.41522 -0.0236,0 -0.0473,1.4e-4 -0.0711,4.3e-4 -1.26087,0.0153 -1.47667,0.14831 -1.46563,1.0614 0.0115,0.95459 1.90222,3.27286 2.64438,3.27286 10e-4,0 0.003,-2e-5 0.004,-3e-5 6.1e-4,0 10e-4,-2e-5 0.002,-2e-5 0.17414,0 0.48064,0.29994 0.61526,0.68837 0.15485,0.36355 0.12693,0.54863 -0.40445,0.54863 -0.54345,0 -1.61352,-0.1936 -3.55313,-0.58793 -0.39496,-0.0715 -0.68182,-0.11828 -0.88968,-0.11828 -0.50314,0 -0.54333,0.27411 -0.53293,1.13559 0.008,0.69568 0.23511,1.47571 0.54322,1.77637 0.39599,0.3866 0.0498,0.52112 -1.55902,0.54053 -1.95643,0.0237 -2.04291,0.0682 -1.89875,1.19714 0.14295,1.04187 0.40595,1.21265 2.67206,1.62012 2.26612,0.40747 3.31746,1.047 3.37256,2.00305 0.008,0.6521 -3.93133,2.13464 -6.71027,2.47266 -2.86541,0.38257 -3.03875,0.4281 -3.02613,1.47155 0.0126,1.04346 0.18696,1.08484 2.8418,1.27015 2.4369,0.14453 2.83027,0.31384 2.83863,1.0094 0.007,0.5653 -0.46619,1.00573 -1.46197,1.36572 -0.77942,0.27025 -1.68561,0.84655 -1.98529,1.24158 -0.29963,0.39489 -0.94764,0.75061 -1.46937,0.75695 -0.69555,0.008 -0.90978,0.27185 -0.89984,1.0979 0.0107,0.88205 0.21584,1.07184 1.2096,1.07184 0.035,0 0.0709,-2.2e-4 0.10784,-6.7e-4 0.0121,-1.5e-4 0.0241,-2.1e-4 0.0361,-2.1e-4 0.7666,0 1.4065,0.29464 1.66905,0.76254 0.31165,0.60486 0.0995,1.04236 -1.23462,2.18896 -0.90418,0.75026 -2.11157,1.59096 -2.67365,1.85866 -0.56256,0.22423 -1.34038,0.625 -1.72863,0.8906 -0.43219,0.22267 -1.12305,0.62233 -1.51172,0.84437 -0.86386,0.4014 -1.33723,4.39883 -0.55848,4.39883 9.2e-4,0 0.002,-2e-5 0.003,-2e-5 0.004,-6e-5 0.007,-6e-5 0.0112,-8e-5 h 0.004 c 0.76401,0.001 0.51001,0.8267 -0.47096,1.87532 -3.2899,3.41422 -4.228,5.55182 -2.43932,5.55182 0.009,0 0.0184,-6e-5 0.0278,-1.8e-4 0.0546,-6.6e-4 0.10595,-10e-4 0.15409,-10e-4 0.71814,0 0.71658,0.0998 0.0764,1.08554 -0.38446,0.56982 -0.67676,1.5735 -0.66938,2.18213 0.011,0.90854 0.16984,1.06997 1.3407,1.06997 0.0619,0 0.12653,-4.2e-4 0.19416,-10e-4 1.08692,-0.0132 1.60554,-0.28027 1.98792,-1.02417 0.76477,-1.48768 3.38916,-3.82406 4.34558,-3.83554 0.013,-1.4e-4 0.0258,-2.4e-4 0.0383,-2.4e-4 h 0.004 c 0.69302,4.6e-4 0.58822,0.24472 -0.62693,2.00754 -0.76947,1.09631 -1.70972,2.45568 -2.05066,3.02514 -0.2976,0.56885 -1.11474,1.318 -1.7622,1.71717 -0.6474,0.39917 -1.33472,1.10327 -1.45936,1.58313 -0.16705,0.56726 -0.64166,0.87732 -1.42425,0.88684 -2.21741,0.0267 -3.12463,0.51598 -3.11151,1.6029 0.01,0.82618 0.31793,1.12683 1.32006,1.2887 2.0314,0.3808 1.2834,0.76398 -1.0049,0.76398 -0.41187,0 -0.8736,-0.0124 -1.37803,-0.0395 -0.85772,-0.0379 -1.49069,-0.0651 -1.95733,-0.0651 -1.21399,0 -1.30252,0.18427 -1.29456,0.84372 0.006,0.51855 0.26865,0.90518 0.65604,0.90518 0.002,0 0.005,0 0.007,-3e-5 0.02,-2.4e-4 0.0394,-3.7e-4 0.0584,-4e-4 h 0.004 c 0.7633,3.8e-4 0.74395,0.20728 -0.0837,1.82694 -0.45567,0.90764 -0.65183,1.18906 -1.45993,1.18906 -0.32154,0 -0.73994,-0.0445 -1.31009,-0.11192 -0.64605,-0.0728 -1.09655,-0.12313 -1.41413,-0.12313 -0.70984,0 -0.7554,0.25125 -0.83569,1.06343 -0.075,1.0011 -0.3761,1.26564 -1.63489,1.45485 -1.08484,0.18689 -1.55942,0.49707 -1.63901,1.10681 -0.0812,0.47937 -0.46405,1.17969 -0.80719,1.5752 -0.68566,0.83459 -5.4494,2.45752 -8.44464,2.88501 -1.64953,0.2373 -2.08172,0.45996 -2.07385,1.11218 0.0115,0.95655 0.7984,1.2948 3.19019,1.30945 4.04456,0.0382 4.6192,0.81396 1.10479,1.46508 -3.02636,0.5131 -5.3569,5.03168 -2.57977,5.03168 0.0104,0 0.0209,-6e-5 0.0315,-1.8e-4 0.65216,-0.008 1.56152,-0.32312 1.99212,-0.67615 0.474,-0.35376 0.99212,-0.66431 1.20947,-0.66699 0.001,0 0.003,-4e-5 0.004,-4e-5 h 0.004 c 0.59948,0.002 0.39504,1.1716 -0.29087,1.74284 -0.34418,0.30859 -0.64166,0.87744 -0.6369,1.2688 0.006,0.47826 -0.85596,1.14086 -2.45575,1.89941 -2.33521,1.0719 -3.28698,1.47473 -7.78828,3.22498 -2.98632,1.16662 -6.40484,2.55603 -7.70183,3.18042 -0.69197,0.31262 -2.55103,1.20483 -4.10785,1.91943 -1.55628,0.75806 -3.7616,1.78479 -4.97266,2.32129 -2.42224,1.07287 -2.72498,1.20691 -6.70349,3.03783 -6.91815,3.2578 -13.02594,5.20158 -21.35541,6.82414 -7.59158,1.50454 -18.32889,2.26992 -30.03756,2.26992 -8.83173,0 -18.21613,-0.43546 -27.22004,-1.31766 -16.63122,-1.66918 -23.33899,-2.58825 -31.36101,-4.31774 -11.90258,-2.59583 -14.69256,-3.1709 -25.93301,-4.94846 -15.32359,-2.48718 -28.33838,-3.68084 -39.89067,-3.68084 -0.66675,0 -1.32861,0.004 -1.98578,0.0119 -10.30432,0.12451 -26.9705,2.76086 -38.75773,6.12109 -1.55994,0.45375 -4.0738,1.13623 -5.63379,1.58997 -1.56049,0.41028 -3.29333,0.953 -3.81243,1.17663 -0.56263,0.22412 -2.25086,0.8534 -3.67994,1.349 -5.45666,1.84875 -14.01654,5.9961 -22.35112,10.79312 -1.07965,0.62183 -2.89306,1.68738 -4.1026,2.35425 -2.63537,1.42334 -10.70226,6.78248 -17.47167,11.56043 -1.29327,0.92883 -3.14972,2.03833 -4.10156,2.44115 -1.946535,0.84974 -8.70862,2.62733 -10.14343,2.64466 -0.52173,0.006 -1.518067,0.32264 -2.166016,0.67847 -0.691467,0.3562 -2.207459,0.85277 -3.334717,1.12732 -2.731811,0.64172 -7.404297,2.61145 -9.042847,3.76185 -1.55157,1.1494 -6.402645,6.33922 -8.714778,9.32396 -0.941772,1.22888 -2.434143,3.68214 -3.282166,5.47522 -1.188536,2.40602 -2.601256,4.24939 -5.822752,7.54969 -2.318909,2.41955 -4.248167,4.70423 -4.243467,5.09545 0.01471,1.21741 -2.723267,4.94666 -6.931579,9.34583 -3.306884,3.43175 -4.461363,5.05469 -6.074156,8.33545 -1.1036374,2.23108 -2.3791498,4.63806 -2.804992,5.38244 -0.4698485,0.70142 -1.151367,1.88379 -1.5343014,2.58423 -0.3828734,0.7002 -1.15338106,1.70973 -1.7562862,2.19533 -3.0978996,2.7335 -6.1434314,6.20555 -6.1334214,7.0316 0.00366,0.30432 -0.2514035,0.78577 -0.552612,1.0503 -0.731262,0.66113 -4.23883,1.87756 -5.41278,1.89184 -1.173888,0.0142 -1.681945,1.15076 -1.017151,2.1864 0.355164,0.60449 0.185974,0.99793 -0.974303,2.14258 -0.773682,0.74854 -1.809753,1.36975 -2.288025,1.37561 -0.478271,0.006 -0.95343,0.27234 -1.07965,0.62183 -0.09028,0.20517 -0.213353,0.31574 -0.4437,0.31574 -0.309599,0 -0.812978,-0.19972 -1.690942,-0.6379 -1.049195,-0.4657 -2.581971,-1.36022 -3.327942,-1.9166 -0.792481,-0.5264 -1.523018,-0.7893 -2.143423,-0.7893 -0.134603,0 -0.264025,0.0124 -0.387768,0.0371 -0.129133,0.0262 -0.249668,0.041 -0.366102,0.041 -0.70493,0 -1.259558,-0.54078 -2.662218,-2.35248 -1.103272,-1.33472 -1.988038,-2.5851 -1.990174,-2.75904 -0.0015,-0.13049 -0.533264,-0.95019 -1.195373,-1.76831 -0.831082,-0.983 -1.897732,-1.52377 -2.656728,-1.52377 -0.570544,0 -0.967246,0.30557 -0.95936,0.95859 0.0058,0.47663 0.226382,0.86426 0.44301,0.86426 h 0.0022 c 0.0011,0 0.0023,-3e-5 0.0034,-3e-5 0.258999,0 0.435619,0.34426 0.440361,0.7339 0.0047,0.39125 0.360963,1.08278 0.801453,1.5558 0.5296,0.64587 0.61975,0.90576 0.23004,1.0409 -0.605086,0.22436 -0.75427,2.3069 -0.19234,2.3069 9.23e-4,0 0.0018,-2e-5 0.0028,-2e-5 h 8.16e-4 c 0.21965,0 1.448212,1.02774 2.765602,2.22778 1.319519,1.24512 3.166138,2.9187 4.131592,3.64636 l 1.755859,1.37036 -2.184875,-0.88684 c -2.753357,-1.14087 -6.344788,-3.27174 -6.351074,-3.79344 -0.0025,-0.21117 -0.619812,-0.37385 -1.41222,-0.37385 -0.02343,0 -0.04702,1.5e-4 -0.07075,4.2e-4 -0.01377,1.6e-4 -0.02756,2.5e-4 -0.04135,2.5e-4 -1.46634,0 -3.032166,-0.93927 -4.99539,-2.9834 -1.66608,-1.66907 -3.629973,-2.98944 -4.504748,-2.98944 -0.0035,0 -0.0069,2e-5 -0.01033,6e-5 -1.82605,0.0221 -0.435669,3.52759 2.779724,6.92396 0.79254,0.81664 1.588257,1.89415 1.811462,2.36974 0.223145,0.47571 0.711914,1.33936 1.110596,1.94348 l 0.708742,1.07848 -0.838686,-1.03344 c -0.509567,-0.56842 -0.985958,-0.84069 -1.478364,-0.84069 -0.10388,0 -0.208472,0.0121 -0.31424,0.0361 -0.08778,0.0245 -0.17888,0.0372 -0.2748,0.0372 -0.61442,0 -1.426717,-0.52073 -2.833658,-1.78259 -1.231018,-1.11572 -2.243652,-2.1471 -2.245727,-2.32104 -0.0078,-0.64973 -1.794182,-2.01203 -2.624305,-2.01203 -0.003,0 -0.006,3e-5 -0.0091,6e-5 -0.739137,0.009 -0.865907,0.31482 -0.845459,2.0105 0.01734,1.43603 -0.02897,1.84657 -0.466584,1.84657 -0.132129,0 -0.29993,-0.0374 -0.51242,-0.0953 -0.509186,-0.12091 -1.388771,-0.23709 -1.956584,-0.23709 -0.01576,0 -0.03127,9e-5 -0.04653,2.7e-4 -0.0019,3e-5 -0.0039,3e-5 -0.0058,3e-5 -1.753486,0 -10.850627,-9.48236 -12.061073,-12.59524 -0.134014,-0.38642 -0.69511,-0.72504 -1.17087,-0.72504 -0.004,0 -0.008,0 -0.01193,6e-5 -0.739136,0.009 -0.866396,0.27136 -0.846986,1.88013 0.01263,1.04346 0.242616,2.08435 0.5506,2.38489 0.26404,0.25781 0.39868,0.60412 0.269775,0.73608 -0.0096,0.01 -0.02272,0.0147 -0.03903,0.0147 -0.20217,0 -0.9011,-0.73686 -1.67758,-1.7334 -1.062964,-1.40656 -1.56844,-1.82527 -2.29518,-1.82527 -0.11924,0 -0.24443,0.0113 -0.37901,0.0313 -0.12546,0.0195 -0.24608,0.0298 -0.364154,0.0298 -0.739776,0 -1.379436,-0.40583 -2.480332,-1.51746 -0.877449,-0.89935 -1.968624,-1.62332 -2.40654,-1.62332 -0.0016,0 -0.0032,0 -0.0047,3e-5 -1.30432,0.0158 -0.97058,2.4469 0.618285,4.38452 0.923575,1.1353 1.276261,1.66065 1.176979,1.66065 -0.137954,0 -1.148634,-1.01445 -2.712928,-2.81628 -1.499206,-1.7212 -2.474121,-3.23145 -2.482056,-3.88367 -0.0088,-0.73038 -0.26721,-1.03308 -0.86066,-1.03308 -0.0071,0 -0.01427,3e-5 -0.02148,1.2e-4 -0.47827,0.006 -0.86749,0.18446 -0.86432,0.44531 10e-4,0.0859 -0.02939,0.12769 -0.08897,0.12769 -0.392736,0 -2.052176,-1.81531 -4.315566,-4.77088 -2.16275,-2.81226 -2.45168,-3.08279 -3.89428,-3.08279 -0.06023,0 -0.12248,4.9e-4 -0.18696,0.001 l -1.739134,0.021 0.280794,1.64892 c 0.14303,1.04199 0.678465,2.16614 1.47055,2.93933 l 1.27606,1.24561 -1.30176,0.23315 c -0.19091,0.0329 -0.36448,0.0522 -0.5312,0.0522 -0.78064,0 -1.41119,-0.42177 -2.96904,-1.83622 -1.43741,-1.35386 -2.45208,-2.02674 -3.05232,-2.02674 -0.44671,0 -0.663876,0.37268 -0.65492,1.11476 0.01364,1.13036 1.29446,2.76744 3.71148,4.869 0.70303,0.60023 1.71512,1.58826 2.200196,2.1476 0.528564,0.55895 1.938754,2.1074 3.2164,3.4834 2.115354,2.32274 3.93103,5.04027 3.587404,5.39232 -0.003,0.003 -0.0075,0.005 -0.0136,0.005 -0.169899,0 -1.537585,-1.1691 -3.19233,-2.61844 -2.432335,-2.16183 -3.316909,-2.72925 -4.428185,-2.72925 -0.01338,0 -0.02679,9e-5 -0.04023,2.5e-4 -1.78259,0.0215 -1.86014,0.80505 -0.22571,2.91613 l 1.23633,1.55054 -1.09381,-0.55212 c -0.56888,-0.29748 -2.457855,-1.88368 -4.12997,-3.51575 -2.556744,-2.41116 -3.31763,-2.90231 -4.503692,-2.90231 -0.0178,0 -0.0357,1.2e-4 -0.0537,3.3e-4 -1.47827,0.0178 -1.52179,0.0183 -1.24142,1.6239 0.18438,0.86745 0.85177,2.12049 1.46887,2.80885 l 1.232112,1.2025 -1.173952,0.0142 c -0.73913,0.009 -1.17126,0.23169 -1.16601,0.6665 0.005,0.45496 -0.19773,0.66103 -0.45926,0.66103 -0.36327,0 -0.83906,-0.3976 -1.02426,-1.07802 -0.45335,-1.64191 -3.73099,-4.50338 -5.17254,-4.50338 -0.004,0 -0.009,2e-5 -0.013,8e-5 -1.04352,0.0126 -1.21533,0.18872 -1.20221,1.27564 0.008,0.69568 0.32221,1.47461 0.7172,1.77418 0.35201,0.34362 0.88162,0.9895 1.14828,1.4646 0.24511,0.45452 0.36743,0.68135 0.29591,0.68135 -0.0712,0 -0.33487,-0.22512 -0.86113,-0.67453 -0.57153,-0.51489 -1.93087,-1.4552 -3.02572,-2.09412 -1.09482,-0.63915 -3.29029,-2.3955 -4.87439,-3.94177 -2.15048,-2.061 -2.94334,-2.62707 -3.82456,-2.62707 -0.1103,0 -0.22199,0.009 -0.33789,0.0248 -1.51965,0.19226 -1.89413,1.58826 -0.83124,3.18446 0.61973,0.9055 0.62076,0.99254 -0.15921,1.21947 -0.47668,0.13611 -0.86325,0.53223 -0.85855,0.92346 0.011,0.91309 2.00483,3.97632 2.74765,4.27173 0.30591,0.12684 0.13358,0.25928 -0.38815,0.26564 -0.52124,0.0499 -1.16919,0.4055 -1.3819,0.79955 -0.16755,0.28695 -0.318,0.44302 -0.40266,0.44302 -0.0445,0 -0.0708,-0.0431 -0.0719,-0.13297 -0.007,-0.56405 -4.15255,-3.15713 -5.03357,-3.15713 -0.002,0 -0.004,0 -0.005,3e-5 -0.91306,0.0111 -1.2797,2.0592 -0.57355,2.92053 0.32501,0.36997 0.43417,0.52927 0.24749,0.52927 -0.11723,0 -0.35114,-0.0628 -0.72152,-0.17575 -0.96021,-0.29273 -1.48718,-0.72132 -1.84497,-1.54309 -0.22266,-0.43226 -4.866,-3.2461 -5.91315,-3.53796 -0.3555,-0.10703 -0.69383,-0.15772 -1.00357,-0.15772 -1.02109,0 -1.73123,0.55102 -1.72034,1.45166 0.008,0.65222 -0.2907,1.13416 -0.85382,1.31494 -0.95021,0.31502 -1.23043,2.39496 -0.28338,2.39496 0.003,0 0.005,-4e-5 0.008,-6e-5 0.001,-3e-5 0.003,-3e-5 0.004,-3e-5 0.78793,0 3.41798,2.56878 3.11995,3.04971 -0.0409,0.0845 -0.14096,0.12466 -0.28404,0.12466 -0.30162,0 -0.79467,-0.17846 -1.32936,-0.49649 -3.44823,-2.0285 -6.37746,-3.33429 -7.34583,-3.33429 -0.0894,0 -0.16203,0.0111 -0.21687,0.0338 -0.51911,0.22374 -0.64481,0.6167 -0.41538,1.61401 0.32328,1.56153 1.64179,2.71973 3.86757,3.38849 0.91623,0.24988 1.66004,0.6322 1.66214,0.80614 0.005,0.43513 -0.89613,0.67024 -2.00371,0.67024 -0.7738,0 -1.64825,-0.11474 -2.38446,-0.3562 -1.19447,-0.40904 -2.1154,-0.61569 -2.75842,-0.61569 -0.74384,0 -1.11577,0.27655 -1.10901,0.83627 0.0162,1.34051 0.49979,2.20221 1.27504,2.20221 0.004,0 0.008,0 0.0126,-6e-5 0.002,-3e-5 0.005,-3e-5 0.007,-3e-5 0.39586,0 1.35006,0.37793 2.13358,0.8439 0.78409,0.46622 1.69621,0.84488 2.04826,0.84488 0.002,0 0.004,0 0.006,-2e-5 0.003,-4e-5 0.006,-7e-5 0.009,-7e-5 0.34427,0 0.64672,0.25583 0.6509,0.60083 0.004,0.34778 0.26977,0.73596 0.57516,0.81921 0.30594,0.12683 0.26404,0.25781 -0.21423,0.26355 -0.0455,0.006 -0.0917,0.008 -0.13796,0.008 -0.35052,0 -0.70523,-0.15378 -0.82278,-0.34454 -0.16431,-0.22876 -2.39731,-0.3591 -4.49509,-0.3591 -1.85495,0 -3.60417,0.10192 -3.72388,0.32785 -0.1398,0.19723 -1.02188,0.28717 -2.11453,0.28717 -1.58064,0 -3.60196,-0.18823 -4.45434,-0.51215 -0.5523,-0.23379 -1.72737,-0.37865 -2.83907,-0.37865 -0.2959,0 -0.58732,0.0103 -0.86131,0.0318 -2.12885,0.15625 -2.43164,0.29028 -2.5521,1.11805 -0.12097,0.78417 0.14252,0.9984 1.53645,1.19897 0.91515,0.16283 2.4851,0.53528 3.53277,0.87048 0.99689,0.33338 2.07838,0.57999 2.39186,0.57999 0.002,0 0.005,0 0.007,-4e-5 h 0.002 c 0.31116,0 2.14226,0.75916 4.01871,1.6908 l 3.49923,1.69715 -3.61181,-0.21729 c -1.07227,-0.0684 -1.82274,-0.11111 -2.34752,-0.11111 -1.15779,0 -1.21704,0.20785 -1.20982,0.80618 0.0189,1.56519 2.5213,3.53527 5.18032,4.0686 0.74118,0.16492 1.39707,0.46143 1.39969,0.67871 0.003,0.21741 0.44107,0.51661 1.00839,0.6836 0.52384,0.16772 1.04871,0.42224 1.18125,0.5946 0.13257,0.17224 1.4013,0.80933 2.84396,1.44422 1.44263,0.63476 2.92931,1.31256 3.27977,1.52569 0.35043,0.21325 1.4877,0.76477 2.4505,1.2749 1.79312,0.84815 4.51502,2.98938 3.81937,2.99781 -0.007,9e-5 -0.0136,1.2e-4 -0.0205,1.2e-4 -1.10223,0 -3.95816,-1.04501 -5.3955,-1.97838 -0.97718,-0.62462 -1.54865,-0.87398 -2.26035,-0.87398 -0.30963,0 -0.64582,0.0472 -1.05348,0.13123 -1.56101,0.3667 -4.0817,0.48425 -15.03663,0.74683 l -4.69461,0.14379 0.14463,1.17225 c 0.14355,1.08544 0.40652,1.2561 4.28711,2.12255 2.61657,0.62061 5.88269,1.016 8.92718,1.06629 2.65326,0.0549 5.2656,0.32764 5.87692,0.53772 0.83231,0.32892 0.84655,0.40682 -0.2657,0.40682 -0.1723,0 -0.37163,-0.002 -0.59913,-0.005 -0.27352,-0.01 -0.50899,-0.016 -0.71207,-0.016 -1.15352,0 -1.26201,0.20261 -1.36176,1.12818 -0.11834,1.00158 0.10269,1.30322 1.36988,1.80968 1.64599,0.64246 2.22975,1.2418 1.45344,1.2418 -0.19217,0 -0.46769,-0.0367 -0.8311,-0.11862 -2.66055,-0.66358 -3.35937,-0.91614 -3.36407,-1.3075 -0.003,-0.20852 -0.92459,-0.36584 -2.03581,-0.36584 -0.0473,0 -0.0949,2.6e-4 -0.14284,8.6e-4 -0.0282,3.3e-4 -0.0567,5e-4 -0.0853,5e-4 -1.25135,0 -2.89989,-0.32402 -3.96868,-0.8213 -1.0058,-0.4662 -2.70669,-0.88038 -3.79416,-0.91078 -0.35913,-0.0213 -0.65269,-0.035 -0.89348,-0.035 -0.98454,0 -1.0866,0.22904 -1.18086,1.10373 -0.11886,0.95801 0.10114,1.17273 1.23471,1.42005 0.74124,0.1649 1.48511,0.54736 1.61972,0.89355 0.13465,0.34619 1.01261,1.03137 1.93088,1.4552 0.91882,0.46728 1.8848,1.23828 2.15091,1.66992 0.22318,0.47571 0.88059,0.90247 1.40341,0.98328 0.60971,0.0796 1.2703,0.76733 1.84864,1.84741 0.66635,1.16614 1.54641,2.02514 2.90264,2.70447 0.94121,0.4751 1.46192,0.79427 1.31086,0.79427 -0.0245,0 -0.0666,-0.008 -0.12751,-0.0258 -0.48034,-0.16796 -1.30908,-0.37549 -1.87588,-0.49916 -0.61075,-0.1666 -1.26819,-0.59337 -1.49082,-1.02562 -0.6725,-1.19821 -2.47633,-1.92184 -4.63343,-1.92184 -0.40883,0 -0.83034,0.026 -1.25924,0.0797 -2.17077,0.28711 -2.43008,0.42078 -2.28967,1.24524 0.0949,0.65112 0.62131,1.03614 1.88586,1.32531 0.95917,0.20569 2.09748,0.84436 2.53852,1.36083 0.44107,0.5165 1.57993,1.1985 2.53961,1.44777 0.91669,0.29333 1.70404,0.67517 1.70615,0.84913 0.002,0.17382 0.57046,0.42784 1.3117,0.59288 1.57164,0.31712 1.89525,0.77732 0.82604,0.77732 -0.17632,0 -0.39052,-0.0125 -0.64324,-0.0403 -0.30404,-0.0382 -0.5474,-0.0595 -0.74154,-0.0595 -0.61228,0 -0.73506,0.21183 -0.72827,0.77302 0.006,0.52172 0.27398,1.08385 0.58041,1.25402 0.26297,0.17078 0.74808,0.73023 1.01471,1.20545 0.26663,0.4751 1.18863,1.203 2.06341,1.62732 0.91779,0.38036 1.62131,1.02406 1.62656,1.45886 0.005,0.39136 0.44894,1.1687 0.93405,1.72815 1.0566,1.07428 0.84183,1.29431 -1.54684,1.54065 -0.91202,0.098 -1.34311,0.4076 -1.4227,1.01733 -0.0781,0.74011 0.27292,0.99683 2.0173,1.41065 0.65706,0.16235 1.32096,0.23779 1.92762,0.23779 1.40679,0 2.50578,-0.4057 2.49772,-1.07404 -0.003,-0.26086 1.08173,-0.44787 2.47302,-0.46473 0.30016,-0.004 0.56278,-0.006 0.79071,-0.006 1.48896,0 1.49819,0.10275 0.82587,0.63885 -0.4306,0.35303 -1.4704,0.66993 -2.20953,0.67884 -1.21738,0.0148 -1.43268,0.19128 -1.42218,1.06079 0.0115,0.95655 0.23001,1.04101 3.36358,1.26405 1.82819,0.15172 3.83289,0.51903 4.4458,0.85936 1.88111,0.93396 5.58463,1.54164 10.8057,1.78296 2.65375,0.0983 4.96124,0.33142 5.09323,0.46033 0.32046,0.27792 -3.92393,0.78232 -5.84916,0.78232 -0.45089,0 -0.77457,-0.0276 -0.88262,-0.0924 -0.57066,-0.38218 -6.29417,-0.81733 -9.10898,-0.81733 -0.64495,0 -1.13719,0.0228 -1.37976,0.0744 -0.9104,0.22839 -1.21106,0.53638 -1.20108,1.36243 0.0102,0.8422 0.21631,1.0295 1.13765,1.0295 0.03,0 0.0608,-2e-4 0.0923,-6e-4 0.009,-10e-5 0.0176,-1.6e-4 0.0266,-1.6e-4 0.70731,0 2.20981,0.32581 3.37369,0.69816 l 2.13989,0.757 -1.95389,0.24095 c -1.73706,0.19495 -1.95233,0.37158 -2.07068,1.37305 -0.11731,1.0885 0.0582,1.2169 2.63071,1.79455 1.52649,0.37305 4.05347,0.77725 5.70721,0.88785 1.61081,0.1545 2.83185,0.44406 2.70405,0.66306 -0.17646,0.27179 -1.23682,0.41494 -2.47939,0.41494 -1.16222,0 -2.48383,-0.1253 -3.39067,-0.3875 -0.54298,-0.14103 -1.76724,-0.2182 -3.46788,-0.2182 -1.30518,0 -2.89095,0.0455 -4.66466,0.1424 -5.90991,0.3323 -6.64743,0.4716 -6.63956,1.1238 0.0121,1 0.88532,1.2938 4.4542,1.5552 2.26349,0.19003 2.9183,0.3995 3.09955,1.0062 0.2279,0.86694 1.31692,1.0277 12.49926,1.5885 13.35776,0.6649 14.14142,0.7423 14.80039,1.2997 0.60354,0.50865 6.698792,0.8492 11.528462,0.8492 2.904674,0 5.35157,-0.12315 5.87073,-0.4071 0.51807,-0.3105 4.03241,-0.9619 7.7663,-1.44163 6.64221,-0.90647 10.67364,-1.95532 14.13293,-3.5625 0.951296,-0.44641 2.50812,-1.16087 3.415957,-1.60667 0.908263,-0.4025 3.03186,-0.9933 4.637451,-1.2736 1.119617,-0.1818 1.846355,-0.2785 2.370452,-0.2785 0.694817,0 1.03348,0.16994 1.45926,0.5366 0.48352,0.42905 1.880066,0.847 3.316467,0.96006 0.625965,0.0589 1.109163,0.0912 1.488117,0.0912 0.859742,0 1.18298,-0.16575 1.419659,-0.56105 0.21471,-0.41063 0.523052,-0.5732 1.234587,-0.5732 0.27432,0 0.608564,0.0242 1.020475,0.0676 0.377075,0.0512 0.718071,0.076 1.01297,0.076 0.624785,0 1.042652,-0.11145 1.158295,-0.31971 0.170776,-0.26294 0.646423,-0.48608 1.03772,-0.49084 0.434753,-0.005 1.472534,-0.4961 2.334655,-1.11536 1.207459,-0.8407 5.324768,-1.97754 7.367675,-2.04564 0.17395,-0.002 0.562135,-0.2677 0.862794,-0.5758 0.81665,-0.7926 7.463928,-4.87343 10.186831,-6.25435 1.339825,-0.61899 2.307783,-0.91541 3.1156,-0.91541 0.182907,0 0.357603,0.0152 0.526548,0.0453 0.217091,0.0425 0.411488,0.0665 0.594779,0.0665 0.699968,0 1.237981,-0.3503 2.259592,-1.362 2.020384,-1.93775 4.649474,-3.88294 5.214659,-3.88977 0.217407,-0.003 0.605529,-0.26819 0.775817,-0.57459 0.51178,-0.83239 3.8291013,-3.39454 4.437805,-3.40184 0.7826532,-0.009 4.7405992,-3.53602 4.73217633,-4.2317 -0.004211,-0.34778 0.38403314,-0.6134 0.81878646,-0.61865 0.47827135,-0.006 0.99737531,-0.2295 1.12518281,-0.44849 0.1272583,-0.26246 0.4729613,-0.44056 0.7772826,-0.44421 h 0.00234 c 0.2559445,0 -0.1720823,0.52565 -0.9016902,1.14148 -1.37762424,1.14721 -1.79510464,2.58727 -0.8783568,2.88061 0.698242,0.20899 0.0183716,1.52173 -0.93499735,1.79406 -0.56365955,0.13734 -0.81878635,0.61878 -0.80987525,1.35792 0.011677,0.96441 0.1249201,1.11035 1.51505483,1.11035 0.11393506,0 0.23644751,-9.7e-4 0.36818444,-0.003 0.17560893,-0.002 0.33472717,-0.004 0.47877183,-0.004 1.3894834,0 1.3763838,0.14316 1.2326536,1.28748 -0.1536355,1.13116 -0.037358,1.29368 0.8616011,1.29368 0.035654,0 0.07254,-2.5e-4 0.1106887,-7e-4 0.6086423,-0.007 1.1278075,-0.2311 1.1251829,-0.4485 -0.00317,-0.26086 0.3425293,-0.4391 0.7773432,-0.44433 1.0434571,-0.0126 3.0742794,-1.08069 4.3215934,-2.22644 l 0.9454344,-0.92443 0.0163,1.34777 c 0.01054,0.87411 0.324455,1.3088 0.892005,1.3088 0.674585,0 1.707496,-0.6141 3.015221,-1.83432 2.779959,-2.56741 9.113853,-6.33111 10.463602,-6.33111 0.132767,0 0.217308,0.0364 0.245503,0.11396 0.113489,0.30605 0.801824,0.461 1.454526,0.461 0.639782,0 1.245328,-0.14888 1.241702,-0.45015 -0.0032,-0.26085 0.16864,-0.43689 0.429502,-0.44005 0.217407,-0.003 2.459351,-1.5951 4.957947,-3.53858 2.498657,-1.94349 4.827577,-3.53712 5.175415,-3.54126 0.391296,-0.005 2.071224,-1.32959 3.746882,-3.00208 15.173032,-14.66368 14.486265,-13.91614 16.946042,-19.07702 3.139222,-6.51709 4.726258,-11.92836 4.764405,-15.97276 0.02978,-1.1311 0.143433,-2.52392 0.310486,-3.0913 l 0.248901,-1.00318 0.533756,0.99378 c 1.113156,2.16077 2.36627,5.10263 2.37152,5.53744 0.0031,0.25926 0.17751,0.47356 0.39307,0.47356 0.0013,0 0.0027,0 0.004,-4e-5 h 0.0019 c 0.21756,0 0.56896,0.42954 0.705826,0.99157 0.360414,1.03931 7.975769,15.90589 10.864319,21.04577 0.978019,1.771 1.956105,3.54212 2.090755,3.88844 0.75854,1.59973 7.675045,12.60473 9.66461,15.32019 1.193846,1.63807 3.400816,4.35095 4.899595,6.02881 3.702561,4.1297 5.292956,6.19781 6.229116,8.09966 0.75805,1.5564 0.76013,1.73023 0.0168,5.00062 -0.948,4.31652 -4.298281,11.35788 -6.996441,14.78228 -3.5965,4.65296 -17.671016,16.65064 -23.19897,19.8047 -0.43164,0.2661 -1.07855,0.70885 -1.37976,0.9734 -0.34473,0.265 -2.46094,1.4647 -4.70709,2.70945 -7.604434,4.04885 -11.3042,7.35485 -11.875,10.49265 -0.690856,4.00894 1.77655,10.2843 6.36865,16.0558 1.54535,1.93825 2.82721,3.6621 2.829284,3.8361 0.0021,0.1738 0.268736,0.6489 0.620788,0.99265 0.309083,0.38755 1.372558,2.0271 2.262574,3.71225 0.932984,1.64114 2.176634,3.80045 2.7099,4.75064 0.576724,0.94971 1.332154,2.28856 1.688904,3.02356 0.35626,0.6914 1.24475,2.2461 1.95502,3.4551 0.7099,1.1656 1.86395,3.1084 2.53082,4.31785 0.70978,1.16555 1.99695,3.32435 2.92731,4.74795 2.17187,3.40915 9.5808,15.58225 11.80144,19.42563 5.906984,10.23447 12.170881,24.81297 12.215501,28.50867 0.006,0.5217 0.63702,2.34045 1.35315,4.0277 l 1.38617,3.1577 -1.10474,2.14407 c -0.59399,1.22473 -1.05493,2.66528 -1.04864,3.18703 0.064,1.6952 1.9284,4.847 3.41766,5.74217 0.78839,0.46887 1.53644,1.19909 1.71619,1.67517 0.3609,1.08276 -1.09424,3.01366 -2.65472,3.42383 -8.323171,2.14447 -8.709771,2.54033 -10.271601,10.03863 -1.06848,5.14417 -0.34588,14.57153 1.491886,19.11524 2.330139,5.71176 4.159955,9.60321 5.444505,11.54461 1.3268,2.0589 1.56534,2.26569 3.08619,2.26569 0.10465,0 0.21538,-9.8e-4 0.33294,-0.002 1.91302,-0.0231 1.95593,-0.067 4.43622,-3.53236 4.70282,-6.6664 8.38262,-11.6246 9.4135,-12.68065 1.03034,-1.09949 2.685,-4.51135 2.67188,-5.59825 -0.006,-0.52175 0.71026,-2.4003 2.10675,-5.59145 0.5086,-1.09339 1.64258,-4.41185 2.1004,-6.11328 1.04077,-3.83924 1.71698,-5.45617 5.19244,-12.93407 3.26386,-6.99696 3.84729,-9.0912 3.5423,-12.7404 -0.29498,-2.82285 -0.87909,-4.3812 -2.92004,-7.7484 -0.66577,-1.12267 -2.35108,-3.84166 -3.68219,-6.0433 -1.33112,-2.2017 -2.61823,-4.3604 -2.88385,-4.74855 -3.37097,-5.48195 -4.52613,-7.51175 -6.88819,-12.26648 -3.34276,-6.74317 -4.18883,-8.38537 -5.78813,-11.19263 -3.06562,-5.39844 -4.35431,-7.68764 -6.89136,-12.52724 -1.51294,-2.8518 -2.9834,-5.7909 -3.25269,-6.4834 -0.26984,-0.73607 -0.89844,-2.3808 -1.43597,-3.6789 -1.390261,-3.50535 -2.141056,-8.06223 -1.779731,-10.54514 0.32373,-2.00426 3.008791,-6.51563 7.543951,-12.65806 2.43884,-3.2909 7.31048,-6.78506 15.65081,-11.1038 7.56195,-3.9613 11.44507,-6.4868 17.08557,-11.12095 1.82303,-1.50295 3.2821,-2.633 3.437,-2.633 0.0134,0 0.017,0.008 0.0103,0.0258 -0.12836,0.17553 -0.84912,1.70618 -1.61127,3.41138 -2.11981,4.50451 -6.38001,11.81785 -9.24524,15.80945 -4.31885,6.053 -5.25116,8.06457 -5.20917,11.54284 0.0891,3.7821 1.547,5.67786 9.05213,11.41406 8.86554,6.76355 30.13054,24.85724 39.10246,33.22846 2.1991,2.06064 5.76129,5.36594 7.91583,7.34021 7.56232,6.86623 12.8463,12.32493 16.51116,16.93359 1.32428,1.63648 3.53027,4.26234 4.89746,5.85474 2.68847,2.968 3.66906,4.9564 4.18622,8.1681 0.33221,2.30065 2.45849,5.53637 4.65185,7.11864 0.93375,0.67761 1.67162,1.0166 2.23999,1.0166 0.57982,0 0.98323,-0.35278 1.23822,-1.05859 0.23972,-0.68485 0.47365,-1.03571 0.85135,-1.03571 0.41705,0 1.00942,0.42776 1.97839,1.30591 1.18757,1.11635 1.63184,1.89365 1.82465,3.45679 0.28498,1.99682 0.2431,2.12781 -1.85846,4.5448 -1.716,1.93406 -2.26919,2.94096 -2.46817,4.46526 -0.48126,3.35413 0.16309,6.30335 1.98666,9.67304 1.37873,2.54896 2.4375,3.79726 5.64447,6.49806 7.42395,6.21557 15.83416,11.2886 19.57964,11.7652 0.28943,0.0338 0.54268,0.0521 0.77002,0.0521 0.83301,0 1.3181,-0.24505 1.95966,-0.86775 0.98895,-0.92503 1.07067,-1.3608 1.03131,-4.62175 -0.0236,-1.95645 -0.28461,-5.56265 -0.57538,-8.03775 -0.29083,-2.47507 -0.55707,-6.51584 -0.6294,-8.9066 -0.12897,-3.4773 -0.31647,-4.6056 -0.88958,-5.25084 -0.70465,-0.73086 -0.97498,-1.51026 -2.3465,-7.05982 -1.09381,-4.16124 -2.00122,-7.28124 -2.44599,-8.10204 -1.33372,-2.4191 -3.33439,-9.65674 -4.00083,-14.432 -0.3841,-2.99586 -1.03009,-6.07533 -1.43079,-6.8533 -0.75757,-1.5128 -3.22168,-3.9182 -10.25226,-9.9647 -2.54852,-2.1869 -6.19708,-5.44764 -8.17566,-7.2501 -1.93509,-1.80295 -5.27615,-4.8066 -7.42972,-6.6938 -9.80059,-8.5786 -24.09953,-22.3645 -26.48624,-25.55354 -2.25416,-3.01673 -4.92213,-7.8982 -5.51466,-10.15222 -0.59405,-2.38454 0.70905,-9.70557 3.09956,-16.99634 3.104,-9.4303 6.08239,-14.8583 12.04343,-21.7573 4.28901,-4.92215 5.61115,-7.06875 9.38514,-15.0286 2.75628,-5.81664 3.43298,-7.39025 4.98974,-11.7141 2.44189,-6.63916 6.05518,-13.50977 8.75852,-16.49945 1.45935,-1.58301 2.39648,-3.20337 3.10992,-5.34265 0.79871,-2.27088 2.08515,-7.37415 2.44806,-9.7267 0.43254,-2.57268 0.59633,-3.18288 1.26636,-3.18288 0.14706,0 0.31849,0.0294 0.52252,0.0739 0.61078,0.1665 2.48981,0.92652 4.23834,1.68823 1.7486,0.7616 5.72455,2.32251 8.82459,3.37232 3.1441,1.09253 7.24888,2.52148 9.17033,3.19397 3.8429,1.34508 7.33484,2.43358 11.349,3.55908 3.49078,1.0016 6.1084,1.70923 8.72655,2.46033 1.22163,0.33313 2.96602,0.74695 3.92463,0.9093 0.95862,0.16223 1.96227,0.45459 2.22527,0.62537 0.2635,0.21423 1.35463,0.54882 2.40126,0.7971 3.26929,0.6564 7.01941,1.5243 10.42224,2.43983 24.07816,6.18847 26.64816,6.54883 47.04624,6.8678 20.26756,0.3205 33.10156,0.81781 34.15186,1.37042 0.48144,0.25513 1.40648,1.24415 2.07073,2.23621 0.66425,0.99219 2.29817,3.05969 3.66492,4.60854 2.64545,3.01194 4.3349,6.0791 6.13647,11.2319 1.66438,4.5894 2.46124,9.36305 3.36408,19.3101 0.80114,8.7307 1.2329,12.0738 2.4458,18.88614 0.88376,4.77256 1.92636,11.8916 2.78982,18.57776 0.38355,2.9523 0.80793,5.68665 0.8996,6.0769 0.63281,1.9927 1.14703,12.162 0.98163,20.078 -0.25215,11.5265 -0.37891,11.8324 -7.55735,18.7462 -4.9433,4.756 -6.5802,6.03677 -15.50353,12.4933 -2.45722,1.7692 -5.25812,3.89015 -6.20569,4.6409 -1.29126,1.10264 -2.15662,1.46104 -3.46094,1.4768 -2,0.0242 -5.06812,1.6266 -7.34564,3.8718 -2.8789,2.8612 -5.77625,4.2007 -9.94593,4.599 -3.99572,0.3962 -4.89929,1.1898 -5.33453,4.7608 -0.27544,2.3949 -1.76734,4.8916 -2.98468,4.90626 h -0.002 c -0.3099,0 -1.92413,-0.76171 -3.49756,-1.7406 -3.4754,-2.07141 -6.68426,-3.33313 -8.4333,-3.33313 -0.0144,0 -0.0287,7e-5 -0.0429,2.7e-4 -1.78265,0.0215 -4.58978,1.6208 -6.65051,3.8199 -1.54578,1.6277 -2.35614,2.94204 -5.37116,8.9358 -1.31628,2.6249 -2.07098,8.548 -1.94305,15.5475 0.0987,8.1738 0.74572,11.34046 2.54101,12.3623 0.78086,0.4724 1.36716,0.71503 2.01651,0.71503 0.69843,0 1.46979,-0.2807 2.63461,-0.85809 1.55622,-0.75804 2.41846,-1.37734 4.91498,-3.49464 1.50598,-1.32274 5.4787,-3.6318 6.56306,-3.8624 0.737,-0.1829 2.5919,-1.42287 4.1408,-2.78957 1.85016,-1.63123 4.78412,-3.5365 8.58704,-5.49583 3.19793,-1.6476 5.92132,-2.985 6.09521,-2.9871 0.17395,-0.002 0.90991,-0.2718 1.64485,-0.62876 1.98894,-0.93704 5.7595,-1.98279 8.5379,-2.36424 4.7318,-0.6659 5.8952,-1.5497 18.14104,-13.7427 10.61316,-10.5644 18.01102,-17.3068 24.25711,-22.20904 2.4986,-1.94346 4.0528,-2.87546 7.77095,-4.65976 5.9663,-2.85513 10.29467,-8.1254 14.8281,-18.0077 3.1775,-6.9524 3.29848,-7.7366 3.53572,-27.6989 0.24621,-19.2231 0.62268,-27.6638 1.50726,-33.63175 1.00824,-6.53491 1.75495,-13.10998 2.40009,-20.90149 0.34203,-4.09166 0.68553,-8.05296 0.76367,-8.79306 0.19568,-1.7853 2.71326,-5.77286 5.63306,-8.85196 1.4527,-1.51814 1.98175,-2.04954 2.4706,-2.04954 0.23362,0 0.45808,0.1214 0.76975,0.31444 0.56935,0.34106 2.27768,1.36416 3.85385,2.25816 4.3788,2.51283 5.7848,3.7133 13.8352,11.3999 7.96308,7.644 14.3796,13.263 20.43623,17.8862 2.06237,1.54045 3.81884,2.9543 3.95093,3.0832 0.13244,0.1722 1.0979,0.8999 2.19434,1.6693 1.09643,0.7695 3.68847,2.9559 5.8419,4.84325 2.11012,1.88795 4.30763,3.81812 4.87818,4.24609 1.09682,0.81286 2.49972,5.36196 2.53232,8.0575 0.008,0.65222 0.5575,2.95019 1.1919,5.07336 1.04138,3.4226 1.1367,4.1173 0.7273,6.2096 -0.48988,2.6583 -2.69346,7.4248 -7.1218,15.2185 -0.51014,0.9629 -1.1056,2.05713 -1.2754,2.4071 -0.1698,0.34986 -0.8087,1.4447 -1.40588,2.4086 -0.64062,0.96446 -1.87782,2.93614 -2.81702,4.38255 -1.96228,3.15455 -1.57775,2.58459 -5.34558,7.45691 -7.2799,9.30664 -11.40295,13.57444 -14.04455,14.47594 -1.16931,0.4055 -2.55067,1.2484 -3.10901,1.82044 -0.901,1.01096 -0.94031,1.35936 -0.72216,5.0094 0.26256,3.73639 0.22216,3.99786 -0.93018,5.79462 -0.64014,1.00784 -1.83954,2.50097 -2.69916,3.33764 -0.96894,0.9606 -1.39336,1.29334 -2.13989,1.29334 -0.27977,0 -0.60471,-0.0467 -1.02051,-0.12464 -0.91456,-0.1194 -3.91761,-0.344 -6.70178,-0.4409 -0.73176,-0.0185 -1.38801,-0.0296 -1.98028,-0.0296 -4.12562,0 -5.14628,0.54106 -6.94267,2.92033 -3.89403,5.22167 -4.49719,16.49137 -1.49633,27.32637 2.25674,8.2562 4.23293,10.994 7.78814,10.994 0.0282,0 0.0565,-1e-4 0.0849,-5e-4 1.7826,-0.0215 2.2582,-0.24473 3.84852,-1.78587 0.98792,-1.01208 2.70081,-3.20703 3.81018,-4.95973 2.3048,-3.5936 3.333,-4.86705 4.79553,-6.1892 0.60242,-0.52917 1.59192,-1.41076 2.28009,-2.0279 0.6449,-0.6167 1.84131,-2.3705 2.60498,-3.94506 1.06128,-2.14367 2.2184,-3.54904 4.71338,-5.79687 5.16332,-4.54137 12.87659,-10.37437 15.29762,-11.53417 4.49657,-2.14173 6.21203,-4.1193 8.19298,-9.31776 2.52906,-6.6402 12.92282,-28.15997 17.01108,-35.2973 0.93774,-1.57691 1.70301,-3.021 1.70142,-3.15149 -0.002,-0.13035 1.27856,-2.14612 2.81542,-4.51295 2.51966,-3.8136 5.8223,-7.5931 6.6918,-7.6036 0.6522,-0.008 2.56724,-3.46634 3.14854,-5.7345 1.04246,-3.70877 1.03821,-22.0592 0.0351,-25.91726 -0.8235,-3.38184 -3.18154,-7.7887 -5.1187,-9.76554 -1.7612,-1.8052 -9.35496,-11.28005 -12.09788,-15.1607 -5.92737,-8.3208 -7.43445,-10.6943 -10.81222,-16.7413 -0.7555,-1.3389 -1.90955,-3.28174 -2.57434,-4.3174 -0.66419,-0.99205 -1.417,-2.11363 -1.68311,-2.5453 -0.22217,-0.38865 -1.15247,-1.8125 -1.99487,-3.15024 -0.8429,-1.38136 -1.86231,-2.97791 -2.26148,-3.62549 -0.35522,-0.60437 -1.24988,-2.68091 -1.92517,-4.58607 -0.63183,-1.90563 -1.39453,-3.85326 -1.61767,-4.32897 -0.22326,-0.47559 -0.80518,-1.85999 -1.34119,-3.02771 -0.49292,-1.21167 -1.24987,-2.68092 -1.60571,-3.32886 -0.57826,-1.0802 -0.58033,-1.25403 0.10694,-1.9581 5.19628,-5.41126 11.95653,-14.53784 14.97533,-20.22716 0.85007,-1.61927 3.10922,-5.38612 5.02951,-8.4098 4.13916,-6.52917 6.26856,-10.2511 8.81372,-15.54343 1.5697,-3.23681 2.02906,-4.80774 2.63244,-8.85913 0.76258,-5.27087 0.71436,-5.66162 -1.51794,-17.67994 -0.32739,-1.9094 -0.89184,-5.4248 -1.18151,-7.81285 -0.48305,-3.99475 -0.48925,-4.51648 0.26915,-6.52598 0.4635,-1.22314 1.43202,-3.84399 2.18995,-5.89685 0.75795,-2.05297 1.72595,-4.71728 2.19007,-5.89685 0.4635,-1.22314 0.9663,-2.79467 1.17528,-3.49292 0.2085,-0.74182 0.7538,-2.40088 1.25977,-3.71142 1.17859,-3.23218 2.22608,-6.50611 3.30883,-10.47633 0.50013,-1.78893 1.2084,-4.36303 1.5839,-5.6721 0.3321,-1.3086 0.87473,-3.18495 1.16746,-4.14515 0.29274,-0.96021 0.96118,-3.22949 1.4613,-5.0184 0.50024,-1.78882 1.04184,-3.7522 1.25184,-4.36353 0.6715,-2.0083 2.7081,-9.81665 3.57384,-13.74072 1.8573,-8.2411 2.75452,-13.16565 3.63076,-19.82935 1.27146,-9.9299 2.327,-12.5516 6.83445,-17.38937 l 3.3916,-3.60668 3.3479,-0.0404 c 2.30435,-0.0278 4.17015,-0.35485 6.03245,-0.98608 1.63784,-0.60953 2.5934,-0.83417 4.35165,-0.83417 0.70475,0 1.53855,0.0361 2.59698,0.098 3.65473,0.17333 4.57037,0.37976 6.14767,1.36083 1.0079,0.64014 2.2347,1.40809 2.71616,1.66309 1.18238,0.68152 10.36784,5.13644 11.02214,5.30246 0.26186,0.0839 1.14406,1.11682 1.98476,2.32419 0.79688,1.16455 2.16199,2.58288 2.99487,3.13818 0.97101,0.64078 1.51517,0.86493 2.76117,0.86493 0.4977,0 1.1074,-0.0358 1.90107,-0.095 0.65613,-0.065 1.27993,-0.0969 1.86033,-0.0969 1.187,0 2.19325,0.13304 2.9264,0.38694 2.1393,0.71337 6.3845,2.9669 8.4458,4.4204 0.8336,0.59875 2.3224,1.45044 3.28407,1.87378 4.15356,1.86316 4.63598,2.2052 5.47778,3.49952 0.48779,0.77685 0.89221,1.85912 0.89905,2.4243 0.0394,3.26087 3.8451,8.73743 7.2129,10.34925 2.41454,1.12833 5.96776,2.03168 8.1507,2.03168 0.0311,0 0.0619,-1.9e-4 0.0924,-5.5e-4 3.13031,-0.0377 7.76265,-1.7461 9.30731,-3.46058 0.77259,-0.83557 1.41334,-1.79992 1.40904,-2.14782 -0.004,-0.34778 1.2865,-1.4939 2.92654,-2.51392 5.00366,-3.36536 8.25136,-8.10083 8.20141,-12.23132 0.0309,-1.04394 0.31675,-2.56934 0.7417,-3.40076 0.80605,-1.66211 2.25598,-4.02771 2.68665,-4.38086 0.17224,-0.13244 0.59704,-0.96382 0.9768,-1.92514 0.9293,-2.27234 0.80286,-5.53222 -0.2705,-7.9978 -0.4485,-1.12524 -1.07764,-2.81348 -1.35,-3.76698 -0.4548,-1.64684 -4.1206,-6.3424 -8.3921,-10.76976 -0.92465,-0.94544 -2.4255,-2.79712 -3.3547,-4.13404 -0.9729,-1.33618 -2.5193,-3.36132 -3.4895,-4.48022 -4.7628,-5.50838 -6.1311,-7.18784 -9.13593,-11.15218 -1.76797,-2.37025 -5.03052,-6.07045 -7.18667,-8.1753 -3.52073,-3.47974 -14.9077,-17.38769 -17.9204,-22.00426 -1.7717,-2.67456 -15.14086,-18.68932 -19.76696,-23.67772 -7.66654,-8.30002 -9.30034,-10.3674 -9.31927,-11.93257 -0.004,-0.3479 -0.88843,-1.55469 -1.90257,-2.71655 -1.8949,-2.06458 -1.8959,-2.1515 -1.3029,-3.46314 0.38284,-0.70032 0.80605,-1.66211 1.0182,-2.09949 0.7632,-1.61816 1.92494,-6.24157 2.20094,-8.59314 0.46506,-4.70176 1.47416,-11.14978 2.0578,-13.24402 0.33362,-1.17822 0.56873,-3.31176 0.55186,-4.703 -0.0276,-2.28645 -0.11265,-2.51021 -0.96037,-2.51021 -0.0228,0 -0.0461,1.6e-4 -0.07,4.5e-4 -0.73905,0.009 -1.168,0.49256 -1.92924,2.28455 -1.77456,4.28297 -4.11166,8.79005 -5.31016,10.37 -2.1728,2.81606 -4.86543,5.5186 -5.4747,5.5186 -0.027,0 -0.0499,-0.005 -0.0685,-0.0162 -0.3064,-0.17017 -0.43533,-3.64745 -0.4214,-9.69188 l 0.0605,-9.39355 -1.30583,-0.11463 c -0.2276,-0.0162 -0.42397,-0.0291 -0.6019,-0.0291 z" />
    </g>
  </g>
</svg>
