<?xml version="1.0" encoding="UTF-8" standalone="no"?>
<svg
   xmlns:dc="http://purl.org/dc/elements/1.1/"
   xmlns:cc="http://creativecommons.org/ns#"
   xmlns:rdf="http://www.w3.org/1999/02/22-rdf-syntax-ns#"
   xmlns:svg="http://www.w3.org/2000/svg"
   xmlns="http://www.w3.org/2000/svg"
   xmlns:sodipodi="http://sodipodi.sourceforge.net/DTD/sodipodi-0.dtd"
   xmlns:inkscape="http://www.inkscape.org/namespaces/inkscape"
   inkscape:version="1.0 (4035a4fb49, 2020-05-01)"
   height="558.38043"
   width="1157.636"
   sodipodi:docname="ĉielo.svg"
   id="svg87"
   viewBox="0 0 1157.636 558.38043"
   version="1.1">
  <metadata
     id="metadata91">
    <rdf:RDF>
      <cc:Work
         rdf:about="">
        <dc:format>image/svg+xml</dc:format>
        <dc:type
           rdf:resource="http://purl.org/dc/dcmitype/StillImage" />
        <dc:title></dc:title>
      </cc:Work>
    </rdf:RDF>
  </metadata>
  <sodipodi:namedview
     inkscape:current-layer="svg87"
     inkscape:window-maximized="1"
     inkscape:window-y="0"
     inkscape:window-x="0"
     inkscape:cy="730.20485"
     inkscape:cx="506.91471"
     inkscape:zoom="0.43085475"
     fit-margin-bottom="10"
     fit-margin-right="10"
     fit-margin-left="10"
     lock-margins="true"
     fit-margin-top="10"
     showgrid="false"
     id="namedview89"
     inkscape:window-height="1016"
     inkscape:window-width="1920"
     inkscape:pageshadow="2"
     inkscape:pageopacity="0"
     guidetolerance="10"
     gridtolerance="10"
     objecttolerance="10"
     borderopacity="1"
     bordercolor="#666666"
     pagecolor="#ffffff" />
  <defs
     id="defs5">
    <clipPath
       id="a">
      <rect
         id="rect2"
         fill="#808080"
         height="1800.8"
         width="1593.5"
         y="-396.76001"
         x="3.2388999" />
    </clipPath>
  </defs>
  <path
     style="fill:#fb8b24;fill-opacity:1"
     d="m 292.3447,10 c 38.91,0 71.153,28.746 76.637,66.142 1.3718,-0.12199 2.7522,-0.20097 4.1533,-0.20097 26.772,0 48.575,22.732 49.171,50.957 4.4726,-2.4984 9.6115,-3.9301 15.095,-3.9301 17.137,0 31.061,13.924 31.061,31.061 0,17.137 -17.534,35.927 -34.672,35.927 -145.24,0.46769 -241.74,1.9172 -386.48,0.97292 -19.486,0 -37.31,-9.2407 -37.31,-28.727 0,-19.4863 15.818,-35.304 35.304,-35.304 5.0805,0 9.9029,1.0797 14.269,3.0146 7.9102,-13.099 22.268,-21.861 38.676,-21.861 6.4608,0 12.617,1.3713 18.177,3.8184 3.0967,-19.882 20.297,-35.125 41.043,-35.125 16.378,0 30.547,9.489 37.314,23.268 6.0508,-3.5816 12.965,-5.8793 20.343,-6.4981 -0.1553,-2.0022 -0.2455,-4.0096 -0.2455,-6.0515 0,-42.755 34.708,-77.463 77.463,-77.463 z"
     fill="#ffffff"
     id="path29" />
  <path
     style="fill:#fb8b24;fill-opacity:1"
     d="m 287.2347,415.46 c 13.382,0 24.472,9.8868 26.358,22.748 0.4718,-0.042 0.9466,-0.0691 1.4285,-0.0691 9.2077,0 16.706,7.8183 16.912,17.526 1.5383,-0.85929 3.3057,-1.3517 5.1917,-1.3517 5.8941,0 10.683,4.789 10.683,10.683 0,5.8941 -6.0307,12.357 -11.925,12.357 -49.953,0.16085 -83.143,0.65939 -132.92,0.33462 -6.702,0 -12.832,-3.1782 -12.832,-9.8802 0,-6.702 5.4402,-12.142 12.142,-12.142 1.7474,0 3.4059,0.37136 4.9076,1.0368 2.7207,-4.5051 7.6587,-7.5188 13.302,-7.5188 2.2221,0 4.3395,0.47164 6.2516,1.3133 1.065,-6.8381 6.9808,-12.081 14.116,-12.081 5.6329,0 10.506,3.2636 12.833,8.0027 2.0811,-1.2318 4.4593,-2.0221 6.9966,-2.2349 -0.0534,-0.68863 -0.0845,-1.379 -0.0845,-2.0813 0,-14.705 11.937,-26.642 26.642,-26.642 z"
     fill="#ffffff"
     id="path31" />
  <path
     style="fill:#fb8b24;fill-opacity:1"
     d="m 436.7147,197.442 c -37.053,0 -67.757,27.374 -72.979,62.985 -1.3062,-0.11617 -2.6208,-0.19138 -3.9552,-0.19138 -25.494,0 -46.256,21.647 -46.824,48.525 -4.2592,-2.3792 -9.1526,-3.7426 -14.375,-3.7426 -16.319,0 -29.579,13.26 -29.579,29.579 0,16.319 16.698,34.212 33.017,34.212 138.31,0.44536 230.2,1.8257 368.03,0.92648 18.556,0 35.529,-8.7997 35.529,-27.356 0,-18.5563 -15.063,-33.619 -33.619,-33.619 -4.838,0 -9.4302,1.0282 -13.588,2.8707 -7.5328,-12.474 -21.205,-20.818 -36.83,-20.818 -6.1524,0 -12.015,1.3059 -17.309,3.6362 -2.9489,-18.933 -19.328,-33.449 -39.084,-33.449 -15.596,0 -29.089,9.0362 -35.533,22.158 -5.762,-3.4107 -12.347,-5.5988 -19.372,-6.1879 0.148,-1.9067 0.2339,-3.8182 0.2339,-5.7627 0,-40.715 -33.052,-73.766 -73.766,-73.766 z"
     fill="#ffffff"
     id="path47" />
  <path
     style="fill:#fb8b24;fill-opacity:1"
     d="m 980.2147,155.027 c 36.989,0 67.64,27.327 72.853,62.876 1.304,-0.11597 2.6161,-0.19105 3.9483,-0.19105 25.45,0 46.176,21.61 46.743,48.441 4.2518,-2.375 9.1368,-3.736 14.35,-3.736 16.291,0 29.527,13.236 29.527,29.527 0,16.291 -16.669,34.153 -32.96,34.153 -138.07,0.44459 -229.8,1.8225 -367.39,0.92487 -18.524,0 -35.467,-8.7844 -35.467,-27.309 0,-18.524 15.037,-33.561 33.561,-33.561 4.8296,0 9.4138,1.0264 13.564,2.8657 7.5198,-12.452 21.168,-20.782 36.766,-20.782 6.1417,0 11.994,1.3036 17.279,3.6299 2.9437,-18.9 19.294,-33.391 39.016,-33.391 15.569,0 29.039,9.0205 35.471,22.119 5.752,-3.4048 12.325,-5.589 19.338,-6.1772 -0.1477,-1.9034 -0.2335,-3.8116 -0.2335,-5.7526 0,-40.644 32.994,-73.638 73.638,-73.638 z"
     fill="#ffffff"
     id="path61" />
  <path
     style="fill:#fb8b24;fill-opacity:1"
     d="m 823.3147,376.23 c 36.959,0 67.584,27.304 72.793,62.824 1.3028,-0.11587 2.614,-0.19089 3.945,-0.19089 25.429,0 46.138,21.592 46.705,48.401 4.2483,-2.3731 9.1293,-3.733 14.338,-3.733 16.278,0 29.504,13.226 29.504,29.503 0,16.278 -16.655,34.125 -32.933,34.125 -137.96,0.4442 -229.62,1.821 -367.09,0.9241 -18.509,0 -35.438,-8.7772 -35.438,-27.286 0,-18.5088 15.024,-33.533 33.533,-33.533 4.8255,0 9.406,1.0256 13.553,2.8634 7.5137,-12.442 21.151,-20.765 36.736,-20.765 6.1365,0 11.984,1.3026 17.265,3.6269 2.9413,-18.885 19.279,-33.363 38.984,-33.363 15.556,0 29.015,9.0131 35.442,22.101 5.7473,-3.402 12.315,-5.5844 19.322,-6.1721 -0.1476,-1.9018 -0.2333,-3.8085 -0.2333,-5.7479 0,-40.611 32.967,-73.578 73.578,-73.578 z"
     fill="#ffffff"
     id="path63" />
</svg>
