<?xml version="1.0" encoding="UTF-8" standalone="no"?>
<svg
   xmlns:dc="http://purl.org/dc/elements/1.1/"
   xmlns:cc="http://creativecommons.org/ns#"
   xmlns:rdf="http://www.w3.org/1999/02/22-rdf-syntax-ns#"
   xmlns:svg="http://www.w3.org/2000/svg"
   xmlns="http://www.w3.org/2000/svg"
   xmlns:sodipodi="http://sodipodi.sourceforge.net/DTD/sodipodi-0.dtd"
   xmlns:inkscape="http://www.inkscape.org/namespaces/inkscape"
   height="583.91815"
   width="573.7168"
   inkscape:version="1.0 (4035a4fb49, 2020-05-01)"
   sodipodi:docname="Åtormo.svg"
   id="svg16"
   version="1.1"
   viewBox="0 0 573.7168 583.91816">
  <metadata
     id="metadata22">
    <rdf:RDF>
      <cc:Work
         rdf:about="">
        <dc:format>image/svg+xml</dc:format>
        <dc:type
           rdf:resource="http://purl.org/dc/dcmitype/StillImage" />
        <dc:title></dc:title>
      </cc:Work>
    </rdf:RDF>
  </metadata>
  <defs
     id="defs20" />
  <sodipodi:namedview
     fit-margin-bottom="10"
     fit-margin-right="10"
     fit-margin-left="10"
     lock-margins="true"
     fit-margin-top="10"
     inkscape:current-layer="svg16"
     inkscape:window-maximized="1"
     inkscape:window-y="0"
     inkscape:window-x="0"
     inkscape:cy="208.53536"
     inkscape:cx="267.15227"
     inkscape:zoom="0.21058577"
     showgrid="false"
     id="namedview18"
     inkscape:window-height="704"
     inkscape:window-width="1366"
     inkscape:pageshadow="2"
     inkscape:pageopacity="0"
     guidetolerance="10"
     gridtolerance="10"
     objecttolerance="10"
     borderopacity="1"
     bordercolor="#666666"
     pagecolor="#ffffff" />
  <path
     d="m 241.62695,334.18946 c -1.68665,0.14284 -3.10079,1.33171 -3.53125,2.96875 l -32.28125,122.16015 c -0.77172,2.9303 1.86788,5.62139 4.8125,4.90625 l 37.53125,-9.09375 -61.65625,112.81055 c -2.21804,4.00038 2.92954,7.98975 6.25,4.84375 L 366.87109,408.50391 c 2.81855,-2.62166 0.6706,-7.32169 -3.15625,-6.90625 l -59.875,6.25 35.7207,-66.375 c 1.40047,-2.6392 -0.48139,-5.82645 -3.46875,-5.875 l -94.0625,-1.40625 c -0.13531,-0.007 -0.27094,-0.007 -0.40625,0 z m 41.20117,13.9707 -17.84765,7.97656 -32.72461,88.52735 25.02539,-96.23438 z m 3.46485,100.92969 -16.92188,10.86328 -48.10938,70.39844 44.61133,-77.875 z"
     style="fill:#9a031e;fill-opacity:1"
     id="path12" />
  <path
     d="m 308.31259,14.00977 c -30.735,0 -58.037,14.71 -75.25,37.469 -14.594,-9.2676 -31.901,-14.625 -50.469,-14.625 -46.876,0 -85.767996,34.216 -93.061996,79.031 -43.073,8.7073 -75.531,46.765 -75.531,92.406 0,52.073 42.24,94.281 94.311996,94.281 21.236,0 40.832,-7.0284 56.594,-18.875 9.1676,2.9727 18.936,4.5938 29.094,4.5938 9.8334,0 19.338,-1.5196 28.25,-4.3125 16.72,15.104 38.881,24.312 63.188,24.312 24.68,0 47.163,-9.4792 63.969,-25 15.139,10.36 33.458,16.406 53.188,16.406 15.658,0 30.411,-3.809 43.406,-10.562 6.2741,1.3153 12.772,2 19.438,2 52.072,0 94.281,-42.209 94.281,-94.281 0,-52.072 -42.209,-94.281 -94.281,-94.281 -0.5112,0 -1.022,0.0231 -1.5313,0.0312 -16.788,-20.342 -41.934,-33.528 -70.188,-34.281 -15.041,-32.094 -47.62,-54.312 -85.406,-54.312 z"
     fill="#ffffff"
     id="path4" />
  <path
     d="m 308.28125,10 c -30.771,0 -58.1685,14.2705 -76.1875,36.4375 C 217.52875,37.905 200.6435,32.875 182.5625,32.875 c -47.894,0 -87.757496,34.34 -96.437496,79.75 C 42.525004,122.689 10,161.70546 10,208.31446 c 0,54.234 44.047254,98.28125 98.28125,98.28125 21.379,0 41.1775,-6.8926 57.3125,-18.5 9.0039,2.7182 18.52425,4.21875 28.40625,4.21875 9.4809,0 18.6325,-1.39665 27.3125,-3.90625 17.216,14.849 39.622,23.90429 64.125,23.90429 24.598,0 47.04129,-9.14145 64.27929,-24.09375 15.27,9.771 33.38571,15.5 52.84571,15.5 15.814,0 30.753,-3.7895 44,-10.4375 6.1241,1.1918 12.418,1.875 18.875,1.875 54.234,0 98.27929,-44.04725 98.27929,-98.28125 0,-54.171 -43.94575,-98.17925 -98.09375,-98.28125 -16.996,-19.749 -41.73175,-32.65054 -69.46875,-34.06054 -16.121,-32.276 -49.386,-54.53125 -87.875,-54.53125 z m -1.3125,16.7793 c 34.927,0 65.05425,21.0627 79.15625,51.4707 25.867,0.864 48.92675,13.05775 64.71875,31.96875 0.4243,-0.005 0.85555,-0.0312 1.28125,-0.0312 52.164,0 94.4375,38.19855 94.4375,85.31055 0,18.604 -6.6185,35.7925 -17.8125,49.8125 5.0498,-10.445 7.84375,-21.96775 7.84375,-34.09375 0,-47.111 -42.2735,-85.3125 -94.4375,-85.3125 -0.5121,0 -1.02115,0.0243 -1.53125,0.0312 -4.2213,-4.6201 -8.96005,-8.86525 -14.15625,-12.59375 l 0.40625,-0.0937 c -10.046,-7.6744 -21.69575,-13.2123 -34.34375,-16 l -0.46875,-0.0937 c -5.142,-1.10364 -10.4536,-1.75518 -15.875,-1.90625 -2.5017,-5.518 -5.50525,-10.73495 -8.96875,-15.59375 l 0.65625,-0.125 c -16.004,-21.91 -41.47325,-36.09375 -70.15625,-36.09375 -28.595,0 -53.991,14.085 -70,35.875 -0.1073,-0.07 -0.205,-0.14925 -0.3125,-0.21875 13.93,-30.87 44.3045,-52.3125 79.5625,-52.3125 z m -123.93946,21.125 c 15.468,0.252 30.0705,4.9684 42.5625,13 -4.2612,4.383 -8.0983,9.2307 -11.375,14.4707 -13.491,-7.7327 -29.15775,-11.6882 -45.59375,-10.5957 -27.921,1.856 -51.63345,17.84725 -65.31445,40.90625 10.809,-31.773 38.80645,-55.31675 73.06445,-57.59375 2.2421,-0.149 4.44645,-0.2235 6.65625,-0.1875 z m 128.61914,29.84375 c 3.5524,-0.009 7.16135,0.18705 10.78125,0.59375 49.606,5.573 85.43345,49.07225 80.03125,97.15625 -1.261,11.224 -4.62185,21.7216 -9.71875,31.125 1.8179,-5.507 3.0781,-11.30195 3.75,-17.28125 5.402,-48.084 -30.42525,-91.5518 -80.03125,-97.125 -23.519,-2.642 -45.877,3.709 -63.5,16.25 -1.7533,-1.4703 -3.59935,-2.8457 -5.46875,-4.1875 16.399,-16.432 39.28825,-26.46555 64.15625,-26.53125 z m -151.93945,25.21875 0.002,0.002 c 20.796,-0.014 40.52375,7.00175 56.09375,19.21875 -4.906,1.8235 -9.61715,4.0162 -14.03125,6.5625 -18.786,-10.0485 -41.39575,-13.5801 -64.09375,-8.3125 -37.341,8.666 -64.048946,38.63525 -69.468746,73.40625 -0.475,-20.517 6.523,-40.216 19,-56 -22.225,4.635 -41.3687,17.223 -54.2207,34.5 10.876,-24.158 32.6485,-42.63765 59.3125,-49.59375 -1.5689,4.3228 -2.8242,8.7744 -3.6875,13.375 12.317996,-14.823 29.597496,-25.9711 50.062496,-30.7207 7.058,-1.63802 14.09945,-2.4325 21.03125,-2.4375 z"
     style="fill:#9a031e;fill-opacity:1"
     id="path6" />
</svg>
