<?xml version="1.0" encoding="UTF-8" standalone="no"?>
<svg
   xmlns:dc="http://purl.org/dc/elements/1.1/"
   xmlns:cc="http://creativecommons.org/ns#"
   xmlns:rdf="http://www.w3.org/1999/02/22-rdf-syntax-ns#"
   xmlns:svg="http://www.w3.org/2000/svg"
   xmlns="http://www.w3.org/2000/svg"
   xmlns:sodipodi="http://sodipodi.sourceforge.net/DTD/sodipodi-0.dtd"
   xmlns:inkscape="http://www.inkscape.org/namespaces/inkscape"
   inkscape:version="1.0 (4035a4fb49, 2020-05-01)"
   sodipodi:docname="Åtuparo.svg"
   id="svg6978"
   viewBox="0 0 499.20038 501.48764"
   height="501.48764"
   width="499.20038"
   version="1.1">
  <metadata
     id="metadata6984">
    <rdf:RDF>
      <cc:Work
         rdf:about="">
        <dc:format>image/svg+xml</dc:format>
        <dc:type
           rdf:resource="http://purl.org/dc/dcmitype/StillImage" />
        <dc:title></dc:title>
      </cc:Work>
    </rdf:RDF>
  </metadata>
  <defs
     id="defs6982" />
  <sodipodi:namedview
     fit-margin-bottom="8"
     fit-margin-right="8"
     fit-margin-left="8"
     lock-margins="true"
     fit-margin-top="8"
     inkscape:current-layer="svg6978"
     inkscape:window-maximized="1"
     inkscape:window-y="0"
     inkscape:window-x="0"
     inkscape:cy="173.93932"
     inkscape:cx="255.90165"
     inkscape:zoom="0.57134567"
     showgrid="false"
     id="namedview6980"
     inkscape:window-height="1016"
     inkscape:window-width="1920"
     inkscape:pageshadow="2"
     inkscape:pageopacity="0"
     guidetolerance="10"
     gridtolerance="10"
     objecttolerance="10"
     borderopacity="1"
     bordercolor="#666666"
     pagecolor="#ffffff" />
  <g
     transform="translate(-104.09835,-505.06068)"
     style="fill:#0f4c5c;fill-opacity:1;stroke-linejoin:miter"
     id="g6967">
    <path
       style="fill:#0f4c5c;fill-opacity:1"
       d="m 266.2688,513.19293 c -1.97388,0.46137 -4.3836,1.58957 -8.4084,3.97351 -2.66603,1.58946 -2.8199,1.71759 -4.97322,4.56296 -2.46109,3.2813 -4.20429,6.6397 -4.84513,9.3571 -0.87158,3.79405 -0.53833,10.07463 0.92282,17.6881 0.82035,4.1529 1.38434,5.8705 2.12769,6.48584 0.58966,0.48726 1.02554,2.87109 0.71786,3.74279 -0.38452,0.99967 -1.20483,1.1792 -4.46051,0.99967 -2.20474,-0.10245 -3.12756,-0.28195 -4.02475,-0.71756 -0.64102,-0.30774 -3.23011,-1.28174 -5.76802,-2.15344 -2.53787,-0.8714 -5.53724,-1.94825 -6.6652,-2.384 -3.02494,-1.12784 -4.43488,-1.4867 -6.02433,-1.4867 -2.61477,0 -4.3836,0.4355 -5.81922,1.4356 -1.2818,0.87125 -2.9224,2.2557 -3.53769,2.92234 -0.12813,0.15363 -0.48705,0.53836 -0.76908,0.84596 -0.30762,0.3076 -0.71776,0.84575 -0.92285,1.2048 -0.6152,0.97414 -4.33237,2.40975 -6.12691,2.3841 -1.15356,-0.0256 -1.48681,0.0512 -1.97386,0.5896 l -0.58961,0.6409 -4.79383,-0.1795 c -4.1273,-0.15377 -5.33215,-0.10274 -8.40844,0.35887 -1.97386,0.28198 -5.89608,0.66663 -8.71601,0.82037 -2.81987,0.15386 -6.46006,0.46166 -8.07511,0.66666 -7.30605,0.89724 -22.22588,4.17843 -23.55889,5.1783 -0.38461,0.2561 -1.17927,1.23024 -1.82022,2.1532 -1.15352,1.6663 -1.94827,3.05055 -9.22871,16.4834 -2.15331,3.9479 -4.48615,7.9728 -5.22954,8.9726 -1.82014,2.4609 -2.58919,3.79395 -6.81904,11.9203 -1.99953,3.8711 -4.2811,8.1519 -5.02454,9.4851 -0.74343,1.333 -1.48688,2.81995 -1.66628,3.28143 -0.28201,0.82013 -0.25635,0.87147 1.30743,2.4353 0.87154,0.87167 1.94826,2.20484 2.35839,2.94817 0.43588,0.74336 1.05112,1.5381 1.38434,1.76863 1.10234,0.71797 0.82032,1.38437 -2.38402,5.38361 -2.30719,2.92242 -3.81975,5.53716 -4.56314,8.02376 -0.23073,0.7691 -0.564,1.69206 -0.76906,2.05094 -0.17946,0.35876 -0.41016,1.05109 -0.51273,1.53796 -0.28202,1.2561 -2.76864,3.6404 -4.3836,4.2042 -2.15338,0.7178 -2.66609,1.61496 -1.56379,2.6662 0.89728,0.8458 1.94828,0.69217 4.38363,-0.58957 1.20485,-0.64103 2.43538,-1.15369 2.69175,-1.15369 0.76905,0 1.56369,1.20486 1.56369,2.35856 0,0.53836 -0.23066,1.4356 -0.51266,1.9995 -0.28198,0.56406 -0.51266,1.15366 -0.51266,1.3328 -0.0257,0.89746 -1.56379,2.7434 -2.87122,3.46106 -1.53807,0.82034 -1.84577,1.53809 -0.97414,2.3327 0.61524,0.58974 1.9227,0.84594 2.69173,0.56424 1.48685,-0.5899 2.66606,-1.82034 3.71712,-3.8967 1.20488,-2.40966 1.6663,-3.025 2.33282,-3.025 1.2305,0 1.28176,2.02507 0.17943,6.25517 l -0.25633,0.99953 -1.10231,-0.15364 c -1.38433,-0.20526 -1.79447,0.20507 -1.58937,1.51234 0.2563,1.51256 0.82031,2.1534 1.9226,2.1534 0.51275,0 1.25615,-0.20487 1.61509,-0.46134 3.64016,-2.43556 3.38385,-2.35846 4.63995,-1.58946 0.46142,0.2818 1.05104,0.51274 1.3074,0.51274 0.69217,0 2.51228,-1.38434 3.23011,-2.43554 l 0.61523,-0.92274 -0.25639,-4.28106 c -0.28194,-4.8196 -0.10253,-5.8705 1.17923,-7.66504 l 0.74336,-1.02546 2.66617,-0.15386 c 3.61451,-0.17939 4.51182,-0.487 4.99888,-1.66614 0.23075,-0.5128 0.4614,-1.8973 0.5383,-3.0508 l 0.12819,-2.12767 -0.92284,-1.10233 c -0.48713,-0.61514 -1.30746,-1.38436 -1.82012,-1.7431 -0.51272,-0.3333 -1.17924,-1.1024 -1.48682,-1.6919 l -0.58965,-1.07674 0.69217,-1.35871 c 0.38452,-0.74345 1.56378,-2.94805 2.61479,-4.89635 1.05101,-1.9485 2.61481,-5.0503 3.51195,-6.9215 0.87169,-1.87135 2.12779,-4.17867 2.76868,-5.15285 1.15359,-1.71771 1.17923,-1.84585 1.12794,-3.58905 l -0.0512,-1.7944 1.71753,-1.8199 c 1.5894,-1.66634 3.74279,-4.3068 8.89554,-10.89504 1.12795,-1.43566 2.64044,-3.1018 3.35826,-3.71706 0.71774,-0.61534 1.46121,-1.4869 1.64065,-1.89713 0.43583,-1.10224 1.53806,-1.35852 4.25545,-0.99977 1.5894,0.2308 3.97353,0.2308 9.17742,-10e-5 3.87094,-0.1539 9.53636,-0.2307 12.63823,-0.2052 6.58833,0.1027 7.33169,0.282 7.6137,1.82006 0.2051,1.02544 -0.23068,15.40698 -0.61523,21.53384 -0.3333,4.9733 -1.76886,11.71536 -3.05058,14.2277 -0.25643,0.48687 -0.87163,1.69195 -1.35874,2.69164 -0.51271,0.97412 -1.40991,2.99921 -1.99956,4.48636 -0.6665,1.6661 -1.79445,3.7683 -2.94807,5.5114 -3.3582,5.05034 -6.537,9.6647 -9.12619,13.2534 -1.38425,1.92273 -2.76855,3.9994 -3.05052,4.5633 -0.30771,0.5896 -0.76911,2.4098 -1.0511,4.0505 -0.25634,1.6407 -0.79473,4.56314 -1.12789,6.4601 -1.23053,6.71645 -1.33305,8.43404 -0.48713,8.1009 0.20517,-0.0771 1.12797,-0.2822 2.05085,-0.4615 2.25591,-0.4101 2.38413,-0.25645 2.43535,2.8711 0,1.33296 -0.0513,2.7173 -0.15381,3.0762 -0.10258,0.46135 0,0.84593 0.33324,1.30754 1.79457,2.25576 2.66612,7.45972 1.94827,11.5614 -0.205,1.15346 -0.48703,3.74266 -0.61515,5.74226 -0.3077,4.10174 -0.15386,5.17834 0.9997,7.4854 0.38459,0.79486 1.20493,3.0764 1.79451,5.0503 0.61521,1.9993 1.43554,4.1016 1.84577,4.71685 0.41012,0.64075 0.74336,1.33301 0.74336,1.56385 0,0.2308 0.23074,0.64087 0.51274,0.8971 0.28205,0.2563 0.51279,0.6152 0.51279,0.82037 0,0.17938 0.28197,0.76898 0.61516,1.30723 0.51269,0.82045 0.64091,1.38435 0.74344,3.9479 0.20503,3.69164 -0.10253,5.6144 -1.25609,8.40856 -0.5128,1.20484 -1.07672,2.99954 -1.23053,4.02478 -0.17945,1.02546 -0.48706,2.02521 -0.66652,2.25592 -0.17946,0.20504 -0.41017,0.82024 -0.53836,1.35858 -0.38452,1.71772 -1.20485,4.53756 -3.12752,10.86951 -1.99954,6.51135 -3.51201,12.58695 -5.17831,20.89275 -0.58959,2.8714 -2.79425,10.0748 -3.81966,12.43324 -0.23074,0.53846 -0.4102,1.40996 -0.4102,1.9483 0,1.48686 -0.46138,2.5893 -1.74318,4.07606 -0.82033,0.9998 -1.1536,1.6407 -1.2561,2.4353 -0.23078,1.79455 -3.35827,8.0753 -5.25533,10.5106 -0.41016,0.5128 -0.97407,1.4868 -1.28172,2.179 -0.28194,0.6665 -1.12798,2.0253 -1.8714,3.025 -1.58937,2.12774 -1.6919,2.3071 -3.66585,6.947 -1.6919,3.948 -2.23025,5.61446 -3.25566,10.2287 -1.48686,6.53676 -1.6407,7.4855 -1.66635,9.20296 0,1.1535 -0.15381,2.12768 -0.48706,2.81984 -0.25637,0.5897 -0.64095,1.5637 -0.84598,2.2047 -0.23071,0.64074 -1.28175,3.2299 -2.38409,5.76794 -1.07673,2.53786 -2.69169,6.74212 -3.58895,9.35681 -0.89726,2.61481 -2.51225,7.0498 -3.58897,9.86965 -2.38407,6.22935 -2.89678,7.7419 -3.17874,9.79276 -0.25634,1.71759 -1.87145,5.66534 -3.05059,7.45974 -0.46148,0.66667 -1.48686,1.58964 -2.64048,2.35844 -2.71735,1.82031 -6.12687,5.22976 -6.12687,6.15271 0,0.15365 -0.87156,1.10211 -1.92263,2.12745 -1.35866,1.3075 -1.92267,2.02544 -1.92267,2.4868 0,0.487 0.92285,1.5637 4.02475,4.58875 5.15271,5.0246 8.43403,7.97278 8.8699,7.97278 0.20508,0 0.56395,-0.23077 0.8203,-0.51288 0.87159,-0.94835 1.48683,-0.66635 3.51209,1.6153 3.17873,3.61455 4.79379,5.69079 8.04946,10.45905 3.33258,4.845 6.89597,7.40856 13.56116,9.71575 3.20433,1.10235 6.94718,1.35871 8.53654,0.53825 0.58964,-0.3076 1.25618,-0.897 1.46124,-1.3072 0.3845,-0.7436 0.3845,-0.8203 -0.41023,-1.94845 -0.46137,-0.69215 -1.43556,-1.58925 -2.33279,-2.15335 -1.69192,-1.05106 -4.10162,-3.2814 -4.74254,-4.358 -0.23074,-0.3844 -0.74339,-0.89735 -1.12794,-1.128 -0.46143,-0.28186 -0.74346,-0.6664 -0.74346,-0.9997 0,-0.30773 -0.33326,-1.15374 -0.74336,-1.8713 -0.69217,-1.2819 -1.05112,-3.5891 -0.64094,-4.2556 0.20509,-0.3077 0.15374,-3.7428 -0.12821,-9.17766 -0.20509,-3.61444 -0.282,-4.15289 -1.02542,-5.97304 l -0.8203,-1.9993 0.17942,-3.4607 c 0.2051,-3.92224 0,-3.61475 2.64051,-4.0503 l 1.6919,-0.2822 -0.10253,-5.2808 c -0.10258,-6.2807 0.10253,-7.3573 2.0508,-10.79246 3.12755,-5.56284 5.02454,-10.10059 8.89555,-21.35424 0.15374,-0.436 0.53826,-1.74324 0.84591,-2.9482 0.30769,-1.2048 0.97415,-3.1531 1.46121,-4.3582 1.20485,-2.9738 6.63959,-13.53535 8.89546,-17.30366 2.2047,-3.64024 3.30702,-5.79344 4.15294,-8.07507 0.89731,-2.38417 2.79426,-5.87047 3.79401,-6.92167 1.82012,-1.9224 3.51206,-4.56313 5.25532,-8.15194 1.02539,-2.05072 2.87112,-5.28086 4.12723,-7.15236 1.25621,-1.8712 2.28161,-3.5119 2.28161,-3.64024 0,-0.15356 0.28203,-0.46116 0.61527,-0.66636 0.48706,-0.33315 0.74342,-0.3588 1.15359,-0.1284 0.56394,0.2821 0.56394,0.154 0.61524,5.7682 0.0256,1.1279 -0.0513,4.5373 -0.17946,7.56226 -0.30762,8.2804 0.38452,14.8429 2.28148,21.30298 1.12803,3.84526 1.40997,4.48616 2.33276,5.53681 1.58947,1.7434 3.15323,1.20505 4.22998,-1.46075 0.51262,-1.25623 0.58956,-2.0507 0.74337,-7.178 0.15383,-4.845 0.28204,-6.0755 0.7435,-7.6904 1.35862,-4.64015 2.66598,-7.5882 3.99903,-9.07497 0.48713,-0.56408 0.97416,-1.25613 1.05109,-1.53823 0.10252,-0.3076 0.82033,-1.3843 1.61505,-2.4353 2.58919,-3.43516 3.35817,-4.48625 4.12725,-5.66545 0.4102,-0.64085 1.10229,-1.4356 1.51255,-1.74325 0.92282,-0.6666 0.9485,-0.94846 0.35892,-2.58914 l -0.41023,-1.23041 0.97413,-1.61505 c 0.56401,-0.923 1.53815,-2.2047 2.20467,-2.89716 1.20482,-1.23024 1.20482,-1.25584 2.43535,-1.05084 0.69214,0.0771 1.56373,0.3846 1.94821,0.64105 0.87169,0.64075 0.99986,0.61511 1.76889,-0.20505 0.33327,-0.4103 1.53815,-1.46127 2.66612,-2.38436 1.1023,-0.92274 2.76862,-2.35834 3.71714,-3.20429 2.40972,-2.17895 6.02435,-5.43465 7.53683,-6.81885 2.53787,-2.256 3.71712,-3.0763 5.81927,-3.99914 1.17915,-0.51286 2.4354,-1.10236 2.74299,-1.30736 0.33316,-0.23067 2.38403,-1.2306 4.56311,-2.25594 2.15335,-1.02536 4.84503,-2.40986 5.97305,-3.05059 1.12796,-0.64087 2.17892,-1.15367 2.33273,-1.15367 0.12821,0 0.69214,-0.38454 1.2049,-0.8458 0.5383,-0.4874 1.69177,-1.30766 2.58914,-1.84593 0.89725,-0.53821 1.69195,-1.12777 1.7944,-1.28162 0.1026,-0.15385 0.87163,-0.7691 1.71759,-1.33295 0.87168,-0.5897 1.71759,-1.2306 1.8971,-1.4356 0.17944,-0.23096 0.92279,-0.79474 1.64062,-1.2564 1.28168,-0.7946 2.51239,-1.7685 7.30612,-5.7933 2.35837,-1.97386 6.15244,-4.9222 6.33204,-4.9222 0.12802,0 3.58883,-2.4608 5.87039,-4.17843 0.99977,-0.74357 3.84517,-3.40977 6.38321,-5.94737 4.43481,-4.46065 4.61436,-4.6914 5.87039,-7.28084 1.28174,-2.58906 1.3331,-2.71726 1.3331,-4.99866 0,-2.10205 -0.077,-2.51227 -0.79468,-3.99945 -0.43582,-0.92255 -1.05109,-2.48625 -1.35875,-3.46045 -0.3076,-0.9999 -0.92284,-2.35846 -1.33296,-3.0508 -1.07669,-1.79423 -2.99934,-3.9732 -3.92224,-4.4347 -0.41007,-0.2308 -1.28174,-0.84586 -1.92264,-1.3587 -0.64086,-0.53825 -1.79443,-1.2817 -2.56356,-1.6663 -0.76902,-0.3844 -2.2046,-1.2048 -3.15312,-1.8201 -0.94848,-0.6149 -1.87133,-1.1278 -2.05084,-1.1278 -0.17941,0 -0.61524,-0.2052 -0.94851,-0.4357 -0.56393,-0.41034 -2.46091,-1.4101 -8.20331,-4.33264 C 292.3912,699.2546 291.4428,698.87 291.212,698.87 c -0.2307,0 -1.4868,-0.51276 -2.7942,-1.1535 -1.30745,-0.6409 -2.538,-1.1538 -2.71733,-1.1538 -0.20514,0 -0.84601,-0.2819 -1.43561,-0.6154 -0.58969,-0.333 -3.10184,-1.3326 -5.56289,-2.20456 -6.94721,-2.48658 -11.35642,-4.28101 -11.84351,-4.87074 -0.23071,-0.282 -0.48709,-1.128 -0.56406,-1.8713 -0.15378,-1.41 0.0257,-15.1246 0.2052,-17.0988 0.0768,-0.64073 0.12815,-1.4868 0.12815,-1.8712 0.0256,-0.46136 0.30761,-0.9998 0.76898,-1.4358 0.74344,-0.6921 0.74344,-0.71764 0.87161,-4.4093 0.15384,-4.69103 0.82034,-9.7669 1.76892,-13.68896 0.41014,-1.69224 0.84592,-3.69174 0.99976,-4.43524 0.12811,-0.74335 0.41006,-1.81994 0.58958,-2.4354 0.20503,-0.5896 0.56398,-2.05074 0.79473,-3.25576 0.92287,-4.58884 1.15359,-5.02448 4.12722,-8.22884 1.48688,-1.61515 2.87115,-3.23015 3.07618,-3.64024 0.2052,-0.3844 0.48712,-0.69202 0.61529,-0.69202 0.15381,0 1.41,-1.5382 2.81992,-3.43504 2.84556,-3.81966 3.66589,-4.6403 5.07583,-4.999 1.69193,-0.46146 6.48578,-0.7691 11.71543,-0.7691 2.8198,0 7.28045,-0.12816 9.89508,-0.3077 3.66604,-0.23055 6.20385,-0.23055 10.89517,0 7.5881,0.3588 9.35693,0.17954 14.71475,-1.4355 4.10156,-1.2306 6.12668,-1.94843 8.58774,-3.025 2.20466,-0.97415 3.48642,-1.5124 4.97339,-2.0765 1.89703,-0.71784 8.02374,-3.76844 9.07489,-4.5119 0.38452,-0.282 1.40988,-0.7689 2.25586,-1.128 1.76882,-0.6663 2.94806,-1.4867 4.4606,-3.0504 0.97409,-1.0001 1.28174,-1.128 6.40878,-2.6661 7.92124,-2.35864 9.30567,-2.81994 9.45944,-3.2558 0.282,-0.69207 0.1539,-1.79455 -0.23077,-2.3072 -0.66647,-0.8973 -0.46133,-1.2817 1.15369,-1.9739 1.71748,-0.71773 1.79448,-0.9485 1.25604,-3.2302 -0.33322,-1.4866 -0.0769,-1.7431 2.20468,-2.0508 2.15336,-0.3075 6.76779,-2.46084 8.716,-4.1015 0.69211,-0.5639 1.3588,-1.05105 1.46119,-1.05105 0.1026,0 0.846,-0.5896 1.61507,-1.2818 0.9485,-0.84601 1.6407,-1.28198 2.1022,-1.28198 0.4614,0 0.99968,-0.33313 1.66612,-1.02533 1.48678,-1.58948 1.40998,-2.12774 -0.97422,-6.30628 -0.692,-1.23046 -4.63992,-4.97333 -5.22952,-4.97333 -0.12818,0 -0.82034,0.35897 -1.53828,0.79467 l -1.28163,0.79475 -1.61499,-0.84585 c -2.33286,-1.20487 -2.66611,-0.97434 -4.66571,3.0249 -0.84589,1.7175 -1.82004,3.40945 -2.15332,3.76846 -0.69217,0.71774 -2.9993,1.69184 -4.05039,1.69184 -0.38452,0 -1.38426,-0.282 -2.23019,-0.61524 -2.58914,-0.99976 -2.84555,-1.02556 -3.7428,-0.23096 -0.61539,0.5386 -0.94852,1.2051 -1.35857,2.7691 l -0.56404,2.05085 -3.97351,1.58925 c -2.17892,0.8717 -4.43481,1.8202 -4.99878,2.10216 -0.56407,0.30764 -1.82013,0.82034 -2.81994,1.17914 -0.97406,0.3846 -2.02518,0.82055 -2.33277,1.02545 -1.2305,0.79475 -7.74188,2.66605 -11.12579,3.2044 -3.23007,0.48715 -5.92182,1.05105 -8.33147,1.69195 -7.56248,1.9997 -10.408,2.3073 -15.89406,1.58936 -2.28144,-0.28186 -12.25366,-0.38446 -18.84184,-0.1535 -1.15367,0.0256 -2.2817,-0.0771 -2.81996,-0.2821 -4.28114,-1.64051 -3.99914,-1.38436 -5.66544,-5.69092 -1.25613,-3.33274 -2.25595,-4.97344 -4.4349,-7.33179 -1.974,-2.12781 -2.6918,-2.56378 -4.38367,-2.82005 -1.28183,-0.15364 -1.71759,-0.64077 -1.38433,-1.5381 0.30758,-0.8458 -0.38456,-0.5895 11.3308,-4.281 4.74262,-1.5128 5.89615,-2.15345 6.74216,-3.76844 0.51266,-0.99982 0.4614,-1.71746 -0.30768,-3.84526 l -0.66638,-1.8715 0.53827,-1.1022 c 0.51273,-1.0256 0.51273,-1.30745 0.28203,-3.461 -0.15392,-1.2816 -0.20516,-2.56324 -0.10256,-2.8711 0.10256,-0.282 0.66648,-0.9997 1.28171,-1.5891 1.30743,-1.2051 1.46121,-2.02535 0.48712,-2.8714 -0.35885,-0.3075 -0.64093,-0.7177 -0.64093,-0.92274 0,-0.28211 -1.33301,-1.48706 -3.794,-3.40956 -0.69214,-0.56395 -1.58939,-3.02495 -1.58939,-4.4605 0,-0.61536 0.23083,-1.4869 0.56409,-2.0766 l 0.58941,-1.0256 -1.28177,-1.1276 c -0.71765,-0.61523 -1.51245,-1.3588 -1.7944,-1.6408 -4.61435,-4.5374 -4.5119,-4.17853 -1.76892,-6.9218 2.28162,-2.2814 2.66624,-2.9478 2.84567,-4.87056 l 0.12812,-1.43549 -1.48682,-0.79485 c -4.69135,-2.4866 -8.76743,-3.4351 -11.74109,-2.7172 -2.02512,0.4614 -3.05069,0.1794 -4.7681,-1.33316 -0.76907,-0.69204 -1.58941,-1.17914 -2.10214,-1.25599 -3.89648,-0.53839 -9.25433,-0.79475 -10.5874,-0.48712 z m -0.33313,221.00263 c 0.28193,0.28198 0.10243,0.53834 -0.97427,1.53794 -4.97315,4.5376 -6.46006,6.07564 -8.48526,8.69045 -4.46058,5.81935 -6.1012,7.61359 -7.74189,8.38285 -0.87158,0.38455 -1.61505,0.9484 -1.82013,1.3329 -0.20511,0.3588 -1.10235,1.3586 -2.0252,2.23023 -0.92289,0.89737 -1.9227,1.89704 -2.23026,2.23027 -0.30766,0.3589 -1.17927,1.17934 -1.97396,1.8201 -1.3587,1.12786 -1.58944,1.2306 -3.69157,1.5125 -1.53803,0.2307 -2.87109,0.61523 -4.17855,1.2047 -6.07555,2.81996 -6.28066,2.9737 -8.38274,5.6911 -2.89682,3.7172 -3.28131,4.1272 -3.94786,4.1272 -0.38455,0 -0.82033,-0.1794 -0.99982,-0.3845 -0.3332,-0.3843 0.12822,-1.4355 4.61438,-10.76686 0.82034,-1.69194 1.87138,-3.99894 2.38413,-5.12704 0.48707,-1.12784 1.58937,-3.61453 2.43548,-5.5114 0.84587,-1.89714 2.12763,-4.89635 2.8711,-6.6651 2.46099,-5.84496 4.25546,-9.4081 4.97328,-9.86974 0.99971,-0.66662 3.28129,-0.7691 16.61174,-0.7691 9.71573,0 12.30496,0.0768 12.5614,0.3335 z"
       id="path6965" />
  </g>
  <g
     transform="translate(-104.09835,-505.06068)"
     style="fill:#0f4c5c;fill-opacity:1;stroke-linejoin:miter"
     id="g6971">
    <path
       style="fill:#0f4c5c;fill-opacity:1"
       d="m 472.5053,663.10846 7e-5,41.1449 -41.40117,10e-4 -41.40104,-10e-4 v 41.52942 41.52915 l -41.58056,0.0514 -41.60624,0.077 -0.0769,42.2215 -0.0513,42.24687 -40.96538,0.0511 -40.93972,0.0769 -0.1282,41.91374 -0.12812,41.914 -41.09354,0.077 -41.06784,0.0511 v 21.27737 l 1e-5,21.27744 61.52492,9.6e-4 61.52497,-8.4e-4 0.0512,-42.24706 0.0768,-42.22144 41.32418,-0.077 41.3499,-0.0516 0.0513,-41.606 0.077,-41.58075 41.3498,-0.0766 41.32435,-0.0515 v -41.91358 l -10e-5,-41.91386 h 41.40118 41.40112 l -1.5e-4,-41.40126 V 664.0058 l 40.83715,-0.0515 40.81153,-0.0769 0.0768,-20.96974 0.0514,-20.9441 -61.3967,10e-4 -61.3967,-10e-4 z"
       id="path6969" />
  </g>
</svg>
